<svg viewBox="0 0 734 518" xmlns="http://www.w3.org/2000/svg"><path fill="#ed3124" d="M718.343 81.345c-8.434-31.757-33.283-56.767-64.834-65.255C596.319.667 367 .667 367 .667S137.68.667 80.491 16.09c-31.551 8.488-56.4 33.498-64.834 65.255C.333 138.905.333 259 .333 259s0 120.095 15.324 177.655c8.434 31.756 33.283 56.767 64.834 65.255 57.19 15.423 286.51 15.423 286.51 15.423s229.319 0 286.508-15.423c31.551-8.488 56.4-33.499 64.834-65.255C733.667 379.095 733.667 259 733.667 259s0-120.095-15.324-177.655Z"/><path fill="#fefefe" d="M292 368.037V149.963l191.667 109.04L292 368.037Z"/></svg>
