<svg fill="none" height="38" width="218" xmlns="http://www.w3.org/2000/svg"><g fill="#000"><path d="M.4 2.4h22.1l-2 6.3H7.9v7.6h10.5v6.3H7.9V31h14.7v6.3H.4zM38.6 31.5c3.2 0 5.3-1.2 5.3-3.6 0-2-1.4-2.9-3.2-3.7l-5.9-2.7c-3.9-1.9-7.2-4.1-7.2-9.2 0-6.3 5.3-10.4 12-10.4 4.1 0 7.7 1.7 9.6 3.4V13c-2.7-2.7-6.3-4.8-9.9-4.8-2.5 0-4.4 1.2-4.4 3.3 0 1.5 1 2.4 2.6 3.1l5.4 2.4c5.4 2.4 8.2 4.8 8.2 9.9 0 6.8-5.6 10.9-12.7 10.9-4.6 0-8.5-1.7-10.8-3.5v-7.7c3.1 2.7 6.9 4.9 11 4.9zM72.3 8.7v28.7h-7.7V8.7H53.7V2.4h29.4v6.3zM102.3 31.2c4 0 6.6-2.6 6.6-7.8v-21h7.7v21.1c0 9.2-6.2 14.5-14.3 14.5S88 32.7 88 23.5V2.4h7.6v21.1c0 5.1 2.7 7.7 6.7 7.7zM166.1 37.4h-7.6v-35h10.7c8 0 13.6 4.2 13.6 11.2 0 4.5-2.4 7.8-6.2 9.5l10.2 14.4h-8.9l-9.1-13h-2.6v12.9zm0-19h3c3.6 0 5.9-1.8 5.9-4.8 0-3.1-2.3-4.9-5.9-4.9h-3zM196.7 37.4V22L183.6 2.4h8.6l8.3 12.5 8.4-12.5h8.6L204.4 22v15.4zM135.8.9l-18.4 36.5h14.8v-6.8h-4.1l7.7-15.2 7.6 15.2h-4.1v6.8h14.8z"/></g></svg>