<svg fill="none" height="32" viewBox="0 0 153 32" width="153" xmlns="http://www.w3.org/2000/svg"><path d="m26.9585 9.7759c-.6591-.40592-1.516-.40592-2.241 0l-5.1413 3.112-3.4934 2.0296-5.1412 3.1121c-.6591.4059-1.516.4059-2.24105 0l-4.08662-2.4355c-.65913-.4059-1.12053-1.1501-1.12053-1.962v-4.80335c0-.81184.39548-1.55602 1.12053-1.96194l4.02071-2.36787c.65913-.40592 1.51596-.40592 2.24106 0l4.0207 2.36787c.6591.40592 1.1205 1.1501 1.1205 1.96194v3.11205l3.4934-2.09725v-3.11205c0-.81184-.3954-1.55602-1.1205-1.96194l-7.4482-4.46512c-.6591-.40592-1.516-.40592-2.24105 0l-7.58002 4.46512c-.72505.40592-1.12053 1.1501-1.12053 1.96194v8.9979c0 .8118.39548 1.556 1.12053 1.9619l7.58002 4.4651c.65914.406 1.51605.406 2.24105 0l5.1412-3.0444 3.4934-2.0972 5.1413-3.0444c.6591-.4059 1.516-.4059 2.241 0l4.0207 2.3679c.6592.4059 1.1206 1.1501 1.1206 1.9619v4.8034c0 .8118-.3955 1.556-1.1206 1.9619l-4.0207 2.4356c-.6591.4059-1.516.4059-2.241 0l-4.0207-2.3679c-.6592-.4059-1.1206-1.1501-1.1206-1.962v-3.112l-3.4934 2.0972v3.1121c0 .8118.3955 1.556 1.1206 1.9619l7.58 4.4652c.6591.4059 1.516.4059 2.241 0l7.5801-4.4652c.6591-.4059 1.1205-1.1501 1.1205-1.9619v-8.9979c0-.8118-.3955-1.556-1.1205-1.9619z" fill="#7950dd"/><g fill="#000"><path d="m49.6421 29.1225v-7.47c.8038 1.02 2.2625 1.59 3.9595 1.59 4.3167 0 7.2343-3.09 7.2343-7.8s-2.6794-7.8-6.8771-7.8c-1.9351 0-3.4236.72-4.3167 1.89v-1.65h-4.1382v21.24zm3.4534-9.48c-2.2328 0-3.6916-1.68-3.6916-4.2 0-2.55 1.4588-4.23 3.6916-4.23 2.1732 0 3.6618 1.68 3.6618 4.23 0 2.52-1.4886 4.2-3.6618 4.2z"/><path d="m70.2325 23.2425c4.6145 0 7.9191-3.3 7.9191-7.8s-3.3046-7.8-7.9191-7.8c-4.6144 0-7.919 3.3-7.919 7.8s3.3046 7.8 7.919 7.8zm0-3.6c-2.2328 0-3.7511-1.71-3.7511-4.2 0-2.52 1.5183-4.23 3.7511-4.23 2.2329 0 3.7512 1.71 3.7512 4.23 0 2.49-1.5183 4.2-3.7512 4.2z"/><path d="m84.7914 23.0025v-21.69h-4.1381v21.69z"/><path d="m97.2307 7.8825-3.1259 9.75-3.1557-9.75h-4.2275l5.4481 15-2.203 6.24h3.9595l2.1137-6.18 5.4481-15.06z"/><path d="m113.11 9.3825c-.834-1.05-2.322-1.74-4.138-1.74-4.377 0-7.026 3.09-7.026 7.8s2.649 7.8 7.085 7.8c1.757 0 3.334-.66 4.109-1.77v1.98c0 1.41-.923 2.4-2.174 2.4h-6.907v3.27h7.562c3.394 0 5.657-2.07 5.657-5.22v-16.02h-4.168zm-3.424 10.26c-2.203 0-3.662-1.65-3.662-4.2s1.459-4.23 3.662-4.23c2.233 0 3.692 1.68 3.692 4.23s-1.459 4.2-3.692 4.2z"/><path d="m127.71 23.2425c4.615 0 7.919-3.3 7.919-7.8s-3.304-7.8-7.919-7.8c-4.614 0-7.919 3.3-7.919 7.8s3.305 7.8 7.919 7.8zm0-3.6c-2.233 0-3.751-1.71-3.751-4.2 0-2.52 1.518-4.23 3.751-4.23s3.751 1.71 3.751 4.23c0 2.49-1.518 4.2-3.751 4.2z"/><path d="m142.061 23.0025v-8.28c0-1.95 1.28-3.36 3.096-3.36 1.726 0 2.887 1.32 2.887 3.15v8.49h4.168v-9.42c0-3.48-2.203-5.94-5.597-5.94-2.054 0-3.721.87-4.554 2.34v-2.1h-4.168v15.12z"/></g></svg>