<svg
  xmlns="http://www.w3.org/2000/svg"
  viewBox="0 0 118 24"
  fill="currentColor"
>
  <mask
    id="a"
    width="84"
    height="25"
    x="34"
    y="0"
    maskUnits="userSpaceOnUse"
    style="mask-type:luminance"
  >
    <path fill="#fff" d="M117.274 0H34.311v24h82.963V0Z"/>
  </mask>

  <g fill="currentColor" mask="url(#a)">
    <path d="M103.767 4.359a2.18 2.18 0 0 0 2.181-2.18 2.18 2.18 0 0 0-4.362 0 2.18 2.18 0 0 0 2.181 2.18ZM43.261.748l-8.95 22.765h3.938l2.414-6.244h9.325l2.386 6.244h3.97L47.395.748h-4.133Zm1.985 4.228h.13l3.526 9.138H41.72l3.526-9.138h.001ZM68.599 7.838c-1.226-.801-2.717-1.204-4.476-1.204s-3.12.359-4.346 1.074c-1.225.715-2.169 1.734-2.83 3.057-.662 1.322-.993 2.84-.993 4.553 0 1.714.33 3.286.992 4.587.662 1.301 1.61 2.31 2.848 3.024 1.237.715 2.68 1.073 4.329 1.073 1.345 0 2.533-.223 3.563-.666 1.03-.444 1.871-1.066 2.523-1.87a6.717 6.717 0 0 0 1.335-2.763h-3.45c-.217.65-.662 1.215-1.335 1.69-.674.477-1.552.715-2.636.715-1.54 0-2.724-.535-3.548-1.609-.638-.829-1.001-1.909-1.094-3.236h12.224c.239-1.886.087-3.562-.454-5.024-.543-1.465-1.426-2.597-2.652-3.4v-.001Zm-8.577 4.195c.368-.845.895-1.49 1.578-1.934.683-.445 1.481-.667 2.393-.667 1.041 0 1.908.245 2.603.732a3.8 3.8 0 0 1 1.449 1.95c.166.5.243 1.035.234 1.61h-8.712c.08-.616.232-1.18.455-1.69ZM96.541 7.4c-.911-.51-1.997-.765-3.255-.765-1.412 0-2.57.314-3.483.943-.664.458-1.205 1.08-1.627 1.86V.748h-3.483v22.765h3.483v-8.098c0-1.907.385-3.343 1.156-4.31.77-.963 1.827-1.447 3.173-1.447 1.128 0 1.974.342 2.538 1.024.564.683.846 1.73.846 3.139v9.69h3.483V13.105c0-1.366-.244-2.53-.732-3.495-.489-.964-1.188-1.702-2.099-2.212V7.4ZM105.524 7.123h-3.483v16.39h3.483V7.123ZM112.001 7.123c-1.172 0-2.072.314-2.701.942-.629.63-.944 1.528-.944 2.7v12.747h3.484V10.114h5.436V7.123H112.001ZM77.257 2.05h-3.483v17.82c0 1.171.314 2.07.944 2.699.629.629 1.528.943 2.7.943h5.273V20.52h-5.436V10.113h5.437V7.12h-5.437V2.049h.002Z"/>
  </g>

  <mask
    id="b"
    width="30"
    height="24"
    x="0"
    y="0"
    maskUnits="userSpaceOnUse"
    style="mask-type:luminance"
  >
    <path fill="#fff" d="M29.524.74H.538v22.733h28.986V.741Z"/>
  </mask>

  <g mask="url(#b)">
    <path fill="currentColor" d="M18.089.74H11.97c-.705 0-1.347.403-1.652 1.034L7.189 8.237c-.391.808.2 1.746 1.103 1.746h4.221a1.53 1.53 0 0 0 1.377-.862l1.14-2.353 5.835 12.055-7.884-5.68a1.844 1.844 0 0 0-1.077-.347H6.133c-.705 0-1.347.402-1.653 1.033L.66 21.727c-.392.809.2 1.746 1.102 1.746h4.221a1.53 1.53 0 0 0 1.378-.861l3.102-6.408 8.546 6.473a3.927 3.927 0 0 0 2.37.796h6.92c.902 0 1.494-.937 1.102-1.746l-9.66-19.953A1.835 1.835 0 0 0 18.09.741Z"/>
  </g>
</svg>
