<svg fill="none" xmlns="http://www.w3.org/2000/svg" viewBox="0 0 80 63">
<mask id="mask0_2170_18913" style="mask-type:luminance" maskUnits="userSpaceOnUse" x="0" y="0" width="80" height="63">
<path d="M80 0H0V62.7395H80V0Z" fill="#D7FE51"/>
</mask>
<g mask="url(#mask0_2170_18913)">
<path d="M48.4399 0H31.5529C29.6073 0 27.8353 1.10905 26.9915 2.8524L18.3582 20.689C17.2778 22.92 18.9108 25.5075 21.4003 25.5075H33.0508C34.6712 25.5075 36.1478 24.5831 36.8525 23.1297L39.9962 16.6354L56.1026 49.906L34.3417 34.2284C33.4771 33.6069 32.4389 33.2705 31.3711 33.2705H15.4421C13.497 33.2705 11.7249 34.3797 10.8807 36.123L0.335881 57.9213C-0.744099 60.1519 0.888947 62.7398 3.37839 62.7398H15.0289C16.6489 62.7398 18.1259 61.8154 18.8306 60.3619L27.392 42.6765L50.9799 60.5424C52.8618 61.9666 55.1573 62.7398 57.5203 62.7398H76.6183C79.1077 62.7398 80.7408 60.1519 79.6608 57.9213L53.0012 2.8524C52.157 1.10905 50.385 0 48.4399 0Z" fill="#D7FE51"/>
</g>
</svg>
