<svg xmlns="http://www.w3.org/2000/svg" fill="currentColor" style="height:24px" viewBox="0 0 118 24"><mask id="a" width="84" height="24" x="34" y="0" maskUnits="userSpaceOnUse" style="mask-type:luminance"><path fill="#fff" d="M117.274 0H34.311v24h82.963V0Z"/></mask><g fill="#9F9FA9" mask="url(#a)"><path d="M103.767 4.358a2.18 2.18 0 0 0 2.181-2.179 2.18 2.18 0 0 0-4.362 0 2.18 2.18 0 0 0 2.181 2.18ZM43.261.748l-8.95 22.765h3.938l2.414-6.244h9.325l2.386 6.245h3.97L47.395.748h-4.133Zm1.985 4.228h.13l3.526 9.139H41.72l3.526-9.139h.001ZM68.599 7.836c-1.226-.8-2.717-1.203-4.476-1.203s-3.12.358-4.346 1.073c-1.225.715-2.169 1.735-2.83 3.057-.662 1.323-.993 2.84-.993 4.554 0 1.713.33 3.285.992 4.586.662 1.302 1.61 2.31 2.848 3.025 1.237.715 2.68 1.073 4.329 1.073 1.345 0 2.533-.223 3.563-.666 1.03-.445 1.871-1.067 2.523-1.87a6.717 6.717 0 0 0 1.335-2.764h-3.45c-.217.65-.662 1.215-1.335 1.69-.674.478-1.552.716-2.636.716-1.54 0-2.724-.536-3.548-1.61-.638-.828-1.001-1.908-1.094-3.235h12.224c.239-1.886.087-3.562-.454-5.025-.543-1.464-1.426-2.596-2.652-3.399v-.002Zm-8.577 4.196c.368-.845.895-1.49 1.578-1.935.683-.445 1.481-.666 2.393-.666 1.041 0 1.908.244 2.603.731a3.8 3.8 0 0 1 1.449 1.951c.166.499.243 1.035.234 1.61h-8.712c.08-.616.232-1.18.455-1.691ZM96.541 7.4c-.911-.51-1.997-.764-3.255-.764-1.412 0-2.57.314-3.483.943-.664.457-1.205 1.08-1.627 1.86V.748h-3.483v22.765h3.483v-8.097c0-1.907.385-3.344 1.156-4.31.77-.964 1.827-1.447 3.173-1.447 1.128 0 1.974.342 2.538 1.024.564.682.846 1.73.846 3.138v9.69h3.483V13.106c0-1.367-.244-2.531-.732-3.495-.489-.964-1.188-1.702-2.099-2.212V7.4ZM105.524 7.123h-3.483v16.391h3.483V7.124ZM112.001 7.123c-1.172 0-2.072.314-2.701.943s-.944 1.528-.944 2.699v12.747h3.484V10.115h5.436V7.123H112.001ZM77.257 2.049h-3.483v17.82c0 1.172.314 2.07.944 2.7.629.628 1.528.942 2.7.942h5.273V20.52h-5.436V10.112h5.437V7.12h-5.437V2.05h.002Z"/></g><mask id="b" width="30" height="24" x="0" y="0" maskUnits="userSpaceOnUse" style="mask-type:luminance"><path fill="#fff" d="M29.524.74H.538v22.733h28.986V.74Z"/></mask><g mask="url(#b)"><path fill="#9F9FA9" d="M18.089.74H11.97c-.705 0-1.347.402-1.652 1.034L7.189 8.237c-.391.808.2 1.745 1.103 1.745h4.221a1.53 1.53 0 0 0 1.377-.861l1.14-2.353 5.835 12.055-7.884-5.68a1.844 1.844 0 0 0-1.077-.348H6.133c-.705 0-1.347.402-1.653 1.034L.66 21.727c-.392.808.2 1.746 1.102 1.746h4.221a1.53 1.53 0 0 0 1.378-.862l3.102-6.408 8.546 6.474a3.927 3.927 0 0 0 2.37.796h6.92c.902 0 1.494-.938 1.102-1.746l-9.66-19.953A1.835 1.835 0 0 0 18.09.74Z"/></g></svg>
