<svg fill="none" xmlns="http://www.w3.org/2000/svg" viewBox="0 0 78.63 80">
<path d="M21.1263 16.8379L17.585 20.1869V24.1811H32.8793V20.1869L29.5618 16.8379H21.1263Z" fill="#000"/>
<path d="M66.0647 0H12.556L0 12.6246V67.3755L12.556 80H66.0647L78.6207 67.3755V12.6246L66.0647 0ZM36.2068 49.8003H32.876V46.4513H17.5817V53.7283H34.5414L36.2068 55.4026V64.8339L34.5414 66.4952H15.9196L14.2708 64.8339V61.0051H17.585V63.1595H32.8793V57.0771H15.9196L14.2708 55.4026V44.7801L15.9196 43.1189H34.5414L36.2068 44.7801V49.8003ZM36.2068 36.8811H32.876V27.516H17.5817V36.8811H14.2674V18.515L19.247 13.5082H31.2106L36.2034 18.515V36.8811H36.2068ZM64.3499 66.4952H61.0192V57.1301H45.725V66.4952H42.4106V48.1291L47.3903 43.1222H59.3539L64.3466 48.1291V66.4952H64.3499ZM64.3499 36.8811H61.0192V20.1862L57.705 16.8372H49.2663L45.725 20.1862V36.8811H42.4106V18.515L47.3903 13.5082H59.3539L64.3466 18.515V36.8811H64.3499Z" fill="#000"/>
<path d="M49.2693 46.4512L45.728 49.8001V53.7942H61.0222V49.8001L57.7047 46.4512H49.2693Z" fill="#000"/>
</svg>
