<svg fill="none" viewBox="0 0 32 32" xmlns="http://www.w3.org/2000/svg"><path d="M8.554 6.558c3.014 2.263 6.256 6.85 7.446 9.313 1.19-2.462 4.432-7.05 7.446-9.313 2.175-1.633 5.698-2.896 5.698 1.124 0 .803-.46 6.744-.73 7.708-.938 3.354-4.358 4.209-7.4 3.691 5.317.905 6.67 3.902 3.75 6.9-5.548 5.692-7.974-1.429-8.596-3.253-.114-.335-.167-.491-.168-.358 0-.133-.054.023-.168.358-.622 1.824-3.047 8.945-8.595 3.253-2.92-2.998-1.568-5.995 3.748-6.9-3.041.518-6.46-.337-7.4-3.69-.269-.965-.73-6.906-.73-7.71 0-4.019 3.525-2.756 5.7-1.123Z" stroke="currentColor" stroke-width="1.5" stroke-linejoin="round"/></svg>
