<svg viewBox="0 0 167 50" fill="none" xmlns="http://www.w3.org/2000/svg"><g clip-path="url(#a)"><path d="M47.811 37.01 28.198 48.233M28.198 3.347l19.613 11.221M8.585 14.568l19.613-11.22M28.198 48.821 8.585 37.205V13.973l19.613 11.616V48.82Z" stroke="currentColor" stroke-width="2.104" stroke-miterlimit="1"/><path d="m28.198 48.232 19.613-11.42v-22.84l-19.613 11.42v22.84Z" stroke="currentColor" stroke-width="2.104" stroke-miterlimit="1"/><path d="M47.811 14.604 28.198 3.324 8.585 14.605l19.613 11.238 19.613-11.238Z" stroke="currentColor" stroke-width="2.104" stroke-miterlimit="1"/><path d="M28.24 29.124c2.069 0 3.746-1.62 3.746-3.62 0-1.999-1.677-3.62-3.746-3.62s-3.746 1.621-3.746 3.62c0 2 1.677 3.62 3.746 3.62Z" fill="currentColor"/><path fill-rule="evenodd" clip-rule="evenodd" d="m27.907 2.829-2.054 1.139c-.01.38.075.758.267 1.104.631 1.138 2.181 1.485 3.462.774a2.852 2.852 0 0 0 1.203-1.266L27.907 2.83ZM8.415 37.8l2.03 1.18c.332-.185.614-.452.812-.793.654-1.126.158-2.635-1.108-3.37a2.852 2.852 0 0 0-1.704-.385l-.03 3.369ZM47.98 37.247v-2.349a2.14 2.14 0 0 0-1.095-.302c-1.301 0-2.357 1.187-2.357 2.651 0 .631.196 1.211.524 1.666l2.928-1.666Z" fill="currentColor"/><path fill-rule="evenodd" clip-rule="evenodd" d="M36.041 36.27c15.012-9.028 23.705-22.127 19.417-29.258-3.11-5.172-12.193-5.785-22.675-2.288l2.253 1.278C42.648 3.98 48.867 4.634 51.072 8.3c3.486 5.796-4.383 16.927-17.577 24.861-13.193 7.934-26.714 9.666-30.2 3.87-2.018-3.357-.23-8.503 4.197-13.78v-2.409c-6.45 6.967-9.205 14.192-6.397 18.86 4.288 7.132 19.934 5.595 34.946-3.433Z" fill="currentColor"/><path fill-rule="evenodd" clip-rule="evenodd" d="M53.775 37.847c1.711-3.129.113-7.937-3.802-13.011l1.242-1.476c5.692 6.756 8.142 13.508 5.762 17.858-3.864 7.065-19.002 5.122-33.813-4.34a70.376 70.376 0 0 1-2.662-1.788 4.427 4.427 0 0 0 1.88-3.326c.696.484 1.409.959 2.138 1.425 13.016 8.316 26.114 10.402 29.255 4.658ZM16.546 27.19C8.459 20.018 4.207 12.18 6.64 7.732c2.091-3.824 8.598-4.177 16.556-1.53l1.785-1.026C14.803 1.444 6.134 1.849 3.344 6.95.404 12.328 4.842 21.375 13.66 29.563a4.567 4.567 0 0 1 2.886-2.373Zm26.328-9.663 1.697-.776a59.778 59.778 0 0 0-.205-.173l-1.558.893c.022.02.044.038.066.056Z" fill="currentColor"/><path d="M50.294 11.616c3.231 0 5.85-2.6 5.85-5.808C56.144 2.6 53.525 0 50.294 0c-3.23 0-5.85 2.6-5.85 5.808 0 3.208 2.62 5.808 5.85 5.808Z" fill="currentColor"/><path fill-rule="evenodd" clip-rule="evenodd" d="M17.803 37.29c3.23 0 5.85-2.6 5.85-5.808 0-3.208-2.62-5.808-5.85-5.808-3.231 0-5.85 2.6-5.85 5.808 0 3.208 2.619 5.808 5.85 5.808Zm.042-2.02a3.788 3.788 0 1 0 0-7.576 3.788 3.788 0 0 0 0 7.576Z" fill="currentColor"/><path d="M64.415 24.374c0-1.284.278-2.426.833-3.426a5.894 5.894 0 0 1 2.315-2.352c1-.568 2.13-.852 3.39-.852 1.542 0 2.863.408 3.962 1.223 1.099.814 1.833 1.925 2.204 3.333h-3.482a2.794 2.794 0 0 0-1.11-1.24c-.47-.285-1.007-.427-1.612-.427-.975 0-1.765.34-2.37 1.019-.605.679-.908 1.586-.908 2.722s.303 2.043.908 2.722c.605.68 1.395 1.019 2.37 1.019.605 0 1.142-.142 1.611-.426a2.794 2.794 0 0 0 1.111-1.241h3.482c-.37 1.407-1.105 2.518-2.204 3.333-1.099.803-2.42 1.204-3.963 1.204-1.26 0-2.389-.278-3.389-.833a6.056 6.056 0 0 1-2.315-2.352c-.555-1-.833-2.142-.833-3.426Zm17.81-6.482v13h-3.167v-13h3.167Zm7.165 0c1.37 0 2.568.272 3.592.815a5.746 5.746 0 0 1 2.37 2.296c.569.976.853 2.105.853 3.39 0 1.271-.284 2.4-.852 3.388-.556.988-1.352 1.753-2.39 2.297-1.023.543-2.215.814-3.573.814h-4.87v-13h4.87Zm-.204 10.26c1.198 0 2.13-.328 2.796-.982.667-.654 1-1.58 1-2.778 0-1.197-.333-2.13-1-2.796-.666-.666-1.598-1-2.796-1h-1.5v7.556h1.5ZM101.9 20.41c.729 0 1.364.148 1.907.444.556.297.982.686 1.278 1.167v-1.463h3.167v10.315c0 .95-.191 1.809-.574 2.574-.371.778-.945 1.395-1.723 1.852-.765.457-1.722.685-2.87.685-1.53 0-2.771-.364-3.722-1.093-.95-.716-1.493-1.69-1.63-2.926h3.13c.099.395.333.704.704.926.37.235.827.352 1.37.352.655 0 1.173-.191 1.555-.574.396-.37.593-.969.593-1.796V29.41a3.577 3.577 0 0 1-1.278 1.185c-.543.296-1.178.445-1.907.445a4.28 4.28 0 0 1-2.315-.649c-.691-.444-1.24-1.067-1.648-1.87-.395-.815-.593-1.753-.593-2.815s.198-1.994.593-2.796c.407-.803.957-1.42 1.648-1.852a4.28 4.28 0 0 1 2.315-.648Zm3.185 5.315c0-.79-.222-1.414-.667-1.87a2.105 2.105 0 0 0-1.592-.686c-.63 0-1.167.229-1.611.685-.432.445-.648 1.062-.648 1.852s.216 1.42.648 1.89c.444.456.981.684 1.611.684.629 0 1.161-.228 1.592-.685.445-.457.667-1.08.667-1.87Zm8.625-3.445a4.082 4.082 0 0 1 1.389-1.333 3.525 3.525 0 0 1 1.851-.5V23.8h-.87c-.79 0-1.383.173-1.778.518-.395.334-.592.926-.592 1.778v4.796h-3.167V20.56h3.167v1.722Zm4.124 3.426c0-1.062.198-1.994.593-2.796.407-.803.957-1.42 1.648-1.852a4.28 4.28 0 0 1 2.315-.648c.729 0 1.364.148 1.907.444.556.297.982.686 1.278 1.167v-1.463h3.167v10.333h-3.167V29.43c-.308.48-.741.87-1.296 1.166-.543.296-1.179.445-1.908.445a4.248 4.248 0 0 1-2.296-.649c-.691-.444-1.241-1.067-1.648-1.87-.395-.815-.593-1.753-.593-2.815Zm7.741.019c0-.79-.222-1.414-.667-1.87a2.106 2.106 0 0 0-1.592-.686c-.63 0-1.167.229-1.611.685-.432.445-.649 1.062-.649 1.852s.217 1.42.649 1.89c.444.456.981.684 1.611.684.629 0 1.16-.228 1.592-.685.445-.457.667-1.08.667-1.87Zm10.106 2.204 2.241-7.37h3.37l-3.667 10.332h-3.907l-3.667-10.333h3.389l2.241 7.37Zm8.536-8.445c-.555 0-1.012-.16-1.37-.482a1.636 1.636 0 0 1-.519-1.222c0-.494.174-.901.519-1.222.358-.333.815-.5 1.37-.5.544 0 .988.167 1.334.5.358.321.537.728.537 1.222 0 .482-.179.89-.537 1.223-.346.32-.79.481-1.334.481Zm1.574 1.074v10.333h-3.166V20.56h3.166Zm8.055 7.648v2.685h-1.611c-1.148 0-2.044-.277-2.685-.833-.643-.568-.963-1.488-.963-2.76v-4.11h-1.26v-2.63h1.26v-2.518h3.166v2.518h2.074v2.63h-2.074v4.148c0 .308.074.53.223.666.148.136.394.204.74.204h1.13Zm12.319-7.648-6.481 15.24h-3.408l2.371-5.258-4.204-9.982h3.537l2.389 6.463 2.37-6.463h3.426Z" fill="currentColor"/></g><defs><clipPath id="a"><path fill="currentColor" d="M0 0h166.246v50H0z"/></clipPath></defs></svg>