<svg viewBox="0 0 132 26" fill="none" xmlns="http://www.w3.org/2000/svg"><path d="M73.468 21h-17v4h17v-4ZM70.468 11h-14v4h14v-4ZM73.468 1h-17v4h17V1ZM79.468 3a2 2 0 1 0-4 0 2 2 0 0 0 4 0ZM76.468 13a2 2 0 1 0-4 0 2 2 0 0 0 4 0ZM79.468 23a2 2 0 1 0-4 0 2 2 0 0 0 4 0ZM.468 0h11.744c2.807 0 5.288.539 7.442 1.616s3.829 2.594 5.023 4.55c1.194 1.956 1.79 4.234 1.79 6.834 0 2.6-.596 4.878-1.79 6.834-1.194 1.957-2.869 3.473-5.023 4.55C17.5 25.461 15.019 26 12.212 26H.468V0Zm11.449 21.06c2.585 0 4.647-.724 6.186-2.173C19.64 17.44 20.41 15.477 20.41 13c0-2.476-.77-4.439-2.308-5.887-1.54-1.449-3.601-2.173-6.186-2.173H6.45v16.12h5.466ZM43.084 26c-2.562 0-4.88-.557-6.952-1.67-2.071-1.113-3.7-2.657-4.886-4.632-1.185-1.976-1.778-4.208-1.778-6.698s.593-4.722 1.778-6.698c1.186-1.975 2.815-3.519 4.886-4.632C38.204.557 40.534 0 43.121 0c2.18 0 4.15.383 5.91 1.15 1.76.765 3.24 1.867 4.437 3.303L49.73 7.901c-1.7-1.964-3.808-2.945-6.323-2.945-1.557 0-2.946.341-4.168 1.023a7.278 7.278 0 0 0-2.856 2.855C35.7 10.055 35.36 11.444 35.36 13c0 1.556.341 2.945 1.024 4.166a7.278 7.278 0 0 0 2.856 2.855c1.222.682 2.611 1.023 4.168 1.023 2.515 0 4.623-.993 6.323-2.98l3.737 3.447a11.646 11.646 0 0 1-4.455 3.34C47.24 25.617 45.264 26 43.085 26ZM106.468 0v26h-4.972L88.449 10.214V26h-5.981V0h5.01l13.008 15.786V0h5.982ZM117.546 4.903h-8.078V0h22v4.903h-8.079V26h-5.843V4.903Z" fill="currentColor"/></svg>