<svg fill="none" xmlns="http://www.w3.org/2000/svg" viewBox="13 1.7 54.75 78.23">
<path d="M58.8837 1.70703C57.5895 1.70703 53.6189 1.70703 48.835 6.26217C44.3757 10.5143 41.9007 18.0508 41.2477 20.2677L41.2086 20.4046L40.716 22.0468C36.4697 22.082 33.0954 23.3762 31.9009 24.0604C28.0026 26.0017 20.8493 32.2499 21.6724 42.0171C22.4895 51.7138 29.2519 56.7616 32.7943 58.1164C32.2059 60.8046 31.4747 63.4438 30.6966 66.2414L30.4816 67.0097C29.8467 69.1408 29.0257 71.212 28.028 73.1992C26.7671 75.7192 24.4778 76.7163 23.4416 76.8942C22.2667 77.1366 21.3302 77.0173 20.6851 76.5559C20.4467 76.3762 20.2471 76.1499 20.0986 75.8908C19.9501 75.6317 19.8557 75.3453 19.821 75.0486C19.5199 72.5756 17.9833 71.2599 17.0859 71.0116C15.8895 70.7027 14.9042 70.8376 14.1593 71.4143C13.8022 71.7122 13.5137 72.0837 13.3136 72.5035C13.1135 72.9233 13.0065 73.3813 13 73.8463C13 78.5872 18.7907 79.8814 21.8444 79.9068C23.1406 79.9068 27.1092 79.9068 31.8931 75.3517C36.3348 71.1191 39.0816 63.2854 39.9359 59.6628C50.2915 59.5749 55.8202 52.8184 57.3002 49.2623C58.4263 47.233 60.1056 41.6769 58.3461 35.1453C56.6101 28.6703 50.749 24.8268 47.8087 23.6597L48.6728 20.4085L48.6923 20.3264C49.1224 18.6647 49.5838 16.9873 50.0335 15.3705L50.2485 14.6022C50.8839 12.4712 51.705 10.3989 52.702 8.41266C53.965 5.89267 56.2542 4.89563 57.2884 4.71772C58.4673 4.48312 59.392 4.60238 60.043 5.07158C60.2847 5.24967 60.4871 5.47555 60.6378 5.73519C60.7885 5.99482 60.8841 6.28266 60.9189 6.58083C61.2219 9.0539 62.7566 10.3677 63.6539 10.6179C64.8504 10.9268 65.8357 10.7899 66.5805 10.2152C66.9379 9.9171 67.2265 9.54524 67.4267 9.1251C67.6268 8.70497 67.7336 8.24651 67.7398 7.7812C67.734 3.0247 61.9433 1.72658 58.8837 1.70703ZM39.584 26.7466L33.8148 53.3736C30.1453 51.5457 24.1982 45.6944 27.0662 36.0954C27.8599 33.2059 31.4982 27.5638 39.584 26.7466ZM54.3169 43.6104C52.4186 52.5936 45.1049 54.9142 41.2184 54.9142H41.0209L46.8468 28.0858C54.614 32.6174 55.136 40.2126 54.3169 43.6104Z" fill="currentColor"/>
</svg>