<svg fill="none" xmlns="http://www.w3.org/2000/svg" viewBox="6.93 7 19.03 19">
<path d="M21.2043 24.7257C18.4809 26.2986 15.3026 26.3687 12.6286 25.1932C10.843 24.4083 9.28195 23.0679 8.23201 21.2487C8.03447 20.9063 7.86047 20.5568 7.70977 20.2018C8.27788 19.8187 8.96224 19.5952 9.69889 19.5952C10.625 19.5952 11.4686 19.9486 12.1023 20.5275C12.1877 20.6198 12.2756 20.7092 12.3664 20.7955C12.3667 20.7957 12.3667 20.796 12.3669 20.7962C13.4311 21.8096 14.8709 22.4316 16.4561 22.4316C19.0243 22.4316 21.2114 20.7986 22.036 18.5141C22.263 17.8849 22.3869 17.2065 22.3869 16.4991V16.4873H10.2328C9.3554 16.4204 8.5667 16.036 7.98146 15.4484C7.65747 15.1231 7.396 14.7356 7.21653 14.3054C7.07557 13.968 6.985 13.6047 6.9541 13.2243V7.93345C6.9541 7.59451 7.36377 7.42477 7.60336 7.66443L9.46047 9.52209C9.68605 9.45289 9.92138 9.40534 10.1638 9.38228C10.2767 9.37134 10.3913 9.36587 10.5071 9.36587C10.9307 9.36587 11.3372 9.43982 11.7139 9.57535V7.93345C11.7139 7.59451 12.1236 7.42477 12.3632 7.66443L14.8055 10.1075C15.5664 8.70438 16.8769 7.64247 18.4483 7.21114C18.9494 7.07347 19.4769 7 20.0217 7C23.2096 7 25.8098 9.51591 25.9468 12.6707C25.9506 12.7575 25.9525 12.8448 25.9525 12.9325V16.3139C26.0145 19.6585 24.3054 22.9348 21.2043 24.7257Z" fill="#F7F7F7"/>
</svg>
