<svg xmlns="http://www.w3.org/2000/svg" fill="currentColor" viewBox="0 0 161 48"><path fill="#9F9FA9" d="M45.083 38.568a6.527 6.527 0 0 1-8.532 2.519l-3.564-1.783a1.529 1.529 0 0 0-2.051.683l5.06 2.531a6.159 6.159 0 0 1-7.586 2.207l-1.228-.535-.388-.17-.19.38c-1.54 3.08-5.207 4.408-8.338 3.1l5.937-11.867a6.718 6.718 0 0 1 9.012-3.002l11.868 5.937ZM17.547 47.252a6.527 6.527 0 0 1-5.032-7.336l.594-3.94a1.529 1.529 0 0 0-1.284-1.74l-.843 5.593a6.159 6.159 0 0 1-4.443-6.531l.13-1.333.041-.423-.42-.063a6.525 6.525 0 0 1-5.525-6.973l13.122 1.98a6.717 6.717 0 0 1 5.639 7.643l-1.979 13.123ZM.782 23.747a6.526 6.526 0 0 1 5.42-7.052l3.932-.652a1.53 1.53 0 0 0 1.258-1.758l-5.582.926a6.16 6.16 0 0 1 4.84-6.244l1.307-.289.414-.092-.07-.419a6.528 6.528 0 0 1 4.924-7.41l2.171 13.092a6.717 6.717 0 0 1-5.526 7.726L.782 23.747ZM17.953.539a6.526 6.526 0 0 1 8.383 2.977l1.835 3.537a1.529 1.529 0 0 0 2.061.653l-2.605-5.021a6.159 6.159 0 0 1 7.433 2.672l.679 1.154.215.367.377-.195a6.525 6.525 0 0 1 8.567 2.394l-11.78 6.11a6.716 6.716 0 0 1-9.054-2.87L17.954.54ZM45.333 9.7a6.526 6.526 0 0 1-.241 8.892l-2.797 2.837a1.528 1.528 0 0 0 .015 2.162l3.971-4.03a6.158 6.158 0 0 1-.245 7.896l-.888 1.001-.281.318.303.298a6.525 6.525 0 0 1 .37 8.888l-9.452-9.314a6.716 6.716 0 0 1-.07-9.499l9.315-9.45ZM135.317 17.78c4.059 0 5.854 3.148 5.854 6.567s-1.796 6.568-5.854 6.568-5.854-3.148-5.854-6.568c0-3.42 1.796-6.568 5.854-6.568Zm0 11.806c2.706 0 4.157-2.336 4.157-5.239 0-2.902-1.451-5.239-4.157-5.239s-4.157 2.337-4.157 5.24c0 2.902 1.451 5.238 4.157 5.238ZM143.485 20.879c0-1.378 0-1.894-.099-2.804h1.549v2.41h.049c.566-1.402 1.624-2.706 3.223-2.706.369 0 .812.074 1.082.148v1.624a4.04 4.04 0 0 0-1.132-.148c-2.46 0-3.124 2.755-3.124 5.018v6.198h-1.548v-9.74ZM161 29.585c0 3.493-1.574 6.347-5.878 6.347-1.648 0-3.148-.467-3.788-.664l.122-1.55a8.51 8.51 0 0 0 3.69.886c3.985 0 4.33-2.902 4.33-6.444h-.049c-.836 1.82-2.214 2.46-3.814 2.46-4.009 0-5.289-3.494-5.289-6.273 0-3.813 1.476-6.568 5.166-6.568 1.672 0 2.754.222 3.911 1.722h.049v-1.427h1.549v11.511H161Zm-5.362-.296c2.805 0 3.813-2.657 3.813-4.944 0-3.026-.885-5.24-3.714-5.24-2.952 0-3.715 2.804-3.715 5.24-.001 2.46.983 4.944 3.616 4.944Z"/><path fill="#9F9FA9" fill-rule="evenodd" d="M122.982 21.53c-.49-.148-.976-.148-1.489-.148-2.051 0-3.201 1.503-3.201 4.01v5.41h-4.396v-12.81h4.006v2.36h.048c.756-1.623 1.859-2.655 3.762-2.655.513 0 1.051.071 1.489.148l-.219 3.685ZM64.892 21.088h-2.587V17.99h2.664v-.785c0-3.81 1.779-5.138 5.299-5.138.951 0 1.683.148 2.245.247l-.272 3.05c-.367-.124-.732-.2-1.394-.2-1.122 0-1.56.785-1.56 2.04v.786h3.125v3.097h-3.125v9.714h-4.395v-9.714ZM74.174 30.8V12.357h4.399V30.8h-4.4ZM80.728 15.903v-3.245h4.39v3.245h-4.39ZM80.728 30.798v-12.81h4.39v12.81h-4.39ZM97.085 21.655c-.808-.49-1.613-.71-2.66-.71-1.907 0-3.372 1.327-3.372 3.54 0 2.036 1.708 3.364 3.616 3.364 1.004 0 2.002-.219 2.735-.614l.095 3.291c-1.099.37-2.416.571-3.59.571-4.2 0-7.398-2.458-7.398-6.687 0-4.253 3.201-6.713 7.397-6.713 1.318 0 2.493.224 3.497.714l-.32 3.244ZM99.33 12.357h4.396v11.018h.048l3.666-5.385h4.81l-4.42 5.88 4.786 6.93h-5.322l-3.52-6.346h-.048V30.8h-4.395V12.357Z" clip-rule="evenodd"/><path fill="#9F9FA9" d="M125.05 30.857a1.309 1.309 0 1 0 0-2.617 1.309 1.309 0 0 0 0 2.617Z"/></svg>
