<svg fill="none" xmlns="http://www.w3.org/2000/svg" viewBox="0 0 78.1 80.03">
<path d="M73.8965 64.2791C71.0274 69.1533 64.8104 71.0443 59.6774 68.4768L53.7376 65.5058C52.4783 64.8762 50.9479 65.3856 50.3183 66.6449L58.7503 70.8629C55.9973 74.9587 50.7034 76.544 46.1084 74.541L44.0626 73.6485L43.4146 73.3652L43.0987 73.999C40.5312 79.1319 34.4202 81.3448 29.2017 79.1645L39.0967 59.3866C41.8639 53.8584 48.5883 51.6189 54.1166 54.3841L73.8965 64.2791Z" fill="#FF0084"/>
<path d="M28.0058 78.757C22.4837 77.5343 18.7628 72.2058 19.6187 66.5308L20.609 59.9633C20.8189 58.5715 19.8612 57.2735 18.4694 57.0636L17.0634 66.3861C12.3176 65.0331 9.17343 60.489 9.65841 55.5007L9.8744 53.2796L9.94369 52.5746L9.24272 52.4686C3.56774 51.6128 -0.426151 46.486 0.036406 40.8477L21.905 44.1467C28.018 45.0698 32.2259 50.7733 31.3028 56.8864L28.0058 78.757Z" fill="#FF0084"/>
<path d="M0.0635661 39.5804C-0.480499 33.9503 3.43799 28.7664 9.09871 27.827L15.6499 26.7409C17.0376 26.5106 17.9769 25.1984 17.7467 23.8107L8.4446 25.3532C8.26529 20.422 11.6153 16.0267 16.5098 14.9467L18.6881 14.4658L19.3789 14.313L19.2627 13.6141C18.3234 7.95334 21.9647 2.56975 27.4685 1.26562L31.0875 23.0832C32.1002 29.1821 27.9759 34.9467 21.8771 35.9594L0.0635661 39.5804Z" fill="#FF0084"/>
<path d="M28.6802 0.898052C33.8661 -1.35971 40.0077 0.765603 42.6506 5.85984L45.7092 11.7549C46.3572 13.004 47.8956 13.491 49.1448 12.843L44.8024 4.47421C49.4382 2.77885 54.6526 4.6087 57.1916 8.92861L58.3225 10.8522L58.6812 11.4635L59.3088 11.1375C64.403 8.49458 70.6486 10.2939 73.5869 15.1273L53.9557 25.3117C48.4682 28.1583 41.7112 26.0188 38.8646 20.5292L28.6802 0.898052Z" fill="#FF0084"/>
<path d="M74.3141 16.1719C78.0635 20.4062 77.9412 26.9044 73.9127 30.992L69.2505 35.7215C68.2622 36.7241 68.2744 38.3379 69.2769 39.3242L75.8954 32.6079C78.9397 36.4918 78.8113 42.016 75.4858 45.7674L74.0064 47.4362L73.5378 47.966L74.0431 48.4632C78.1307 52.4918 78.3488 58.9859 74.6605 63.2752L58.9071 47.7521C54.5037 43.4118 54.4507 36.3247 58.791 31.9212L74.3141 16.1719Z" fill="#FF0084"/>
</svg>
