<svg viewBox="0 0 219 20" fill="none" xmlns="http://www.w3.org/2000/svg">
<path d="M213.982 15.6152C212.642 15.6152 211.572 15.3086 210.774 14.6954C209.975 14.068 209.519 13.1838 209.405 12.043H211.052C211.152 12.7418 211.458 13.2765 211.972 13.6473C212.485 14.0181 213.169 14.2034 214.025 14.2034C214.781 14.2034 215.373 14.0608 215.8 13.7756C216.228 13.4904 216.442 13.084 216.442 12.5564C216.442 12.1856 216.321 11.8648 216.079 11.5938C215.836 11.3086 215.351 11.0733 214.624 10.8879L212.87 10.4387C211.872 10.1821 211.123 9.7899 210.624 9.26227C210.125 8.72038 209.875 8.07867 209.875 7.33714C209.875 6.39596 210.225 5.65443 210.923 5.11254C211.622 4.55639 212.571 4.27832 213.768 4.27832C214.952 4.27832 215.915 4.56352 216.656 5.13393C217.398 5.70434 217.818 6.49579 217.918 7.50826H216.271C216.171 6.92359 215.9 6.4744 215.458 6.16067C215.016 5.84695 214.432 5.69008 213.704 5.69008C213.005 5.69008 212.464 5.82556 212.079 6.0965C211.694 6.35318 211.501 6.72395 211.501 7.2088C211.501 7.57957 211.637 7.90042 211.907 8.17136C212.193 8.44231 212.663 8.67047 213.319 8.85585L215.03 9.32644C216.043 9.59739 216.806 10.0109 217.319 10.5671C217.833 11.1232 218.089 11.7935 218.089 12.5778C218.089 13.5332 217.726 14.2819 216.998 14.8238C216.271 15.3514 215.266 15.6152 213.982 15.6152Z" fill="currentColor"/>
<path d="M201.053 19.9998C199.755 19.9998 198.672 19.6932 197.802 19.0801C196.946 18.4811 196.426 17.6825 196.24 16.6843H197.866C198.023 17.2547 198.372 17.7039 198.914 18.0319C199.47 18.3742 200.219 18.5453 201.16 18.5453C202.272 18.5453 203.114 18.2387 203.684 17.6255C204.254 17.0266 204.54 16.1424 204.54 14.9731V12.6416L204.754 12.6843C204.511 13.5114 204.026 14.1745 203.299 14.6736C202.572 15.1585 201.709 15.4009 200.711 15.4009C199.755 15.4009 198.914 15.1727 198.187 14.7164C197.459 14.2458 196.896 13.597 196.497 12.7699C196.098 11.9428 195.898 10.9802 195.898 9.8822C195.898 8.7699 196.105 7.79308 196.518 6.95172C196.932 6.11037 197.509 5.46153 198.251 5.0052C199.007 4.53461 199.884 4.29932 200.882 4.29932C201.909 4.29932 202.764 4.54887 203.449 5.04798C204.147 5.54709 204.611 6.2601 204.839 7.18701L204.647 7.20841V4.49183H206.251V14.9731C206.251 16.5275 205.787 17.7538 204.861 18.6522C203.934 19.5506 202.664 19.9998 201.053 19.9998ZM201.139 13.925C202.208 13.925 203.057 13.5542 203.684 12.8127C204.311 12.0711 204.625 11.0658 204.625 9.79664C204.625 8.556 204.311 7.57917 203.684 6.86616C203.057 6.13889 202.208 5.77525 201.139 5.77525C200.055 5.77525 199.199 6.13889 198.572 6.86616C197.959 7.59343 197.652 8.59165 197.652 9.86081C197.652 11.1014 197.966 12.0925 198.593 12.8341C199.221 13.5613 200.069 13.925 201.139 13.925Z" fill="currentColor"/>
<path d="M183.307 15.4013V4.49222H184.911V7.05907H185.018V15.4013H183.307ZM191.115 15.4013V8.25693C191.115 7.42983 190.908 6.80951 190.494 6.39597C190.081 5.98242 189.468 5.77565 188.655 5.77565C187.942 5.77565 187.307 5.93251 186.751 6.24623C186.209 6.55996 185.781 6.9949 185.468 7.55104C185.168 8.10719 185.018 8.75603 185.018 9.49757L184.74 6.90933C185.111 6.0965 185.674 5.45479 186.43 4.9842C187.2 4.51361 188.07 4.27832 189.04 4.27832C190.181 4.27832 191.093 4.60631 191.778 5.26228C192.476 5.90399 192.826 6.75247 192.826 7.80773V15.4013H191.115Z" fill="currentColor"/>
<path d="M177.569 15.4011V4.49197H179.28V15.4011H177.569ZM177.441 2.01069V0H179.409V2.01069H177.441Z" fill="currentColor"/>
<path d="M171.934 15.4011V12.8556L172.148 12.9198C171.877 13.7469 171.378 14.4028 170.651 14.8877C169.938 15.3725 169.082 15.615 168.084 15.615C167.1 15.615 166.237 15.3797 165.496 14.9091C164.768 14.4385 164.198 13.7825 163.784 12.9412C163.385 12.0998 163.186 11.1159 163.186 9.98929C163.186 8.84848 163.392 7.85026 163.806 6.99465C164.219 6.13903 164.797 5.47593 165.538 5.00534C166.28 4.53475 167.15 4.29946 168.148 4.29946C169.175 4.29946 170.038 4.54902 170.736 5.04812C171.435 5.54723 171.913 6.25311 172.17 7.16577L171.827 7.20855V0H173.538V15.4011H171.934ZM168.405 14.1176C169.503 14.1176 170.358 13.7469 170.972 13.0053C171.599 12.2495 171.913 11.2228 171.913 9.92512C171.913 8.65596 171.599 7.65062 170.972 6.90908C170.344 6.16755 169.489 5.79678 168.405 5.79678C167.321 5.79678 166.473 6.16755 165.859 6.90908C165.246 7.65062 164.94 8.67735 164.94 9.98929C164.94 11.2727 165.246 12.2852 165.859 13.0267C166.473 13.754 167.321 14.1176 168.405 14.1176Z" fill="currentColor"/>
<path d="M158.261 15.4011V0H159.972V15.4011H158.261Z" fill="currentColor"/>
<path d="M149.705 15.6152C148.635 15.6152 147.694 15.3657 146.881 14.8665C146.068 14.3674 145.434 13.6901 144.978 12.8345C144.535 11.9646 144.314 10.9878 144.314 9.90398C144.314 8.80595 144.543 7.83625 144.999 6.99489C145.455 6.15354 146.083 5.49044 146.881 5.00559C147.694 4.52074 148.635 4.27832 149.705 4.27832C150.789 4.27832 151.73 4.52074 152.528 5.00559C153.341 5.49044 153.969 6.15354 154.411 6.99489C154.867 7.83625 155.095 8.80595 155.095 9.90398C155.095 10.9878 154.867 11.9646 154.411 12.8345C153.969 13.6901 153.341 14.3674 152.528 14.8665C151.73 15.3657 150.789 15.6152 149.705 15.6152ZM149.705 14.1607C150.446 14.1607 151.088 13.9824 151.63 13.6259C152.172 13.2551 152.593 12.7489 152.892 12.1072C153.191 11.4655 153.341 10.7239 153.341 9.88259C153.341 8.62769 153.006 7.62235 152.336 6.86655C151.68 6.11076 150.803 5.73286 149.705 5.73286C148.621 5.73286 147.744 6.11076 147.074 6.86655C146.404 7.62235 146.068 8.62769 146.068 9.88259C146.068 10.7239 146.218 11.4655 146.518 12.1072C146.817 12.7489 147.238 13.2551 147.78 13.6259C148.336 13.9824 148.978 14.1607 149.705 14.1607Z" fill="currentColor"/>
<path d="M128.949 15.4011V0H130.703V15.4011H128.949ZM139.259 15.4011V0H141.013V15.4011H139.259ZM129.848 6.60962H140.029V8.14972H129.848V6.60962Z" fill="currentColor"/>
<path d="M110.536 15.4011V0H112.247V15.4011H110.536ZM118.343 15.4011V8.25668C118.343 7.42958 118.136 6.80926 117.723 6.39572C117.309 5.98217 116.696 5.7754 115.883 5.7754C115.17 5.7754 114.536 5.93226 113.979 6.24598C113.438 6.55971 113.01 6.99465 112.696 7.55079C112.397 8.10694 112.247 8.75578 112.247 9.49732L111.969 6.90908C112.34 6.09625 112.903 5.45454 113.659 4.98395C114.429 4.51336 115.299 4.27807 116.268 4.27807C117.409 4.27807 118.322 4.60606 119.006 5.26203C119.705 5.90374 120.054 6.75222 120.054 7.80748V15.4011H118.343Z" fill="currentColor"/>
<path d="M102.853 15.6152C101.855 15.6152 100.963 15.3728 100.179 14.8879C99.4089 14.3888 98.7957 13.7115 98.3394 12.8559C97.8973 11.986 97.6763 11.002 97.6763 9.90398C97.6763 8.80595 97.8973 7.83625 98.3394 6.99489C98.7957 6.15354 99.4089 5.49044 100.179 5.00559C100.963 4.52074 101.847 4.27832 102.831 4.27832C103.644 4.27832 104.371 4.43518 105.013 4.74891C105.669 5.06263 106.204 5.51183 106.617 6.0965C107.045 6.66691 107.316 7.33714 107.43 8.10719H105.847C105.705 7.40844 105.377 6.83803 104.863 6.39597C104.35 5.9539 103.687 5.73286 102.874 5.73286C102.175 5.73286 101.569 5.90399 101.056 6.24623C100.543 6.58848 100.143 7.07333 99.8581 7.70078C99.5729 8.32823 99.4303 9.06263 99.4303 9.90398C99.4303 10.7453 99.5729 11.4869 99.8581 12.1286C100.143 12.7703 100.543 13.2694 101.056 13.6259C101.584 13.9824 102.197 14.1607 102.896 14.1607C103.68 14.1607 104.336 13.9468 104.863 13.519C105.391 13.0769 105.726 12.5065 105.869 11.8077H107.452C107.323 12.5635 107.038 13.2337 106.596 13.8184C106.168 14.3888 105.633 14.8309 104.992 15.1446C104.35 15.4583 103.637 15.6152 102.853 15.6152Z" fill="currentColor"/>
<path d="M90.3291 15.6152C89.2881 15.6152 88.3683 15.3728 87.5698 14.8879C86.7712 14.3888 86.1437 13.7115 85.6874 12.8559C85.2311 12.0002 85.0029 11.0163 85.0029 9.90398C85.0029 8.79169 85.224 7.81486 85.666 6.9735C86.1224 6.11789 86.7569 5.45479 87.5698 4.9842C88.3826 4.51361 89.3166 4.27832 90.3719 4.27832C91.3844 4.27832 92.2614 4.49935 93.0029 4.94142C93.7587 5.38349 94.3363 6.00381 94.7355 6.80238C95.1491 7.60095 95.3559 8.54213 95.3559 9.62591C95.3559 9.76851 95.3487 9.90398 95.3345 10.0323C95.3345 10.1607 95.3202 10.3033 95.2917 10.4601H86.2863V9.02698H94.2436L93.6874 9.81842C93.6874 8.50648 93.3951 7.50113 92.8104 6.80238C92.24 6.08937 91.4272 5.73286 90.3719 5.73286C89.2881 5.73286 88.4111 6.11076 87.7409 6.86655C87.0849 7.60809 86.7569 8.61343 86.7569 9.88259C86.7569 11.1803 87.0849 12.2213 87.7409 13.0056C88.4111 13.7756 89.3024 14.1607 90.4147 14.1607C91.1134 14.1607 91.7266 14.0109 92.2543 13.7115C92.7819 13.3977 93.1669 12.9557 93.4093 12.3853H95.035C94.6785 13.3835 94.0796 14.1749 93.2382 14.7596C92.4111 15.33 91.4414 15.6152 90.3291 15.6152Z" fill="currentColor"/>
<path d="M78.0085 15.4011V1.54011H72.7251V0H85.0459V1.54011H79.7625V15.4011H78.0085Z" fill="currentColor"/>
<path d="M60.583 15.6152C59.542 15.6152 58.6223 15.3728 57.8237 14.8879C57.0251 14.3888 56.3977 13.7115 55.9413 12.8559C55.485 12.0002 55.2568 11.0163 55.2568 9.90398C55.2568 8.79169 55.4779 7.81486 55.9199 6.9735C56.3763 6.11789 57.0108 5.45479 57.8237 4.9842C58.6365 4.51361 59.5706 4.27832 60.6258 4.27832C61.6383 4.27832 62.5153 4.49935 63.2568 4.94142C64.0126 5.38349 64.5902 6.00381 64.9894 6.80238C65.403 7.60095 65.6098 8.54213 65.6098 9.62591C65.6098 9.76851 65.6026 9.90398 65.5884 10.0323C65.5884 10.1607 65.5741 10.3033 65.5456 10.4601H56.5403V9.02698H64.4975L63.9413 9.81842C63.9413 8.50648 63.649 7.50113 63.0643 6.80238C62.4939 6.08937 61.6811 5.73286 60.6258 5.73286C59.542 5.73286 58.665 6.11076 57.9948 6.86655C57.3388 7.60809 57.0108 8.61343 57.0108 9.88259C57.0108 11.1803 57.3388 12.2213 57.9948 13.0056C58.665 13.7756 59.5563 14.1607 60.6686 14.1607C61.3673 14.1607 61.9805 14.0109 62.5082 13.7115C63.0358 13.3977 63.4208 12.9557 63.6632 12.3853H65.2889C64.9324 13.3835 64.3335 14.1749 63.4921 14.7596C62.665 15.33 61.6953 15.6152 60.583 15.6152Z" fill="currentColor"/>
<path d="M47.8682 15.4013V4.49222H49.4724V7.27297H49.5794V15.4013H47.8682ZM49.5794 9.71147L49.3013 7.12324C49.558 6.19632 50.0143 5.49044 50.6703 5.00559C51.3263 4.52074 52.0821 4.27832 52.9377 4.27832C53.2942 4.27832 53.5366 4.30684 53.665 4.36388V6.01094C53.5937 5.98242 53.4938 5.96816 53.3655 5.96816C53.2371 5.9539 53.0803 5.94677 52.8949 5.94677C51.8111 5.94677 50.984 6.27475 50.4136 6.93072C49.8575 7.57244 49.5794 8.49935 49.5794 9.71147Z" fill="currentColor"/>
<path d="M38.2241 15.6142C37.5111 15.6142 36.8765 15.4716 36.3203 15.1864C35.7642 14.8869 35.3292 14.4734 35.0155 13.9457C34.7018 13.4039 34.5449 12.7835 34.5449 12.0848V4.49121H36.2562V11.6356C36.2562 12.4627 36.4558 13.083 36.8551 13.4965C37.2686 13.9101 37.8533 14.1169 38.6091 14.1169C39.2936 14.1169 39.8996 13.96 40.4273 13.6463C40.9549 13.3326 41.3684 12.8976 41.6679 12.3415C41.9816 11.7711 42.1385 11.1222 42.1385 10.3949L42.4166 12.9832C42.0601 13.796 41.5039 14.4377 40.7481 14.9083C39.9923 15.3789 39.151 15.6142 38.2241 15.6142ZM42.2454 15.4003V12.8334H42.1385V4.49121H43.8497V15.4003H42.2454Z" fill="currentColor"/>
<path d="M30.4788 15.5939C29.2667 15.5939 28.3825 15.323 27.8264 14.7811C27.2845 14.2249 27.0136 13.4264 27.0136 12.3854V1.94689L28.7248 1.30518V12.364C28.7248 12.9772 28.8817 13.4264 29.1954 13.7116C29.5091 13.9968 30.0225 14.1394 30.7355 14.1394C31.0207 14.1394 31.2631 14.1251 31.4628 14.0966C31.6767 14.0538 31.8478 14.0039 31.9761 13.9469V15.4014C31.8335 15.4585 31.6268 15.5012 31.3558 15.5298C31.0991 15.5725 30.8068 15.5939 30.4788 15.5939ZM24.7676 5.94688V4.49234H31.9761V5.94688H24.7676Z" fill="currentColor"/>
<path d="M16.5336 15.6142C15.8206 15.6142 15.186 15.4716 14.6299 15.1864C14.0737 14.8869 13.6388 14.4734 13.3251 13.9457C13.0114 13.4039 12.8545 12.7835 12.8545 12.0848V4.49121H14.5657V11.6356C14.5657 12.4627 14.7654 13.083 15.1646 13.4965C15.5782 13.9101 16.1629 14.1169 16.9187 14.1169C17.6031 14.1169 18.2092 13.96 18.7368 13.6463C19.2645 13.3326 19.678 12.8976 19.9775 12.3415C20.2912 11.7711 20.4481 11.1222 20.4481 10.3949L20.7261 12.9832C20.3696 13.796 19.8135 14.4377 19.0577 14.9083C18.3019 15.3789 17.4605 15.6142 16.5336 15.6142ZM20.555 15.4003V12.8334H20.4481V4.49121H22.1593V15.4003H20.555Z" fill="currentColor"/>
<path d="M0.689453 15.4011V0H2.44346V15.4011H0.689453ZM1.58785 8.79144V7.25133H9.88731V8.79144H1.58785ZM1.58785 1.54011V0H10.4862V1.54011H1.58785Z" fill="currentColor"/>
</svg>
