<svg xmlns="http://www.w3.org/2000/svg" viewBox="0 0 58 80"
  fill="currentColor"><g fill="currentColor" clip-path="url(#a)"><path d="M11.758 29.503a.541.541 0 0 0 .161.386.547.547 0 0 0 .387.159h44.628a.55.55 0 0 0 .507-.336.543.543 0 0 0 .042-.21V12.304a.543.543 0 0 0-.34-.504.545.545 0 0 0-.209-.041h-32.87a.545.545 0 0 0-.548.545v5.442a.548.548 0 0 0 .548.545h24.274a2.613 2.613 0 0 1 0 5.226H20.903a2.612 2.612 0 0 1-2.613-2.613V9.145a2.613 2.613 0 0 1 2.613-2.613h36.031a.547.547 0 0 0 .549-.545V.545A.548.548 0 0 0 56.934 0H12.307a.549.549 0 0 0-.55.545v28.958ZM56.933 53.732a.548.548 0 0 0 .55-.545V47.74a.547.547 0 0 0-.55-.546H.55a.548.548 0 0 0-.55.546v5.441a.552.552 0 0 0 .339.508.55.55 0 0 0 .21.042h56.384Z"/><path d="M56.933 41.962a.555.555 0 0 0 .388-.158.548.548 0 0 0 .162-.386v-5.443a.548.548 0 0 0-.55-.545H9.145a2.613 2.613 0 0 1-2.613-2.613V.706a.548.548 0 0 0-.545-.55H.545A.548.548 0 0 0 0 .706v40.712c0 .138.053.271.149.371l.012.014a.538.538 0 0 0 .382.157h56.39v.002ZM0 79.306a.548.548 0 0 0 .545.554h5.442a.548.548 0 0 0 .545-.55 2.063 2.063 0 0 1 2.063-2.063h48.338a.548.548 0 0 0 .55-.545v-5.446a.548.548 0 0 0-.55-.545H9.145a2.613 2.613 0 0 1 0-5.226h47.788a.548.548 0 0 0 .55-.545v-5.442a.548.548 0 0 0-.55-.545H.55a.548.548 0 0 0-.55.545v19.808Z"/></g><defs><clipPath id="a"><path fill="currentColor" d="M0 0h57.465v80H0z"/></clipPath></defs></svg>
