<svg xmlns="http://www.w3.org/2000/svg" viewBox="0 0 107 74" fill="currentColor">
  <g clip-path="url(#a)">
    <path fill="currentColor" d="M59.808.152h-45.72A13.996 13.996 0 0 0 4.208 4.23a13.893 13.893 0 0 0-4.092 9.843v45.555c0 3.692 1.472 7.232 4.092 9.842a13.995 13.995 0 0 0 9.878 4.078h45.721c3.706 0 7.26-1.467 9.879-4.078a13.893 13.893 0 0 0 4.092-9.842V14.072c0-3.692-1.472-7.232-4.092-9.843A13.996 13.996 0 0 0 59.808.152ZM99.13 13.276a5.173 5.173 0 0 0-1.797.76L86.44 20.64a11.396 11.396 0 0 0-4.064 4.27 12.125 12.125 0 0 0-1.492 5.84v12.225c0 2.045.515 4.058 1.498 5.852a11.398 11.398 0 0 0 4.083 4.277l10.975 6.606a5.976 5.976 0 0 0 4.788.67 6.267 6.267 0 0 0 2.208-1.151 6.529 6.529 0 0 0 1.613-1.955 7.057 7.057 0 0 0 .839-3.34v-34.23a6.902 6.902 0 0 0-.636-2.873 6.634 6.634 0 0 0-1.763-2.297 6.173 6.173 0 0 0-2.541-1.265 6.007 6.007 0 0 0-2.819.006Z"/>
    <path fill="#246BFD" d="M26.893 60.61c-3.412 0-6.022-.99-7.83-2.968-1.807-1.978-2.711-4.77-2.711-8.377V25.538c0-3.615.904-6.41 2.711-8.383 1.808-1.974 4.418-2.963 7.83-2.968 3.387 0 5.995.99 7.823 2.968 1.83 1.978 2.733 4.773 2.712 8.383v23.727c0 3.606-.904 6.399-2.712 8.377-1.808 1.978-4.415 2.967-7.823 2.967Zm0-6.448c2.392 0 3.59-1.477 3.594-4.429v-24.65c0-2.953-1.198-4.43-3.594-4.43s-3.596 1.477-3.6 4.43v24.631c0 2.97 1.2 4.452 3.6 4.448ZM50.584 25.538h-7.258v-5.03a17.302 17.302 0 0 0 4.731-.52 6.024 6.024 0 0 0 2.927-1.676 11.002 11.002 0 0 0 1.906-3.48h4.667v45.131h-6.973V25.538Z"/>
  </g>
  <defs>
    <clipPath id="a">
      <path fill="currentColor" d="M0 0h107v73.697H0z"/>
    </clipPath>
  </defs>
</svg>
