<svg xmlns="http://www.w3.org/2000/svg" fill="currentColor" viewBox="0 0 167 48"><path fill="#9F9FA9" d="m59.363 40.531-1.327-3.666h-4.48L52.23 40.53h-1.095l3.5-9.573c.067-.182.3-.88.3-1.045 0-.747-.814-.747-1.361-.83v-.381h3.301l4.298 11.846h-1.825v-.017h.016Zm-3.617-9.623-1.891 5.144h3.882l-1.99-5.144Zm18.7 9.623-3.12-5.475h-1.095v5.475H68.29v-9.457c0-1.692 0-1.759-1.676-2.008v-.381h4.53c2.123 0 4.761.465 4.761 3.152 0 1.776-1.012 2.622-2.688 2.904l3.236 5.79h-2.008Zm-3.037-11.016c-1.261 0-1.178.48-1.178 1.576v3.136h1.012c1.543 0 2.738-.564 2.738-2.29 0-1.742-.896-2.422-2.572-2.422Zm16.26 11.182c-4.048 0-5.193-2.621-5.193-6.271 0-3.402 1.128-5.807 4.91-5.807 1.195 0 2.39.166 3.518.53l.1 2.937h-.514a2.775 2.775 0 0 0-.365-1.078c-.548-.946-1.46-1.543-2.572-1.543-2.655 0-3.003 2.936-3.003 4.96 0 2.19.663 5.277 3.4 5.277 1.162 0 2.125-.232 3.087-.896v1.211c-1.112.514-2.174.68-3.368.68Zm17.853-.166v-5.757h-4.795v5.757h-1.942v-9.523c0-1.543-.282-1.56-1.758-1.726v-.381l3.7-.399v5.46h4.795v-5.26h1.941v11.846l-1.941-.017Zm8.727 0v-.447c1.327 0 1.493-.349 1.493-1.643v-7.566c0-1.277-.182-1.642-1.493-1.642V28.8h4.944v.448c-1.311 0-1.493.365-1.493 1.643v7.566c0 1.26.182 1.642 1.493 1.642v.448l-4.944-.017Zm17.786 0h-1.543l-3.451-9.573c-.531-1.477-.614-1.576-2.124-1.858v-.382h3.402l3.451 9.64h.033l3.368-9.64h1.145l-4.281 11.813Zm18.185 0h-7.018v-9.457c0-1.692-.017-1.742-1.676-2.008v-.381h8.428l.05 2.605h-.498c0-1.328-.647-1.775-1.891-1.775h-1.394c-.813 0-1.111.016-1.111.912v3.5h2.123c.996 0 1.278-.464 1.444-1.36h.498v3.7h-.498c0-.979-.415-1.51-1.444-1.51h-2.123v3.916c0 .962.215 1.012 1.111 1.012h1.958c1.195 0 1.493-.597 1.576-1.725h.498l-.033 2.571Zm-98.97-16.06v-.448c1.31 0 1.493-.349 1.493-1.643v-7.566c0-1.277-.182-1.642-1.493-1.642v-.432h4.944v.448c-1.327 0-1.493.365-1.493 1.643v7.566c0 1.26.182 1.642 1.493 1.642v.448l-4.944-.016ZM70.595 24.473l-5.807-10.005h-.033v10.005h-1.111v-9.574c0-1.66-.266-1.576-1.76-1.858v-.382h3.717l5.559 9.574h.033v-9.59h1.111v11.846l-1.709-.017ZM88.001 15.228c0-1.394-.597-1.775-1.924-1.775h-1.195V24.47h-1.941V13.453h-1.212c-1.343 0-1.791.381-1.89 1.725h-.499l.067-2.555h9.009l.066 2.605h-.48ZM102.586 24.473h-7.019v-9.441c0-1.693-.016-1.742-1.675-2.008v-.381h8.428l.05 2.604h-.498c0-1.327-.647-1.775-1.891-1.775h-1.394c-.813 0-1.112.017-1.112.913v3.484H99.6c1.012 0 1.278-.465 1.444-1.36h.497v3.7h-.497c0-.98-.415-1.51-1.444-1.51h-2.124v3.915c0 .963.216 1.012 1.112 1.012h1.958c1.195 0 1.493-.597 1.576-1.725h.498l-.033 2.572ZM116.754 24.473l-3.12-5.476h-1.095v5.476h-1.941v-9.441c0-1.693 0-1.759-1.676-2.008v-.381h4.53c2.124 0 4.762.464 4.762 3.152 0 1.775-1.012 2.621-2.688 2.904l3.235 5.79h-2.007v-.017Zm-3.037-11.017c-1.261 0-1.178.48-1.178 1.576v3.136h.996c1.543 0 2.738-.564 2.738-2.29.016-1.742-.88-2.422-2.556-2.422ZM133.28 24.473l-5.807-10.005h-.033v10.005h-1.112v-9.574c0-1.66-.265-1.576-1.759-1.858v-.382h3.717l5.558 9.574h.033v-9.59h1.112v11.846l-1.709-.017ZM150.585 24.473h-7.018v-9.441c0-1.693-.017-1.742-1.676-2.008v-.381h8.429l.05 2.604h-.498c0-1.327-.647-1.775-1.892-1.775h-1.393c-.813 0-1.112.017-1.112.913v3.484h2.124c1.012 0 1.277-.465 1.443-1.36h.498v3.7h-.498c0-.98-.415-1.51-1.443-1.51h-2.124v3.915c0 .963.216 1.012 1.112 1.012h1.957c1.195 0 1.494-.597 1.577-1.725h.497l-.033 2.572ZM165.717 15.228c0-1.394-.598-1.775-1.925-1.775h-1.195V24.47h-1.941V13.453h-1.211c-1.344 0-1.792.381-1.892 1.725h-.497l.066-2.555h9.009l.067 2.605h-.481ZM.894 45.843h42.425V48H.894v-2.157Zm1.675-4.181h39.174v3.02H2.569v-3.02ZM2.32 7.35h38.958v4.165H2.32V7.35ZM21.8 6.09h19.23l1.177-1.295L21.816 0 1.424 4.795l1.179 1.294h19.196ZM7.944 24.787l-.166-6.172-.315-5.807c0-.166-.083-.2-.216-.232a8.578 8.578 0 0 0-1.725-.183c-.581 0-1.145.066-1.726.183-.15.033-.216.066-.216.232l-.315 5.807-.15 6.172.017 4.364.133 4.844.266 5.194.083.979c.63.166 1.26.265 1.908.265a8.266 8.266 0 0 0 1.908-.265l.083-.98.265-5.193.133-4.844.033-4.364Zm10.602 0-.166-6.172-.315-5.807c0-.166-.083-.2-.216-.232a8.577 8.577 0 0 0-1.725-.183c-.58 0-1.145.066-1.726.183-.15.033-.215.066-.215.232l-.316 5.807-.149 6.172v4.364l.133 4.844.265 5.194.083.979c.63.166 1.261.265 1.908.265a8.267 8.267 0 0 0 1.908-.265l.083-.98.266-5.193.132-4.844.05-4.364ZM30.858 24.785l-.165-6.172-.316-5.808c0-.165-.083-.199-.215-.232a8.585 8.585 0 0 0-1.726-.182c-.58 0-1.145.066-1.726.182-.149.033-.215.066-.215.232l-.315 5.808-.166 6.172.016 4.363.133 4.845.265 5.193.083.98c.63.165 1.261.265 1.909.265a8.266 8.266 0 0 0 1.907-.266l.083-.979.266-5.193.133-4.845.016-4.363h.034ZM41.212 24.785l-.165-6.172-.316-5.808c0-.165-.083-.199-.215-.232a8.585 8.585 0 0 0-1.726-.182c-.58 0-1.145.066-1.725.182-.15.033-.216.066-.216.232l-.315 5.808-.166 6.172.016 4.363.133 4.845.265 5.193.083.98c.63.165 1.261.265 1.908.265a8.266 8.266 0 0 0 1.908-.266l.084-.979.265-5.193.133-4.845.016-4.363h.033Z"/></svg>
