<svg
  xmlns="http://www.w3.org/2000/svg"
  viewBox="0 0 166 48"
  fill="currentColor"
>
  <path
    fill="currentColor"
    d="m58.863 40.531-1.327-3.666h-4.48L51.73 40.53h-1.095l3.5-9.573c.067-.182.3-.88.3-1.045 0-.747-.814-.747-1.361-.83v-.381h3.301l4.298 11.846h-1.825v-.017h.016Zm-3.617-9.623-1.891 5.144h3.882l-1.99-5.144Zm18.7 9.623-3.12-5.475h-1.095v5.475H67.79v-9.457c0-1.692 0-1.759-1.676-2.008v-.381h4.53c2.123 0 4.761.465 4.761 3.152 0 1.776-1.012 2.622-2.688 2.904l3.236 5.79h-2.008Zm-3.037-11.016c-1.261 0-1.178.48-1.178 1.576v3.136h1.012c1.543 0 2.738-.564 2.738-2.29 0-1.742-.896-2.422-2.572-2.422Zm16.26 11.182c-4.048 0-5.193-2.621-5.193-6.271 0-3.402 1.128-5.807 4.91-5.807 1.195 0 2.39.166 3.518.53l.1 2.937h-.514a2.775 2.775 0 0 0-.365-1.078c-.548-.946-1.46-1.543-2.572-1.543-2.655 0-3.003 2.936-3.003 4.96 0 2.19.663 5.277 3.4 5.277 1.162 0 2.125-.232 3.087-.896v1.211c-1.112.514-2.174.68-3.368.68Zm17.853-.166v-5.757h-4.795v5.757h-1.942v-9.523c0-1.543-.282-1.56-1.758-1.726v-.381l3.7-.399v5.46h4.795v-5.26h1.941v11.846l-1.941-.017Zm8.727 0v-.447c1.327 0 1.493-.349 1.493-1.643v-7.566c0-1.277-.182-1.642-1.493-1.642V28.8h4.944v.448c-1.311 0-1.493.365-1.493 1.643v7.566c0 1.26.182 1.642 1.493 1.642v.448l-4.944-.017Zm17.786 0h-1.543l-3.451-9.573c-.531-1.477-.614-1.576-2.124-1.858v-.382h3.402l3.451 9.64h.033l3.368-9.64h1.145l-4.281 11.813Zm18.185 0h-7.018v-9.457c0-1.692-.017-1.742-1.676-2.008v-.381h8.428l.05 2.605h-.498c0-1.328-.647-1.775-1.891-1.775h-1.394c-.813 0-1.111.016-1.111.912v3.5h2.123c.996 0 1.278-.464 1.444-1.36h.498v3.7h-.498c0-.979-.415-1.51-1.444-1.51h-2.123v3.916c0 .962.215 1.012 1.111 1.012h1.958c1.195 0 1.493-.597 1.576-1.725h.498l-.033 2.571Z"
  />

  <!-- "INTERNET" text -->
  <path
    fill="currentColor"
    d="m98.97-16.06v-.448c1.31 0 1.493-.349 1.493-1.643v-7.566c0-1.277-.182-1.642-1.493-1.642v-.432h4.944v.448c-1.327 0-1.493.365-1.493 1.643v7.566c0 1.26.182 1.642 1.493 1.642v.448l-4.944-.016ZM70.095 24.473l-5.807-10.005h-.033v10.005h-1.111V14.9c0-1.66-.266-1.577-1.76-1.859v-.381h3.717l5.559 9.573h.033v-9.59h1.111V24.49l-1.709-.017ZM87.501 15.23c0-1.394-.597-1.776-1.924-1.776h-1.195v11.017h-1.941V13.454h-1.212c-1.343 0-1.791.382-1.89 1.726h-.499l.067-2.556h9.009l.066 2.605h-.48ZM102.086 24.473h-7.019v-9.44c0-1.693-.016-1.743-1.675-2.008v-.382h8.428l.05 2.605h-.498c0-1.327-.647-1.775-1.891-1.775h-1.394c-.813 0-1.112.016-1.112.912v3.484H99.1c1.012 0 1.278-.464 1.444-1.36h.497v3.7h-.497c0-.979-.415-1.51-1.444-1.51h-2.124v3.916c0 .962.216 1.012 1.112 1.012h1.958c1.195 0 1.493-.598 1.576-1.726h.498l-.033 2.572ZM116.254 24.473l-3.12-5.475h-1.095v5.475h-1.941v-9.44c0-1.693 0-1.76-1.676-2.008v-.382h4.53c2.124 0 4.762.465 4.762 3.152 0 1.776-1.012 2.622-2.688 2.904l3.235 5.79h-2.007v-.016Zm-3.037-11.017c-1.261 0-1.178.481-1.178 1.576v3.136h.996c1.543 0 2.738-.564 2.738-2.29.016-1.742-.88-2.422-2.556-2.422ZM132.78 24.473l-5.807-10.005h-.033v10.005h-1.112V14.9c0-1.66-.265-1.577-1.759-1.859v-.381h3.717l5.558 9.573h.033v-9.59h1.112V24.49l-1.709-.017ZM150.085 24.473h-7.018v-9.44c0-1.693-.017-1.743-1.676-2.008v-.382h8.429l.05 2.605h-.498c0-1.327-.647-1.775-1.892-1.775h-1.393c-.813 0-1.112.016-1.112.912v3.484h2.124c1.012 0 1.277-.464 1.443-1.36h.498v3.7h-.498c0-.979-.415-1.51-1.443-1.51h-2.124v3.916c0 .962.216 1.012 1.112 1.012h1.957c1.195 0 1.494-.598 1.577-1.726h.497l-.033 2.572ZM165.217 15.23c0-1.394-.598-1.776-1.925-1.776h-1.195v11.017h-1.941V13.454h-1.211c-1.344 0-1.792.382-1.892 1.726h-.497l.066-2.556h9.009l.067 2.605h-.481Z"
  />

  <!-- Building/temple structure -->
  <path
    fill="currentColor"
    d="M.394 45.843h42.425V48H.394v-2.157Zm1.675-4.181h39.174v3.02H2.069v-3.02ZM1.82 7.35h38.958v4.165H1.82V7.35ZM21.3 6.09h19.23l1.177-1.295L21.316 0 .924 4.795l1.179 1.294h19.196Z"
  />

  <!-- Columns -->
  <path
    fill="currentColor"
    d="M7.444 24.787l-.166-6.172-.315-5.807c0-.166-.083-.2-.216-.232a8.578 8.578 0 0 0-1.725-.183c-.581 0-1.145.066-1.726.183-.15.033-.216.066-.216.232l-.315 5.807-.15 6.172.017 4.364.133 4.844.266 5.194.083.979c.63.166 1.26.265 1.908.265a8.266 8.266 0 0 0 1.908-.265l.083-.98.265-5.193.133-4.844.033-4.364Z"
  />

  <path
    fill="currentColor"
    d="M18.046 24.787l-.166-6.172-.315-5.807c0-.166-.083-.2-.216-.232a8.577 8.577 0 0 0-1.725-.183c-.58 0-1.145.066-1.726.183-.15.033-.215.066-.215.232l-.316 5.807-.149 6.172v4.364l.133 4.844.265 5.194.083.979c.63.166 1.261.265 1.908.265a8.267 8.267 0 0 0 1.908-.265l.083-.98.266-5.193.132-4.844.05-4.364Z"
  />

  <path
    fill="currentColor"
    d="M30.358 24.786l-.165-6.172-.316-5.807c0-.166-.083-.2-.215-.232a8.585 8.585 0 0 0-1.726-.183c-.58 0-1.145.067-1.726.183-.149.033-.215.066-.215.232l-.315 5.807-.166 6.172.016 4.364.133 4.845.265 5.193.083.979c.63.166 1.261.265 1.909.265a8.266 8.266 0 0 0 1.907-.265l.083-.98.266-5.192.133-4.845.016-4.364h.034Z"
  />

  <path
    fill="currentColor"
    d="M40.712 24.786l-.165-6.172-.316-5.807c0-.166-.083-.2-.215-.232a8.585 8.585 0 0 0-1.726-.183c-.58 0-1.145.067-1.725.183-.15.033-.216.066-.216.232l-.315 5.807-.166 6.172.016 4.364.133 4.845.265 5.193.083.979c.63.166 1.261.265 1.908.265a8.266 8.266 0 0 0 1.908-.265l.084-.98.265-5.192.133-4.845.016-4.364h.033Z"
  />
</svg>
