<svg fill="none" xmlns="http://www.w3.org/2000/svg" viewBox="0 0 70.73 80">
<path d="M0 76.4051H70.7086V80H0V76.4051ZM2.79295 69.4366H68.0816V74.4694H2.79295V69.4366ZM2.37815 12.2503H67.3073V19.1912H2.37815V12.2503ZM34.8427 10.1486H66.8925L68.8559 7.99171L34.8704 0L0.884895 7.99171L2.84825 10.1486H34.8427ZM11.7525 41.3135L11.476 31.0266L10.9506 21.3481C10.9506 21.0716 10.8123 21.0163 10.5911 20.9609C9.65088 20.7674 8.68303 20.6568 7.71518 20.6568C6.74732 20.6568 5.80712 20.7674 4.83927 20.9609C4.59039 21.0163 4.47978 21.0716 4.47978 21.3481L3.95437 31.0266L3.7055 41.3135L3.73315 48.5863L3.95437 56.6609L4.39682 65.3163L4.53509 66.9478C5.5859 67.2243 6.63671 67.3903 7.71518 67.3903C8.79364 67.3626 9.84445 67.2243 10.8953 66.9478L11.0335 65.3163L11.476 56.6609L11.6972 48.5863L11.7525 41.3135ZM29.4227 41.3135L29.1462 31.0266L28.6208 21.3481C28.6208 21.0716 28.4825 21.0163 28.2613 20.9609C27.3211 20.7674 26.3533 20.6568 25.3854 20.6568C24.4176 20.6568 23.4774 20.7674 22.5095 20.9609C22.2606 21.0163 22.15 21.0716 22.15 21.3481L21.6246 31.0266L21.3757 41.3135V48.5863L21.597 56.6609L22.0394 65.3163L22.1777 66.9478C23.2285 67.2243 24.2793 67.3903 25.3578 67.3903C26.4362 67.3626 27.487 67.2243 28.5379 66.9478L28.6761 65.3163L29.1186 56.6609L29.3398 48.5863L29.4227 41.3135Z" fill="currentColor"/>
<path d="M49.9399 41.313L49.6634 31.0261L49.138 21.3476C49.138 21.071 48.9997 21.0157 48.7785 20.9604C47.8383 20.7669 46.8704 20.6562 45.9026 20.6562C44.9347 20.6562 43.9945 20.7669 43.0267 20.9604C42.7778 21.0157 42.6672 21.071 42.6672 21.3476L42.1418 31.0261L41.8652 41.313L41.8929 48.5857L42.1141 56.6604L42.5566 65.3158L42.6948 66.9473C43.7456 67.2238 44.7964 67.3897 45.8749 67.3897C46.9534 67.3621 48.0042 67.2238 49.055 66.9473L49.1933 65.3158L49.6357 56.6604L49.8569 48.5857L49.8846 41.313H49.9399Z" fill="currentColor"/>
<path d="M67.1977 41.313L66.9212 31.0261L66.3958 21.3476C66.3958 21.071 66.2575 21.0157 66.0363 20.9604C65.0961 20.7669 64.1282 20.6562 63.1604 20.6562C62.1925 20.6562 61.2523 20.7669 60.2845 20.9604C60.0356 21.0157 59.925 21.071 59.925 21.3476L59.3996 31.0261L59.123 41.313L59.1507 48.5857L59.3719 56.6604L59.8144 65.3158L59.9526 66.9473C61.0034 67.2238 62.0543 67.3897 63.1327 67.3897C64.2112 67.3621 65.262 67.2238 66.3128 66.9473L66.4511 65.3158L66.8935 56.6604L67.1148 48.5857L67.1424 41.313H67.1977Z" fill="currentColor"/>
</svg>