<svg xmlns="http://www.w3.org/2000/svg" fill="currentColor" viewBox="0 0 157 40"><path fill="#9F9FA9" d="M36.622 36.326h8.007v-24.02h-8.007v24.02Zm12.01-28.024H68.65V.295H48.632v8.007ZM36.622.295h8.007v8.007h-8.007V.295Zm-12.01 36.03h8.006V.296h-8.007v36.03Zm-12.01-8.006h8.006V.295h-8.007v28.024ZM.59 36.326h8.007V.295H.59v36.03Zm48.041 0h8.007v-24.02h-8.007v24.02ZM77.811 21.313h3.045v12.472h7.055v2.54h-10.1V21.313ZM88.582 30.929c0-3.192 2.163-5.67 5.312-5.67 3.465 0 5.313 2.646 5.313 6.489h-7.811c.21 1.659 1.133 2.688 2.75 2.688 1.113 0 1.764-.504 2.08-1.323h2.813c-.4 1.91-2.1 3.527-4.872 3.527-3.57 0-5.585-2.498-5.585-5.711Zm2.856-1.155h4.787c-.084-1.365-.987-2.31-2.289-2.31-1.512 0-2.246.903-2.498 2.31ZM106.975 35.129h-.042c-.546.819-1.323 1.449-3.171 1.449-2.204 0-3.758-1.155-3.758-3.297 0-2.372 1.932-3.128 4.325-3.464 1.785-.252 2.604-.4 2.604-1.218 0-.777-.609-1.281-1.806-1.281-1.344 0-1.994.483-2.078 1.512h-2.541c.084-1.89 1.491-3.549 4.64-3.549 3.234 0 4.536 1.449 4.536 3.969v5.48c0 .819.126 1.302.378 1.49v.106h-2.751c-.168-.21-.273-.714-.336-1.197Zm.021-2.604V30.91c-.504.294-1.281.461-1.995.63-1.491.335-2.225.671-2.225 1.68 0 1.007.671 1.364 1.679 1.364 1.638 0 2.541-1.008 2.541-2.058ZM114.24 27.276h.063c.651-1.218 1.386-1.848 2.646-1.848.315 0 .504.02.672.084v2.498h-.063c-1.869-.189-3.213.798-3.213 3.066v5.25h-2.855V25.553h2.75v1.722ZM121.652 27.023h.063c.735-1.154 1.722-1.763 3.192-1.763 2.225 0 3.716 1.68 3.716 4.031v7.034h-2.855v-6.614c0-1.155-.672-1.974-1.869-1.974-1.26 0-2.184 1.008-2.184 2.478v6.11h-2.856V25.554h2.793v1.47ZM130.387 21.313h2.855v2.561h-2.855v-2.561Zm0 4.24h2.855v10.773h-2.855V25.554ZM137.882 27.023h.063c.735-1.154 1.722-1.763 3.192-1.763 2.226 0 3.717 1.68 3.717 4.031v7.034h-2.856v-6.614c0-1.155-.672-1.974-1.869-1.974-1.26 0-2.184 1.008-2.184 2.478v6.11h-2.855V25.554h2.792v1.47ZM146.323 36.64h2.835c.231.672.84 1.197 2.163 1.197 1.616 0 2.393-.777 2.393-2.247v-1.175h-.063c-.63.714-1.448 1.26-2.813 1.26-2.394 0-4.746-1.89-4.746-5.145 0-3.213 1.932-5.27 4.662-5.27 1.344 0 2.33.525 2.981 1.428h.042v-1.134h2.751v9.953c0 1.511-.483 2.54-1.281 3.275-.903.84-2.289 1.218-3.884 1.218-2.94 0-4.746-1.26-5.04-3.36Zm7.538-6.173c0-1.575-.84-2.918-2.561-2.918-1.449 0-2.415 1.133-2.415 2.94 0 1.826.966 2.897 2.436 2.897 1.805 0 2.54-1.323 2.54-2.919ZM77.16 7.832C77.16 3.339 79.973 0 84.404 0c4.43 0 7.223 3.339 7.223 7.832 0 4.494-2.793 7.811-7.223 7.811s-7.244-3.318-7.244-7.811Zm11.36 0c0-3.003-1.345-5.333-4.095-5.333s-4.158 2.33-4.158 5.333c0 2.982 1.407 5.312 4.158 5.312 2.75 0 4.094-2.33 4.094-5.312ZM93.055 4.536h2.75V5.88h.063c.693-.945 1.701-1.638 3.17-1.638 2.857 0 4.683 2.33 4.683 5.69 0 3.486-1.889 5.69-4.661 5.69-1.512 0-2.499-.608-3.108-1.532h-.042v4.745h-2.855V4.536Zm7.769 5.48c0-2.036-.714-3.464-2.478-3.464-1.785 0-2.499 1.533-2.499 3.464 0 1.953.903 3.234 2.604 3.234 1.449 0 2.373-1.197 2.373-3.234ZM104.519 9.911c0-3.191 2.163-5.669 5.312-5.669 3.465 0 5.313 2.646 5.313 6.488h-7.811c.21 1.66 1.134 2.688 2.75 2.688 1.113 0 1.764-.504 2.079-1.323h2.814c-.399 1.91-2.1 3.528-4.872 3.528-3.569 0-5.585-2.499-5.585-5.712Zm2.856-1.154h4.787c-.084-1.365-.987-2.31-2.289-2.31-1.511 0-2.246.903-2.498 2.31ZM119.259 6.006h.063c.735-1.155 1.722-1.764 3.192-1.764 2.225 0 3.716 1.68 3.716 4.032v7.034h-2.856V8.694c0-1.155-.671-1.974-1.868-1.974-1.26 0-2.184 1.008-2.184 2.478v6.11h-2.856V4.536h2.793v1.47Z"/></svg>
