<svg viewBox="0 0 154 38" fill="none" xmlns="http://www.w3.org/2000/svg">
<path d="M0.588867 37.8704V0.0724182H1.35411L7.97417 5.88098L12.8803 14.1493H14.1287V9.24198L19.8944 13.7988V23.9621L14.1287 28.1683H12.8833L7.97417 19.5185H6.17501V33.8817L0.886142 37.8704H0.588867ZM29.5069 17.6715V20.4283L37.5881 25.4637V11.545L29.5069 17.6715ZM43.7086 38H42.9403L23.5292 24.0068V13.751L42.9403 0H43.7086V38Z" fill="currentColor"/>
<path d="M142.519 14.6526C142.501 13.7827 142.734 12.9256 143.188 12.1835C143.649 11.459 144.312 10.8858 145.095 10.5349C146.021 10.1266 147.026 9.9279 148.037 9.95316C149.257 9.91178 150.463 10.2142 151.519 10.8258C152.446 11.3902 153.133 12.2772 153.447 13.3163L151.636 14.1567C151.139 12.6539 149.663 11.7 148.088 11.8652C147.206 11.8019 146.33 12.0459 145.608 12.5556C145.031 13.0561 144.72 13.7979 144.768 14.5608C144.749 15.0339 144.868 15.5022 145.112 15.9078C145.4 16.3076 145.791 16.621 146.243 16.8142C146.945 17.1221 147.679 17.35 148.431 17.4936C149.945 17.7118 151.369 18.342 152.549 19.3153C153.416 20.2151 153.869 21.4355 153.799 22.683C153.814 23.6101 153.555 24.5211 153.055 25.3022C152.546 26.0836 151.824 26.7043 150.975 27.0916C150.015 27.5304 148.969 27.7473 147.914 27.7269C146.562 27.7726 145.226 27.4284 144.065 26.735C143.036 26.0896 142.275 25.0944 141.922 23.9324L143.733 23.0704C143.991 23.9038 144.528 24.6228 145.253 25.1078C146.052 25.5995 146.978 25.8435 147.915 25.8091C148.882 25.8669 149.838 25.5763 150.609 24.99C151.265 24.4256 151.623 23.59 151.58 22.7259C151.6 22.1974 151.469 21.674 151.203 21.2167C150.891 20.7621 150.458 20.404 149.952 20.1819C149.192 19.8362 148.392 19.5828 147.571 19.427C146.16 19.2131 144.834 18.6204 143.733 17.7127C142.915 16.9091 142.477 15.7967 142.525 14.6511L142.519 14.6526ZM136.935 22.5208C136.986 21.6616 136.673 20.8203 136.073 20.2032C135.424 19.6226 134.571 19.3241 133.702 19.3737H129.52V25.6682H133.702C134.573 25.7175 135.427 25.4148 136.073 24.8278C136.672 24.2138 136.987 23.3774 136.942 22.5208H136.935ZM129.518 12.0213V17.5396H133.399C134.156 17.5837 134.899 17.319 135.458 16.8066C135.972 16.2699 136.242 15.5439 136.201 14.8011C136.247 14.0411 135.968 13.2974 135.436 12.7531C134.882 12.2474 134.148 11.9836 133.399 12.0198L129.518 12.0213ZM139.162 22.6495C139.182 23.5328 138.971 24.4061 138.55 25.1829C138.146 25.9025 137.543 26.4904 136.814 26.8759C136.023 27.2888 135.141 27.496 134.248 27.479H127.306V10.2103H133.947C134.76 10.1951 135.564 10.384 136.286 10.7598C136.955 11.1137 137.509 11.6525 137.881 12.3122C138.272 13.0208 138.469 13.8205 138.452 14.6298C138.48 15.4733 138.229 16.3024 137.74 16.9901C137.247 17.6427 136.56 18.122 135.778 18.3587C136.742 18.5881 137.608 19.1209 138.247 19.8788C138.873 20.6636 139.197 21.6464 139.162 22.6495ZM119.674 20.5157L116.935 12.1728L114.18 20.5157H119.674ZM120.298 22.4335H113.529L111.87 27.485H109.627L115.708 10.2164H118.273L124.353 27.485H121.961L120.298 22.4335ZM107.471 25.5596V27.479H97.7469V10.2103H99.9681V25.5596H107.471ZM84.6404 18.8547C84.7326 17.0947 84.1977 15.3592 83.1312 13.9562C82.0775 12.7196 80.5068 12.0456 78.8847 12.1345H75.5858V25.5657H78.8847C80.5047 25.6545 82.0738 24.9851 83.1312 23.7547C84.2031 22.3538 84.7402 20.6161 84.6449 18.8547H84.6404ZM86.8616 18.8547C86.8947 20.4168 86.581 21.9671 85.943 23.3935C85.381 24.6389 84.4621 25.6895 83.3025 26.4122C82.0726 27.147 80.6599 27.5182 79.2277 27.4835H73.3631V10.2103H79.2277C80.6599 10.1756 82.0726 10.5471 83.3025 11.2819C84.4621 12.0046 85.381 13.0552 85.943 14.3006C86.5813 15.7322 86.895 17.2873 86.8616 18.8547ZM69.1611 10.2103V27.479H67.3075L58.0585 13.682V27.479H56.0317V10.2103H58.4242L67.1499 23.297V10.2103H69.1611Z" fill="currentColor"/>
</svg>
