<svg xmlns="http://www.w3.org/2000/svg" viewBox="0 0 63 72" fill="currentColor">
  <path fill="currentColor" fill-rule="evenodd" d="M0 0h47.868l.15.038c8.396 2.126 14.501 10.548 14.501 19.474 0 8.707-5.82 17.283-13.955 19.601l-.166.047H0v-6.97l6.633-6.633h36.65c1.221 0 2.444-.698 3.407-1.898.963-1.198 1.54-2.75 1.54-4.147 0-1.39-.572-2.864-1.52-3.987-.947-1.12-2.171-1.784-3.427-1.784H6.633L0 7.108V0Zm29.542 65.424L6.164 42.046H0v15.939l13.74 13.74h15.802v-6.301Zm32.153 6.301v-6.301L38.317 42.046h-6.164v15.988l13.69 13.691h15.852Z" clip-rule="evenodd"/>
</svg>
