<svg xmlns="http://www.w3.org/2000/svg" viewBox="0 0 70 44" fill="none">
  <path fill="currentColor" d="M28.161.182a.467.467 0 0 1 .736-.004l17.456 22.154a.467.467 0 0 0 .731.002l7.429-9.339a.466.466 0 0 1 .731.003l13.674 17.423a.467.467 0 0 1-.232.734l-11.749 3.568a.466.466 0 0 0-.228.737l.06.076c.21.261.084.651-.239.74l-27.878 7.706a.467.467 0 0 1-.252 0L1.203 36.276a.467.467 0 0 1-.243-.733L28.161.182Zm-5.698 15.151a3.265 3.265 0 0 0-2.673 5.139l-8.691 10.14a2.332 2.332 0 1 0 1.103 1.98c0-.521-.173-1-.46-1.388l9.702-9.505c.242.08.496.13.758.152l-.176 11.941a2.563 2.563 0 0 0 1.137 4.863 2.564 2.564 0 0 0 .638-5.048L23.479 21.7a3.266 3.266 0 0 0-1.016-6.367Zm13.76 1.865a2.564 2.564 0 0 0-1.188 4.838l-.392 11.955-.053-.002a2.333 2.333 0 1 0 .492.053l1.94-11.843c.125-.04.245-.091.36-.15l7.55 9.528a1.866 1.866 0 1 0 1.403-1.28l-8.198-8.83a2.553 2.553 0 0 0 .651-1.703 2.566 2.566 0 0 0-2.565-2.566Z"/>
</svg>
