<?xml version="1.0" encoding="UTF-8"?>
<svg viewBox="0 0 11 11" version="1.1" xmlns="http://www.w3.org/2000/svg" xmlns:xlink="http://www.w3.org/1999/xlink">
    <title>Shape</title>
    <g id="Filecoin-Blog" stroke="none" stroke-width="1" fill="none" fill-rule="evenodd">
        <g id="Blog-Landing---1920px" transform="translate(-1475.000000, -900.000000)" fill="#FF9300" fill-rule="nonzero">
            <g id="rss" transform="translate(1475.000000, 894.000000)">
                <path d="M0,15.5 C0,14.671625 0.671624995,14 1.5,14 C2.32837501,14 3,14.671625 3,15.5 C3,16.328375 2.32837501,17 1.5,17 C0.671624995,17 0,16.328375 0,15.5 Z M11,17 L8.90489284,17 C8.90489284,12.0896786 4.91032144,8.09510714 0,8.09510714 L0,6 C6.06532144,6 11,10.9346786 11,17 Z M7,17 L5.0001607,17 C5.0001607,14.2430492 2.75695076,12.0002143 0,12.0002143 L0,10 C3.85980607,10 7,13.1401939 7,17 Z" id="Shape"></path>
            </g>
        </g>
    </g>
</svg>
