<svg viewBox="0 0 73 44" fill="none" xmlns="http://www.w3.org/2000/svg">
<path d="M6.74329 40.244C6.74329 42.259 8.4593 43.9746 10.474 43.9746C12.4887 43.9746 14.2047 42.259 14.2047 40.244C14.2047 38.2291 12.4887 36.5135 10.474 36.5135C8.4593 36.5135 6.74329 38.2291 6.74329 40.244ZM68.5692 0.127815H72.999V33.6263H68.5692V0.127815ZM53.0634 4.60294H45.0439V0.127815H65.5179V4.60294H57.4933V33.6263H53.0634V4.60294ZM23.3106 0.127815H42.0027V4.60137H27.7405V14.6412H40.9685V19.1144H27.7405V29.2084H42.0027V33.6263H23.3106V0.127815ZM19.386 24.2433C19.386 27.1724 18.3889 29.6653 16.8308 31.2858C15.8336 32.3449 13.8394 33.7786 10.4118 33.7786C7.23328 33.7786 5.17685 32.5318 3.93042 31.2858C2.93328 30.2887 1.43758 28.2315 1.43758 24.8664C1.43758 20.4417 3.93042 18.3853 6.67254 17.1388C8.85368 16.1417 10.5987 15.8925 11.9075 15.3938C15.5843 14.0851 15.896 11.5296 15.896 9.90966C15.896 8.66314 15.709 6.85575 14.2755 5.54702C13.59 4.92396 12.406 4.23829 10.474 4.23829C9.04052 4.23829 7.54483 4.61233 6.54767 5.54702C5.42611 6.60653 4.9275 8.35151 4.9275 9.72264C4.9275 10.5325 5.05198 11.5296 5.30126 12.3401H0.689699C0.502632 11.4676 0.44043 10.5949 0.44043 9.59783C0.44043 7.60363 0.814181 4.98616 2.80841 2.86715C4.3041 1.24679 6.73475 0.000465393 10.4118 0.000465393C13.1539 0.000465393 15.709 0.623726 17.7655 2.68033C19.0743 3.98906 20.5077 6.23249 20.5077 10.0341C20.5077 12.2777 20.009 14.2719 18.3889 16.1417C17.08 17.6374 15.4597 18.5721 13.59 19.2576C12.1568 19.7561 10.5987 20.1303 9.10296 20.8158C8.16823 21.2518 6.04914 22.2489 6.04914 25.1782C6.04914 26.7987 6.67254 27.7959 7.29556 28.4189C7.85654 28.9798 8.85368 29.5405 10.3494 29.5405C11.6582 29.5405 12.7176 29.1048 13.4032 28.4189C14.3379 27.4842 14.8989 25.7387 14.8989 24.2433H19.386Z" fill="#9F9FA9"/>
<path d="M68.1211 36.6701H72.9988V37.7811H69.3937V39.5988H72.6759V40.6693H69.3937V42.6893H72.9988V43.8204H68.1211V36.6701ZM63.5364 37.7811H61.3449V36.6701H67.0002V37.7811H64.8088V43.8204H63.5364V37.7811ZM60.2237 41.1945C60.2237 41.6255 60.1498 42.0144 60.0015 42.3608C59.8534 42.7077 59.6515 43.0023 59.3956 43.2447C59.1398 43.4868 58.8367 43.6739 58.4868 43.8052C58.1366 43.9366 57.7561 44.002 57.3455 44.002C56.9349 44.002 56.5544 43.9366 56.2044 43.8052C55.8542 43.6739 55.5495 43.4868 55.2905 43.2447C55.0311 43.0023 54.8292 42.7077 54.6846 42.3608C54.5396 42.0144 54.4673 41.6255 54.4673 41.1945V36.6701H55.7398V41.1441C55.7398 41.3528 55.7666 41.5599 55.8206 41.7652C55.8744 41.9706 55.9636 42.1539 56.0882 42.3155C56.2126 42.4771 56.3777 42.6085 56.5831 42.7095C56.7884 42.8104 57.0427 42.8611 57.3455 42.8611C57.6485 42.8611 57.9026 42.8104 58.108 42.7095C58.3133 42.6085 58.4782 42.4771 58.603 42.3155C58.7274 42.1539 58.8166 41.9706 58.8704 41.7652C58.9242 41.5599 58.9514 41.3528 58.9514 41.1441V36.6701H60.2237V41.1945ZM49.8826 37.7811H47.691V36.6701H53.3463V37.7811H51.1549V43.8204H49.8826V37.7811ZM45.2975 36.6701H46.5699V43.8204H45.2975V36.6701ZM40.7127 37.7811H38.5211V36.6701H44.1766V37.7811H41.9852V43.8204H40.7127V37.7811ZM37.1363 38.1649C37.0015 37.9898 36.8115 37.8435 36.5656 37.7255C36.3199 37.6078 36.0724 37.5488 35.8234 37.5488C35.6753 37.5488 35.527 37.5673 35.379 37.6044C35.2309 37.6414 35.0963 37.6987 34.9752 37.7759C34.8539 37.8534 34.7545 37.9546 34.677 38.0788C34.5996 38.2037 34.561 38.3533 34.561 38.5283C34.561 38.6901 34.5947 38.8281 34.662 38.9425C34.7293 39.0569 34.8218 39.1546 34.9398 39.2354C35.0575 39.316 35.2005 39.3867 35.369 39.4474C35.5372 39.5081 35.7225 39.5687 35.9244 39.6291C36.1532 39.7035 36.3905 39.7874 36.6364 39.8815C36.8821 39.976 37.1075 40.1006 37.3131 40.2553C37.5183 40.4102 37.6867 40.6055 37.818 40.841C37.9493 41.0768 38.015 41.3696 38.015 41.7198C38.015 42.1034 37.9442 42.4385 37.8027 42.7245C37.6615 43.0109 37.4729 43.2482 37.2372 43.4364C37.0015 43.6251 36.7256 43.7666 36.4091 43.8607C36.0926 43.9548 35.7594 44.002 35.4093 44.002C34.9449 44.002 34.4904 43.9163 34.046 43.7445C33.6015 43.573 33.238 43.3188 32.9552 42.982L33.8642 42.1337C34.0391 42.3761 34.2733 42.568 34.5661 42.7095C34.859 42.8509 35.1467 42.9215 35.4296 42.9215C35.5775 42.9215 35.7291 42.9031 35.8841 42.866C36.0388 42.829 36.1785 42.7666 36.3031 42.6791C36.4277 42.5917 36.5286 42.4821 36.6061 42.3511C36.6834 42.2196 36.7223 42.0565 36.7223 41.861C36.7223 41.6729 36.6783 41.5161 36.5908 41.3915C36.5034 41.2669 36.3854 41.1593 36.2376 41.0682C36.0893 40.9774 35.9142 40.8984 35.7123 40.8311C35.5104 40.7638 35.2982 40.6931 35.0761 40.6188C34.8605 40.5517 34.6452 40.4709 34.4298 40.3766C34.2142 40.2823 34.0207 40.1579 33.8492 40.0028C33.6774 39.848 33.5375 39.6579 33.4299 39.4321C33.3221 39.2066 33.2684 38.9257 33.2684 38.589C33.2684 38.2255 33.3441 37.9124 33.4955 37.6498C33.6471 37.3873 33.8456 37.17 34.0913 36.9983C34.3371 36.8268 34.6166 36.6989 34.9296 36.6146C35.2426 36.5304 35.5609 36.4884 35.8841 36.4884C36.2475 36.4884 36.6161 36.5524 36.9899 36.6803C37.3636 36.8082 37.6883 36.9999 37.9645 37.2558L37.1363 38.1649ZM25.9807 36.6701H27.6674L30.9899 42.0226H31.0103V36.6701H32.2826V43.8204H30.6669L27.2734 38.2961H27.2533V43.8204H25.9807V36.6701ZM23.3101 36.6701H24.5826V43.8204H23.3101V36.6701Z" fill="#9F9FA9"/>
</svg>
