<svg width="100%" height="100%" fill="none" viewBox="0 0 201 40" xmlns="http://www.w3.org/2000/svg">
<path d="M19.5119 39.4066C30.2287 39.4066 38.9163 30.7189 38.9163 20.0021C38.9163 9.28533 30.2287 0.597656 19.5119 0.597656C8.79509 0.597656 0.107422 9.28533 0.107422 20.0021C0.107422 30.7189 8.79509 39.4066 19.5119 39.4066Z" fill="#9F9FA9"/>
<path d="M31.2169 23.9663C30.8825 23.3243 30.3835 22.7826 29.771 22.3968C29.1584 22.011 28.4544 21.7949 27.7309 21.7707L36.1 20.0099L27.7309 18.2633C28.8998 17.2878 30.3649 16.7374 31.887 16.7021C33.7262 16.7021 35.323 14.3996 34.3036 12.653C34.3036 12.653 34.0042 15.3976 30.5681 14.4851C29.8788 14.2647 29.1427 14.2344 28.4375 14.3975C27.7324 14.5606 27.0843 14.9111 26.5618 15.4118L31.2525 8.20468L24.1237 12.9239C24.2471 11.3937 24.8825 9.94967 25.9273 8.82488C27.2105 7.4918 26.7471 4.75436 24.801 4.24109C24.801 4.24109 26.5119 6.37972 23.4394 8.19755C22.7992 8.54022 22.2605 9.04544 21.8776 9.66239C21.4947 10.2793 21.281 10.9863 21.258 11.712L19.5114 3.29297L17.7649 11.7263C16.7903 10.5463 16.2427 9.07179 16.2108 7.5417C16.2108 5.6811 13.9296 4.07713 12.1974 5.10367C12.1974 5.10367 14.9205 5.40308 14.0081 8.86765C13.7929 9.56332 13.7653 10.3035 13.9281 11.0132C14.0908 11.723 14.4381 12.3772 14.9348 12.9097L7.80604 8.18329L11.6271 14.0645L12.4682 15.4118C10.9497 15.2704 9.52432 14.6168 8.42625 13.5584C7.10743 12.2324 4.38425 12.7029 3.87811 14.699C3.87811 14.699 6.01673 12.9738 7.80604 16.0748C8.14078 16.716 8.64004 17.2566 9.25262 17.6412C9.8652 18.0258 10.5691 18.2405 11.292 18.2633L2.92285 19.9956L11.292 21.7564C10.1226 22.731 8.6578 23.2812 7.13594 23.3176C5.2896 23.3176 3.69989 25.6202 4.71217 27.3668C4.71217 27.3668 5.01871 24.6222 8.45476 25.5347C9.14477 25.7542 9.88124 25.7833 10.5864 25.6189C11.2916 25.4545 11.9393 25.1028 12.4611 24.6008L7.77753 31.808L14.9063 27.0887C14.7719 28.6112 14.1349 30.0458 13.0956 31.1664C11.8124 32.4995 12.2758 35.2369 14.2219 35.7502C14.2219 35.7502 12.511 33.6115 15.5835 31.7937C16.229 31.4489 16.7707 30.9381 17.1529 30.314C17.5351 29.69 17.7439 28.9753 17.7578 28.2436L19.5114 36.7125L21.258 28.2792C22.2296 29.4609 22.7768 30.9344 22.8121 32.4638C22.8121 34.3244 25.0933 35.9284 26.8255 34.9018C26.8255 34.9018 24.1024 34.6024 25.0077 31.1379C25.2243 30.4423 25.2527 29.7018 25.0899 28.9918C24.9271 28.2817 24.579 27.6275 24.081 27.0959L31.2097 31.8151L28.7788 28.0083L26.5618 24.6079C28.0792 24.7538 29.5031 25.4067 30.6038 26.4614C31.9226 27.7588 34.6458 27.2883 35.1519 25.3279C35.1519 25.3279 33.0133 27.0531 31.224 23.9521" fill="currentColor"/>
<path d="M56.5027 15.3466C55.9467 13.3576 55.1482 11.2048 52.4536 11.2048C51.9968 11.1801 51.5399 11.2519 51.1127 11.4154C50.6855 11.579 50.2976 11.8307 49.9741 12.1542C49.6506 12.4777 49.3989 12.8656 49.2353 13.2928C49.0717 13.72 49 14.1769 49.0246 14.6337C49.0246 16.9078 50.5074 17.9628 52.9526 19.2389C55.3977 20.5149 58.2991 21.9478 58.2991 25.4409C58.2991 28.7058 55.5474 31.3221 51.4342 31.3221C50.4098 31.3115 49.3921 31.1555 48.4116 30.8587C47.8882 30.6825 47.3803 30.4631 46.8931 30.2029C46.5118 28.6113 46.2332 26.9969 46.0591 25.3696L46.9573 25.1486C47.4848 27.052 48.8393 30.1957 52.0258 30.1957C52.5251 30.2348 53.0268 30.1648 53.4962 29.9905C53.9657 29.8162 54.3915 29.5418 54.7442 29.1863C55.097 28.8309 55.3681 28.403 55.5388 27.9322C55.7095 27.4615 55.7757 26.9592 55.7328 26.4603C55.7328 24.1577 54.0362 23.067 51.7122 21.8195C49.7375 20.7573 46.6151 19.2032 46.6151 15.6816C46.6151 12.6947 48.9961 10.1426 52.9811 10.1426C54.3077 10.1765 55.6209 10.417 56.8734 10.8555C57.0017 11.9747 57.1585 13.1937 57.4009 15.1327L56.5027 15.3466Z" fill="#9F9FA9"/>
<path d="M77.2475 30.8522V30.0396C79.0653 29.8542 79.3861 29.733 79.3861 27.516V22.3191C79.3861 20.1092 78.6162 18.7048 76.67 18.7048C75.3691 18.8381 74.1535 19.4145 73.2269 20.3373C73.2977 20.7708 73.3287 21.2099 73.3195 21.649V27.7227C73.3195 29.6831 73.5976 29.8613 75.3013 30.0538V30.8665H68.6858V30.0396C70.5963 29.8542 70.8815 29.6974 70.8815 27.6443V22.2835C70.8815 19.9809 70.0759 18.7191 68.1868 18.7191C66.9536 18.7191 65.7488 19.5603 64.8221 20.3373V27.6443C64.8221 29.6689 65.0644 29.8542 66.5829 30.0396V30.8522H60.0601V30.0396C62.0989 29.8542 62.3769 29.6689 62.3769 27.6443V21.2284C62.3769 19.2324 62.2842 19.0898 60.4949 18.7975V18.0846C61.9671 17.8343 63.4034 17.4058 64.7722 16.8086V19.3322C65.4209 18.8973 66.1052 18.3341 67.032 17.7425C67.7752 17.2003 68.6646 16.8948 69.5841 16.8656C70.3518 16.882 71.0953 17.1373 71.7112 17.596C72.3271 18.0547 72.7846 18.694 73.0201 19.4248C73.8397 18.7916 74.6967 18.2084 75.5865 17.6783C76.2627 17.1868 77.0682 16.9043 77.9033 16.8656C80.3128 16.8656 81.8241 18.5837 81.8241 21.6348V27.6443C81.8241 29.733 82.0736 29.8542 83.8344 30.0396V30.8522H77.2475Z" fill="#9F9FA9"/>
<path d="M87.1637 12.5674C87.1609 12.3571 87.1997 12.1484 87.2777 11.9531C87.3558 11.7578 87.4717 11.5799 87.6188 11.4295C87.7658 11.2791 87.9411 11.1593 88.1346 11.0769C88.3281 10.9945 88.536 10.9511 88.7463 10.9492C88.9526 10.9538 89.1559 10.9995 89.3442 11.0838C89.5325 11.168 89.7021 11.2891 89.8429 11.4399C89.9837 11.5907 90.093 11.7681 90.1642 11.9618C90.2354 12.1554 90.2672 12.3613 90.2576 12.5674C90.2576 12.9866 90.0921 13.3888 89.797 13.6865C89.502 13.9843 89.1013 14.1534 88.6822 14.1572C88.2709 14.1374 87.8825 13.9623 87.5954 13.6672C87.3082 13.3721 87.1438 12.9791 87.1352 12.5674M85.5312 30.8527V30.04C87.4774 29.8547 87.6699 29.6693 87.6699 27.5521V21.1362C87.6699 19.2043 87.5772 19.076 85.7237 18.7695V18.0566C87.2295 17.8239 88.7031 17.4172 90.115 16.8447V27.5521C90.115 29.6907 90.3289 29.8547 92.3036 30.04V30.8527H85.5312Z" fill="#9F9FA9"/>
<path d="M99.5608 30.8247C99.1627 31.0511 98.7198 31.1874 98.2634 31.2239C96.3172 31.2239 95.2336 29.9835 95.2336 27.517V18.4563H93.1093L92.981 18.1427L93.8221 17.2444H95.2479V14.9704L97.2582 12.9102L97.6859 12.9743V17.2516H101.179C101.309 17.4389 101.362 17.669 101.328 17.8944C101.293 18.1199 101.174 18.3235 100.994 18.4635H97.6717V26.4619C97.6717 28.9855 98.6982 29.4489 99.4681 29.4489C100.142 29.4135 100.798 29.2232 101.386 28.8928L101.664 29.734L99.5608 30.8247Z" fill="#9F9FA9"/>
<path d="M111.394 30.854V30.0413C113.191 29.856 113.44 29.6706 113.44 27.6461V22.4777C113.44 19.9185 112.478 18.6425 110.41 18.6425C109.792 18.6626 109.185 18.815 108.631 19.0892C108.076 19.3634 107.587 19.7531 107.195 20.2322V27.6461C107.195 29.6421 107.345 29.856 109.17 30.0413V30.854H102.619V30.0413C104.472 29.8916 104.757 29.6991 104.757 27.6461V12.7898C104.757 10.8293 104.7 10.6511 102.619 10.4872V9.77429C104.159 9.52121 105.679 9.15668 107.167 8.68359V19.1415C108.25 18.0223 109.918 16.8674 111.587 16.8674C114.089 16.8674 115.864 18.4571 115.864 22.1926V27.6461C115.864 29.6991 116.078 29.8916 117.903 30.0413V30.854H111.394Z" fill="#9F9FA9"/>
<path d="M127.406 20.9176C126.821 19.0784 125.738 17.838 124.226 17.838C123.952 17.8395 123.68 17.8968 123.429 18.0065C123.177 18.1161 122.95 18.2758 122.762 18.4759C122.574 18.6759 122.429 18.9121 122.335 19.1701C122.241 19.4281 122.201 19.7025 122.216 19.9766C122.216 21.4024 123.449 22.1152 124.839 22.6855C127.163 23.6551 128.739 24.7743 128.739 26.92C128.739 29.7715 126.108 31.1973 123.635 31.1973C122.366 31.2192 121.122 30.8509 120.07 30.1422C119.747 28.9425 119.58 27.7062 119.571 26.4638L120.377 26.3069C120.933 28.3672 122.323 30.1707 124.176 30.1707C124.466 30.1785 124.754 30.1275 125.022 30.0208C125.291 29.9141 125.536 29.754 125.741 29.55C125.947 29.3461 126.108 29.1026 126.217 28.8344C126.325 28.5661 126.378 28.2786 126.372 27.9893C126.372 26.6206 125.481 25.8507 123.934 25.1378C122.081 24.261 120.07 23.2345 120.07 20.8606C120.07 18.6792 121.924 16.84 124.768 16.84C125.712 16.8343 126.647 17.0161 127.52 17.3746C127.823 18.4671 128.05 19.5795 128.197 20.7038L127.406 20.9176Z" fill="#9F9FA9"/>
<path d="M133.929 23.3465C133.929 27.2745 135.625 30.1973 138.163 30.1973C140.081 30.1973 141.656 28.7715 141.656 24.4943C141.656 20.8443 140.231 17.8859 137.514 17.8859C135.597 17.8859 133.95 19.8178 133.95 23.3394M144.551 23.8099C144.551 28.8 140.908 31.2167 137.842 31.2167C136.942 31.2236 136.05 31.0496 135.219 30.7049C134.387 30.3602 133.634 29.8519 133.003 29.2102C132.371 28.5684 131.876 27.8064 131.545 26.9693C131.214 26.1322 131.055 25.2372 131.077 24.3374C131.077 19.1976 135.034 16.8594 137.842 16.8594C138.743 16.8627 139.634 17.0466 140.462 17.4002C141.29 17.7537 142.039 18.2697 142.665 18.9177C143.29 19.5657 143.779 20.3325 144.103 21.1728C144.427 22.0131 144.579 22.9098 144.551 23.8099Z" fill="#9F9FA9"/>
<path d="M155.037 30.8529V30.0402C156.862 29.8549 157.083 29.6054 157.083 27.4596V22.2556C157.083 20.117 156.334 18.6913 154.231 18.6913C152.957 18.8134 151.765 19.3754 150.859 20.281V27.6165C150.859 29.7551 151.045 29.8549 152.87 30.0402V30.8529H146.162V30.0402C148.265 29.8264 148.421 29.6695 148.421 27.6165V21.2006C148.421 19.2117 148.236 19.1119 146.568 18.8053V18.0924C148.041 17.8456 149.478 17.417 150.845 16.8164V19.3115C151.465 18.841 152.143 18.3776 152.92 17.8429C153.665 17.2867 154.557 16.9619 155.486 16.9091C157.924 16.9091 159.471 18.6271 159.471 21.6426V27.6592C159.471 29.7979 159.628 29.8977 161.417 30.083V30.8957L155.037 30.8529Z" fill="#9F9FA9"/>
<path d="M164.839 12.5674C164.836 12.3577 164.875 12.1495 164.952 11.9547C165.03 11.7599 165.145 11.5823 165.291 11.432C165.438 11.2817 165.612 11.1618 165.805 11.0789C165.997 10.9961 166.205 10.952 166.414 10.9492C166.623 10.95 166.83 10.9929 167.022 11.0754C167.214 11.1579 167.387 11.2783 167.532 11.4294C167.676 11.5805 167.789 11.7591 167.863 11.9547C167.936 12.1502 167.97 12.3586 167.961 12.5674C167.959 12.9873 167.792 13.3895 167.496 13.687C167.2 13.9845 166.798 14.1534 166.379 14.1572C165.969 14.1356 165.582 13.9598 165.296 13.6649C165.011 13.37 164.847 12.9779 164.839 12.5674ZM163.199 30.8527V30.04C165.145 29.8547 165.338 29.6693 165.338 27.5521V21.1362C165.338 19.2043 165.245 19.076 163.392 18.7695V18.0566C164.897 17.8239 166.371 17.4172 167.783 16.8447V27.5521C167.783 29.6907 167.997 29.8547 169.979 30.04V30.8527H163.199Z" fill="#9F9FA9"/>
<path d="M179.082 23.3761C178.434 23.7183 176.944 24.3741 176.302 24.6878C175.097 25.251 174.42 25.8355 174.42 26.9619C174.403 27.2643 174.446 27.5671 174.548 27.8524C174.65 28.1377 174.808 28.3997 175.012 28.623C175.217 28.8463 175.464 29.0263 175.74 29.1524C176.015 29.2785 176.313 29.3481 176.616 29.3571C177.536 29.2557 178.4 28.8636 179.082 28.2379V23.3761ZM181.342 31.2177C180.817 31.1752 180.318 30.9682 179.916 30.626C179.565 30.2165 179.321 29.7268 179.203 29.2003C177.97 30.0415 176.48 31.1892 175.554 31.1892C175.06 31.1846 174.573 31.0825 174.119 30.8887C173.665 30.695 173.254 30.4135 172.91 30.0603C172.565 29.7072 172.294 29.2895 172.112 28.8311C171.929 28.3728 171.839 27.8829 171.847 27.3896C171.847 25.864 172.652 24.9017 174.349 24.31C176.202 23.6826 178.462 22.8415 179.139 22.2854V21.765C179.139 19.5266 178.091 18.2434 176.544 18.2434C176.274 18.2283 176.004 18.2772 175.756 18.3862C175.509 18.4952 175.29 18.6613 175.119 18.8707C174.644 19.4677 174.326 20.1732 174.192 20.9238C174.156 21.1321 174.044 21.3197 173.878 21.4511C173.713 21.5825 173.505 21.6486 173.294 21.6367C172.948 21.6027 172.625 21.451 172.379 21.2069C172.132 20.9629 171.977 20.6414 171.939 20.2965C171.939 19.826 172.339 19.4838 172.923 19.049C174.32 18.0385 175.894 17.2986 177.564 16.8676C178.474 16.8551 179.361 17.1517 180.08 17.7088C181.164 18.6141 181.47 19.8902 181.47 21.5084V27.3041C181.47 28.7298 182.026 29.1718 182.554 29.1718C182.948 29.1533 183.33 29.0355 183.666 28.8296L183.973 29.6423L181.342 31.2177Z" fill="#9F9FA9"/>
<path d="M193.624 30.8529V30.0402C195.449 29.8549 195.663 29.6054 195.663 27.4596V22.2556C195.663 20.117 194.95 18.6913 192.854 18.6913C191.58 18.8122 190.387 19.3744 189.483 20.281V27.6165C189.483 29.7551 189.668 29.8549 191.493 30.0402V30.8529H184.785V30.0402C186.888 29.8264 187.044 29.6695 187.044 27.6165V21.2006C187.044 19.2117 186.859 19.1119 185.191 18.8053V18.0924C186.664 17.8446 188.1 17.416 189.468 16.8164V19.3115C190.088 18.841 190.766 18.3776 191.543 17.8429C192.286 17.288 193.176 16.9633 194.102 16.9091C196.547 16.9091 198.094 18.6271 198.094 21.6426V27.6592C198.094 29.7979 198.244 29.8977 200.04 30.083V30.8957L193.624 30.8529Z" fill="#9F9FA9"/>
</svg>
