<svg xmlns="http://www.w3.org/2000/svg" width="201" height="40" fill="currentColor"><defs><mask id="a"><path fill="#fff" d="M0 0h201v40H0z"/><path fill="#000" d="M31.717 23.965a4.085 4.085 0 0 0-3.486-2.195l8.369-1.761-8.37-1.747a6.73 6.73 0 0 1 4.157-1.56c1.84 0 3.436-2.303 2.417-4.05 0 0-.3 2.745-3.736 1.832a4.02 4.02 0 0 0-4.006.927l4.69-7.207-7.128 4.719a6.83 6.83 0 0 1 1.803-4.1c1.284-1.332.82-4.07-1.126-4.583 0 0 1.71 2.139-1.362 3.957a4.134 4.134 0 0 0-2.181 3.514l-1.747-8.419-1.746 8.433a6.793 6.793 0 0 1-1.554-4.184c0-1.86-2.281-3.465-4.014-2.438 0 0 2.724.3 1.811 3.764a4.133 4.133 0 0 0 .927 4.042L8.306 8.182l3.821 5.881.841 1.348a6.723 6.723 0 0 1-4.042-1.854c-1.319-1.326-4.042-.855-4.548 1.141 0 0 2.139-1.725 3.928 1.376a4.078 4.078 0 0 0 3.486 2.188l-8.37 1.733 8.37 1.76a6.745 6.745 0 0 1-4.156 1.562c-1.846 0-3.436 2.302-2.424 4.049 0 0 .307-2.745 3.743-1.832a4.02 4.02 0 0 0 4.006-.934l-4.683 7.207 7.128-4.72a6.887 6.887 0 0 1-1.81 4.078c-1.284 1.334-.82 4.07 1.126 4.584 0 0-1.711-2.138 1.362-3.956a4.112 4.112 0 0 0 2.174-3.55l1.753 8.469 1.747-8.434a6.837 6.837 0 0 1 1.554 4.185c0 1.86 2.281 3.464 4.014 2.438 0 0-2.724-.3-1.818-3.764a4.12 4.12 0 0 0-.927-4.042l7.129 4.72-2.431-3.808-2.217-3.4a6.78 6.78 0 0 1 4.042 1.853c1.319 1.298 4.042.827 4.548-1.133 0 0-2.139 1.725-3.928-1.376"/></mask></defs><circle cx="20" cy="20" r="19.5" fill="#9F9FA9" mask="url(#a)"/><path fill="#9F9FA9" d="M57.003 15.345c-.556-1.989-1.355-4.142-4.05-4.142a3.258 3.258 0 0 0-3.428 3.43c0 2.273 1.482 3.328 3.928 4.604 2.445 1.276 5.346 2.71 5.346 6.202 0 3.265-2.752 5.882-6.865 5.882a10.823 10.823 0 0 1-3.022-.464 9.988 9.988 0 0 1-1.519-.656 38.175 38.175 0 0 1-.834-4.833l.898-.22c.528 1.902 1.882 5.046 5.069 5.046a3.45 3.45 0 0 0 3.707-3.735c0-2.303-1.697-3.393-4.02-4.641-1.976-1.062-5.098-2.616-5.098-6.138 0-2.987 2.381-5.539 6.366-5.539 1.327.034 2.64.274 3.892.713.129 1.12.285 2.338.528 4.277l-.898.214ZM77.748 30.85v-.812c1.817-.186 2.138-.307 2.138-2.524v-5.197c0-2.21-.77-3.614-2.716-3.614-1.3.133-2.517.71-3.443 1.632.07.434.102.873.093 1.312v6.074c0 1.96.278 2.138 1.981 2.33v.814h-6.615v-.827c1.91-.186 2.195-.343 2.195-2.396v-5.36c0-2.303-.805-3.565-2.694-3.565-1.233 0-2.438.841-3.365 1.618v7.307c0 2.025.242 2.21 1.76 2.396v.812H60.56v-.812c2.039-.186 2.317-.371 2.317-2.396v-6.415c0-1.997-.093-2.14-1.882-2.431v-.713a18.41 18.41 0 0 0 4.277-1.276v2.523c.649-.435 1.333-.998 2.26-1.59a4.576 4.576 0 0 1 2.552-.876 3.692 3.692 0 0 1 3.436 2.559 25.778 25.778 0 0 1 2.567-1.747 4.277 4.277 0 0 1 2.316-.812c2.41 0 3.921 1.718 3.921 4.769v6.01c0 2.088.25 2.21 2.01 2.395v.812h-6.587ZM87.664 12.566a1.6 1.6 0 0 1 1.582-1.619 1.546 1.546 0 0 1 1.512 1.619 1.59 1.59 0 0 1-1.576 1.59 1.625 1.625 0 0 1-1.547-1.59M86.031 30.85v-.813c1.946-.185 2.139-.37 2.139-2.488v-6.416c0-1.932-.093-2.06-1.946-2.367v-.712c1.505-.233 2.98-.64 4.391-1.212V27.55c0 2.139.214 2.303 2.189 2.488v.813H86.03ZM100.061 30.824a3.13 3.13 0 0 1-1.298.399c-1.946 0-3.03-1.24-3.03-3.707v-9.06H93.61l-.128-.314.841-.898h1.426v-2.275l2.01-2.06.428.064v4.278h3.493a.894.894 0 0 1-.185 1.211h-3.322v7.999c0 2.524 1.026 2.987 1.796 2.987a4.384 4.384 0 0 0 1.918-.556l.278.841-2.103 1.09ZM111.894 30.852v-.813c1.797-.185 2.046-.37 2.046-2.395v-5.168c0-2.56-.962-3.835-3.03-3.835a4.33 4.33 0 0 0-3.215 1.59v7.413c0 1.996.15 2.21 1.975 2.395v.813h-6.551v-.813c1.853-.15 2.138-.342 2.138-2.395V12.788c0-1.96-.057-2.139-2.138-2.303v-.713c1.54-.253 3.06-.617 4.548-1.09V19.14c1.083-1.12 2.751-2.275 4.42-2.275 2.502 0 4.277 1.59 4.277 5.326v5.453c0 2.053.214 2.246 2.039 2.395v.813h-6.509ZM127.906 20.916c-.585-1.84-1.668-3.08-3.18-3.08a2.022 2.022 0 0 0-2.01 2.139c0 1.425 1.233 2.138 2.623 2.709 2.324.97 3.9 2.088 3.9 4.234 0 2.852-2.631 4.277-5.104 4.277a6.188 6.188 0 0 1-3.565-1.055c-.323-1.2-.49-2.436-.499-3.678l.806-.157c.556 2.06 1.946 3.864 3.799 3.864a2.132 2.132 0 0 0 1.565-.62 2.138 2.138 0 0 0 .631-1.562c0-1.368-.891-2.138-2.438-2.851-1.853-.877-3.864-1.903-3.864-4.277 0-2.182 1.854-4.021 4.698-4.021a7.13 7.13 0 0 1 2.752.535c.303 1.092.53 2.205.677 3.329l-.791.214ZM134.429 23.345c0 3.928 1.696 6.85 4.234 6.85 1.918 0 3.493-1.425 3.493-5.703 0-3.65-1.425-6.608-4.142-6.608-1.917 0-3.564 1.932-3.564 5.453m10.601.471c0 4.99-3.643 7.407-6.709 7.407a6.71 6.71 0 0 1-4.839-2.007 6.707 6.707 0 0 1-1.926-4.872c0-5.14 3.957-7.479 6.765-7.479a6.738 6.738 0 0 1 6.709 6.951ZM155.537 30.852v-.813c1.825-.185 2.046-.435 2.046-2.58v-5.204c0-2.139-.749-3.565-2.852-3.565a5.515 5.515 0 0 0-3.372 1.59v7.335c0 2.14.186 2.239 2.011 2.424v.813h-6.708v-.813c2.103-.214 2.259-.37 2.259-2.424V21.2c0-1.99-.185-2.09-1.853-2.396v-.712a18.048 18.048 0 0 0 4.277-1.277v2.495c.62-.47 1.298-.933 2.075-1.468a4.737 4.737 0 0 1 2.566-.934c2.438 0 3.985 1.718 3.985 4.734v6.016c0 2.139.157 2.239 1.946 2.424v.813l-6.38-.043ZM165.339 12.566a1.605 1.605 0 0 1 .452-1.136 1.602 1.602 0 0 1 1.123-.483 1.554 1.554 0 0 1 1.547 1.619 1.598 1.598 0 0 1-1.582 1.59 1.628 1.628 0 0 1-1.54-1.59Zm-1.64 18.285v-.813c1.946-.185 2.139-.37 2.139-2.488v-6.416c0-1.932-.093-2.06-1.946-2.367v-.712a19.699 19.699 0 0 0 4.391-1.212V27.55c0 2.139.214 2.303 2.196 2.488v.813h-6.78ZM179.582 23.374c-.648.342-2.138.998-2.78 1.312-1.205.563-1.882 1.148-1.882 2.274a2.267 2.267 0 0 0 2.196 2.395 4.354 4.354 0 0 0 2.466-1.119v-4.862Zm2.26 7.842a2.514 2.514 0 0 1-1.426-.592c-.351-.41-.595-.9-.713-1.426-1.233.841-2.723 1.99-3.649 1.99a3.745 3.745 0 0 1-3.707-3.8c0-1.526.805-2.488 2.502-3.08 1.853-.627 4.113-1.468 4.79-2.024v-.52c0-2.24-1.048-3.523-2.595-3.523a1.717 1.717 0 0 0-1.425.628 4.592 4.592 0 0 0-.927 2.053.86.86 0 0 1-.898.713 1.508 1.508 0 0 1-1.355-1.34c0-.471.4-.813.984-1.248a13.804 13.804 0 0 1 4.641-2.181 4.018 4.018 0 0 1 2.516.84c1.084.906 1.39 2.182 1.39 3.8v5.796c0 1.426.556 1.868 1.084 1.868a2.337 2.337 0 0 0 1.112-.342l.307.812-2.631 1.576ZM194.124 30.852v-.813c1.825-.185 2.039-.435 2.039-2.58v-5.204c0-2.139-.713-3.565-2.809-3.565a5.495 5.495 0 0 0-3.371 1.59v7.335c0 2.14.185 2.239 2.01 2.424v.813h-6.708v-.813c2.103-.214 2.259-.37 2.259-2.424V21.2c0-1.99-.185-2.09-1.853-2.396v-.712a18.151 18.151 0 0 0 4.277-1.277v2.495c.62-.47 1.298-.933 2.075-1.468a4.74 4.74 0 0 1 2.559-.934c2.445 0 3.992 1.718 3.992 4.734v6.016c0 2.139.15 2.239 1.946 2.424v.813l-6.416-.043Z"/></svg>
