<svg width="134" height="101" viewBox="0 0 134 101" fill="none" xmlns="http://www.w3.org/2000/svg">
<g clip-path="url(#clip0_5835_17362)">
<path d="M55.02 21.2L48.6 1L37.64 35.43L1.5 35.21L30.87 56.27L19.49 90.57L48.6 69.15L55.02 73.89V21.2Z" fill="white"/>
<path d="M60.48 18.04V77.01C60.48 77.18 60.45 77.3 60.38 77.37C60.31 77.44 60.2 77.48 60.04 77.48H58.35C58.19 77.48 58.07 77.44 58 77.37C57.93 77.3 57.9 77.18 57.9 77.01V18.04C57.9 17.87 57.93 17.75 58 17.68C58.07 17.61 58.18 17.57 58.35 17.57H60.04C60.2 17.57 60.32 17.61 60.38 17.68C60.45 17.75 60.48 17.87 60.48 18.04Z" fill="white"/>
<path d="M71.4899 27.73C71.4899 28.06 71.38 28.2 71.05 28.2H69.5199C69.2899 28.2 69.1899 28.14 69.0999 27.98L66.5999 23.82C66.3499 23.4 66.1 22.85 65.93 22.41V27.73C65.93 28.06 65.8199 28.2 65.4899 28.2H63.9599C63.6299 28.2 63.5099 28.06 63.5099 27.73V18.04C63.5099 17.71 63.6399 17.57 63.9599 17.57H65.4899C65.6899 17.57 65.7999 17.63 65.8799 17.76L68.5199 22.18C68.7099 22.51 68.91 22.98 69.07 23.35V18.03C69.07 17.7 69.1999 17.56 69.5199 17.56H71.05C71.38 17.56 71.4899 17.7 71.4899 18.03V27.72V27.73Z" fill="white"/>
<path d="M77.7 17.57C78.03 17.57 78.18 17.73 78.28 18.04L81.11 27.73C81.2 28.03 81.09 28.2 80.77 28.2H79.03C78.7 28.2 78.56 28.03 78.48 27.73L78.07 26.23H75.47L75.06 27.73C74.98 28.03 74.84 28.2 74.51 28.2H72.93C72.6 28.2 72.49 28.03 72.59 27.73L75.42 18.04C75.51 17.73 75.67 17.57 76 17.57H77.69H77.7ZM77.3 23.35C77.03 22.35 76.89 20.97 76.82 20.07C76.74 20.87 76.54 22.48 76.29 23.35L76.06 24.19H77.53L77.31 23.35H77.3Z" fill="white"/>
<path d="M87.58 17.57C87.91 17.57 88.05 17.68 88.05 18.01V19.23C88.05 19.56 87.91 19.68 87.58 19.68H85.58V27.73C85.58 28.06 85.47 28.2 85.14 28.2H83.45C83.12 28.2 83 28.06 83 27.73V19.68H81C80.67 19.68 80.53 19.55 80.53 19.23V18.01C80.53 17.68 80.67 17.57 81 17.57H87.58Z" fill="white"/>
<path d="M91.71 27.73C91.71 28.06 91.6 28.2 91.27 28.2H89.58C89.25 28.2 89.13 28.06 89.13 27.73V18.04C89.13 17.71 89.26 17.57 89.58 17.57H91.27C91.6 17.57 91.71 17.71 91.71 18.04V27.73Z" fill="white"/>
<path d="M93.43 20.12C93.43 18.78 94.48 17.45 97.42 17.45C100.36 17.45 101.42 18.78 101.42 20.12V25.66C101.42 27 100.36 28.33 97.42 28.33C94.48 28.33 93.43 27 93.43 25.66V20.12ZM98.84 20.57C98.84 19.85 98.18 19.55 97.42 19.55C96.66 19.55 96.01 19.85 96.01 20.57V25.2C96.01 25.92 96.65 26.22 97.42 26.22C98.19 26.22 98.84 25.92 98.84 25.2V20.57Z" fill="white"/>
<path d="M111.13 27.73C111.13 28.06 111.02 28.2 110.69 28.2H109.16C108.93 28.2 108.83 28.14 108.74 27.98L106.24 23.82C105.99 23.4 105.74 22.85 105.57 22.41V27.73C105.57 28.06 105.46 28.2 105.13 28.2H103.6C103.27 28.2 103.15 28.06 103.15 27.73V18.04C103.15 17.71 103.28 17.57 103.6 17.57H105.13C105.33 17.57 105.44 17.63 105.52 17.76L108.16 22.18C108.35 22.51 108.55 22.98 108.71 23.35V18.03C108.71 17.7 108.83 17.56 109.16 17.56H110.69C111.02 17.56 111.13 17.7 111.13 18.03V27.72V27.73Z" fill="white"/>
<path d="M117.34 17.57C117.67 17.57 117.82 17.73 117.92 18.04L120.75 27.73C120.84 28.03 120.73 28.2 120.41 28.2H118.67C118.34 28.2 118.2 28.03 118.12 27.73L117.71 26.23H115.11L114.7 27.73C114.62 28.03 114.48 28.2 114.15 28.2H112.57C112.24 28.2 112.13 28.03 112.23 27.73L115.06 18.04C115.15 17.73 115.31 17.57 115.64 17.57H117.33H117.34ZM116.93 23.35C116.66 22.35 116.52 20.97 116.45 20.07C116.37 20.87 116.17 22.48 115.92 23.35L115.69 24.19H117.16L116.94 23.35H116.93Z" fill="white"/>
<path d="M124.44 26.09H127.5C127.83 26.09 127.97 26.2 127.97 26.53V27.75C127.97 28.08 127.83 28.2 127.5 28.2H122.25C121.97 28.2 121.86 28.04 121.86 27.73V18.04C121.86 17.71 121.99 17.57 122.31 17.57H124C124.33 17.57 124.44 17.71 124.44 18.04V26.09Z" fill="white"/>
<path d="M73.4499 40.05C73.4499 40.38 73.34 40.52 73.01 40.52H71.4C71.07 40.52 70.9499 40.38 70.9499 40.05V35.08C70.7599 35.8 70.5699 36.42 70.4499 36.74L69.76 38.44C69.63 38.75 69.46 38.91 69.15 38.91H67.79C67.48 38.91 67.3199 38.72 67.1999 38.44L66.3399 36.45C66.2099 36.17 66.07 35.67 65.93 35.12V40.05C65.93 40.38 65.8199 40.52 65.4899 40.52H63.9599C63.6299 40.52 63.5099 40.38 63.5099 40.05V30.36C63.5099 30.03 63.6399 29.89 63.9599 29.89H65.4899C65.7199 29.89 65.82 29.98 65.9 30.14L68.0299 34.92C68.1699 35.25 68.33 35.69 68.48 36.16C68.64 35.69 68.79 35.27 68.93 34.96L70.98 30.11C71.04 29.95 71.17 29.89 71.4 29.89H73.01C73.34 29.89 73.4499 30.03 73.4499 30.36V40.05Z" fill="white"/>
<path d="M77.77 37.52C77.77 38.24 78.41 38.54 79.18 38.54C79.95 38.54 80.6 38.24 80.6 37.52V30.36C80.6 30.03 80.73 29.89 81.05 29.89H82.74C83.07 29.89 83.18 30.03 83.18 30.36V37.97C83.18 39.31 82.12 40.64 79.18 40.64C76.24 40.64 75.19 39.31 75.19 37.97V30.36C75.19 30.03 75.32 29.89 75.64 29.89H77.33C77.66 29.89 77.77 30.03 77.77 30.36V37.52Z" fill="white"/>
<path d="M89.82 32.78C89.82 32.06 89.32 31.79 88.6 31.79C87.88 31.79 87.36 32.06 87.36 32.78V32.94C87.36 33.36 87.69 33.55 87.86 33.61L90.49 34.5C91.65 34.89 92.44 35.7 92.44 36.86V37.97C92.44 39.31 91.45 40.64 88.53 40.64C85.61 40.64 84.62 39.31 84.62 37.97V36.92C84.62 36.59 84.75 36.45 85.07 36.45H86.7C87.03 36.45 87.14 36.59 87.14 36.92V37.62C87.14 38.34 87.75 38.61 88.52 38.61C89.29 38.61 89.91 38.34 89.91 37.62V37.31C89.91 36.75 89.16 36.48 88.57 36.26L86.32 35.42C85.52 35.12 84.87 34.25 84.87 33.34V32.43C84.87 31.09 85.68 29.76 88.61 29.76C91.54 29.76 92.35 31.09 92.35 32.43V33.01C92.35 33.34 92.22 33.48 91.9 33.48H90.27C89.94 33.48 89.83 33.34 89.83 33.01V32.78H89.82Z" fill="white"/>
<path d="M94.5 40.52C94.17 40.52 94.05 40.38 94.05 40.05V30.36C94.05 30.03 94.18 29.89 94.5 29.89H99.85C100.18 29.89 100.32 30 100.32 30.33V31.55C100.32 31.88 100.18 32 99.85 32H96.63V34.03H99.6C99.93 34.03 100.07 34.14 100.07 34.47V35.61C100.07 35.94 99.93 36.06 99.6 36.06H96.63V38.41H100.01C100.34 38.41 100.48 38.52 100.48 38.85V40.07C100.48 40.4 100.34 40.52 100.01 40.52H94.51H94.5Z" fill="white"/>
<path d="M104.41 37.52C104.41 38.24 105.05 38.54 105.82 38.54C106.59 38.54 107.24 38.24 107.24 37.52V30.36C107.24 30.03 107.37 29.89 107.69 29.89H109.38C109.71 29.89 109.82 30.03 109.82 30.36V37.97C109.82 39.31 108.76 40.64 105.82 40.64C102.88 40.64 101.83 39.31 101.83 37.97V30.36C101.83 30.03 101.96 29.89 102.28 29.89H103.97C104.3 29.89 104.41 30.03 104.41 30.36V37.52Z" fill="white"/>
<path d="M121.5 40.05C121.5 40.38 121.39 40.52 121.06 40.52H119.45C119.12 40.52 119 40.38 119 40.05V35.08C118.81 35.8 118.62 36.42 118.5 36.74L117.81 38.44C117.68 38.75 117.51 38.91 117.2 38.91H115.84C115.53 38.91 115.37 38.72 115.25 38.44L114.39 36.45C114.26 36.17 114.12 35.67 113.98 35.12V40.05C113.98 40.38 113.87 40.52 113.54 40.52H112.01C111.68 40.52 111.56 40.38 111.56 40.05V30.36C111.56 30.03 111.69 29.89 112.01 29.89H113.54C113.77 29.89 113.87 29.98 113.95 30.14L116.08 34.92C116.22 35.25 116.38 35.69 116.53 36.16C116.69 35.69 116.84 35.27 116.98 34.96L119.03 30.11C119.09 29.95 119.22 29.89 119.45 29.89H121.06C121.39 29.89 121.5 30.03 121.5 30.36V40.05Z" fill="white"/>
<path d="M63.35 44.75C63.35 43.41 64.4 42.08 67.34 42.08C70.28 42.08 71.34 43.41 71.34 44.75V50.29C71.34 51.63 70.28 52.96 67.34 52.96C64.4 52.96 63.35 51.63 63.35 50.29V44.75ZM68.76 45.21C68.76 44.49 68.1 44.19 67.34 44.19C66.58 44.19 65.93 44.49 65.93 45.21V49.84C65.93 50.56 66.57 50.86 67.34 50.86C68.11 50.86 68.76 50.56 68.76 49.84V45.21Z" fill="white"/>
<path d="M79.22 42.21C79.55 42.21 79.69 42.32 79.69 42.65V43.87C79.69 44.2 79.55 44.32 79.22 44.32H75.64V46.35H78.97C79.3 46.35 79.44 46.46 79.44 46.79V48.01C79.44 48.34 79.3 48.46 78.97 48.46H75.64V52.37C75.64 52.7 75.53 52.84 75.2 52.84H73.51C73.18 52.84 73.06 52.7 73.06 52.37V42.68C73.06 42.35 73.19 42.21 73.51 42.21H79.22Z" fill="white"/>
<path d="M67.84 54.52C68.17 54.52 68.32 54.68 68.42 54.99L71.25 64.68C71.34 64.98 71.23 65.15 70.91 65.15H69.17C68.84 65.15 68.7 64.98 68.62 64.68L68.21 63.18H65.61L65.2 64.68C65.12 64.98 64.98 65.15 64.65 65.15H63.07C62.74 65.15 62.63 64.98 62.73 64.68L65.56 54.99C65.65 54.68 65.81 54.52 66.14 54.52H67.83H67.84ZM67.43 60.31C67.16 59.31 67.02 57.93 66.95 57.03C66.87 57.83 66.67 59.44 66.42 60.31L66.19 61.15H67.66L67.44 60.31H67.43Z" fill="white"/>
<path d="M82.3 64.69C82.3 65.02 82.19 65.16 81.86 65.16H80.25C79.92 65.16 79.8 65.02 79.8 64.69V59.72C79.61 60.44 79.42 61.06 79.3 61.38L78.61 63.08C78.48 63.39 78.31 63.55 78 63.55H76.64C76.33 63.55 76.17 63.36 76.05 63.08L75.19 61.09C75.06 60.81 74.92 60.31 74.78 59.76V64.69C74.78 65.02 74.67 65.16 74.34 65.16H72.81C72.48 65.16 72.36 65.02 72.36 64.69V55C72.36 54.67 72.49 54.53 72.81 54.53H74.34C74.57 54.53 74.67 54.62 74.75 54.78L76.88 59.56C77.02 59.89 77.18 60.33 77.33 60.8C77.49 60.33 77.64 59.91 77.78 59.6L79.83 54.75C79.89 54.59 80.02 54.53 80.25 54.53H81.86C82.19 54.53 82.3 54.67 82.3 55V64.69Z" fill="white"/>
<path d="M84.5 65.16C84.17 65.16 84.05 65.02 84.05 64.69V55C84.05 54.67 84.18 54.53 84.5 54.53H89.85C90.18 54.53 90.32 54.64 90.32 54.97V56.19C90.32 56.52 90.18 56.64 89.85 56.64H86.63V58.67H89.6C89.93 58.67 90.07 58.78 90.07 59.11V60.25C90.07 60.58 89.93 60.7 89.6 60.7H86.63V63.05H90.01C90.34 63.05 90.48 63.16 90.48 63.49V64.71C90.48 65.04 90.34 65.16 90.01 65.16H84.51H84.5Z" fill="white"/>
<path d="M92.42 65.16C92.09 65.16 91.97 65.02 91.97 64.69V55C91.97 54.67 92.1 54.53 92.42 54.53H95.8C98.74 54.53 99.77 55.86 99.77 57.2V58.56C99.77 59.45 99.32 60.34 98.14 60.84L99.67 64.69C99.78 64.97 99.58 65.16 99.23 65.16H97.42C97.14 65.16 97.03 64.99 96.92 64.69L95.58 61.23H94.55V64.69C94.55 65.02 94.44 65.16 94.11 65.16H92.42ZM94.54 56.63V59.12H95.79C96.56 59.12 97.21 58.82 97.21 58.1V57.65C97.21 56.93 96.55 56.63 95.79 56.63H94.54Z" fill="white"/>
<path d="M103.97 64.69C103.97 65.02 103.86 65.16 103.53 65.16H101.84C101.51 65.16 101.39 65.02 101.39 64.69V55C101.39 54.67 101.52 54.53 101.84 54.53H103.53C103.86 54.53 103.97 54.67 103.97 55V64.69Z" fill="white"/>
<path d="M113.39 62.61C113.39 63.95 112.48 65.28 109.54 65.28C106.6 65.28 105.69 63.95 105.69 62.61V57.07C105.69 55.73 106.6 54.4 109.54 54.4C112.48 54.4 113.39 55.73 113.39 57.07V57.79C113.39 58.12 113.28 58.26 112.95 58.26H111.34C111.01 58.26 110.89 58.12 110.89 57.79V57.52C110.89 56.8 110.34 56.5 109.58 56.5C108.82 56.5 108.28 56.8 108.28 57.52V62.15C108.28 62.87 108.81 63.17 109.58 63.17C110.35 63.17 110.89 62.87 110.89 62.15V61.65C110.89 61.32 111.02 61.18 111.34 61.18H112.95C113.28 61.18 113.39 61.32 113.39 61.65V62.6V62.61Z" fill="white"/>
<path d="M119.19 54.52C119.52 54.52 119.67 54.68 119.77 54.99L122.6 64.68C122.69 64.98 122.58 65.15 122.26 65.15H120.52C120.19 65.15 120.05 64.98 119.97 64.68L119.56 63.18H116.96L116.55 64.68C116.47 64.98 116.33 65.15 116 65.15H114.42C114.09 65.15 113.98 64.98 114.08 64.68L116.91 54.99C117 54.68 117.16 54.52 117.49 54.52H119.18H119.19ZM118.78 60.31C118.51 59.31 118.37 57.93 118.3 57.03C118.22 57.83 118.02 59.44 117.77 60.31L117.54 61.15H119.01L118.79 60.31H118.78Z" fill="white"/>
<path d="M131.7 64.69C131.7 65.02 131.59 65.16 131.26 65.16H129.73C129.5 65.16 129.4 65.1 129.31 64.94L126.81 60.78C126.56 60.36 126.31 59.81 126.14 59.37V64.69C126.14 65.02 126.03 65.16 125.7 65.16H124.17C123.84 65.16 123.72 65.02 123.72 64.69V55C123.72 54.67 123.85 54.53 124.17 54.53H125.7C125.9 54.53 126.01 54.59 126.09 54.72L128.73 59.14C128.92 59.47 129.12 59.94 129.28 60.31V54.99C129.28 54.66 129.4 54.52 129.73 54.52H131.26C131.59 54.52 131.7 54.66 131.7 54.99V64.68V64.69Z" fill="white"/>
<path d="M66.08 71.03H68.91V67.31C68.91 66.98 69.04 66.84 69.36 66.84H71.05C71.38 66.84 71.49 66.98 71.49 67.31V77C71.49 77.33 71.38 77.47 71.05 77.47H69.36C69.03 77.47 68.91 77.33 68.91 77V73.14H66.08V77C66.08 77.33 65.97 77.47 65.64 77.47H63.95C63.62 77.47 63.5 77.33 63.5 77V67.31C63.5 66.98 63.63 66.84 63.95 66.84H65.64C65.97 66.84 66.08 66.98 66.08 67.31V71.03Z" fill="white"/>
<path d="M75.83 77C75.83 77.33 75.72 77.47 75.39 77.47H73.7C73.37 77.47 73.25 77.33 73.25 77V67.31C73.25 66.98 73.38 66.84 73.7 66.84H75.39C75.72 66.84 75.83 66.98 75.83 67.31V77Z" fill="white"/>
<path d="M82.5199 69.73C82.5199 69.01 82.0199 68.74 81.2999 68.74C80.5799 68.74 80.0599 69.01 80.0599 69.73V69.89C80.0599 70.31 80.3899 70.5 80.5599 70.56L83.1899 71.45C84.3499 71.84 85.1399 72.65 85.1399 73.81V74.92C85.1399 76.26 84.15 77.59 81.2299 77.59C78.3099 77.59 77.3199 76.26 77.3199 74.92V73.87C77.3199 73.54 77.4499 73.4 77.7699 73.4H79.3999C79.7299 73.4 79.8399 73.54 79.8399 73.87V74.57C79.8399 75.29 80.4499 75.56 81.2199 75.56C81.9899 75.56 82.6099 75.29 82.6099 74.57V74.26C82.6099 73.7 81.8599 73.43 81.2699 73.21L79.0199 72.37C78.2199 72.07 77.5699 71.2 77.5699 70.29V69.38C77.5699 68.04 78.3799 66.71 81.3099 66.71C84.2399 66.71 85.0499 68.04 85.0499 69.38V69.96C85.0499 70.29 84.9199 70.43 84.5999 70.43H82.9699C82.6399 70.43 82.5299 70.29 82.5299 69.96V69.73H82.5199Z" fill="white"/>
<path d="M92.84 66.84C93.17 66.84 93.31 66.95 93.31 67.28V68.5C93.31 68.83 93.17 68.95 92.84 68.95H90.84V77C90.84 77.33 90.73 77.47 90.4 77.47H88.71C88.38 77.47 88.26 77.33 88.26 77V68.95H86.26C85.93 68.95 85.79 68.82 85.79 68.5V67.28C85.79 66.95 85.93 66.84 86.26 66.84H92.84Z" fill="white"/>
<path d="M94.09 69.39C94.09 68.05 95.14 66.72 98.08 66.72C101.02 66.72 102.08 68.05 102.08 69.39V74.93C102.08 76.27 101.02 77.6 98.08 77.6C95.14 77.6 94.09 76.27 94.09 74.93V69.39ZM99.5 69.84C99.5 69.12 98.84 68.82 98.08 68.82C97.32 68.82 96.67 69.12 96.67 69.84V74.47C96.67 75.19 97.31 75.49 98.08 75.49C98.85 75.49 99.5 75.19 99.5 74.47V69.84Z" fill="white"/>
<path d="M104.25 77.47C103.92 77.47 103.8 77.33 103.8 77V67.31C103.8 66.98 103.93 66.84 104.25 66.84H107.63C110.57 66.84 111.6 68.17 111.6 69.51V70.87C111.6 71.76 111.15 72.65 109.97 73.15L111.5 77C111.61 77.28 111.41 77.47 111.06 77.47H109.25C108.97 77.47 108.86 77.3 108.75 77L107.41 73.54H106.38V77C106.38 77.33 106.27 77.47 105.94 77.47H104.25ZM106.38 68.95V71.44H107.63C108.4 71.44 109.05 71.14 109.05 70.42V69.97C109.05 69.25 108.39 68.95 107.63 68.95H106.38Z" fill="white"/>
<path d="M116.17 70.42C116.23 70.59 116.34 70.97 116.44 71.36C116.57 70.94 116.67 70.59 116.75 70.42L118.06 67.31C118.17 67.04 118.28 66.84 118.61 66.84H120.27C120.6 66.84 120.75 67.01 120.61 67.31L117.73 73.53V77C117.73 77.33 117.62 77.47 117.29 77.47H115.6C115.27 77.47 115.15 77.33 115.15 77V73.84L112.26 67.3C112.13 67.02 112.26 66.83 112.59 66.83H114.5C114.83 66.83 114.97 67.02 115.06 67.3L116.17 70.41V70.42Z" fill="white"/>
<path d="M63.65 85.18C63.51 85.18 63.46 85.12 63.46 84.98V80.95C63.46 80.81 63.51 80.75 63.65 80.75H64.87C66.09 80.75 66.52 81.21 66.52 81.76V82.12C66.52 82.43 66.37 82.67 66.08 82.84C66.48 83 66.74 83.28 66.74 83.62V84.1C66.74 84.66 66.31 85.17 65.09 85.17H63.65V85.18ZM64.53 81.61V82.55H64.87C65.19 82.55 65.46 82.43 65.46 82.12V81.95C65.46 81.65 65.19 81.61 64.87 81.61H64.53ZM64.53 83.34V84.34H65.08C65.4 84.34 65.67 84.22 65.67 83.92V83.71C65.67 83.46 65.4 83.33 65.08 83.33H64.53V83.34Z" fill="white"/>
<path d="M67.66 85.18C67.52 85.18 67.47 85.12 67.47 84.98V80.95C67.47 80.81 67.52 80.75 67.66 80.75H69.88C70.02 80.75 70.08 80.8 70.08 80.93V81.44C70.08 81.58 70.02 81.63 69.88 81.63H68.54V82.48H69.77C69.91 82.48 69.96 82.53 69.96 82.66V83.13C69.96 83.27 69.9 83.32 69.77 83.32H68.54V84.29H69.94C70.08 84.29 70.14 84.34 70.14 84.47V84.98C70.14 85.12 70.08 85.17 69.94 85.17H67.65L67.66 85.18Z" fill="white"/>
<path d="M71.96 82.5H73.14V80.95C73.14 80.81 73.19 80.75 73.33 80.75H74.03C74.17 80.75 74.21 80.81 74.21 80.95V84.98C74.21 85.12 74.16 85.18 74.03 85.18H73.33C73.19 85.18 73.14 85.12 73.14 84.98V83.38H71.96V84.98C71.96 85.12 71.91 85.18 71.78 85.18H71.08C70.94 85.18 70.89 85.12 70.89 84.98V80.95C70.89 80.81 70.94 80.75 71.08 80.75H71.78C71.92 80.75 71.96 80.81 71.96 80.95V82.5Z" fill="white"/>
<path d="M75.31 85.18C75.17 85.18 75.12 85.12 75.12 84.98V80.95C75.12 80.81 75.17 80.75 75.31 80.75H76.71C77.93 80.75 78.36 81.3 78.36 81.86V82.43C78.36 82.8 78.17 83.17 77.68 83.38L78.32 84.98C78.37 85.1 78.28 85.18 78.14 85.18H77.39C77.27 85.18 77.23 85.11 77.18 84.98L76.62 83.54H76.19V84.98C76.19 85.12 76.14 85.18 76.01 85.18H75.31ZM76.19 81.64V82.67H76.71C77.03 82.67 77.3 82.55 77.3 82.25V82.06C77.3 81.76 77.03 81.64 76.71 81.64H76.19Z" fill="white"/>
<path d="M80.21 84.99C80.21 85.13 80.16 85.19 80.03 85.19H79.33C79.19 85.19 79.14 85.13 79.14 84.99V80.96C79.14 80.82 79.19 80.76 79.33 80.76H80.03C80.17 80.76 80.21 80.82 80.21 80.96V84.99Z" fill="white"/>
<path d="M84.44 84.99C84.44 85.13 84.39 85.19 84.26 85.19H83.62C83.52 85.19 83.48 85.16 83.44 85.1L82.4 83.37C82.3 83.19 82.19 82.97 82.12 82.78V84.99C82.12 85.13 82.07 85.19 81.94 85.19H81.3C81.16 85.19 81.11 85.13 81.11 84.99V80.96C81.11 80.82 81.16 80.76 81.3 80.76H81.94C82.02 80.76 82.07 80.79 82.1 80.84L83.2 82.68C83.28 82.82 83.36 83.01 83.43 83.17V80.96C83.43 80.82 83.48 80.76 83.62 80.76H84.26C84.4 80.76 84.44 80.82 84.44 80.96V84.99Z" fill="white"/>
<path d="M88.28 82.78C88.42 82.78 88.48 82.83 88.48 82.96V84.12C88.48 84.68 88.1 85.23 86.88 85.23C85.66 85.23 85.28 84.68 85.28 84.12V81.82C85.28 81.26 85.66 80.71 86.88 80.71C88.1 80.71 88.48 81.26 88.48 81.82V82.05C88.48 82.19 88.43 82.25 88.3 82.25H87.63C87.49 82.25 87.44 82.19 87.44 82.05V82C87.44 81.7 87.21 81.58 86.89 81.58C86.57 81.58 86.35 81.7 86.35 82V83.92C86.35 84.22 86.57 84.34 86.89 84.34C87.21 84.34 87.44 84.22 87.44 83.92V83.64H86.91C86.77 83.64 86.72 83.59 86.72 83.45V82.94C86.72 82.8 86.78 82.76 86.91 82.76H88.29L88.28 82.78Z" fill="white"/>
<path d="M93.73 84.12C93.73 84.68 93.35 85.23 92.13 85.23C90.91 85.23 90.53 84.68 90.53 84.12V81.82C90.53 81.26 90.91 80.71 92.13 80.71C93.35 80.71 93.73 81.26 93.73 81.82V82.12C93.73 82.26 93.68 82.32 93.55 82.32H92.88C92.74 82.32 92.69 82.26 92.69 82.12V82.01C92.69 81.71 92.46 81.59 92.14 81.59C91.82 81.59 91.6 81.71 91.6 82.01V83.93C91.6 84.23 91.82 84.35 92.14 84.35C92.46 84.35 92.69 84.23 92.69 83.93V83.72C92.69 83.58 92.74 83.52 92.88 83.52H93.55C93.69 83.52 93.73 83.58 93.73 83.72V84.12Z" fill="white"/>
<path d="M94.66 85.18C94.52 85.18 94.47 85.12 94.47 84.98V80.95C94.47 80.81 94.52 80.75 94.66 80.75H96.88C97.02 80.75 97.07 80.8 97.07 80.93V81.44C97.07 81.58 97.01 81.63 96.88 81.63H95.54V82.48H96.77C96.91 82.48 96.97 82.53 96.97 82.66V83.13C96.97 83.27 96.91 83.32 96.77 83.32H95.54V84.29H96.94C97.08 84.29 97.13 84.34 97.13 84.47V84.98C97.13 85.12 97.07 85.17 96.94 85.17H94.65L94.66 85.18Z" fill="white"/>
<path d="M101.21 84.99C101.21 85.13 101.16 85.19 101.03 85.19H100.39C100.29 85.19 100.25 85.16 100.21 85.1L99.17 83.37C99.07 83.19 98.96 82.97 98.89 82.78V84.99C98.89 85.13 98.84 85.19 98.71 85.19H98.07C97.93 85.19 97.88 85.13 97.88 84.99V80.96C97.88 80.82 97.93 80.76 98.07 80.76H98.71C98.79 80.76 98.84 80.79 98.87 80.84L99.97 82.68C100.05 82.82 100.13 83.01 100.2 83.17V80.96C100.2 80.82 100.25 80.76 100.39 80.76H101.03C101.17 80.76 101.21 80.82 101.21 80.96V84.99Z" fill="white"/>
<path d="M104.72 80.76C104.86 80.76 104.92 80.81 104.92 80.94V81.45C104.92 81.59 104.86 81.64 104.72 81.64H103.89V84.99C103.89 85.13 103.84 85.19 103.71 85.19H103.01C102.87 85.19 102.82 85.13 102.82 84.99V81.64H101.99C101.85 81.64 101.8 81.59 101.8 81.45V80.94C101.8 80.8 101.86 80.76 101.99 80.76H104.73H104.72Z" fill="white"/>
<path d="M105.68 85.18C105.54 85.18 105.49 85.12 105.49 84.98V80.95C105.49 80.81 105.54 80.75 105.68 80.75H107.9C108.04 80.75 108.09 80.8 108.09 80.93V81.44C108.09 81.58 108.03 81.63 107.9 81.63H106.56V82.48H107.79C107.93 82.48 107.99 82.53 107.99 82.66V83.13C107.99 83.27 107.93 83.32 107.79 83.32H106.56V84.29H107.96C108.1 84.29 108.15 84.34 108.15 84.47V84.98C108.15 85.12 108.09 85.17 107.96 85.17H105.67L105.68 85.18Z" fill="white"/>
<path d="M109.1 85.18C108.96 85.18 108.91 85.12 108.91 84.98V80.95C108.91 80.81 108.96 80.75 109.1 80.75H110.5C111.72 80.75 112.15 81.3 112.15 81.86V82.43C112.15 82.8 111.96 83.17 111.47 83.38L112.11 84.98C112.16 85.1 112.07 85.18 111.93 85.18H111.18C111.06 85.18 111.02 85.11 110.97 84.98L110.41 83.54H109.98V84.98C109.98 85.12 109.93 85.18 109.8 85.18H109.1ZM109.98 81.64V82.67H110.5C110.82 82.67 111.09 82.55 111.09 82.25V82.06C111.09 81.76 110.82 81.64 110.5 81.64H109.98Z" fill="white"/>
<path d="M66.55 94.6C66.37 93.97 66.12 93.29 65.26 93.29C64.5 93.29 64.17 93.84 64.17 94.37C64.17 95.09 64.64 95.42 65.42 95.82C66.19 96.21 67.12 96.67 67.12 97.77C67.12 98.8 66.25 99.63 64.94 99.63C64.54 99.63 64.22 99.55 63.98 99.48C63.73 99.39 63.59 99.32 63.5 99.27C63.42 99.06 63.29 98.22 63.23 97.75L63.51 97.68C63.67 98.28 64.11 99.27 65.12 99.27C65.86 99.27 66.3 98.81 66.3 98.09C66.3 97.37 65.76 97.02 65.02 96.63C64.39 96.3 63.4 95.81 63.4 94.7C63.4 93.76 64.16 92.95 65.42 92.95C65.87 92.95 66.28 93.06 66.66 93.18C66.7 93.53 66.75 93.92 66.83 94.53L66.55 94.59V94.6Z" fill="white"/>
<path d="M73.14 99.49V99.23C73.72 99.17 73.83 99.13 73.83 98.44V96.8C73.83 96.1 73.58 95.66 72.97 95.66C72.62 95.66 72.24 95.86 71.87 96.17C71.89 96.29 71.9 96.4 71.9 96.58V98.49C71.9 99.11 71.99 99.17 72.53 99.23V99.49H70.43V99.23C71.04 99.17 71.13 99.12 71.13 98.47V96.78C71.13 96.05 70.87 95.65 70.28 95.65C69.89 95.65 69.5 95.92 69.21 96.16V98.47C69.21 99.11 69.29 99.17 69.77 99.23V99.49H67.7V99.23C68.35 99.17 68.44 99.11 68.44 98.47V96.44C68.44 95.81 68.41 95.76 67.84 95.67V95.44C68.27 95.36 68.77 95.23 69.2 95.04V95.84C69.41 95.7 69.62 95.53 69.92 95.34C70.18 95.18 70.41 95.07 70.72 95.07C71.19 95.07 71.61 95.36 71.81 95.87C72.09 95.65 72.38 95.47 72.62 95.32C72.83 95.18 73.08 95.06 73.36 95.06C74.13 95.06 74.61 95.6 74.61 96.56V98.45C74.61 99.11 74.69 99.15 75.25 99.21V99.47H73.16L73.14 99.49Z" fill="white"/>
<path d="M75.77 99.49V99.23C76.39 99.17 76.46 99.11 76.46 98.44V96.42C76.46 95.81 76.43 95.77 75.84 95.67V95.43C76.34 95.35 76.8 95.22 77.23 95.05V98.44C77.23 99.11 77.3 99.17 77.93 99.23V99.49H75.77ZM76.29 93.72C76.29 93.43 76.53 93.21 76.79 93.21C77.05 93.21 77.28 93.43 77.28 93.72C77.28 93.99 77.06 94.22 76.78 94.22C76.52 94.22 76.29 93.98 76.29 93.72Z" fill="white"/>
<path d="M80.22 99.48C80.05 99.57 79.9 99.61 79.81 99.61C79.19 99.61 78.85 99.22 78.85 98.44V95.58H78.17L78.13 95.48L78.4 95.2H78.85V94.48L79.49 93.83L79.63 93.85V95.19H80.74C80.83 95.29 80.8 95.5 80.68 95.57H79.63V98.09C79.63 98.89 79.95 99.03 80.2 99.03C80.45 99.03 80.67 98.93 80.81 98.86L80.9 99.12L80.23 99.46L80.22 99.48Z" fill="white"/>
<path d="M83.98 99.49V99.23C84.55 99.17 84.63 99.11 84.63 98.47V96.84C84.63 96.04 84.33 95.63 83.67 95.63C83.3 95.63 82.92 95.82 82.65 96.13V98.47C82.65 99.1 82.7 99.17 83.28 99.23V99.49H81.2V99.23C81.79 99.18 81.88 99.12 81.88 98.47V93.79C81.88 93.17 81.86 93.12 81.21 93.06V92.83C81.68 92.76 82.27 92.6 82.65 92.49V95.79C82.99 95.44 83.52 95.07 84.05 95.07C84.84 95.07 85.4 95.57 85.4 96.75V98.47C85.4 99.12 85.47 99.18 86.05 99.23V99.49H83.98Z" fill="white"/>
<path d="M89.07 96.35C88.88 95.77 88.54 95.38 88.06 95.38C87.69 95.38 87.42 95.67 87.42 96.06C87.42 96.5 87.81 96.73 88.25 96.91C88.99 97.21 89.49 97.57 89.49 98.24C89.49 99.13 88.66 99.59 87.87 99.59C87.37 99.59 86.92 99.4 86.74 99.26C86.67 99.12 86.58 98.46 86.58 98.1L86.84 98.05C87.02 98.7 87.46 99.27 88.05 99.27C88.41 99.27 88.75 99 88.75 98.58C88.75 98.16 88.47 97.91 87.97 97.69C87.38 97.42 86.74 97.09 86.74 96.34C86.74 95.65 87.33 95.07 88.23 95.07C88.63 95.07 88.9 95.16 89.1 95.24C89.18 95.47 89.29 96.04 89.32 96.29L89.06 96.35H89.07Z" fill="white"/>
<path d="M94.5 97.27C94.5 98.85 93.34 99.61 92.37 99.61C91.03 99.61 90.22 98.53 90.22 97.44C90.22 95.82 91.48 95.08 92.37 95.08C93.59 95.08 94.5 96.05 94.5 97.27ZM91.14 97.12C91.14 98.36 91.68 99.28 92.48 99.28C93.09 99.28 93.59 98.83 93.59 97.48C93.59 96.33 93.13 95.4 92.27 95.4C91.66 95.4 91.13 96.01 91.13 97.12H91.14Z" fill="white"/>
<path d="M97.84 99.49V99.23C98.42 99.17 98.49 99.09 98.49 98.42V96.78C98.49 96.1 98.25 95.66 97.6 95.66C97.21 95.66 96.82 95.91 96.53 96.16V98.47C96.53 99.14 96.59 99.18 97.17 99.24V99.5H95.04V99.24C95.71 99.17 95.76 99.12 95.76 98.47V96.44C95.76 95.81 95.7 95.78 95.17 95.68V95.45C95.64 95.36 96.1 95.24 96.53 95.05V95.84C96.73 95.69 96.94 95.55 97.19 95.38C97.46 95.2 97.72 95.09 98 95.09C98.78 95.09 99.27 95.63 99.27 96.58V98.47C99.27 99.14 99.32 99.18 99.89 99.24V99.5H97.85L97.84 99.49Z" fill="white"/>
<path d="M100.43 99.49V99.23C101.05 99.17 101.12 99.11 101.12 98.44V96.42C101.12 95.81 101.09 95.77 100.5 95.67V95.43C101 95.35 101.46 95.22 101.89 95.05V98.44C101.89 99.11 101.96 99.17 102.59 99.23V99.49H100.43ZM100.95 93.72C100.95 93.43 101.19 93.21 101.45 93.21C101.71 93.21 101.94 93.43 101.94 93.72C101.94 93.99 101.72 94.22 101.44 94.22C101.18 94.22 100.95 93.98 100.95 93.72Z" fill="white"/>
<path d="M106.19 99.6C106.04 99.6 105.84 99.51 105.73 99.41C105.6 99.27 105.54 99.14 105.49 98.97C105.1 99.23 104.63 99.6 104.33 99.6C103.63 99.6 103.15 99.02 103.15 98.4C103.15 97.92 103.41 97.61 103.94 97.43C104.53 97.23 105.25 96.97 105.46 96.79V96.61C105.46 95.9 105.13 95.5 104.64 95.5C104.44 95.5 104.3 95.58 104.2 95.7C104.07 95.83 103.98 96.04 103.91 96.35C103.87 96.51 103.76 96.58 103.63 96.58C103.45 96.58 103.2 96.38 103.2 96.16C103.2 96.01 103.33 95.9 103.51 95.77C103.78 95.57 104.42 95.19 104.98 95.08C105.27 95.08 105.57 95.17 105.78 95.35C106.12 95.63 106.22 96.04 106.22 96.55V98.38C106.22 98.82 106.4 98.97 106.56 98.97C106.68 98.97 106.82 98.92 106.91 98.86L107.01 99.12L106.18 99.62L106.19 99.6ZM105.48 97.13C105.27 97.24 104.8 97.44 104.6 97.54C104.22 97.72 104 97.9 104 98.26C104 98.77 104.39 99.02 104.7 99.02C104.96 99.02 105.3 98.84 105.49 98.67V97.14L105.48 97.13Z" fill="white"/>
<path d="M110.09 99.49V99.23C110.67 99.17 110.74 99.09 110.74 98.42V96.78C110.74 96.1 110.5 95.66 109.85 95.66C109.46 95.66 109.07 95.91 108.78 96.16V98.47C108.78 99.14 108.84 99.18 109.42 99.24V99.5H107.29V99.24C107.96 99.17 108.01 99.12 108.01 98.47V96.44C108.01 95.81 107.95 95.78 107.42 95.68V95.45C107.89 95.36 108.35 95.24 108.78 95.05V95.84C108.98 95.69 109.19 95.55 109.44 95.38C109.71 95.2 109.97 95.09 110.25 95.09C111.03 95.09 111.52 95.63 111.52 96.58V98.47C111.52 99.14 111.57 99.18 112.14 99.24V99.5H110.1L110.09 99.49Z" fill="white"/>
<path d="M59.36 96.96C59.05 96.43 58.56 96.42 58.5 96.42L60.56 95.99L58.5 95.56C58.5 95.56 58.92 95.19 59.52 95.18C59.97 95.18 60.37 94.62 60.12 94.19C60.12 94.19 60.05 94.86 59.2 94.64C58.61 94.48 58.26 94.82 58.21 94.87L59.36 93.11L57.6 94.26C57.6 94.26 57.63 93.7 58.05 93.27C58.37 92.94 58.25 92.27 57.77 92.15C57.77 92.15 58.19 92.68 57.44 93.12C56.91 93.43 56.9 93.92 56.9 93.98L56.47 91.92L56.04 93.98C56.04 93.98 55.67 93.56 55.66 92.96C55.66 92.51 55.1 92.11 54.67 92.36C54.67 92.36 55.34 92.43 55.12 93.28C54.96 93.88 55.31 94.23 55.35 94.27L53.59 93.12L54.53 94.55L54.74 94.88C54.72 94.88 54.18 94.85 53.75 94.43C53.42 94.11 52.75 94.23 52.63 94.71C52.63 94.71 53.16 94.29 53.6 95.04C53.91 95.57 54.4 95.58 54.46 95.58L52.4 96.01L54.46 96.44C54.46 96.44 54.04 96.81 53.44 96.82C52.99 96.82 52.59 97.38 52.84 97.81C52.84 97.81 52.91 97.14 53.76 97.36C54.36 97.52 54.71 97.17 54.75 97.13L53.6 98.89L55.36 97.74C55.36 97.74 55.33 98.3 54.91 98.73C54.59 99.06 54.71 99.72 55.19 99.85C55.19 99.85 54.77 99.32 55.52 98.88C56.05 98.57 56.06 98.08 56.06 98.02L56.49 100.08L56.92 98.02C56.92 98.02 57.29 98.44 57.3 99.04C57.3 99.49 57.86 99.89 58.29 99.63C58.29 99.63 57.62 99.56 57.84 98.71C58 98.11 57.65 97.76 57.61 97.72L59.37 98.87L58.76 97.94L58.22 97.11C58.22 97.11 58.78 97.14 59.21 97.56C59.54 97.88 60.21 97.76 60.33 97.28C60.33 97.28 59.8 97.7 59.36 96.95V96.96Z" fill="white"/>
</g>
<defs>
<clipPath id="clip0_5835_17362">
<rect width="133.2" height="100.8" fill="white"/>
</clipPath>
</defs>
</svg>
