<svg xmlns="http://www.w3.org/2000/svg" style="height:24px" width="100%" height="100%" fill="currentColor" viewBox="0 0 162 24"><mask id="a" width="162" height="24" x="0" y="0" maskUnits="userSpaceOnUse" style="mask-type:luminance"><path fill="#fff" d="M0 0h161.5v24H0V0Z"/></mask><g fill="currentColor" mask="url(#a)"><path d="m27.135 18.92-4.43 4.756a1.05 1.05 0 0 1-.755.325h-21a.5.5 0 0 1-.375-.865L5 18.386a1.035 1.035 0 0 1 .755-.33h21a.5.5 0 0 1 .38.865Zm-4.43-9.564a1.03 1.03 0 0 0-.755-.325h-21a.5.5 0 0 0-.375.865L5 14.646a1.03 1.03 0 0 0 .755.325h21a.5.5 0 0 0 .38-.865l-4.43-4.75ZM.95 5.946h21a1.036 1.036 0 0 0 .755-.33l4.43-4.75a.5.5 0 0 0-.38-.865h-21A1.05 1.05 0 0 0 5 .326L.575 5.08a.5.5 0 0 0 .375.865ZM52.735 10.15H41.5v-3.7h14.155v-3.7h-14.19a3.695 3.695 0 0 0-3.715 3.675v3.75a3.695 3.695 0 0 0 3.715 3.675H52.71v3.7H38v3.7h14.72a3.691 3.691 0 0 0 3.71-3.675v-3.75a3.69 3.69 0 0 0-3.695-3.675ZM74.5 2.75H63.225A3.695 3.695 0 0 0 59.5 6.425v11.15a3.695 3.695 0 0 0 3.715 3.675H74.5a3.691 3.691 0 0 0 3.71-3.675V6.425A3.69 3.69 0 0 0 74.5 2.75Zm-.025 14.8H63.25V6.45h11.22l.005 11.1ZM114 2.75h-11a3.695 3.695 0 0 0-3.715 3.675V21.25h3.74v-6.08H114v6.08h3.74V6.425a3.681 3.681 0 0 0-1.104-2.617A3.686 3.686 0 0 0 114 2.75Zm0 8.72h-10.95v-5H114v5Zm43.785-8.72h-11a3.7 3.7 0 0 0-2.619 1.068 3.692 3.692 0 0 0-1.096 2.607V21.25h3.74v-6.08h10.95v6.08h3.74V6.425a3.686 3.686 0 0 0-2.299-3.402 3.697 3.697 0 0 0-1.416-.273Zm-.025 8.72h-10.95v-5h10.95v5ZM136 17.55h-1.5l-5.355-13.26a2.467 2.467 0 0 0-2.295-1.54h-3.35a2.464 2.464 0 0 0-2.475 2.45v16.05h3.74V6.45h1.5l5.36 13.26a2.5 2.5 0 0 0 2.3 1.54h3.325a2.456 2.456 0 0 0 2.306-1.503c.127-.3.193-.622.194-.947V2.75H136v14.8ZM85.275 2.75h-3.74v14.825a3.692 3.692 0 0 0 3.715 3.675H96.5v-3.7H85.275V2.75Z"/></g></svg>
