<svg viewBox="0 0 214 44" fill="none" xmlns="http://www.w3.org/2000/svg"><path d="M10.316 43.523a.242.242 0 0 1 .03-.184l.005-.008.006-.01a168.878 168.878 0 0 1 4.141-6.448 60.603 60.603 0 0 1 2.612-3.557c.48-1.332 1.04-2.684 1.817-3.746v-.001a13.39 13.39 0 0 1 1.177-1.382c1.557-1.712 3.563-3.177 5.488-4.496l-3.057-4.384-2.435-1.352 3.321.206.11-.075a4.096 4.096 0 0 1 5.702 1.017l.062.088a.906.906 0 0 0 .127.13c1.39-2.26 2.98-4.615 4.861-6.428a15.38 15.38 0 0 1 1.352-1.238c1.36-1.097 3.069-1.935 4.758-2.68a74.48 74.48 0 0 1 4.31-3.339A121.93 121.93 0 0 1 53.266.074a.523.523 0 0 1 .29-.074c.153.007.285.088.332.224a2.28 2.28 0 0 1 .066.813c-.086.903-.672 1.783-1.445 2.484-.146.132-.3.262-.458.389a94.174 94.174 0 0 1 2.473-.94.479.479 0 0 1 .187-.027c.12.007.22.066.274.159a.31.31 0 0 1 .038.172c-.027.532-.227 1.052-.551 1.531-.368.543-.897 1.034-1.521 1.43l-.136.083a7.26 7.26 0 0 1-.397.221c.788-.156 1.578-.3 2.37-.43l.051-.008a.397.397 0 0 1 .09-.005c.201.014.328.194.262.408a3.24 3.24 0 0 1-.413.855c-.462.688-1.2 1.282-2.118 1.664a6.438 6.438 0 0 1-.553.2c.698.004 1.4.02 2.1.052l.077.004h.002c.219.012.304.25.163.479a4.47 4.47 0 0 1-1.625 1.543 5.002 5.002 0 0 1-1.764.59c.595.152 1.188.32 1.77.508a.18.18 0 0 1 .11.098c.052.11.016.284-.107.43-.17.201-.364.397-.578.576a4.12 4.12 0 0 1-1.014.628 3.516 3.516 0 0 1-1.702.274c.477.284.945.582 1.394.899.055.038.08.106.08.184a.536.536 0 0 1-.164.358 3.46 3.46 0 0 1-.144.137c-.55.496-1.291.876-2.117.822a2.372 2.372 0 0 1-.326-.044 3.123 3.123 0 0 1-.389-.108c.37.378.727.766 1.071 1.162l.032.037c.01.01.017.021.024.033.03.053.038.122.028.194a.496.496 0 0 1-.16.297c-.645.55-1.411.657-2.148.422a2.389 2.389 0 0 1-.442-.189c.29.446.573.898.835 1.348a.349.349 0 0 1 .012.281.405.405 0 0 1-.157.213c-.281.18-.557.263-.826.277l-.031.001c-.44.013-.86-.161-1.241-.415a2.775 2.775 0 0 1-.246-.183c.223.498.437 1 .627 1.498a.39.39 0 0 1-.105.406.252.252 0 0 1-.072.047 1.37 1.37 0 0 1-.45.112 1.48 1.48 0 0 1-.857-.215 2.26 2.26 0 0 1-.152-.096c.102.203.203.406.295.61l.006.013.006.014a.347.347 0 0 1-.082.364.225.225 0 0 1-.067.045 1.414 1.414 0 0 1-.348.097c-.386.053-.741-.078-1.054-.276a3.16 3.16 0 0 1-.228-.16c.122.214.242.431.352.649l.007.012.006.014a.333.333 0 0 1-.076.364.201.201 0 0 1-.052.033 1.363 1.363 0 0 1-.37.102c-.368.045-.709-.08-1.014-.264-.1-.061-.199-.13-.292-.2.147.231.292.466.425.704a.32.32 0 0 1-.028.342.195.195 0 0 1-.072.056l-.071.03a1.265 1.265 0 0 1-.271.07c-.546.08-1.046-.223-1.449-.53l.074.103c.163.228.32.46.468.697a.308.308 0 0 1 .028.254.25.25 0 0 1-.05.088.184.184 0 0 1-.058.044 1.26 1.26 0 0 1-.884.064 2.129 2.129 0 0 1-.438-.176 13.28 13.28 0 0 1 .283.395c.004.007.009.013.012.02.034.06.044.129.034.191a.242.242 0 0 1-.046.112.168.168 0 0 1-.06.049 1.23 1.23 0 0 1-.115.047l.976 1.998 7.535-1.47c.135-.026.24.042.278.147l.003.006a.31.31 0 0 1-.03.253 4.419 4.419 0 0 1-1.428 1.495l1.158-.02c.227-.003.324.257.17.457-.259.338-.802.877-1.52 1.213l1.183.203c.218.038.266.319.085.494-.268.26-.772.637-1.395.868l-.051.019a3.273 3.273 0 0 1-.071.024l1.106.425c.202.077.2.37-.003.516a3.946 3.946 0 0 1-1.074.524l.768.492c.179.115.127.413-.092.523a3.66 3.66 0 0 1-1.092.334l.645.635c.152.149.05.441-.177.514a3.337 3.337 0 0 1-.982.143c.068.389.06.747.026.992a.366.366 0 0 1-.229.286l-.01.004a.256.256 0 0 1-.237-.029l-.735-.528c.013.456-.063.867-.144 1.133a.366.366 0 0 1-.215.234l-.015.005c-.096.032-.2.017-.27-.06l-.615-.672c-.064.474-.21.888-.335 1.147a.364.364 0 0 1-.197.184c-.003 0-.006.002-.008.003-.115.04-.24.012-.303-.096l-.606-1.018a4.189 4.189 0 0 1-.64 1.65c-.14.204-.419.208-.498.01l-.01-.027-.395-1.116a4.345 4.345 0 0 1-.937 1.705.357.357 0 0 1-.135.093l-.01.004c-.13.045-.268-.004-.318-.129l-.006-.016a.275.275 0 0 1-.01-.042l-.177-1.144a4.418 4.418 0 0 1-1.231 1.661c-.164.131-.367.081-.425-.076a.287.287 0 0 1-.017-.103l.152-6.915c-.17-.121-.375-.337-.613-.7a5.417 5.417 0 0 1-.182-.297l-2.407-.703c.015.18-.01.362-.09.54a.142.142 0 0 1-.074.07.206.206 0 0 1-.051.015.276.276 0 0 1-.208-.055c-.122-.093-.244-.19-.364-.286.01.017.018.035.027.052.104.207.178.426.193.648.012.174-.014.35-.09.522-.048.105-.216.128-.336.047l-.006-.004a23.333 23.333 0 0 1-.652-.486l-.079-.06c.045.058.09.12.133.183.227.335.413.727.38 1.125a1.079 1.079 0 0 1-.097.362.174.174 0 0 1-.09.068.285.285 0 0 1-.247-.033l-.008-.005a25.367 25.367 0 0 1-.625-.433c.148.199.283.42.365.653.046.13.075.263.08.399.007.156-.018.314-.085.472a.153.153 0 0 1-.033.048.2.2 0 0 1-.07.045.295.295 0 0 1-.243-.02l-.009-.006-.009-.006c-.17-.105-.34-.215-.509-.325l-.069-.045c.206.274.376.59.412.917.02.179-.001.362-.077.543l-.007.015a.186.186 0 0 1-.08.074.297.297 0 0 1-.274-.01c-.154-.089-.31-.182-.465-.276l-.08-.048c.033.05.065.102.094.154.195.346.279.731.115 1.122a.206.206 0 0 1-.113.106.326.326 0 0 1-.262-.003l-.007-.004-.008-.003c-.429-.218-.866-.447-1.306-.676.06.072.117.146.17.222.382.56.574 1.196.189 1.764a.251.251 0 0 1-.132.093.333.333 0 0 1-.284-.031l-1.087-.744-.106-.072a2.19 2.19 0 0 1 .216.463c.14.42.14.834-.024 1.192a1.419 1.419 0 0 1-.297.419.254.254 0 0 1-.027.02c-.118.078-.3.08-.397-.007-.365-.321-.728-.645-1.088-.972a3.22 3.22 0 0 1 .114.312c.144.497.06.938-.14 1.302a2.137 2.137 0 0 1-.524.62c-.143.108-.364.114-.451.007a33.458 33.458 0 0 1-.863-1.108c.012.062.02.125.028.187.016.147.017.295.003.442-.075.76-.556 1.332-1.114 1.707a.455.455 0 0 1-.148.065.348.348 0 0 1-.227-.016.186.186 0 0 1-.062-.046.144.144 0 0 1-.022-.034l-.012-.025a28.4 28.4 0 0 1-.555-1.264 2.754 2.754 0 0 1-.093.551c-.232.833-.821 1.434-1.546 1.784a.481.481 0 0 1-.083.03c-.116.031-.23.01-.297-.049a.168.168 0 0 1-.056-.099l-.01-.059a36.06 36.06 0 0 1-.211-1.438 3.376 3.376 0 0 1-.134.385c-.038.091-.08.18-.128.266a3.123 3.123 0 0 1-1.925 1.503.448.448 0 0 1-.127.016.33.33 0 0 1-.172-.047.19.19 0 0 1-.095-.182l.022-.228c.046-.467.098-.935.156-1.404a3.83 3.83 0 0 1-.42.63 3.741 3.741 0 0 1-2.319 1.34.366.366 0 0 1-.228-.032c-.093-.05-.138-.145-.1-.253.194-.567.396-1.135.606-1.702a7.204 7.204 0 0 1-.396.427c-.725.71-1.73 1.253-2.817 1.267a.417.417 0 0 1-.063-.004c-.112-.016-.188-.08-.21-.165ZM25.55 18.536a.414.414 0 1 0 .779-.282.414.414 0 0 0-.78.282Zm52.706.698c-1.108-.363-2.152-.545-3.134-.545-1.074 0-1.924.18-2.55.54-.626.359-.939.839-.939 1.439 0 .381.144.713.432.996.287.284.863.548 1.725.793l1.89.545c.872.246 1.582.54 2.132.882.55.343.962.757 1.237 1.244.275.486.412 1.05.412 1.693 0 1.26-.528 2.257-1.585 2.988-1.058.732-2.403 1.097-4.035 1.097-1.624 0-2.965-.245-4.022-.735l.38-1.713a8.227 8.227 0 0 0 3.566.786c1.1 0 1.993-.204 2.683-.615.69-.41 1.034-.953 1.034-1.63 0-.457-.171-.865-.514-1.224-.342-.36-1.148-.734-2.417-1.123a151.112 151.112 0 0 1-2.258-.704 4.714 4.714 0 0 1-1.345-.692 3.093 3.093 0 0 1-.945-1.09 3.086 3.086 0 0 1-.323-1.422c0-1.142.499-2.046 1.497-2.715.997-.668 2.322-1.002 3.97-1.002 1.067 0 2.25.182 3.553.546l-.444 1.662Zm13.418 10.734c-1.328.609-2.635.913-3.92.913-2.36 0-3.54-1.247-3.54-3.743v-8.081h-2.537v-1.713h2.537v-3.616h1.928v3.616h4.491v1.713h-4.49v7.561c0 .804.177 1.428.532 1.872.356.444.837.666 1.447.666 1.082 0 2.152-.241 3.21-.723l.342 1.535Zm10.204-3.324v-2.398c-1.785.16-3.01.31-3.674.45-.663.14-1.239.4-1.725.78-.487.38-.73.897-.73 1.548 0 .592.208 1.07.622 1.434.415.364.943.545 1.586.545.702 0 1.4-.209 2.093-.628.694-.419 1.303-.996 1.828-1.731Zm2.308 3.92h-1.966c-.161-.533-.241-1.243-.241-2.131-1.125 1.649-2.656 2.473-4.593 2.473-.98 0-1.846-.349-2.594-1.046-.749-.698-1.123-1.597-1.123-2.696 0-.651.13-1.226.393-1.726.262-.499.647-.92 1.155-1.262.507-.342 1.125-.613 1.852-.812.727-.198 1.59-.336 2.588-.412l2.221-.178v-.634c0-2.267-1.058-3.4-3.172-3.4-.5 0-1.131.108-1.897.323-.766.216-1.423.472-1.973.768l-.52-1.421c1.801-.922 3.477-1.383 5.024-1.383 3.011 0 4.517 1.595 4.517 4.783v5.684c0 1.15.109 2.174.329 3.07Zm12.537-12.865-.8 1.903c-.871-.38-1.624-.57-2.258-.57-.583 0-1.154.167-1.713.5-.558.335-1.071.813-1.541 1.434-.47.622-.704.97-.704 1.047v8.55h-1.967V17.345h1.967v2.677c1.057-1.996 2.427-2.994 4.11-2.994.998 0 1.967.224 2.906.672Zm9.985 12.865h-5.404V14.375h-3.452v-1.713h5.431v16.19h3.425v1.712Zm6.039-18.218c.372 0 .689.133.951.4.262.265.394.585.394.957 0 .389-.129.715-.387.977a1.292 1.292 0 0 1-.958.393c-.347 0-.653-.137-.92-.412a1.336 1.336 0 0 1-.4-.958c0-.364.134-.68.4-.951.267-.271.573-.406.92-.406Zm.964 18.218h-1.979V19.057h-3.895v-1.713h5.874v13.22Zm14.735 0h-1.979v-8.475c0-1.175-.188-2.028-.564-2.556-.377-.529-.967-.793-1.77-.793-1.21 0-2.508.753-3.895 2.258v9.566h-1.979v-13.22h1.979v1.941c1.421-1.505 2.918-2.258 4.491-2.258 2.478 0 3.717 1.497 3.717 4.491v9.046Zm7.741-6.496c.727 0 1.321-.251 1.782-.755.462-.503.692-1.16.692-1.973 0-.854-.224-1.522-.673-2.004-.448-.482-1.048-.723-1.801-.723-.702 0-1.292.252-1.77.755s-.717 1.16-.717 1.973c0 .795.239 1.448.717 1.96a2.325 2.325 0 0 0 1.77.767Zm.076 10.188c1.302 0 2.412-.29 3.33-.87.918-.579 1.377-1.296 1.377-2.15 0-.88-.651-1.32-1.954-1.32-.431 0-1.176.026-2.233.077-.668.034-1.192.05-1.573.05-.187 0-.476.153-.869.457-.393.305-.694.611-.901.92a1.698 1.698 0 0 0-.311.958c0 .516.288.958.863 1.326.575.368 1.332.552 2.271.552Zm-.85-8.678c-1.235.6-1.852 1.129-1.852 1.586 0 .245.141.452.425.621.283.17.67.254 1.161.254l4.453-.127c1.057 0 1.879.258 2.467.774.588.516.882 1.248.882 2.195 0 1.497-.668 2.69-2.005 3.578-1.336.888-2.897 1.332-4.681 1.332-1.463 0-2.66-.307-3.59-.92-.931-.613-1.396-1.406-1.396-2.379 0-1.057.719-1.95 2.157-2.677-1.193-.558-1.789-1.243-1.789-2.055 0-.93.769-1.797 2.309-2.6a4.508 4.508 0 0 1-1.637-1.675 4.407 4.407 0 0 1-.57-2.17c0-1.243.422-2.265 1.268-3.064.846-.8 1.903-1.199 3.172-1.199.913 0 1.738.19 2.474.571l3.92-.596v1.928h-2.524c.38.669.57 1.455.57 2.36 0 1.201-.419 2.216-1.256 3.045-.837.829-1.899 1.243-3.184 1.243-.271 0-.529-.008-.774-.025ZM16.975 19.62l-.777 1.295-3.07-2.033v3.704h-1.437v-3.704l-3.109 2.06-.764-1.322 3.264-2.124-3.264-2.124.764-1.295 3.109 2.072v-3.691h1.437v3.665l3.07-2.046.777 1.295-3.212 2.124 3.212 2.124ZM5.038 34.231H0V12.458h5.038v1.774H2.02v18.249h3.018v1.748Zm57.008-.053H56.88V32.43h3.147V14.207H56.88V12.46h5.167v21.72ZM177.34 14.54h-3.726v-1.794h5.933V28.65h3.751v1.819H173.2v-1.82h4.14V14.54Zm18.443 15.93-.05-1.694c-.685.678-1.384 1.167-2.094 1.468a5.581 5.581 0 0 1-2.221.452c-.719 0-1.333-.092-1.844-.277-.51-.183-.932-.434-1.267-.752a3.104 3.104 0 0 1-.727-1.141 4.295 4.295 0 0 1-.226-1.418c0-1.263.469-2.25 1.405-2.96.945-.72 2.337-1.079 4.177-1.079h2.609v-1.104c0-.744-.238-1.338-.715-1.78-.477-.452-1.204-.678-2.183-.678-.71 0-1.413.08-2.107.238-.685.159-1.396.385-2.132.677v-1.969c.276-.1.581-.196.915-.288a12.807 12.807 0 0 1 2.258-.44c.412-.05.827-.075 1.242-.075.761 0 1.447.084 2.057.251.611.168 1.125.422 1.543.765.427.343.752.774.978 1.292.226.519.339 1.13.339 1.832v8.68h-1.957Zm-.238-5.733h-2.772c-.544 0-1.012.055-1.405.164-.393.108-.715.263-.966.464-.251.2-.439.443-.564.727-.118.276-.176.59-.176.94 0 .243.038.477.113.703.075.218.196.414.364.59.167.167.385.301.652.401.268.1.594.15.978.15.502 0 1.075-.15 1.719-.45.652-.31 1.338-.795 2.057-1.456v-2.233Zm17.553-.79c0 1.046-.146 1.982-.439 2.81-.285.82-.694 1.518-1.23 2.095a5.319 5.319 0 0 1-1.931 1.317c-.761.3-1.618.451-2.572.451-.744 0-1.504-.07-2.283-.213a11.72 11.72 0 0 1-2.307-.677V12.746h2.182v4.88l-.1 2.332c.627-.844 1.296-1.438 2.007-1.78a5.187 5.187 0 0 1 2.308-.528c.719 0 1.35.15 1.894.452.543.3.999.727 1.367 1.28.368.543.644 1.203.828 1.981.184.77.276 1.63.276 2.584Zm-2.233.1c0-.66-.05-1.266-.15-1.818-.092-.552-.243-1.025-.452-1.418a2.454 2.454 0 0 0-.803-.915c-.326-.226-.715-.339-1.166-.339-.276 0-.557.046-.841.138-.284.084-.581.23-.89.439-.301.2-.623.473-.966.815-.334.335-.694.753-1.079 1.255v6.108c.424.167.861.301 1.305.402.443.092.865.138 1.267.138.501 0 .978-.08 1.43-.239a2.945 2.945 0 0 0 1.204-.79c.351-.376.627-.87.828-1.48.208-.619.313-1.384.313-2.296Z" fill="currentColor"/></svg>