<svg viewBox="0 0 208 44" fill="none" xmlns="http://www.w3.org/2000/svg">
<path d="M202.768 12.6685H205.218V31.112H203.242L193.757 17.332V31.112H191.307V12.6685H193.283L202.768 26.4221V12.6685Z" fill="currentColor"/>
<path d="M185.562 12.6685H188.013V31.112H185.562V12.6685Z" fill="currentColor"/>
<path fill-rule="evenodd" clip-rule="evenodd" d="M173.689 12.6685H176.471L182.269 31.112H179.707L178.395 26.9402H171.764L170.453 31.112H167.89L173.689 12.6685ZM177.67 24.6348L175.08 16.3954L172.489 24.6348H177.67Z" fill="currentColor"/>
<path d="M162.222 12.6685H164.645V31.112H162.222V22.8124H153.263V31.112H150.813V12.6685H153.263V20.4938H162.222V12.6685Z" fill="currentColor"/>
<path fill-rule="evenodd" clip-rule="evenodd" d="M147.491 18.6739H145.128L145.11 18.5862C144.986 17.9809 144.769 17.4518 144.461 16.9973L144.461 16.9966C144.157 16.5399 143.786 16.1571 143.348 15.8475L143.348 15.847L143.347 15.8466C142.914 15.5307 142.433 15.2937 141.903 15.1355C141.372 14.9769 140.818 14.8975 140.241 14.8975C139.189 14.8975 138.239 15.1636 137.387 15.695C136.543 16.2252 135.868 17.008 135.363 18.0489C134.865 19.0869 134.613 20.3659 134.613 21.8902C134.613 23.4146 134.865 24.6936 135.363 25.7316C135.868 26.7724 136.543 27.5552 137.387 28.0854C138.239 28.6168 139.189 28.8829 140.241 28.8829C140.818 28.8829 141.372 28.8035 141.903 28.645C142.433 28.4866 142.915 28.2523 143.348 27.942C143.786 27.6265 144.157 27.2407 144.461 26.7838L144.461 26.7836C144.769 26.3229 144.986 25.7936 145.11 25.194L145.128 25.1065H147.491L147.468 25.2355C147.305 26.1537 147.007 26.9778 146.573 27.7063C146.14 28.4334 145.602 29.0529 144.957 29.5638L144.957 29.5642C144.313 30.0689 143.59 30.453 142.789 30.7167C141.994 30.9805 141.144 31.112 140.241 31.112C138.713 31.112 137.35 30.7375 136.156 29.9865C134.962 29.2355 134.024 28.1685 133.342 26.7894C132.659 25.4084 132.32 23.7742 132.32 21.8902C132.32 20.0063 132.659 18.372 133.342 16.9911C134.024 15.6119 134.962 14.5449 136.156 13.794C137.35 13.0429 138.713 12.6685 140.241 12.6685C141.144 12.6685 141.994 12.7999 142.789 13.0638C143.591 13.3275 144.313 13.7146 144.957 14.2251C145.601 14.7303 146.14 15.3469 146.573 16.0739C147.007 16.7969 147.305 17.6211 147.468 18.5451L147.491 18.6739Z" fill="currentColor"/>
<path d="M118.751 12.6685H121.781V31.112H119.409L110.715 18.5967V31.112H107.685V12.6685H110.056L118.751 25.1837V12.6685Z" fill="currentColor"/>
<path fill-rule="evenodd" clip-rule="evenodd" d="M89.1987 31.2218L94.8375 12.7783H98.4508L104.09 31.2218H100.91L99.769 27.4892H93.5192L92.3784 31.2218H89.1987ZM98.8964 24.6349L96.6444 17.2684L94.3919 24.6349H98.8964Z" fill="currentColor"/>
<path d="M71.7538 31.112L66.228 12.6685H69.3261L73.1481 25.4252L76.2324 12.6685H79.2884L82.3727 25.4252L86.1947 12.6685H89.2928L83.767 31.112H80.669L80.6831 31.065L77.7604 18.977L74.8377 31.065L74.8519 31.112H71.7538Z" fill="currentColor"/>
<path d="M57.861 31.112C56.1487 31.112 54.6903 30.7224 53.4868 29.9434C52.3 29.1643 51.4689 28.0973 50.9941 26.7424L53.5121 25.269C54.2241 27.2674 55.6992 28.2667 57.9375 28.2667C59.0392 28.2667 59.8616 28.055 60.4043 27.6316C60.9637 27.1912 61.2435 26.6239 61.2435 25.9295C61.2435 25.2012 60.9466 24.6508 60.3532 24.2782C59.7598 23.8887 58.7087 23.4653 57.1997 23.008C56.3519 22.754 55.6653 22.5169 55.1398 22.2967C54.6143 22.0765 54.0548 21.7716 53.4614 21.3821C52.8848 20.9756 52.4525 20.4761 52.1642 19.8833C51.8759 19.2905 51.7319 18.5961 51.7319 17.8001C51.7319 16.2251 52.2914 14.9803 53.4103 14.0657C54.5292 13.1342 55.8771 12.6685 57.4541 12.6685C58.8785 12.6685 60.1246 13.0156 61.1928 13.71C62.261 14.4044 63.083 15.3613 63.6596 16.5807L61.1928 18.0034C60.4464 16.3436 59.2003 15.5138 57.4541 15.5138C56.6063 15.5138 55.9282 15.717 55.4195 16.1234C54.9107 16.513 54.6564 17.0465 54.6564 17.7239C54.6564 18.3844 54.9107 18.9095 55.4195 19.299C55.945 19.6716 56.886 20.0696 58.2425 20.493C58.9206 20.7132 59.4121 20.8825 59.7177 21.0011C60.0395 21.1027 60.4803 21.272 61.0402 21.5091C61.6164 21.7463 62.0487 21.9834 62.337 22.2205C62.6254 22.4576 62.9304 22.754 63.2527 23.1096C63.5917 23.4653 63.8289 23.8717 63.9647 24.329C64.1005 24.7863 64.1684 25.3029 64.1684 25.8787C64.1684 27.4876 63.5831 28.7663 62.4135 29.7147C61.2602 30.6462 59.743 31.112 57.861 31.112Z" fill="currentColor"/>
<path fill-rule="evenodd" clip-rule="evenodd" d="M21.6804 2.12939L3.33984 12.6815L31.2452 28.7809L21.6796 34.2768V30.0484L3.34351 19.5135L3.34243 31.2921L21.6788 41.8708L40.0162 31.2907L12.1848 15.2339L21.6796 9.77093V13.9196L40.0159 24.532V12.7076L21.6804 2.12939ZM21.6796 36.8247L33.4579 30.0575L35.5955 31.2907L21.6796 39.3198V36.8247ZM21.6796 7.22215V4.67943L21.6789 4.679L7.7652 12.6841L9.97297 13.9578L21.6796 7.22215ZM19.4704 31.327V38.0462L9.97091 32.5657V25.8691L19.4704 31.327ZM7.76171 24.5998L5.55235 23.3304L5.55175 30.0162L7.76171 31.2912V24.5998ZM23.8888 12.6457V5.95397L37.8067 13.9835V20.7009L23.8888 12.6457Z" fill="currentColor"/>
</svg>
