<svg
  xmlns="http://www.w3.org/2000/svg"
  fill="currentColor"
  viewBox="0 0 174 42"
>
  <g fill="currentColor" clip-path="url(#a)">
    <path d="M42.875 22.957h3.016l6.635-16.713-3.117-1.03-5 13.671h-.051L39.91 5.213l-3.245 1.031 6.21 16.713ZM53.658 22.957h3.067l.127-12.666h-3.067l-.127 12.666Zm.127-14.423h3.067l.025-2.965H53.81l-.025 2.965ZM67.198 19.292c-.706.73-1.457 1.406-2.59 1.406-1.533 0-2.716-1.482-2.716-4.148 0-1.934.955-3.995 2.864-3.995 1.08 0 1.781.579 2.563 1.208l1.737-1.685c-1.132-1.26-2.564-2.138-4.422-2.138-3.772 0-5.955 3.392-5.955 6.885 0 3.066 1.883 6.483 5.503 6.483 2.01 0 3.493-.904 4.726-2.412l-1.71-1.61v.006ZM76.823 20.394c-.426.3-.878.604-1.406.604-.757 0-1.03-.502-1.03-1.33 0-.929 0-2.087.025-3.34l.076-3.722H77.3v-2.31l-2.812.051.101-4.523h-3.066l-.102 4.523-1.71-.05v2.31h1.71l-.076 3.868c-.025 1.106-.025 2.462-.025 3.04 0 2.691 1.33 3.793 3.442 3.793.376 0 1.107-.05 1.909-.503l1.03-.553-.878-1.858ZM77.945 16.627c0 3.594 1.935 6.686 6.057 6.686 3.818 0 6.056-3.092 6.056-6.686 0-3.595-2.035-6.687-6.056-6.687-3.721 0-6.057 3.34-6.057 6.687Zm3.067.101c0-1.757.705-4.32 2.99-4.32 2.061 0 2.99 1.685 2.99 4.32 0 1.762-.777 4.122-2.99 4.122-2.214 0-2.99-2.589-2.99-4.122ZM91.89 22.957h3.092l.076-7.838c.63-1.33 1.483-2.214 2.666-2.214.228 0 .477.051.73.102l.504-2.94a3.698 3.698 0 0 0-.904-.127c-1.559.051-2.335 1.26-2.94 2.716l-.025-.05v-2.31h-3.066l-.127 12.666-.005-.005ZM119.651 19.413c-1.056.604-2.163 1.132-4.371 1.132-3.244 0-5.529-3.066-5.529-6.381 0-3.315 2.239-6.184 5.63-6.184 1.381 0 3.117.579 4.173 1.483l1.407-2.24c-1.584-1.33-3.62-2.01-5.681-2.01-5.179 0-8.895 3.747-8.895 9.098 0 5.35 3.843 8.996 9.022 8.996 1.959 0 3.919-.553 5.528-1.685l-1.279-2.214-.005.005ZM122.488 22.957h3.067l.05-8.595c.777-.756 1.833-1.66 2.788-1.66 1.284 0 1.66.731 1.66 1.711 0 .98-.026 3.417-.051 5.376l-.026 3.168h3.067l.076-6.356c0-.802.025-1.584.025-2.838 0-1.96-.705-3.818-3.365-3.818-1.686 0-3.118.777-4.097 1.884h-.051l.051-7.717h-3.067l-.127 18.85v-.005ZM137.115 14.14c1.909-1.483 2.665-1.737 3.29-1.737.853 0 1.457.274 1.457 1.685v.828c-5.478.903-6.783 2.665-6.783 4.7 0 2.26 1.533 3.697 3.792 3.697 1.209 0 2.336-.63 3.244-1.686.229 1.056 1.107 1.686 2.189 1.686.578 0 1.304-.152 2.639-1.03l-.731-1.534c-.528.249-.751.325-.903.325-.325 0-.681-.503-.681-1.208 0-.528.026-1.006.051-1.584l.102-3.645c.025-.325.025-.604.025-1.056 0-2.463-1.736-3.645-3.62-3.645-1.355 0-2.766.3-5.528 2.563l1.457 1.635v.005Zm4.676 5.68c-.731.777-1.559 1.183-2.189 1.183-.954 0-1.609-.553-1.609-1.483 0-1.284.929-1.985 3.843-2.64l-.051 2.94h.006ZM148.02 22.957h3.066l.051-8.594c.776-.757 1.832-1.66 2.787-1.66 1.284 0 1.66.553 1.66 2.111 0 1.559-.025 3.016-.051 4.976l-.025 3.168h3.066l.076-6.357c0-.802.026-1.583.026-2.837 0-1.96-.706-3.818-3.366-3.818-1.686 0-3.117.777-4.097 1.883h-.051v-1.533h-3.016l-.126 12.667v-.006ZM173.627 12.377v-1.96l-4.097.077c-.756-.3-1.381-.554-2.813-.554-2.614 0-4.899 1.584-4.899 4.3 0 1.234.528 2.31 1.737 2.965-2.112 1.33-2.965 1.884-2.965 2.99 0 1.234 1.558 1.508 2.716 1.762v.05c-1.33.681-2.716 1.483-2.716 3.316 0 1.833 1.685 3.721 5.731 3.721 3.194 0 6.91-1.736 6.91-5.203 0-3.143-2.99-3.519-5.828-3.772-2.838-.25-3.62-.35-3.62-.904 0-.452.63-.802 1.107-1.158.477.153 1.279.325 2.31.325 2.411 0 4.675-1.482 4.675-4.097 0-.73-.253-1.406-.731-1.934l2.488.076h-.005Zm-10.428 12.514c0-1.208 1.234-1.883 2.214-2.487 4.396.528 4.899.68 4.899 2.01 0 1.33-1.559 2.666-3.747 2.666-1.33 0-3.366-.554-3.366-2.188Zm3.767-12.99c1.234 0 1.985 1.004 1.985 2.213 0 1.33-.68 2.264-2.061 2.264-1.457 0-2.163-1.03-2.163-2.138 0-1.38.828-2.335 2.239-2.335V11.9ZM45.048 27.659c-.73-.391-1.452-.61-2.345-.61-2.239 0-4.006 1.615-4.006 3.93 0 2.467 1.767 3.93 4.006 3.93.797 0 1.634-.316 2.315-.712l-.37-.665c-.59.34-1.28.59-1.945.59-1.757 0-3-1.397-3-3.143 0-1.747 1.243-3.143 3-3.143.73 0 1.365.152 1.954.569l.391-.741v-.006ZM50.663 34.065c-.143.096-.275.187-.457.187-.34 0-.391-.38-.391-.776 0-.96.086-1.91.086-2.935 0-.842-.457-1.375-1.366-1.375-.786 0-1.137.197-2.228.903l.36.569c.797-.6 1.148-.752 1.574-.752.579 0 .828.35.828.818 0 .228-.01.457-.02.685-1.189.046-3.179.406-3.179 1.945 0 .918.61 1.573 1.574 1.573.7 0 1.223-.39 1.635-.903.045.457.314.903.807.903.38 0 .71-.152 1.015-.39l-.238-.447v-.005Zm-1.66-.61c-.34.417-.752.797-1.29.797-.6 0-.97-.314-.97-.929 0-.929.787-1.213 2.305-1.406l-.046 1.538ZM51.719 34.756h.873l.046-3.569c.467-.873 1.046-1.167 1.406-1.167.122 0 .249.03.34.056l.264-.828a1.36 1.36 0 0 0-.467-.076c-.787 0-1.32.741-1.508 1.233l-.02-.02.01-1.06h-.893l-.046 5.436-.005-.005ZM58.725 29.876h-.02c-.209-.38-.752-.71-1.397-.71-1.233 0-2.457 1.253-2.457 2.903 0 2.138 1.254 2.838 2.183 2.838.762 0 1.406-.416 1.66-.883h.02l-.02.731h.883l.087-8.184h-.894l-.045 3.305Zm-.02 3.305c-.209.457-.777 1.005-1.473 1.005-.741 0-1.442-.675-1.442-2.152 0-1.081.655-2.153 1.625-2.153.523 0 .95.229 1.32.873l-.03 2.422v.005ZM61.222 34.755h.873l.046-5.437h-.873l-.046 5.437Zm0-6.57h.94v-.979h-.94v.98ZM68.132 34.065c-.142.096-.274.187-.457.187-.34 0-.391-.38-.391-.776 0-.96.086-1.91.086-2.935 0-.842-.457-1.375-1.365-1.375-.787 0-1.137.197-2.229.903l.36.569c.797-.6 1.148-.752 1.574-.752.579 0 .828.35.828.818 0 .228-.01.457-.02.685-1.189.046-3.179.406-3.179 1.945 0 .918.61 1.573 1.574 1.573.7 0 1.224-.39 1.635-.903.046.457.315.903.807.903.38 0 .71-.152 1.015-.39l-.238-.447v-.005Zm-1.66-.61c-.34.417-.752.797-1.29.797-.599 0-.97-.314-.97-.929 0-.929.787-1.213 2.305-1.406l-.045 1.538ZM73.117 30.07c-.426-.544-1.071-.904-1.777-.904-1.482 0-2.543 1.375-2.543 2.868 0 1.802 1.06 2.868 2.411 2.868.742 0 1.31-.284 1.833-.903l-.447-.513c-.264.35-.766.7-1.233.7-.843 0-1.625-.761-1.625-1.985 0-1.528.828-2.315 1.635-2.315.447 0 .843.219 1.178.635l.568-.447v-.005ZM77.153 34.756h.95l.046-3.229h.599c.72 0 .939.437 1.406 1.036l1.777 2.422.827-.503-1.518-2.01c-.314-.391-.74-1.071-1.243-1.168v-.02c1.06-.142 1.898-.863 1.898-2.097s-.97-1.985-2.401-1.985h-2.28l-.066 7.554h.005Zm1.006-6.899h1.122c1.223 0 1.68.71 1.68 1.518 0 1.102-.96 1.432-1.888 1.432h-.94l.02-2.945.006-.005ZM87.926 31.918v-.172c0-1.462-.635-2.574-2.097-2.574s-2.487 1.376-2.487 2.868c0 1.777.873 2.869 2.38 2.869.808 0 1.519-.417 2.072-.97l-.426-.467c-.467.426-.93.787-1.549.787-1.112 0-1.538-1.016-1.538-2.153v-.188h3.645Zm-3.569-.588c.142-.742.665-1.508 1.483-1.508.883 0 1.213.73 1.213 1.508h-2.696ZM88.723 34.37c.493.314 1.071.533 1.7.533.894 0 1.803-.61 1.803-1.65 0-1.843-2.523-1.366-2.523-2.534 0-.645.467-.904 1.102-.904.38 0 .72.188 1.035.361l.406-.558c-.406-.275-.97-.457-1.584-.457-.995 0-1.832.599-1.832 1.624 0 1.823 2.523 1.234 2.523 2.59 0 .609-.579.873-1.061.873s-.894-.25-1.198-.457l-.37.578ZM97.628 31.918v-.172c0-1.462-.635-2.574-2.097-2.574s-2.488 1.376-2.488 2.868c0 1.777.874 2.869 2.381 2.869.808 0 1.518-.417 2.072-.97l-.427-.467c-.467.426-.929.787-1.548.787-1.112 0-1.538-1.016-1.538-2.153v-.188h3.645Zm-3.57-.588c.143-.742.666-1.508 1.483-1.508.884 0 1.214.73 1.214 1.508h-2.696ZM103.293 34.065c-.142.096-.274.187-.456.187-.341 0-.391-.38-.391-.776 0-.96.086-1.91.086-2.935 0-.842-.457-1.375-1.366-1.375-.787 0-1.137.197-2.228.903l.36.569c.797-.6 1.147-.752 1.574-.752.579 0 .827.35.827.818 0 .228-.01.457-.02.685-1.188.046-3.178.406-3.178 1.945 0 .918.61 1.573 1.574 1.573.7 0 1.223-.39 1.634-.903.046.457.315.903.808.903.38 0 .71-.152 1.015-.39l-.239-.447v-.005Zm-1.66-.61c-.34.417-.751.797-1.289.797-.6 0-.97-.314-.97-.929 0-.929.787-1.213 2.305-1.406l-.046 1.538ZM104.349 34.756h.873l.046-3.569c.467-.873 1.046-1.167 1.406-1.167.122 0 .249.03.34.056l.264-.828a1.356 1.356 0 0 0-.467-.076c-.787 0-1.32.741-1.507 1.233l-.021-.02.01-1.06h-.893l-.046 5.436-.005-.005ZM111.802 30.07c-.426-.544-1.071-.904-1.777-.904-1.482 0-2.543 1.375-2.543 2.868 0 1.802 1.061 2.868 2.411 2.868.742 0 1.31-.284 1.833-.903l-.447-.513c-.264.35-.766.7-1.233.7-.843 0-1.625-.761-1.625-1.985 0-1.528.828-2.315 1.635-2.315.447 0 .843.219 1.178.635l.568-.447v-.005ZM112.716 34.755h.873l.046-3.797c.558-.675 1.061-1.005 1.624-1.005.599 0 .995.274.995.863 0 .533-.01 1.015-.01 1.497l-.02 2.447h.873l.02-2.695c0-.417.011-.828.011-1.244 0-1.005-.407-1.65-1.661-1.65-.644 0-1.386.37-1.822 1.005h-.02l.045-3.6h-.903l-.046 8.184-.005-.005ZM122.001 34.756h.94l.066-7.554h-.94l-.066 7.554ZM124.85 34.756h.873l.046-3.797c.558-.675 1.061-1.005 1.624-1.005.599 0 .995.274.995.863 0 .533-.01 1.015-.01 1.497l-.02 2.447h.873l.02-2.695c0-.417.01-.828.01-1.244 0-1.005-.406-1.65-1.66-1.65-.645 0-1.386.37-1.843 1.025h-.02l.031-.873h-.874l-.045 5.437v-.005ZM130.449 34.37c.493.314 1.071.533 1.701.533.893 0 1.802-.61 1.802-1.65 0-1.843-2.523-1.366-2.523-2.534 0-.645.467-.904 1.102-.904.38 0 .721.188 1.035.361l.406-.558c-.406-.275-.969-.457-1.583-.457-.996 0-1.833.599-1.833 1.624 0 1.823 2.523 1.234 2.523 2.59 0 .609-.579.873-1.061.873s-.894-.25-1.198-.457l-.371.578ZM134.572 29.318v.655h.929l-.02 1.985c-.011.751-.011 1.198-.011 1.558 0 .863.325 1.386 1.168 1.386.482 0 1.005-.228 1.366-.467l-.285-.568c-.208.132-.578.314-.873.314-.37 0-.502-.248-.502-.7 0-.274 0-.675.01-1.29l.02-2.228h1.498v-.655h-1.483l.021-2.01h-.874l-.02 2.01h-.939l-.005.01ZM138.704 34.755h.873l.046-5.437h-.873l-.046 5.437Zm0-6.57h.939v-.979h-.939v.98ZM140.623 29.318v.655h.929l-.02 1.985c-.01.751-.01 1.198-.01 1.558 0 .863.325 1.386 1.167 1.386.483 0 1.005-.228 1.366-.467l-.284-.568c-.209.132-.579.314-.874.314-.37 0-.502-.248-.502-.7 0-.274 0-.675.01-1.29l.02-2.228h1.498v-.655h-1.482l.02-2.01h-.873l-.021 2.01h-.939l-.005.01ZM144.867 32.014c0 .417-.01.828-.01 1.244 0 1.005.406 1.65 1.66 1.65.645 0 1.386-.37 1.843-1.025h.02l-.03.873h.873l.046-5.437h-.874l-.045 3.797c-.559.675-1.061 1.005-1.625 1.005-.599 0-.995-.274-.995-.863 0-.533.01-1.015.01-1.498l.021-2.447h-.874l-.02 2.696v.005ZM150.325 29.318v.655h.929l-.021 1.985c-.01.751-.01 1.198-.01 1.558 0 .863.325 1.386 1.168 1.386.482 0 1.005-.228 1.366-.467l-.285-.568c-.208.132-.578.314-.873.314-.371 0-.503-.248-.503-.7 0-.274 0-.675.011-1.29l.02-2.228h1.498v-.655h-1.483l.02-2.01h-.873l-.02 2.01h-.939l-.005.01ZM158.737 31.918v-.172c0-1.462-.635-2.574-2.097-2.574s-2.488 1.376-2.488 2.868c0 1.777.874 2.869 2.381 2.869.808 0 1.518-.417 2.072-.97l-.427-.467c-.467.426-.929.787-1.548.787-1.112 0-1.538-1.016-1.538-2.153v-.188h3.645Zm-3.569-.588c.142-.742.665-1.508 1.482-1.508.883 0 1.213.73 1.213 1.508h-2.695Z"/>

    <path
      fill-rule="evenodd"
      d="M25.122 26.1c-.25 0-1.254.376-1.325.437-.137-.426-1.336-.61-1.701-.61-.218 0-1.381.174-1.6.174-.218 0-.776-.777-.994-.777-.229 0-.412.259-.934.269-.188.452-.798 1.03-.798 1.244 0 .213.117.213.117.213.208-.087.315-.173.533-.173.498 0 .772.965 1.143 1.203.025-.127.066-.167.182-.182.01-.203-.248-.29-.248-.508 0-.218.076-.188.147-.264.07 0-.015.178.198.173h.238c.102-.193.183-.356.254-.432 1.366 0 1.544.091 1.716.091 1.295-.076 1.899-.172 2.117-.172.193 0 1.168.604 1.168.604.218 0 .203-.01.3-.112v-.7c0-.117-.204-.488-.518-.488l.005.01Z"
      clip-rule="evenodd"
    />

    <path
      fill-rule="evenodd"
      d="M20.284 27.958c0 .117 2.05.995 2.335.995.03 0 .99-.411 1.122-.665-.741-.198-2.254-.716-2.98-.716-.28 0-.477.219-.477.391v-.005Z"
      clip-rule="evenodd"
    />

    <path
      fill-rule="evenodd"
      d="M29.706 16.206c0-.68-.782-.711-1.381-1.3.38-.59.604-.533.604-.904 0-.487-1.64-1.34-1.64-3.6V9.216C27.284 4.717 21.116.204 17.36.01c-.015.116-.457-.01-.67-.01h-1.914c-.508.01-1.696.152-1.696.152C6.216.153 2.301 7.27 2.301 12.565v1.66c.122.524.432 1.356.432 1.94 0 .218-.173.822-.173 1.036 0 1.619 1.721 3.645 2.305 5.071.757 1.848 2.046 4.371 3.143 5.955v.234c-.67.599-.945 1.492-1.625 1.94-.873.573-5.467.984-5.467 2.141 0 .219.106.295.203.356 2.31.259 4.751 1.833 6.904 3.416 2.107 1.57 3.239 3.91 5.02 5.687h.554c.122-1.33-.32-2.305-.32-3.539 0-3.457 5.803-5.534 8.037-5.534.218 0 1.173.087 1.802-.015v-.492c-1.543-.056-2.985-1.193-4.132-2.077-.163-.117-1.077-1.909-1.214-1.909-.218 0-.736.173-.949.173-.213 0-.274.01-.345-.056v-.32c0-.218.37-.72.431-1.39.132-1.382.087-1.778.087-1.99 0-2.052-2.25-4.128-2.25-4.235 0-.218.077-.142.148-.218 1.883 0 2.163.086 2.35-.015v-.31c-.64-.168-.858-.32-.858-.792 0-.746-.35-1.559.645-1.559l2.584.346c.625 0 .614-.858 1.04-1.127.092.157.397 1.31.397 1.599 0 .218-.173.604-.173.822 0 .218.173.173.173.391 0 .03-1.38 1.99-1.38 2.594 0 .528.766 1.254 1.35 1.25h.268c.102-.194.153-.432.366-.432.173 0 .823.345 1.122.345.452 0 .68.06 1.208-.457v-.294c-.269-.275-.73-.63-.944-.63-.213 0-1.081.345-1.294.345-.214 0-.102.01-.178-.06 0-.244-.082-.59-.082-.803 0-.213.133-.259.346-.259.213 0 .431.26.65.26.218 0 .208-.102.208-.102.096-.36.182-.894.182-1.107 0-.411-.517-.746-.517-1.036 0-.218.248-.36.426-.543v-1.472c.163-.158.305-.406.523-.406.218 0 .457.08.61.152-.006.152-.265.325-.265.538 0 .213.604.995.604 1.208 0 .214 0 .478.016.767l.497-.096c-.167-.9-.34-1.798-.34-2.01 0-.214.081-.326.147-.483h.218c.224.467.036 1.127.716 1.127.219 0 .203-.01.3-.112v-.294c-.462-.554-.6-.33-.6-.808 0-.218.077-.274.143-.35h.31c.436.706.487.955 1.015.955.345 0 .31-.076.833-.61.045.01 1.325.173 1.325.782 0 .899-.219 1.132-.95 2.122a.389.389 0 0 0 .213.127c.427-.132 1.432-1.761 1.427-1.868v-1.127a1.439 1.439 0 0 0-.259-.233c.147-.056.432-.31.432-.529h.01Zm-10.763-.478c-.431 0-.944.087-1.39.173 0 0-.082-.086-.21-.112.696-.919.722-1.36 1.727-1.36.624 0 1.437.32 1.721 1.274-.37.107-.817.02-1.853.02l.005.005Zm10.006.945c-2.325-.645-.939-.772-2.574-.772-.756 0-1.99.863-2.29.863-.553 0-.238-.173-1.106-.183-.101-.37-.447-.939-.447-1.157 0-.219.26-.518.26-.736 0-1.62-4.321-1.62-4.321-2.336 0-1.157 1.736-1.03 2.249-1.35-.741-1.224-2.325-2.721-3.107-3.91h.807c.218-.01 2.087.422 2.3.422.213 0 1.731-.173 1.944-.173.214 0 1.513.173 1.731.173.219 0 .691-.173.91-.173 1.207 0 1.639 4.58 1.639 5.143 0 .219-.107.295-.203.356-1.132.076-3.082 1.893-3.082 2.37 0 .325.26.605.432.605.03 0 1.569-1.381 2.548-1.381.26 0 .503.101.803.02v.655c-.325-.162-.701-.208-.848-.015 0 .07.076.213.147.29h1.183c.355 0 1.157.634 1.025 1.289Z"
      clip-rule="evenodd"
    />
  </g>

  <defs>
    <clipPath id="a">
      <path fill="#fff" d="M.92 0h172.706v42H.92z"/>
    </clipPath>
  </defs>
</svg>
