<svg fill="none" xmlns="http://www.w3.org/2000/svg" viewBox="0 0 56.73 82.73">
<path fill-rule="evenodd" clip-rule="evenodd" d="M47.6802 51.4089C47.1902 51.4089 45.2102 52.1489 45.0702 52.2689C44.8002 51.4289 42.4402 51.0689 41.7202 51.0689C41.2902 51.0689 39.0002 51.4089 38.5702 51.4089C38.1402 51.4089 37.0402 49.8789 36.6102 49.8789C36.1602 49.8789 35.8002 50.3889 34.7702 50.4089C34.4002 51.2989 33.2002 52.4389 33.2002 52.8589C33.2002 53.2789 33.4302 53.2789 33.4302 53.2789C33.8402 53.1089 34.0502 52.9389 34.4802 52.9389C35.4602 52.9389 36.0002 54.8389 36.7302 55.3089C36.7802 55.0589 36.8602 54.9789 37.0902 54.9489C37.1102 54.5489 36.6002 54.3789 36.6002 53.9489C36.6002 53.5189 36.7502 53.5789 36.8902 53.4289C37.0302 53.4289 36.8602 53.7789 37.2802 53.7689H37.7502C37.9502 53.3889 38.1102 53.0689 38.2502 52.9189C40.9402 52.9189 41.2902 53.0989 41.6302 53.0989C44.1802 52.9489 45.3702 52.7589 45.8002 52.7589C46.1802 52.7589 48.1002 53.9489 48.1002 53.9489C48.5302 53.9489 48.5002 53.9289 48.6902 53.7289V52.3489C48.6902 52.1189 48.2902 51.3889 47.6702 51.3889L47.6802 51.4089Z" fill="#000"/>
<path fill-rule="evenodd" clip-rule="evenodd" d="M38.1494 55.0686C38.1494 55.2986 42.1894 57.0286 42.7494 57.0286C42.8094 57.0286 44.6994 56.2186 44.9594 55.7186C43.4994 55.3286 40.5194 54.3086 39.0894 54.3086C38.5394 54.3086 38.1494 54.7386 38.1494 55.0786V55.0686Z" fill="#000"/>
<path fill-rule="evenodd" clip-rule="evenodd" d="M56.71 31.92C56.71 30.58 55.17 30.52 53.99 29.36C54.74 28.2 55.18 28.31 55.18 27.58C55.18 26.62 51.95 24.94 51.95 20.49V18.15C51.94 9.29 39.79 0.4 32.39 0.02C32.36 0.25 31.49 0 31.07 0H27.3C26.3 0.02 23.96 0.3 23.96 0.3C10.44 0.3 2.73 14.32 2.73 24.75V28.02C2.97 29.05 3.58 30.69 3.58 31.84C3.58 32.27 3.24 33.46 3.24 33.88C3.24 37.07 6.63 41.06 7.78 43.87C9.27 47.51 11.81 52.48 13.97 55.6V56.06C12.65 57.24 12.11 59 10.77 59.88C9.05 61.01 0 61.82 0 64.1C0 64.53 0.21 64.68 0.4 64.8C4.95 65.31 9.76 68.41 14 71.53C18.15 74.62 20.38 79.23 23.89 82.73H24.98C25.22 80.11 24.35 78.19 24.35 75.76C24.35 68.95 35.78 64.86 40.18 64.86C40.61 64.86 42.49 65.03 43.73 64.83V63.86C40.69 63.75 37.85 61.51 35.59 59.77C35.27 59.54 33.47 56.01 33.2 56.01C32.77 56.01 31.75 56.35 31.33 56.35C30.91 56.35 30.79 56.37 30.65 56.24V55.61C30.65 55.18 31.38 54.19 31.5 52.87C31.76 50.15 31.67 49.37 31.67 48.95C31.67 44.91 27.24 40.82 27.24 40.61C27.24 40.18 27.39 40.33 27.53 40.18C31.24 40.18 31.79 40.35 32.16 40.15V39.54C30.9 39.21 30.47 38.91 30.47 37.98C30.47 36.51 29.78 34.91 31.74 34.91L36.83 35.59C38.06 35.59 38.04 33.9 38.88 33.37C39.06 33.68 39.66 35.95 39.66 36.52C39.66 36.95 39.32 37.71 39.32 38.14C39.32 38.57 39.66 38.48 39.66 38.91C39.66 38.97 36.94 42.83 36.94 44.02C36.94 45.06 38.45 46.49 39.6 46.48H40.13C40.33 46.1 40.43 45.63 40.85 45.63C41.19 45.63 42.47 46.31 43.06 46.31C43.95 46.31 44.4 46.43 45.44 45.41V44.83C44.91 44.29 44 43.59 43.58 43.59C43.16 43.59 41.45 44.27 41.03 44.27C40.61 44.27 40.83 44.29 40.68 44.15C40.68 43.67 40.52 42.99 40.52 42.57C40.52 42.15 40.78 42.06 41.2 42.06C41.62 42.06 42.05 42.57 42.48 42.57C42.91 42.57 42.89 42.37 42.89 42.37C43.08 41.66 43.25 40.61 43.25 40.19C43.25 39.38 42.23 38.72 42.23 38.15C42.23 37.72 42.72 37.44 43.07 37.08V34.18C43.39 33.87 43.67 33.38 44.1 33.38C44.53 33.38 45 33.54 45.3 33.68C45.29 33.98 44.78 34.32 44.78 34.74C44.78 35.16 45.97 36.7 45.97 37.12C45.97 37.54 45.97 38.06 46 38.63L46.98 38.44C46.65 36.67 46.31 34.9 46.31 34.48C46.31 34.06 46.47 33.84 46.6 33.53H47.03C47.47 34.45 47.1 35.75 48.44 35.75C48.87 35.75 48.84 35.73 49.03 35.53V34.95C48.12 33.86 47.85 34.3 47.85 33.36C47.85 32.93 48 32.82 48.13 32.67H48.74C49.6 34.06 49.7 34.55 50.74 34.55C51.42 34.55 51.35 34.4 52.38 33.35C52.47 33.37 54.99 33.69 54.99 34.89C54.99 36.66 54.56 37.12 53.12 39.07C53.32 39.29 53.54 39.32 53.54 39.32C54.38 39.06 56.36 35.85 56.35 35.64V33.42C56.16 33.22 55.99 33.05 55.84 32.96C56.13 32.85 56.69 32.35 56.69 31.92H56.71ZM35.51 30.98C34.66 30.98 33.65 31.15 32.77 31.32C32.77 31.32 32.61 31.15 32.36 31.1C33.73 29.29 33.78 28.42 35.76 28.42C36.99 28.42 38.59 29.05 39.15 30.93C38.42 31.14 37.54 30.97 35.5 30.97L35.51 30.98ZM55.22 32.84C50.64 31.57 53.37 31.32 50.15 31.32C48.66 31.32 46.23 33.02 45.64 33.02C44.55 33.02 45.17 32.68 43.46 32.66C43.26 31.93 42.58 30.81 42.58 30.38C42.58 29.95 43.09 29.36 43.09 28.93C43.09 25.74 34.58 25.74 34.58 24.33C34.58 22.05 38 22.3 39.01 21.67C37.55 19.26 34.43 16.31 32.89 13.97H34.48C34.91 13.95 38.59 14.8 39.01 14.8C39.43 14.8 42.42 14.46 42.84 14.46C43.26 14.46 45.82 14.8 46.25 14.8C46.68 14.8 47.61 14.46 48.04 14.46C50.42 14.46 51.27 23.48 51.27 24.59C51.27 25.02 51.06 25.17 50.87 25.29C48.64 25.44 44.8 29.02 44.8 29.96C44.8 30.6 45.31 31.15 45.65 31.15C45.71 31.15 48.74 28.43 50.67 28.43C51.18 28.43 51.66 28.63 52.25 28.47V29.76C51.61 29.44 50.87 29.35 50.58 29.73C50.58 29.87 50.73 30.15 50.87 30.3H53.2C53.9 30.3 55.48 31.55 55.22 32.84Z" fill="#000"/>
</svg>