<svg xmlns="http://www.w3.org/2000/svg" fill="currentColor"><g fill="#9F9FA9" clip-path="url(#a)"><path d="M42.375 22.956h3.016l6.635-16.713-3.117-1.03-5 13.672h-.051L39.41 5.213l-3.245 1.03 6.21 16.713ZM53.158 22.956h3.067l.127-12.666h-3.067l-.127 12.666Zm.127-14.423h3.067l.025-2.965H53.31l-.025 2.965ZM66.698 19.29c-.706.732-1.457 1.407-2.59 1.407-1.533 0-2.716-1.482-2.716-4.148 0-1.934.955-3.995 2.864-3.995 1.08 0 1.781.579 2.563 1.208l1.737-1.685c-1.132-1.26-2.564-2.138-4.422-2.138-3.772 0-5.955 3.392-5.955 6.884 0 3.067 1.883 6.484 5.503 6.484 2.01 0 3.493-.904 4.726-2.412l-1.71-1.61v.006ZM76.323 20.393c-.426.3-.878.604-1.406.604-.757 0-1.03-.503-1.03-1.33 0-.93 0-2.087.025-3.34l.076-3.722H76.8v-2.31l-2.812.05.101-4.523h-3.066l-.102 4.524-1.71-.051v2.31h1.71l-.076 3.868c-.025 1.107-.025 2.463-.025 3.041 0 2.691 1.33 3.793 3.442 3.793.376 0 1.107-.051 1.909-.503l1.03-.553-.878-1.858ZM77.445 16.625c0 3.595 1.935 6.687 6.057 6.687 3.818 0 6.056-3.092 6.056-6.687 0-3.594-2.035-6.686-6.056-6.686-3.721 0-6.057 3.341-6.057 6.686Zm3.067.102c0-1.757.705-4.32 2.99-4.32 2.061 0 2.99 1.685 2.99 4.32 0 1.762-.777 4.122-2.99 4.122-2.214 0-2.99-2.589-2.99-4.122ZM91.39 22.956h3.092l.076-7.838c.63-1.33 1.483-2.214 2.666-2.214.228 0 .477.051.73.102l.504-2.94a3.694 3.694 0 0 0-.904-.127c-1.559.051-2.335 1.26-2.94 2.716l-.025-.05v-2.31h-3.066l-.127 12.666-.005-.005ZM119.151 19.413c-1.056.604-2.163 1.132-4.371 1.132-3.244 0-5.529-3.067-5.529-6.382 0-3.315 2.239-6.183 5.63-6.183 1.381 0 3.117.578 4.173 1.482l1.407-2.239c-1.584-1.33-3.62-2.01-5.681-2.01-5.179 0-8.895 3.747-8.895 9.097 0 5.351 3.843 8.996 9.022 8.996 1.959 0 3.919-.553 5.528-1.685l-1.279-2.213-.005.005ZM121.988 22.956h3.067l.05-8.595c.777-.756 1.833-1.66 2.788-1.66 1.284 0 1.66.731 1.66 1.711 0 .98-.026 3.417-.051 5.376l-.026 3.168h3.067l.076-6.356c0-.802.025-1.584.025-2.838 0-1.96-.705-3.817-3.365-3.817-1.686 0-3.118.776-4.097 1.883h-.051l.051-7.717h-3.067l-.127 18.85v-.005ZM136.615 14.14c1.909-1.483 2.665-1.737 3.29-1.737.853 0 1.457.274 1.457 1.685v.828c-5.478.903-6.783 2.665-6.783 4.7 0 2.26 1.533 3.697 3.792 3.697 1.209 0 2.336-.63 3.244-1.686.229 1.056 1.107 1.686 2.189 1.686.578 0 1.304-.152 2.639-1.03l-.731-1.534c-.528.249-.751.325-.903.325-.325 0-.681-.503-.681-1.208 0-.528.026-1.006.051-1.584l.102-3.645c.025-.325.025-.604.025-1.056 0-2.463-1.736-3.645-3.62-3.645-1.355 0-2.766.3-5.528 2.563l1.457 1.635v.005Zm4.676 5.68c-.731.777-1.559 1.183-2.189 1.183-.954 0-1.609-.553-1.609-1.483 0-1.284.929-1.985 3.843-2.64l-.051 2.94h.006ZM147.52 22.957h3.066l.051-8.595c.776-.756 1.832-1.66 2.787-1.66 1.284 0 1.66.553 1.66 2.112 0 1.558-.025 3.015-.051 4.975l-.025 3.168h3.066l.076-6.356c0-.802.026-1.584.026-2.838 0-1.96-.706-3.818-3.366-3.818-1.686 0-3.117.777-4.097 1.884h-.051v-1.533h-3.016l-.126 12.666v-.005ZM173.127 12.376v-1.96l-4.097.077c-.756-.3-1.381-.554-2.813-.554-2.614 0-4.899 1.584-4.899 4.3 0 1.234.528 2.31 1.737 2.965-2.112 1.33-2.965 1.884-2.965 2.99 0 1.234 1.558 1.508 2.716 1.762v.05c-1.33.681-2.716 1.483-2.716 3.316 0 1.833 1.685 3.721 5.731 3.721 3.194 0 6.91-1.736 6.91-5.203 0-3.143-2.99-3.519-5.828-3.772-2.838-.25-3.62-.35-3.62-.904 0-.452.63-.802 1.107-1.158.477.153 1.279.325 2.31.325 2.411 0 4.675-1.482 4.675-4.097 0-.73-.253-1.406-.731-1.934l2.488.076h-.005ZM162.699 24.89c0-1.208 1.234-1.883 2.214-2.487 4.396.528 4.899.68 4.899 2.01 0 1.33-1.559 2.666-3.747 2.666-1.33 0-3.366-.554-3.366-2.189Zm3.767-12.99c1.234 0 1.985 1.004 1.985 2.213 0 1.33-.68 2.264-2.061 2.264-1.457 0-2.163-1.03-2.163-2.137 0-1.381.828-2.336 2.239-2.336V11.9ZM44.548 27.658c-.73-.39-1.452-.61-2.345-.61-2.239 0-4.006 1.615-4.006 3.93 0 2.468 1.767 3.93 4.006 3.93.797 0 1.634-.315 2.315-.711l-.37-.665c-.59.34-1.28.589-1.945.589-1.757 0-3-1.396-3-3.143 0-1.746 1.243-3.142 3-3.142.73 0 1.365.152 1.954.568l.391-.74v-.006ZM50.163 34.065c-.143.096-.275.188-.457.188-.34 0-.391-.38-.391-.777 0-.96.086-1.909.086-2.934 0-.843-.457-1.376-1.366-1.376-.786 0-1.137.198-2.228.904l.36.568c.797-.599 1.148-.751 1.574-.751.579 0 .828.35.828.817 0 .229-.01.457-.02.686-1.189.045-3.179.406-3.179 1.944 0 .919.61 1.574 1.574 1.574.7 0 1.223-.391 1.635-.904.045.457.314.904.807.904.38 0 .71-.153 1.015-.391l-.238-.447v-.005Zm-1.66-.61c-.34.417-.752.798-1.29.798-.6 0-.97-.315-.97-.93 0-.928.787-1.212 2.305-1.405l-.046 1.538ZM51.219 34.756h.873l.046-3.569c.467-.873 1.046-1.167 1.406-1.167.122 0 .249.03.34.056l.264-.828a1.36 1.36 0 0 0-.467-.076c-.787 0-1.32.741-1.508 1.233l-.02-.02.01-1.06h-.893l-.046 5.436-.005-.005ZM58.225 29.875h-.02c-.209-.38-.752-.71-1.397-.71-1.233 0-2.457 1.254-2.457 2.903 0 2.138 1.254 2.838 2.183 2.838.762 0 1.406-.416 1.66-.883h.02l-.02.731h.883l.087-8.184h-.894l-.045 3.305Zm-.02 3.305c-.209.457-.777 1.005-1.473 1.005-.741 0-1.442-.675-1.442-2.152 0-1.081.655-2.153 1.625-2.153.523 0 .95.229 1.32.874l-.03 2.421v.005ZM60.722 34.754h.873l.046-5.437h-.873l-.046 5.437Zm0-6.57h.94v-.979h-.94v.98ZM67.632 34.065c-.142.096-.274.188-.457.188-.34 0-.391-.38-.391-.777 0-.96.086-1.909.086-2.934 0-.843-.457-1.376-1.365-1.376-.787 0-1.137.198-2.229.904l.36.568c.797-.599 1.148-.751 1.574-.751.579 0 .828.35.828.817 0 .229-.01.457-.02.686-1.189.045-3.179.406-3.179 1.944 0 .919.61 1.574 1.574 1.574.7 0 1.224-.391 1.635-.904.046.457.315.904.807.904.38 0 .71-.153 1.015-.391l-.238-.447v-.005Zm-1.66-.61c-.34.417-.752.798-1.29.798-.599 0-.97-.315-.97-.93 0-.928.787-1.212 2.305-1.405l-.045 1.538ZM72.617 30.07c-.426-.544-1.071-.904-1.777-.904-1.482 0-2.543 1.376-2.543 2.868 0 1.803 1.06 2.869 2.411 2.869.742 0 1.31-.285 1.833-.904l-.447-.513c-.264.35-.766.7-1.233.7-.843 0-1.625-.76-1.625-1.984 0-1.528.828-2.315 1.635-2.315.447 0 .843.218 1.178.634l.568-.446v-.005ZM76.653 34.755h.95l.046-3.228h.599c.72 0 .939.436 1.406 1.035l1.777 2.422.827-.503-1.518-2.01c-.314-.391-.74-1.071-1.243-1.168v-.02c1.06-.142 1.898-.863 1.898-2.097 0-1.233-.97-1.985-2.401-1.985h-2.28l-.066 7.554h.005Zm1.006-6.899h1.122c1.223 0 1.68.71 1.68 1.518 0 1.102-.96 1.432-1.888 1.432h-.94l.02-2.945.006-.005ZM87.426 31.918v-.172c0-1.462-.635-2.574-2.097-2.574s-2.487 1.376-2.487 2.868c0 1.777.873 2.869 2.38 2.869.808 0 1.519-.417 2.072-.97l-.426-.467c-.467.426-.93.787-1.549.787-1.112 0-1.538-1.016-1.538-2.153v-.188h3.645Zm-3.569-.588c.142-.742.665-1.508 1.483-1.508.883 0 1.213.73 1.213 1.508h-2.696ZM88.223 34.369c.493.315 1.071.533 1.7.533.894 0 1.803-.61 1.803-1.65 0-1.843-2.523-1.366-2.523-2.533 0-.645.467-.904 1.102-.904.38 0 .72.188 1.035.36l.406-.558c-.406-.274-.97-.457-1.584-.457-.995 0-1.832.6-1.832 1.625 0 1.822 2.523 1.233 2.523 2.589 0 .61-.579.873-1.061.873s-.894-.249-1.198-.457l-.37.579ZM97.128 31.918v-.172c0-1.462-.635-2.574-2.097-2.574s-2.488 1.376-2.488 2.868c0 1.777.874 2.869 2.381 2.869.808 0 1.518-.417 2.072-.97l-.427-.467c-.467.426-.929.787-1.548.787-1.112 0-1.538-1.016-1.538-2.153v-.188h3.645Zm-3.57-.588c.143-.742.666-1.508 1.483-1.508.884 0 1.214.73 1.214 1.508h-2.696ZM102.793 34.065c-.142.096-.274.188-.456.188-.341 0-.391-.38-.391-.777 0-.96.086-1.909.086-2.934 0-.843-.457-1.376-1.366-1.376-.787 0-1.137.198-2.228.904l.36.568c.797-.599 1.147-.751 1.574-.751.579 0 .827.35.827.817 0 .229-.01.457-.02.686-1.188.045-3.178.406-3.178 1.944 0 .919.61 1.574 1.574 1.574.7 0 1.223-.391 1.634-.904.046.457.315.904.808.904.38 0 .71-.153 1.015-.391l-.239-.447v-.005Zm-1.66-.61c-.34.417-.751.798-1.29.798-.598 0-.969-.315-.969-.93 0-.928.787-1.212 2.305-1.405l-.046 1.538ZM103.849 34.756h.873l.046-3.569c.467-.873 1.046-1.167 1.406-1.167.122 0 .249.03.34.056l.264-.828a1.356 1.356 0 0 0-.467-.076c-.787 0-1.32.741-1.507 1.233l-.021-.02.01-1.06h-.893l-.046 5.436-.005-.005ZM111.302 30.07c-.426-.544-1.071-.904-1.777-.904-1.482 0-2.543 1.376-2.543 2.868 0 1.803 1.061 2.869 2.411 2.869.742 0 1.31-.285 1.833-.904l-.447-.513c-.264.35-.766.7-1.233.7-.843 0-1.625-.76-1.625-1.984 0-1.528.828-2.315 1.635-2.315.447 0 .843.218 1.178.634l.568-.446v-.005ZM112.216 34.755h.873l.046-3.798c.558-.675 1.061-1.005 1.624-1.005.599 0 .995.274.995.863 0 .533-.01 1.016-.01 1.498l-.02 2.447h.873l.02-2.696c0-.416.011-.827.011-1.244 0-1.005-.407-1.65-1.661-1.65-.644 0-1.386.371-1.822 1.006h-.02l.045-3.6h-.903l-.046 8.184-.005-.005ZM121.501 34.755h.94l.066-7.554h-.94l-.066 7.554ZM124.35 34.756h.873l.046-3.797c.558-.675 1.061-1.005 1.624-1.005.599 0 .995.274.995.863 0 .533-.01 1.015-.01 1.497l-.02 2.447h.873l.02-2.695c0-.417.01-.828.01-1.244 0-1.005-.406-1.65-1.66-1.65-.645 0-1.386.37-1.843 1.025h-.02l.031-.873h-.874l-.045 5.437v-.005ZM129.949 34.369c.493.315 1.071.533 1.701.533.893 0 1.802-.61 1.802-1.65 0-1.843-2.523-1.366-2.523-2.533 0-.645.467-.904 1.102-.904.38 0 .721.188 1.035.36l.406-.558c-.406-.274-.969-.457-1.583-.457-.996 0-1.833.6-1.833 1.625 0 1.822 2.523 1.233 2.523 2.589 0 .61-.579.873-1.061.873s-.894-.249-1.198-.457l-.371.579ZM134.072 29.317v.655h.929l-.02 1.985c-.011.752-.011 1.198-.011 1.559 0 .863.325 1.386 1.168 1.386.482 0 1.005-.229 1.366-.467l-.285-.569c-.208.132-.578.315-.873.315-.37 0-.502-.249-.502-.7 0-.275 0-.676.01-1.29l.02-2.229h1.498v-.655h-1.483l.021-2.01h-.874l-.02 2.01h-.939l-.005.01ZM138.204 34.754h.873l.046-5.437h-.873l-.046 5.437Zm0-6.57h.939v-.979h-.939v.98ZM140.123 29.317v.655h.929l-.02 1.985c-.01.752-.01 1.198-.01 1.559 0 .863.325 1.386 1.167 1.386.483 0 1.005-.229 1.366-.467l-.284-.569c-.209.132-.579.315-.874.315-.37 0-.502-.249-.502-.7 0-.275 0-.676.01-1.29l.02-2.229h1.498v-.655h-1.482l.02-2.01h-.873l-.021 2.01h-.939l-.005.01ZM144.367 32.013c0 .417-.01.828-.01 1.244 0 1.005.406 1.65 1.66 1.65.645 0 1.386-.37 1.843-1.025h.02l-.03.873h.873l.046-5.437h-.874l-.045 3.797c-.559.675-1.061 1.005-1.625 1.005-.599 0-.995-.274-.995-.863 0-.533.01-1.015.01-1.497l.021-2.448h-.874l-.02 2.696v.005ZM149.825 29.317v.655h.929l-.021 1.985c-.01.752-.01 1.198-.01 1.559 0 .863.325 1.386 1.168 1.386.482 0 1.005-.229 1.366-.467l-.285-.569c-.208.132-.578.315-.873.315-.371 0-.503-.249-.503-.7 0-.275 0-.676.011-1.29l.02-2.229h1.498v-.655h-1.483l.02-2.01h-.873l-.02 2.01h-.939l-.005.01ZM158.237 31.918v-.172c0-1.462-.635-2.574-2.097-2.574s-2.488 1.376-2.488 2.868c0 1.777.874 2.869 2.381 2.869.808 0 1.518-.417 2.072-.97l-.427-.467c-.467.426-.929.787-1.548.787-1.112 0-1.538-1.016-1.538-2.153v-.188h3.645Zm-3.569-.588c.142-.742.665-1.508 1.482-1.508.883 0 1.213.73 1.213 1.508h-2.695Z"/><path fill-rule="evenodd" d="M24.622 26.099c-.25 0-1.254.376-1.325.437-.137-.427-1.336-.61-1.701-.61-.218 0-1.381.173-1.6.173-.218 0-.776-.777-.994-.777-.229 0-.412.26-.934.27-.188.451-.798 1.03-.798 1.243 0 .213.117.213.117.213.208-.086.315-.172.533-.172.498 0 .772.964 1.143 1.203.025-.127.066-.168.182-.183.01-.203-.248-.29-.248-.508 0-.218.076-.187.147-.264.07 0-.015.178.198.173h.238c.102-.193.183-.355.254-.431 1.366 0 1.544.091 1.716.091 1.295-.076 1.899-.173 2.117-.173.193 0 1.168.605 1.168.605.218 0 .203-.01.3-.112v-.7c0-.118-.204-.488-.518-.488l.005.01Z" clip-rule="evenodd"/><path fill-rule="evenodd" d="M19.784 27.958c0 .117 2.05.995 2.335.995.03 0 .99-.411 1.122-.665-.741-.198-2.254-.716-2.98-.716-.28 0-.477.219-.477.391v-.005Z" clip-rule="evenodd"/><path fill-rule="evenodd" d="M29.206 16.205c0-.68-.782-.71-1.381-1.3.38-.588.604-.533.604-.903 0-.488-1.64-1.34-1.64-3.6V9.214C26.784 4.716 20.616.204 16.86.01c-.015.117-.457-.01-.67-.01h-1.914c-.508.01-1.696.152-1.696.152C5.716.152 1.801 7.27 1.801 12.565v1.66c.122.523.432 1.356.432 1.94 0 .218-.173.822-.173 1.035 0 1.62 1.721 3.645 2.305 5.072.757 1.848 2.046 4.37 3.143 5.955v.233c-.67.6-.945 1.493-1.625 1.94-.873.573-5.467.985-5.467 2.142 0 .218.106.294.203.355 2.31.26 4.751 1.833 6.904 3.417 2.107 1.569 3.239 3.91 5.02 5.686h.554c.122-1.33-.32-2.305-.32-3.538 0-3.458 5.803-5.534 8.037-5.534.218 0 1.173.086 1.802-.015v-.493c-1.543-.056-2.985-1.193-4.132-2.076-.163-.117-1.077-1.91-1.214-1.91-.218 0-.736.174-.949.174-.213 0-.274.01-.345-.056v-.32c0-.218.37-.721.431-1.391.132-1.381.087-1.777.087-1.99 0-2.051-2.25-4.128-2.25-4.234 0-.219.077-.142.148-.219 1.883 0 2.163.087 2.35-.015v-.31c-.64-.167-.858-.32-.858-.791 0-.747-.35-1.559.645-1.559l2.584.345c.625 0 .614-.858 1.04-1.127.092.158.397 1.31.397 1.6 0 .218-.173.603-.173.822 0 .218.173.172.173.39 0 .031-1.38 1.99-1.38 2.595 0 .528.766 1.254 1.35 1.249h.268c.102-.193.153-.432.366-.432.173 0 .823.346 1.122.346.452 0 .68.06 1.208-.457v-.295c-.269-.274-.73-.63-.944-.63-.213 0-1.081.346-1.294.346-.214 0-.102.01-.178-.061 0-.244-.082-.589-.082-.802 0-.213.133-.26.346-.26.213 0 .431.26.65.26.218 0 .208-.102.208-.102.096-.36.182-.893.182-1.107 0-.41-.517-.746-.517-1.035 0-.218.248-.36.426-.543v-1.473c.163-.157.305-.406.523-.406.218 0 .457.081.61.152-.006.153-.265.325-.265.539 0 .213.604.995.604 1.208 0 .213 0 .477.016.767l.497-.097c-.167-.899-.34-1.797-.34-2.01 0-.214.081-.325.147-.483h.218c.224.467.036 1.127.716 1.127.219 0 .203-.01.3-.111v-.295c-.462-.553-.6-.33-.6-.807 0-.218.077-.274.143-.35h.31c.436.705.487.954 1.015.954.345 0 .31-.076.833-.609.045.01 1.325.173 1.325.782 0 .898-.219 1.132-.95 2.122a.389.389 0 0 0 .213.127c.427-.132 1.432-1.762 1.427-1.868v-1.128a1.439 1.439 0 0 0-.259-.233c.147-.056.432-.31.432-.528h.01Zm-10.763-.477c-.431 0-.944.086-1.39.172 0 0-.082-.086-.21-.111.696-.92.722-1.36 1.727-1.36.624 0 1.437.319 1.721 1.273-.37.107-.817.02-1.853.02l.005.006Zm10.006.944c-2.325-.645-.939-.772-2.574-.772-.756 0-1.99.863-2.29.863-.553 0-.238-.172-1.106-.182-.101-.37-.447-.94-.447-1.158 0-.218.26-.518.26-.736 0-1.62-4.321-1.62-4.321-2.335 0-1.158 1.736-1.03 2.249-1.35-.741-1.224-2.325-2.722-3.107-3.91h.807c.218-.01 2.087.422 2.3.422.213 0 1.731-.173 1.944-.173.214 0 1.513.173 1.731.173.219 0 .691-.173.91-.173 1.207 0 1.639 4.58 1.639 5.143 0 .218-.107.294-.203.355-1.132.076-3.082 1.894-3.082 2.371 0 .325.26.604.432.604.03 0 1.569-1.38 2.548-1.38.26 0 .503.1.803.02v.654c-.325-.162-.701-.208-.848-.015 0 .071.076.213.147.29h1.183c.355 0 1.157.634 1.025 1.29Z" clip-rule="evenodd"/></g><defs><clipPath id="a"><path fill="#fff" d="M.42 0h172.706v42H.42z"/></clipPath></defs></svg>
