<svg width="100%" height="100%" fill="none" xmlns="http://www.w3.org/2000/svg">
<g clip-path="url(#clip0_546_59888)">
<path d="M42.3754 22.9562H45.391L52.0263 6.24347L48.9092 5.21289L43.9086 18.8846H43.8578L39.4106 5.21289L36.1665 6.24347L42.3754 22.9562Z" fill="#9F9FA9"/>
<path d="M53.1582 22.9562H56.2246L56.3515 10.2897H53.2851L53.1582 22.9562ZM53.2851 8.53318H56.3515L56.3769 5.56836H53.3105L53.2851 8.53318Z" fill="#9F9FA9"/>
<path d="M66.6975 19.2908C65.9918 20.0219 65.2405 20.6971 64.1084 20.6971C62.5752 20.6971 61.3923 19.2147 61.3923 16.5494C61.3923 14.6151 62.3467 12.554 64.2556 12.554C65.3369 12.554 66.0375 13.1327 66.8193 13.7623L68.5556 12.0768C67.4235 10.8177 65.9918 9.93945 64.1337 9.93945C60.3617 9.93945 58.1787 13.3307 58.1787 16.8235C58.1787 19.8899 60.0622 23.3066 63.6819 23.3066C65.6923 23.3066 67.1747 22.4029 68.4084 20.8951L66.6975 19.2858V19.2908Z" fill="#9F9FA9"/>
<path d="M76.323 20.3926C75.8965 20.6921 75.4447 20.9967 74.9167 20.9967C74.1603 20.9967 73.8861 20.4941 73.8861 19.6666C73.8861 18.7375 73.8861 17.58 73.9115 16.3261L73.9877 12.6048H76.8002V10.2949L73.9877 10.3457L74.0892 5.82227H71.0229L70.9213 10.3457L69.2104 10.2949V12.6048H70.9213L70.8452 16.4733C70.8198 17.58 70.8198 18.9355 70.8198 19.5143C70.8198 22.205 72.1499 23.3066 74.2618 23.3066C74.6375 23.3066 75.3686 23.2558 76.1707 22.804L77.2013 22.2506L76.323 20.3926Z" fill="#9F9FA9"/>
<path d="M77.4453 16.6255C77.4453 20.2199 79.3796 23.3116 83.5019 23.3116C87.3196 23.3116 89.5585 20.2199 89.5585 16.6255C89.5585 13.0312 87.5227 9.93945 83.5019 9.93945C79.7806 9.93945 77.4453 13.28 77.4453 16.6255ZM80.5117 16.7271C80.5117 14.9705 81.2173 12.4068 83.5019 12.4068C85.563 12.4068 86.4921 14.0922 86.4921 16.7271C86.4921 18.4887 85.7153 20.8494 83.5019 20.8494C81.2884 20.8494 80.5117 18.2603 80.5117 16.7271Z" fill="#9F9FA9"/>
<path d="M91.3906 22.9563H94.4824L94.5585 15.1177C95.188 13.7876 96.0409 12.9043 97.2238 12.9043C97.4523 12.9043 97.701 12.955 97.9549 13.0058L98.4575 10.0664C98.1579 9.99022 97.8533 9.93945 97.5538 9.93945C95.9952 9.99022 95.2185 11.1985 94.6144 12.6555L94.589 12.6047V10.2948H91.5226L91.3957 22.9613L91.3906 22.9563Z" fill="#9F9FA9"/>
<path d="M119.151 19.4126C118.095 20.0167 116.988 20.5447 114.78 20.5447C111.536 20.5447 109.251 17.4783 109.251 14.1632C109.251 10.8481 111.49 7.97972 114.881 7.97972C116.262 7.97972 117.998 8.55847 119.054 9.46213L120.461 7.22329C118.877 5.89318 116.841 5.21289 114.78 5.21289C109.601 5.21289 105.885 8.95954 105.885 14.3104C105.885 19.6613 109.728 23.3064 114.907 23.3064C116.866 23.3064 118.826 22.7531 120.435 21.621L119.156 19.4075L119.151 19.4126Z" fill="#9F9FA9"/>
<path d="M121.988 22.9562H125.055L125.105 14.3613C125.882 13.6049 126.938 12.7012 127.893 12.7012C129.177 12.7012 129.553 13.4323 129.553 14.4121C129.553 15.3919 129.527 17.8287 129.502 19.7884L129.476 22.9562H132.543L132.619 16.6001C132.619 15.798 132.644 15.0162 132.644 13.7622C132.644 11.8026 131.939 9.94452 129.279 9.94452C127.593 9.94452 126.161 10.7213 125.182 11.828H125.131L125.182 4.11133H122.115L121.988 22.9613V22.9562Z" fill="#9F9FA9"/>
<path d="M136.615 14.1391C138.524 12.6567 139.28 12.4029 139.905 12.4029C140.758 12.4029 141.362 12.677 141.362 14.0883V14.9158C135.884 15.8195 134.579 17.5811 134.579 19.6169C134.579 21.8761 136.112 23.3128 138.371 23.3128C139.58 23.3128 140.707 22.6833 141.615 21.6273C141.844 22.6833 142.722 23.3128 143.804 23.3128C144.382 23.3128 145.108 23.1605 146.443 22.2822L145.712 20.749C145.184 20.9978 144.961 21.0739 144.809 21.0739C144.484 21.0739 144.128 20.5714 144.128 19.8657C144.128 19.3377 144.154 18.8605 144.179 18.2817L144.281 14.6366C144.306 14.3117 144.306 14.0325 144.306 13.5807C144.306 11.1184 142.57 9.93555 140.686 9.93555C139.331 9.93555 137.92 10.2351 135.158 12.4993L136.615 14.134V14.1391ZM141.291 19.82C140.56 20.5967 139.732 21.0029 139.102 21.0029C138.148 21.0029 137.493 20.4495 137.493 19.5205C137.493 18.236 138.422 17.5354 141.336 16.8805L141.285 19.82H141.291Z" fill="#9F9FA9"/>
<path d="M147.52 22.957H150.586L150.637 14.3621C151.413 13.6057 152.469 12.702 153.424 12.702C154.708 12.702 155.084 13.2554 155.084 14.8139C155.084 16.3725 155.059 17.8295 155.033 19.7891L155.008 22.957H158.074L158.15 16.6009C158.15 15.7988 158.176 15.017 158.176 13.763C158.176 11.8034 157.47 9.94531 154.81 9.94531C153.124 9.94531 151.693 10.7221 150.713 11.8288H150.662V10.2956H147.646L147.52 22.9621V22.957Z" fill="#9F9FA9"/>
<path d="M173.127 12.3763V10.4167L169.03 10.4928C168.274 10.1933 167.649 9.93945 166.217 9.93945C163.603 9.93945 161.318 11.5234 161.318 14.2395C161.318 15.4731 161.846 16.5494 163.055 17.2043C160.943 18.5344 160.09 19.0878 160.09 20.1945C160.09 21.4282 161.648 21.7023 162.806 21.9561V22.0069C161.476 22.6872 160.09 23.4893 160.09 25.322C160.09 27.1547 161.775 29.0433 165.821 29.0433C169.015 29.0433 172.731 27.307 172.731 23.8396C172.731 20.6971 169.741 20.3214 166.903 20.0676C164.065 19.8188 163.283 19.7173 163.283 19.1639C163.283 18.7121 163.913 18.3618 164.39 18.0064C164.867 18.1587 165.669 18.3313 166.7 18.3313C169.111 18.3313 171.375 16.8489 171.375 14.2344C171.375 13.5033 171.122 12.8281 170.644 12.3001L173.132 12.3763H173.127ZM162.699 24.8905C162.699 23.6822 163.933 23.007 164.913 22.4029C169.309 22.9309 169.812 23.0832 169.812 24.4133C169.812 25.7434 168.253 27.0786 166.065 27.0786C164.735 27.0786 162.699 26.5252 162.699 24.8905ZM166.466 11.8991C167.7 11.8991 168.451 12.9043 168.451 14.1125C168.451 15.4427 167.771 16.3768 166.39 16.3768C164.933 16.3768 164.227 15.3462 164.227 14.2395C164.227 12.8586 165.055 11.9042 166.466 11.9042V11.8991Z" fill="#9F9FA9"/>
<path d="M44.5483 27.658C43.8172 27.2671 43.0963 27.0488 42.2028 27.0488C39.964 27.0488 38.1973 28.6632 38.1973 30.9782C38.1973 33.4455 39.964 34.9076 42.2028 34.9076C42.9999 34.9076 43.8375 34.5929 44.5178 34.1969L44.1472 33.5318C43.5583 33.872 42.8679 34.1207 42.2028 34.1207C40.4463 34.1207 39.2025 32.7246 39.2025 30.9782C39.2025 29.2318 40.4463 27.8357 42.2028 27.8357C42.9339 27.8357 43.5685 27.988 44.1574 28.4043L44.5483 27.6631V27.658Z" fill="#9F9FA9"/>
<path d="M50.1626 34.0651C50.0204 34.1615 49.8884 34.2529 49.7057 34.2529C49.3655 34.2529 49.3148 33.8722 49.3148 33.4762C49.3148 32.5167 49.4011 31.5673 49.4011 30.5418C49.4011 29.6991 48.9442 29.166 48.0354 29.166C47.2485 29.166 46.8982 29.364 45.8067 30.0697L46.1672 30.6383C46.9642 30.0392 47.3145 29.8869 47.741 29.8869C48.3197 29.8869 48.5685 30.2372 48.5685 30.7043C48.5685 30.9327 48.5583 31.1612 48.5482 31.3896C47.3602 31.4353 45.3701 31.7958 45.3701 33.334C45.3701 34.2529 45.9793 34.9078 46.9439 34.9078C47.6445 34.9078 48.1674 34.5169 48.5786 34.0042C48.6243 34.4611 48.8934 34.9078 49.3858 34.9078C49.7666 34.9078 50.0966 34.7555 50.4012 34.5169L50.1626 34.0702V34.0651ZM48.5025 33.4559C48.1623 33.8722 47.7511 34.2529 47.213 34.2529C46.6139 34.2529 46.2433 33.9382 46.2433 33.3239C46.2433 32.3948 47.0302 32.1105 48.5482 31.9176L48.5025 33.4559Z" fill="#9F9FA9"/>
<path d="M51.2188 34.7563H52.092L52.1376 31.1873C52.6047 30.3141 53.1835 30.0197 53.5439 30.0197C53.6657 30.0197 53.7927 30.0502 53.884 30.0755L54.148 29.248C54.0262 29.2023 53.8637 29.1719 53.681 29.1719C52.8941 29.1719 52.361 29.9131 52.1732 30.4055L52.1529 30.3852L52.163 29.3242H51.2695L51.2238 34.7614L51.2188 34.7563Z" fill="#9F9FA9"/>
<path d="M58.2246 29.8753H58.2043C57.9962 29.4945 57.453 29.1645 56.8082 29.1645C55.5746 29.1645 54.3511 30.4185 54.3511 32.0684C54.3511 34.2058 55.605 34.9063 56.5341 34.9063C57.2956 34.9063 57.9403 34.49 58.1942 34.023H58.2145L58.1942 34.754H59.0775L59.1638 26.5703H58.2703L58.2246 29.8753ZM58.2043 33.1802C57.9962 33.6372 57.4276 34.1854 56.7321 34.1854C55.9909 34.1854 55.2903 33.5102 55.2903 32.0329C55.2903 30.9516 55.9452 29.8804 56.9148 29.8804C57.4377 29.8804 57.8642 30.1088 58.2348 30.7536L58.2043 33.1752V33.1802Z" fill="#9F9FA9"/>
<path d="M60.7222 34.7542H61.5954L61.6411 29.317H60.7679L60.7222 34.7542ZM60.7222 28.1849H61.6614V27.2051H60.7222V28.1849Z" fill="#9F9FA9"/>
<path d="M67.6318 34.0651C67.4897 34.1615 67.3577 34.2529 67.1749 34.2529C66.8348 34.2529 66.784 33.8722 66.784 33.4762C66.784 32.5167 66.8703 31.5673 66.8703 30.5418C66.8703 29.6991 66.4134 29.166 65.5047 29.166C64.7178 29.166 64.3675 29.364 63.276 30.0697L63.6364 30.6383C64.4335 30.0392 64.7838 29.8869 65.2102 29.8869C65.789 29.8869 66.0377 30.2372 66.0377 30.7043C66.0377 30.9327 66.0276 31.1612 66.0174 31.3896C64.8294 31.4353 62.8394 31.7958 62.8394 33.334C62.8394 34.2529 63.4486 34.9078 64.4132 34.9078C65.1137 34.9078 65.6367 34.5169 66.0479 34.0042C66.0936 34.4611 66.3626 34.9078 66.8551 34.9078C67.2358 34.9078 67.5658 34.7555 67.8704 34.5169L67.6318 34.0702V34.0651ZM65.9717 33.4559C65.6316 33.8722 65.2204 34.2529 64.6822 34.2529C64.0832 34.2529 63.7126 33.9382 63.7126 33.3239C63.7126 32.3948 64.4995 32.1105 66.0174 31.9176L65.9717 33.4559Z" fill="#9F9FA9"/>
<path d="M72.6172 30.0697C72.1908 29.5265 71.546 29.166 70.8403 29.166C69.3579 29.166 68.2969 30.5418 68.2969 32.0344C68.2969 33.8366 69.3579 34.9027 70.7083 34.9027C71.4495 34.9027 72.0181 34.6185 72.541 33.9991L72.0943 33.4863C71.8303 33.8366 71.3277 34.1869 70.8606 34.1869C70.0179 34.1869 69.2361 33.4254 69.2361 32.2019C69.2361 30.6738 70.0636 29.8869 70.8708 29.8869C71.3175 29.8869 71.7135 30.1052 72.0486 30.5215L72.6172 30.0748V30.0697Z" fill="#9F9FA9"/>
<path d="M76.6535 34.7554H77.6029L77.6486 31.5266H78.2476C78.9685 31.5266 79.1868 31.9632 79.6539 32.5622L81.4307 34.9838L82.2583 34.4812L80.7403 32.4708C80.4256 32.0799 79.9991 31.3996 79.4965 31.3032V31.2829C80.5575 31.1407 81.3952 30.4198 81.3952 29.1862C81.3952 27.9525 80.4255 27.2012 78.9939 27.2012H76.7144L76.6484 34.7554H76.6535ZM77.6587 27.8561H78.7807C80.0042 27.8561 80.4611 28.5668 80.4611 29.374C80.4611 30.4757 79.5016 30.8057 78.5725 30.8057H77.6333L77.6536 27.8611L77.6587 27.8561Z" fill="#9F9FA9"/>
<path d="M87.4261 31.9184V31.7458C87.4261 30.2837 86.7915 29.1719 85.3294 29.1719C83.8673 29.1719 82.8418 30.5477 82.8418 32.0402C82.8418 33.8171 83.715 34.9086 85.2228 34.9086C86.03 34.9086 86.7407 34.4923 87.2941 33.9389L86.8677 33.4719C86.4006 33.8983 85.9386 34.2588 85.3192 34.2588C84.2074 34.2588 83.781 33.2434 83.781 32.1062V31.9184H87.4261ZM83.8571 31.3295C83.9993 30.5883 84.5222 29.8217 85.3396 29.8217C86.2229 29.8217 86.5529 30.5528 86.5529 31.3295H83.8571Z" fill="#9F9FA9"/>
<path d="M88.2231 34.3689C88.7156 34.6837 89.2943 34.902 89.9239 34.902C90.8174 34.902 91.7261 34.2928 91.7261 33.252C91.7261 31.4092 89.203 31.8864 89.203 30.7187C89.203 30.074 89.67 29.8151 90.3046 29.8151C90.6854 29.8151 91.0255 30.0029 91.3403 30.1755L91.7464 29.6171C91.3403 29.3429 90.7768 29.1602 90.1625 29.1602C89.1674 29.1602 88.3298 29.7592 88.3298 30.7847C88.3298 32.6073 90.8529 32.0184 90.8529 33.3739C90.8529 33.9831 90.2742 34.2471 89.7919 34.2471C89.3096 34.2471 88.8984 33.9983 88.5937 33.7902L88.2231 34.3689Z" fill="#9F9FA9"/>
<path d="M97.1278 31.9184V31.7458C97.1278 30.2837 96.4932 29.1719 95.0311 29.1719C93.569 29.1719 92.5435 30.5477 92.5435 32.0402C92.5435 33.8171 93.4167 34.9086 94.9244 34.9086C95.7317 34.9086 96.4424 34.4923 96.9958 33.9389L96.5693 33.4719C96.1023 33.8983 95.6403 34.2588 95.0209 34.2588C93.9091 34.2588 93.4827 33.2434 93.4827 32.1062V31.9184H97.1278ZM93.5588 31.3295C93.701 30.5883 94.2239 29.8217 95.0412 29.8217C95.9246 29.8217 96.2546 30.5528 96.2546 31.3295H93.5588Z" fill="#9F9FA9"/>
<path d="M102.793 34.0651C102.651 34.1615 102.519 34.2529 102.337 34.2529C101.996 34.2529 101.946 33.8722 101.946 33.4762C101.946 32.5167 102.032 31.5673 102.032 30.5418C102.032 29.6991 101.575 29.166 100.666 29.166C99.8794 29.166 99.5291 29.364 98.4376 30.0697L98.798 30.6383C99.5951 30.0392 99.9454 29.8869 100.372 29.8869C100.951 29.8869 101.199 30.2372 101.199 30.7043C101.199 30.9327 101.189 31.1612 101.179 31.3896C99.9911 31.4353 98.001 31.7958 98.001 33.334C98.001 34.2529 98.6102 34.9078 99.5748 34.9078C100.275 34.9078 100.798 34.5169 101.209 34.0042C101.255 34.4611 101.524 34.9078 102.017 34.9078C102.397 34.9078 102.727 34.7555 103.032 34.5169L102.793 34.0702V34.0651ZM101.133 33.4559C100.793 33.8722 100.382 34.2529 99.8438 34.2529C99.2448 34.2529 98.8742 33.9382 98.8742 33.3239C98.8742 32.3948 99.6611 32.1105 101.179 31.9176L101.133 33.4559Z" fill="#9F9FA9"/>
<path d="M103.849 34.7563H104.722L104.768 31.1873C105.235 30.3141 105.814 30.0197 106.174 30.0197C106.296 30.0197 106.423 30.0502 106.514 30.0755L106.778 29.248C106.657 29.2023 106.494 29.1719 106.311 29.1719C105.524 29.1719 104.991 29.9131 104.804 30.4055L104.783 30.3852L104.793 29.3242H103.9L103.854 34.7614L103.849 34.7563Z" fill="#9F9FA9"/>
<path d="M111.302 30.0697C110.876 29.5265 110.231 29.166 109.525 29.166C108.043 29.166 106.982 30.5418 106.982 32.0344C106.982 33.8366 108.043 34.9027 109.393 34.9027C110.135 34.9027 110.703 34.6185 111.226 33.9991L110.779 33.4863C110.515 33.8366 110.013 34.1869 109.546 34.1869C108.703 34.1869 107.921 33.4254 107.921 32.2019C107.921 30.6738 108.749 29.8869 109.556 29.8869C110.003 29.8869 110.399 30.1052 110.734 30.5215L111.302 30.0748V30.0697Z" fill="#9F9FA9"/>
<path d="M112.216 34.7548H113.089L113.135 30.9574C113.693 30.2822 114.196 29.9522 114.759 29.9522C115.358 29.9522 115.754 30.2264 115.754 30.8153C115.754 31.3483 115.744 31.8306 115.744 32.3129L115.724 34.7599H116.597L116.617 32.0641C116.617 31.6479 116.628 31.2366 116.628 30.8203C116.628 29.8151 116.221 29.1704 114.967 29.1704C114.323 29.1704 113.581 29.541 113.145 30.1756H113.125L113.17 26.5762H112.267L112.221 34.7599L112.216 34.7548Z" fill="#9F9FA9"/>
<path d="M121.501 34.7554H122.441L122.507 27.2012H121.567L121.501 34.7554Z" fill="#9F9FA9"/>
<path d="M124.35 34.7563H125.223L125.269 30.9589C125.827 30.2837 126.33 29.9537 126.893 29.9537C127.492 29.9537 127.888 30.2278 127.888 30.8167C127.888 31.3498 127.878 31.8321 127.878 32.3144L127.858 34.7614H128.731L128.751 32.0656C128.751 31.6493 128.761 31.2381 128.761 30.8218C128.761 29.8166 128.355 29.1719 127.101 29.1719C126.456 29.1719 125.715 29.5425 125.258 30.1974H125.238L125.269 29.3242H124.395L124.35 34.7614V34.7563Z" fill="#9F9FA9"/>
<path d="M129.949 34.3689C130.442 34.6837 131.02 34.902 131.65 34.902C132.543 34.902 133.452 34.2928 133.452 33.252C133.452 31.4092 130.929 31.8864 130.929 30.7187C130.929 30.074 131.396 29.8151 132.031 29.8151C132.411 29.8151 132.752 30.0029 133.066 30.1755L133.472 29.6171C133.066 29.3429 132.503 29.1602 131.889 29.1602C130.893 29.1602 130.056 29.7592 130.056 30.7847C130.056 32.6073 132.579 32.0184 132.579 33.3739C132.579 33.9831 132 34.2471 131.518 34.2471C131.036 34.2471 130.624 33.9983 130.32 33.7902L129.949 34.3689Z" fill="#9F9FA9"/>
<path d="M134.072 29.3174V29.9723H135.001L134.981 31.9573C134.97 32.7087 134.97 33.1554 134.97 33.5159C134.97 34.3789 135.295 34.9019 136.138 34.9019C136.62 34.9019 137.143 34.6734 137.504 34.4348L137.219 33.8662C137.011 33.9982 136.641 34.181 136.346 34.181C135.976 34.181 135.844 33.9322 135.844 33.4804C135.844 33.2062 135.844 32.8052 135.854 32.1909L135.874 29.9622H137.372V29.3073H135.889L135.91 27.2969H135.036L135.016 29.3073H134.077L134.072 29.3174Z" fill="#9F9FA9"/>
<path d="M138.204 34.7542H139.077L139.123 29.317H138.25L138.204 34.7542ZM138.204 28.1849H139.143V27.2051H138.204V28.1849Z" fill="#9F9FA9"/>
<path d="M140.123 29.3174V29.9723H141.052L141.032 31.9573C141.022 32.7087 141.022 33.1554 141.022 33.5159C141.022 34.3789 141.347 34.9019 142.189 34.9019C142.672 34.9019 143.194 34.6734 143.555 34.4348L143.271 33.8662C143.062 33.9982 142.692 34.181 142.397 34.181C142.027 34.181 141.895 33.9322 141.895 33.4804C141.895 33.2062 141.895 32.8052 141.905 32.1909L141.925 29.9622H143.423V29.3073H141.941L141.961 27.2969H141.088L141.067 29.3073H140.128L140.123 29.3174Z" fill="#9F9FA9"/>
<path d="M144.367 32.0133C144.367 32.4296 144.357 32.8408 144.357 33.2571C144.357 34.2623 144.763 34.9071 146.017 34.9071C146.662 34.9071 147.403 34.5365 147.86 33.8816H147.88L147.85 34.7548H148.723L148.769 29.3176H147.895L147.85 33.115C147.291 33.7902 146.789 34.1202 146.225 34.1202C145.626 34.1202 145.23 33.846 145.23 33.2571C145.23 32.7241 145.24 32.2418 145.24 31.7595L145.261 29.3125H144.387L144.367 32.0083V32.0133Z" fill="#9F9FA9"/>
<path d="M149.825 29.3174V29.9723H150.754L150.733 31.9573C150.723 32.7087 150.723 33.1554 150.723 33.5159C150.723 34.3789 151.048 34.9019 151.891 34.9019C152.373 34.9019 152.896 34.6734 153.257 34.4348L152.972 33.8662C152.764 33.9982 152.394 34.181 152.099 34.181C151.728 34.181 151.596 33.9322 151.596 33.4804C151.596 33.2062 151.596 32.8052 151.607 32.1909L151.627 29.9622H153.125V29.3073H151.642L151.662 27.2969H150.789L150.769 29.3073H149.83L149.825 29.3174Z" fill="#9F9FA9"/>
<path d="M158.237 31.9184V31.7458C158.237 30.2837 157.602 29.1719 156.14 29.1719C154.678 29.1719 153.652 30.5477 153.652 32.0402C153.652 33.8171 154.526 34.9086 156.033 34.9086C156.841 34.9086 157.551 34.4923 158.105 33.9389L157.678 33.4719C157.211 33.8983 156.749 34.2588 156.13 34.2588C155.018 34.2588 154.592 33.2434 154.592 32.1062V31.9184H158.237ZM154.668 31.3295C154.81 30.5883 155.333 29.8217 156.15 29.8217C157.033 29.8217 157.363 30.5528 157.363 31.3295H154.668Z" fill="#9F9FA9"/>
<path fill-rule="evenodd" clip-rule="evenodd" d="M24.6216 26.099C24.3729 26.099 23.3677 26.4747 23.2966 26.5356C23.1595 26.1092 21.9614 25.9264 21.5959 25.9264C21.3776 25.9264 20.215 26.099 19.9967 26.099C19.7784 26.099 19.22 25.3223 19.0017 25.3223C18.7732 25.3223 18.5905 25.5812 18.0676 25.5913C17.8797 26.0432 17.2705 26.6219 17.2705 26.8351C17.2705 27.0484 17.3873 27.0484 17.3873 27.0484C17.5954 26.9621 17.702 26.8758 17.9203 26.8758C18.4179 26.8758 18.692 27.8403 19.0626 28.0789C19.088 27.952 19.1286 27.9114 19.2454 27.8962C19.2555 27.6931 18.9966 27.6068 18.9966 27.3885C18.9966 27.1702 19.0728 27.2007 19.1438 27.1245C19.2149 27.1245 19.1286 27.3022 19.3418 27.2971H19.5804C19.682 27.1042 19.7632 26.9417 19.8343 26.8656C21.1999 26.8656 21.3776 26.957 21.5502 26.957C22.8448 26.8808 23.4489 26.7844 23.6672 26.7844C23.8601 26.7844 24.8349 27.3885 24.8349 27.3885C25.0532 27.3885 25.0379 27.3784 25.1344 27.2768V26.5762C25.1344 26.4595 24.9313 26.0889 24.6166 26.0889L24.6216 26.099Z" fill="#9F9FA9"/>
<path fill-rule="evenodd" clip-rule="evenodd" d="M19.7837 27.9581C19.7837 28.0749 21.8347 28.9531 22.119 28.9531C22.1495 28.9531 23.109 28.5419 23.241 28.2881C22.4998 28.0901 20.9869 27.5723 20.2609 27.5723C19.9817 27.5723 19.7837 27.7906 19.7837 27.9632V27.9581Z" fill="#9F9FA9"/>
<path fill-rule="evenodd" clip-rule="evenodd" d="M29.2058 16.205C29.2058 15.5247 28.424 15.4943 27.8249 14.9054C28.2057 14.3165 28.4291 14.3723 28.4291 14.0017C28.4291 13.5143 26.7893 12.6614 26.7893 10.4023V9.21431C26.7842 4.71631 20.6159 0.20307 16.8591 0.0101535C16.8439 0.126919 16.4022 0 16.189 0H14.2751C13.7674 0.0101535 12.5794 0.152303 12.5794 0.152303C5.71566 0.152303 1.80148 7.26991 1.80148 12.565V14.2251C1.92332 14.748 2.23301 15.5806 2.23301 16.1644C2.23301 16.3827 2.0604 16.9868 2.0604 17.2C2.0604 18.8195 3.78142 20.8452 4.36524 22.2717C5.12168 24.1197 6.41118 26.6428 7.50775 28.2268V28.4603C6.83762 29.0593 6.56348 29.9529 5.88319 30.3996C5.00999 30.9733 0.415527 31.3845 0.415527 32.542C0.415527 32.7603 0.522139 32.8365 0.618598 32.8974C2.92852 33.1563 5.37044 34.7301 7.52298 36.314C9.62984 37.8827 10.762 40.2231 12.5439 42H13.0973C13.2191 40.6699 12.7774 39.6952 12.7774 38.4615C12.7774 35.0042 18.5802 32.9278 20.8139 32.9278C21.0322 32.9278 21.9867 33.0141 22.6162 32.9126V32.4202C21.0728 32.3643 19.631 31.2271 18.4837 30.3438C18.3212 30.227 17.4074 28.4349 17.2704 28.4349C17.0521 28.4349 16.5342 28.6075 16.321 28.6075C16.1078 28.6075 16.0469 28.6177 15.9758 28.5517V28.2318C15.9758 28.0135 16.3464 27.5109 16.4073 26.8408C16.5393 25.4599 16.4936 25.0639 16.4936 24.8507C16.4936 22.7997 14.2446 20.7233 14.2446 20.6167C14.2446 20.3984 14.3208 20.4746 14.3918 20.3984C16.2753 20.3984 16.5545 20.4847 16.7424 20.3832V20.0735C16.1027 19.906 15.8844 19.7537 15.8844 19.2815C15.8844 18.5352 15.5341 17.723 16.5291 17.723L19.1132 18.0682C19.7377 18.0682 19.7275 17.2102 20.1539 16.9411C20.2453 17.0985 20.5499 18.2509 20.5499 18.5403C20.5499 18.7586 20.3773 19.1444 20.3773 19.3627C20.3773 19.581 20.5499 19.5354 20.5499 19.7537C20.5499 19.7841 19.1691 21.7437 19.1691 22.3479C19.1691 22.8759 19.9356 23.6018 20.5195 23.5968H20.7885C20.8901 23.4038 20.9408 23.1652 21.1541 23.1652C21.3267 23.1652 21.9765 23.5105 22.276 23.5105C22.7279 23.5105 22.9563 23.5714 23.4843 23.0535V22.7591C23.2152 22.485 22.7533 22.1296 22.54 22.1296C22.3268 22.1296 21.4587 22.4748 21.2455 22.4748C21.0322 22.4748 21.1439 22.4849 21.0678 22.4139C21.0678 22.1702 20.9865 21.825 20.9865 21.6117C20.9865 21.3985 21.1185 21.3528 21.3318 21.3528C21.545 21.3528 21.7633 21.6117 21.9816 21.6117C22.1999 21.6117 22.1897 21.5102 22.1897 21.5102C22.2862 21.1498 22.3725 20.6167 22.3725 20.4035C22.3725 19.9923 21.8547 19.6572 21.8547 19.3678C21.8547 19.1495 22.1034 19.0074 22.2811 18.8246V17.3524C22.4436 17.195 22.5857 16.9462 22.804 16.9462C23.0223 16.9462 23.2609 17.0274 23.4132 17.0985C23.4082 17.2508 23.1492 17.4234 23.1492 17.6366C23.1492 17.8499 23.7534 18.6317 23.7534 18.8449C23.7534 19.0581 23.7534 19.3221 23.7686 19.6115L24.2661 19.515C24.0986 18.6165 23.926 17.7179 23.926 17.5047C23.926 17.2914 24.0072 17.1797 24.0732 17.0224H24.2915C24.5149 17.4894 24.327 18.1494 25.0073 18.1494C25.2256 18.1494 25.2104 18.1392 25.3069 18.0377V17.7433C24.8449 17.1899 24.7078 17.4133 24.7078 16.9361C24.7078 16.7178 24.784 16.6619 24.8499 16.5858H25.1596C25.5962 17.2914 25.647 17.5402 26.175 17.5402C26.5202 17.5402 26.4847 17.464 27.0076 16.931C27.0533 16.9411 28.3326 17.1036 28.3326 17.7128C28.3326 18.6114 28.1143 18.8449 27.3833 19.8349C27.4848 19.9466 27.5965 19.9618 27.5965 19.9618C28.0229 19.8298 29.0281 18.2002 29.023 18.0936V16.9665C28.9266 16.865 28.8403 16.7787 28.7641 16.733C28.9114 16.6771 29.1957 16.4233 29.1957 16.205H29.2058ZM18.4431 15.7278C18.0116 15.7278 17.4988 15.8141 17.0521 15.9004C17.0521 15.9004 16.9708 15.8141 16.8439 15.7887C17.5394 14.8698 17.5648 14.4281 18.57 14.4281C19.1944 14.4281 20.0067 14.748 20.291 15.7024C19.9204 15.809 19.4737 15.7227 18.438 15.7227L18.4431 15.7278ZM28.4494 16.6721C26.1242 16.0273 27.5102 15.9004 25.8755 15.9004C25.119 15.9004 23.8854 16.7634 23.5858 16.7634C23.0325 16.7634 23.3472 16.5908 22.4791 16.5807C22.3776 16.2101 22.0324 15.6415 22.0324 15.4232C22.0324 15.2049 22.2913 14.9054 22.2913 14.6871C22.2913 13.0676 17.9709 13.0676 17.9709 12.3517C17.9709 11.1942 19.7072 11.3212 20.2199 11.0013C19.4787 9.77783 17.8948 8.28019 17.113 7.09223H17.9202C18.1385 7.08207 20.0067 7.5136 20.2199 7.5136C20.4332 7.5136 21.9511 7.34099 22.1643 7.34099C22.3776 7.34099 23.6772 7.5136 23.8955 7.5136C24.1138 7.5136 24.586 7.34099 24.8043 7.34099C26.0125 7.34099 26.444 11.9202 26.444 12.4837C26.444 12.702 26.3374 12.7782 26.241 12.8391C25.1089 12.9153 23.1594 14.7327 23.1594 15.21C23.1594 15.5349 23.4183 15.8141 23.5909 15.8141C23.6214 15.8141 25.1596 14.4332 26.1394 14.4332C26.3984 14.4332 26.642 14.5347 26.9416 14.4535V15.1084C26.6167 14.946 26.241 14.9003 26.0938 15.0932C26.0938 15.1643 26.1699 15.3064 26.241 15.3826H27.4239C27.7792 15.3826 28.5814 16.0172 28.4494 16.6721Z" fill="#9F9FA9"/>
</g>
<defs>
<clipPath id="clip0_546_59888">
<rect width="172.706" height="42" fill="white" transform="translate(0.42041)"/>
</clipPath>
</defs>
</svg>
