<svg xmlns="http://www.w3.org/2000/svg" viewBox="0 0 40 40" fill="none">
  <rect width="39" height="39" x=".667" y=".117" fill="#A8E3FF" rx="20"/>
  <g fill="#001999" clip-path="url(#a)">
    <path d="M21.26 13.006c1.22 0 2.165.138 3.111.83.773.564 1.445 1.427 2.559 2.857.483.62 1.085 1.394 1.815 2.295h.011l.017.023 5.195 6.716h-3.352l-3.925-5.074c-.743-.92-1.35-1.698-1.838-2.326-2.078-2.669-2.106-2.669-3.589-2.669-1.482 0-1.51 0-3.588 2.668-.488.629-1.096 1.41-1.839 2.327l-3.926 5.074H8.56l5.195-6.716.018-.023c.73-.901 1.332-1.675 1.815-2.295 1.111-1.428 1.783-2.29 2.559-2.857.946-.692 1.891-.83 3.112-.83Z"/>
    <path d="M25.213 25.735H18.49a2.11 2.11 0 0 1-1.975-2.103v-.094c0-1.164.947-2.108 2.115-2.108h1.09a2.105 2.105 0 0 1 .841-1.888 2.12 2.12 0 0 1 2.958.433l2.108 2.824a2.105 2.105 0 0 1-.415 2.936Z"/>
  </g>
  <defs>
    <clipPath id="a">
      <path fill="#fff" d="M8 13h26v13H8z"/>
    </clipPath>
  </defs>
</svg>
