<svg xmlns="http://www.w3.org/2000/svg" width="40" height="40" fill="none"><rect width="40" height="40" fill="#e9f0f8" rx="20"/><path fill="url(#a)" d="M19.198 10.157a.54.54 0 0 1 .905-.053l-.32 14.267q.326.005.646.04l-.321-14.301.03.048.907 1.604-.313 12.692.144.025.074.015q.225.046.414.102l-.317-12.83 1.874 3.312-.34 10.553c.054.213.056.436.04.656-.012.183-.037.373-.054.55a2.6 2.6 0 0 0-.009.51c.018.16.06.307.145.438.085.13.215.25.412.35l.026.014q.106.05.218.077l-.423-13.121.929 1.641-.392 11.501c.177.025.364.01.557-.035a2 2 0 0 0 .232-.067l-.388-11.383.93 1.645-.378 9.677a4.4 4.4 0 0 0 .752-.403l-.361-9.252.932 1.648-.346 7.454c.24-.167.467-.342.673-.505l-.323-6.941.921 1.628-.274 5.055a9 9 0 0 1 .28-.215l.044-.032q.116-.08.238-.143l-.25-4.597.879 1.553-.186 2.871q.221-.06.45-.081l-.17-2.624.867 1.532-.103 1.095q.128.013.252.034l-.098-1.038.668 1.18.02.007 1.303 2.281a.544.544 0 0 1-.469.816H9.21a.544.544 0 0 1-.47-.814l.915-1.614-.183 1.345.529-.296-.183-1.337.841-1.482-.244 2.587.492-.274.044-.024-.226-2.404.883-1.557-.257 3.74.554-.302-.243-3.533.891-1.571-.266 4.901q.282-.148.568-.294l-.255-4.69.913-1.61-.284 6.111a34 34 0 0 1 .569-.275l-.272-5.857.924-1.63-.285 7.316q.29-.132.582-.257l-.277-7.093.924-1.628-.293 8.573q.296-.12.593-.232l-.285-8.369.929-1.637-.323 9.89q.325-.114.649-.214l-.317-9.692.935-1.648-.308 11.249q.308-.086.615-.158l-.304-11.096.939-1.655-.315 12.682q.316-.063.628-.107l-.312-12.577.936-1.649-.32 14.19q.327-.034.647-.043L19.17 10.21zM21.68 24.71c.279.116.48.256.626.413l-.319-11.635z"/><defs><linearGradient id="a" x1="8.667" x2="30.667" y1="19.645" y2="19.645" gradientUnits="userSpaceOnUse"><stop stop-color="#2fe797"/><stop offset="1" stop-color="#0575e6"/></linearGradient></defs></svg>
