<svg xmlns="http://www.w3.org/2000/svg" width="40" height="40" fill="none"><g clip-path="url(#a)"><rect width="40" height="40" fill="#09090b" rx="20"/><g filter="url(#b)"><ellipse cx="14.698" cy="125.846" fill="url(#c)" fill-opacity=".8" rx="14.698" ry="125.846" transform="rotate(56.593 -82.776 -57.05)scale(1 -1)"/></g><g filter="url(#d)"><ellipse cx="14.698" cy="125.846" fill="url(#e)" fill-opacity=".8" rx="14.698" ry="125.846" transform="rotate(236.59 -20.534 81.652)scale(-1 1)"/></g><g fill="#fff" clip-path="url(#f)"><path d="M10.904 11.62H22.16v2.453h-8.554v4.21h8.127v2.363h-8.127v7.182h-2.702z"/><path d="M23.645 11.635c4.86.263 7.39 3.976 7.39 8.36 0 4.547-2.724 8.374-7.947 8.374-4.379 0-7-2.69-7.734-6.24h2.931c.575 2.17 2.115 3.741 4.803 3.741 3.534 0 5.065-2.68 5.065-5.876 0-3.023-1.37-5.584-4.508-5.852z"/></g></g><defs><linearGradient id="c" x1="38.949" x2="-19.773" y1="86.413" y2="152.422" gradientUnits="userSpaceOnUse"><stop stop-color="#09090b"/><stop offset=".092" stop-color="#742e14"/><stop offset=".176" stop-color="#ba411a"/><stop offset=".252" stop-color="#d49c24"/><stop offset=".473" stop-color="#fff3da"/><stop offset=".516" stop-color="#fff5eb"/><stop offset=".584" stop-color="#ffebd7"/><stop offset=".709" stop-color="#acc8dd"/><stop offset=".816" stop-color="#4189c1"/><stop offset=".901" stop-color="#4056a4"/><stop offset="1" stop-color="#09090b"/></linearGradient><linearGradient id="e" x1="38.949" x2="-19.773" y1="86.413" y2="152.422" gradientUnits="userSpaceOnUse"><stop stop-color="#09090b"/><stop offset=".092" stop-color="#742e14"/><stop offset=".176" stop-color="#ba411a"/><stop offset=".252" stop-color="#d49c24"/><stop offset=".473" stop-color="#fff3da"/><stop offset=".516" stop-color="#fff5eb"/><stop offset=".584" stop-color="#ffebd7"/><stop offset=".709" stop-color="#acc8dd"/><stop offset=".816" stop-color="#4189c1"/><stop offset=".901" stop-color="#4056a4"/><stop offset="1" stop-color="#09090b"/></linearGradient><clipPath id="a"><rect width="40" height="40" fill="#fff" rx="20"/></clipPath><clipPath id="f"><path fill="#fff" d="M10.904 11.62h20.131v16.75h-20.13z"/></clipPath><filter id="b" width="228.44" height="158.458" x="-85.899" y="-92.788" color-interpolation-filters="sRGB" filterUnits="userSpaceOnUse"><feFlood flood-opacity="0" result="BackgroundImageFix"/><feBlend in="SourceGraphic" in2="BackgroundImageFix" result="shape"/><feGaussianBlur result="effect1_foregroundBlur_5700_20315" stdDeviation="4.425"/></filter><filter id="d" width="228.434" height="158.468" x="-101.074" y="-26.788" color-interpolation-filters="sRGB" filterUnits="userSpaceOnUse"><feFlood flood-opacity="0" result="BackgroundImageFix"/><feBlend in="SourceGraphic" in2="BackgroundImageFix" result="shape"/><feGaussianBlur result="effect1_foregroundBlur_5700_20315" stdDeviation="4.425"/></filter></defs></svg>
