<svg xmlns="http://www.w3.org/2000/svg" width="40" height="40" fill="none"><rect width="40" height="40" fill="#000" rx="20"/><path fill="#0090ff" fill-rule="evenodd" d="M20.591 10.145c5.545.033 10.094 4.574 10.053 10.217a10.2 10.2 0 0 1-.564 3.264 4.24 4.24 0 0 0-3.028-1.385h-.08c-1.606-.01-3 .873-3.729 2.17a3.275 3.275 0 0 0-2.937 3.256v.043a3.27 3.27 0 0 0 1.388 2.634 10 10 0 0 1-1.169.063c-5.586.025-10.143-4.55-10.119-10.176.025-5.562 4.566-10.12 10.185-10.086m3.71 3.694c-1.012-.042-1.736.468-2.303 1.25-.56.773-.806 1.678-1.078 2.575-.074.263-.14.526-.222.814-.98-.14-1.925-.28-2.896-.42l-.099.774c.963.148 1.884.288 2.83.436-.131.543-.247 1.045-.37 1.555-.93-.132-1.818-.255-2.707-.378-.032.287-.065.51-.098.765.897.14 1.76.271 2.624.403 0 .098.017.156 0 .205-.28 1.177-.535 2.37-.847 3.538-.148.56-.387 1.094-.848 1.489-.378.32-.798.271-1.085-.132-.132-.18-.239-.395-.412-.518-.123-.09-.403-.148-.493-.074a.75.75 0 0 0-.223.535c.009.156.165.345.305.452.469.362 1.028.411 1.588.305.946-.19 1.612-.782 2.023-1.613.33-.65.568-1.35.798-2.048.206-.634.346-1.284.51-1.942.93.14 1.835.272 2.765.403.082-.263.148-.51.222-.765-.971-.148-1.9-.28-2.83-.42.115-.55.214-1.036.32-1.57l2.633.37.214-.757c-.913-.132-1.785-.264-2.723-.404.32-1.118.592-2.188.93-3.233.107-.345.361-.666.617-.937.337-.346.798-.272 1.085.115.116.156.23.329.37.469.182.172.453.263.634.09a.64.64 0 0 0 .123-.576c-.057-.156-.09-.172-.156-.247-.32-.362-.748-.493-1.2-.51" clip-rule="evenodd"/><path fill="#fff" fill-rule="evenodd" d="M20.779 23.75c-.23.699-.47 1.398-.798 2.048-.412.83-1.078 1.423-2.024 1.612-.56.107-1.119.058-1.588-.304-.14-.107-.296-.296-.304-.453a.75.75 0 0 1 .222-.534c.09-.074.37-.017.494.074.172.123.28.337.411.518.288.403.707.453 1.086.132.46-.395.7-.93.847-1.49.313-1.168.568-2.36.848-3.537.016-.05 0-.107 0-.206-.864-.131-1.728-.263-2.625-.403.033-.255.066-.477.1-.765.887.124 1.776.247 2.706.379.123-.51.238-1.012.37-1.555-.946-.148-1.868-.288-2.83-.436l.099-.773c.97.14 1.916.28 2.895.42.083-.289.148-.552.223-.815.27-.897.518-1.802 1.077-2.575.568-.782 1.292-1.292 2.304-1.25.452.016.88.147 1.2.51.066.073.1.09.157.246a.64.64 0 0 1-.123.576c-.181.173-.453.082-.634-.09-.14-.14-.255-.313-.37-.47-.288-.386-.749-.46-1.086-.114-.255.27-.51.592-.617.937-.337 1.045-.609 2.115-.93 3.233.938.14 1.81.272 2.724.404l-.214.756c-.889-.123-1.753-.247-2.633-.37-.107.535-.206 1.02-.32 1.571.929.14 1.858.272 2.83.42-.075.255-.14.502-.223.765a321 321 0 0 1-2.764-.403c-.156.658-.296 1.308-.51 1.941" clip-rule="evenodd"/><path fill="#fff" d="M26.968 22.822a3.67 3.67 0 0 1 3.313 2.154h.026a2.693 2.693 0 0 1 .001 5.383h-6.73a2.692 2.692 0 1 1 .002-5.383h.028a3.67 3.67 0 0 1 3.36-2.154"/><path fill="url(#a)" d="M30.308 30.36a2.692 2.692 0 1 0 0-5.384h-.027a3.67 3.67 0 0 0-3.313-2.154 3.67 3.67 0 0 0-3.36 2.154h-.029a2.693 2.693 0 0 0 0 5.383zm1.644-2.692c0 .908-.736 1.644-1.644 1.644h-6.73a1.644 1.644 0 0 1-1.644-1.644v-.043a1.645 1.645 0 0 1 1.645-1.602h.704l.279-.614a2.62 2.62 0 0 1 2.4-1.539 2.62 2.62 0 0 1 2.365 1.538l.279.615h.701c.909 0 1.645.737 1.645 1.645"/><defs><linearGradient id="a" x1="20.887" x2="34.101" y1="22.822" y2="25.726" gradientUnits="userSpaceOnUse"><stop stop-color="#39c1cb"/><stop offset="1" stop-color="#006fec"/></linearGradient></defs></svg>
