<svg xmlns="http://www.w3.org/2000/svg" viewBox="0 0 40 40" fill="none">
  <rect width="39" height="39" y="0.29%" fill="#000" rx="50%"/>
  <path fill="url(#a)" d="M20.841 14.166c.45-.052.862.043 1.273.074l.018-.105c-.439-.233-.877-.467-1.317-.698-.137-.072-.278-.134-.416-.202-.05-.024-.126-.086-.14-.074-.378.332-.895-.081-1.307.29-.335.3-.81.445-1.211.713h1.17c-.415.368-.663.834-1.273.845-.71.014-.604-.013-.643.622-.016.256-.092.458-.29.64-.238.221-.211.476.039.687.089.074.2.134.134.263-.068.133-.202.056-.3.042a792.73 792.73 0 0 1-4.85-.68c-.82-.118-.827-.126-.902.68-.058.624 0 1.245.061 1.866.025.247.16.245.343.215 1.705-.279 3.41-.553 5.115-.835.546-.09.543-.097.574.46.024.444.07.888.08 1.332.005.281.085.434.395.434.11 0 .317-.055.33.125.016.205-.026.422-.083.622-.026.092-.16.037-.244.025-.182-.025-.247.043-.21.223.048.24.085.483.132.723.145.735.117 1.488-.09 2.396-.12.017-.083-.23-.203-.146a.599.599 0 0 0-.25.418c-.011.109.018.247.145.312.08.041.245.007.206.15-.034.127-.178.013-.262.046-.191.077-.389.148-.572.236-.206.1-.168.274.058.371.163.07.328.142.498.192.143.042.185.107.175.262-.043.632-.04.642-.635.41-2.528-.984-4.386-2.699-5.51-5.173a9.84 9.84 0 0 1 2.431-11.421c1.05-.93 2.236-1.629 3.577-2.03 2.927-.875 5.738-.57 8.29 1.13 3.233 2.15 4.714 5.236 4.48 9.12a8.498 8.498 0 0 1-.87 3.272 10.895 10.895 0 0 1-1.452 2.25c-1.14 1.346-2.536 2.279-4.162 2.908-.245.095-.324.085-.377-.211-.066-.372.034-.561.392-.636a.879.879 0 0 0 .217-.085c.075-.039.194-.058.181-.166-.013-.11-.072-.243-.195-.24-.24.002-.397-.265-.654-.186-.048.015-.092-.032-.084-.076.007-.034.053-.081.086-.086.22-.031.302-.235.247-.36-.074-.165-.055-.477-.396-.433-.09.011-.073-.114-.082-.177-.12-.88-.277-1.76.003-2.641.066-.208.098-.385-.246-.365-.22.013-.135-.232-.174-.365-.08-.274.008-.429.314-.41.212.013.281-.094.301-.298.057-.565.11-1.13.104-1.699-.003-.216.074-.269.278-.235 1.275.213 2.555.397 3.826.636.553.104 1.115.136 1.663.258.152.034.222-.02.246-.178.125-.832.116-1.664.026-2.498-.036-.339-.279-.225-.45-.203-.947.125-1.892.266-2.839.4-.814.116-1.628.232-2.443.342-.097.013-.23.102-.289-.052-.047-.126.074-.165.152-.223.223-.169.3-.45.111-.606-.367-.302-.352-.695-.39-1.083-.02-.206-.122-.28-.301-.26-.702.082-1.13-.34-1.559-.854Zm1.9-3.56c-.042-.14.01-.291-.067-.432-.088-.162-.246-.112-.373-.154-.045-.015-.099.024-.081.07.079.204.14.423.262.6.102.15.122-.204.264-.088-.081.22-.018.3.216.235.084-.023.175-.021.263-.034.495-.07.99-.145 1.525-.29-.73-.285-1.38-.277-2.008.093ZM11.03 15.967c.084-.04.152-.056.2-.097 1.052-.861 2.17-1.632 3.26-2.443.48-.358.559-.658.205-1.141-.23-.314-.472-.621-.684-.947-.136-.21-.227-.2-.397-.034-1.078 1.053-1.875 2.283-2.342 3.717-.096.296-.276.577-.242.945Zm17.638-.23-.021-.08c-.432-1.693-1.285-3.138-2.539-4.352-.156-.152-.24-.134-.356.038-.231.34-.48.668-.723 1-.266.366-.202.748.162 1.022 1.105.83 2.208 1.665 3.312 2.497.03.023.055.073.11.036.055-.035.067-.085.055-.162Zm-17.6 4.104c-.005.03-.02.065-.013.093.37 1.645 1.162 3.06 2.329 4.27.108.112.174.085.266-.016.366-.404.743-.797 1.106-1.203.183-.204.147-.467-.069-.622-1.117-.803-2.235-1.606-3.355-2.405-.076-.054-.14-.151-.264-.117Zm17.62.002c-.154-.006-.226.092-.312.154-1.07.764-2.137 1.532-3.205 2.299-.32.23-.34.459-.082.766.306.364.678.67.938 1.075.126.197.242.154.388 0a9.12 9.12 0 0 0 2-3.271c.115-.331.228-.665.274-1.022Zm-1.29.497c-1.295.535-2.564.813-3.865 1.042.13.284.45.383.448.71-.192-.147-.35-.325-.51-.499-.037-.038-.083-.083-.144-.058-.065.027-.053.095-.048.145.033.295-.053.574-.108.857-.07.353-.148.704-.24 1.142.304-.217.53-.393.771-.547.36-.231.663-.476.388-.991.425.306.762.2 1.121-.085.53-.419 1.1-.789 1.644-1.189.18-.132.384-.245.543-.527Zm-14.895-4.047c1.155.166 2.311.33 3.467.497.146.021.162-.067.169-.178.023-.41.048-.82.077-1.23.01-.152-.008-.204-.197-.178-.914.128-1.802.353-2.673.654-.29.1-.582.197-.843.435Zm14.726-.009c0-.03 0-.06-.002-.09-1.147-.525-2.36-.82-3.603-1.014-.167-.025-.149.09-.142.19.028.399.061.798.086 1.198.012.188.077.238.276.197.358-.074.726-.102 1.088-.153.766-.108 1.532-.218 2.297-.328Zm-11.06 3.487c-.01-.2-.03-.399-.027-.598.001-.18-.068-.237-.242-.2-.228.048-.458.082-.688.12-.808.133-1.616.264-2.424.399-.068.011-.171-.014-.172.105 0 .07.063.067.116.086.889.308 1.784.593 2.711.768.814.153.812.161.726-.68Zm10.926-.195c-.042-.031-.065-.063-.092-.068-1.073-.176-2.146-.347-3.217-.526-.152-.026-.174.04-.213.168-.11.368-.075.741-.092 1.114-.013.266.051.33.31.284.84-.152 1.674-.335 2.483-.615.277-.095.568-.167.82-.357Zm-3.542-5.202c.71.128 1.404.255 2.087.436.655.173 1.287.422 1.939.615a59.91 59.91 0 0 0-2.57-1.977.605.605 0 0 0-.881.136l-.575.79Zm-11.321.916c.137.066.21.063.285.033 1.116-.458 2.281-.731 3.469-.917.206-.032.17-.118.078-.242-.147-.195-.288-.395-.432-.592-.164-.223-.619-.322-.847-.163-.854.593-1.62 1.307-2.553 1.881Zm4.945-1.1c.76-.397 1.47-.754 2.164-1.135.177-.097.195-.267-.02-.381-.49-.26-.98-.517-1.47-.778-.09-.049-.167-.077-.204.051-.207.713-.38 1.432-.47 2.243Zm5.352-.224a16.862 16.862 0 0 0-.381-1.756c-.112-.391-.121-.406-.476-.19-.398.24-.805.461-1.226.655-.09.042-.203.061-.21.174-.006.125.097.18.201.235.464.249.973.41 1.403.728.14.103.306.176.468.243.1.042.23.073.221-.09Zm-10.042 6.567.133.101c.605.464 1.256.866 1.838 1.365.223.19.475.465.837.3.289-.132.452-.413.67-.628.073-.072.21-.14.166-.261-.037-.102-.175-.068-.268-.084-1.048-.183-2.085-.41-3.081-.797-.088-.034-.179-.084-.295.004Zm13.159-9.341c-.938.153-1.839.317-2.787.45.355.396.831.539 1.153.89.224.243.53.107.671-.05.358-.397.647-.856.963-1.29Zm-8.85.529a102.22 102.22 0 0 1-2.667-.542c.35.484.629.908.954 1.293.113.132.355.227.539.105.403-.268.783-.569 1.173-.856Zm6.371 12.013c.066.055.08.078.097.08.838.12 1.666.292 2.48.53.06.017.103.019.146-.027.073-.078-.01-.125-.044-.163-.28-.314-.566-.622-.851-.932-.095-.102-.753-.249-.866-.173-.319.215-.628.445-.962.685ZM18.236 11.79l-.018.086c.323.17.647.334.968.508.492.265.972.337 1.475.005.274-.181.588-.301.88-.457.067-.035.178-.042.169-.185-1.159.091-2.317.058-3.474.043Zm-1.608 11.952c-.356-.254-.638-.522-.973-.668-.205-.088-.568-.083-.725.045-.392.32-.707.733-1.054 1.109.906-.214 1.812-.253 2.752-.486Zm6.203-11.852c.261.812.39 1.569.549 2.422.28-.387.517-.679.714-.995.098-.159.12-.395-.023-.528a6.93 6.93 0 0 0-1.24-.899Zm-1.355-.91c-.597-.54-1.282-.73-1.988-.625-.414.06-.793.363-1.187.557 1.07.125 2.102.129 3.175.068Zm-4.645.945c-.415.309-.744.554-1.074.797a.279.279 0 0 0-.121.22c-.049.568.449.802.696 1.2.15-.723.299-1.425.5-2.217ZM19.8 8.798c-.24.013-.478.15-.69.337-.262.233-.258.258.063.42.194.099.38.233.616.091.05-.03.15.009.222.032.168.053.68-.091.776-.221.042-.056.037-.106-.005-.148-.262-.257-.528-.51-.982-.51ZM16.353 21.6c-.3.198-.539.414-.718.671a.47.47 0 0 0 .086.617c.3.25.651.44 1.028.685l-.396-1.973Zm-1.763 3.34-.015.095 1.339.261c.02.004.05-.001.063-.014a.966.966 0 0 1 .572-.29c.14-.024.254-.229.232-.364-.024-.146-.207-.06-.31-.045-.633.091-1.264.188-1.881.357Zm3.567-15.96c-.587.076-1.074.25-1.558.429-.073.027-.206.04-.195.114.018.109.073.245.218.258.124.01.233.08.341.093.259.03.548.026.735-.18.174-.19.285-.437.459-.713Zm3.46.041c.231.326.27.812.83.86.301.027.501-.171.765-.217.11-.019.114-.18-.038-.238-.495-.188-.994-.36-1.557-.405Zm3.532 15.953a13.94 13.94 0 0 0-2.204-.407c.116.523.624.465.883.727.017.017.067.012.096.003.38-.12.791-.117 1.225-.323ZM18.06 10.82c.343-.167.638-.292.915-.45.17-.097.467-.093.466-.353-.001-.257-.304-.24-.463-.358-.179-.132-.298-.063-.4.11-.184.313-.374.623-.518 1.05Zm3.554-.046c-.057-.297-.17-.476-.27-.658-.227-.407-.537-.494-.93-.26l-.03.015c-.163.088-.194.188-.01.282.39.2.786.394 1.24.621Zm-6.742-.235c.761.14 1.418.29 2.114.323-.241-.497-.903-.75-2.114-.323Zm-.166 14.71-.035.08c.356.207.716.409 1.066.627.229.142.299-.033.361-.177.07-.16-.02-.292-.177-.324-.402-.08-.81-.139-1.215-.206Zm10.31-.018c-.396.073-.794.135-1.187.222-.157.035-.238.168-.171.33.061.15.15.274.35.162.354-.197.713-.385 1.008-.714ZM14.997 10.273c.38-.05.738-.158 1.12-.157.154 0 .228-.193.19-.355-.04-.176-.16-.17-.305-.097-.35.175-.696.354-1.005.609Zm9.369-.008c.11.01.182.001.207-.07.03-.088-.06-.105-.11-.133-.242-.134-.486-.261-.728-.393-.123-.066-.253-.129-.326.054-.068.17-.002.295.172.355.268.092.563.071.785.187Zm-6.818-.276c-.235.09-.463-.006-.559.232-.091.228.083.351.222.553l.337-.785Z"/>
  <path fill="#fff" d="M22.13 31.965a2 2 0 0 0 .044-.654c-.008-.087.012-.201-.07-.246-.097-.053-.15.066-.215.114-.535.393-1.138.621-1.799.783.026-.326.081-.622-.049-.945-.546.451-1.157.72-1.851.904.046-.31.074-.592-.053-.897-.604.485-1.293.765-2.03.949-.245.06-.279.032-.238-.218.101-.62.392-1.06 1.028-1.204.185-.043.179-.173.195-.3l.732-5.93c.17-1.379.337-2.76.513-4.139.02-.161.032-.24-.178-.292-.236-.059-.443-.227-.755-.399.59-.114.529-.49.524-.848-.007-.478-.004-.957-.002-1.436.002-.344-.197-.577-.547-.624-.076-.01-.153-.002-.228-.002-.02-.13.08-.167.14-.223a519.11 519.11 0 0 1 2.432-2.283c.084-.078.15-.234.318-.074.886.84 1.78 1.672 2.67 2.506-.056.116-.143.065-.21.072-.397.042-.598.26-.597.653.001.479.006.957 0 1.436-.006.35-.063.717.465.79-.189.22-.39.333-.587.394-.241.074-.231.206-.207.393.419 3.333.837 6.666 1.246 10 .024.197.073.315.287.321.052.002.106.032.156.056.253.127.553.291.565.562.01.214-.333.279-.536.38a5.077 5.077 0 0 1-1.161.401h-.001Zm-2.18-1.802c.654 0 1.309-.012 1.963.006.251.007.297-.079.262-.304a25.15 25.15 0 0 1-.162-1.29c-.02-.202-.079-.252-.292-.194-1.153.316-2.308.63-3.47.909-.36.086-.509.232-.527.607-.013.248.06.272.261.269.655-.009 1.31-.003 1.964-.003Zm-1.956-2.479c-.077.225.084.206.328.138.8-.221 1.606-.422 2.407-.643.348-.096.835-.061 1.006-.33.172-.268-.052-.703-.072-1.067-.011-.206-.06-.26-.279-.196-.702.2-1.415.367-2.119.561-.36.1-.845.07-1.048.336-.2.262-.147.719-.223 1.201Zm.381-2.98c-.06.238.093.19.244.15.75-.198 1.5-.397 2.25-.592.572-.148.573-.146.508-.75-.017-.155-.05-.309-.053-.463-.003-.193-.087-.218-.252-.174-.49.135-.985.259-1.477.39-.342.092-.768.096-1.001.309-.251.229-.13.69-.207 1.042-.005.022-.006.044-.012.088ZM21.1 21.24c-.03-.242-.065-.484-.087-.728-.015-.16-.088-.204-.24-.177-.507.087-.998.22-1.424.522-.328.233-.557.532-.613.95-.023.176.013.221.187.174.663-.179 1.328-.35 1.993-.525.111-.029.223-.059.184-.216Zm-1.134-6.74v1.366c-.001.106-.003.199.148.198.479-.004.958-.002 1.527-.002L19.965 14.5Zm1.453 3.711c0-.223.002-.445 0-.668-.003-.232-.104-.405-.35-.395-.225.01-.315.174-.313.395.003.434.01.869-.003 1.302-.008.218.064.276.282.288.306.016.428-.076.388-.389-.022-.175-.004-.355-.004-.533Zm-2.329.021c0-.232.003-.465 0-.697-.005-.231-.113-.399-.356-.386-.222.011-.31.174-.308.395.005.43.014.863-.004 1.293-.01.243.084.284.304.296.294.016.404-.075.368-.37-.021-.175-.004-.354-.004-.531Zm1.157-.01c0-.223-.003-.445 0-.668.005-.235-.087-.406-.334-.406-.229 0-.326.166-.328.383-.003.457-.001.913 0 1.37 0 .1-.002.192.138.223.393.09.524-.005.524-.401v-.501Z"/>
  <defs>
    <linearGradient id="a" x1="10" x2="29.681" y1="17.62" y2="17.62" gradientUnits="userSpaceOnUse">
      <stop stop-color="#5081C2"/>
      <stop offset="1" stop-color="#D23C6E"/>
    </linearGradient>
  </defs>
</svg>
