<svg xmlns="http://www.w3.org/2000/svg" width="41" height="41" fill="none">
  <rect width="40" height="40" x=".333" y=".117" fill="gray" rx="20"/>
  <g clip-path="url(#a)">
    <path fill="#000" d="M22.676 29.4v-.644a2.602 2.602 0 0 0-2.602-2.602h-6.217a2.598 2.598 0 0 1-2.6-2.6v-1.277a2.6 2.6 0 0 1 2.6-2.602h6.217a2.604 2.604 0 0 0 2.404-1.605 2.602 2.602 0 0 0-2.404-3.598h-6.217a2.6 2.6 0 0 1-2.6-2.602v-1.268A2.6 2.6 0 0 1 13.857 8h6.854a2.602 2.602 0 0 1 2.602 2.602v.644a2.602 2.602 0 0 0 2.602 2.602h.644a2.603 2.603 0 0 1 2.602 2.6v1.277a2.603 2.603 0 0 1-2.609 2.594h-.643a2.602 2.602 0 0 0 0 5.202h.643a2.603 2.603 0 0 1 2.603 2.602v1.275A2.602 2.602 0 0 1 26.552 32h-1.276a2.602 2.602 0 0 1-2.6-2.6Z"/>
  </g>
  <defs>
    <clipPath id="a">
      <path fill="#fff" d="M10.727 8h18.546v24H10.727z"/>
    </clipPath>
  </defs>
</svg>
