<svg xmlns="http://www.w3.org/2000/svg" width="41" height="41" fill="none">
  <rect width="40" height="40" x=".667" y=".117" fill="#000" rx="20"/>
  <g clip-path="url(#a)">
    <mask id="b" width="22" height="21" x="10" y="10" maskUnits="userSpaceOnUse" style="mask-type:luminance">
      <path fill="#CBDDBB" fill-rule="evenodd" d="m13.582 15.45-3.526 13.303c-.028.121-.047.26-.056.42 0 .158.08.344.239.558.159.205.421.307.787.307h19.331c.365 0 .679-.12.94-.363.263-.251.394-.559.394-.922V11.3c0-.345-.117-.648-.351-.909a1.082 1.082 0 0 0-.857-.391h-7.572c-5.264.01-8.373 1.826-9.329 5.45Z" clip-rule="evenodd"/>
    </mask>
    <g mask="url(#b)">
      <path fill="#CBDDBB" d="m10.056 28.753-.628-.167-.003.01-.002.01.633.147Zm3.526-13.303.629.166-.629-.166ZM10 29.172l-.65-.038v.039H10Zm.239.56-.522.387.004.006.004.005.514-.399Zm3.564.306v-.65H13.8l.004.65Zm13.902 0 .004-.65h-.004v.65Zm3.593-.363.441.478.005-.004.004-.005-.45-.469Zm.042-19.284-.493.425.005.005.004.005.484-.435ZM22.91 10v-.65.65ZM10.686 28.92l3.526-13.304-1.257-.333-3.526 13.303 1.257.334Zm-.036.29c.008-.13.023-.233.04-.31l-1.266-.294c-.039.165-.061.342-.072.528l1.298.076Zm.112.133a.87.87 0 0 1-.103-.168c-.015-.034-.008-.032-.008-.003h-1.3c0 .365.176.69.367.947l1.044-.776Zm.264.045a.662.662 0 0 1-.233-.032c-.032-.012-.038-.022-.04-.024l-1.027.798c.327.421.82.559 1.3.559v-1.3Zm2.768 0h-2.768v1.3h2.768v-1.3Zm.006 0h-.006v1.3h.014l-.008-1.3Zm13.906 0H13.803v1.3h13.902v-1.3Zm.01 0h-.006l-.008 1.3h.014v-1.3Zm2.642 0h-2.642v1.3h2.642v-1.3Zm.5-.19a.69.69 0 0 1-.5.19v1.3c.524 0 .997-.18 1.382-.535l-.883-.956Zm.184-.445a.58.58 0 0 1-.193.453l.9.939c.39-.375.594-.852.594-1.392H31.04Zm0-17.454v17.454h1.3V11.299h-1.3Zm-.185-.473a.67.67 0 0 1 .185.473h1.3c0-.508-.178-.964-.517-1.342l-.968.869Zm-.373-.176c.159 0 .264.05.364.166l.986-.85a1.731 1.731 0 0 0-1.35-.616v1.3Zm-7.572 0h7.572v-1.3h-7.572v1.3Zm-8.7 4.966c.436-1.653 1.349-2.867 2.748-3.685 1.42-.83 3.386-1.276 5.953-1.28L22.91 9.35c-2.698.004-4.918.47-6.607 1.458-1.71.999-2.83 2.505-3.35 4.476l1.258.332Z"/>
    </g>
    <mask id="c" width="22" height="21" x="10" y="10" maskUnits="userSpaceOnUse" style="mask-type:alpha">
      <path fill="#CBDDBB" fill-rule="evenodd" d="m13.582 15.45-3.526 13.303c-.028.121-.047.26-.056.42 0 .158.08.344.239.558.159.205.421.307.787.307h19.331c.365 0 .679-.12.94-.363.263-.251.394-.559.394-.922V11.3c0-.345-.117-.648-.351-.909a1.082 1.082 0 0 0-.857-.391h-7.572c-5.264.01-8.373 1.826-9.329 5.45Z" clip-rule="evenodd"/>
    </mask>
    <g stroke="#CBDDBB" stroke-miterlimit="10" mask="url(#c)">
      <path stroke-width=".294" d="M18.465 24.291a.894.894 0 1 0-1.679-.614.894.894 0 0 0 1.68.614Z"/>
      <path stroke-width=".147" d="M17.25 25.14c.607 0 1.143-.393 1.358-.965.215-.572-.143-1.573-.894-1.824-.644-.214-1.323 0-1.68.572"/>
      <path stroke-width=".147" d="M17.428 25.39c.572-.178 1.037-.643 1.252-1.251.358-1.037-.215-2.181-1.252-2.54-1.037-.357-1.323-.106-1.824.287"/>
      <path stroke-width=".147" d="M17.534 25.642a2.538 2.538 0 0 0 1.18-1.395 2.506 2.506 0 0 0-1.61-3.218c-.607-.215-1.215-.179-1.788.036"/>
      <path stroke-width=".147" d="M17.676 25.855c.465-.358.858-.858 1.037-1.466.536-1.61-.322-3.362-1.967-3.934a3.088 3.088 0 0 0-1.61-.107"/>
      <path stroke-width=".147" d="M17.924 26.034c.394-.394.68-.858.859-1.395.643-1.895-.394-3.97-2.325-4.613a3.75 3.75 0 0 0-1.394-.179"/>
      <path stroke-width=".147" d="M18.142 26.25c.322-.394.572-.823.715-1.324a4.233 4.233 0 0 0-2.682-5.329 3.56 3.56 0 0 0-1.18-.214"/>
      <path stroke-width=".147" d="M18.388 26.5c.286-.394.501-.787.644-1.252a4.754 4.754 0 0 0-3.04-6.008c-.48-.158-.75-.179-1.108-.215"/>
      <path stroke-width=".147" d="M18.676 26.748c.215-.358.43-.75.537-1.18a5.275 5.275 0 0 0-3.398-6.687c-.67-.215-.644-.18-.965-.215"/>
      <path stroke-width=".147" d="M19.04 27.037c.214-.358.393-.751.536-1.144 1.001-3.076-.68-6.402-3.72-7.403a4.362 4.362 0 0 0-.93-.215"/>
      <path stroke-width=".147" d="M19.433 27.5c.25-.394.429-.859.608-1.324a6.395 6.395 0 0 0-4.077-8.082c-.358-.107-.715-.215-1.037-.25"/>
      <path stroke-width=".147" d="M19.926 27.893c.286-.465.5-.965.68-1.466 1.18-3.648-.787-7.581-4.435-8.797a5.548 5.548 0 0 0-1.287-.286"/>
      <path stroke-width=".147" d="M20.535 28.324a9.474 9.474 0 0 0 .823-1.717c1.287-3.933-.859-8.19-4.793-9.477a5.646 5.646 0 0 0-1.502-.321"/>
      <path stroke-width=".147" d="M21.216 28.858c.465-.644.823-1.395 1.109-2.181 1.394-4.22-.93-8.798-5.15-10.157a9.051 9.051 0 0 0-2.146-.393"/>
      <path stroke-width=".147" d="M22.11 29.217a8.187 8.187 0 0 0 1.324-2.54c1.466-4.505-1.001-9.405-5.507-10.87-.93-.323-1.896-.43-2.825-.43"/>
      <path stroke-width=".147" d="M24.894 26.156a9.155 9.155 0 1 0-17.547-5.23 9.155 9.155 0 0 0 17.547 5.23Z"/>
      <path stroke-width=".147" d="M26.527 26.071c1.588-5.132-1.284-10.58-6.416-12.169-5.132-1.588-10.58 1.284-12.169 6.416-1.588 5.132 1.284 10.58 6.416 12.169 5.132 1.588 10.58-1.284 12.169-6.416Z"/>
      <path stroke-width=".147" d="M28.406 25.595c1.705-5.406-1.296-11.17-6.702-12.875s-11.17 1.296-12.875 6.702c-1.704 5.406 1.296 11.17 6.703 12.875 5.406 1.705 11.17-1.296 12.874-6.702Z"/>
      <path stroke-width=".147" d="M30.643 25.012c1.82-5.701-1.327-11.798-7.028-13.617-5.702-1.82-11.798 1.327-13.618 7.028-1.82 5.701 1.328 11.798 7.029 13.617 5.7 1.82 11.797-1.327 13.617-7.028Z"/>
      <path stroke-width=".147" d="M33.139 24.033c1.92-5.98-1.372-12.384-7.352-14.304S13.403 11.1 11.483 17.081c-1.92 5.98 1.371 12.384 7.351 14.304s12.385-1.372 14.305-7.352Z"/>
      <path stroke-width=".147" d="M36.015 22.936c2.027-6.277-1.402-13.004-7.661-15.026-6.259-2.021-12.976 1.429-15.003 7.706-2.028 6.277 1.402 13.005 7.66 15.026 6.26 2.022 12.976-1.428 15.004-7.706Z"/>
      <path stroke-width=".294" d="M39.23 21.673c2.13-6.556-1.457-13.597-8.013-15.727C24.66 3.816 17.62 7.404 15.49 13.96c-2.13 6.556 1.458 13.597 8.013 15.727 6.556 2.13 13.597-1.457 15.727-8.013Z"/>
    </g>
  </g>
  <defs>
    <clipPath id="a">
      <path fill="#fff" d="M10 10h22v20.5H10z"/>
    </clipPath>
  </defs>
</svg>
