<svg xmlns="http://www.w3.org/2000/svg" viewBox="0 0 40 40" fill="none">
  <rect width="39" height="39" y="0.29%" fill="#E91315" rx="50%"/>
  <mask id="a" width="22" height="24" x="7" y="8" maskUnits="userSpaceOnUse" style="mask-type:luminance">
    <path fill="#fff" d="M7.179 8H28.82v24H7.179V8Z"/>
  </mask>
  <g fill="#fff" mask="url(#a)">
    <path d="M21.514 13.662H17.2a.297.297 0 0 0-.292.292V29.52c0 .718-.021 1.44 0 2.156v.03c0 .159.134.293.292.293h5.664a.297.297 0 0 0 .292-.292v-5.665l-.292.292h5.665a.297.297 0 0 0 .292-.292v-4.65c0-.236.003-.475-.006-.712a7.267 7.267 0 0 0-.402-2.122 7.349 7.349 0 0 0-2.406-3.35 7.348 7.348 0 0 0-4.492-1.546c-.376 0-.376.583 0 .584a6.774 6.774 0 0 1 3.814 1.184 6.713 6.713 0 0 1 2.884 4.966c.024.29.024.58.024.87v3.979c0 .252-.015.51 0 .761v.036l.292-.292h-5.665a.297.297 0 0 0-.292.292v5.665l.292-.292H17.2l.292.292V14.679c0-.23.015-.464 0-.694v-.03l-.292.291h4.315c.376 0 .376-.584 0-.584Z"/>
    <path d="m28.322 25.837-1.92 1.92-3.045 3.045-.7.7c-.266.266.147.679.414.413l1.919-1.918 3.046-3.046.7-.7c.265-.266-.148-.679-.414-.414ZM22.786 14.364c.717.15 1.35.463 1.823 1.01.095.11.167.207.256.352a3.171 3.171 0 0 1 .243.486c.012.032.025.064.035.097a4.011 4.011 0 0 1 .174.708c.007.048 0-.014.007.051l.012.116a4.248 4.248 0 0 1-.018.907c-.006.048.006-.042 0 .005l-.008.055-.02.121a4.258 4.258 0 0 1-.168.615l-.031.083-.02.046c-.012.033.018-.04-.004.01a3.275 3.275 0 0 1-.177.343 4.18 4.18 0 0 1-.85 1 2.426 2.426 0 0 1-2.224.516c-.41-.106-.789-.315-1.206-.398-.446-.088-.892-.004-1.2.353-.278.32-.42.722-.327 1.143.072.33.275.619.426.917.15.298.235.627.137.986-.084.307-.292.539-.55.62a1.32 1.32 0 0 1-.16.037c.045-.006-.006 0-.013 0-.041.002-.08.004-.122.002l-.06-.003c-.05-.005 0 0-.03-.005a.964.964 0 0 1-.436-.191c-.223-.169-.345-.425-.44-.706-.203-.594-.282-1.168-.33-1.75a3.968 3.968 0 0 1-.008-.119c-.023-.373-.607-.376-.584 0 .03.527.107 1.06.23 1.574.178.747.509 1.515 1.32 1.735.813.221 1.645-.363 1.783-1.207.074-.45-.03-.864-.232-1.265-.081-.16-.172-.311-.253-.47a3.13 3.13 0 0 1-.056-.118 1.063 1.063 0 0 1-.02-.053c-.011-.037-.023-.072-.032-.11a.895.895 0 0 1-.012-.054c-.012-.054 0 .014-.002-.02a.772.772 0 0 1 0-.127c0-.008.008-.056 0-.01l.012-.06a.67.67 0 0 1 .101-.226c.104-.168.243-.288.425-.32.14-.025.332.017.5.067.215.065.423.152.633.229.885.323 1.847.292 2.664-.201 1.31-.79 2.036-2.288 1.962-3.795-.034-.692-.222-1.387-.6-1.972a3.552 3.552 0 0 0-1.764-1.39 4.314 4.314 0 0 0-.623-.178c-.155-.032-.316.046-.36.205-.04.144.049.327.204.36h-.007Z"/>
    <path d="M22.424 17.519a2.033 2.033 0 0 0-1.325-1.886 1.993 1.993 0 0 0-2.215.594c-.538.652-.627 1.59-.19 2.32a2.03 2.03 0 0 0 2.123.938c.932-.177 1.596-1.032 1.608-1.966.005-.376-.58-.376-.584 0-.007.585-.37 1.14-.932 1.337a1.461 1.461 0 0 1-1.612-.458 1.411 1.411 0 0 1-.087-1.629c.31-.502.918-.767 1.491-.645a1.44 1.44 0 0 1 1.14 1.396c.005.376.589.376.584 0l-.001-.001Z"/>
    <path d="M20.417 18.13a.612.612 0 1 0 0-1.224.612.612 0 0 0 0 1.224ZM17.198 12.997h8.281c1.657 0 2.472-1.115 2.622-1.748.15-.633-.61-2.231-2.46-.24 0 0 1.104-2.14-.373-2.623-1.478-.482-3.176.995-3.849 2.412 0 0 .081-1.748-1.44-1.326-1.523.423-2.782 3.526-2.782 3.526h.001Z"/>
    <path d="M17.198 13.29h8.196c.617 0 1.226-.117 1.762-.434.536-.316 1.08-.886 1.227-1.53a1.39 1.39 0 0 0-.442-1.31c-.589-.493-1.344-.201-1.885.214a5.239 5.239 0 0 0-.621.572l.459.354c.125-.243.223-.505.299-.767.13-.45.211-.976.051-1.432-.214-.612-.784-.897-1.401-.95-.73-.062-1.462.259-2.037.684a5.342 5.342 0 0 0-1.639 1.959l.544.147a2.152 2.152 0 0 0-.167-.915 1.274 1.274 0 0 0-.482-.594c-.277-.176-.612-.197-.929-.148-.655.101-1.185.549-1.603 1.037-.418.488-.79 1.075-1.103 1.662-.187.351-.36.711-.511 1.08-.06.146.064.321.204.36.167.045.3-.057.36-.205.024-.06.003-.008-.004.008l.07-.16c.082-.184.169-.365.259-.544.265-.524.561-1.036.912-1.508a4.99 4.99 0 0 1 .585-.657 2.09 2.09 0 0 1 .458-.338c.029-.016.057-.031.087-.045.014-.007.104-.046.056-.027.124-.049.295-.092.392-.102.065-.005.13-.004.197-.003l.042.003c-.054-.005-.008 0 .002 0a.944.944 0 0 1 .168.05c-.061-.026.011.007.025.016l.067.042c.005.003.035.027.005.003-.032-.026.016.014.022.02.015.015.031.03.045.046.006.007.057.068.033.036a.767.767 0 0 1 .07.113c.013.026.026.05.037.076.022.045-.015-.046.007.018.018.051.036.102.05.155a2.338 2.338 0 0 1 .046.214c.014.078-.001-.034.001.007.007.1.019.198.015.299-.012.28.418.41.545.147a4.906 4.906 0 0 1 1.227-1.587c.45-.386 1.025-.726 1.63-.768.258-.017.574.023.775.123a.637.637 0 0 1 .222.155.658.658 0 0 1 .071.084c.028.045.054.09.075.136-.027-.058.007.017.01.026l.023.073c.011.042.02.084.028.128.016.085-.005-.06.003.026.002.027.005.053.006.08a1.744 1.744 0 0 1-.01.322c0 .007-.011.096-.002.03a3.095 3.095 0 0 1-.082.388c-.05.184-.113.362-.185.539.03-.074 0-.002-.013.029l-.032.069-.03.062c-.146.284.222.606.459.354.176-.188.36-.373.568-.53.137-.103.337-.227.46-.276.072-.028.145-.048.22-.066l.038-.007c.045-.008-.047.004-.002 0 .036-.002.07-.004.107-.004.021 0 .11.01.034 0a.55.55 0 0 1 .073.015c.027.007.053.016.08.024.038.012-.05-.023-.013-.005l.044.022a1.24 1.24 0 0 1 .1.063s-.045-.038-.021-.015c.04.037.079.075.116.117.03.036-.028-.047.013.02.012.02.025.037.037.056l.037.068c.01.021.043.104.014.027.016.044.033.089.044.134l.018.072c.006.025.014.11.006.02.003.042.008.084.008.126l-.001.056-.003.03c0 .05.02-.062.003-.019-.017.041-.023.09-.037.133l-.024.07c-.028.078.014-.02-.025.057a2.77 2.77 0 0 1-.204.345 2.505 2.505 0 0 1-.29.32c-.126.115-.243.201-.4.292-.45.262-.952.345-1.466.345h-5.996c-.716 0-1.436-.02-2.152 0H17.2c-.376 0-.376.584 0 .584v.003ZM17.277 22.93l-2.423-.832-.344-.118.07.534 2.426-1.052.341-.148c.145-.063.178-.274.105-.4-.087-.149-.254-.168-.399-.105l-2.426 1.052c-.113.049-.228.098-.34.148-.25.109-.143.461.07.534l2.423.831.343.118c.356.123.51-.441.155-.563Z"/>
    <path d="m17.405 20.314-2.418-1.972-.348-.284-.207.499h2.767c.376 0 .376-.584 0-.584h-2.767c-.235 0-.41.332-.207.498l2.419 1.973c.116.095.231.19.348.284.123.1.293.119.413 0 .103-.103.123-.313 0-.414Z"/>
    <path d="M22.863 14.085c3.1.63 3.22 4.006 2.226 5.514-.874 1.325-2.02 1.929-3.376 1.567-.775-.207-1.646-.852-2.21.034-.593.93.614 1.443.463 2.558-.15 1.114-1.299 1.414-2.02.693-.629-.63-.746-2.675-.746-2.675v-7.82l5.665.129h-.002Zm-.91 3.433a1.537 1.537 0 1 0-3.073 0 1.537 1.537 0 0 0 3.074 0Z"/>
    <path fill-rule="evenodd" d="M14.924 20.497a.085.085 0 0 1-.017.008l-.017.008c-.214.11-.42.216-.632.354-.147.096-.278.218-.408.338a6.186 6.186 0 0 1-.2.18c-.292.247-.607.471-.953.632-.399.186-.817.3-1.283.285-.466-.015-.924-.147-1.353-.317a7.737 7.737 0 0 1-1.068-.527l-.004-.003c-.055-.031-.114-.065-.103-.138.008-.056.048-.087.102-.093a.333.333 0 0 1 .114.018.574.574 0 0 0 .063.014c.068.01.135.016.203.016.104 0 .207-.012.307-.04.19-.054.633-.298.525-.565-.055-.136-.243-.205-.37-.246a2.735 2.735 0 0 0-.741-.115c-.251-.009-.487-.02-.731-.086a3.751 3.751 0 0 1-.684-.263c-.144-.069-.297-.142-.426-.236-.048-.035-.089-.08-.062-.145.026-.06.088-.069.148-.077l.047-.008c.507-.108.918-.537 1.22-.934.05-.067.097-.137.143-.207.083-.126.166-.251.274-.356a1.56 1.56 0 0 1 .48-.312 2.112 2.112 0 0 1 .511-.145.835.835 0 0 1 .109-.017c-.024-.015-.047-.038-.07-.06a.495.495 0 0 0-.054-.049 1.802 1.802 0 0 0-.293-.163l-.013-.006c-.05-.022-.102-.045-.111-.108-.019-.148.265-.185.415-.204l.06-.008c.783-.131 1.542.09 2.162.578.27.211.507.462.72.732.091.117.173.242.255.366.09.14.182.278.287.406.296.362.705.625 1.116.839.035.018.076.035.12.053.126.053.268.113.325.219.073.134.021.283-.094.367a.078.078 0 0 1-.02.014Zm-3.613.001a.068.068 0 0 1 .062-.108c.769.067.654-.53.289-.798-.272-.199-.731-.235-.978-.221-.072.003-.098-.096-.032-.129.62-.315 1.59-.33 2.21.166.715.573.715 1.145-.286 1.431-.738.211-1.116-.141-1.265-.341Z" clip-rule="evenodd"/>
  </g>
</svg>
