<svg xmlns="http://www.w3.org/2000/svg" height="100%" fill="none"><path fill="currentColor" d="M64 36.56h-3.06v18.28H64V36.56Z"/><path fill="currentColor" d="M54.84 36.56h6.1v-3.04h-6.1v-12.2H51.8v39.62h3.04V57.9h6.1v-3.06h-6.1V36.56ZM51.8 15.22h-3.04v6.1h3.04v-6.1ZM51.8 60.94H12.18V64H51.8v-3.06ZM48.76 39.62H45.7v15.22h3.06V39.62ZM48.76 12.18h-6.1v3.04h6.1v-3.04ZM45.7 54.84H18.28v3.06H45.7v-3.06ZM21.32 42.66v3.04h3.06v6.1h3.04v-6.1h15.24v-3.04H21.32ZM36.56 0h-9.14v3.04h9.14V0ZM27.42 27.42h3.04v3.04h3.06v-3.04h3.04v-3.04h3.04v-3.06h-3.04v-3.04h-3.04v3.04h-3.06v-3.04h-3.04v3.04h-3.04v3.06h3.04v3.04ZM42.66 12.18V9.14H39.6v-6.1h-3.04v6.1h-9.14v-6.1h-3.04v6.1h-3.06v3.04h21.34ZM45.7 36.56H18.28v3.06H45.7v-3.06ZM21.32 12.18h-6.1v3.04h6.1v-3.04ZM18.28 39.62h-3.06v15.22h3.06V39.62ZM15.22 15.22h-3.04v6.1h3.04v-6.1ZM12.18 21.32H9.14v12.2h-6.1v3.04h6.1v18.28h-6.1v3.06h6.1v3.04h3.04V21.32ZM3.04 36.56H0v18.28h3.04V36.56Z"/></svg>