<svg xmlns="http://www.w3.org/2000/svg" height="100%" fill="none"><path fill="currentColor" d="M60.107 47.25h-3.06V44.2h-3.04v-3.04h-3.06v-6.1h-3.04v6.1h-3.04v3.04h-3.06v3.06h-6.08v3.04h6.08v3.04h3.06v3.06h3.04v3.04h3.04v3.04h9.16v-3.04h3.04V50.3h-3.04v-3.05Zm0 9.14h-3.06v-3.06h-3.04v-3.04h-3.06v-3.04h3.06v3.04h3.04v3.04h3.06v3.06ZM54.007 19.81h-3.06v15.24h3.06V19.81Z"/><path fill="currentColor" d="M50.947 13.71h-3.04v6.1h3.04v-6.1ZM47.907 10.67h-3.04v3.04h3.04v-3.04ZM44.867 25.91h-3.06v3.04h3.06v-3.04ZM44.867 7.63h-3.06v3.04h3.06V7.63ZM41.807 28.95h-3.04v3.06h3.04v-3.06ZM41.807 22.85h-3.04v3.06h3.04v-3.06ZM38.767 32.01h-3.04v3.04h3.04v-3.04ZM38.767 19.81h-3.04v3.04h3.04v-3.04Z"/><path fill="currentColor" d="M41.807 4.57h-6.08v3.06h6.08V4.57ZM35.727 50.29h-15.24v3.04h15.24v-3.04ZM32.667 19.81h-3.04v6.1h3.04v-6.1ZM29.627 25.91h-3.06v3.04h3.06v-3.04ZM26.567 28.95h-3.04v6.1h3.04v-6.1ZM35.727 1.53h-15.24v3.04h15.24V1.53ZM20.487 47.25h-6.1v3.04h6.1v-3.04ZM20.487 32.01h-3.06v3.04h3.06v-3.04ZM20.487 19.81h-3.06v3.04h3.06v-3.04ZM20.487 4.57h-6.1v3.06h6.1V4.57ZM17.427 28.95h-3.04v3.06h3.04v-3.06ZM17.427 22.85h-3.04v3.06h3.04v-3.06ZM14.387 44.19h-3.04v3.06h3.04v-3.06ZM14.387 25.91h-3.04v3.04h3.04v-3.04Z"/><path fill="currentColor" d="M14.387 7.63h-3.04v3.04h3.04V7.63ZM11.347 41.15h-3.06v3.04h3.06v-3.04ZM11.347 10.67h-3.06v3.04h3.06v-3.04ZM8.287 35.05h-3.04v6.1h3.04v-6.1ZM8.287 13.71h-3.04v6.1h3.04v-6.1ZM5.247 19.81h-3.06v15.24h3.06V19.81Z"/></svg>