<svg xmlns="http://www.w3.org/2000/svg" height="100%" fill="none"><g fill="currentColor" clip-path="url(#a)"><path d="M64.333 36.57h-3.04v3.06h3.04v-3.06ZM61.293 33.53h-6.1v3.04h6.1v-3.04ZM58.233 27.43h-3.04v3.06h3.04v-3.06Z"/><path d="M46.053 30.49v-6.1h-3.04v-3.06h-3.06v-6.08h3.06v-3.06h12.18v3.06h3.04v12.18h3.06V9.15h-3.06V6.09h-3.04V3.05h-12.18v3.04h-3.06v3.06h-3.04v9.14h-9.14V9.15h-3.06V6.09h-3.04V3.05h-12.2v3.04h-3.04v3.06h-3.04v18.28h3.04V15.25h3.04v-3.06h12.2v3.06h3.04v6.08h-3.04v3.06h-3.04v6.1h-9.16v3.04h9.16v12.18h3.04V30.49h3.04v-3.06h15.24v3.06h3.06v15.22h3.04V33.53h9.14v-3.04h-9.14ZM52.153 57.91h-3.06v3.04h3.06v-3.04ZM49.093 54.87h-3.04v3.04h3.04v-3.04ZM46.053 51.81h-6.1v3.06h6.1v-3.06ZM43.013 45.71h-3.06v3.06h3.06v-3.06Z"/><path d="M39.953 33.53h-3.04v6.1h3.04v-6.1ZM39.953 48.77h-15.24v3.04h15.24v-3.04ZM36.913 42.67h-9.14v3.04h9.14v-3.04ZM27.773 33.53h-3.06v6.1h3.06v-6.1ZM24.713 45.71h-3.04v3.06h3.04v-3.06ZM24.713 51.81h-6.08v3.06h6.08v-3.06ZM18.633 54.87h-3.06v3.04h3.06v-3.04ZM15.573 57.91h-3.04v3.04h3.04v-3.04ZM9.473 27.43h-3.04v3.06h3.04v-3.06ZM9.473 33.53h-6.08v3.04h6.08v-3.04ZM3.393 36.57H.333v3.06h3.06v-3.06Z"/></g><defs><clipPath id="a"><path fill="#fff" d="M.333 0h64v64h-64z"/></clipPath></defs></svg>