<svg xmlns="http://www.w3.org/2000/svg" height="100%" fill="none"><path fill="currentColor" d="M31.765 15.238v3.8H8.902v-3.8h-1.9v9.524h1.9V20.95h22.863v3.813h1.9v-9.526h-1.9Z"/><path fill="currentColor" d="M8.902 24.762v1.9h1.9v1.9h3.813v-1.9H26.04v1.9h3.812v-1.9h1.913v-1.9H8.902ZM12.715 36.187v-1.912h-1.913v1.912h-1.9V40h1.9v-1.913h19.05V40h1.913v-3.813h-1.913v-1.912h-1.9v1.912H12.715ZM27.952 32.375h-3.813v1.9h3.813v-1.9ZM26.04 28.563h-1.9v1.912h1.9v-1.913ZM26.04 9.512h-1.9v1.913h1.9V9.512ZM27.952 5.712h-3.813v1.9h3.813v-1.9ZM24.14 30.475h-7.613v1.9h7.613v-1.9ZM24.14 7.613h-7.613v1.9h7.613v-1.9ZM16.527 32.375h-3.812v1.9h3.812v-1.9ZM16.527 28.563h-1.912v1.912h1.912v-1.913ZM16.527 9.512h-1.912v1.913h1.912V9.512ZM16.527 5.712h-3.812v1.9h3.812v-1.9Z"/><path fill="currentColor" d="M27.952 3.8v1.913h1.9V3.8h1.913V0h-1.913v1.9h-19.05V0h-1.9v3.8h1.9v1.913h1.913V3.8h15.237ZM31.765 15.238v-1.913h-1.913v-1.9H26.04v1.9H14.615v-1.9h-3.813v1.9h-1.9v1.913h22.863Z"/></svg>