<svg xmlns="http://www.w3.org/2000/svg" height="100%" fill="none"><g fill="currentColor" clip-path="url(#a)"><path d="M36.857 5.719h-1.9v32.375h1.9V5.719ZM34.957 3.806h-1.913V5.72h1.913V3.806ZM33.044 1.906h-1.9v1.9h1.9v-1.9ZM33.042 9.519h-1.9V7.625h-1.9V5.719h-1.913V3.806H4.482V40h28.56V9.519Zm-1.9 28.575H6.382V5.719h17.137v7.612h7.625l-.002 24.763ZM31.144-.006H6.382v1.912h24.762V-.006Z"/><path d="M27.332 32.381H10.194v1.9h17.138v-1.9ZM27.332 24.756H10.194v1.913h17.138v-1.913ZM27.332 17.144H10.194v1.9h17.138v-1.9ZM17.807 9.519h-7.613v1.912h7.613V9.52Z"/></g><defs><clipPath id="a"><path fill="#fff" d="M.667 0h40v40h-40z"/></clipPath></defs></svg>