<svg xmlns="http://www.w3.org/2000/svg" height="100%" fill="none"><path fill="currentColor" d="M29.858 17.15v1.9h3.813v5.712h1.9V11.425h-1.9v5.725h-3.813ZM31.758 28.575H12.721v-1.9h-1.913v1.9h-1.9v5.713h26.663v-5.713h-1.9v-3.813h-1.913v3.813Zm0 3.813h-3.8v-1.913h3.8v1.913ZM33.67 9.525h-1.912v1.9h1.913v-1.9ZM27.958 17.15h1.9V9.525h1.9v-1.9h-3.8v9.525ZM27.958 17.15h-3.812v1.9h3.812v-1.9ZM20.333 19.05h-5.712v1.9h5.712v-1.9Z"/><path fill="currentColor" d="M16.52 11.425h-1.9v1.912h3.813V7.625h3.813v5.712h-3.813v1.9h1.9v3.813h1.913v-1.9h1.9V7.625h3.812V5.712H12.721v1.913h3.8v3.8ZM14.62 17.15h-1.9v1.9h1.9v-1.9Z"/><path fill="currentColor" d="M14.62 11.425v-1.9h-1.9v-1.9h-1.912v1.9h-1.9v1.9h5.713ZM10.808 24.762h-1.9v1.913h1.9v-1.913ZM8.908 20.95h-1.9v3.813h1.9V20.95ZM8.908 11.425h-1.9v1.912h1.9v-1.912ZM7.008 13.337H5.096v7.613h1.912v-7.613Z"/></svg>