<svg xmlns="http://www.w3.org/2000/svg" height="100%" fill="none"><g fill="currentColor" clip-path="url(#a)"><path d="M57.92 12.2V0H27.44v3.04h-12.2V6.1H6.1v21.34H3.06v6.08H0V64h64V12.2h-6.08ZM15.24 60.96H3.06v-18.3h12.18v18.3Zm0-21.34H9.16V9.14h6.08v30.48ZM18.3 6.1h9.14v3.04h-6.1v30.48H18.3V6.1Zm9.14 6.1v27.42H24.4V12.2h3.04Zm3.04 48.76H18.3v-18.3h12.18v18.3Zm30.48 0H33.54V39.62h-3.06V3.04h24.38v9.16h-9.14v3.04h15.24v45.72Z"/><path d="M54.86 42.66h-3.04v3.06h3.04v-3.06ZM54.86 36.58h-3.04v3.04h3.04v-3.04ZM51.82 45.72h-6.1v3.04h6.1v-3.04ZM45.72 42.66h-3.04v3.06h3.04v-3.06ZM45.72 36.58h-3.04v3.04h3.04v-3.04ZM45.72 15.24h-3.04v6.1h3.04v-6.1ZM42.68 21.34h-3.06v6.1h3.06v-6.1ZM39.62 27.44h-3.04v6.08h3.04v-6.08ZM39.62 6.1h-3.04v3.04h3.04V6.1ZM36.58 33.52h-3.04v6.1h3.04v-6.1ZM27.44 48.76h-6.1v6.1h6.1v-6.1ZM12.2 48.76H6.1v6.1h6.1v-6.1Z"/></g><defs><clipPath id="a"><path fill="#fff" d="M0 0h64v64H0z"/></clipPath></defs></svg>