<svg xmlns="http://www.w3.org/2000/svg" height="100%" fill="none"><g fill="currentColor" clip-path="url(#a)"><path d="M28.563 9.525v3.813h-1.9v5.712h1.9v1.9h1.912v1.913h-5.713v1.9H22.85v1.9h5.712v3.812h-1.9v3.813h1.9v1.9h3.813v-1.9h1.913v-1.913h1.9v-3.8h1.9v-3.813H40v-9.524h-1.913v-3.813h-1.9v-3.8h-1.9v1.9h-5.724ZM34.288 5.712h-1.913v1.913h1.913V5.712ZM32.375 3.813h-3.813v1.9h3.813v-1.9Z"/><path d="M28.563 36.188h-3.8V38.1h3.8v-1.913ZM28.563 1.9h-3.8v1.912h3.8V1.9ZM20.95 36.188h-1.9v-1.9h-5.725v1.9h-1.9V38.1h3.813V40h9.524v-1.9H20.95v-1.912ZM24.762 0h-9.524v1.9h9.524V0ZM13.325 20.95h1.913v1.913h1.9v-5.726h-3.813v3.813ZM11.425 34.288H7.612v1.9h3.813v-1.9ZM7.613 32.375h-1.9v1.913h1.9v-1.913Z"/><path d="M3.813 28.575v3.8h1.9v-1.9h1.9v-1.9h1.912v-5.713H7.612V20.95h-1.9v-1.9h-1.9v-1.913h1.9v-1.9h5.713v-1.9h1.9v-1.912h1.913v1.912h1.9v-1.912h1.912v-3.8h-1.913V5.712h-3.812v-1.9h1.913V1.9h-3.813v1.912H7.612v1.9h-1.9v1.913h-1.9v3.8H1.9v3.812H0v9.525h1.9v3.813h1.913Z"/></g><defs><clipPath id="a"><path fill="#fff" d="M0 0h40v40H0z"/></clipPath></defs></svg>