<svg xmlns="http://www.w3.org/2000/svg" height="100%" fill="none"><g fill="currentColor" clip-path="url(#a)"><path d="M38.754 9.512h-1.9v3.813h-3.812v1.913h-3.813v1.9h3.813v5.712h-1.9v1.912h1.9v3.8h1.9V15.238h1.912v17.138h-1.912V40h5.725v-7.625h-1.913V9.512Z"/><path d="M36.854 7.613h-3.812v1.9h3.812v-1.9ZM33.042 28.563h-1.9v1.912h1.9v-1.913ZM33.042 11.425h-7.625v1.9h7.625v-1.9ZM33.042 5.712h-3.813v1.9h3.813v-1.9ZM31.142 30.475h-3.813v1.9h3.813v-1.9ZM31.142 24.762h-3.813v1.9h3.813v-1.9ZM29.23 17.137h-3.813v1.9h3.812v-1.9Z"/><path d="M29.23 3.8h-3.813v1.913h3.812V3.8ZM27.33 32.375H12.091v1.9h15.237v-1.9ZM27.33 26.663H12.091v1.9h15.237v-1.9ZM25.417 19.038h-3.8v1.912h3.8v-1.912ZM25.417 9.512h-7.613v1.913h7.613V9.512ZM25.417 1.9h-3.8v1.9h3.8V1.9ZM21.617 0h-3.813v1.9h3.813V0ZM21.617 20.95h-3.813v1.9h3.813v-1.9ZM17.804 1.9h-3.812v1.9h3.812V1.9ZM17.804 19.038h-3.812v1.912h3.812v-1.912ZM13.992 3.8h-3.813v1.913h3.813V3.8ZM12.092 30.475H8.279v1.9h3.813v-1.9ZM12.092 24.762H8.279v1.9h3.813v-1.9ZM13.992 17.137h-3.813v1.9h3.813v-1.9Z"/><path d="M10.18 5.712h-3.8v1.9h3.8v-1.9ZM8.28 28.563h-1.9v1.912h1.9v-1.913ZM8.28 24.762V22.85h-1.9v-5.713h3.8v-1.9h-3.8v-1.912H2.566v1.913h1.9v13.325h1.912v-3.8h1.9ZM6.38 7.613H2.566v1.9h3.812v-1.9Z"/><path d="M2.567 9.512h-1.9v3.813h1.9V9.512Z"/></g><defs><clipPath id="a"><path fill="#fff" d="M.667 0h40v40h-40z"/></clipPath></defs></svg>