<svg xmlns="http://www.w3.org/2000/svg" height="100%" fill="none"><g fill="currentColor" clip-path="url(#a)"><path d="M40.002 11.431H38.09v24.763h1.912V11.43ZM38.09 36.194h-1.9v1.9h1.9v-1.9ZM36.19 15.244h-1.9V34.28h1.9V15.244ZM34.29 36.194h-1.913v1.9H3.815v1.9H36.19v-1.9h-1.9v-1.9Z"/><path d="M30.477 36.194h1.9V11.43h5.713V9.52h-5.713V3.806h-1.9v32.388ZM28.578 34.281H7.614v1.913h20.962V34.28ZM28.578 19.044h-5.726v5.712h5.726v-5.712ZM20.953 19.044H15.24v1.912h5.713v-1.912ZM20.953 22.856H15.24v1.9h5.713v-1.9ZM28.578 30.481H3.814v1.9h24.762v-1.9ZM28.578 26.669H3.814v1.9h24.762v-1.9ZM13.34 22.856H3.815v1.9h9.525v-1.9ZM13.34 19.044H3.815v1.912h9.525v-1.912ZM28.578 17.144V7.625H3.814v9.525l24.762-.006ZM5.715 9.519h7.625v1.912h-1.912v1.9h-1.9v1.919H5.714V9.519ZM30.477 1.906H1.903v1.9h28.575v-1.9ZM3.815 36.194H1.903v1.9h1.912v-1.9ZM1.903 3.806h-1.9v32.388h1.9V3.806Z"/></g><defs><clipPath id="a"><path fill="#fff" d="M0 0h40v40H0z"/></clipPath></defs></svg>