<svg xmlns="http://www.w3.org/2000/svg" height="100%" fill="none"><path fill="currentColor" d="M56.38 27.42h-3.04v21.34h3.04V27.42ZM50.279 54.86h-30.46v-3.04h-3.06v3.04h-3.04V64h42.66v-9.14h-3.04v-6.1h-3.06v6.1Zm0 6.1h-6.08V57.9h6.08v3.06ZM53.34 24.38h-3.06v3.04h3.06v-3.04ZM47.24 27.42H44.2v9.16h3.04v-9.16ZM50.28 21.34H44.2v3.04h6.08v-3.04ZM38.099 27.42h-3.04v9.16h3.04v-9.16ZM28.958 27.42h-3.06v9.16h3.06v-9.16ZM25.898 21.34h18.3v-3.06h-15.24V3.04h-3.06v18.3ZM25.898 0h-6.08v3.04h6.08V0ZM16.759 39.62h3.06V3.04h-3.06v21.34h-3.04v3.04h3.04v12.2ZM16.759 48.76h-3.04v3.06h3.04v-3.06ZM13.72 42.66h-3.04v6.1h3.04v-6.1Z"/><path fill="currentColor" d="M13.72 27.42h-3.04v3.06h3.04v-3.06ZM10.68 30.48H7.62v12.18h3.06V30.48Z"/></svg>