<svg xmlns="http://www.w3.org/2000/svg" height="100%" fill="none"><path fill="currentColor" d="M64 3.04h-3.04v39.62H64V3.04ZM3.06 42.66v3.06h9.14v6.08h3.04v-6.08h3.04v6.08h3.06v-6.08h21.32v6.08h3.06v-6.08h3.04v6.08h3.06v-6.08h9.14v-3.06H3.06ZM51.82 60.94h-3.06V64h6.1V51.8h-3.04v9.14ZM57.9 36.56h-9.14v3.06h9.14v-3.06ZM57.9 30.48h-9.14v3.04h9.14v-3.04ZM48.76 18.28v9.14h9.14v-9.14h-9.14Zm6.1 6.1h-3.04v-3.06h3.04v3.06ZM48.76 6.1v9.14h9.14V6.1h-9.14Zm6.1 6.08h-3.04V9.14h3.04v3.04ZM48.76 51.8h-3.04v9.14h3.04V51.8ZM42.66 9.14h-3.04V6.1H12.2v3.04H9.14v3.04H6.1v21.34h3.04v3.04h3.06v3.06h27.42v-3.06h3.04v-3.04h3.06V12.18h-3.06V9.14Zm0 12.18h-3.04v-3.04h-3.04v-3.04h-3.06v3.04h-3.04v3.04h-3.04v3.06h-3.06v-3.06h-3.04v6.1h3.04v3.06h3.06v-3.06h3.04v-3.04h3.04v-3.06h3.06v3.06h3.04v3.04h3.04v3.06h-3.04v-3.06h-3.04v-3.04h-3.06v3.04h-3.04v3.06h-3.04v3.04h-3.06v-3.04h-3.04v-3.06h-3.06v-6.1h-3.04v3.06H12.2v3.04H9.14v-3.04h3.06v-3.06h3.04v-3.04h3.04v-6.1h-3.04v3.06H12.2v3.04H9.14v-3.04h3.06v-3.06h3.04V9.14h3.04v3.04h3.06v6.1h3.04v3.04h3.06v-3.04h3.04v-3.04h3.04v-3.06h3.06v3.06h3.04v3.04h3.04v3.04Z"/><path fill="currentColor" d="M21.34 18.28h-3.06v3.04h3.06v-3.04ZM18.28 51.8h-3.04v9.14h3.04V51.8ZM12.2 51.8H9.14V64h6.1v-3.06H12.2V51.8Z"/><path fill="currentColor" d="M3.06 6.1H6.1V3.04h54.86V0H3.06v3.04H0v39.62h3.06V6.1Z"/></svg>