<svg width="140" height="50" fill="none" xmlns="http://www.w3.org/2000/svg"><path d="M39.236 7.283h2.877V6.132h-2.877V3.904h3.536V2.756h-4.68v7.902h1.147l-.002-3.375ZM45.197 2.647h-1.146v1.115h1.146V2.647ZM45.197 4.731h-1.146v5.927h1.146V4.73ZM48.286 2.592H47.14v8.067h1.146V2.591ZM51.3 10.437c.473.264 1.009.397 1.55.386a2.939 2.939 0 0 0 1.564-.447 2.654 2.654 0 0 0 1.048-1.233l-1.125-.347a1.626 1.626 0 0 1-.613.7c-.28.166-.602.25-.929.24a1.518 1.518 0 0 1-1.252-.535 2.12 2.12 0 0 1-.417-1.19h4.418a4.142 4.142 0 0 0-.242-1.836 2.52 2.52 0 0 0-.965-1.19 2.744 2.744 0 0 0-1.542-.42 2.915 2.915 0 0 0-1.52.39 2.654 2.654 0 0 0-1.018 1.104 3.62 3.62 0 0 0-.367 1.69 3.36 3.36 0 0 0 .372 1.609c.236.45.596.825 1.037 1.079Zm.24-4.313a1.562 1.562 0 0 1 1.296-.542 1.375 1.375 0 0 1 1.161.494c.215.31.34.672.364 1.047H51.15c.04-.361.176-.706.393-.999h-.002ZM58.102 10.417a2.818 2.818 0 0 0 1.544.405 2.753 2.753 0 0 0 1.624-.463c.46-.324.8-.792.966-1.33l-1.163-.275a1.6 1.6 0 0 1-.524.724 1.47 1.47 0 0 1-.898.241 1.421 1.421 0 0 1-1.228-.55 2.485 2.485 0 0 1-.42-1.481c-.002-.36.06-.717.184-1.055.104-.288.29-.54.535-.724.273-.186.6-.28.93-.265a1.48 1.48 0 0 1 .885.277c.264.195.46.469.557.782l1.142-.33a2.259 2.259 0 0 0-.9-1.323c-.49-.33-1.07-.5-1.66-.482a2.864 2.864 0 0 0-1.543.4c-.427.267-.77.65-.986 1.105a3.693 3.693 0 0 0-.353 1.622 3.745 3.745 0 0 0 .345 1.61c.209.454.543.84.963 1.112ZM64.697 10.421a3.163 3.163 0 0 0 3.08 0A2.69 2.69 0 0 0 68.79 9.32a3.873 3.873 0 0 0 0-3.25 2.7 2.7 0 0 0-1.012-1.103 3.166 3.166 0 0 0-3.066 0 2.717 2.717 0 0 0-1.016 1.097 3.538 3.538 0 0 0-.362 1.634c-.01.562.111 1.12.354 1.626.226.454.576.835 1.01 1.098Zm.039-3.793c.108-.292.3-.544.555-.724.281-.183.612-.274.948-.26a1.493 1.493 0 0 1 1.267.555c.302.435.45.957.424 1.486a2.466 2.466 0 0 1-.42 1.484 1.689 1.689 0 0 1-2.528.012 2.399 2.399 0 0 1-.427-1.491 2.845 2.845 0 0 1 .18-1.062ZM71.897 4.731h-1.146v5.927h1.146V4.73ZM71.897 2.647h-1.146v1.115h1.146V2.647ZM77.956 10.659h1.163V7.367a4.667 4.667 0 0 0-.048-.637 3.397 3.397 0 0 0-.186-.74 2.398 2.398 0 0 0-.398-.7 1.908 1.908 0 0 0-.678-.52 2.394 2.394 0 0 0-1.03-.185 2.586 2.586 0 0 0-1.368.345 2.275 2.275 0 0 0-.591.536v-.724h-1.026v5.917h1.163V7.575a2.897 2.897 0 0 1 .118-.895c.064-.219.174-.42.324-.592.13-.147.297-.259.482-.325.186-.07.383-.104.582-.102.268-.013.534.055.765.193.193.126.35.3.456.505.109.213.183.441.22.678.036.235.055.472.057.71l-.005 2.912ZM39.236 19.478h2.877V18.34h-2.877v-2.241h3.536V14.96h-4.68v7.893h1.147l-.002-3.376ZM44.852 22.617a3.164 3.164 0 0 0 3.08 0 2.675 2.675 0 0 0 1.012-1.103 3.86 3.86 0 0 0 0-3.25 2.678 2.678 0 0 0-1.008-1.103 3.159 3.159 0 0 0-3.067 0 2.683 2.683 0 0 0-1.016 1.098 3.51 3.51 0 0 0-.362 1.633c-.012.563.109 1.12.352 1.627.227.453.576.834 1.01 1.098Zm.039-3.796c.107-.292.3-.545.555-.724.284-.177.616-.261.95-.241a1.484 1.484 0 0 1 1.265.557c.302.434.451.956.425 1.484a2.432 2.432 0 0 1-.42 1.48 1.689 1.689 0 0 1-2.53.014 2.399 2.399 0 0 1-.426-1.491 2.843 2.843 0 0 1 .18-1.062v-.017ZM56.08 22.853v-5.926h-1.158v3.084c.006.302-.033.603-.118.892-.063.22-.174.422-.324.594a1.207 1.207 0 0 1-.482.326c-.186.07-.384.104-.582.101a1.371 1.371 0 0 1-.765-.193 1.277 1.277 0 0 1-.454-.497 2.236 2.236 0 0 1-.22-.678 4.345 4.345 0 0 1-.057-.71v-2.92h-1.163v3.292c.003.213.019.426.048.637a3.7 3.7 0 0 0 .186.74c.093.255.228.49.398.7.184.222.416.4.678.52.326.14.678.207 1.033.197.479.014.952-.106 1.366-.347.23-.14.431-.32.596-.533v.723l1.018-.002ZM60.909 16.768a2.56 2.56 0 0 0-1.366.345c-.229.14-.43.321-.594.534v-.724h-1.025v5.931h1.163V19.77a2.95 2.95 0 0 1 .118-.895c.065-.219.175-.421.324-.594.132-.145.297-.257.482-.325.187-.068.383-.102.582-.102.269-.012.535.055.767.193.195.125.353.299.458.505.112.212.186.44.22.678.04.239.059.481.058.723v2.901h1.17V19.56a5.143 5.143 0 0 0-.048-.637 3.619 3.619 0 0 0-.188-.74 2.397 2.397 0 0 0-.398-.7 1.952 1.952 0 0 0-.676-.52 2.414 2.414 0 0 0-1.047-.195ZM68.816 22.603c.122-.09.236-.191.34-.302v.553h1.021V14.96h-1.153v2.382a2.206 2.206 0 0 0-1.615-.572 2.529 2.529 0 0 0-1.448.41 2.68 2.68 0 0 0-.933 1.112c-.22.501-.327 1.044-.314 1.59-.01.548.097 1.09.314 1.593.199.453.52.842.929 1.122.422.283.92.427 1.428.413.508.02 1.01-.123 1.431-.408Zm-2.715-1.655a3 3 0 0 1-.178-1.062c-.005-.36.055-.717.178-1.055a1.69 1.69 0 0 1 .543-.753c.274-.193.604-.291.939-.28.317-.01.63.083.888.266.24.185.418.437.514.724.117.35.174.717.169 1.086.005.369-.051.736-.167 1.086-.09.3-.273.565-.52.757a1.48 1.48 0 0 1-.923.27 1.448 1.448 0 0 1-.9-.286 1.688 1.688 0 0 1-.538-.753h-.005ZM76.64 17.892a1.713 1.713 0 0 0-.863-.859 3.295 3.295 0 0 0-1.385-.273 2.72 2.72 0 0 0-1.643.452 2.21 2.21 0 0 0-.838 1.206l1.07.33a1.179 1.179 0 0 1 .542-.723c.262-.145.557-.22.857-.217.495 0 .842.113 1.045.337.195.244.298.55.292.862l-.676.096c-.367.051-.724.106-1.05.164-.302.051-.6.119-.895.203a2.551 2.551 0 0 0-.767.386 1.53 1.53 0 0 0-.483.58c-.11.248-.165.518-.16.79-.002.31.076.616.228.886.159.275.392.499.673.647.341.172.72.255 1.103.241.486.02.97-.09 1.4-.318.293-.175.545-.411.738-.693v.862h1.013v-3.649a6.74 6.74 0 0 0-.031-.697 1.821 1.821 0 0 0-.17-.613Zm-1.054 3.014a1.41 1.41 0 0 1-.28.57 1.631 1.631 0 0 1-.564.44c-.263.122-.55.181-.84.172a1.364 1.364 0 0 1-.603-.113.815.815 0 0 1-.353-.311.845.845 0 0 1-.115-.425.724.724 0 0 1 .108-.4.918.918 0 0 1 .29-.28c.132-.082.273-.148.42-.199a5.75 5.75 0 0 1 .64-.151c.24-.041.506-.085.803-.128l.613-.092c0 .096 0 .207-.013.333a1.976 1.976 0 0 1-.106.584ZM80.234 15.281h-1.151v1.646h-1.137v.929h1.137v2.666c0 .321 0 .608.012.864.012.262.083.518.207.748.136.268.36.481.635.604.305.132.633.203.965.207.368.012.737-.019 1.098-.092v-.965a4.194 4.194 0 0 1-1.013.036.772.772 0 0 1-.628-.386.987.987 0 0 1-.113-.444v-3.238h1.761v-.93h-1.761l-.012-1.645ZM84.583 14.843h-1.147v1.115h1.147v-1.115ZM84.583 16.927h-1.147v5.926h1.147v-5.926ZM90.634 17.164a3.163 3.163 0 0 0-3.07 0 2.693 2.693 0 0 0-1.013 1.098 3.509 3.509 0 0 0-.362 1.633c-.012.563.11 1.12.355 1.627.223.457.572.84 1.006 1.105a3.163 3.163 0 0 0 3.08 0 2.69 2.69 0 0 0 1.013-1.103 3.873 3.873 0 0 0 0-3.25 2.7 2.7 0 0 0-1.009-1.11Zm-.272 4.2a1.69 1.69 0 0 1-2.524.013 2.38 2.38 0 0 1-.442-1.491 2.896 2.896 0 0 1 .18-1.062c.109-.292.302-.544.556-.724a1.62 1.62 0 0 1 .953-.244 1.489 1.489 0 0 1 1.264.558c.3.43.45.948.425 1.472a2.427 2.427 0 0 1-.42 1.479h.008ZM95.15 18.28a1.24 1.24 0 0 1 .482-.325c.186-.067.383-.101.581-.101a1.37 1.37 0 0 1 .765.193c.194.125.351.299.456.504.109.213.183.442.22.678.039.24.058.482.058.724v2.9h1.163v-3.29a4.651 4.651 0 0 0-.049-.638 3.694 3.694 0 0 0-.185-.74 2.391 2.391 0 0 0-.398-.7 1.883 1.883 0 0 0-.678-.52 2.374 2.374 0 0 0-1.033-.197 2.56 2.56 0 0 0-1.366.345 2.19 2.19 0 0 0-.591.533v-.724h-1.028v5.932h1.163V19.77a3.025 3.025 0 0 1 .118-.895c.064-.219.173-.421.321-.594ZM105.542 14.804a1.742 1.742 0 0 0-.533.12c-.19.077-.36.197-.495.35a1.24 1.24 0 0 0-.265.459 2.114 2.114 0 0 0-.097.504c-.012.172-.017.33-.017.483v.21h-.982v.927h.982v4.997h1.147v-4.997h1.498v-.93h-1.498v-.43a.785.785 0 0 1 .212-.57.836.836 0 0 1 .608-.201h.69v-.939h-.745c-.162 0-.326.005-.505.017ZM112.042 17.164a3.163 3.163 0 0 0-3.069 0 2.686 2.686 0 0 0-1.013 1.098 3.502 3.502 0 0 0-.362 1.634 3.56 3.56 0 0 0 .352 1.626c.225.457.574.84 1.009 1.105a3.155 3.155 0 0 0 3.076 0 2.7 2.7 0 0 0 1.016-1.103 3.88 3.88 0 0 0 0-3.25 2.698 2.698 0 0 0-1.009-1.11Zm-.275 4.201a1.696 1.696 0 0 1-1.163.571 1.69 1.69 0 0 1-1.363-.559 2.382 2.382 0 0 1-.43-1.491 2.912 2.912 0 0 1 .181-1.062c.108-.292.302-.544.555-.724.284-.178.616-.263.951-.243a1.493 1.493 0 0 1 1.269.545c.302.434.452.956.425 1.484a2.463 2.463 0 0 1-.425 1.48ZM117.592 16.891a2.374 2.374 0 0 0-.569.111 1.78 1.78 0 0 0-.502.256c-.159.107-.298.24-.411.396-.052.07-.1.146-.142.224v-.95h-1.016v5.926h1.158V19.86c-.002-.224.022-.449.073-.668.047-.203.128-.396.241-.572a1.48 1.48 0 0 1 1.093-.663 1.81 1.81 0 0 1 .644.043v-1.074a2.287 2.287 0 0 0-.569-.036ZM124.117 15.281h-1.153v1.646h-1.137v.929h1.137v2.666c0 .321 0 .608.014.864.011.262.081.518.205.748.138.268.362.48.637.604.305.133.633.203.965.207.369.012.737-.02 1.098-.092v-.965a4.19 4.19 0 0 1-1.013.036.773.773 0 0 1-.627-.386.92.92 0 0 1-.114-.444v-3.238h1.762v-.93h-1.762l-.012-1.645ZM132.362 18.185a2.337 2.337 0 0 0-.398-.7 1.88 1.88 0 0 0-.678-.519 2.358 2.358 0 0 0-1.03-.198 2.552 2.552 0 0 0-1.357.345c-.228.14-.43.321-.593.534V14.96h-1.026v7.893h1.163V19.77a2.916 2.916 0 0 1 .119-.895c.063-.218.173-.42.323-.591.132-.147.298-.26.483-.328a1.7 1.7 0 0 1 .569-.1c.268-.012.534.056.765.194.193.125.35.3.456.504.109.213.183.442.22.678.039.24.058.481.057.724v2.898h1.164v-3.291a4.684 4.684 0 0 0-.049-.637 3.57 3.57 0 0 0-.188-.741ZM139.126 20.214h.57a4.186 4.186 0 0 0-.242-1.839 2.564 2.564 0 0 0-.965-1.206 2.74 2.74 0 0 0-1.542-.418 2.895 2.895 0 0 0-1.52.389 2.669 2.669 0 0 0-1.018 1.103 3.63 3.63 0 0 0-.365 1.689 3.38 3.38 0 0 0 .37 1.612 2.69 2.69 0 0 0 1.037 1.08 3.03 3.03 0 0 0 1.552.387 2.907 2.907 0 0 0 1.563-.437 2.655 2.655 0 0 0 1.048-1.23l-1.12-.35c-.133.287-.345.53-.613.7-.281.165-.603.248-.929.24a1.521 1.521 0 0 1-1.252-.535 2.132 2.132 0 0 1-.418-1.187h3.844v.002ZM135.7 18.32a1.556 1.556 0 0 1 1.295-.543 1.385 1.385 0 0 1 1.161.482c.215.31.341.672.364 1.048h-3.214c.041-.361.177-.705.394-.997v.01ZM40.974 35.044a5.07 5.07 0 0 0 .574-.055 2.86 2.86 0 0 0 1.561-.661c.434-.374.765-.852.966-1.388a5.441 5.441 0 0 0 0-3.699 3.455 3.455 0 0 0-.966-1.392 2.895 2.895 0 0 0-1.56-.654 5.038 5.038 0 0 0-.575-.044h-2.881v7.903h2.473l.408-.01Zm-1.708-6.812h1.742c.153.004.307.019.458.046.37.062.708.242.965.514.261.285.452.627.558 1a4.697 4.697 0 0 1 0 2.564 2.483 2.483 0 0 1-.553 1.006 1.714 1.714 0 0 1-.977.526 3.65 3.65 0 0 1-.456.044h-1.744l.007-5.7ZM51.18 33.541l-1.127-.357a1.62 1.62 0 0 1-.611.7c-.28.168-.604.252-.931.241a1.513 1.513 0 0 1-1.25-.536 2.128 2.128 0 0 1-.42-1.187h4.416a4.185 4.185 0 0 0-.242-1.838 2.515 2.515 0 0 0-.953-1.192 2.72 2.72 0 0 0-1.542-.42 2.922 2.922 0 0 0-1.52.388c-.437.263-.79.646-1.018 1.103a3.672 3.672 0 0 0-.365 1.689 3.362 3.362 0 0 0 .372 1.61c.237.45.597.825 1.038 1.08.473.266 1.009.4 1.551.387a2.917 2.917 0 0 0 1.564-.437 2.672 2.672 0 0 0 1.037-1.23Zm-3.92-3.03a1.563 1.563 0 0 1 1.296-.543 1.383 1.383 0 0 1 1.161.494c.212.31.338.672.364 1.047h-3.223c.04-.361.176-.706.393-.999h.01ZM57.957 33.42l-1.163-.275a1.597 1.597 0 0 1-.526.724c-.263.18-.578.27-.898.255a1.425 1.425 0 0 1-1.225-.567 2.468 2.468 0 0 1-.42-1.481 3.007 3.007 0 0 1 .18-1.052c.106-.289.293-.54.539-.724.272-.187.597-.28.926-.266a1.489 1.489 0 0 1 1.444 1.055l1.14-.33a2.265 2.265 0 0 0-.907-1.323c-.489-.33-1.07-.5-1.66-.483a2.856 2.856 0 0 0-1.541.4 2.654 2.654 0 0 0-.99 1.108 3.682 3.682 0 0 0-.35 1.622 3.73 3.73 0 0 0 .343 1.607c.21.455.545.842.965 1.115a2.83 2.83 0 0 0 1.547.405 2.789 2.789 0 0 0 1.631-.463c.458-.325.797-.791.965-1.327ZM63.507 29.378a2.719 2.719 0 0 0-1.541-.42 2.914 2.914 0 0 0-1.52.389 2.671 2.671 0 0 0-1.019 1.103 3.673 3.673 0 0 0-.364 1.689 3.363 3.363 0 0 0 .371 1.61c.235.452.595.827 1.038 1.08a3.023 3.023 0 0 0 1.549.386 2.896 2.896 0 0 0 1.564-.436 2.676 2.676 0 0 0 1.05-1.231l-1.128-.36a1.64 1.64 0 0 1-.612.7c-.281.166-.603.25-.93.242a1.51 1.51 0 0 1-1.25-.536 2.116 2.116 0 0 1-.42-1.187h4.414a4.147 4.147 0 0 0-.241-1.84 2.531 2.531 0 0 0-.96-1.189Zm-2.794 1.137a1.572 1.572 0 0 1 1.296-.543 1.379 1.379 0 0 1 1.16.495c.215.31.34.671.365 1.047h-3.221c.038-.361.173-.706.39-.997l.01-.002ZM71.328 30.38a2.338 2.338 0 0 0-.398-.7 1.882 1.882 0 0 0-.678-.519 2.359 2.359 0 0 0-1.03-.198 2.55 2.55 0 0 0-1.366.345c-.23.14-.43.321-.594.534v-.724h-1.026v5.926H67.4v-3.081a2.866 2.866 0 0 1 .119-.893c.065-.22.18-.423.333-.594.132-.146.297-.258.482-.325.186-.07.383-.104.582-.102.268-.011.534.056.765.193.193.126.35.3.456.505.109.212.183.441.22.678.038.234.057.471.057.709v2.915h1.163v-3.294a5.16 5.16 0 0 0-.048-.637 3.57 3.57 0 0 0-.2-.738ZM74.868 27.475h-1.151v1.645H72.58v.924h1.137v2.672c0 .323 0 .61.012.866.012.261.082.517.205.748.137.268.362.48.637.603.305.133.633.204.965.208.368.01.736-.022 1.098-.092v-.965a4.188 4.188 0 0 1-1.013.036.783.783 0 0 1-.628-.386.965.965 0 0 1-.11-.444V30.044h1.76v-.924h-1.76l-.015-1.645ZM80.66 29.09a2.27 2.27 0 0 0-.566.112c-.18.053-.349.135-.502.241a1.58 1.58 0 0 0-.4.406c-.051.072-.1.147-.143.224v-.95h-1.02v5.926h1.162v-2.992c0-.224.025-.448.073-.667.047-.203.129-.398.241-.574a1.47 1.47 0 0 1 1.093-.663c.216-.025.434-.01.645.043V29.12a2.437 2.437 0 0 0-.582-.03ZM87.154 30.088a1.723 1.723 0 0 0-.863-.859 3.256 3.256 0 0 0-1.385-.27 2.717 2.717 0 0 0-1.644.449c-.408.294-.704.72-.837 1.206l1.069.328a1.179 1.179 0 0 1 .543-.724c.262-.144.557-.219.856-.217.495 0 .843.114 1.048.338.194.246.296.551.29.864l-.676.094c-.367.053-.724.106-1.05.166-.302.051-.6.119-.895.203a2.55 2.55 0 0 0-.768.386c-.207.15-.373.349-.482.58-.11.248-.165.517-.16.788-.002.31.076.616.227.886.16.275.393.5.674.65.341.17.72.253 1.102.24.488.017.97-.098 1.397-.333.294-.174.546-.41.739-.692v.861h1.013v-3.631a6.737 6.737 0 0 0-.031-.698 1.822 1.822 0 0 0-.166-.615Zm-1.052 3.014a1.446 1.446 0 0 1-.28.56 1.662 1.662 0 0 1-.567.441c-.262.122-.55.18-.84.172a1.399 1.399 0 0 1-.603-.114.81.81 0 0 1-.35-.311.82.82 0 0 1-.115-.425.71.71 0 0 1 .106-.4.925.925 0 0 1 .292-.28c.132-.082.273-.148.42-.198.21-.065.423-.116.64-.152.24-.041.506-.085.803-.128l.61-.092v.333a2.077 2.077 0 0 1-.108.594h-.008ZM90.344 26.982h-1.146v8.067h1.146v-8.067ZM93.433 27.035h-1.146v1.115h1.146v-1.115ZM93.433 29.123h-1.146v5.926h1.146v-5.926ZM95.07 30.149h3.056l-3.363 4.72v.18h5.021v-1.025H96.59l3.354-4.715v-.186H95.07v1.026ZM105.305 29.378a2.717 2.717 0 0 0-1.542-.42 2.916 2.916 0 0 0-1.52.389c-.437.263-.79.646-1.018 1.103a3.668 3.668 0 0 0-.364 1.689 3.358 3.358 0 0 0 .371 1.61c.235.452.595.827 1.038 1.08a3.02 3.02 0 0 0 1.549.386 2.898 2.898 0 0 0 1.564-.436 2.658 2.658 0 0 0 1.047-1.231l-1.125-.357c-.132.287-.344.53-.61.7-.282.165-.605.249-.932.24a1.512 1.512 0 0 1-1.25-.535 2.115 2.115 0 0 1-.419-1.187h4.413a4.185 4.185 0 0 0-.241-1.839 2.544 2.544 0 0 0-.961-1.192Zm-2.792 1.137a1.568 1.568 0 0 1 1.294-.543 1.383 1.383 0 0 1 1.16.495c.214.31.34.671.365 1.047h-3.217c.039-.361.174-.706.391-.997l.007-.002ZM112.074 29.528a2.218 2.218 0 0 0-1.614-.57 2.504 2.504 0 0 0-1.448.409 2.676 2.676 0 0 0-.936 1.114 3.705 3.705 0 0 0-.328 1.6c-.01.55.101 1.097.325 1.6.201.452.523.84.93 1.122.423.28.921.423 1.428.41a2.385 2.385 0 0 0 1.426-.415c.123-.09.237-.191.34-.304v.553h1.019v-7.9h-1.151l.009 2.381Zm-.034 3.639a1.518 1.518 0 0 1-.521.74 1.495 1.495 0 0 1-.922.269 1.418 1.418 0 0 1-.909-.28 1.664 1.664 0 0 1-.536-.753 3 3 0 0 1-.178-1.062c-.005-.36.055-.717.178-1.054.107-.297.296-.558.545-.75.273-.197.604-.295.939-.28.318-.015.631.078.89.262.24.186.418.437.514.724.118.35.175.717.169 1.086.006.37-.051.737-.166 1.088l-.003.01ZM45.49 45.237l-1.663-5.977H42.62l-1.663 5.972-1.665-5.977h-1.206l2.292 7.902h1.142l1.689-5.911 1.689 5.911h1.141l2.3-7.902h-1.207l-1.643 5.982ZM53.237 41.503a2.713 2.713 0 0 0-1.542-.42 2.928 2.928 0 0 0-1.52.389 2.68 2.68 0 0 0-1.016 1.103 3.646 3.646 0 0 0-.367 1.689 3.365 3.365 0 0 0 .372 1.61c.236.45.596.825 1.037 1.08.474.266 1.01.399 1.552.386a2.917 2.917 0 0 0 1.564-.436 2.654 2.654 0 0 0 1.047-1.23l-1.125-.358c-.132.287-.345.53-.612.7-.282.165-.603.249-.93.241a1.512 1.512 0 0 1-1.25-.536 2.115 2.115 0 0 1-.42-1.187h4.414a4.185 4.185 0 0 0-.241-1.839 2.524 2.524 0 0 0-.963-1.192Zm-2.792 1.14a1.562 1.562 0 0 1 1.294-.546 1.378 1.378 0 0 1 1.16.495c.214.31.34.671.364 1.047h-3.211c.04-.361.176-.705.393-.997ZM60.184 41.48a2.53 2.53 0 0 0-1.447-.41 2.373 2.373 0 0 0-1.415.41c-.07.05-.136.104-.2.161V39.26H55.97v7.902h1.023v-.552a2.226 2.226 0 0 0 1.769.724 2.463 2.463 0 0 0 1.428-.413c.407-.28.728-.669.927-1.122a3.793 3.793 0 0 0 .328-1.6 3.721 3.721 0 0 0-.33-1.597 2.675 2.675 0 0 0-.93-1.122Zm-.132 3.776a1.69 1.69 0 0 1-.538.753 1.414 1.414 0 0 1-.91.28 1.496 1.496 0 0 1-.922-.268 1.541 1.541 0 0 1-.521-.74 3.377 3.377 0 0 1-.164-1.087c-.007-.368.05-.736.166-1.086.096-.29.275-.547.517-.735.258-.183.569-.276.885-.264.336-.014.666.085.939.28.25.193.44.453.548.75.123.339.183.696.178 1.055.005.362-.055.722-.178 1.062ZM25.895 25.61V12.194H13.7V0H.286v13.414h12.196V24.39H.286v13.414h12.196V50h13.413V36.586H13.7V25.61h12.195ZM1.505 12.194V1.22h10.977v10.976H1.505ZM13.7 13.414h10.977V24.39H13.7V13.414Zm10.977 24.39v10.977H13.7V37.805h10.977Zm-12.195-1.206H1.505V25.61h10.977V36.6Z" fill="#fff"/><path d="M5.317 9.452h1.038V7.239h1.86V6.2h-1.86V5h2.316V3.962H5.317v5.49ZM17.512 21.647h1.038V19.42h1.858v-1.038h-1.86v-1.187h2.316v-1.028H17.51l.002 5.48ZM6.787 33.837c.13 0 .26 0 .388-.026.412-.04.803-.2 1.125-.46.311-.259.553-.59.702-.966a3.55 3.55 0 0 0 0-2.57 2.414 2.414 0 0 0-.702-.965 2.114 2.114 0 0 0-1.125-.461 4.167 4.167 0 0 0-.388-.027c-.13-.002-.222 0-.265 0H4.743v5.488H6.52l.268-.013Zm-.99-4.507h1.004c.107.003.212.014.317.034.222.041.424.156.574.326.159.18.276.394.343.624.147.505.147 1.04 0 1.545-.065.232-.18.448-.336.632-.15.176-.356.294-.584.336-.104.018-.21.029-.316.03H5.798V29.33ZM18.126 46.038l1.064-3.706 1.062 3.706h1.027l1.61-5.487h-1.098l-1.028 3.772-1.03-3.772h-1.09l-1.029 3.764-1.028-3.776h-1.098l1.607 5.49 1.03.01Z" fill="#fff"/></svg>