<svg viewBox="0 0 180 64" fill="none" xmlns="http://www.w3.org/2000/svg"><g clip-path="url(#a)" fill="currentColor"><path d="M50.283 9.27h3.712V7.805h-3.712V4.97h4.562V3.508h-6.041v10.06h1.482l-.003-4.298Zm7.689-5.9h-1.48v1.419h1.48v-1.42Zm0 2.653h-1.48v7.544h1.48V6.023ZM61.96 3.3h-1.48v10.268h1.48V3.3Zm3.89 9.986c.61.335 1.3.505 1.998.491a3.819 3.819 0 0 0 2.019-.556 3.392 3.392 0 0 0 1.354-1.57l-1.454-.454a2.05 2.05 0 0 1-.788.89c-.363.213-.78.32-1.202.308a1.977 1.977 0 0 1-.889-.152 1.95 1.95 0 0 1-.724-.53 2.68 2.68 0 0 1-.542-1.514h5.705a5.207 5.207 0 0 0-.312-2.338 3.203 3.203 0 0 0-1.245-1.52 3.57 3.57 0 0 0-1.99-.535 3.812 3.812 0 0 0-1.962.495 3.428 3.428 0 0 0-1.314 1.407 4.605 4.605 0 0 0-.47 2.15c-.016.711.15 1.416.48 2.049a3.417 3.417 0 0 0 1.335 1.379Zm.31-5.49a2.04 2.04 0 0 1 1.672-.691 1.797 1.797 0 0 1 1.499.63c.275.395.436.856.467 1.333h-4.145c.051-.46.226-.9.508-1.271Zm8.468 5.465c.6.359 1.294.538 1.996.516a3.599 3.599 0 0 0 2.099-.59 3.25 3.25 0 0 0 1.245-1.692l-1.504-.35c-.13.365-.365.684-.675.921a1.903 1.903 0 0 1-1.159.307 1.847 1.847 0 0 1-.883-.16 1.82 1.82 0 0 1-.699-.558 3.111 3.111 0 0 1-.542-1.886 3.801 3.801 0 0 1 .234-1.343c.135-.367.377-.687.694-.921.352-.237.771-.355 1.196-.338a1.93 1.93 0 0 1 1.146.353c.34.246.59.593.716.99l1.476-.422a2.89 2.89 0 0 0-1.174-1.683 3.677 3.677 0 0 0-2.142-.614 3.736 3.736 0 0 0-1.99.51c-.551.34-.993.828-1.274 1.407a4.646 4.646 0 0 0-.454 2.064 4.75 4.75 0 0 0 .442 2.048 3.37 3.37 0 0 0 1.252 1.441Zm8.51.006a4.127 4.127 0 0 0 3.974 0 3.444 3.444 0 0 0 1.308-1.403 4.874 4.874 0 0 0 0-4.138 3.455 3.455 0 0 0-1.305-1.404 4.13 4.13 0 0 0-3.958 0 3.434 3.434 0 0 0-1.31 1.398 4.456 4.456 0 0 0-.468 2.08 4.504 4.504 0 0 0 .458 2.07c.29.579.741 1.063 1.301 1.397Zm.05-4.828c.14-.372.389-.693.717-.922.362-.234.79-.35 1.223-.332.31-.02.62.032.904.155.285.124.534.313.728.552.392.552.585 1.219.548 1.892.03.669-.16 1.33-.542 1.883a2.175 2.175 0 0 1-1.501.727 2.209 2.209 0 0 1-1.582-.537 2.362 2.362 0 0 1-.177-.175 3.002 3.002 0 0 1-.551-1.898c-.01-.46.068-.92.23-1.351l.003.006Zm9.243-2.415h-1.48v7.544h1.48V6.023Zm0-2.653h-1.48v1.419h1.48v-1.42Zm7.819 10.197h1.501v-4.19a5.948 5.948 0 0 0-.062-.81 4.655 4.655 0 0 0-.24-.943 3.1 3.1 0 0 0-.514-.891 2.452 2.452 0 0 0-.875-.66 3.151 3.151 0 0 0-1.33-.237 3.368 3.368 0 0 0-1.762.44 2.934 2.934 0 0 0-.766.681v-.921h-1.324v7.531h1.501V9.642c-.008-.386.043-.77.153-1.14a2.02 2.02 0 0 1 .417-.752c.17-.187.384-.329.623-.415.24-.088.494-.132.75-.129.348-.017.693.069.99.246.25.159.452.38.586.642.142.27.238.562.284.863.05.298.075.6.074.903l-.006 3.707ZM50.283 24.794h3.712v-1.45h-3.712v-2.853h4.562v-1.447h-6.041V29.09h1.482l-.003-4.297Zm7.247 3.996a4.126 4.126 0 0 0 3.973 0 3.443 3.443 0 0 0 1.308-1.404 4.858 4.858 0 0 0 0-4.137 3.471 3.471 0 0 0-1.302-1.404 4.126 4.126 0 0 0-3.96 0 3.476 3.476 0 0 0-1.312 1.398 4.49 4.49 0 0 0-.467 2.08 4.555 4.555 0 0 0 .458 2.07 3.428 3.428 0 0 0 1.302 1.397Zm.05-4.829c.138-.371.388-.693.716-.921.363-.234.79-.35 1.224-.332.31-.021.62.032.904.156.285.123.534.314.727.554.392.551.586 1.216.551 1.889a3.11 3.11 0 0 1-.541 1.883c-.285.32-.66.55-1.078.66a2.21 2.21 0 0 1-2.186-.642 3.023 3.023 0 0 1-.551-1.898c-.01-.461.07-.92.234-1.352v.003Zm14.44 5.13v-7.544h-1.496v3.926c.007.384-.044.767-.152 1.136a2.052 2.052 0 0 1-.417.756c-.17.186-.384.328-.623.414-.241.09-.497.133-.754.13-.346.014-.69-.071-.987-.246a1.649 1.649 0 0 1-.585-.642 2.818 2.818 0 0 1-.287-.863 5.823 5.823 0 0 1-.072-.903v-3.708h-1.5v4.19c.002.271.022.542.062.81.046.322.127.638.24.944.119.323.293.624.514.89.237.283.536.509.875.66.419.179.873.265 1.33.253a3.347 3.347 0 0 0 1.765-.443c.294-.178.553-.408.763-.678v.921l1.323-.003Zm6.23-7.747a3.347 3.347 0 0 0-1.765.44c-.294.179-.552.409-.763.678v-.921h-1.324v7.55H75.9v-3.925c-.008-.386.043-.77.153-1.14.082-.279.224-.537.417-.756.171-.185.385-.327.623-.414.24-.086.495-.13.75-.13.347-.015.69.07.988.246.25.159.454.38.588.642.14.271.236.563.283.863.051.305.076.613.075.922v3.692h1.501v-4.193a5.917 5.917 0 0 0-.062-.81 4.768 4.768 0 0 0-.24-.944 3.043 3.043 0 0 0-.514-.89 2.488 2.488 0 0 0-.875-.66 3.152 3.152 0 0 0-1.336-.25Zm10.205 7.428c.159-.114.305-.243.44-.384v.703h1.316V19.044h-1.485v3.032a2.857 2.857 0 0 0-2.083-.729 3.288 3.288 0 0 0-1.869.523 3.456 3.456 0 0 0-1.208 1.416 4.747 4.747 0 0 0-.405 2.024 4.724 4.724 0 0 0 .405 2.027c.257.576.671 1.07 1.196 1.428.546.36 1.19.543 1.846.526a3.102 3.102 0 0 0 1.847-.52Zm-3.5-2.107a3.777 3.777 0 0 1-.23-1.352 3.73 3.73 0 0 1 .23-1.342c.137-.38.382-.712.704-.959a1.997 1.997 0 0 1 1.211-.356c.408-.014.81.105 1.143.338.31.236.541.556.666.921.152.445.225.913.215 1.383.01.469-.062.936-.212 1.382a1.941 1.941 0 0 1-.672.943 1.934 1.934 0 0 1-1.19.344c-.42.015-.834-.11-1.174-.357a2.115 2.115 0 0 1-.691-.958v.012Zm13.599-3.89a2.21 2.21 0 0 0-1.115-1.093 4.31 4.31 0 0 0-1.79-.347 3.55 3.55 0 0 0-2.121.575 2.83 2.83 0 0 0-1.08 1.535l1.382.421a1.473 1.473 0 0 1 .7-.921c.339-.185.72-.28 1.106-.277.623 0 1.087.145 1.348.43.251.312.385.7.377 1.097l-.872.123c-.476.064-.934.135-1.358.209-.388.064-.773.15-1.152.258a3.326 3.326 0 0 0-.993.491c-.267.19-.481.444-.623.737-.144.317-.214.661-.206 1.008a2.14 2.14 0 0 0 1.162 1.95c.44.22.93.325 1.423.307a3.568 3.568 0 0 0 1.81-.405c.379-.221.704-.522.952-.882v1.097h1.311v-4.644c.001-.297-.013-.593-.043-.888a2.228 2.228 0 0 0-.218-.78Zm-1.361 3.837a1.782 1.782 0 0 1-.361.725c-.2.238-.45.43-.732.562-.338.155-.708.23-1.08.218a1.777 1.777 0 0 1-.78-.144 1.028 1.028 0 0 1-.454-.396 1.032 1.032 0 0 1-.15-.54.912.912 0 0 1 .138-.51c.097-.144.225-.265.373-.357.171-.103.353-.188.542-.252.271-.08.547-.144.826-.193a44.47 44.47 0 0 1 1.04-.163l.787-.117v.424a2.587 2.587 0 0 1-.15.743Zm5.998-7.16h-1.489v2.095h-1.467v1.183h1.467v3.394c0 .409 0 .774.019 1.1.016.332.106.657.264.952.178.34.468.611.822.768.394.169.817.259 1.246.264.475.015.951-.024 1.417-.117v-1.229a5.48 5.48 0 0 1-1.308.046 1.004 1.004 0 0 1-.81-.491 1.177 1.177 0 0 1-.146-.565V22.73h2.273v-1.183h-2.273l-.015-2.095Zm5.611-.559h-1.479v1.42h1.479v-1.42Zm0 2.654h-1.479v7.544h1.479v-7.544Zm7.807.301a4.118 4.118 0 0 0-3.958 0 3.448 3.448 0 0 0-1.308 1.398 4.416 4.416 0 0 0-.467 2.08c-.015.715.14 1.424.455 2.07.29.58.741 1.069 1.301 1.406a4.124 4.124 0 0 0 3.971 0 3.43 3.43 0 0 0 1.308-1.403 4.858 4.858 0 0 0 0-4.138 3.47 3.47 0 0 0-1.302-1.413Zm-.349 5.348a2.205 2.205 0 0 1-3.263.015 3.018 3.018 0 0 1-.551-1.898c-.011-.461.069-.92.233-1.352.139-.37.389-.692.716-.921a2.103 2.103 0 0 1 1.218-.31 1.936 1.936 0 0 1 1.635.71 3.01 3.01 0 0 1 .548 1.888 3.1 3.1 0 0 1-.542 1.883l.006-.015Zm6.178-3.926c.171-.185.385-.328.623-.414.241-.086.495-.13.751-.13.346-.014.689.071.987.246.249.16.452.382.588.642.141.271.236.563.284.863.047.305.072.613.074.922v3.692h1.501v-4.19a6.291 6.291 0 0 0-.062-.81 4.458 4.458 0 0 0-.243-.944 3.026 3.026 0 0 0-.51-.89 2.485 2.485 0 0 0-.875-.66 3.101 3.101 0 0 0-1.333-.253 3.338 3.338 0 0 0-1.763.44 2.823 2.823 0 0 0-.766.678v-.92h-1.323v7.55h1.501v-3.926c-.009-.386.042-.77.152-1.14.081-.279.222-.536.414-.756Zm13.413-4.426a2.317 2.317 0 0 0-.691.154 1.709 1.709 0 0 0-.982 1.029 2.813 2.813 0 0 0-.124.642c0 .218-.019.42-.019.614v.267h-1.267v1.18h1.267v6.361h1.48V22.73h1.933v-1.183h-1.933V21a.969.969 0 0 1 .274-.728 1.084 1.084 0 0 1 .781-.255h.894v-1.194h-.963a9.59 9.59 0 0 0-.65.021Zm8.385 3.004a4.125 4.125 0 0 0-3.957 0 3.43 3.43 0 0 0-1.311 1.398 4.455 4.455 0 0 0-.468 2.08 4.557 4.557 0 0 0 .459 2.07c.289.58.739 1.068 1.298 1.406a4.131 4.131 0 0 0 3.974 0 3.447 3.447 0 0 0 1.308-1.403 4.872 4.872 0 0 0 0-4.138 3.43 3.43 0 0 0-1.303-1.413Zm-.352 5.348a2.171 2.171 0 0 1-1.5.727 2.204 2.204 0 0 1-1.763-.712 3.018 3.018 0 0 1-.551-1.898c-.01-.461.069-.92.234-1.351.139-.372.388-.693.715-.922a2.109 2.109 0 0 1 1.228-.31c.309-.024.619.027.906.148.285.121.536.308.731.546.393.551.587 1.216.553 1.889.024.67-.17 1.33-.553 1.883Zm7.515-5.695a3.109 3.109 0 0 0-.732.141 2.28 2.28 0 0 0-.648.326 2.08 2.08 0 0 0-.529.504 3.249 3.249 0 0 0-.183.285v-1.21h-1.317v7.544h1.494v-3.809c0-.286.031-.571.093-.85.062-.259.168-.505.312-.729a1.913 1.913 0 0 1 1.41-.845c.278-.03.561-.011.832.056v-1.367a3.03 3.03 0 0 0-.732-.046Zm8.42-2.049h-1.485v2.095h-1.467v1.183h1.467v3.394c0 .409 0 .774.016 1.1.015.333.106.658.267.952.176.341.466.613.822.768.393.17.817.26 1.246.264a6.25 6.25 0 0 0 1.417-.117v-1.229a5.48 5.48 0 0 1-1.308.046.995.995 0 0 1-.809-.491 1.214 1.214 0 0 1-.144-.565V22.73h2.273v-1.183h-2.273l-.022-2.095Zm10.644 3.695a2.954 2.954 0 0 0-.515-.89 2.401 2.401 0 0 0-.873-.66 3.107 3.107 0 0 0-1.331-.253 3.34 3.34 0 0 0-1.749.44 2.851 2.851 0 0 0-.764.678v-3.418h-1.326V29.09h1.501v-3.925a3.82 3.82 0 0 1 .152-1.14c.084-.278.228-.534.421-.753.169-.187.383-.33.622-.417.235-.083.483-.126.733-.126.345-.015.688.07.987.246.249.16.451.381.588.642.14.27.236.562.284.863.047.304.071.612.074.921v3.69h1.501v-4.19a6.118 6.118 0 0 0-.063-.812 4.459 4.459 0 0 0-.242-.942Zm8.726 2.584h.738a5.23 5.23 0 0 0-.312-2.34 3.236 3.236 0 0 0-1.246-1.537 3.557 3.557 0 0 0-1.989-.531 3.778 3.778 0 0 0-1.962.494 3.439 3.439 0 0 0-1.312 1.404 4.606 4.606 0 0 0-.473 2.15 4.25 4.25 0 0 0 .48 2.052 3.45 3.45 0 0 0 1.339 1.376c.61.338 1.3.507 1.999.492a3.78 3.78 0 0 0 2.018-.556 3.4 3.4 0 0 0 1.355-1.567l-1.448-.445a2.103 2.103 0 0 1-.791.89c-.362.212-.778.318-1.199.308a1.977 1.977 0 0 1-1.617-.682 2.703 2.703 0 0 1-.542-1.511l4.962.003Zm-4.42-2.412a2.027 2.027 0 0 1 1.672-.69 1.8 1.8 0 0 1 1.499.614c.274.395.436.855.469 1.333h-4.147a2.6 2.6 0 0 1 .507-1.269v.013ZM52.525 44.61c.248-.01.496-.034.742-.071a3.706 3.706 0 0 0 2.011-.842 4.3 4.3 0 0 0 1.246-1.766 6.838 6.838 0 0 0 0-4.709 4.368 4.368 0 0 0-1.246-1.772 3.763 3.763 0 0 0-2.011-.844 6.634 6.634 0 0 0-.742-.056h-3.721v10.06h3.721Zm-2.207-8.662h2.248c.198.004.396.023.591.058a2.22 2.22 0 0 1 1.246.654c.336.364.583.799.72 1.272a5.65 5.65 0 0 1 .233 1.643 5.7 5.7 0 0 1-.227 1.622 3.147 3.147 0 0 1-.713 1.28c-.335.356-.78.592-1.265.67-.195.032-.391.05-.588.056H50.31l.007-7.255Zm15.374 6.748-1.452-.455a2.097 2.097 0 0 1-.79.891 2.203 2.203 0 0 1-1.2.307 1.986 1.986 0 0 1-1.616-.681 2.68 2.68 0 0 1-.538-1.512h5.695a5.257 5.257 0 0 0-.311-2.34 3.245 3.245 0 0 0-1.246-1.518 3.545 3.545 0 0 0-1.99-.534 3.803 3.803 0 0 0-1.962.494 3.437 3.437 0 0 0-1.314 1.404 4.623 4.623 0 0 0-.47 2.15c-.015.712.15 1.416.48 2.05.305.573.77 1.05 1.339 1.375.61.337 1.3.507 1.999.492a3.774 3.774 0 0 0 2.018-.556 3.392 3.392 0 0 0 1.358-1.567Zm-5.058-3.858a2.042 2.042 0 0 1 1.672-.691 1.8 1.8 0 0 1 1.498.63c.277.394.44.855.47 1.333h-4.157c.051-.46.225-.9.505-1.272h.012Zm13.808 3.704-1.501-.35c-.13.365-.365.685-.676.922-.34.23-.746.344-1.158.325a1.859 1.859 0 0 1-.883-.164 1.833 1.833 0 0 1-.7-.557 3.11 3.11 0 0 1-.54-1.886c-.006-.457.073-.91.233-1.34.134-.367.374-.687.691-.921a1.997 1.997 0 0 1 1.199-.338c.41-.005.81.119 1.143.353.34.247.591.593.719.99l1.473-.422a2.875 2.875 0 0 0-1.174-1.683 3.671 3.671 0 0 0-2.142-.614 3.735 3.735 0 0 0-1.99.51c-.552.34-.994.83-1.274 1.41a4.638 4.638 0 0 0-.455 2.064 4.738 4.738 0 0 0 .443 2.045c.27.58.702 1.072 1.245 1.42a3.698 3.698 0 0 0 1.996.516 3.646 3.646 0 0 0 2.105-.59 3.246 3.246 0 0 0 1.246-1.69Zm7.162-5.144a3.553 3.553 0 0 0-1.99-.535 3.803 3.803 0 0 0-1.962.495 3.419 3.419 0 0 0-1.314 1.403c-.329.67-.49 1.407-.47 2.15a4.229 4.229 0 0 0 .477 2.05 3.43 3.43 0 0 0 1.339 1.375c.61.338 1.302.508 2.002.492a3.777 3.777 0 0 0 2.018-.556 3.393 3.393 0 0 0 1.351-1.567l-1.45-.454a2.098 2.098 0 0 1-.792.89 2.275 2.275 0 0 1-1.199.308 1.981 1.981 0 0 1-1.616-.682 2.668 2.668 0 0 1-.538-1.511h5.695a5.215 5.215 0 0 0-.311-2.341 3.207 3.207 0 0 0-1.24-1.517Zm-3.606 1.446a2.048 2.048 0 0 1 1.672-.691 1.806 1.806 0 0 1 1.498.63c.277.394.44.855.47 1.333h-4.147c.052-.46.227-.898.507-1.269v-.003Zm13.699-.172a2.967 2.967 0 0 0-.514-.89 2.423 2.423 0 0 0-.875-.66 3.096 3.096 0 0 0-1.33-.253 3.347 3.347 0 0 0-1.765.44c-.294.179-.552.409-.763.678v-.921h-1.327v7.544h1.501v-3.923a3.696 3.696 0 0 1 .153-1.136c.083-.278.225-.536.417-.756.171-.185.385-.327.623-.415.24-.088.496-.132.753-.129.347-.014.69.071.988.246.249.16.452.381.588.642.14.271.236.563.283.863.048.3.072.6.072.903v3.71h1.504v-4.192a6.456 6.456 0 0 0-.062-.81 4.484 4.484 0 0 0-.246-.94Zm4.568-3.698h-1.488v2.095H93.31v1.176h1.467v3.4c0 .412 0 .778.018 1.103.016.333.106.658.265.953.177.34.467.611.822.767.393.17.817.26 1.246.264a6.62 6.62 0 0 0 1.417-.116v-1.229a5.485 5.485 0 0 1-1.308.046 1.022 1.022 0 0 1-.81-.491 1.165 1.165 0 0 1-.146-.565v-4.132h2.273v-1.176H96.28l-.016-2.095Zm7.477 2.058c-.25.017-.497.064-.735.141a2.365 2.365 0 0 0-.648.308c-.203.135-.38.304-.523.5a2.93 2.93 0 0 0-.184.286v-1.21h-1.317V44.6h1.495v-3.81c0-.284.031-.569.093-.847.06-.26.165-.507.312-.731a1.886 1.886 0 0 1 1.407-.845c.279-.03.562-.012.835.056v-1.37a3.189 3.189 0 0 0-.735-.022Zm8.38 1.269a2.214 2.214 0 0 0-1.115-1.094 4.262 4.262 0 0 0-1.791-.344 3.546 3.546 0 0 0-2.12.572 2.823 2.823 0 0 0-1.081 1.535l1.383.418a1.469 1.469 0 0 1 .7-.922c.339-.184.719-.279 1.106-.276.638 0 1.087.144 1.348.43.251.313.384.701.377 1.1l-.872.12c-.476.067-.934.135-1.358.211-.388.065-.773.151-1.152.259a3.312 3.312 0 0 0-.993.49 1.916 1.916 0 0 0-.607.738 2.276 2.276 0 0 0-.206 1.005c-.005.394.096.783.293 1.127.205.35.506.637.868.826a3 3 0 0 0 1.424.307 3.535 3.535 0 0 0 1.8-.424c.379-.221.704-.522.952-.881v1.096h1.311v-4.622a8.225 8.225 0 0 0-.043-.888 2.238 2.238 0 0 0-.224-.783Zm-1.361 3.836a1.744 1.744 0 0 1-.362.713c-.197.238-.446.43-.728.562-.339.154-.71.23-1.084.218-.267.01-.533-.04-.778-.145a1.07 1.07 0 0 1-.455-.396 1.02 1.02 0 0 1-.146-.54.893.893 0 0 1 .137-.51 1.18 1.18 0 0 1 .373-.356c.171-.104.353-.188.542-.252.271-.083.546-.148.825-.194.312-.052.658-.107 1.041-.163l.787-.116v.423a2.598 2.598 0 0 1-.14.756h-.012Zm5.474-7.79h-1.479v10.269h1.479V34.346Zm3.989.068h-1.479v1.42h1.479v-1.42Zm0 2.657h-1.479v7.544h1.479V37.07Zm2.112 1.305h3.945l-4.341 6.009v.23h6.477v-1.306h-4.119l4.328-6.002v-.236h-6.297l.007 1.305Zm13.209-.98a3.552 3.552 0 0 0-1.99-.534 3.8 3.8 0 0 0-1.961.495 3.418 3.418 0 0 0-1.314 1.403 4.58 4.58 0 0 0-.471 2.15 4.236 4.236 0 0 0 .477 2.05 3.427 3.427 0 0 0 1.339 1.375 3.953 3.953 0 0 0 2.002.492 3.775 3.775 0 0 0 2.018-.556 3.386 3.386 0 0 0 1.351-1.567l-1.451-.454a2.1 2.1 0 0 1-.79.89c-.363.211-.778.318-1.2.308a1.98 1.98 0 0 1-1.616-.682 2.667 2.667 0 0 1-.538-1.511h5.696a5.245 5.245 0 0 0-.312-2.341 3.223 3.223 0 0 0-1.24-1.517Zm-3.606 1.447a2.048 2.048 0 0 1 1.673-.691c.282-.02.565.027.826.137.26.11.491.278.672.493.276.394.438.855.469 1.333h-4.15c.052-.46.227-.898.507-1.269l.003-.003Zm12.338-1.256a2.867 2.867 0 0 0-2.08-.725 3.257 3.257 0 0 0-1.869.52 3.4 3.4 0 0 0-1.208 1.418 4.693 4.693 0 0 0-.424 2.037 4.753 4.753 0 0 0 .421 2.036c.26.575.672 1.069 1.197 1.428a3.24 3.24 0 0 0 1.845.523 3.11 3.11 0 0 0 1.841-.529c.16-.114.306-.243.439-.387v.704h1.314V34.555h-1.489l.013 3.032Zm-.041 4.632a1.959 1.959 0 0 1-.672.943c-.348.24-.766.36-1.19.341a1.847 1.847 0 0 1-1.173-.356 2.114 2.114 0 0 1-.692-.959 3.756 3.756 0 0 1-.23-1.351 3.706 3.706 0 0 1 .23-1.343c.137-.378.381-.71.704-.955a1.955 1.955 0 0 1 1.211-.356c.41-.019.815.1 1.15.335.309.235.541.556.666.921.152.445.225.913.214 1.383.009.47-.062.938-.211 1.385l-.007.012ZM58.349 57.583l-2.146-7.608h-1.557l-2.145 7.602-2.146-7.608h-1.557l2.961 10.06h1.473l2.18-7.526 2.18 7.525h1.473l2.964-10.06h-1.557l-2.123 7.615Zm10.002-4.752a3.547 3.547 0 0 0-1.99-.534 3.803 3.803 0 0 0-1.962.494 3.436 3.436 0 0 0-1.314 1.404 4.623 4.623 0 0 0-.47 2.15c-.015.712.15 1.416.48 2.049.305.574.77 1.051 1.338 1.376.61.337 1.3.507 2 .491a3.774 3.774 0 0 0 2.017-.556 3.39 3.39 0 0 0 1.355-1.566l-1.451-.455a2.097 2.097 0 0 1-.791.891 2.274 2.274 0 0 1-1.199.307 1.981 1.981 0 0 1-1.616-.681 2.667 2.667 0 0 1-.539-1.512h5.696a5.216 5.216 0 0 0-.312-2.34 3.198 3.198 0 0 0-1.242-1.518Zm-3.606 1.45a2.047 2.047 0 0 1 1.672-.694 1.805 1.805 0 0 1 1.498.63c.276.394.439.855.47 1.333H64.24c.05-.46.225-.898.505-1.269Zm12.568-1.48a3.28 3.28 0 0 0-1.868-.523 3.089 3.089 0 0 0-1.822.523c-.09.064-.178.133-.262.206v-3.032h-1.485v10.06h1.317v-.704c.134.141.28.27.44.384.54.365 1.185.55 1.84.528a3.22 3.22 0 0 0 1.846-.525 3.417 3.417 0 0 0 1.196-1.429c.29-.64.433-1.335.42-2.036a4.676 4.676 0 0 0-.423-2.033 3.39 3.39 0 0 0-1.199-1.42Zm-.168 4.807a2.15 2.15 0 0 1-.694.958 1.848 1.848 0 0 1-1.174.356 1.95 1.95 0 0 1-1.19-.34 1.942 1.942 0 0 1-.673-.944 4.082 4.082 0 0 1-.211-1.382c-.009-.47.064-.937.215-1.382.121-.371.354-.698.666-.937a1.87 1.87 0 0 1 1.143-.335c.433-.018.86.108 1.211.357.323.245.567.576.704.955.159.43.237.885.23 1.342.006.46-.07.918-.227 1.352Zm-44.08-25.01V15.525H17.329V0H.017v17.075h15.738v13.973H.017v17.075h15.738v15.523h17.31V46.571H17.329V32.6h15.738ZM1.59 15.525V1.55h14.166v13.973H1.589Zm15.739 1.551H31.49v13.973H17.328V17.075ZM31.49 48.123v13.972H17.328V48.123H31.49Zm-15.735-1.536H1.589V32.599h14.166v13.988Z"/><path d="M6.507 12.032h1.339V9.215h2.4v-1.32h-2.4v-1.53h2.99V5.044h-4.33v6.988Zm15.738 15.523h1.34v-2.834h2.4V23.4h-2.4v-1.511h2.988V20.58h-4.328v6.976ZM8.406 43.073c.168 0 .337 0 .502-.034a2.75 2.75 0 0 0 1.45-.586c.402-.328.713-.75.904-1.229a4.46 4.46 0 0 0 0-3.271 3.043 3.043 0 0 0-.903-1.229 2.75 2.75 0 0 0-1.451-.586 5.456 5.456 0 0 0-.502-.034c-.168-.003-.29 0-.342 0H5.769v6.985H8.06l.345-.016Zm-1.28-5.737h1.296c.137.003.273.017.408.043.287.053.548.198.74.414.206.23.356.501.44.796a3.435 3.435 0 0 1 0 1.965c-.084.297-.231.571-.433.805-.194.224-.46.375-.754.427a2.621 2.621 0 0 1-.408.04H7.12l.006-4.49ZM23.04 58.603l1.37-4.718 1.374 4.718H27.1l2.074-6.985h-1.405l-1.326 4.801-1.33-4.8h-1.407l-1.327 4.791-1.33-4.804h-1.413l2.073 6.988 1.33.01Z"/></g><defs><clipPath id="a"><path fill="#fff" d="M0 0h180v63.646H0z"/></clipPath></defs></svg>