<svg width="100%" height="100%" viewBox="0 0 147 41" fill="none" xmlns="http://www.w3.org/2000/svg">
<g clip-path="url(#clip0_1472_6083)">
<path d="M39.1611 21.7119V7.75586H49.1391V10.0139H41.7921V13.7569H48.4111V16.0149H41.7921V21.7119H39.1611Z" fill="#9F9FA9"/>
<path fill-rule="evenodd" clip-rule="evenodd" d="M51.77 9.36V7H54.239V9.36H51.77ZM51.77 21.707V11.006H54.239V21.706H51.769L51.77 21.707Z" fill="#9F9FA9"/>
<path d="M57.376 21.709V7H59.846V21.709H57.376Z" fill="#9F9FA9"/>
<path fill-rule="evenodd" clip-rule="evenodd" d="M67.5541 21.9546C66.4208 21.9546 65.4764 21.7546 64.7211 21.3546C63.9658 20.9546 63.3991 20.341 63.0211 19.5136C62.6431 18.6856 62.4541 17.6343 62.4541 16.3596C62.4541 15.0716 62.6431 14.0173 63.0211 13.1966C63.3984 12.3766 63.9651 11.7663 64.7211 11.3656C65.4771 10.9656 66.4214 10.7656 67.5541 10.7656C68.5801 10.7656 69.4401 10.959 70.1341 11.3456C70.8301 11.7323 71.3534 12.3256 71.7041 13.1256C72.0541 13.9256 72.2294 14.963 72.2301 16.2376V16.9706H64.9841C65.0108 17.6353 65.1121 18.1946 65.2881 18.6486C65.4628 19.1033 65.7361 19.4423 66.1081 19.6656C66.4788 19.8896 66.9678 20.0016 67.5751 20.0016C67.8851 20.0016 68.1751 19.961 68.4451 19.8796C68.7041 19.8031 68.945 19.6748 69.1531 19.5026C69.3558 19.3333 69.5144 19.12 69.6291 18.8626C69.7438 18.6053 69.8011 18.3066 69.8011 17.9666H72.2311C72.2304 18.6453 72.1121 19.2353 71.8761 19.7366C71.6514 20.2249 71.3109 20.6509 70.8841 20.9776C70.4394 21.314 69.9347 21.5627 69.3971 21.7106C68.7974 21.8785 68.1769 21.9607 67.5541 21.9546ZM65.0241 15.2196H69.6591C69.6591 14.773 69.6084 14.3933 69.5071 14.0806C69.4221 13.7959 69.2775 13.5324 69.0831 13.3076C68.9055 13.1072 68.6787 12.9566 68.4251 12.8706C68.1443 12.779 67.8504 12.7341 67.5551 12.7376C67.0284 12.7376 66.5864 12.826 66.2291 13.0026C65.8737 13.1765 65.5856 13.4626 65.4091 13.8166C65.2204 14.1833 65.0921 14.651 65.0241 15.2196Z" fill="#9F9FA9"/>
<path d="M79.2749 21.9546C78.1689 21.9546 77.2479 21.7546 76.5119 21.3546C75.7773 20.9546 75.2272 20.341 74.8619 19.5136C74.4986 18.6856 74.3166 17.6343 74.3159 16.3596C74.3159 15.0716 74.5016 14.0173 74.8729 13.1966C75.2436 12.3766 75.7969 11.7663 76.5329 11.3656C77.2682 10.9656 78.1823 10.7656 79.2749 10.7656C79.9903 10.7656 80.6246 10.8536 81.1779 11.0296C81.7059 11.1919 82.1926 11.4661 82.6049 11.8336C83.0071 12.1993 83.3157 12.6561 83.5049 13.1656C83.7076 13.695 83.8089 14.312 83.8089 15.0166H81.2989C81.2989 14.5153 81.2249 14.102 81.0769 13.7766C80.9379 13.4617 80.6998 13.2008 80.3989 13.0336C80.0949 12.8636 79.7069 12.779 79.2349 12.7796C78.6809 12.7796 78.2289 12.9083 77.8789 13.1656C77.5282 13.4236 77.2682 13.807 77.0989 14.3156C76.9309 14.8243 76.8466 15.465 76.8459 16.2376V16.5026C76.8459 17.2626 76.9302 17.9 77.0989 18.4146C77.2682 18.9306 77.5349 19.314 77.8989 19.5646C78.2629 19.8153 78.7419 19.9406 79.3359 19.9406C79.7952 19.9406 80.1762 19.8556 80.4789 19.6856C80.7867 19.512 81.0314 19.2452 81.1779 18.9236C81.3399 18.5836 81.4209 18.177 81.4209 17.7036H83.8089C83.8089 18.3676 83.7076 18.9643 83.5049 19.4936C83.3153 20.0034 83.0107 20.4626 82.6149 20.8356C82.2043 21.2124 81.7177 21.4968 81.1879 21.6696C80.6279 21.8596 79.9903 21.9546 79.2749 21.9546Z" fill="#9F9FA9"/>
<path fill-rule="evenodd" clip-rule="evenodd" d="M91.1541 21.955C89.9941 21.955 89.0224 21.755 88.2391 21.355C87.4564 20.955 86.8698 20.3413 86.4791 19.514C86.0871 18.686 85.8914 17.6347 85.8921 16.36C85.8921 15.072 86.0878 14.0177 86.4791 13.197C86.8698 12.377 87.4564 11.7667 88.2391 11.366C89.0218 10.966 89.9934 10.766 91.1541 10.766C92.3274 10.766 93.3021 10.966 94.0781 11.366C94.8541 11.766 95.4378 12.376 95.8291 13.196C96.2204 14.018 96.4161 15.0727 96.4161 16.36C96.4161 17.6347 96.2204 18.686 95.8291 19.514C95.4378 20.3407 94.8544 20.954 94.0791 21.354C93.3024 21.754 92.3274 21.9543 91.1541 21.955ZM91.1541 19.921C91.8021 19.921 92.3254 19.7953 92.7241 19.544C93.1214 19.294 93.4114 18.9143 93.5941 18.405C93.7754 17.897 93.8664 17.263 93.8671 16.503V16.218C93.8671 15.458 93.7761 14.824 93.5941 14.316C93.4108 13.8073 93.1208 13.4277 92.7241 13.177C92.3254 12.927 91.8021 12.8017 91.1541 12.801C90.5074 12.801 89.9848 12.9263 89.5861 13.177C89.1881 13.4277 88.8981 13.8077 88.7161 14.317C88.5334 14.825 88.4421 15.4587 88.4421 16.218V16.503C88.4421 17.263 88.5334 17.897 88.7161 18.405C88.8981 18.9143 89.1881 19.2943 89.5861 19.545C89.9841 19.7957 90.5061 19.921 91.1541 19.921ZM99.0271 9.36V7H101.497V9.36H99.0271ZM99.0271 21.707V11.006H101.497V21.706H99.0271V21.707Z" fill="#9F9FA9"/>
<path d="M104.634 21.7099V11.0099H106.698L106.9 12.4339H107.042C107.287 12.1071 107.577 11.8159 107.902 11.5689C108.233 11.3189 108.611 11.1223 109.036 10.9789C109.49 10.8322 109.965 10.7602 110.442 10.7659C111.117 10.7659 111.714 10.8879 112.233 11.1319C112.753 11.3759 113.161 11.7693 113.458 12.3119C113.755 12.8546 113.903 13.5799 113.903 14.4879V21.7109H111.414V14.9359C111.414 14.5559 111.37 14.2406 111.282 13.9899C111.206 13.7584 111.074 13.549 110.898 13.3799C110.722 13.2207 110.51 13.1055 110.281 13.0439C110.017 12.9732 109.745 12.9389 109.471 12.9419C109.025 12.9426 108.624 13.0513 108.267 13.2679C107.909 13.4852 107.616 13.7942 107.417 14.1629C107.208 14.5429 107.103 14.9836 107.103 15.4849V21.7109H104.634V21.7099ZM39.1611 40.0199V26.0639H49.1391V28.3229H41.7921V32.0659H48.4111V34.3239H41.7921V40.0199H39.1611Z" fill="#9F9FA9"/>
<path fill-rule="evenodd" clip-rule="evenodd" d="M55.9002 40.2661C54.7402 40.2661 53.7688 40.0661 52.9862 39.6661C52.2035 39.2661 51.6168 38.6522 51.2262 37.8242C50.8342 36.9975 50.6385 35.9465 50.6392 34.6712C50.6392 33.3825 50.8345 32.3278 51.2252 31.5071C51.6172 30.6871 52.2042 30.0771 52.9862 29.6771C53.7682 29.2771 54.7398 29.0771 55.9012 29.0771C57.0745 29.0771 58.0492 29.2771 58.8252 29.6771C59.6012 30.0771 60.1848 30.6871 60.5762 31.5071C60.9675 32.3278 61.1632 33.3825 61.1632 34.6712C61.1632 35.9465 60.9675 36.9975 60.5762 37.8242C60.1842 38.6522 59.6008 39.2658 58.8262 39.6651C58.0502 40.0651 57.0752 40.2651 55.9012 40.2651L55.9002 40.2661ZM55.9022 38.2321C56.5488 38.2321 57.0715 38.1065 57.4702 37.8551C57.8682 37.6051 58.1582 37.2251 58.3402 36.7151C58.5222 36.2071 58.6132 35.5735 58.6132 34.8141V34.5291C58.6132 33.7691 58.5222 33.1351 58.3402 32.6271C58.1582 32.1185 57.8682 31.7385 57.4702 31.4871C57.0722 31.2371 56.5495 31.1118 55.9022 31.1111C54.9312 31.1101 54.7312 31.2371 54.3332 31.4871C53.9352 31.7385 53.6452 32.1185 53.4632 32.6271C53.2805 33.1351 53.1895 33.7691 53.1902 34.5291V34.8141C53.1902 35.5741 53.2812 36.2081 53.4632 36.7161C53.6452 37.2241 53.9352 37.6038 54.3332 37.8551C54.9302 38.2321 55.2532 38.2321 55.9022 38.2321Z" fill="#9F9FA9"/>
<path d="M67.1509 40.2636C66.1263 40.2636 65.2929 39.9819 64.6509 39.4186C64.0109 38.8566 63.6909 37.8972 63.6909 36.5406V29.3176H66.1589V36.0926C66.1589 36.4726 66.2029 36.7879 66.2909 37.0386C66.3789 37.2892 66.5073 37.4926 66.6759 37.6486C66.8439 37.8052 67.0496 37.9172 67.2929 37.9846C67.6579 38.0856 67.8059 38.0866 68.1029 38.0866C68.5257 38.0921 68.9416 37.9801 69.3044 37.7628C69.6671 37.5456 69.9622 37.2319 70.1569 36.8566C70.3711 36.4525 70.4791 36.0008 70.4709 35.5436V29.3176H72.9399V40.0196H70.8959L70.6929 38.5956H70.5519C70.3068 38.9224 70.0174 39.2135 69.6919 39.4606C69.3489 39.7183 68.9658 39.9176 68.5579 40.0506C68.1036 40.1978 67.6284 40.269 67.1509 40.2636ZM76.0769 40.0196V29.3166H78.1419L78.3439 30.7406H78.4859C78.7279 30.4159 79.0146 30.1279 79.3459 29.8766C79.6759 29.6252 80.0536 29.4286 80.4789 29.2866C80.9332 29.1393 81.4084 29.0671 81.8859 29.0726C82.5613 29.0726 83.1583 29.1946 83.6769 29.4386C84.1969 29.6832 84.6052 30.0766 84.9019 30.6186C85.1979 31.1619 85.3462 31.8876 85.3469 32.7956V40.0176H82.8569V33.2436C82.8569 32.8636 82.8132 32.5482 82.7259 32.2976C82.6494 32.066 82.5176 31.8567 82.3419 31.6876C82.1655 31.5282 81.9536 31.413 81.7239 31.3516C81.4598 31.2808 81.1873 31.2465 80.9139 31.2496C80.4693 31.2496 80.0679 31.3579 79.7099 31.5746C79.3521 31.7925 79.0587 32.1017 78.8599 32.4706C78.6512 32.8506 78.5469 33.2912 78.5469 33.7926V40.0176H76.0769V40.0196Z" fill="#9F9FA9"/>
<path fill-rule="evenodd" clip-rule="evenodd" d="M92.105 40.2674C91.241 40.2674 90.492 40.0708 89.858 39.6774C89.224 39.2841 88.735 38.6741 88.391 37.8474C88.047 37.0194 87.875 35.9544 87.875 34.6524C87.875 33.3638 88.0503 32.3094 88.401 31.4894C88.7517 30.6694 89.2373 30.0624 89.858 29.6684C90.4787 29.2751 91.1803 29.0784 91.963 29.0784C92.449 29.0784 92.8943 29.1328 93.299 29.2414C93.7037 29.3494 94.0613 29.5154 94.372 29.7394C94.6827 29.9634 94.946 30.2381 95.162 30.5634H95.282V25.3154H97.752V40.0234H95.708L95.505 38.5994H95.364C95.0419 39.142 94.5667 39.5772 93.998 39.8504C93.407 40.1317 92.7595 40.2743 92.105 40.2674ZM92.875 38.1304C93.4417 38.1304 93.9003 38.0014 94.251 37.7434C94.601 37.4861 94.861 37.1131 95.031 36.6244C95.199 36.1364 95.283 35.5398 95.283 34.8344V34.5704C95.283 34.0411 95.2357 33.5664 95.141 33.1464C95.0656 32.7688 94.9183 32.4093 94.707 32.0874C94.5179 31.8091 94.2594 31.585 93.957 31.4374C93.6537 31.2881 93.293 31.2134 92.875 31.2134C92.267 31.2134 91.7843 31.3321 91.427 31.5694C91.0697 31.8068 90.8133 32.1728 90.658 32.6674C90.5033 33.1634 90.426 33.7908 90.426 34.5494V34.8344C90.426 35.5804 90.5037 36.1974 90.659 36.6854C90.813 37.1741 91.069 37.5371 91.427 37.7744C91.785 38.0118 92.2677 38.1304 92.875 38.1304ZM103.622 40.2664C103.325 40.2664 102.985 40.2291 102.601 40.1544C102.209 40.0777 101.833 39.9365 101.488 39.7364C101.118 39.5204 100.813 39.2075 100.607 38.8314C100.377 38.4314 100.262 37.9058 100.263 37.2544C100.263 36.5231 100.425 35.9164 100.749 35.4344C101.072 34.9524 101.528 34.5724 102.115 34.2944C102.702 34.0171 103.403 33.8204 104.22 33.7044C105.036 33.5891 105.93 33.5314 106.902 33.5314V32.6574C106.902 32.3454 106.855 32.0674 106.76 31.8234C106.662 31.5752 106.479 31.3698 106.244 31.2434C105.994 31.1008 105.619 31.0294 105.12 31.0294C104.621 31.0294 104.23 31.0904 103.946 31.2124C103.662 31.3344 103.467 31.4838 103.36 31.6604C103.255 31.8243 103.198 32.0147 103.197 32.2094V32.4944H100.809C100.795 32.4276 100.789 32.3596 100.789 32.2914V32.0464C100.789 31.4364 100.971 30.9074 101.336 30.4594C101.7 30.0121 102.206 29.6698 102.854 29.4324C103.501 29.1951 104.249 29.0764 105.1 29.0764C106.071 29.0764 106.871 29.2121 107.499 29.4834C108.126 29.7548 108.594 30.1414 108.905 30.6434C109.216 31.1454 109.371 31.7554 109.371 32.4734V37.5194C109.371 37.7768 109.445 37.9601 109.593 38.0694C109.742 38.1774 109.904 38.2314 110.079 38.2314H110.727V39.9404C110.534 40.0134 110.338 40.0778 110.14 40.1334C109.829 40.2142 109.509 40.2519 109.188 40.2454C108.837 40.2454 108.524 40.1878 108.247 40.0724C107.979 39.9634 107.739 39.7928 107.549 39.5744C107.356 39.3517 107.217 39.087 107.144 38.8014H107.023C106.793 39.0861 106.52 39.3401 106.203 39.5634C105.864 39.7976 105.487 39.9733 105.09 40.0834C104.612 40.2128 104.117 40.2744 103.622 40.2664ZM104.372 38.2294C104.777 38.2294 105.138 38.1684 105.455 38.0464C105.772 37.9244 106.035 37.7548 106.244 37.5374C106.453 37.3214 106.615 37.0571 106.73 36.7444C106.845 36.4331 106.902 36.0941 106.902 35.7274V35.2384C106.16 35.2384 105.475 35.2861 104.848 35.3814C104.219 35.4761 103.72 35.6524 103.35 35.9104C102.978 36.1684 102.792 36.5348 102.793 37.0094C102.793 37.2528 102.85 37.4661 102.965 37.6494C103.08 37.8328 103.255 37.9754 103.491 38.0774C103.727 38.1794 104.021 38.2301 104.372 38.2294Z" fill="#9F9FA9"/>
<path d="M115.462 40.2621C114.801 40.2621 114.282 40.1298 113.904 39.8652C113.538 39.6173 113.259 39.2619 113.104 38.8481C112.95 38.4417 112.871 38.0107 112.871 37.5761V31.3511H111.597V29.3171H112.932L113.377 26.3271H115.341V29.3171H117.183V31.3511H115.341V37.3321C115.341 37.6175 115.416 37.8378 115.564 37.9931C115.712 38.1498 115.935 38.2281 116.232 38.2281H117.183V39.9361C117.021 39.9978 116.856 40.0489 116.687 40.0891C116.483 40.1379 116.277 40.1786 116.069 40.2111C115.868 40.2436 115.666 40.2606 115.462 40.2621Z" fill="#9F9FA9"/>
<path fill-rule="evenodd" clip-rule="evenodd" d="M119.51 27.6745V25.3145H121.979V27.6745H119.51ZM119.51 40.0215V29.3215H121.979V40.0215H119.51ZM129.852 40.2665C128.691 40.2665 127.72 40.0665 126.938 39.6665C126.156 39.2665 125.569 38.6525 125.177 37.8245C124.785 36.9978 124.589 35.9468 124.59 34.6715C124.59 33.3828 124.785 32.3281 125.177 31.5075C125.568 30.6875 126.155 30.0775 126.938 29.6775C127.72 29.2775 128.692 29.0775 129.852 29.0775C131.026 29.0775 132.001 29.2775 132.777 29.6775C133.553 30.0775 134.136 30.6875 134.527 31.5075C134.918 32.3281 135.114 33.3828 135.114 34.6715C135.114 35.9468 134.918 36.9978 134.527 37.8245C134.136 38.6525 133.553 39.2661 132.777 39.6655C132.001 40.0655 131.026 40.2665 129.852 40.2665ZM129.853 38.2325C130.499 38.2325 131.022 38.1068 131.421 37.8555C131.819 37.6055 132.109 37.2255 132.292 36.7155C132.474 36.2075 132.565 35.5738 132.565 34.8145V34.5295C132.565 33.7695 132.474 33.1355 132.292 32.6275C132.11 32.1188 131.819 31.7388 131.421 31.4875C131.023 31.2375 130.5 31.1121 129.853 31.1115C129.205 31.1115 128.682 31.2368 128.284 31.4875C127.886 31.7388 127.596 32.1188 127.414 32.6275C127.232 33.1361 127.141 33.7701 127.141 34.5295V34.8145C127.141 35.5745 127.232 36.2085 127.414 36.7165C127.596 37.2245 127.886 37.6041 128.284 37.8555C128.881 38.2325 129.205 38.2325 129.853 38.2325Z" fill="#9F9FA9"/>
<path d="M137.724 40.02V29.317H139.788L139.991 30.741H140.132C140.375 30.4163 140.661 30.1283 140.992 29.877C141.335 29.6193 141.718 29.42 142.126 29.287C142.58 29.1398 143.055 29.0675 143.533 29.073C144.207 29.073 144.804 29.195 145.324 29.439C145.843 29.6837 146.251 30.077 146.548 30.619C146.845 31.1623 146.993 31.888 146.993 32.796V40.018H144.504V33.244C144.504 32.864 144.46 32.5487 144.372 32.298C144.295 32.0665 144.164 31.8571 143.988 31.688C143.812 31.5286 143.6 31.4134 143.37 31.352C143.106 31.2813 142.834 31.247 142.561 31.25C142.116 31.25 141.714 31.3583 141.357 31.575C140.999 31.7928 140.705 32.1021 140.506 32.471C140.298 32.851 140.194 33.2917 140.193 33.793V40.018H137.724V40.02ZM23.47 0C22.808 0 20.777 0 18.33 2.33C16.049 4.505 14.783 8.36 14.449 9.494L14.429 9.564L14.177 10.404C12.005 10.422 10.279 11.084 9.668 11.434C7.674 12.427 4.015 15.623 4.436 20.619C4.854 25.579 8.313 28.161 10.125 28.854C9.824 30.229 9.45 31.579 9.052 33.01L8.942 33.403C8.61729 34.4931 8.19734 35.5525 7.687 36.569C7.042 37.858 5.871 38.368 5.341 38.459C4.74 38.583 4.261 38.522 3.931 38.286C3.80904 38.194 3.70699 38.0783 3.63102 37.9458C3.55505 37.8133 3.50674 37.6667 3.489 37.515C3.335 36.25 2.549 35.577 2.09 35.45C1.478 35.292 0.974 35.361 0.593 35.656C0.41033 35.8084 0.26276 35.9984 0.160406 36.2131C0.0580518 36.4278 0.00333304 36.6622 0 36.9C0 39.325 2.962 39.987 4.524 40C5.187 40 7.217 40 9.664 37.67C11.936 35.505 13.341 31.498 13.778 29.645C19.075 29.6 21.903 26.144 22.66 24.325C23.236 23.287 24.095 20.445 23.195 17.104C22.307 13.792 19.309 11.826 17.805 11.229L18.247 9.566L18.257 9.524C18.477 8.674 18.713 7.816 18.943 6.989L19.053 6.596C19.378 5.506 19.798 4.446 20.308 3.43C20.954 2.141 22.125 1.631 22.654 1.54C23.257 1.42 23.73 1.481 24.063 1.721C24.1866 1.8121 24.2902 1.92764 24.3672 2.06044C24.4443 2.19325 24.4932 2.34048 24.511 2.493C24.666 3.758 25.451 4.43 25.91 4.558C26.522 4.716 27.026 4.646 27.407 4.352C27.5898 4.19954 27.7374 4.00932 27.8398 3.79442C27.9422 3.57952 27.9968 3.34501 28 3.107C27.997 0.674 25.035 0.01 23.47 0ZM13.598 12.808L10.647 26.428C8.77 25.493 5.728 22.5 7.195 17.59C7.601 16.112 9.462 13.226 13.598 12.808ZM21.134 21.434C20.163 26.029 16.422 27.216 14.434 27.216H14.333L17.313 13.493C21.286 15.811 21.552 19.695 21.133 21.433L21.134 21.434Z" fill="#9F9FA9"/>
</g>
<defs>
<clipPath id="clip0_1472_6083">
<rect width="147" height="41" fill="white"/>
</clipPath>
</defs>
</svg>
