<svg viewBox="0 0 87 24" fill="none" xmlns="http://www.w3.org/2000/svg">
<g clip-path="url(#clip0_714_1626)">
<path d="M22.9233 12.7104V4.54102H28.7641V5.86277H24.4634V8.0538H28.338V9.37555H24.4634V12.7104H22.9233Z" fill="#9F9FA9"/>
<path fill-rule="evenodd" clip-rule="evenodd" d="M30.3043 5.47912V4.09766H31.7496V5.47912H30.3043ZM30.3043 12.7066V6.44263H31.7496V12.706H30.3037L30.3043 12.7066Z" fill="#9F9FA9"/>
<path d="M33.5859 12.7078V4.09766H35.0318V12.7078H33.5859Z" fill="#9F9FA9"/>
<path fill-rule="evenodd" clip-rule="evenodd" d="M39.544 12.8524C38.8805 12.8524 38.3278 12.7353 37.8856 12.5012C37.4435 12.267 37.1118 11.9078 36.8905 11.4235C36.6692 10.9388 36.5586 10.3234 36.5586 9.57727C36.5586 8.82332 36.6692 8.20615 36.8905 7.72576C37.1114 7.24576 37.4431 6.88849 37.8856 6.65395C38.3282 6.41981 38.8809 6.30273 39.544 6.30273C40.1445 6.30273 40.648 6.41591 41.0542 6.64225C41.4616 6.86859 41.768 7.21591 41.9732 7.6842C42.1781 8.15249 42.2807 8.75971 42.2811 9.50586V9.93493H38.0396C38.0552 10.324 38.1145 10.6514 38.2175 10.9172C38.3198 11.1833 38.4798 11.3818 38.6975 11.5125C38.9145 11.6436 39.2007 11.7092 39.5563 11.7092C39.7377 11.7092 39.9075 11.6854 40.0655 11.6378C40.2172 11.5929 40.3581 11.5179 40.48 11.4171C40.5986 11.318 40.6915 11.1931 40.7586 11.0424C40.8257 10.8918 40.8593 10.717 40.8593 10.518H42.2817C42.2813 10.9152 42.2121 11.2606 42.0739 11.5541C41.9424 11.8399 41.7431 12.0892 41.4932 12.2805C41.2329 12.4774 40.9375 12.623 40.6228 12.7096C40.2717 12.8078 39.9085 12.8559 39.544 12.8524ZM38.063 8.90995H40.7762C40.7762 8.64849 40.7465 8.42625 40.6872 8.24322C40.6374 8.07653 40.5528 7.9223 40.439 7.79073C40.335 7.67343 40.2023 7.58526 40.0538 7.53493C39.8895 7.4813 39.7174 7.455 39.5445 7.45708C39.2363 7.45708 38.9775 7.50878 38.7683 7.6122C38.5603 7.71396 38.3916 7.88142 38.2883 8.08869C38.1779 8.30332 38.1028 8.57708 38.063 8.90995Z" fill="#9F9FA9"/>
<path d="M46.4048 12.8524C45.7574 12.8524 45.2182 12.7353 44.7874 12.5012C44.3574 12.267 44.0354 11.9078 43.8216 11.4235C43.6089 10.9388 43.5023 10.3234 43.502 9.57727C43.502 8.82332 43.6106 8.20615 43.828 7.72576C44.045 7.24576 44.3689 6.88849 44.7997 6.65395C45.2301 6.41981 45.7652 6.30273 46.4048 6.30273C46.8235 6.30273 47.1948 6.35425 47.5187 6.45727C47.8278 6.55225 48.1127 6.71278 48.3541 6.92791C48.5895 7.14196 48.7701 7.40934 48.8809 7.70761C48.9995 8.01747 49.0588 8.37864 49.0588 8.79113H47.5896C47.5896 8.49766 47.5462 8.25571 47.4596 8.06527C47.3782 7.88093 47.2389 7.72822 47.0627 7.63034C46.8848 7.53083 46.6577 7.48127 46.3814 7.48166C46.0571 7.48166 45.7925 7.55698 45.5876 7.70761C45.3823 7.85864 45.2301 8.08303 45.131 8.38078C45.0327 8.67854 44.9833 9.05356 44.9829 9.50586V9.66098C44.9829 10.1059 45.0323 10.4789 45.131 10.7802C45.2301 11.0822 45.3862 11.3066 45.5993 11.4534C45.8124 11.6001 46.0928 11.6735 46.4405 11.6735C46.7094 11.6735 46.9324 11.6237 47.1096 11.5242C47.2897 11.4225 47.433 11.2664 47.5187 11.0781C47.6136 10.8791 47.661 10.6411 47.661 10.364H49.0588C49.0588 10.7527 48.9995 11.102 48.8809 11.4118C48.7699 11.7102 48.5916 11.979 48.3599 12.1974C48.1195 12.4179 47.8347 12.5844 47.5246 12.6856C47.1968 12.7968 46.8235 12.8524 46.4048 12.8524Z" fill="#9F9FA9"/>
<path fill-rule="evenodd" clip-rule="evenodd" d="M53.3585 12.8518C52.6795 12.8518 52.1107 12.7347 51.6522 12.5006C51.194 12.2664 50.8506 11.9072 50.6219 11.4229C50.3925 10.9382 50.2779 10.3228 50.2783 9.57668C50.2783 8.82273 50.3929 8.20556 50.6219 7.72517C50.8506 7.24517 51.194 6.8879 51.6522 6.65336C52.1103 6.41922 52.6791 6.30214 53.3585 6.30214C54.0453 6.30214 54.6159 6.41922 55.0701 6.65336C55.5244 6.88751 55.866 7.24458 56.0951 7.72458C56.3242 8.20575 56.4387 8.82312 56.4387 9.57668C56.4387 10.3228 56.3242 10.9382 56.0951 11.4229C55.866 11.9068 55.5246 12.2659 55.0707 12.5C54.6161 12.7341 54.0453 12.8514 53.3585 12.8518ZM53.3585 11.6612C53.7378 11.6612 54.0442 11.5876 54.2775 11.4405C54.5101 11.2941 54.6799 11.0719 54.7868 10.7738C54.893 10.4764 54.9462 10.1053 54.9466 9.66039V9.49356C54.9466 9.04868 54.8933 8.67756 54.7868 8.38019C54.6795 8.08244 54.5097 7.86019 54.2775 7.71346C54.0442 7.56712 53.7378 7.49375 53.3585 7.49336C52.98 7.49336 52.674 7.56673 52.4407 7.71346C52.2077 7.86019 52.0379 8.08263 51.9314 8.38078C51.8245 8.67814 51.771 9.04907 51.771 9.49356V9.66039C51.771 10.1053 51.8245 10.4764 51.9314 10.7738C52.0379 11.0719 52.2077 11.2943 52.4407 11.4411C52.6736 11.5878 52.9792 11.6612 53.3585 11.6612ZM57.9671 5.47912V4.09766H59.413V5.47912H57.9671ZM57.9671 12.7066V6.44263H59.413V12.706H57.9671V12.7066Z" fill="#9F9FA9"/>
<path d="M61.249 12.7092V6.44575H62.4572L62.5754 7.27931H62.6586C62.802 7.08797 62.9715 6.91756 63.162 6.77297C63.3559 6.62663 63.5772 6.5115 63.8258 6.4276C64.0915 6.34169 64.3695 6.29958 64.6488 6.30292C65.0441 6.30292 65.3936 6.37433 65.6972 6.51716C66.0016 6.65999 66.2406 6.89024 66.4143 7.20789C66.5879 7.52555 66.6748 7.95014 66.6748 8.48165V12.7097H65.2178V8.74389C65.2178 8.52146 65.192 8.33687 65.1405 8.19014C65.0957 8.05461 65.0186 7.93205 64.9157 7.83307C64.8126 7.73984 64.6888 7.67243 64.5546 7.63638C64.4 7.59497 64.2404 7.57488 64.0804 7.57667C63.8193 7.57707 63.5844 7.64067 63.3756 7.7675C63.1661 7.89468 62.9943 8.07556 62.8781 8.29141C62.7555 8.51385 62.6943 8.7718 62.6943 9.06526V12.7097H61.249V12.7092ZM22.9233 23.4272V15.2578H28.7641V16.5802H24.4634V18.7712H28.338V20.093H24.4634V23.4272H22.9233Z" fill="#9F9FA9"/>
<path fill-rule="evenodd" clip-rule="evenodd" d="M32.7217 23.5711C32.0427 23.5711 31.4741 23.4541 31.0159 23.2199C30.5578 22.9858 30.2144 22.6264 29.9857 22.1417C29.7562 21.6578 29.6417 21.0426 29.6421 20.296C29.6421 19.5417 29.7564 18.9243 29.9851 18.4439C30.2146 17.9639 30.5582 17.6069 31.0159 17.3727C31.4737 17.1386 32.0425 17.0215 32.7223 17.0215C33.4091 17.0215 33.9797 17.1386 34.4339 17.3727C34.8881 17.6069 35.2298 17.9639 35.4589 18.4439C35.6879 18.9243 35.8025 19.5417 35.8025 20.296C35.8025 21.0426 35.6879 21.6578 35.4589 22.1417C35.2294 22.6264 34.8879 22.9856 34.4345 23.2193C33.9802 23.4535 33.4095 23.5706 32.7223 23.5706L32.7217 23.5711ZM32.7229 22.3805C33.1014 22.3805 33.4074 22.3069 33.6407 22.1598C33.8737 22.0135 34.0435 21.791 34.15 21.4925C34.2565 21.1951 34.3098 20.8242 34.3098 20.3797V20.2129C34.3098 19.768 34.2565 19.3969 34.15 19.0995C34.0435 18.8018 33.8737 18.5793 33.6407 18.4322C33.4078 18.2859 33.1018 18.2125 32.7229 18.2121C32.1545 18.2115 32.0374 18.2859 31.8044 18.4322C31.5715 18.5793 31.4017 18.8018 31.2952 19.0995C31.1882 19.3969 31.135 19.768 31.1354 20.2129V20.3797C31.1354 20.8246 31.1886 21.1957 31.2952 21.4931C31.4017 21.7905 31.5715 22.0127 31.8044 22.1598C32.1539 22.3805 32.343 22.3805 32.7229 22.3805Z" fill="#9F9FA9"/>
<path d="M39.3081 23.5686C38.7083 23.5686 38.2205 23.4037 37.8447 23.0739C37.47 22.745 37.2827 22.1834 37.2827 21.3893V17.1612H38.7274V21.127C38.7274 21.3495 38.7532 21.534 38.8047 21.6808C38.8562 21.8275 38.9313 21.9465 39.03 22.0378C39.1284 22.1296 39.2488 22.1951 39.3912 22.2345C39.6049 22.2937 39.6915 22.2942 39.8653 22.2942C40.1128 22.2975 40.3563 22.2319 40.5686 22.1047C40.781 21.9776 40.9537 21.7939 41.0677 21.5742C41.1931 21.3377 41.2563 21.0733 41.2515 20.8056V17.1612H42.6968V23.4257H41.5003L41.3814 22.5922H41.2989C41.1554 22.7835 40.986 22.9539 40.7955 23.0985C40.5947 23.2494 40.3704 23.3661 40.1317 23.4439C39.8658 23.5301 39.5876 23.5718 39.3081 23.5686ZM44.5331 23.4257V17.1606H45.7418L45.8601 17.9941H45.9432C46.0849 17.8041 46.2527 17.6355 46.4466 17.4884C46.6398 17.3413 46.8609 17.2261 47.1098 17.143C47.3758 17.0568 47.6539 17.0145 47.9334 17.0177C48.3288 17.0177 48.6782 17.0892 48.9818 17.232C49.2862 17.3752 49.5253 17.6055 49.6989 17.9227C49.8722 18.2408 49.959 18.6656 49.9594 19.1971V23.4246H48.5018V19.4593C48.5018 19.2369 48.4763 19.0523 48.4252 18.9056C48.3804 18.77 48.3032 18.6475 48.2004 18.5485C48.0971 18.4552 47.9731 18.3878 47.8386 18.3518C47.684 18.3104 47.5245 18.2903 47.3645 18.2921C47.1042 18.2921 46.8693 18.3555 46.6597 18.4823C46.4502 18.6099 46.2785 18.7909 46.1621 19.0068C46.04 19.2293 45.9789 19.4872 45.9789 19.7807V23.4246H44.5331V23.4257Z" fill="#9F9FA9"/>
<path fill-rule="evenodd" clip-rule="evenodd" d="M53.9151 23.5707C53.4093 23.5707 52.9709 23.4556 52.5997 23.2254C52.2286 22.9951 51.9424 22.6381 51.741 22.1542C51.5396 21.6695 51.439 21.0461 51.439 20.2839C51.439 19.5296 51.5416 18.9124 51.7469 18.4324C51.9521 17.9524 52.2364 17.5971 52.5997 17.3665C52.9631 17.1362 53.3738 17.0211 53.8319 17.0211C54.1164 17.0211 54.3771 17.0529 54.614 17.1165C54.8509 17.1797 55.0602 17.2769 55.2421 17.408C55.4239 17.5391 55.5781 17.6999 55.7045 17.8904H55.7748V14.8184H57.2206V23.4279H56.0241L55.9053 22.5944H55.8228C55.6343 22.9119 55.3561 23.1667 55.0232 23.3267C54.6772 23.4913 54.2982 23.5748 53.9151 23.5707ZM54.3658 22.3198C54.6975 22.3198 54.966 22.2443 55.1713 22.0933C55.3761 21.9427 55.5283 21.7243 55.6278 21.4383C55.7262 21.1526 55.7754 20.8033 55.7754 20.3905V20.2359C55.7754 19.9261 55.7476 19.6482 55.6922 19.4024C55.6481 19.1813 55.5619 18.9709 55.4382 18.7825C55.3275 18.6195 55.1762 18.4884 54.9992 18.402C54.8216 18.3146 54.6105 18.2708 54.3658 18.2708C54.0099 18.2708 53.7274 18.3403 53.5182 18.4792C53.309 18.6182 53.159 18.8324 53.068 19.122C52.9775 19.4123 52.9322 19.7795 52.9322 20.2236V20.3905C52.9322 20.8271 52.9777 21.1883 53.0686 21.474C53.1588 21.76 53.3086 21.9725 53.5182 22.1114C53.7277 22.2504 54.0103 22.3198 54.3658 22.3198ZM60.6567 23.5702C60.4831 23.5702 60.2838 23.5483 60.0591 23.5046C59.8298 23.4597 59.6097 23.377 59.4076 23.2599C59.1907 23.1335 59.0124 22.9503 58.8918 22.7302C58.7572 22.496 58.6901 22.1883 58.6905 21.807C58.6905 21.3789 58.7853 21.0238 58.975 20.7417C59.1642 20.4595 59.4308 20.2371 59.7746 20.0744C60.118 19.912 60.5287 19.7969 61.0068 19.729C61.4844 19.6615 62.0077 19.6277 62.5767 19.6277V19.1161C62.5767 18.9335 62.549 18.7707 62.4936 18.6279C62.4362 18.4826 62.3292 18.3624 62.1916 18.2884C62.0452 18.2049 61.8259 18.1631 61.5336 18.1631C61.2417 18.1631 61.0126 18.1988 60.8464 18.2703C60.6801 18.3417 60.5658 18.4291 60.5034 18.5325C60.4418 18.6285 60.4087 18.7399 60.4079 18.8539V19.0207H59.0101C59.0021 18.9816 58.9982 18.9418 58.9984 18.9019V18.7585C58.9984 18.4014 59.1051 18.0917 59.3186 17.8295C59.5316 17.5676 59.8278 17.3672 60.2072 17.2283C60.5857 17.0894 61.0239 17.0199 61.5219 17.0199C62.0905 17.0199 62.5586 17.0993 62.9262 17.2582C63.293 17.417 63.5674 17.6433 63.7492 17.9372C63.9311 18.231 64.022 18.5881 64.022 19.0084V21.9622C64.022 22.1128 64.0653 22.2201 64.1519 22.2841C64.239 22.3473 64.3338 22.3789 64.4364 22.3789H64.8157V23.3793C64.7029 23.422 64.5883 23.4597 64.4721 23.4923C64.2903 23.5396 64.1028 23.5617 63.9149 23.5579C63.7096 23.5579 63.526 23.5241 63.364 23.4566C63.2069 23.3928 63.0669 23.2929 62.9555 23.1651C62.8424 23.0347 62.7612 22.8798 62.7184 22.7126H62.6476C62.5129 22.8792 62.3529 23.0279 62.1676 23.1587C61.9689 23.2957 61.7487 23.3986 61.516 23.463C61.236 23.5387 60.9468 23.5748 60.6567 23.5702ZM61.0957 22.3778C61.3326 22.3778 61.5439 22.3421 61.7297 22.2707C61.9151 22.1992 62.069 22.0999 62.1916 21.9727C62.3141 21.8463 62.4089 21.6915 62.476 21.5085C62.5432 21.3263 62.5767 21.1278 62.5767 20.9132V20.6269C62.1424 20.6269 61.7416 20.6548 61.3744 20.7107C61.0064 20.7661 60.7141 20.8693 60.4975 21.0203C60.2797 21.1713 60.1711 21.3858 60.1715 21.6636C60.1715 21.8061 60.205 21.9309 60.2721 22.0383C60.3393 22.1456 60.4419 22.2291 60.58 22.2888C60.7182 22.3485 60.8901 22.3782 61.0957 22.3778Z" fill="#9F9FA9"/>
<path d="M67.5876 23.5672C67.2009 23.5672 66.8969 23.4898 66.6756 23.3348C66.4616 23.1898 66.2979 22.9817 66.2073 22.7395C66.1173 22.5016 66.0711 22.2493 66.071 21.9949V18.351H65.3252V17.1604H66.1067L66.3671 15.4102H67.5168V17.1604H68.595V18.351H67.5168V21.8521C67.5168 22.0191 67.5603 22.1481 67.6473 22.239C67.734 22.3307 67.8643 22.3766 68.0384 22.3766H68.595V23.3764C68.5003 23.4125 68.4033 23.4424 68.3047 23.466C68.1851 23.4945 68.0644 23.5183 67.943 23.5374C67.8254 23.5563 67.7067 23.5663 67.5876 23.5672Z" fill="#9F9FA9"/>
<path fill-rule="evenodd" clip-rule="evenodd" d="M69.957 16.1998V14.8184H71.4023V16.1998H69.957ZM69.957 23.4273V17.1639H71.4023V23.4273H69.957ZM76.0109 23.5707C75.3315 23.5707 74.7629 23.4537 74.3051 23.2195C73.8474 22.9854 73.5038 22.626 73.2743 22.1413C73.0448 21.6574 72.9303 21.0422 72.9307 20.2956C72.9307 19.5413 73.0452 18.9239 73.2743 18.4435C73.5034 17.9635 73.847 17.6065 74.3051 17.3723C74.7633 17.1382 75.3319 17.0211 76.0109 17.0211C76.6981 17.0211 77.2688 17.1382 77.7231 17.3723C78.1773 17.6065 78.5188 17.9635 78.7475 18.4435C78.9765 18.9239 79.0911 19.5413 79.0911 20.2956C79.0911 21.0422 78.9765 21.6574 78.7475 22.1413C78.5188 22.626 78.1773 22.9852 77.7231 23.2189C77.2688 23.4531 76.6981 23.5707 76.0109 23.5707ZM76.0115 22.3801C76.39 22.3801 76.696 22.3066 76.9293 22.1594C77.1623 22.0131 77.3323 21.7907 77.4392 21.4921C77.5457 21.1947 77.599 20.8238 77.599 20.3793V20.2125C77.599 19.7676 77.5457 19.3965 77.4392 19.0991C77.3326 18.8014 77.1627 18.5789 76.9293 18.4318C76.6964 18.2855 76.3904 18.2121 76.0115 18.2117C75.6321 18.2117 75.326 18.2851 75.093 18.4318C74.8601 18.5789 74.6903 18.8014 74.5838 19.0991C74.4772 19.3969 74.424 19.768 74.424 20.2125V20.3793C74.424 20.8242 74.4772 21.1953 74.5838 21.4927C74.6903 21.7901 74.8601 22.0123 75.093 22.1594C75.4425 22.3801 75.6321 22.3801 76.0115 22.3801Z" fill="#9F9FA9"/>
<path d="M80.6189 23.4263V17.1612H81.8271L81.946 17.9947H82.0285C82.1705 17.8047 82.3383 17.6361 82.5319 17.489C82.7327 17.3381 82.957 17.2214 83.1957 17.1436C83.4616 17.0574 83.7398 17.0151 84.0193 17.0183C84.4139 17.0183 84.7633 17.0898 85.0677 17.2326C85.3717 17.3758 85.6105 17.606 85.7842 17.9233C85.9579 18.2414 86.0447 18.6661 86.0447 19.1977V23.4252H84.5877V19.4599C84.5877 19.2375 84.562 19.0529 84.5104 18.9061C84.4657 18.7706 84.3885 18.6481 84.2857 18.5491C84.1824 18.4558 84.0584 18.3883 83.9239 18.3524C83.7695 18.311 83.6102 18.2909 83.4503 18.2927C83.1897 18.2927 82.9547 18.3561 82.7456 18.4829C82.5359 18.6104 82.3639 18.7914 82.2474 19.0074C82.1257 19.2299 82.0646 19.4878 82.0642 19.7813V23.4252H80.6189V23.4263ZM13.7385 0C13.351 0 12.1621 0 10.7298 1.3639C9.39454 2.63707 8.65346 4.89366 8.45795 5.55746L8.44624 5.59844L8.29873 6.09015C7.02732 6.10068 6.01698 6.48819 5.65932 6.69307C4.4921 7.27434 2.35024 9.14517 2.59668 12.0697C2.84137 14.9731 4.86615 16.4845 5.92683 16.8901C5.75063 17.695 5.53171 18.4853 5.29873 19.3229L5.23434 19.553C5.04427 20.1911 4.79844 20.8112 4.49971 21.4062C4.12215 22.1608 3.43668 22.4593 3.12644 22.5126C2.77463 22.5852 2.49424 22.5495 2.30107 22.4113C2.22968 22.3575 2.16995 22.2897 2.12548 22.2122C2.08101 22.1346 2.05273 22.0488 2.04234 21.96C1.9522 21.2195 1.4921 20.8256 1.22341 20.7512C0.865171 20.6587 0.570146 20.6991 0.347122 20.8718C0.240193 20.961 0.153811 21.0722 0.0938962 21.1979C0.0339816 21.3236 0.00195105 21.4608 0 21.6C0 23.0195 1.73385 23.407 2.6482 23.4146C3.03629 23.4146 4.22459 23.4146 5.65698 22.0507C6.98693 20.7834 7.80937 18.4379 8.06517 17.3532C11.1659 17.3268 12.8213 15.3038 13.2644 14.239C13.6016 13.6314 14.1044 11.9678 13.5776 10.0121C13.0578 8.07337 11.3028 6.92254 10.4224 6.57307L10.6812 5.59961L10.687 5.57502C10.8158 5.07746 10.954 4.57522 11.0886 4.09112L11.153 3.86107C11.3432 3.22302 11.5891 2.60254 11.8876 2.0078C12.2658 1.25327 12.9512 0.954732 13.2609 0.901463C13.6139 0.831219 13.8907 0.866927 14.0857 1.00741C14.158 1.06074 14.2186 1.12837 14.2637 1.20611C14.3089 1.28385 14.3375 1.37004 14.3479 1.45932C14.4386 2.1998 14.8981 2.59317 15.1668 2.6681C15.5251 2.76059 15.8201 2.71961 16.0431 2.54751C16.1501 2.45826 16.2366 2.34692 16.2965 2.22112C16.3564 2.09533 16.3884 1.95806 16.3902 1.81873C16.3885 0.394537 14.6546 0.00585366 13.7385 0ZM7.95981 7.49737L6.23239 15.47C5.13366 14.9227 3.35298 13.1707 4.21171 10.2966C4.44937 9.43141 5.53873 7.74205 7.95981 7.49737ZM12.3711 12.5467C11.8027 15.2365 9.61288 15.9313 8.44917 15.9313H8.39005L10.1344 7.89834C12.4601 9.25522 12.6158 11.5288 12.3705 12.5461L12.3711 12.5467Z" fill="#9F9FA9"/>
</g>
<defs>
<clipPath id="clip0_714_1626">
<rect width="86.0488" height="24" fill="white"/>
</clipPath>
</defs>
</svg>
