<svg
  xmlns="http://www.w3.org/2000/svg"
  fill="currentColor"
  width="100%"
  height="100%"
  viewBox="0 0 147 41"
>
  <g fill="currentColor" clip-path="url(#a)">
    <path d="M39.161 21.712V7.756h9.978v2.258h-7.347v3.743h6.62v2.258h-6.62v5.697h-2.63Z"/>

    <path
      fill-rule="evenodd"
      d="M51.77 9.36V7h2.469v2.36H51.77Zm0 12.347V11.006h2.469v10.7h-2.47l.001.001Z"
      clip-rule="evenodd"
    />

    <path d="M57.376 21.709V7h2.47v14.709h-2.47Z"/>

    <path
      fill-rule="evenodd"
      d="M67.554 21.955c-1.133 0-2.078-.2-2.833-.6-.755-.4-1.322-1.014-1.7-1.841-.378-.828-.567-1.88-.567-3.154 0-1.288.19-2.343.567-3.163.377-.82.944-1.43 1.7-1.831.756-.4 1.7-.6 2.833-.6 1.026 0 1.886.193 2.58.58.696.386 1.22.98 1.57 1.78.35.8.525 1.837.526 3.112v.733h-7.246c.027.664.128 1.224.304 1.678.175.454.448.793.82 1.017.37.224.86.336 1.467.336a3 3 0 0 0 .87-.122c.26-.077.5-.205.708-.377.203-.17.361-.383.476-.64.115-.258.172-.556.172-.896h2.43c0 .678-.119 1.268-.355 1.77a3.3 3.3 0 0 1-.992 1.24c-.445.337-.95.586-1.487.734-.6.168-1.22.25-1.843.244Zm-2.53-6.735h4.635c0-.447-.05-.827-.152-1.14a2.1 2.1 0 0 0-.424-.772 1.54 1.54 0 0 0-.658-.437 2.702 2.702 0 0 0-.87-.133c-.527 0-.969.088-1.326.265a1.8 1.8 0 0 0-.82.814c-.189.366-.317.834-.385 1.403Z"
      clip-rule="evenodd"
    />

    <path d="M79.275 21.955c-1.106 0-2.027-.2-2.763-.6-.735-.4-1.285-1.014-1.65-1.841-.363-.828-.545-1.88-.546-3.154 0-1.288.186-2.343.557-3.163.37-.82.924-1.43 1.66-1.831.735-.4 1.65-.6 2.742-.6.715 0 1.35.088 1.903.264a3.84 3.84 0 0 1 1.427.804 3.4 3.4 0 0 1 .9 1.332c.203.529.304 1.146.304 1.85h-2.51c0-.5-.074-.914-.222-1.24a1.58 1.58 0 0 0-.678-.742c-.304-.17-.692-.255-1.164-.254-.554 0-1.006.128-1.356.386-.35.258-.61.641-.78 1.15-.168.508-.252 1.149-.253 1.922v.265c0 .76.084 1.397.253 1.912.17.516.436.899.8 1.15.364.25.843.376 1.437.376.46 0 .84-.085 1.143-.255a1.67 1.67 0 0 0 .699-.762c.162-.34.243-.747.243-1.22h2.388c0 .664-.101 1.26-.304 1.79a3.54 3.54 0 0 1-.89 1.342c-.41.376-.897.66-1.427.834-.56.19-1.198.285-1.913.285Z"/>

    <path
      fill-rule="evenodd"
      d="M91.154 21.955c-1.16 0-2.132-.2-2.915-.6-.783-.4-1.37-1.014-1.76-1.841-.392-.828-.588-1.88-.587-3.154 0-1.288.196-2.342.587-3.163.39-.82.977-1.43 1.76-1.831.783-.4 1.754-.6 2.915-.6 1.173 0 2.148.2 2.924.6.776.4 1.36 1.01 1.751 1.83.391.822.587 1.877.587 3.164 0 1.275-.196 2.326-.587 3.154-.391.827-.975 1.44-1.75 1.84-.777.4-1.752.6-2.925.601Zm0-2.034c.648 0 1.171-.126 1.57-.377.397-.25.687-.63.87-1.139.181-.508.272-1.142.273-1.902v-.285c0-.76-.09-1.394-.273-1.902-.183-.509-.473-.888-.87-1.139-.399-.25-.922-.375-1.57-.376-.647 0-1.17.125-1.568.376-.398.25-.688.63-.87 1.14-.183.508-.274 1.142-.274 1.901v.285c0 .76.091 1.394.274 1.902.182.51.472.89.87 1.14.398.25.92.376 1.568.376ZM99.027 9.36V7h2.47v2.36h-2.47Zm0 12.347V11.006h2.47v10.7h-2.47v.001Z"
      clip-rule="evenodd"
    />

    <path d="M104.634 21.71v-10.7h2.064l.202 1.424h.142a4.41 4.41 0 0 1 .86-.865c.331-.25.709-.447 1.134-.59a4.402 4.402 0 0 1 1.406-.213c.675 0 1.272.122 1.791.366.52.244.928.637 1.225 1.18.297.543.445 1.268.445 2.176v7.223h-2.489v-6.775c0-.38-.044-.695-.132-.946a1.491 1.491 0 0 0-.384-.61 1.502 1.502 0 0 0-.617-.336 3.001 3.001 0 0 0-.81-.102c-.446 0-.847.11-1.204.326a2.354 2.354 0 0 0-.85.895c-.209.38-.314.82-.314 1.322v6.226h-2.469v-.001ZM39.161 40.02V26.064h9.978v2.259h-7.347v3.743h6.62v2.258h-6.62v5.696h-2.63Z"/>

    <path
      fill-rule="evenodd"
      d="M55.9 40.266c-1.16 0-2.131-.2-2.914-.6-.782-.4-1.37-1.014-1.76-1.842-.392-.826-.587-1.877-.587-3.153 0-1.288.195-2.343.586-3.164.392-.82.98-1.43 1.761-1.83.782-.4 1.754-.6 2.915-.6 1.173 0 2.148.2 2.924.6.776.4 1.36 1.01 1.751 1.83.392.82.587 1.875.587 3.164 0 1.276-.195 2.327-.587 3.153-.392.828-.975 1.442-1.75 1.841-.776.4-1.75.6-2.925.6v.001Zm.002-2.034c.647 0 1.17-.126 1.568-.377.398-.25.688-.63.87-1.14.182-.508.273-1.142.273-1.9v-.286c0-.76-.09-1.394-.273-1.902-.182-.509-.472-.889-.87-1.14-.398-.25-.92-.375-1.568-.376-.97 0-1.17.126-1.569.376-.398.252-.688.631-.87 1.14-.182.508-.273 1.142-.273 1.902v.285c0 .76.091 1.394.273 1.902.182.508.472.888.87 1.14.597.376.92.376 1.57.376Z"
      clip-rule="evenodd"
    />

    <path d="M67.15 40.264c-1.024 0-1.857-.282-2.5-.845-.64-.562-.96-1.522-.96-2.878v-7.223h2.469v6.775c0 .38.044.695.132.946.088.25.216.454.385.61.168.156.374.268.617.336.365.1.513.102.81.102a2.28 2.28 0 0 0 2.054-1.23 2.7 2.7 0 0 0 .314-1.313v-6.226h2.469V40.02h-2.044l-.203-1.424h-.141a4.402 4.402 0 0 1-.86.865 3.901 3.901 0 0 1-1.134.59c-.454.147-.93.218-1.407.213Zm8.927-.244V29.317h2.065l.202 1.424h.142c.242-.325.529-.613.86-.864.33-.252.708-.448 1.133-.59.454-.148.93-.22 1.407-.214.675 0 1.272.122 1.79.366.52.244.93.638 1.226 1.18.296.543.444 1.269.445 2.177v7.222h-2.49v-6.774c0-.38-.044-.696-.131-.946a1.5 1.5 0 0 0-.384-.61 1.5 1.5 0 0 0-.618-.336 2.997 2.997 0 0 0-.81-.102 2.28 2.28 0 0 0-1.204.325 2.36 2.36 0 0 0-.85.896c-.209.38-.313.82-.313 1.322v6.225h-2.47v.002Z"/>

    <path
      fill-rule="evenodd"
      d="M92.105 40.267c-.864 0-1.613-.196-2.247-.59-.634-.393-1.123-1.003-1.467-1.83-.344-.828-.516-1.893-.516-3.195 0-1.288.175-2.343.526-3.163.35-.82.836-1.427 1.457-1.82.62-.394 1.322-.59 2.105-.59.486 0 .931.054 1.336.162.405.108.762.274 1.073.498.31.224.574.5.79.824h.12v-5.248h2.47v14.708h-2.044l-.203-1.424h-.141a3.2 3.2 0 0 1-1.366 1.251 4.3 4.3 0 0 1-1.893.417Zm.77-2.137c.567 0 1.025-.129 1.376-.387.35-.257.61-.63.78-1.119.168-.488.252-1.084.252-1.79v-.264c0-.529-.047-1.004-.142-1.424a3 3 0 0 0-.434-1.059 1.93 1.93 0 0 0-.75-.65c-.303-.149-.664-.224-1.082-.224-.608 0-1.09.12-1.448.356-.357.238-.614.604-.769 1.098-.155.496-.232 1.124-.232 1.882v.285c0 .746.078 1.363.233 1.851.154.49.41.852.768 1.09.358.237.84.355 1.448.355Zm10.747 2.136c-.297 0-.637-.037-1.021-.112a3.593 3.593 0 0 1-1.113-.418 2.363 2.363 0 0 1-.881-.905c-.23-.4-.345-.925-.344-1.577 0-.73.162-1.338.486-1.82.323-.482.779-.862 1.366-1.14.587-.277 1.288-.474 2.105-.59.816-.115 1.71-.173 2.682-.173v-.874c0-.312-.047-.59-.142-.834a1.13 1.13 0 0 0-.516-.58c-.25-.142-.625-.214-1.124-.214-.499 0-.89.061-1.174.183-.284.122-.479.272-.586.448a1.028 1.028 0 0 0-.163.55v.284h-2.388a.988.988 0 0 1-.02-.203v-.245c0-.61.182-1.139.547-1.587.364-.447.87-.79 1.518-1.027.647-.237 1.395-.356 2.246-.356.971 0 1.771.136 2.399.407.627.272 1.095.658 1.406 1.16.311.502.466 1.112.466 1.83v5.046c0 .258.074.441.222.55a.811.811 0 0 0 .486.162h.648v1.71a7.038 7.038 0 0 1-.587.192c-.311.081-.631.119-.952.112-.351 0-.664-.057-.941-.173a1.85 1.85 0 0 1-.698-.498 1.899 1.899 0 0 1-.405-.773h-.121c-.23.285-.503.54-.82.762-.339.235-.716.41-1.113.52-.478.13-.973.191-1.468.183Zm.75-2.037c.405 0 .766-.06 1.083-.183.317-.122.58-.291.789-.509a2.23 2.23 0 0 0 .486-.793c.115-.31.172-.65.172-1.017v-.489c-.742 0-1.427.048-2.054.143-.629.095-1.128.271-1.498.53-.372.257-.558.624-.557 1.098 0 .244.057.457.172.64.115.184.29.326.526.428.236.102.53.153.881.152Z"
      clip-rule="evenodd"
    />

    <path d="M115.462 40.262c-.661 0-1.18-.132-1.558-.397a2.13 2.13 0 0 1-.8-1.017 3.59 3.59 0 0 1-.233-1.272v-6.225h-1.274v-2.034h1.335l.445-2.99h1.964v2.99h1.842v2.034h-1.842v5.981c0 .285.075.506.223.661.148.157.371.235.668.235h.951v1.708a3.977 3.977 0 0 1-.496.153c-.204.049-.41.09-.618.122-.201.033-.403.05-.607.051Z"/>

    <path
      fill-rule="evenodd"
      d="M119.51 27.674v-2.36h2.469v2.36h-2.469Zm0 12.348v-10.7h2.469v10.7h-2.469Zm10.342.245c-1.161 0-2.132-.2-2.914-.6-.782-.4-1.369-1.014-1.761-1.843-.392-.826-.588-1.877-.587-3.152 0-1.29.195-2.344.587-3.164.391-.82.978-1.43 1.761-1.83.782-.4 1.754-.6 2.914-.6 1.174 0 2.149.2 2.925.6.776.4 1.359 1.01 1.75 1.83.391.82.587 1.875.587 3.164 0 1.275-.196 2.326-.587 3.153-.391.828-.974 1.441-1.75 1.84-.776.4-1.751.602-2.925.602Zm.001-2.035c.646 0 1.169-.125 1.568-.377.398-.25.688-.63.871-1.14.182-.508.273-1.141.273-1.9v-.285c0-.76-.091-1.395-.273-1.903-.182-.508-.473-.888-.871-1.14-.398-.25-.921-.375-1.568-.375-.648 0-1.171.125-1.569.376-.398.25-.688.63-.87 1.14-.182.508-.273 1.142-.273 1.901v.285c0 .76.091 1.395.273 1.903.182.508.472.887.87 1.139.597.377.921.377 1.569.377Z"
      clip-rule="evenodd"
    />

    <path d="M137.724 40.02V29.317h2.064l.203 1.424h.141a4.36 4.36 0 0 1 .86-.864 3.9 3.9 0 0 1 1.134-.59c.454-.147.929-.22 1.407-.214.674 0 1.271.122 1.791.366.519.245.927.638 1.224 1.18.297.543.445 1.269.445 2.177v7.222h-2.489v-6.774c0-.38-.044-.695-.132-.946a1.502 1.502 0 0 0-.384-.61 1.495 1.495 0 0 0-.618-.336 2.999 2.999 0 0 0-.809-.102c-.445 0-.847.108-1.204.325a2.362 2.362 0 0 0-.851.896c-.208.38-.312.82-.313 1.322v6.225h-2.469v.002ZM23.47 0c-.662 0-2.693 0-5.14 2.33-2.281 2.175-3.547 6.03-3.881 7.164l-.02.07-.252.84c-2.172.018-3.898.68-4.509 1.03-1.994.993-5.653 4.189-5.232 9.185.418 4.96 3.877 7.542 5.689 8.235-.301 1.375-.675 2.725-1.073 4.156l-.11.393a19.399 19.399 0 0 1-1.255 3.166c-.645 1.289-1.816 1.799-2.346 1.89-.601.124-1.08.063-1.41-.173a1.13 1.13 0 0 1-.442-.771c-.154-1.265-.94-1.938-1.399-2.065-.612-.158-1.116-.089-1.497.206A1.65 1.65 0 0 0 0 36.9c0 2.425 2.962 3.087 4.524 3.1.663 0 2.693 0 5.14-2.33 2.272-2.165 3.677-6.172 4.114-8.025 5.297-.045 8.125-3.501 8.882-5.32.576-1.038 1.435-3.88.535-7.221-.888-3.312-3.886-5.278-5.39-5.875l.442-1.663.01-.042c.22-.85.456-1.708.686-2.535l.11-.393c.325-1.09.745-2.15 1.255-3.166.646-1.289 1.817-1.799 2.346-1.89.603-.12 1.076-.059 1.409.181a1.12 1.12 0 0 1 .448.772c.155 1.265.94 1.937 1.399 2.065.612.158 1.116.088 1.497-.206A1.65 1.65 0 0 0 28 3.107C27.997.674 25.035.01 23.47 0Zm-9.872 12.808-2.951 13.62C8.77 25.493 5.728 22.5 7.195 17.59c.406-1.478 2.267-4.364 6.403-4.782Zm7.536 8.626c-.971 4.595-4.712 5.782-6.7 5.782h-.101l2.98-13.723c3.973 2.318 4.239 6.202 3.82 7.94l.001.001Z"/>
  </g>

  <defs>
    <clipPath id="a">
      <path fill="#fff" d="M0 0h147v41H0z"/>
    </clipPath>
  </defs>
</svg>
