<svg height="212.24mm" viewBox="0 0 234.66147 212.23986" width="234.66mm" xmlns="http://www.w3.org/2000/svg"><g transform="translate(4.6159 28.076)"><g fill="#ffd500"><g fill-rule="evenodd" stroke="#ff10a3" stroke-linejoin="round" stroke-width="4.4701" transform="matrix(.29318 0 0 -.29875 -40.849 48.549)"><g stroke="#ff10a3" stroke-linejoin="round"><path d="m242.71-369.2v25.836l294.65 244.48v.14874z" points="242.71181 -343.35967 537.35728 -98.874813 537.35728 -98.726072 242.71181 -369.19566"/><path d="m537.36-98.726-.2019-.07146v-.1487l.2019.07142z" points="537.15538 -98.79753 537.15538 -98.946231 537.35728 -98.874813 537.35728 -98.726072"/><path d="m265.07-369.42v27.102l272.08 243.37v.1487z" points="265.0742 -342.32103 537.15538 -98.946231 537.15538 -98.79753 265.0742 -369.42276"/><path d="m242.71-343.36 22.362 1.0386 272.08 243.37.2019.07142z" points="265.0742 -342.32103 537.15538 -98.946231 537.35728 -98.874813 242.71181 -343.35967"/></g><path d="m242.71-369.2 22.362-.2271 272.08 270.63.2019.07146z" points="265.0742 -369.42276 537.15538 -98.79753 537.35728 -98.726072 242.71181 -369.19566" stroke="none"/><path d="m242.71-369.2 22.362-.2271v27.102l-22.362-1.0386z" points="265.0742 -369.42276 265.0742 -342.32103 242.71181 -343.35967 242.71181 -369.19566" stroke="#ff10a3" stroke-linejoin="round"/><g stroke="#ff10a3" stroke-linejoin="round"><path d="m242.71-369.2v25.836l294.65 244.48v.14874z" points="242.71181 -343.35967 537.35728 -98.874813 537.35728 -98.726072 242.71181 -369.19566"/><path d="m537.36-98.726-.2019-.07146v-.1487l.2019.07142z" points="537.15538 -98.79753 537.15538 -98.946231 537.35728 -98.874813 537.35728 -98.726072"/><path d="m265.07-369.42v27.102l272.08 243.37v.1487z" points="265.0742 -342.32103 537.15538 -98.946231 537.15538 -98.79753 265.0742 -369.42276"/><path d="m242.71-343.36 22.362 1.0386 272.08 243.37.2019.07142z" points="265.0742 -342.32103 537.15538 -98.946231 537.35728 -98.874813 242.71181 -343.35967"/></g><path d="m242.71-369.2 22.362-.2271 272.08 270.63.2019.07146z" points="265.0742 -369.42276 537.15538 -98.79753 537.35728 -98.726072 242.71181 -369.19566" stroke="none"/><path d="m242.71-369.2 22.362-.2271v27.102l-22.362-1.0386z" points="265.0742 -369.42276 265.0742 -342.32103 242.71181 -343.35967 242.71181 -369.19566" stroke="#ff10a3" stroke-linejoin="round"/><g stroke="#ff10a3" stroke-linejoin="round"><path d="m242.71-369.2v25.836l294.65 244.48v.14874z" points="242.71181 -343.35967 537.35728 -98.874813 537.35728 -98.726072 242.71181 -369.19566"/><path d="m537.36-98.726-.2019-.07146v-.1487l.2019.07142z" points="537.15538 -98.79753 537.15538 -98.946231 537.35728 -98.874813 537.35728 -98.726072"/><path d="m265.07-369.42v27.102l272.08 243.37v.1487z" points="265.0742 -342.32103 537.15538 -98.946231 537.15538 -98.79753 265.0742 -369.42276"/><path d="m242.71-343.36 22.362 1.0386 272.08 243.37.2019.07142z" points="265.0742 -342.32103 537.15538 -98.946231 537.35728 -98.874813 242.71181 -343.35967"/></g><path d="m242.71-369.2 22.362-.2271 272.08 270.63.2019.07146z" points="265.0742 -369.42276 537.15538 -98.79753 537.35728 -98.726072 242.71181 -369.19566" stroke="none"/><path d="m242.71-369.2 22.362-.2271v27.102l-22.362-1.0386z" points="265.0742 -369.42276 265.0742 -342.32103 242.71181 -343.35967 242.71181 -369.19566" stroke="#ff10a3" stroke-linejoin="round"/><g stroke="#ff10a3" stroke-linejoin="round"><path d="m242.71-369.2v25.836l294.65 244.48v.14874z" points="242.71181 -343.35967 537.35728 -98.874813 537.35728 -98.726072 242.71181 -369.19566"/><path d="m537.36-98.726-.2019-.07146v-.1487l.2019.07142z" points="537.15538 -98.79753 537.15538 -98.946231 537.35728 -98.874813 537.35728 -98.726072"/><path d="m265.07-369.42v27.102l272.08 243.37v.1487z" points="265.0742 -342.32103 537.15538 -98.946231 537.15538 -98.79753 265.0742 -369.42276"/><path d="m242.71-343.36 22.362 1.0386 272.08 243.37.2019.07142z" points="265.0742 -342.32103 537.15538 -98.946231 537.35728 -98.874813 242.71181 -343.35967"/></g><path d="m242.71-369.2 22.362-.2271 272.08 270.63.2019.07146z" points="265.0742 -369.42276 537.15538 -98.79753 537.35728 -98.726072 242.71181 -369.19566" stroke="none"/><g stroke="#ff10a3" stroke-linejoin="round"><path d="m242.71-369.2 22.362-.2271v27.102l-22.362-1.0386z" points="265.0742 -369.42276 265.0742 -342.32103 242.71181 -343.35967 242.71181 -369.19566"/><path d="m879.99-310.46v24.91l-340.21 188.23v.14341z" points="879.98638 -285.55237 539.77141 -97.325859 539.77141 -97.182449 879.98638 -310.46242"/><path d="m879.99-310.46-23.582-.23944v25.251l23.582-.10105z" points="856.40455 -310.70186 856.40455 -285.45132 879.98638 -285.55237 879.98638 -310.46242"/></g><path d="m879.99-310.46-23.582-.23944-316.47 213.5-.16033.0152z" points="856.40455 -310.70186 539.93174 -97.197645 539.77141 -97.182449 879.98638 -310.46242" stroke="none"/><g stroke="#ff10a3" stroke-linejoin="round"><path d="m879.99-285.55-23.582.10105-316.47 188.11-.16033.01519z" points="856.40455 -285.45132 539.93174 -97.341044 539.77141 -97.325859 879.98638 -285.55237"/><path d="m856.4-310.7v25.251l-316.47 188.11v.1434z" points="856.40455 -285.45132 539.93174 -97.341044 539.93174 -97.197645 856.40455 -310.70186"/><path d="m539.77-97.182.16033-.0152v-.1434l-.16033.01519z" points="539.93174 -97.197645 539.93174 -97.341044 539.77141 -97.325859 539.77141 -97.182449"/></g></g><g fill-rule="evenodd" stroke="#ff10a3" stroke-linejoin="round" stroke-width="1.3229"><g stroke="#ff10a3" stroke-linejoin="round"><path d="m32.669 92.532 2.1746-5.2086 82.67-9.5717.0125-.02999z" points="34.843772 87.323171 117.51349 77.751462 117.52601 77.721475 32.669139 92.531799"/><path d="m117.53 77.721-.0486-.01281-.0125.02998.0486.01282z" points="117.47745 77.708666 117.46493 77.738644 117.51349 77.751462 117.52601 77.721475"/><path d="m37.363 95.592 2.2812-5.4638 77.821-12.389.0125-.02998z" points="39.643685 90.12813 117.46493 77.738644 117.47745 77.708666 37.362514 95.591936"/><path d="m34.844 87.323 4.7999 2.805 77.821-12.389.0486.01282z" points="39.643685 90.12813 117.46493 77.738644 117.51349 77.751462 34.843772 87.323171"/></g><path d="m32.669 92.532 4.6934 3.0601 80.115-17.883.0486.01281z" points="37.362514 95.591936 117.47745 77.708666 117.52601 77.721475 32.669139 92.531799" stroke="none"/><path d="m32.669 92.532 4.6934 3.0601 2.2812-5.4638-4.7999-2.805z" points="37.362514 95.591936 39.643685 90.12813 34.843772 87.323171 32.669139 92.531799" stroke="#ff10a3" stroke-linejoin="round"/><g stroke="#ff10a3" stroke-linejoin="round"><path d="m78.546-445.11 8.1813-14.193 311.02-26.082.0471-.0817z" points="86.726853 -459.30562 397.74255 -485.38764 397.78965 -485.46935 78.545549 -445.11252"/><path d="m397.79-485.47-.1827-.0349-.0471.0817.18269.0349z" points="397.60695 -485.50426 397.55986 -485.42257 397.74255 -485.38764 397.78965 -485.46935"/><path d="m96.203-436.77 8.5821-14.888 292.78-33.76.0471-.0817z" points="104.78482 -451.6623 397.55986 -485.42257 397.60695 -485.50426 96.202704 -436.77386"/><path d="m86.727-459.31 18.058 7.6433 292.78-33.76.18269.0349z" points="104.78482 -451.6623 397.55986 -485.42257 397.74255 -485.38764 86.726853 -459.30562"/></g><path d="m78.546-445.11 17.657 8.3387 301.4-48.73.1827.0349z" points="96.202704 -436.77386 397.60695 -485.50426 397.78965 -485.46935 78.545549 -445.11252" stroke="none"/><path d="m78.546-445.11 17.657 8.3387 8.5821-14.888-18.058-7.6433z" points="96.202704 -436.77386 104.78482 -451.6623 86.726853 -459.30562 78.545549 -445.11252" stroke="#ff10a3" stroke-linejoin="round"/><g stroke="#ff10a3" stroke-linejoin="round"><path d="m59.597-974.62 9.2308-30.154 350.91-55.415.0531-.1736z" points="68.827623 -1004.7784 419.73962 -1060.1934 419.79276 -1060.367 59.596857 -974.62425"/><path d="m419.79-1060.4-.20613-.074-.0531.1736.20612.074z" points="419.58663 -1060.4412 419.5335 -1060.2676 419.73962 -1060.1934 419.79276 -1060.367"/><path d="m79.519-956.91 9.683-31.631 330.33-71.728.0531-.1736z" points="89.20202 -988.53966 419.5335 -1060.2676 419.58663 -1060.4412 79.519027 -956.90819"/><path d="m68.828-1004.8 20.374 16.239 330.33-71.728.20612.074z" points="89.20202 -988.53966 419.5335 -1060.2676 419.73962 -1060.1934 68.827623 -1004.7784"/></g><path d="m59.597-974.62 19.922 17.716 340.07-103.53.20613.074z" points="79.519027 -956.90819 419.58663 -1060.4412 419.79276 -1060.367 59.596857 -974.62425" stroke="none"/><path d="m59.597-974.62 19.922 17.716 9.683-31.631-20.374-16.239z" points="79.519027 -956.90819 89.20202 -988.53966 68.827623 -1004.7784 59.596857 -974.62425" stroke="#ff10a3" stroke-linejoin="round"/><g stroke="#ff10a3" stroke-linejoin="round"><path d="m61.767-843.69 8.7384-26.395 332.19-48.505.0503-.15196z" points="70.505465 -870.08321 402.6998 -918.58793 402.7501 -918.73989 61.767053 -843.68836"/><path d="m402.75-918.74-.19513-.0649-.0503.15191.19513.065z" points="402.55497 -918.8048 402.50467 -918.65289 402.6998 -918.58793 402.7501 -918.73989"/><path d="m80.627-828.18 9.1665-27.688 312.71-62.784.0503-.15191z" points="89.793095 -855.86894 402.50467 -918.65289 402.55497 -918.8048 80.626577 -828.18096"/><path d="m70.505-870.08 19.288 14.214 312.71-62.784.19513.065z" points="89.793095 -855.86894 402.50467 -918.65289 402.6998 -918.58793 70.505465 -870.08321"/></g><path d="m61.767-843.69 18.86 15.507 321.93-90.624.19513.0649z" points="80.626577 -828.18096 402.55497 -918.8048 402.7501 -918.73989 61.767053 -843.68836" stroke="none"/><g stroke="#ff10a3" stroke-linejoin="round"><path d="m61.767-843.69 18.86 15.507 9.1665-27.688-19.288-14.214z" points="80.626577 -828.18096 89.793095 -855.86894 70.505465 -870.08321 61.767053 -843.68836"/><path d="m151.68 158.53 3.0682-2.8375-35.142-74.206.0177-.01634z" points="154.75055 155.68869 119.60852 81.482252 119.62619 81.465916 151.68238 158.52618"/><path d="m151.68 158.53-4.0723-3.6302 3.1101-2.8763 4.0304 3.6689z" points="147.61007 154.89603 150.72017 152.01975 154.75055 155.68869 151.68238 158.52618"/></g><path d="m151.68 158.53-4.0723-3.6302-27.958-73.404-.0256-.0266z" points="147.61007 154.89603 119.6518 81.492514 119.62619 81.465916 151.68238 158.52618" stroke="none"/><g stroke="#ff10a3" stroke-linejoin="round"><path d="m154.75 155.69-4.0304-3.6689-31.086-70.511-.0256-.0266z" points="150.72017 152.01975 119.63414 81.508849 119.60852 81.482252 154.75055 155.68869"/><path d="m147.61 154.9 3.1101-2.8763-31.086-70.511.0177-.01633z" points="150.72017 152.01975 119.63414 81.508849 119.6518 81.492514 147.61007 154.89603"/><path d="m119.63 81.466.0256.0266-.0177.01633-.0256-.0266z" points="119.6518 81.492514 119.63414 81.508849 119.60852 81.482252 119.62619 81.465916"/></g></g><g fill-rule="evenodd" stroke="#ff10a3" stroke-linejoin="round" stroke-miterlimit="3.45"><g stroke-width="7.084" transform="matrix(.12896 .12027 -.17475 .10746 -29.438 190.32)"><path d="m-401.58-1193-.00001 25.836 294.65 244.49v.14874z" points="-401.5753 -1167.1961 -106.92846 -922.71076 -106.92846 -922.56202 -401.57529 -1193.0321" stroke="#ff10a3" stroke-linejoin="round"/><path d="m-401.58-1193 22.362-.2271-.00001 27.102-22.362-1.0386z" points="-379.21298 -1193.2592 -379.21299 -1166.1575 -401.5753 -1167.1961 -401.57529 -1193.0321" stroke="#ff10a3" stroke-linejoin="round"/><path d="m-401.58-1193 22.362-.2271 272.08 270.63.20189.0715z" points="-379.21298 -1193.2592 -107.13035 -922.63347 -106.92846 -922.56202 -401.57529 -1193.0321" stroke="none"/><g stroke="#ff10a3" stroke-linejoin="round"><g><path d="m-401.58-1167.2 22.362 1.0386 272.08 243.38.20189.0714z" points="-379.21299 -1166.1575 -107.13035 -922.78217 -106.92846 -922.71076 -401.5753 -1167.1961"/><path d="m-379.21-1193.3-.00001 27.102 272.08 243.38v.1487z" points="-379.21299 -1166.1575 -107.13035 -922.78217 -107.13035 -922.63347 -379.21298 -1193.2592"/><path d="m-106.93-922.56-.20189-.0715v-.1487l.20189.0714z" points="-107.13035 -922.63347 -107.13035 -922.78217 -106.92846 -922.71076 -106.92846 -922.56202"/></g><path d="m-401.58-1193-.00001 25.836 294.65 244.49v.14874z" points="-401.5753 -1167.1961 -106.92846 -922.71076 -106.92846 -922.56202 -401.57529 -1193.0321"/><path d="m-401.58-1193 22.362-.2271-.00001 27.102-22.362-1.0386z" points="-379.21298 -1193.2592 -379.21299 -1166.1575 -401.5753 -1167.1961 -401.57529 -1193.0321"/></g><path d="m-401.58-1193 22.362-.2271 272.08 270.63.20189.0715z" points="-379.21298 -1193.2592 -107.13035 -922.63347 -106.92846 -922.56202 -401.57529 -1193.0321" stroke="none"/><g stroke="#ff10a3" stroke-linejoin="round"><path d="m-401.58-1167.2 22.362 1.0386 272.08 243.38.20189.0714z" points="-379.21299 -1166.1575 -107.13035 -922.78217 -106.92846 -922.71076 -401.5753 -1167.1961"/><path d="m-379.21-1193.3-.00001 27.102 272.08 243.38v.1487z" points="-379.21299 -1166.1575 -107.13035 -922.78217 -107.13035 -922.63347 -379.21298 -1193.2592"/><path d="m-106.93-922.56-.20189-.0715v-.1487l.20189.0714z" points="-107.13035 -922.63347 -107.13035 -922.78217 -106.92846 -922.71076 -106.92846 -922.56202"/></g><path d="m-401.58-1193-.00001 25.836 294.65 244.49v.14874z" points="-401.5753 -1167.1961 -106.92846 -922.71076 -106.92846 -922.56202 -401.57529 -1193.0321" stroke="#ff10a3" stroke-linejoin="round"/><path d="m-401.58-1193 22.362-.2271-.00001 27.102-22.362-1.0386z" points="-379.21298 -1193.2592 -379.21299 -1166.1575 -401.5753 -1167.1961 -401.57529 -1193.0321" stroke="#ff10a3" stroke-linejoin="round"/><path d="m-401.58-1193 22.362-.2271 272.08 270.63.20189.0715z" points="-379.21298 -1193.2592 -107.13035 -922.63347 -106.92846 -922.56202 -401.57529 -1193.0321" stroke="none"/><g stroke="#ff10a3" stroke-linejoin="round"><path d="m-401.58-1167.2 22.362 1.0386 272.08 243.38.20189.0714z" points="-379.21299 -1166.1575 -107.13035 -922.78217 -106.92846 -922.71076 -401.5753 -1167.1961"/><path d="m-379.21-1193.3-.00001 27.102 272.08 243.38v.1487z" points="-379.21299 -1166.1575 -107.13035 -922.78217 -107.13035 -922.63347 -379.21298 -1193.2592"/><path d="m-106.93-922.56-.20189-.0715v-.1487l.20189.0714z" points="-107.13035 -922.63347 -107.13035 -922.78217 -106.92846 -922.71076 -106.92846 -922.56202"/></g><path d="m-401.58-1193-.00001 25.836 294.65 244.49v.14874z" points="-401.5753 -1167.1961 -106.92846 -922.71076 -106.92846 -922.56202 -401.57529 -1193.0321" stroke="#ff10a3" stroke-linejoin="round"/><path d="m-401.58-1193 22.362-.2271-.00001 27.102-22.362-1.0386z" points="-379.21298 -1193.2592 -379.21299 -1166.1575 -401.5753 -1167.1961 -401.57529 -1193.0321" stroke="#ff10a3" stroke-linejoin="round"/><path d="m-401.58-1193 22.362-.2271 272.08 270.63.20189.0715z" points="-379.21298 -1193.2592 -107.13035 -922.63347 -106.92846 -922.56202 -401.57529 -1193.0321" stroke="none"/><g stroke="#ff10a3" stroke-linejoin="round"><path d="m-401.58-1167.2 22.362 1.0386 272.08 243.38.20189.0714z" points="-379.21299 -1166.1575 -107.13035 -922.78217 -106.92846 -922.71076 -401.5753 -1167.1961"/><path d="m-379.21-1193.3-.00001 27.102 272.08 243.38v.1487z" points="-379.21299 -1166.1575 -107.13035 -922.78217 -107.13035 -922.63347 -379.21298 -1193.2592"/><path d="m-106.93-922.56-.20189-.0715v-.1487l.20189.0714z" points="-107.13035 -922.63347 -107.13035 -922.78217 -106.92846 -922.71076 -106.92846 -922.56202"/></g><g stroke="#ff10a3" stroke-linejoin="round"><path d="m235.7-1134.3.00002 24.91-340.21 188.23v.14341z" points="235.69911 -1109.3892 -104.51501 -921.16218 -104.51501 -921.01877 235.69909 -1134.2992"/><path d="m-104.52-921.02.16033-.0152v-.1434l-.16033.0152z" points="-104.35468 -921.03396 -104.35468 -921.17736 -104.51501 -921.16218 -104.51501 -921.01877"/><path d="m212.12-1134.5.00002 25.251-316.47 188.11v.1434z" points="212.11727 -1109.2881 -104.35468 -921.17736 -104.35468 -921.03396 212.11725 -1134.5387"/><path d="m235.7-1109.4-23.582.1011-316.47 188.11-.16033.0152z" points="212.11727 -1109.2881 -104.35468 -921.17736 -104.51501 -921.16218 235.69911 -1109.3892"/></g><path d="m235.7-1134.3-23.582-.2395-316.47 213.5-.16033.0152z" points="212.11725 -1134.5387 -104.35468 -921.03396 -104.51501 -921.01877 235.69909 -1134.2992" stroke="none"/><path d="m235.7-1134.3-23.582-.2395.00002 25.251 23.582-.1011z" points="212.11725 -1134.5387 212.11727 -1109.2881 235.69911 -1109.3892 235.69909 -1134.2992" stroke="#ff10a3" stroke-linejoin="round"/></g><g stroke-width="4.8248" transform="matrix(.26654 -.080729 -.081433 -.2574 -97.308 78.464)"><g stroke="#ff10a3" stroke-linejoin="round"><path d="m468.95 72.022 25.5-.000001 241.3-298.53h.14681z" points="494.45085 72.022071 735.75182 -226.50983 735.89863 -226.50983 468.95128 72.022072"/><path d="m735.9-226.51-.0705.20456h-.14676l.0705-.20456z" points="735.8281 -226.30527 735.68134 -226.30527 735.75182 -226.50983 735.89863 -226.50983"/><path d="m468.73 49.365 26.749-.000001 240.21-275.67h.14676z" points="495.47599 49.36463 735.68134 -226.30527 735.8281 -226.30527 468.72717 49.364631"/><path d="m494.45 72.022 1.0251-22.657 240.21-275.67.0705-.20456z" points="495.47599 49.36463 735.68134 -226.30527 735.75182 -226.50983 494.45085 72.022071"/></g><path d="m468.95 72.022-.22411-22.657 267.1-275.67.0705-.20456z" points="468.72717 49.364631 735.8281 -226.30527 735.89863 -226.50983 468.95128 72.022072" stroke="none"/><path d="m468.95 72.022-.22411-22.657 26.749-.000001-1.0251 22.657z" points="468.72717 49.364631 495.47599 49.36463 494.45085 72.022071 468.95128 72.022072" stroke="#ff10a3" stroke-linejoin="round"/><g stroke="#ff10a3" stroke-linejoin="round"><path d="m468.95 72.022 25.5-.000001 241.3-298.53h.14681z" points="494.45085 72.022071 735.75182 -226.50983 735.89863 -226.50983 468.95128 72.022072"/><path d="m735.9-226.51-.0705.20456h-.14676l.0705-.20456z" points="735.8281 -226.30527 735.68134 -226.30527 735.75182 -226.50983 735.89863 -226.50983"/><path d="m468.73 49.365 26.749-.000001 240.21-275.67h.14676z" points="495.47599 49.36463 735.68134 -226.30527 735.8281 -226.30527 468.72717 49.364631"/><path d="m494.45 72.022 1.0251-22.657 240.21-275.67.0705-.20456z" points="495.47599 49.36463 735.68134 -226.30527 735.75182 -226.50983 494.45085 72.022071"/></g><path d="m468.95 72.022-.22411-22.657 267.1-275.67.0705-.20456z" points="468.72717 49.364631 735.8281 -226.30527 735.89863 -226.50983 468.95128 72.022072" stroke="none"/><path d="m468.95 72.022-.22411-22.657 26.749-.000001-1.0251 22.657z" points="468.72717 49.364631 495.47599 49.36463 494.45085 72.022071 468.95128 72.022072" stroke="#ff10a3" stroke-linejoin="round"/><g stroke="#ff10a3" stroke-linejoin="round"><path d="m468.95 72.022 25.5-.000001 241.3-298.53h.14681z" points="494.45085 72.022071 735.75182 -226.50983 735.89863 -226.50983 468.95128 72.022072"/><path d="m735.9-226.51-.0705.20456h-.14676l.0705-.20456z" points="735.8281 -226.30527 735.68134 -226.30527 735.75182 -226.50983 735.89863 -226.50983"/><path d="m468.73 49.365 26.749-.000001 240.21-275.67h.14676z" points="495.47599 49.36463 735.68134 -226.30527 735.8281 -226.30527 468.72717 49.364631"/><path d="m494.45 72.022 1.0251-22.657 240.21-275.67.0705-.20456z" points="495.47599 49.36463 735.68134 -226.30527 735.75182 -226.50983 494.45085 72.022071"/></g><path d="m468.95 72.022-.22411-22.657 267.1-275.67.0705-.20456z" points="468.72717 49.364631 735.8281 -226.30527 735.89863 -226.50983 468.95128 72.022072" stroke="none"/><path d="m468.95 72.022-.22411-22.657 26.749-.000001-1.0251 22.657z" points="468.72717 49.364631 495.47599 49.36463 494.45085 72.022071 468.95128 72.022072" stroke="#ff10a3" stroke-linejoin="round"/><g stroke="#ff10a3" stroke-linejoin="round"><path d="m468.95 72.022 25.5-.000001 241.3-298.53h.14681z" points="494.45085 72.022071 735.75182 -226.50983 735.89863 -226.50983 468.95128 72.022072"/><path d="m735.9-226.51-.0705.20456h-.14676l.0705-.20456z" points="735.8281 -226.30527 735.68134 -226.30527 735.75182 -226.50983 735.89863 -226.50983"/><path d="m468.73 49.365 26.749-.000001 240.21-275.67h.14676z" points="495.47599 49.36463 735.68134 -226.30527 735.8281 -226.30527 468.72717 49.364631"/><path d="m494.45 72.022 1.0251-22.657 240.21-275.67.0705-.20456z" points="495.47599 49.36463 735.68134 -226.30527 735.75182 -226.50983 494.45085 72.022071"/></g><path d="m468.95 72.022-.22411-22.657 267.1-275.67.0705-.20456z" points="468.72717 49.364631 735.8281 -226.30527 735.89863 -226.50983 468.95128 72.022072" stroke="none"/><g stroke="#ff10a3" stroke-linejoin="round"><path d="m468.95 72.022-.22411-22.657 26.749-.000001-1.0251 22.657z" points="468.72717 49.364631 495.47599 49.36463 494.45085 72.022071 468.95128 72.022072"/><path d="m526.92-573.66h24.586l185.78 344.7h.14154z" points="551.50259 -573.65959 737.28033 -228.95551 737.42187 -228.95551 526.91693 -573.65959"/><path d="m526.92-573.66-.23636 23.893h24.922l-.0997-23.893z" points="526.68057 -549.76662 551.60229 -549.76662 551.50259 -573.65959 526.91693 -573.65959"/></g><path d="m526.92-573.66-.23636 23.893 210.73 320.65.015.16245z" points="526.68057 -549.76662 737.40687 -229.11796 737.42187 -228.95551 526.91693 -573.65959" stroke="none"/><g stroke="#ff10a3" stroke-linejoin="round"><path d="m551.5-573.66.0997 23.893 185.66 320.65.015.16245z" points="551.60229 -549.76662 737.26534 -229.11796 737.28033 -228.95551 551.50259 -573.65959"/><path d="m526.68-549.77h24.922l185.66 320.65h.14153z" points="551.60229 -549.76662 737.26534 -229.11796 737.40687 -229.11796 526.68057 -549.76662"/><path d="m737.42-228.96-.015-.16245h-.14153l.015.16245z" points="737.40687 -229.11796 737.26534 -229.11796 737.28033 -228.95551 737.42187 -228.95551"/></g></g><g stroke-width="19.679" transform="matrix(.053558 -.022462 .017592 .076998 28.547 132.31)"><path d="m2838.6-1235.7h-103.62l-980.51 1049.5h-.5965z" points="2734.9729 -1235.6915 1754.464 -186.21188 1753.8675 -186.21188 2838.5887 -1235.6915" stroke="#ff10a3" stroke-linejoin="round"/><path d="m2838.6-1235.7.9107 79.651h-108.69l4.1656-79.651z" points="2839.4994 -1156.0403 2730.8073 -1156.0403 2734.9729 -1235.6915 2838.5887 -1235.6915" stroke="#ff10a3" stroke-linejoin="round"/><path d="m2838.6-1235.7.9107 79.651-1085.3 969.11-.2865.71914z" points="2839.4994 -1156.0403 1754.154 -186.93102 1753.8675 -186.21188 2838.5887 -1235.6915" stroke="none"/><g stroke="#ff10a3" stroke-linejoin="round"><g><path d="m2735-1235.7-4.1656 79.651-976.06 969.11-.2864.71914z" points="2730.8073 -1156.0403 1754.7504 -186.93102 1754.464 -186.21188 2734.9729 -1235.6915"/><path d="m2839.5-1156h-108.69l-976.06 969.11h-.5964z" points="2730.8073 -1156.0403 1754.7504 -186.93102 1754.154 -186.93102 2839.4994 -1156.0403"/><path d="m1753.9-186.21.2865-.71914h.5964l-.2864.71914z" points="1754.154 -186.93102 1754.7504 -186.93102 1754.464 -186.21188 1753.8675 -186.21188"/></g><path d="m2838.6-1235.7h-103.62l-980.51 1049.5h-.5965z" points="2734.9729 -1235.6915 1754.464 -186.21188 1753.8675 -186.21188 2838.5887 -1235.6915"/><path d="m2838.6-1235.7.9107 79.651h-108.69l4.1656-79.651z" points="2839.4994 -1156.0403 2730.8073 -1156.0403 2734.9729 -1235.6915 2838.5887 -1235.6915"/></g><path d="m2838.6-1235.7.9107 79.651-1085.3 969.11-.2865.71914z" points="2839.4994 -1156.0403 1754.154 -186.93102 1753.8675 -186.21188 2838.5887 -1235.6915" stroke="none"/><g stroke="#ff10a3" stroke-linejoin="round"><path d="m2735-1235.7-4.1656 79.651-976.06 969.11-.2864.71914z" points="2730.8073 -1156.0403 1754.7504 -186.93102 1754.464 -186.21188 2734.9729 -1235.6915"/><path d="m2839.5-1156h-108.69l-976.06 969.11h-.5964z" points="2730.8073 -1156.0403 1754.7504 -186.93102 1754.154 -186.93102 2839.4994 -1156.0403"/><path d="m1753.9-186.21.2865-.71914h.5964l-.2864.71914z" points="1754.154 -186.93102 1754.7504 -186.93102 1754.464 -186.21188 1753.8675 -186.21188"/></g><path d="m2838.6-1235.7h-103.62l-980.51 1049.5h-.5965z" points="2734.9729 -1235.6915 1754.464 -186.21188 1753.8675 -186.21188 2838.5887 -1235.6915" stroke="#ff10a3" stroke-linejoin="round"/><path d="m2838.6-1235.7.9107 79.651h-108.69l4.1656-79.651z" points="2839.4994 -1156.0403 2730.8073 -1156.0403 2734.9729 -1235.6915 2838.5887 -1235.6915" stroke="#ff10a3" stroke-linejoin="round"/><path d="m2838.6-1235.7.9107 79.651-1085.3 969.11-.2865.71914z" points="2839.4994 -1156.0403 1754.154 -186.93102 1753.8675 -186.21188 2838.5887 -1235.6915" stroke="none"/><g stroke="#ff10a3" stroke-linejoin="round"><path d="m2735-1235.7-4.1656 79.651-976.06 969.11-.2864.71914z" points="2730.8073 -1156.0403 1754.7504 -186.93102 1754.464 -186.21188 2734.9729 -1235.6915"/><path d="m2839.5-1156h-108.69l-976.06 969.11h-.5964z" points="2730.8073 -1156.0403 1754.7504 -186.93102 1754.154 -186.93102 2839.4994 -1156.0403"/><path d="m1753.9-186.21.2865-.71914h.5964l-.2864.71914z" points="1754.154 -186.93102 1754.7504 -186.93102 1754.464 -186.21188 1753.8675 -186.21188"/></g><path d="m2838.6-1235.7h-103.62l-980.51 1049.5h-.5965z" points="2734.9729 -1235.6915 1754.464 -186.21188 1753.8675 -186.21188 2838.5887 -1235.6915" stroke="#ff10a3" stroke-linejoin="round"/><path d="m2838.6-1235.7.9107 79.651h-108.69l4.1656-79.651z" points="2839.4994 -1156.0403 2730.8073 -1156.0403 2734.9729 -1235.6915 2838.5887 -1235.6915" stroke="#ff10a3" stroke-linejoin="round"/><path d="m2838.6-1235.7.9107 79.651-1085.3 969.11-.2865.71914z" points="2839.4994 -1156.0403 1754.154 -186.93102 1753.8675 -186.21188 2838.5887 -1235.6915" stroke="none"/><g stroke="#ff10a3" stroke-linejoin="round"><path d="m2735-1235.7-4.1656 79.651-976.06 969.11-.2864.71914z" points="2730.8073 -1156.0403 1754.7504 -186.93102 1754.464 -186.21188 2734.9729 -1235.6915"/><path d="m2839.5-1156h-108.69l-976.06 969.11h-.5964z" points="2730.8073 -1156.0403 1754.7504 -186.93102 1754.154 -186.93102 2839.4994 -1156.0403"/><path d="m1753.9-186.21.2865-.71914h.5964l-.2864.71914z" points="1754.154 -186.93102 1754.7504 -186.93102 1754.464 -186.21188 1753.8675 -186.21188"/></g><g stroke="#ff10a3" stroke-linejoin="round"><path d="m2603 1034.2h-99.902l-754.89-1211.8h-.5751z" points="2503.1404 1034.178 1748.2521 -177.60909 1747.677 -177.60909 2603.0427 1034.178"/><path d="m1747.7-177.61.061.57108h.5751l-.061-.57108z" points="1747.7379 -177.03801 1748.313 -177.03801 1748.2521 -177.60909 1747.677 -177.60909"/><path d="m2604 950.18h-101.27l-754.42-1127.2h-.5751z" points="2502.7352 950.1832 1748.313 -177.03801 1747.7379 -177.03801 2604.003 950.1832"/><path d="m2503.1 1034.2-.4052-83.995-754.42-1127.2-.061-.57108z" points="2502.7352 950.1832 1748.313 -177.03801 1748.2521 -177.60909 2503.1404 1034.178"/></g><path d="m2603 1034.2.9603-83.995-856.27-1127.2-.061-.57108z" points="2604.003 950.1832 1747.7379 -177.03801 1747.677 -177.60909 2603.0427 1034.178" stroke="none"/><path d="m2603 1034.2.9603-83.995h-101.27l.4052 83.995z" points="2604.003 950.1832 2502.7352 950.1832 2503.1404 1034.178 2603.0427 1034.178" stroke="#ff10a3" stroke-linejoin="round"/></g></g><g fill-rule="evenodd" stroke="#ff10a3" stroke-linejoin="round" stroke-miterlimit="3.45" stroke-width="1.3229"><path d="m70.681.98278-1.0824 4.3413 50.394 71.615-.006.02499z" points="69.598705 5.3241252 119.99224 76.939419 119.98601 76.964413 70.681075 .98277886" stroke="#ff10a3" stroke-linejoin="round"/><path d="m70.681.98278 4.6116 2.2792-1.1354 4.554-4.5585-2.4919z" points="75.292626 3.2620288 74.157229 7.8160636 69.598705 5.3241252 70.681075 .98277886" stroke="#ff10a3" stroke-linejoin="round"/><path d="m70.681.98278 4.6116 2.2792 44.655 73.669.0385.03293z" points="75.292626 3.2620288 119.94746 76.931483 119.98601 76.964413 70.681075 .98277886" stroke="none"/><g stroke="#ff10a3" stroke-linejoin="round"><g><path d="m69.599 5.3241 4.5585 2.4919 45.796 69.09.0386.03292z" points="74.157229 7.8160636 119.95369 76.906496 119.99224 76.939419 69.598705 5.3241252"/><path d="m75.293 3.262-1.1354 4.554 45.796 69.09-.006.02499z" points="74.157229 7.8160636 119.95369 76.906496 119.94746 76.931483 75.292626 3.2620288"/><path d="m119.99 76.964-.0385-.03293.006-.02499.0386.03292z" points="119.94746 76.931483 119.95369 76.906496 119.99224 76.939419 119.98601 76.964413"/></g><path d="m70.681.98278-1.0824 4.3413 50.394 71.615-.006.02499z" points="69.598705 5.3241252 119.99224 76.939419 119.98601 76.964413 70.681075 .98277886"/><path d="m70.681.98278 4.6116 2.2792-1.1354 4.554-4.5585-2.4919z" points="75.292626 3.2620288 74.157229 7.8160636 69.598705 5.3241252 70.681075 .98277886"/></g><path d="m70.681.98278 4.6116 2.2792 44.655 73.669.0385.03293z" points="75.292626 3.2620288 119.94746 76.931483 119.98601 76.964413 70.681075 .98277886" stroke="none"/><g stroke="#ff10a3" stroke-linejoin="round"><path d="m69.599 5.3241 4.5585 2.4919 45.796 69.09.0386.03292z" points="74.157229 7.8160636 119.95369 76.906496 119.99224 76.939419 69.598705 5.3241252"/><path d="m75.293 3.262-1.1354 4.554 45.796 69.09-.006.02499z" points="74.157229 7.8160636 119.95369 76.906496 119.94746 76.931483 75.292626 3.2620288"/><path d="m119.99 76.964-.0385-.03293.006-.02499.0386.03292z" points="119.94746 76.931483 119.95369 76.906496 119.99224 76.939419 119.98601 76.964413"/></g><path d="m70.681.98278-1.0824 4.3413 50.394 71.615-.006.02499z" points="69.598705 5.3241252 119.99224 76.939419 119.98601 76.964413 70.681075 .98277886" stroke="#ff10a3" stroke-linejoin="round"/><path d="m70.681.98278 4.6116 2.2792-1.1354 4.554-4.5585-2.4919z" points="75.292626 3.2620288 74.157229 7.8160636 69.598705 5.3241252 70.681075 .98277886" stroke="#ff10a3" stroke-linejoin="round"/><path d="m70.681.98278 4.6116 2.2792 44.655 73.669.0385.03293z" points="75.292626 3.2620288 119.94746 76.931483 119.98601 76.964413 70.681075 .98277886" stroke="none"/><g stroke="#ff10a3" stroke-linejoin="round"><path d="m69.599 5.3241 4.5585 2.4919 45.796 69.09.0386.03292z" points="74.157229 7.8160636 119.95369 76.906496 119.99224 76.939419 69.598705 5.3241252"/><path d="m75.293 3.262-1.1354 4.554 45.796 69.09-.006.02499z" points="74.157229 7.8160636 119.95369 76.906496 119.94746 76.931483 75.292626 3.2620288"/><path d="m119.99 76.964-.0385-.03293.006-.02499.0386.03292z" points="119.94746 76.931483 119.95369 76.906496 119.99224 76.939419 119.98601 76.964413"/></g><path d="m70.681.98278-1.0824 4.3413 50.394 71.615-.006.02499z" points="69.598705 5.3241252 119.99224 76.939419 119.98601 76.964413 70.681075 .98277886" stroke="#ff10a3" stroke-linejoin="round"/><path d="m70.681.98278 4.6116 2.2792-1.1354 4.554-4.5585-2.4919z" points="75.292626 3.2620288 74.157229 7.8160636 69.598705 5.3241252 70.681075 .98277886" stroke="#ff10a3" stroke-linejoin="round"/><path d="m70.681.98278 4.6116 2.2792 44.655 73.669.0385.03293z" points="75.292626 3.2620288 119.94746 76.931483 119.98601 76.964413 70.681075 .98277886" stroke="none"/><g stroke="#ff10a3" stroke-linejoin="round"><path d="m69.599 5.3241 4.5585 2.4919 45.796 69.09.0386.03292z" points="74.157229 7.8160636 119.95369 76.906496 119.99224 76.939419 69.598705 5.3241252"/><path d="m75.293 3.262-1.1354 4.554 45.796 69.09-.006.02499z" points="74.157229 7.8160636 119.95369 76.906496 119.94746 76.931483 75.292626 3.2620288"/><path d="m119.99 76.964-.0385-.03293.006-.02499.0386.03292z" points="119.94746 76.931483 119.95369 76.906496 119.99224 76.939419 119.98601 76.964413"/></g><g stroke="#ff10a3" stroke-linejoin="round"><path d="m199.37 76.891-1.0436 4.1858-77.9-3.627-.006.0241z" points="198.32376 81.077174 120.42418 77.45018 120.41818 77.474278 199.36733 76.891421"/><path d="m120.42 77.474.0336.01406.006-.0241-.0336-.01406z" points="120.45181 77.48834 120.45782 77.464244 120.42418 77.45018 120.41818 77.474278"/><path d="m194.52 74.407-1.0578 4.243-73.009-1.1861-.006.0241z" points="193.46654 78.650386 120.45782 77.464244 120.45181 77.48834 194.52438 74.407418"/><path d="m198.32 81.077-4.8572-2.4268-73.009-1.1861-.0336-.01406z" points="193.46654 78.650386 120.45782 77.464244 120.42418 77.45018 198.32376 81.077174"/></g><path d="m199.37 76.891-4.843-2.484-74.073 3.0809-.0336-.01406z" points="194.52438 74.407418 120.45181 77.48834 120.41818 77.474278 199.36733 76.891421" stroke="none"/><path d="m199.37 76.891-4.843-2.484-1.0578 4.243 4.8572 2.4268z" points="194.52438 74.407418 193.46654 78.650386 198.32376 81.077174 199.36733 76.891421" stroke="#ff10a3" stroke-linejoin="round"/></g><g fill-rule="evenodd" stroke="#ff10a3" stroke-linejoin="round" stroke-width="16.196" transform="matrix(-.0041832 .073313 .093789 -.048748 539.95 8.6245)"><g stroke="#ff10a3" stroke-linejoin="round"><path d="m-3018.3-3861.7 118.54 28.212 799.97-726.97.6824.1625z" points="-2899.7607 -3833.5183 -2099.7893 -4560.4857 -2099.1069 -4560.3232 -3018.2986 -3861.7307"/><path d="m-2099.1-4560.3-.1074.603-.6822-.1624.1072-.6031z" points="-2099.2143 -4559.7202 -2099.8965 -4559.8826 -2099.7893 -4560.4857 -2099.1069 -4560.3232"/><path d="m-3043.8-3937.4 124.35 29.595 819.52-652.06.6822.1624z" points="-2919.4148 -3907.8205 -2099.8965 -4559.8826 -2099.2143 -4559.7202 -3043.76 -3937.4151"/><path d="m-2899.8-3833.5-19.654-74.302 819.52-652.06.1072-.6031z" points="-2919.4148 -3907.8205 -2099.8965 -4559.8826 -2099.7893 -4560.4857 -2899.7607 -3833.5183"/></g><path d="m-3018.3-3861.7-25.461-75.684 944.55-622.31.1074-.603z" points="-3043.76 -3937.4151 -2099.2143 -4559.7202 -2099.1069 -4560.3232 -3018.2986 -3861.7307" stroke="none"/><path d="m-3018.3-3861.7-25.461-75.684 124.35 29.595 19.654 74.302z" points="-3043.76 -3937.4151 -2919.4148 -3907.8205 -2899.7607 -3833.5183 -3018.2986 -3861.7307" stroke="#ff10a3" stroke-linejoin="round"/><g stroke="#ff10a3" stroke-linejoin="round"><path d="m-3018.3-3861.7 118.54 28.212 799.97-726.97.6824.1625z" points="-2899.7607 -3833.5183 -2099.7893 -4560.4857 -2099.1069 -4560.3232 -3018.2986 -3861.7307"/><path d="m-2099.1-4560.3-.1074.603-.6822-.1624.1072-.6031z" points="-2099.2143 -4559.7202 -2099.8965 -4559.8826 -2099.7893 -4560.4857 -2099.1069 -4560.3232"/><path d="m-3043.8-3937.4 124.35 29.595 819.52-652.06.6822.1624z" points="-2919.4148 -3907.8205 -2099.8965 -4559.8826 -2099.2143 -4559.7202 -3043.76 -3937.4151"/><path d="m-2899.8-3833.5-19.654-74.302 819.52-652.06.1072-.6031z" points="-2919.4148 -3907.8205 -2099.8965 -4559.8826 -2099.7893 -4560.4857 -2899.7607 -3833.5183"/></g><path d="m-3018.3-3861.7-25.461-75.684 944.55-622.31.1074-.603z" points="-3043.76 -3937.4151 -2099.2143 -4559.7202 -2099.1069 -4560.3232 -3018.2986 -3861.7307" stroke="none"/><path d="m-3018.3-3861.7-25.461-75.684 124.35 29.595 19.654 74.302z" points="-3043.76 -3937.4151 -2919.4148 -3907.8205 -2899.7607 -3833.5183 -3018.2986 -3861.7307" stroke="#ff10a3" stroke-linejoin="round"/><g stroke="#ff10a3" stroke-linejoin="round"><path d="m-3018.3-3861.7 118.54 28.212 799.97-726.97.6824.1625z" points="-2899.7607 -3833.5183 -2099.7893 -4560.4857 -2099.1069 -4560.3232 -3018.2986 -3861.7307"/><path d="m-2099.1-4560.3-.1074.603-.6822-.1624.1072-.6031z" points="-2099.2143 -4559.7202 -2099.8965 -4559.8826 -2099.7893 -4560.4857 -2099.1069 -4560.3232"/><path d="m-3043.8-3937.4 124.35 29.595 819.52-652.06.6822.1624z" points="-2919.4148 -3907.8205 -2099.8965 -4559.8826 -2099.2143 -4559.7202 -3043.76 -3937.4151"/><path d="m-2899.8-3833.5-19.654-74.302 819.52-652.06.1072-.6031z" points="-2919.4148 -3907.8205 -2099.8965 -4559.8826 -2099.7893 -4560.4857 -2899.7607 -3833.5183"/></g><path d="m-3018.3-3861.7-25.461-75.684 944.55-622.31.1074-.603z" points="-3043.76 -3937.4151 -2099.2143 -4559.7202 -2099.1069 -4560.3232 -3018.2986 -3861.7307" stroke="none"/><path d="m-3018.3-3861.7-25.461-75.684 124.35 29.595 19.654 74.302z" points="-3043.76 -3937.4151 -2919.4148 -3907.8205 -2899.7607 -3833.5183 -3018.2986 -3861.7307" stroke="#ff10a3" stroke-linejoin="round"/><g stroke="#ff10a3" stroke-linejoin="round"><path d="m-3018.3-3861.7 118.54 28.212 799.97-726.97.6824.1625z" points="-2899.7607 -3833.5183 -2099.7893 -4560.4857 -2099.1069 -4560.3232 -3018.2986 -3861.7307"/><path d="m-2099.1-4560.3-.1074.603-.6822-.1624.1072-.6031z" points="-2099.2143 -4559.7202 -2099.8965 -4559.8826 -2099.7893 -4560.4857 -2099.1069 -4560.3232"/><path d="m-3043.8-3937.4 124.35 29.595 819.52-652.06.6822.1624z" points="-2919.4148 -3907.8205 -2099.8965 -4559.8826 -2099.2143 -4559.7202 -3043.76 -3937.4151"/><path d="m-2899.8-3833.5-19.654-74.302 819.52-652.06.1072-.6031z" points="-2919.4148 -3907.8205 -2099.8965 -4559.8826 -2099.7893 -4560.4857 -2899.7607 -3833.5183"/></g><path d="m-3018.3-3861.7-25.461-75.684 944.55-622.31.1074-.603z" points="-3043.76 -3937.4151 -2099.2143 -4559.7202 -2099.1069 -4560.3232 -3018.2986 -3861.7307" stroke="none"/><g stroke="#ff10a3" stroke-linejoin="round"><path d="m-3018.3-3861.7-25.461-75.684 124.35 29.595 19.654 74.302z" points="-3043.76 -3937.4151 -2919.4148 -3907.8205 -2899.7607 -3833.5183 -3018.2986 -3861.7307"/><path d="m-3444.7-5947.3 114.29 27.201 1235.1 1353.2.6579.1566z" points="-3330.4361 -5920.1424 -2095.3194 -4566.9389 -2094.6615 -4566.7823 -3444.7257 -5947.3437"/><path d="m-3444.7-5947.3 24.652 79.288 115.85 27.573-26.214-79.66z" points="-3420.0735 -5868.0553 -3304.2217 -5840.4822 -3330.4361 -5920.1424 -3444.7257 -5947.3437"/></g><path d="m-3444.7-5947.3 24.652 79.288 1325.2 1300.7.2448.5575z" points="-3420.0735 -5868.0553 -2094.9063 -4567.3398 -2094.6615 -4566.7823 -3444.7257 -5947.3437" stroke="none"/><g stroke="#ff10a3" stroke-linejoin="round"><path d="m-3330.4-5920.1 26.214 79.66 1208.7 1273 .2448.5575z" points="-3304.2217 -5840.4822 -2095.5642 -4567.4964 -2095.3194 -4566.9389 -3330.4361 -5920.1424"/><path d="m-3420.1-5868.1 115.85 27.573 1208.7 1273 .6579.1566z" points="-3304.2217 -5840.4822 -2095.5642 -4567.4964 -2094.9063 -4567.3398 -3420.0735 -5868.0553"/><path d="m-2094.7-4566.8-.2448-.5575-.6579-.1566.2448.5575z" points="-2094.9063 -4567.3398 -2095.5642 -4567.4964 -2095.3194 -4566.9389 -2094.6615 -4566.7823"/></g></g><g fill-rule="evenodd" stroke="#ff10a3" stroke-linejoin="round" stroke-width="1.0005" transform="matrix(1.2196 0 0 1.4337 -55.447 56.97)"><path d="m64.598-57.903v6.8358l77.958 64.687v.03935z" points="64.598348 -51.066845 142.55658 13.619723 142.55658 13.659077 64.598348 -57.902622" stroke="#ff10a3" stroke-linejoin="round"/><path d="m64.598-57.903 5.9167-.06008v7.1707l-5.9167-.27482z" points="70.515067 -57.962699 70.515067 -50.792029 64.598348 -51.066845 64.598348 -57.902622" stroke="#ff10a3" stroke-linejoin="round"/><path d="m64.598-57.903 5.9167-.06008 71.988 71.603.0534.01891z" points="70.515067 -57.962699 142.50316 13.640171 142.55658 13.659077 64.598348 -57.902622" stroke="none"/><g stroke="#ff10a3" stroke-linejoin="round"><g><path d="m64.598-51.067 5.9167.27482 71.988 64.393.0534.0189z" points="70.515067 -50.792029 142.50316 13.600827 142.55658 13.619723 64.598348 -51.066845"/><path d="m70.515-57.963v7.1707l71.988 64.393v.03934z" points="70.515067 -50.792029 142.50316 13.600827 142.50316 13.640171 70.515067 -57.962699"/><path d="m142.56 13.659-.0534-.01891v-.03934l.0534.0189z" points="142.50316 13.640171 142.50316 13.600827 142.55658 13.619723 142.55658 13.659077"/></g><path d="m64.598-57.903v6.8358l77.958 64.687v.03935z" points="64.598348 -51.066845 142.55658 13.619723 142.55658 13.659077 64.598348 -57.902622"/><path d="m64.598-57.903 5.9167-.06008v7.1707l-5.9167-.27482z" points="70.515067 -57.962699 70.515067 -50.792029 64.598348 -51.066845 64.598348 -57.902622"/></g><path d="m64.598-57.903 5.9167-.06008 71.988 71.603.0534.01891z" points="70.515067 -57.962699 142.50316 13.640171 142.55658 13.659077 64.598348 -57.902622" stroke="none"/><g stroke="#ff10a3" stroke-linejoin="round"><path d="m64.598-51.067 5.9167.27482 71.988 64.393.0534.0189z" points="70.515067 -50.792029 142.50316 13.600827 142.55658 13.619723 64.598348 -51.066845"/><path d="m70.515-57.963v7.1707l71.988 64.393v.03934z" points="70.515067 -50.792029 142.50316 13.600827 142.50316 13.640171 70.515067 -57.962699"/><path d="m142.56 13.659-.0534-.01891v-.03934l.0534.0189z" points="142.50316 13.640171 142.50316 13.600827 142.55658 13.619723 142.55658 13.659077"/></g><path d="m64.598-57.903v6.8358l77.958 64.687v.03935z" points="64.598348 -51.066845 142.55658 13.619723 142.55658 13.659077 64.598348 -57.902622" stroke="#ff10a3" stroke-linejoin="round"/><path d="m64.598-57.903 5.9167-.06008v7.1707l-5.9167-.27482z" points="70.515067 -57.962699 70.515067 -50.792029 64.598348 -51.066845 64.598348 -57.902622" stroke="#ff10a3" stroke-linejoin="round"/><path d="m64.598-57.903 5.9167-.06008 71.988 71.603.0534.01891z" points="70.515067 -57.962699 142.50316 13.640171 142.55658 13.659077 64.598348 -57.902622" stroke="none"/><g stroke="#ff10a3" stroke-linejoin="round"><path d="m64.598-51.067 5.9167.27482 71.988 64.393.0534.0189z" points="70.515067 -50.792029 142.50316 13.600827 142.55658 13.619723 64.598348 -51.066845"/><path d="m70.515-57.963v7.1707l71.988 64.393v.03934z" points="70.515067 -50.792029 142.50316 13.600827 142.50316 13.640171 70.515067 -57.962699"/><path d="m142.56 13.659-.0534-.01891v-.03934l.0534.0189z" points="142.50316 13.640171 142.50316 13.600827 142.55658 13.619723 142.55658 13.659077"/></g><path d="m64.598-57.903v6.8358l77.958 64.687v.03935z" points="64.598348 -51.066845 142.55658 13.619723 142.55658 13.659077 64.598348 -57.902622" stroke="#ff10a3" stroke-linejoin="round"/><path d="m64.598-57.903 5.9167-.06008v7.1707l-5.9167-.27482z" points="70.515067 -57.962699 70.515067 -50.792029 64.598348 -51.066845 64.598348 -57.902622" stroke="#ff10a3" stroke-linejoin="round"/><path d="m64.598-57.903 5.9167-.06008 71.988 71.603.0534.01891z" points="70.515067 -57.962699 142.50316 13.640171 142.55658 13.659077 64.598348 -57.902622" stroke="none"/><g stroke="#ff10a3" stroke-linejoin="round"><path d="m64.598-51.067 5.9167.27482 71.988 64.393.0534.0189z" points="70.515067 -50.792029 142.50316 13.600827 142.55658 13.619723 64.598348 -51.066845"/><path d="m70.515-57.963v7.1707l71.988 64.393v.03934z" points="70.515067 -50.792029 142.50316 13.600827 142.50316 13.640171 70.515067 -57.962699"/><path d="m142.56 13.659-.0534-.01891v-.03934l.0534.0189z" points="142.50316 13.640171 142.50316 13.600827 142.55658 13.619723 142.55658 13.659077"/></g><g stroke="#ff10a3" stroke-linejoin="round"><path d="m233.21-42.363v6.5908l-90.015 49.802v.03794z" points="233.21052 -35.772257 143.19537 14.029358 143.19537 14.067302 233.21052 -42.363038"/><path d="m143.2 14.067.0424-.004v-.03794l-.0424.004z" points="143.23779 14.063281 143.23779 14.02534 143.19537 14.029358 143.19537 14.067302"/><path d="m226.97-42.426v6.6809l-83.733 49.771v.03794z" points="226.97116 -35.74552 143.23779 14.02534 143.23779 14.063281 226.97116 -42.426391"/><path d="m233.21-35.772-6.2394.02674-83.733 49.771-.0424.004z" points="226.97116 -35.74552 143.23779 14.02534 143.19537 14.029358 233.21052 -35.772257"/></g><path d="m233.21-42.363-6.2394-.06335-83.733 56.49-.0424.004z" points="226.97116 -42.426391 143.23779 14.063281 143.19537 14.067302 233.21052 -42.363038" stroke="none"/><path d="m233.21-42.363-6.2394-.06335v6.6809l6.2394-.02674z" points="226.97116 -42.426391 226.97116 -35.74552 233.21052 -35.772257 233.21052 -42.363038" stroke="#ff10a3" stroke-linejoin="round"/></g></g><g fill="#270973"><path d="m92.804 36.445 8.3076 4.3705 18.108-5.3523 13.279 8.0285 8.4931-7.9039 4.609 2.7713-8.877 9.8159 6.0359 9.7011-8.1484 25.424 6.4723 24.837-3.5093 19.35-4.1948 2.5523-10.175 1.7482-17.47-1.2268-5.5489-3.9743-6.7522-20.036 6.7741-25.926-8.1484-13.715 5.7858-18.767-10.347-7.9375z" stroke="#270973" stroke-width="2.7758"/><path d="m100.47 125.03 6.027 3.1488v11.336l-8.345-3.7786z"/><path d="m131.48 127.9 4.805.38065 3.8494 7.899-6.3558 3.5468z"/></g><path d="m122.72 54.079-1.8899 11.339 6.8036 3.0238.75595-12.095zm-18.521.75596 5.6696 12.095 3.4018-12.095z" fill="#ffd500" stroke="#ff005e" stroke-width="1.665"/></g></svg>