<svg width="1661" height="500" viewBox="0 0 1661 500" fill="none" xmlns="http://www.w3.org/2000/svg">
<path d="M395.059 46.7798C393.101 26.98 361.552 19.5823 358.071 18.712C354.59 17.8416 324.999 10.8791 289.751 38.2942C254.503 65.7094 239.054 128.59 239.054 128.59L236.008 142.08H231.221C203.079 142.138 176.105 153.343 156.205 173.243C136.305 193.143 125.1 220.117 125.042 248.259V252.393C125.038 273.306 131.211 293.755 142.784 311.174C154.358 328.592 170.818 342.205 190.099 350.305L187.705 361.619C183.354 383.159 175.303 412.097 166.165 432.115C157.026 452.132 146.147 461.053 135.051 464.099C123.954 467.145 117.427 461.053 114.598 458.442C111.77 455.831 101.108 439.077 101.108 439.077C99.044 436.208 96.2176 433.974 92.949 432.628C89.6803 431.282 86.1002 430.878 82.6139 431.462C81.0908 431.68 69.9942 434.943 71.0821 449.956C73.0403 469.756 104.59 477.372 108.071 478.024C111.552 478.677 141.143 485.857 176.609 458.442C212.074 431.027 227.087 368.146 227.087 368.146L229.263 358.573H235.355C263.498 358.515 290.472 347.31 310.372 327.41C330.272 307.51 341.477 280.536 341.535 252.393V248.259C341.535 227.148 335.243 206.516 323.461 188.998C311.679 171.481 294.943 157.873 275.39 149.913L278.436 135.118C282.788 113.795 290.838 84.6388 299.977 64.839C309.115 45.0392 319.994 35.6832 331.091 32.6371C342.187 29.591 348.715 35.6832 351.543 38.2942C354.372 40.9052 365.033 57.6589 365.033 57.6589C367.098 60.5284 369.924 62.7627 373.193 64.1086C376.461 65.4545 380.041 65.8582 383.528 65.2742C385.051 65.0566 396.147 61.7929 395.059 46.7798ZM148.758 252.393V248.259C148.87 226.573 157.474 205.794 172.727 190.378C187.981 174.962 208.667 166.138 230.351 165.796L216.208 226.501C215.773 228.024 205.982 270.453 205.982 270.453C205.982 270.453 200.107 300.479 194.885 326.371C181.069 319.561 169.43 309.027 161.279 295.956C153.129 282.885 148.793 267.797 148.758 252.393V252.393ZM317.818 248.259V252.393C317.818 263.223 315.685 273.946 311.541 283.951C307.397 293.956 301.323 303.046 293.666 310.704C286.008 318.361 276.918 324.435 266.913 328.579C256.908 332.723 246.185 334.856 235.355 334.856H234.703L259.289 226.501L270.386 173.629C284.514 180.345 296.46 190.911 304.851 204.113C313.241 217.315 317.736 232.617 317.818 248.259Z" fill="white"/>
<path d="M539.968 221.715V88.5553H635.703V110.096H565.207V145.779H628.741V167.319H565.207V221.715H539.968Z" fill="white"/>
<path d="M659.855 104.003V81.3751H683.571V104.003H659.855ZM659.855 221.715V119.669H683.571V221.715H659.855Z" fill="white"/>
<path d="M712.727 221.715V81.3751H736.443V221.715H712.727Z" fill="white"/>
<path d="M809.333 224.108C799.949 224.382 790.632 222.444 782.135 218.451C774.927 214.503 769.199 208.317 765.817 200.827C761.961 191.298 760.109 181.077 760.377 170.801C760.066 160.451 761.919 150.15 765.817 140.557C769.142 133.083 774.891 126.95 782.135 123.151C790.58 118.984 799.922 116.967 809.333 117.276C817.946 117.032 826.481 118.979 834.137 122.933C840.937 126.703 846.237 132.695 849.15 139.904C852.631 147.52 854.154 157.311 854.154 169.495V176.458H784.746C784.879 181.936 785.832 187.363 787.575 192.559C789.056 196.585 791.805 200.021 795.408 202.35C799.797 204.52 804.657 205.566 809.55 205.396C812.342 205.398 815.122 205.032 817.818 204.308C820.366 203.56 822.735 202.301 824.781 200.609C826.817 199.019 828.394 196.917 829.35 194.517C830.455 191.829 830.974 188.936 830.873 186.031H854.154C854.294 191.857 853.181 197.644 850.891 203.003C848.694 207.634 845.409 211.665 841.317 214.752C836.993 217.926 832.127 220.285 826.957 221.715C821.219 223.315 815.289 224.121 809.333 224.108ZM785.181 159.922H829.568C829.709 156.234 829.194 152.55 828.045 149.043C827.322 146.31 825.982 143.779 824.128 141.645C822.469 139.686 820.277 138.25 817.818 137.511C815.078 136.622 812.213 136.181 809.333 136.205C805.005 136.117 800.707 136.932 796.713 138.599C793.299 140.26 790.541 143.018 788.88 146.432C786.795 150.65 785.54 155.23 785.181 159.922V159.922Z" fill="white"/>
<path d="M920.734 224.108C911.559 224.387 902.453 222.446 894.189 218.451C887.164 214.468 881.655 208.271 878.523 200.827C875.042 192.994 873.302 182.768 873.302 170.801C873.302 158.834 875.042 148.39 878.523 140.557C881.751 133.161 887.336 127.04 894.407 123.151C902.547 119.004 911.603 116.983 920.734 117.276C926.927 117.163 933.098 118.044 939.011 119.887C944.054 121.458 948.72 124.051 952.718 127.502C956.583 131.042 959.564 135.439 961.422 140.339C963.451 145.987 964.41 151.964 964.25 157.963H940.099C940.215 153.886 939.55 149.824 938.141 145.996C936.742 143.053 934.46 140.619 931.613 139.034C928.116 137.26 924.215 136.435 920.299 136.641C915.723 136.367 911.191 137.673 907.462 140.339C903.841 143.073 901.176 146.881 899.846 151.218C898.126 157.154 897.319 163.317 897.453 169.495V172.106C897.352 178.283 898.158 184.441 899.846 190.383C901.176 194.779 903.932 198.606 907.679 201.262C911.764 203.866 916.547 205.157 921.387 204.961C925.184 205.107 928.948 204.204 932.266 202.35C935.279 200.812 937.664 198.273 939.011 195.17C940.659 191.476 941.476 187.465 941.404 183.42H964.25C964.392 189.277 963.432 195.107 961.422 200.609C959.587 205.522 956.602 209.923 952.718 213.446C948.796 217.054 944.111 219.731 939.011 221.279C933.137 223.307 926.946 224.265 920.734 224.108V224.108Z" fill="white"/>
<path d="M1033.66 224.108C1024.06 224.396 1014.53 222.46 1005.81 218.451C998.366 214.603 992.401 208.409 988.837 200.827C984.799 191.346 982.869 181.101 983.18 170.801C983.18 158.399 985.138 148.39 988.837 140.557C992.342 132.989 998.331 126.847 1005.81 123.151C1014.48 118.964 1024.04 116.948 1033.66 117.276C1044.97 117.276 1054.33 119.234 1061.73 123.151C1069.14 126.858 1075.06 133.004 1078.48 140.557C1082.4 148.39 1084.14 158.399 1084.14 170.801C1084.14 183.203 1082.4 192.994 1078.48 200.827C1075 208.393 1069.11 214.591 1061.73 218.451C1052.93 222.485 1043.33 224.422 1033.66 224.108V224.108ZM1033.66 204.743C1038.91 204.976 1044.13 203.692 1048.67 201.044C1052.71 198.553 1055.72 194.692 1057.16 190.165C1059.05 184.338 1059.93 178.231 1059.77 172.106V169.278C1059.93 163.153 1059.05 157.045 1057.16 151.218C1055.67 146.719 1052.67 142.873 1048.67 140.339C1044.13 137.692 1038.91 136.408 1033.66 136.641C1028.41 136.467 1023.21 137.747 1018.65 140.339C1014.77 142.961 1011.87 146.783 1010.38 151.218C1008.48 157.045 1007.6 163.153 1007.77 169.278V172.106C1007.6 178.231 1008.48 184.338 1010.38 190.165C1011.8 194.632 1014.72 198.473 1018.65 201.044C1023.21 203.637 1028.41 204.917 1033.66 204.743V204.743Z" fill="white"/>
<path d="M1108.29 104.003V81.3751H1132V104.003H1108.29ZM1108.29 221.715V119.669H1132V221.715H1108.29Z" fill="white"/>
<path d="M1161.16 221.714V119.669H1180.74L1182.7 133.159H1184.22C1186.59 130.035 1189.37 127.252 1192.49 124.891C1195.76 122.438 1199.45 120.595 1203.37 119.452C1207.7 117.905 1212.27 117.167 1216.86 117.276C1222.7 117.225 1228.48 118.411 1233.83 120.757C1238.87 123.151 1243 127.123 1245.58 132.071C1248.63 137.293 1249.93 144.256 1249.93 152.741V221.714H1226V157.093C1226.04 154.084 1225.68 151.083 1224.91 148.172C1224.13 145.965 1222.86 143.959 1221.21 142.298C1219.46 140.751 1217.38 139.633 1215.12 139.034C1212.64 138.386 1210.07 138.093 1207.51 138.164C1203.44 137.997 1199.42 139.059 1195.97 141.21C1192.5 143.237 1189.64 146.17 1187.71 149.695C1185.65 153.582 1184.61 157.92 1184.66 162.315V221.714H1161.16Z" fill="white"/>
<path d="M539.968 406.658V273.499H635.703V295.039H565.207V330.722H628.741V352.263H565.207V406.658H539.968Z" fill="white"/>
<path d="M699.455 409.051C689.859 409.339 680.327 407.403 671.604 403.394C664.112 399.615 658.127 393.4 654.633 385.77C650.595 376.289 648.665 366.044 648.976 355.744C648.976 343.342 650.934 333.333 654.633 325.501C658.078 317.891 664.084 311.731 671.604 308.094C680.274 303.908 689.832 301.892 699.455 302.219C710.769 302.219 720.125 304.178 727.522 308.094C734.939 311.801 740.855 317.947 744.276 325.501C748.193 333.333 749.933 343.342 749.933 355.744C749.933 368.146 748.193 377.937 744.276 385.77C740.795 393.337 734.903 399.535 727.522 403.394C718.731 407.428 709.122 409.365 699.455 409.051ZM699.455 389.687C704.71 389.92 709.922 388.636 714.468 385.988C718.509 383.496 721.521 379.635 722.953 375.109C724.847 369.282 725.73 363.174 725.564 357.05V354.221C725.73 348.097 724.847 341.989 722.953 336.162C721.47 331.662 718.471 327.817 714.468 325.283C709.922 322.635 704.71 321.351 699.455 321.584C694.205 321.41 689.009 322.69 684.441 325.283C680.567 327.904 677.661 331.727 676.173 336.162C674.28 341.989 673.397 348.097 673.562 354.221V357.05C673.397 363.174 674.28 369.282 676.173 375.109C677.601 379.576 680.52 383.417 684.441 385.988C689.009 388.581 694.205 389.861 699.455 389.687V389.687Z" fill="white"/>
<path d="M806.504 409.051C796.713 409.051 788.663 406.44 782.57 401.001C776.478 395.561 773.214 386.423 773.214 373.586V304.613H796.931V369.234C796.836 372.261 797.278 375.282 798.236 378.155C798.936 380.402 800.211 382.428 801.935 384.03C803.569 385.62 805.597 386.746 807.81 387.293C810.371 387.929 813.005 388.221 815.643 388.164C819.698 388.266 823.699 387.209 827.174 385.118C830.642 383.055 833.438 380.032 835.225 376.414C837.278 372.606 838.326 368.338 838.271 364.012V304.613H861.987V406.658H842.405L840.447 393.168H839.141C836.721 396.24 833.946 399.016 830.873 401.436C827.537 403.833 823.873 405.739 819.994 407.093C815.624 408.43 811.075 409.09 806.504 409.051V409.051Z" fill="white"/>
<path d="M891.143 406.658V304.613H910.943L912.901 318.103H914.207C916.627 315.03 919.402 312.255 922.475 309.835C925.744 307.381 929.429 305.538 933.354 304.395C937.679 302.848 942.252 302.111 946.844 302.219C952.751 302.195 958.6 303.38 964.032 305.701C969.075 308.095 973.199 312.067 975.782 317.015C978.61 322.237 979.916 329.199 979.916 337.685V406.658H956.2V342.037C956.294 339.009 955.852 335.989 954.894 333.116C954.109 330.909 952.846 328.903 951.195 327.241C949.496 325.741 947.492 324.628 945.321 323.977C942.76 323.342 940.126 323.049 937.488 323.107C933.429 322.98 929.422 324.039 925.956 326.153C922.526 328.237 919.682 331.156 917.688 334.639C915.71 338.545 914.738 342.882 914.859 347.259V406.658H891.143Z" fill="white"/>
<path d="M1043.88 409.051C1036.32 409.206 1028.86 407.247 1022.34 403.394C1015.88 399.263 1010.92 393.159 1008.2 385.988C1004.59 376.249 1002.9 365.907 1003.2 355.527C1003.2 343.125 1004.94 333.116 1008.42 325.283C1011.07 318.135 1015.95 312.031 1022.34 307.876C1028.41 304.086 1035.43 302.122 1042.58 302.219C1046.83 302.244 1051.06 302.755 1055.2 303.742C1058.93 304.712 1062.47 306.333 1065.64 308.529C1068.54 310.7 1071.04 313.349 1073.04 316.362H1074.35V266.319H1098.06V406.658H1078.48L1076.52 393.168H1075C1071.82 398.277 1067.31 402.416 1061.94 405.135C1056.3 407.786 1050.12 409.125 1043.88 409.051V409.051ZM1051.28 388.599C1055.93 388.905 1060.54 387.599 1064.34 384.9C1067.95 382.255 1070.62 378.517 1071.95 374.239C1073.65 368.745 1074.46 363.016 1074.35 357.267V354.656C1074.4 350.126 1073.96 345.603 1073.04 341.166C1072.21 337.527 1070.73 334.064 1068.69 330.94C1066.95 328.248 1064.45 326.129 1061.51 324.848C1058.33 323.294 1054.82 322.546 1051.28 322.672C1046.39 322.38 1041.53 323.595 1037.36 326.153C1033.7 328.615 1031.07 332.329 1029.96 336.597C1028.32 342.397 1027.59 348.415 1027.78 354.439V357.267C1027.62 363.218 1028.35 369.16 1029.96 374.891C1031.19 379.103 1033.79 382.781 1037.36 385.335C1041.6 387.709 1046.43 388.84 1051.28 388.599V388.599Z" fill="white"/>
<path d="M1153.33 409.051C1150.04 408.966 1146.76 408.602 1143.54 407.963C1139.78 407.314 1136.16 405.987 1132.88 404.047C1129.28 402.011 1126.33 398.992 1124.39 395.344C1122.03 390.221 1120.92 384.612 1121.14 378.977C1121.37 373.342 1122.93 367.84 1125.69 362.924C1128.99 358.194 1133.5 354.437 1138.75 352.045C1145.18 349.178 1152 347.271 1158.98 346.388C1167.5 345.3 1176.08 344.791 1184.66 344.865V336.38C1184.7 333.711 1184.26 331.057 1183.35 328.547C1182.38 326.143 1180.62 324.146 1178.35 322.889C1175.01 321.383 1171.35 320.711 1167.69 320.931C1163.84 320.817 1160.01 321.407 1156.37 322.672C1154.09 323.513 1152.12 325.031 1150.72 327.024C1149.66 328.557 1149.13 330.387 1149.19 332.245V334.856H1126.35C1126.17 334.22 1126.1 333.558 1126.13 332.898V330.505C1126.06 325.043 1127.9 319.729 1131.35 315.492C1135.16 310.887 1140.23 307.486 1145.93 305.701C1160.44 300.918 1176.12 301.071 1190.53 306.136C1196.04 308.405 1200.74 312.269 1204.02 317.232C1207.01 322.539 1208.51 328.551 1208.38 334.639V382.724C1208.25 383.741 1208.39 384.772 1208.77 385.723C1209.15 386.673 1209.76 387.513 1210.55 388.164C1211.92 389.052 1213.49 389.577 1215.12 389.687H1221.43V406.005L1215.77 407.746C1212.79 408.509 1209.72 408.875 1206.63 408.834C1203.58 408.845 1200.54 408.254 1197.71 407.093C1195.12 406.148 1192.81 404.579 1190.97 402.524C1189.2 400.332 1187.87 397.82 1187.05 395.126H1185.96C1183.67 397.845 1181.04 400.258 1178.13 402.306C1174.84 404.491 1171.25 406.177 1167.47 407.311C1162.85 408.492 1158.1 409.077 1153.33 409.051ZM1160.51 389.687C1164.06 389.712 1167.6 389.123 1170.95 387.946C1173.76 386.85 1176.29 385.14 1178.35 382.942C1180.5 380.887 1182.14 378.352 1183.14 375.544C1184.2 372.392 1184.72 369.08 1184.66 365.753V361.184C1178.11 361.148 1171.56 361.584 1165.08 362.489C1159.97 363.042 1155.06 364.754 1150.72 367.493C1148.96 368.585 1147.52 370.131 1146.56 371.969C1145.61 373.807 1145.16 375.868 1145.28 377.937C1145.25 380.094 1145.86 382.211 1147.02 384.03C1148.2 385.904 1149.96 387.352 1152.02 388.164C1154.73 389.205 1157.61 389.722 1160.51 389.687V389.687Z" fill="white"/>
<path d="M1265.82 409.051C1260.59 409.369 1255.4 407.995 1251.02 405.135C1247.45 402.862 1244.71 399.507 1243.19 395.561C1241.71 391.67 1240.97 387.538 1241.01 383.377V323.977H1228.83V304.613H1241.67L1245.8 276.11H1264.73V304.613H1282.35V323.977H1264.73V380.983C1264.59 382.14 1264.72 383.312 1265.1 384.414C1265.47 385.516 1266.09 386.52 1266.9 387.354C1267.71 388.187 1268.7 388.829 1269.79 389.233C1270.89 389.636 1272.05 389.791 1273.21 389.687H1282.35V406.005L1277.57 407.311L1271.69 408.616L1265.82 409.051Z" fill="white"/>
<path d="M1303.68 288.947V266.319H1327.39V288.947H1303.68ZM1303.68 406.658V304.613H1327.39V406.658H1303.68Z" fill="white"/>
<path d="M1402.02 409.051C1392.36 409.341 1382.75 407.406 1373.95 403.394C1366.56 399.483 1360.61 393.307 1356.98 385.77C1353.28 377.937 1351.54 367.711 1351.54 355.744C1351.54 343.777 1353.28 333.333 1356.98 325.5C1360.56 317.981 1366.53 311.859 1373.95 308.094C1382.7 303.906 1392.33 301.891 1402.02 302.219C1411.64 301.891 1421.2 303.908 1429.87 308.094C1437.35 311.79 1443.34 317.932 1446.84 325.5C1450.54 333.333 1452.28 343.342 1452.28 355.744C1452.28 368.146 1450.54 377.937 1446.84 385.77C1443.28 393.352 1437.31 399.547 1429.87 403.394C1421.15 407.403 1411.62 409.339 1402.02 409.051V409.051ZM1402.02 389.687C1407.27 389.861 1412.47 388.58 1417.04 385.988C1420.96 383.417 1423.88 379.576 1425.3 375.109C1427.2 369.282 1428.08 363.174 1427.91 357.05V354.221C1428.08 348.096 1427.2 341.989 1425.3 336.162C1423.82 331.727 1420.91 327.904 1417.04 325.283C1412.36 322.86 1407.18 321.596 1401.91 321.596C1396.65 321.596 1391.46 322.86 1386.79 325.283C1382.92 327.904 1380.01 331.727 1378.52 336.162C1376.63 341.989 1375.75 348.096 1375.91 354.221V357.05C1375.75 363.174 1376.63 369.282 1378.52 375.109C1379.95 379.576 1382.87 383.417 1386.79 385.988C1391.43 388.609 1396.7 389.89 1402.02 389.687Z" fill="white"/>
<path d="M1476.43 406.658V304.613H1496.23L1498.19 318.103H1499.5C1501.98 315.081 1504.75 312.312 1507.77 309.835C1511.06 307.423 1514.74 305.584 1518.65 304.395C1522.97 302.862 1527.54 302.125 1532.14 302.219C1538.04 302.17 1543.9 303.356 1549.32 305.701C1554.37 308.095 1558.49 312.066 1561.07 317.015C1564.2 323.443 1565.69 330.542 1565.43 337.685V406.658H1541.49V342.037C1541.59 339.009 1541.14 335.989 1540.19 333.116C1539.49 330.868 1538.21 328.843 1536.49 327.241C1534.85 325.651 1532.83 324.524 1530.61 323.977C1528.05 323.342 1525.42 323.049 1522.78 323.107C1518.72 323.005 1514.72 324.061 1511.25 326.153C1507.83 328.185 1505.05 331.122 1503.2 334.639C1501.05 338.489 1500 342.853 1500.15 347.258V406.658H1476.43Z" fill="white"/>
</svg>
