<svg xmlns="http://www.w3.org/2000/svg" width="145" height="23" fill="none">
  <g fill="#fff" clip-path="url(#a)">
    <path d="m13.197 7.613 1.498 1.505v1.797h-6.91V9.118l1.6-1.505h3.813Z"/>
    <path d="M54.975 0H5.673L0 5.68v11.382l5.673 5.68h49.303l5.672-5.68V5.68L54.975 0ZM16.198 16.629h-1.503v-4.214h-6.91v4.214H6.288V8.366l2.25-2.253h5.405l2.255 2.253v8.263Zm12.715 0H27.41V9.118l-1.5-1.506H22.1l-1.6 1.506v7.51h-1.497V8.367l2.25-2.253h5.404l2.256 2.253v8.263Zm12.732-7.51h-1.504V7.612h-6.91v3.274h7.662l.752.754v4.243l-.752.746h-8.415l-.744-.748v-1.72h1.497v.968h6.91v-2.736h-7.663l-.744-.753V6.859l.744-.746h8.415l.752.746v2.26Zm12.713 7.51h-1.503v-4.214h-6.91v4.214h-1.497V8.366l2.25-2.253h5.405l2.255 2.253v8.263Zm-6.813-9.017-1.6 1.506v1.798h6.91V9.118l-1.497-1.506h-3.813ZM73.67 15.026a1.401 1.401 0 0 0-.118-.382 2.417 2.417 0 0 0-.335-.54l-1.772-2.174a2.755 2.755 0 0 0 1.59-.987 2.776 2.776 0 0 0 .636-1.799v-.813c0-.787-.278-1.465-.835-2.022a2.727 2.727 0 0 0-2.011-.836h-4.97v11.416h1.63V12h1.891l2.689 3.256v1.632h1.622v-1.465c0-.182-.009-.31-.016-.398Zm-6.185-4.657V7.09h3.34c.333 0 .62.12.858.367.246.247.365.533.365.875v.813c0 .334-.118.62-.365.867-.238.24-.525.358-.858.358h-3.34ZM83.758 7.09V5.473h-7.817v11.416h7.817v-1.632h-6.185v-3.256h6.185V10.37h-6.185V7.09h6.185ZM87.66 8.331c0-.342.121-.628.36-.875.246-.247.532-.366.866-.366h2.115c.334 0 .62.119.859.366.245.238.366.525.366.86h1.606a2.71 2.71 0 0 0-.836-2.007 2.724 2.724 0 0 0-2.01-.836h-2.1c-.786 0-1.463.28-2.02.836a2.757 2.757 0 0 0-.835 2.022c0 3.63 6.195 3.432 6.195 5.692 0 .342-.12.637-.359.877a1.176 1.176 0 0 1-.867.357h-2.099c-.34 0-.627-.119-.874-.357a1.157 1.157 0 0 1-.366-.86h-1.63c0 .788.278 1.457.843 2.014.565.556 1.24.835 2.027.835h2.085c.786 0 1.461-.279 2.019-.835a2.771 2.771 0 0 0 .842-2.031c0-3.63-6.186-3.43-6.186-5.692ZM103.934 7.09V5.473h-7.815v11.416h7.815v-1.632h-6.185v-3.256h6.185V10.37h-6.185V7.09h6.185ZM113.927 10.631l-2.163-4.569c-.11-.222-.222-.373-.326-.461-.102-.088-.278-.128-.508-.128h-1.622c-.478 0-.661.152-.851.59l-2.147 4.568c-.071.152-.103.487-.103.989v5.269h1.63v-2.443h4.563v2.443h1.623V11.62c0-.518-.032-.844-.096-.989Zm-1.527 2.183h-4.563v-1.648l1.924-4.076h.763l1.876 4.076v1.648ZM124.113 15.026a1.434 1.434 0 0 0-.119-.382 2.536 2.536 0 0 0-.334-.54l-1.774-2.174a2.756 2.756 0 0 0 1.591-.987 2.782 2.782 0 0 0 .636-1.799v-.813c0-.787-.278-1.465-.835-2.022a2.726 2.726 0 0 0-2.012-.836h-4.969v11.416h1.631V12h1.891l2.688 3.256v1.632h1.621v-1.465c0-.182-.007-.31-.015-.398Zm-6.185-4.657V7.09h3.338c.334 0 .62.12.859.367.247.247.366.533.366.875v.813c0 .334-.119.62-.366.867-.239.24-.525.358-.859.358h-3.338ZM132.333 15.019a.806.806 0 0 1-.573.238h-2.942a.774.774 0 0 1-.564-.238.81.81 0 0 1-.239-.573V7.94c0-.23.08-.43.239-.597a.763.763 0 0 1 .564-.254h2.942c.215 0 .406.087.573.254a.816.816 0 0 1 .247.597h1.62c0-.676-.237-1.258-.715-1.743a2.325 2.325 0 0 0-1.725-.725h-2.942c-.675 0-1.248.24-1.725.725a2.43 2.43 0 0 0-.708 1.743v6.505c0 .676.24 1.258.708 1.734.477.47 1.05.709 1.725.709h2.942a2.33 2.33 0 0 0 1.725-.716 2.348 2.348 0 0 0 .715-1.727h-1.62a.79.79 0 0 1-.247.573ZM142.666 5.473v4.896h-4.563V5.473h-1.63v11.416h1.63V12h4.563v4.888h1.622V5.473h-1.622Z"/>
  </g>
  <defs>
    <clipPath id="a">
      <path fill="#fff" d="M0 0h145v23H0z"/>
    </clipPath>
  </defs>
</svg>
