<svg width="1406" height="354" viewBox="0 0 1406 354" fill="none" xmlns="http://www.w3.org/2000/svg">
<path d="M357.346 276.52V0H468.056C488.398 0 505.381 3.01013 518.974 9.06208C532.568 15.0823 542.77 23.4473 549.614 34.1254C556.458 44.8034 559.881 57.0658 559.881 70.9124C559.881 81.7172 557.726 91.1912 553.385 99.3344C549.076 107.478 543.151 114.132 535.641 119.328C528.132 124.493 519.545 128.168 509.912 130.323V133.016C520.432 133.46 530.318 136.438 539.538 141.92C548.759 147.401 556.268 155.101 562.003 164.955C567.77 174.809 570.654 186.533 570.654 200.126C570.654 214.797 567.042 227.883 559.785 239.353C552.529 250.823 541.851 259.885 527.72 266.571C513.588 273.257 496.161 276.552 475.47 276.552H357.314L357.346 276.52ZM415.806 115.716H459.152C467.168 115.716 474.298 114.29 480.54 111.47C486.782 108.65 491.756 104.594 495.4 99.3977C499.044 94.1696 500.882 87.9275 500.882 80.6399C500.882 70.6589 497.333 62.5791 490.267 56.4637C483.201 50.3484 473.189 47.2749 460.229 47.2749H415.806V115.748V115.716ZM415.806 228.738H463.461C479.748 228.738 491.63 225.602 499.108 219.359C506.585 213.117 510.324 204.752 510.324 194.296C510.324 186.66 508.487 179.911 504.779 174.049C501.072 168.187 495.844 163.593 489.063 160.266C482.251 156.939 474.171 155.259 464.824 155.259H415.806V228.707V228.738Z" fill="white"/>
<path d="M702.054 280.575C680.73 280.575 662.384 276.234 647.017 267.552C631.681 258.87 619.862 246.545 611.56 230.544C603.29 214.574 599.14 195.626 599.14 173.763C599.14 151.9 603.29 133.712 611.56 117.584C619.83 101.488 631.522 88.9089 646.605 79.9102C661.687 70.9115 679.399 66.4121 699.741 66.4121C713.43 66.4121 726.167 68.5984 738.018 72.971C749.868 77.3436 760.198 83.9026 769.07 92.6161C777.941 101.361 784.849 112.293 789.792 125.506C794.735 138.687 797.206 154.118 797.206 171.767V187.578H622.08V151.932H743.056C743.056 143.662 741.25 136.311 737.669 129.91C734.057 123.51 729.082 118.503 722.745 114.859C716.408 111.216 709.025 109.378 700.66 109.378C692.295 109.378 684.215 111.374 677.498 115.398C670.781 119.39 665.553 124.777 661.782 131.463C658.011 138.18 656.079 145.626 655.984 153.801V187.705C655.984 197.971 657.885 206.843 661.719 214.289C665.553 221.767 670.971 227.533 677.973 231.589C684.976 235.645 693.309 237.673 702.942 237.673C709.342 237.673 715.172 236.786 720.495 234.98C725.819 233.173 730.35 230.48 734.12 226.868C737.891 223.256 740.774 218.852 742.771 213.623L795.971 217.141C793.277 229.91 787.764 241.063 779.431 250.569C771.097 260.075 760.388 267.457 747.302 272.717C734.215 277.977 719.101 280.607 701.991 280.607L702.054 280.575Z" fill="white"/>
<path d="M834.784 276.52V69.1064H890.551V105.291H892.706C896.476 92.427 902.845 82.6678 911.749 76.0455C920.652 69.4232 930.918 66.1279 942.547 66.1279C945.43 66.1279 948.536 66.318 951.863 66.6666C955.19 67.0151 958.105 67.5221 960.639 68.1558V119.201C957.946 118.409 954.207 117.68 949.423 117.047C944.638 116.413 940.297 116.096 936.337 116.096C927.877 116.096 920.335 117.934 913.713 121.578C907.091 125.222 901.863 130.291 898.06 136.755C894.226 143.251 892.325 150.697 892.325 159.157V276.489H834.816L834.784 276.52Z" fill="white"/>
<path d="M1032.19 353.897C1024.9 353.897 1018.09 353.326 1011.72 352.217C1005.38 351.077 1000.12 349.714 996.002 348.098L1008.96 305.038C1019.13 308.174 1027.72 309.03 1034.69 307.541C1041.66 306.051 1047.17 300.633 1051.23 291.286L1054.62 282.509L980.223 69.1699H1040.71L1083.64 221.483H1085.8L1129.15 69.1699L1190.04 69.4551L1109.44 298.986C1105.57 310.076 1100.31 319.708 1093.72 327.946C1087.1 336.184 1078.76 342.585 1068.66 347.116C1058.58 351.647 1046.41 353.928 1032.22 353.928L1032.19 353.897Z" fill="white"/>
<path d="M1267.55 69.1069L1305.63 141.604L1344.67 69.1069H1403.67L1343.59 172.814L1405.28 276.521H1346.54L1305.63 204.816L1265.39 276.521H1205.98L1267.55 172.814L1208.14 69.1069H1267.55V69.1069Z" fill="white"/>
<path d="M0.53125 138.46L16.2011 154.13L62.4687 107.863L62.1548 200.055L84.8747 222.775L85.5026 53.489L0.53125 138.46Z" fill="white"/>
<path d="M114.502 24.4896L113.674 251.575L137.992 275.893L138.991 0L114.502 24.4896Z" fill="white"/>
<path d="M165.907 158.24L178.152 170.485L190.482 158.155L191.681 105.208L179.494 93.0205L167.106 105.408L165.907 158.269V158.24Z" fill="white"/>
<path d="M212.317 186.783L224.562 199.028L236.893 186.698L238.091 76.6657L225.904 64.478L213.516 76.8655L212.317 186.812V186.783Z" fill="white"/>
</svg>
