<svg width="96" height="97" viewBox="0 0 96 97" fill="none" xmlns="http://www.w3.org/2000/svg">
<path d="M0 4.78763C0 2.41964 1.91964 0.5 4.28763 0.5H91.7124C94.0804 0.5 96 2.41964 96 4.78763V92.2124C96 94.5804 94.0804 96.5 91.7124 96.5H4.28763C1.91964 96.5 0 94.5804 0 92.2124V4.78763Z" fill="#0090FF"/>
<path d="M62.8859 73.8435C54.6916 78.5761 45.1283 78.7871 37.0828 75.25C31.71 72.8884 27.0132 68.8555 23.854 63.3817C23.2597 62.3515 22.7361 61.2998 22.2827 60.2316C23.9921 59.0791 26.0512 58.4066 28.2677 58.4066C31.0542 58.4066 33.5925 59.4697 35.4993 61.2118C35.7561 61.4894 36.0207 61.7584 36.2939 62.0181L36.2953 62.0202C39.4974 65.0694 43.8295 66.941 48.5993 66.941C56.3266 66.941 62.9073 62.0274 65.3885 55.1535C66.0715 53.2605 66.4441 51.2193 66.4441 49.0909V49.0551H29.8741C27.2342 48.8541 24.8611 47.6972 23.1002 45.9294C22.1254 44.9507 21.3386 43.7845 20.7986 42.4903C20.3745 41.4751 20.102 40.3819 20.009 39.2372V23.3179C20.009 22.2981 21.2416 21.7874 21.9625 22.5085L27.5503 28.0979C28.2291 27.8897 28.9371 27.7466 29.6667 27.6772C30.0064 27.6443 30.3511 27.6279 30.6994 27.6279C31.974 27.6279 33.197 27.8504 34.3306 28.2582V23.3179C34.3306 22.2981 35.5633 21.7874 36.2842 22.5085L43.6328 29.8593C45.9222 25.6375 49.8653 22.4424 54.5936 21.1446C56.1013 20.7304 57.6884 20.5093 59.3277 20.5093C68.9195 20.5093 76.7433 28.0793 77.1553 37.5717C77.1667 37.8328 77.1725 38.0954 77.1725 38.3594V48.5336C77.3591 58.5969 72.2167 68.4548 62.8859 73.8435Z" fill="#F7F7F7"/>
</svg>
