<svg xmlns="http://www.w3.org/2000/svg" width="155" height="35" fill="none">
  <path fill="#fff" d="M27.372 0c1.68 0 3.306.601 4.578 1.693a6.92 6.92 0 0 1 2.42 5.247c0 .318 0 .51-2.198 18.442l-.278 2.27c-.21 1.73-.947 3.335-2.077 4.522l-.59.55a6.72 6.72 0 0 1-4.575 1.562c-2.524-.086-4.805-1.567-5.947-3.87l-.013-.025c-.287-.607-.57-1.338-.902-2.183-.962-2.469-2.159-5.54-4.188-7.567-2.03-2.032-5.108-3.234-7.58-4.198-.843-.33-1.572-.614-2.176-.9C1.554 14.4.086 12.134.003 9.623A7.037 7.037 0 0 1 .22 7.65C.913 4.944 3.267 2.892 6.078 2.55L26.524.052c.281-.033.563-.05.846-.05"/>
  <path fill="#0AF" d="M20.783 27.635a4.205 4.205 0 0 0 4.197 4.201 4.216 4.216 0 0 0 4.206-4.201 4.211 4.211 0 0 0-4.206-4.201 4.205 4.205 0 0 0-4.197 4.2Z"/>
  <path fill="#FF4053" d="M23.309 6.775a4.205 4.205 0 0 0 4.197 4.202 4.215 4.215 0 0 0 4.204-4.202 4.212 4.212 0 0 0-4.204-4.2 4.205 4.205 0 0 0-4.197 4.2Z"/>
  <path fill="#23E476" d="M2.45 9.303a4.206 4.206 0 0 0 4.203 4.201 4.206 4.206 0 0 0 4.198-4.201 4.211 4.211 0 0 0-4.198-4.201 4.215 4.215 0 0 0-4.204 4.2Z"/>
  <path fill="#fff" d="M76.257 6.669h-3.053v18.17h3.053V6.669Zm3.325 2.451h7.346V24.84h3.06V9.12h7.346V6.67H79.582V9.12Zm24.128 7.618h11.441v-2.422H103.71V9.092h11.904V6.669H100.65v18.17h15.154v-2.421H103.71v-5.68Zm34.837-10.069h-2.943l-8.968 18.17h3.236l2.143-4.615h10.128l2.113 4.615h3.258l-8.916-18.06-.051-.11Zm2.472 11.133h-7.888s3.64-7.544 3.933-8.292c.294.748 3.955 8.292 3.955 8.292Zm13.026-11.133h-3.053v18.17h3.053V6.669Zm-99.502 0H51.49v18.17h3.053v-8.637l10.89 8.637h4.402l-15.293-12.16v-6.01Zm7.448 6.987 6.986-3.728v-3.26H65.72l-3.728 6.988Z"/>
</svg>
