<svg width="147" height="41" fill="none" xmlns="http://www.w3.org/2000/svg">  <title>Filecoin Foundation Logo</title><path d="M39.161 21.712V7.756h9.978v2.258h-7.347v3.743h6.619v2.258h-6.619v5.697h-2.63Z" fill="currentColor"/><path fill-rule="evenodd" clip-rule="evenodd" d="M51.77 9.36V7h2.469v2.36h-2.47Zm0 12.347V11.006h2.469v10.7h-2.47Z" fill="currentColor"/><path d="M57.376 21.709V7h2.47v14.709h-2.47Z" fill="currentColor"/><path fill-rule="evenodd" clip-rule="evenodd" d="M67.554 21.955c-1.133 0-2.077-.2-2.833-.6-.756-.4-1.323-1.014-1.7-1.841-.378-.828-.567-1.879-.567-3.154 0-1.288.19-2.342.567-3.163.377-.82.944-1.431 1.7-1.831.756-.4 1.7-.6 2.833-.6 1.026 0 1.886.193 2.58.58.696.386 1.219.98 1.57 1.78.35.8.526 1.837.526 3.112v.733h-7.246c.027.664.128 1.224.304 1.678.175.455.448.793.82 1.017.37.224.86.336 1.467.336.31 0 .6-.04.87-.122a1.97 1.97 0 0 0 .708-.377c.203-.169.361-.383.476-.64.114-.258.172-.556.172-.896h2.43c0 .679-.12 1.269-.355 1.77a3.316 3.316 0 0 1-.992 1.241 4.43 4.43 0 0 1-1.487.733 6.644 6.644 0 0 1-1.843.244Zm-2.53-6.735h4.635c0-.447-.05-.827-.152-1.139a2.121 2.121 0 0 0-.424-.773 1.544 1.544 0 0 0-.658-.437 2.665 2.665 0 0 0-.87-.133c-.527 0-.969.088-1.326.265-.358.176-.631.447-.82.814-.189.366-.317.834-.385 1.403Z" fill="currentColor"/><path d="M79.275 21.955c-1.106 0-2.027-.2-2.763-.6-.735-.4-1.285-1.014-1.65-1.841-.363-.828-.546-1.879-.546-3.154 0-1.288.186-2.342.557-3.163.37-.82.924-1.431 1.66-1.831.735-.4 1.65-.6 2.742-.6.715 0 1.35.088 1.903.264a3.844 3.844 0 0 1 1.427.804 3.4 3.4 0 0 1 .9 1.332c.203.529.304 1.147.304 1.851h-2.51c0-.501-.074-.915-.222-1.24a1.58 1.58 0 0 0-.678-.743c-.304-.17-.692-.254-1.164-.254-.554 0-1.006.129-1.356.386-.351.258-.611.641-.78 1.15-.168.508-.253 1.15-.253 1.922v.265c0 .76.085 1.397.253 1.912.169.516.436.899.8 1.15.364.25.843.376 1.437.376.459 0 .84-.085 1.143-.255a1.67 1.67 0 0 0 .699-.762c.162-.34.243-.746.243-1.22h2.388c0 .664-.101 1.26-.304 1.79-.202.529-.499.976-.89 1.342a3.88 3.88 0 0 1-1.427.834c-.56.19-1.198.285-1.913.285Z" fill="currentColor"/><path fill-rule="evenodd" clip-rule="evenodd" d="M91.154 21.955c-1.16 0-2.132-.2-2.915-.6-.782-.4-1.37-1.014-1.76-1.841-.392-.828-.587-1.879-.587-3.154 0-1.288.195-2.342.587-3.163.39-.82.978-1.431 1.76-1.831.783-.4 1.754-.6 2.915-.6 1.174 0 2.148.2 2.924.6.776.4 1.36 1.01 1.751 1.83.391.822.587 1.876.587 3.164 0 1.275-.196 2.326-.587 3.154-.391.827-.975 1.44-1.75 1.84-.777.4-1.751.601-2.925.601Zm0-2.034c.648 0 1.171-.125 1.57-.377.397-.25.687-.63.87-1.139.181-.508.273-1.142.273-1.902v-.285c0-.76-.092-1.393-.273-1.902-.183-.509-.473-.888-.87-1.139-.399-.25-.922-.376-1.57-.376-.647 0-1.17.125-1.568.376-.398.251-.688.63-.87 1.14-.182.508-.274 1.142-.274 1.901v.285c0 .76.092 1.394.274 1.902.182.51.472.889.87 1.14.398.25.921.376 1.569.376ZM99.027 9.36V7h2.47v2.36h-2.47Zm0 12.347V11.006h2.47v10.7h-2.47Z" fill="currentColor"/><path d="M104.634 21.71v-10.7h2.064l.202 1.424h.142c.243-.326.53-.614.86-.865.331-.25.709-.447 1.134-.59a4.406 4.406 0 0 1 1.406-.213c.675 0 1.272.122 1.791.366.52.244.928.638 1.225 1.18.297.542.445 1.268.445 2.176v7.223h-2.489v-6.775c0-.38-.044-.695-.132-.946a1.478 1.478 0 0 0-.384-.61 1.489 1.489 0 0 0-.617-.336 3.03 3.03 0 0 0-.81-.102c-.446 0-.847.11-1.204.326a2.353 2.353 0 0 0-.85.895c-.21.38-.314.821-.314 1.322v6.226h-2.469ZM39.161 40.02V26.064h9.978v2.259h-7.347v3.743h6.619v2.258h-6.619v5.696h-2.63Z" fill="currentColor"/><path fill-rule="evenodd" clip-rule="evenodd" d="M55.9 40.266c-1.16 0-2.131-.2-2.914-.6-.782-.4-1.37-1.015-1.76-1.842-.392-.827-.587-1.878-.587-3.153 0-1.289.195-2.343.586-3.164.392-.82.979-1.43 1.761-1.83.783-.4 1.754-.6 2.915-.6 1.174 0 2.148.2 2.924.6.776.4 1.36 1.01 1.751 1.83.391.821.587 1.875.587 3.164 0 1.275-.196 2.326-.587 3.153-.392.827-.975 1.442-1.75 1.841-.776.4-1.751.6-2.925.6Zm.002-2.034c.647 0 1.17-.126 1.568-.377.398-.25.688-.63.87-1.14.182-.508.273-1.142.273-1.901v-.285c0-.76-.09-1.394-.273-1.902-.182-.509-.472-.888-.87-1.14-.398-.25-.92-.376-1.568-.376s-1.171.126-1.569.376c-.398.252-.688.631-.87 1.14-.183.508-.273 1.142-.273 1.902v.285c0 .76.09 1.393.273 1.902.182.508.472.888.87 1.139s.92.377 1.569.377Z" fill="currentColor"/><path d="M67.151 40.264c-1.025 0-1.858-.282-2.5-.845-.64-.562-.96-1.522-.96-2.878v-7.223h2.468v6.775c0 .38.044.695.132.946.088.251.216.454.385.61.168.157.374.268.617.336s.513.102.81.102a2.277 2.277 0 0 0 2.054-1.23c.209-.387.314-.825.314-1.313v-6.226h2.469V40.02h-2.044l-.203-1.424h-.141c-.243.326-.53.614-.86.865-.331.251-.709.448-1.134.59a4.417 4.417 0 0 1-1.407.214ZM76.077 40.02V29.317h2.065l.202 1.424h.142c.242-.325.529-.613.86-.864.33-.251.708-.448 1.133-.59a4.406 4.406 0 0 1 1.407-.214c.675 0 1.272.122 1.791.366.52.245.928.638 1.225 1.18.296.543.445 1.269.445 2.177v7.222h-2.49v-6.774c0-.38-.043-.695-.131-.946a1.483 1.483 0 0 0-.384-.61 1.487 1.487 0 0 0-.618-.336 3.016 3.016 0 0 0-.81-.102c-.445 0-.846.109-1.204.325a2.356 2.356 0 0 0-.85.896c-.209.38-.313.82-.313 1.322v6.225h-2.47Z" fill="currentColor"/><path fill-rule="evenodd" clip-rule="evenodd" d="M92.105 40.267c-.864 0-1.613-.197-2.247-.59-.634-.393-1.123-1.003-1.467-1.83-.344-.828-.516-1.893-.516-3.195 0-1.288.175-2.343.526-3.163.35-.82.837-1.428 1.457-1.821.62-.393 1.323-.59 2.105-.59.486 0 .931.054 1.336.163.405.108.762.274 1.073.498.31.224.573.499.79.824h.12v-5.248h2.47v14.708h-2.044l-.203-1.424h-.141a3.205 3.205 0 0 1-1.366 1.251 4.287 4.287 0 0 1-1.893.417Zm.77-2.137c.567 0 1.025-.129 1.376-.387.35-.257.61-.63.78-1.119.168-.488.252-1.085.252-1.79v-.264c0-.53-.047-1.004-.142-1.424a3.035 3.035 0 0 0-.434-1.059 1.932 1.932 0 0 0-.75-.65c-.303-.15-.664-.224-1.082-.224-.608 0-1.09.119-1.448.356-.357.237-.614.604-.769 1.098-.155.496-.232 1.123-.232 1.882v.285c0 .746.077 1.363.233 1.851.154.489.41.852.768 1.089.358.237.84.356 1.448.356ZM103.622 40.266c-.296 0-.637-.038-1.021-.112a3.635 3.635 0 0 1-1.113-.418 2.356 2.356 0 0 1-.881-.905c-.23-.4-.344-.926-.344-1.577 0-.732.162-1.338.486-1.82.323-.482.779-.862 1.366-1.14.587-.278 1.288-.474 2.105-.59.816-.115 1.71-.173 2.682-.173v-.874c0-.312-.048-.59-.142-.834a1.134 1.134 0 0 0-.516-.58c-.25-.143-.625-.214-1.124-.214-.499 0-.89.06-1.174.183-.283.122-.479.272-.586.448a1.03 1.03 0 0 0-.163.549v.285h-2.388a1.076 1.076 0 0 1-.02-.203v-.245c0-.61.182-1.139.547-1.587.364-.447.87-.79 1.518-1.027.647-.237 1.396-.356 2.246-.356.971 0 1.771.136 2.399.407.627.271 1.096.658 1.406 1.16.31.501.466 1.112.466 1.83v5.046c0 .258.074.44.222.55.149.108.31.162.486.162h.648v1.709a6.707 6.707 0 0 1-.587.193 3.474 3.474 0 0 1-.952.112c-.351 0-.664-.058-.941-.173a1.848 1.848 0 0 1-.698-.498 1.927 1.927 0 0 1-.405-.773h-.121c-.23.284-.503.539-.82.762a3.665 3.665 0 0 1-1.113.52 5.337 5.337 0 0 1-1.468.183Zm.75-2.037c.405 0 .765-.06 1.083-.183.316-.122.58-.292.789-.509.209-.216.371-.48.486-.793.114-.312.172-.65.172-1.017v-.489c-.742 0-1.427.048-2.054.143-.628.095-1.128.271-1.498.529-.372.258-.557.624-.557 1.099 0 .243.057.457.172.64.115.183.29.326.526.428.236.101.53.152.881.152Z" fill="currentColor"/><path d="M115.462 40.262c-.661 0-1.18-.132-1.558-.397a2.135 2.135 0 0 1-.8-1.017 3.597 3.597 0 0 1-.233-1.272v-6.225h-1.274v-2.034h1.335l.445-2.99h1.964v2.99h1.842v2.034h-1.842v5.981c0 .285.074.506.223.661.148.157.37.235.668.235h.951v1.708a3.76 3.76 0 0 1-.496.153 7.68 7.68 0 0 1-.618.122c-.215.034-.418.051-.607.051Z" fill="currentColor"/><path fill-rule="evenodd" clip-rule="evenodd" d="M119.51 27.674v-2.36h2.469v2.36h-2.469Zm0 12.347v-10.7h2.469v10.7h-2.469ZM129.852 40.266c-1.161 0-2.132-.2-2.914-.6-.783-.4-1.37-1.015-1.761-1.842-.392-.827-.587-1.878-.587-3.153 0-1.289.195-2.343.587-3.164.391-.82.978-1.43 1.761-1.83.782-.4 1.753-.6 2.914-.6 1.174 0 2.149.2 2.925.6.776.4 1.359 1.01 1.75 1.83.392.821.587 1.875.587 3.164 0 1.275-.195 2.326-.587 3.153-.391.827-.974 1.442-1.75 1.841-.776.4-1.751.6-2.925.6Zm.001-2.034c.647 0 1.17-.126 1.568-.377.398-.25.689-.63.871-1.14.182-.508.273-1.142.273-1.901v-.285c0-.76-.091-1.394-.273-1.902-.182-.509-.473-.888-.871-1.14-.398-.25-.921-.376-1.568-.376-.648 0-1.171.126-1.569.376-.398.252-.688.631-.87 1.14-.182.508-.273 1.142-.273 1.902v.285c0 .76.091 1.393.273 1.902.182.508.472.888.87 1.139s.921.377 1.569.377Z" fill="currentColor"/><path d="M137.724 40.02V29.317h2.064l.203 1.424h.141c.243-.325.529-.613.86-.864.331-.251.709-.448 1.134-.59a4.403 4.403 0 0 1 1.407-.214c.674 0 1.271.122 1.791.366.519.245.927.638 1.224 1.18.297.543.445 1.269.445 2.177v7.222h-2.489v-6.774c0-.38-.044-.695-.132-.946a1.488 1.488 0 0 0-.384-.61 1.486 1.486 0 0 0-.618-.336 3.011 3.011 0 0 0-.809-.102c-.445 0-.847.109-1.204.325a2.362 2.362 0 0 0-.851.896c-.208.38-.313.82-.313 1.322v6.225h-2.469ZM23.47 0c-.662 0-2.693 0-5.14 2.33-2.281 2.175-3.547 6.03-3.881 7.164l-.02.07-.252.84c-2.172.018-3.898.68-4.509 1.03-1.994.993-5.653 4.189-5.232 9.185.418 4.96 3.877 7.542 5.689 8.235-.301 1.375-.675 2.725-1.073 4.156l-.11.393a19.38 19.38 0 0 1-1.255 3.166c-.645 1.289-1.816 1.799-2.346 1.89-.601.124-1.08.063-1.41-.173a1.125 1.125 0 0 1-.442-.771c-.154-1.265-.94-1.938-1.399-2.065-.612-.158-1.116-.089-1.497.206A1.654 1.654 0 0 0 0 36.9C0 39.325 2.962 39.987 4.524 40c.663 0 2.693 0 5.14-2.33 2.272-2.165 3.677-6.172 4.114-8.025 5.297-.045 8.125-3.501 8.882-5.32.576-1.038 1.435-3.88.535-7.221-.888-3.312-3.886-5.278-5.39-5.875l.442-1.663.01-.042c.22-.85.456-1.708.686-2.535l.11-.393c.325-1.09.745-2.15 1.255-3.166.646-1.289 1.817-1.799 2.346-1.89.603-.12 1.076-.059 1.409.181a1.124 1.124 0 0 1 .448.772c.155 1.265.94 1.937 1.399 2.065.612.158 1.116.088 1.497-.206A1.654 1.654 0 0 0 28 3.107C27.997.674 25.035.01 23.47 0Zm-9.872 12.808-2.951 13.62C8.77 25.493 5.728 22.5 7.195 17.59c.406-1.478 2.267-4.365 6.403-4.783Zm7.536 8.626c-.971 4.595-4.712 5.782-6.7 5.782h-.101l2.98-13.723c3.973 2.318 4.239 6.202 3.82 7.94Z" fill="currentColor"/></svg>
