<svg width="2000" height="1000" viewBox="0 0 2000 1000" fill="none" xmlns="http://www.w3.org/2000/svg">
<path fill-rule="evenodd" clip-rule="evenodd" d="M999.813 516.472C980.057 516.468 960.914 509.611 945.65 497.07C930.385 484.528 919.945 467.079 916.109 447.7C912.273 428.32 915.279 408.209 924.615 390.799C933.951 373.388 949.038 359.755 967.303 352.226C985.567 344.697 1005.88 343.738 1024.77 349.512C1043.66 355.286 1059.97 367.436 1070.9 383.889C1081.84 400.343 1086.73 420.08 1084.74 439.735C1082.74 459.39 1073.99 477.745 1059.98 491.67C1043.97 507.539 1022.35 516.451 999.813 516.472Z" fill="#0090FF"/>
<path fill-rule="evenodd" clip-rule="evenodd" d="M1007.63 421.287L1029.88 424.415C1030.5 422.169 1031.04 420.231 1031.66 418.038L1008.62 414.615C1011.22 405.256 1013.6 396.177 1016.39 387.353C1017.53 384.382 1019.29 381.692 1021.56 379.464C1022.16 378.793 1022.9 378.274 1023.74 377.951C1024.57 377.628 1025.47 377.509 1026.36 377.606C1027.26 377.697 1028.11 377.999 1028.86 378.488C1029.62 378.97 1030.24 379.625 1030.68 380.4C1031.63 381.815 1032.69 383.156 1033.84 384.411C1034.47 385.196 1035.37 385.71 1036.36 385.849C1037.36 385.989 1038.37 385.742 1039.19 385.16C1040.19 384.197 1040.16 381.978 1040.24 380.293C1040.24 379.625 1039.49 378.822 1038.91 378.207C1037.64 376.859 1036.11 375.785 1034.41 375.052C1032.72 374.318 1030.89 373.94 1029.04 373.942C1020.49 373.568 1014.33 377.953 1009.58 384.518C1004.84 391.083 1002.73 398.691 1000.45 406.258C999.784 408.491 999.209 410.711 998.567 413.144L974.1 409.601C973.819 411.821 973.525 413.893 973.244 416.112L997.137 419.789C996.081 424.322 995.078 428.56 994.035 432.879L971.198 429.697C970.891 432.13 970.663 433.962 970.369 436.115L992.578 439.471C992.631 440.058 992.631 440.648 992.578 441.235C990.251 451.183 988.085 461.291 985.438 471.105C984.414 476.001 981.874 480.45 978.178 483.82C977.558 484.471 976.793 484.966 975.945 485.264C974.666 485.723 973.268 485.718 971.993 485.251C970.717 484.785 969.646 483.886 968.965 482.71C968.045 481.074 966.887 479.582 965.529 478.285C964.473 477.509 962.12 477.055 961.344 477.67C960.737 478.251 960.254 478.951 959.928 479.726C959.601 480.501 959.437 481.335 959.446 482.176C959.792 483.734 960.72 485.102 962.039 486C963.937 487.394 966.122 488.349 968.434 488.795C970.747 489.242 973.129 489.168 975.41 488.58C979.133 487.851 982.627 486.238 985.596 483.876C988.565 481.514 990.923 478.473 992.471 475.009C995.11 469.382 997.344 463.573 999.156 457.628C1000.92 452.279 1002.11 446.784 1003.58 441.182L1026.86 444.565C1027.5 442.345 1028.08 440.3 1028.69 438.12L1004.82 434.604C1005.83 429.897 1006.7 425.793 1007.63 421.287Z" fill="white"/>
<mask id="mask0_1285_1245" style="mask-type:alpha" maskUnits="userSpaceOnUse" x="787" y="357" width="132" height="148">
<path fill-rule="evenodd" clip-rule="evenodd" d="M912.89 466.801C907.418 453.6 905.04 439.322 905.936 425.06C906.833 410.798 910.982 396.93 918.064 384.519C908.68 373.013 896.034 364.617 881.788 360.436C867.541 356.254 852.363 356.483 838.25 361.092C824.136 365.7 811.748 374.473 802.715 386.256C793.682 398.039 788.427 412.281 787.642 427.107C786.857 441.934 790.578 456.65 798.316 469.322C806.054 481.993 817.446 492.025 830.994 498.099C844.542 504.173 859.611 506.003 874.219 503.35C888.827 500.696 902.29 493.683 912.836 483.233C914.693 481.382 916.447 479.431 918.091 477.39C916.139 473.972 914.402 470.435 912.89 466.801V466.801Z" fill="white"/>
</mask>
<g mask="url(#mask0_1285_1245)">
<mask id="mask1_1285_1245" style="mask-type:alpha" maskUnits="userSpaceOnUse" x="787" y="357" width="132" height="148">
<path fill-rule="evenodd" clip-rule="evenodd" d="M912.89 466.687C907.418 453.486 905.04 439.208 905.936 424.947C906.833 410.685 910.982 396.817 918.064 384.406C908.68 372.9 896.034 364.504 881.788 360.323C867.541 356.141 852.363 356.37 838.25 360.978C824.136 365.587 811.748 374.36 802.715 386.143C793.682 397.926 788.427 412.168 787.642 426.994C786.857 441.82 790.578 456.537 798.316 469.208C806.054 481.88 817.446 491.912 830.994 497.986C844.542 504.059 859.611 505.89 874.219 503.236C888.827 500.583 902.29 493.57 912.836 483.119C914.693 481.269 916.447 479.318 918.091 477.277C916.139 473.858 914.402 470.322 912.89 466.687V466.687Z" fill="white"/>
</mask>
<g mask="url(#mask1_1285_1245)">
</g>
<g clip-path="url(#clip0_1285_1245)">
<path d="M861.21 504.421C901.883 504.421 934.854 471.449 934.854 430.777C934.854 390.104 901.883 357.133 861.21 357.133C820.538 357.133 787.566 390.104 787.566 430.777C787.566 471.449 820.538 504.421 861.21 504.421Z" fill="#008F79"/>
<g clip-path="url(#clip1_1285_1245)">
<path d="M858.993 459.19C858.983 460.513 858.467 461.569 857.172 461.568C855.802 461.568 854.252 458.903 850.409 457.072C846.974 455.436 843.61 454.7 840.563 454.694C836.798 454.688 830.449 456.511 824.437 456.589C818.766 456.664 813.637 453.962 810.392 450.421C807.97 447.779 806.288 443.59 806.305 439.795C806.326 435.01 808.179 430.319 812.399 426.79C815.47 424.221 819.019 423.162 823.137 423.149C829.305 423.129 835.514 426.302 839.448 429.428C845.219 434.013 850.523 440.105 854.2 446.706C856.292 450.463 859.01 456.739 858.993 459.19L858.993 459.19Z" fill="white"/>
<path d="M864.082 459.19C864.091 460.513 864.607 461.569 865.902 461.568C867.272 461.568 868.822 458.903 872.665 457.072C876.1 455.436 879.464 454.7 882.511 454.694C886.276 454.688 892.625 456.511 898.637 456.589C904.308 456.664 909.437 453.962 912.682 450.421C915.104 447.779 916.786 443.59 916.769 439.795C916.748 435.01 914.895 430.319 910.676 426.79C907.604 424.221 904.056 423.162 899.938 423.149C893.769 423.129 887.56 426.302 883.626 429.428C877.855 434.013 872.551 440.105 868.875 446.706C866.782 450.463 864.064 456.739 864.081 459.19L864.082 459.19Z" fill="white"/>
<path opacity="0.99" d="M872.294 394.688C877.284 394.659 880.782 396.603 883.679 399.444C886.8 402.505 888.322 406.522 888.345 411.074C888.367 415.464 886.846 418.605 885.134 420.973C882.338 424.841 879.126 427.333 875.832 430.358C870.501 435.256 867.193 439.618 864.416 445.072C863.731 446.418 863.143 448.423 861.536 448.423C859.929 448.423 859.341 446.418 858.656 445.072C855.879 439.618 852.57 435.256 847.239 430.358C843.946 427.333 840.734 424.841 837.938 420.973C836.226 418.605 834.705 415.464 834.727 411.074C834.75 406.522 836.272 402.505 839.393 399.444C842.29 396.603 845.788 394.659 850.778 394.688C855.928 394.718 859.199 396.497 861.536 399.481C863.873 396.497 867.144 394.717 872.294 394.688Z" fill="white"/>
<path d="M865.572 401.488C867.287 400.224 869.498 399.41 871.628 399.444C874.696 399.494 877.581 400.485 879.654 402.491C881.956 404.719 883.503 407.686 883.407 411.372C883.275 416.443 880.53 419.141 876.719 423.039C874.117 425.7 871.646 427.08 867.875 431.288C866.398 432.937 863.425 437.149 861.539 441.098C859.654 437.149 856.681 432.936 855.204 431.288C851.433 427.08 848.962 425.7 846.36 423.039C842.549 419.141 839.804 416.443 839.672 411.372C839.576 407.686 841.122 404.719 843.425 402.491C845.498 400.485 848.383 399.494 851.451 399.444C853.581 399.41 855.792 400.224 857.507 401.488C859.246 402.769 860.463 404.391 861.539 406.541C862.616 404.391 863.832 402.769 865.572 401.488Z" fill="white"/>
</g>
<g clip-path="url(#clip2_1285_1245)">
<path d="M861.101 504.312C901.714 504.312 934.636 471.389 934.636 430.777C934.636 390.165 901.714 357.242 861.101 357.242C820.489 357.242 787.566 390.165 787.566 430.777C787.566 471.389 820.489 504.312 861.101 504.312Z" fill="#B8342E"/>
<path fill-rule="evenodd" clip-rule="evenodd" d="M849.242 432.988C849.242 429.94 849.712 427.269 850.342 424.894C843.826 425.495 838.86 425.292 831.569 424.351V422.266C831.569 420.377 832.771 418.284 835.095 415.96C835.32 415.736 835.443 415.425 835.443 415.113V410.943C835.443 409.531 836.159 408.076 837.187 406.454C837.441 406.063 837.701 405.665 837.969 405.267C837.991 405.238 838.006 405.209 838.027 405.187C838.273 404.811 838.527 404.435 838.766 404.058C839.28 403.262 839.779 402.415 840.127 401.56C840.185 401.416 840.214 401.264 840.214 401.111V397.39H846.469V401.111C846.469 401.264 846.498 401.416 846.556 401.56C846.903 402.415 847.403 403.262 847.917 404.058C848.156 404.435 848.409 404.811 848.655 405.187L848.713 405.267C848.981 405.665 849.242 406.063 849.495 406.454C850.523 408.076 851.233 409.531 851.233 410.943V415.113C851.233 415.432 851.363 415.736 851.587 415.96C852.036 416.402 852.442 416.844 852.796 417.271C853.18 416.04 853.462 414.889 853.622 413.738V410.943C853.622 408.786 852.55 406.824 851.508 405.18C851.233 404.753 850.958 404.34 850.69 403.942L850.639 403.863C850.393 403.486 850.147 403.124 849.922 402.769C849.481 402.082 849.111 401.459 848.851 400.873V396.688L849.249 396.297C849.473 396.073 849.596 395.769 849.596 395.45C849.596 394.798 849.408 393.966 849.22 393.285C849.169 393.104 849.119 392.923 849.061 392.75C849.307 392.532 849.452 392.214 849.452 391.874C849.452 389.6 848.351 388.268 847.294 387.913C847.171 387.877 847.041 387.855 846.918 387.855H839.765C839.634 387.855 839.511 387.877 839.388 387.913C838.331 388.268 837.231 389.6 837.231 391.874C837.231 392.214 837.376 392.532 837.615 392.75C837.564 392.923 837.513 393.104 837.463 393.285C837.274 393.966 837.086 394.798 837.086 395.45C837.086 395.769 837.209 396.073 837.434 396.297L837.832 396.688V400.873C837.571 401.459 837.202 402.082 836.76 402.769C836.536 403.124 836.29 403.486 836.044 403.863C836.022 403.892 836.007 403.913 835.986 403.942C835.725 404.34 835.443 404.753 835.175 405.18C834.125 406.824 833.061 408.786 833.061 410.943V414.628C830.802 416.974 829.188 419.529 829.188 422.266V454.483C829.238 455.888 830.375 457.343 832.511 458.4C834.69 459.471 838.114 460.253 843.341 460.253C848.568 460.253 851.993 459.471 854.172 458.4C856.308 457.343 857.444 455.888 857.495 454.483V449.003C852.738 445.824 849.242 440.525 849.242 432.988ZM839.758 393.922C839.83 393.662 839.91 393.416 839.982 393.177C840.069 393.191 840.163 393.206 840.264 393.206C840.576 393.213 840.836 393.126 841.039 393.025C841.234 393.112 841.481 393.184 841.77 393.184C842.06 393.184 842.32 393.104 842.516 393.017C842.719 393.112 842.979 393.206 843.298 393.213C843.631 393.227 843.928 393.141 844.174 393.025C844.369 393.104 844.615 393.184 844.912 393.184C845.209 393.184 845.441 393.112 845.636 393.025C845.846 393.126 846.107 393.213 846.418 393.206C846.512 393.206 846.614 393.191 846.701 393.177C846.773 393.416 846.853 393.662 846.925 393.922C847.034 394.335 847.12 394.712 847.164 395.001H839.511C839.562 394.712 839.649 394.335 839.758 393.922ZM855.106 454.411C855.091 454.577 854.852 455.403 853.122 456.257C851.392 457.111 848.366 457.871 843.341 457.871C838.317 457.871 835.291 457.111 833.56 456.257C831.83 455.403 831.584 454.577 831.569 454.411V453.122C835.993 454.165 839.649 454.744 843.334 454.773C847.012 454.802 850.675 454.28 855.106 453.158V454.411Z" fill="white"/>
<path fill-rule="evenodd" clip-rule="evenodd" d="M885.522 402.794C885.368 402.294 884.906 401.953 884.383 401.953H854.956C854.433 401.953 853.971 402.294 853.817 402.794C853.663 403.293 853.853 403.835 854.285 404.13C854.285 404.13 854.296 404.137 854.319 404.157C854.341 404.177 854.37 404.205 854.406 404.244C854.479 404.322 854.57 404.434 854.674 404.587C854.881 404.893 855.125 405.343 855.357 405.967C855.822 407.213 856.234 409.127 856.234 411.892C856.234 414.429 855.631 416.719 854.836 419.141C854.643 419.728 854.438 420.324 854.228 420.932C853.036 424.396 851.707 428.257 851.707 433.19C851.707 442.95 858.219 448.474 865.377 450.111C865.555 450.282 865.698 450.464 865.822 450.688C865.997 451.004 866.164 451.457 866.297 452.172C866.554 453.55 866.654 455.712 866.583 459.34L865.828 459.771C865.457 459.983 865.228 460.378 865.228 460.806V461.065L864.621 461.215C863.71 461.442 862.493 461.753 861.274 462.084C860.06 462.415 858.822 462.773 857.879 463.095C857.414 463.254 856.983 463.416 856.654 463.575C856.496 463.651 856.308 463.75 856.143 463.875C856.062 463.937 855.943 464.037 855.834 464.179C855.732 464.314 855.563 464.587 855.563 464.968C855.563 465.191 855.578 465.722 856.022 466.289C856.42 466.797 857.064 467.208 857.996 467.544C859.846 468.209 863.31 468.744 869.912 468.744C876.515 468.744 879.979 468.209 881.829 467.544C882.761 467.208 883.405 466.797 883.803 466.289C884.247 465.722 884.262 465.191 884.262 464.968C884.262 464.587 884.093 464.314 883.991 464.179C883.882 464.037 883.763 463.937 883.681 463.875C883.516 463.75 883.329 463.651 883.171 463.575C882.842 463.416 882.411 463.254 881.946 463.095C881.003 462.773 879.765 462.415 878.551 462.084C877.332 461.753 876.114 461.442 875.204 461.215L874.597 461.065V460.806C874.597 460.378 874.368 459.983 873.997 459.771L873.243 459.34C873.174 455.718 873.302 453.549 873.584 452.164C873.828 450.963 874.17 450.43 874.581 450.042C882.016 448.05 887.858 441.269 887.858 433.185C887.858 428.25 886.523 424.39 885.325 420.927C885.115 420.32 884.91 419.726 884.716 419.14C883.917 416.718 883.311 414.429 883.311 411.891C883.311 409.11 883.676 407.185 884.098 405.93C884.309 405.302 884.531 404.854 884.72 404.552C884.815 404.402 884.897 404.295 884.961 404.223C885.022 404.154 885.055 404.129 885.055 404.129C885.487 403.834 885.676 403.293 885.522 402.794ZM871.248 451.689C871.331 451.279 871.429 450.91 871.541 450.576C871.055 450.618 870.564 450.639 870.071 450.639C869.499 450.639 868.924 450.616 868.35 450.569C868.465 450.923 868.561 451.31 868.64 451.735C868.952 453.407 868.951 457.041 868.951 459.771L868.951 460.069C868.951 462.827 867.403 462.675 867.403 462.675C867.24 462.913 866.992 463.091 866.695 463.161L866.589 463.187L866.285 463.261C866.023 463.324 865.648 463.416 865.198 463.528C864.296 463.752 863.097 464.058 861.9 464.384C860.766 464.693 859.655 465.016 858.803 465.301C860.242 465.819 863.357 466.361 869.912 466.361C876.468 466.361 879.586 465.818 881.025 465.299C880.173 465.015 879.059 464.693 877.925 464.384C876.728 464.058 875.529 463.752 874.627 463.528C874.177 463.416 873.802 463.324 873.54 463.261L873.236 463.187L873.13 463.161C872.833 463.091 872.585 462.913 872.422 462.675C872.422 462.675 870.874 462.855 870.874 460.069C870.874 457.283 870.891 453.443 871.248 451.689ZM882.156 404.337C882.045 404.596 881.938 404.874 881.839 405.17C881.318 406.719 880.928 408.91 880.928 411.891C880.928 414.208 881.369 416.308 881.961 418.322H857.589C858.179 416.308 858.617 414.208 858.617 411.892C858.617 408.895 858.172 406.692 857.59 405.134C857.485 404.85 857.373 404.584 857.257 404.337H882.156Z" fill="white"/>
<path fill-rule="evenodd" clip-rule="evenodd" d="M885.522 402.794C885.368 402.294 884.906 401.953 884.383 401.953H854.956C854.433 401.953 853.971 402.294 853.817 402.794C853.663 403.293 853.853 403.835 854.285 404.13C854.285 404.13 854.296 404.137 854.319 404.157C854.341 404.177 854.37 404.205 854.406 404.244C854.479 404.322 854.57 404.434 854.674 404.587C854.881 404.893 855.125 405.343 855.357 405.967C855.822 407.213 856.234 409.127 856.234 411.892C856.234 414.429 855.631 416.719 854.836 419.141C854.643 419.728 854.438 420.324 854.228 420.932C853.036 424.396 851.707 428.257 851.707 433.19C851.707 442.95 858.219 448.474 865.377 450.111C865.555 450.282 865.698 450.464 865.822 450.688C865.997 451.004 866.164 451.457 866.297 452.172C866.554 453.55 866.654 455.712 866.583 459.34L865.828 459.771C865.457 459.983 865.228 460.378 865.228 460.806V461.065L864.621 461.215C863.71 461.442 862.493 461.753 861.274 462.084C860.06 462.415 858.822 462.773 857.879 463.095C857.414 463.254 856.983 463.416 856.654 463.575C856.496 463.651 856.308 463.75 856.143 463.875C856.062 463.937 855.943 464.037 855.834 464.179C855.732 464.314 855.563 464.587 855.563 464.968C855.563 465.191 855.578 465.722 856.022 466.289C856.42 466.797 857.064 467.208 857.996 467.544C859.846 468.209 863.31 468.744 869.912 468.744C876.515 468.744 879.979 468.209 881.829 467.544C882.761 467.208 883.405 466.797 883.803 466.289C884.247 465.722 884.262 465.191 884.262 464.968C884.262 464.587 884.093 464.314 883.991 464.179C883.882 464.037 883.763 463.937 883.681 463.875C883.516 463.75 883.329 463.651 883.171 463.575C882.842 463.416 882.411 463.254 881.946 463.095C881.003 462.773 879.765 462.415 878.551 462.084C877.332 461.753 876.114 461.442 875.204 461.215L874.597 461.065V460.806C874.597 460.378 874.368 459.983 873.997 459.771L873.243 459.34C873.174 455.718 873.302 453.549 873.584 452.164C873.828 450.963 874.17 450.43 874.581 450.042C882.016 448.05 887.858 441.269 887.858 433.185C887.858 428.25 886.523 424.39 885.325 420.927C885.115 420.32 884.91 419.726 884.716 419.14C883.917 416.718 883.311 414.429 883.311 411.891C883.311 409.11 883.676 407.185 884.098 405.93C884.309 405.302 884.531 404.854 884.72 404.552C884.815 404.402 884.897 404.295 884.961 404.223C885.022 404.154 885.055 404.129 885.055 404.129C885.487 403.834 885.676 403.293 885.522 402.794ZM871.248 451.689C871.331 451.279 871.429 450.91 871.541 450.576C871.055 450.618 870.564 450.639 870.071 450.639C869.499 450.639 868.924 450.616 868.35 450.569C868.465 450.923 868.561 451.31 868.64 451.735C868.952 453.407 868.951 457.041 868.951 459.771L868.951 460.069C868.951 462.827 867.403 462.675 867.403 462.675C867.24 462.913 866.992 463.091 866.695 463.161L866.589 463.187L866.285 463.261C866.023 463.324 865.648 463.416 865.198 463.528C864.296 463.752 863.097 464.058 861.9 464.384C860.766 464.693 859.655 465.016 858.803 465.301C860.242 465.819 863.357 466.361 869.912 466.361C876.468 466.361 879.586 465.818 881.025 465.299C880.173 465.015 879.059 464.693 877.925 464.384C876.728 464.058 875.529 463.752 874.627 463.528C874.177 463.416 873.802 463.324 873.54 463.261L873.236 463.187L873.13 463.161C872.833 463.091 872.585 462.913 872.422 462.675C872.422 462.675 870.874 462.855 870.874 460.069C870.874 457.283 870.891 453.443 871.248 451.689ZM882.156 404.337C882.045 404.596 881.938 404.874 881.839 405.17C881.318 406.719 880.928 408.91 880.928 411.891C880.928 414.208 881.369 416.308 881.961 418.322H857.589C858.179 416.308 858.617 414.208 858.617 411.892C858.617 408.895 858.172 406.692 857.59 405.134C857.485 404.85 857.373 404.584 857.257 404.337H882.156Z" fill="white"/>
</g>
</g>
</g>
<mask id="mask2_1285_1245" style="mask-type:alpha" maskUnits="userSpaceOnUse" x="1081" y="357" width="131" height="148">
<path fill-rule="evenodd" clip-rule="evenodd" d="M1199.9 390.442C1193.9 381.319 1185.95 373.644 1176.62 367.971C1167.29 362.298 1156.82 358.769 1145.96 357.641C1135.1 356.512 1124.12 357.812 1113.83 361.445C1103.53 365.078 1094.17 370.955 1086.43 378.649C1084.56 380.503 1082.8 382.454 1081.14 384.492C1089.19 398.648 1093.42 414.652 1093.42 430.934C1093.42 447.217 1089.19 463.221 1081.14 477.377C1093.09 491.934 1110.16 501.362 1128.85 503.724C1147.53 506.086 1166.41 501.203 1181.61 490.077C1196.81 478.952 1207.16 462.429 1210.55 443.903C1213.95 425.378 1210.12 406.257 1199.85 390.469L1199.9 390.442Z" fill="white"/>
</mask>
<g mask="url(#mask2_1285_1245)">
<mask id="mask3_1285_1245" style="mask-type:alpha" maskUnits="userSpaceOnUse" x="1081" y="357" width="131" height="148">
<path fill-rule="evenodd" clip-rule="evenodd" d="M1199.9 390.329C1193.9 381.206 1185.95 373.53 1176.62 367.857C1167.29 362.184 1156.82 358.656 1145.96 357.527C1135.1 356.399 1124.12 357.698 1113.83 361.332C1103.53 364.965 1094.17 370.842 1086.43 378.536C1084.56 380.39 1082.8 382.34 1081.14 384.379C1089.19 398.535 1093.42 414.538 1093.42 430.821C1093.42 447.104 1089.19 463.108 1081.14 477.263C1093.09 491.821 1110.16 501.249 1128.85 503.611C1147.53 505.973 1166.41 501.09 1181.61 489.964C1196.81 478.838 1207.16 462.315 1210.55 443.79C1213.95 425.265 1210.12 406.144 1199.85 390.356L1199.9 390.329Z" fill="white"/>
</mask>
<g mask="url(#mask3_1285_1245)">
</g>
<g clip-path="url(#clip3_1285_1245)">
<path d="M1137.94 504.421C1178.62 504.421 1211.59 471.449 1211.59 430.777C1211.59 390.104 1178.62 357.133 1137.94 357.133C1097.27 357.133 1064.3 390.104 1064.3 430.777C1064.3 471.449 1097.27 504.421 1137.94 504.421Z" fill="#F5D90A"/>
<g clip-path="url(#clip4_1285_1245)">
<path d="M1164.05 387.466C1163.89 387.466 1163.73 387.47 1163.56 387.477C1161.46 387.537 1160.86 387.698 1158.94 388.687C1157.18 389.597 1156.03 390.653 1154.72 392.571C1153.53 394.312 1152.7 396.589 1152.46 398.723C1152.09 402.086 1151.5 405.101 1150.92 406.55C1150.57 407.438 1149.62 408.741 1149.08 409.093C1148.87 409.228 1148.71 409.389 1148.74 409.46C1148.79 409.629 1149.62 409.767 1150.14 409.692C1150.86 409.587 1151.99 409.104 1152.79 408.565C1153.38 408.168 1153.51 408.176 1153.42 408.61C1153.18 409.756 1153.12 410.276 1153.09 411.685C1153.06 413.52 1153.2 414.224 1153.91 415.647C1154.31 416.444 1155.12 417.538 1155.23 417.426C1155.25 417.399 1155.2 417.104 1155.12 416.763C1154.77 415.396 1154.72 414.684 1154.9 413.478C1155.2 411.314 1155.73 409.771 1156.91 407.633C1157.18 407.138 1157.54 406.472 1157.69 406.153C1157.85 405.835 1158.18 405.251 1158.4 404.854C1159.06 403.73 1159.11 403.903 1159.03 407.183C1159 408.681 1158.93 410.119 1158.87 410.381C1158.81 410.644 1158.79 410.88 1158.82 410.906C1158.89 410.981 1159.33 410.408 1159.81 409.625C1160.61 408.292 1161.41 406.329 1161.55 405.356C1161.6 405.067 1161.68 404.712 1161.73 404.569C1161.82 404.348 1161.84 402.356 1161.78 400.873C1161.76 400.514 1161.77 400.502 1162.13 400.532C1162.53 400.566 1164.12 400.274 1164.3 400.135C1164.36 400.09 1164.56 400.004 1164.74 399.941C1165.36 399.735 1166.79 398.619 1166.79 398.345C1166.79 398.282 1166.66 398.225 1166.52 398.225C1165.84 398.225 1164.96 397.536 1164.77 396.858C1164.71 396.634 1164.7 396.184 1164.73 395.866C1164.83 395.027 1165.4 394.406 1166.4 394.05C1168.23 393.394 1169.66 394.05 1170.56 395.956C1170.94 396.754 1170.96 396.855 1170.95 397.802C1170.93 399.884 1170.45 400.933 1168.1 404.004C1167.76 404.461 1167.33 405.045 1167.15 405.307C1166.98 405.569 1166.81 405.809 1166.77 405.835C1166.74 405.865 1166.41 406.341 1166.03 406.895C1165.66 407.445 1165 408.408 1164.56 409.029C1162.3 412.261 1161.6 413.917 1160.85 417.834C1160.61 419.1 1160.6 419.864 1160.81 421.039C1161.31 423.904 1162.79 426.29 1166.58 430.357C1168.29 432.203 1169.56 433.93 1170.25 435.375C1170.57 436.03 1170.61 436.218 1170.62 436.997C1170.62 437.97 1170.53 438.165 1169.82 438.742C1169.28 439.18 1168.65 439.221 1167.61 438.888C1166.31 438.472 1165.46 437.94 1164.4 436.866C1163.88 436.338 1163.27 435.645 1163.05 435.323C1162.45 434.446 1160.85 432.008 1160.51 431.439C1160.08 430.746 1159.82 430.323 1159.22 429.406C1158.93 428.967 1158.68 428.57 1158.66 428.518C1158.61 428.402 1156.84 425.657 1156.51 425.2C1155.86 424.279 1155.67 424.02 1154.7 422.792C1153.65 421.462 1150.94 418.639 1149.87 417.751C1148.63 416.736 1147.15 415.845 1144.65 414.606C1143.22 413.898 1142.05 413.265 1142.05 413.197C1142.05 413.123 1142.32 413.07 1142.78 413.055C1143.55 413.036 1144.37 412.722 1144.88 412.254C1145.11 412.04 1145.13 412.037 1145.51 412.22C1146.33 412.609 1147.5 412.542 1147.92 412.078C1148.09 411.887 1148.07 411.872 1147.62 411.673C1146.9 411.351 1146.65 410.917 1146.65 409.969V409.183L1147.18 409.059C1147.84 408.906 1148.67 408.393 1149.06 407.902C1149.41 407.456 1149.76 406.719 1149.77 406.419C1149.77 406.251 1149.71 406.284 1149.45 406.591C1149.11 407.007 1148.34 407.423 1147.92 407.423C1147.4 407.423 1146.7 406.895 1146.7 406.505C1146.7 406.434 1146.92 406.348 1147.2 406.307C1148 406.191 1148.59 405.786 1148.75 405.243C1148.82 405.037 1148.79 405.022 1148.3 405.071C1147.16 405.18 1147.01 404.828 1146.99 402.056L1146.98 399.993L1147.23 399.787C1147.38 399.671 1147.71 399.468 1147.98 399.334C1148.56 399.038 1149.08 398.465 1149.37 397.817C1149.61 397.278 1149.77 395.585 1149.58 395.585C1149.52 395.585 1149.44 395.69 1149.39 395.821C1149.26 396.259 1148.73 397.008 1148.41 397.195C1147.96 397.461 1147.47 397.431 1147.06 397.113C1146.86 396.963 1146.7 396.776 1146.7 396.697C1146.7 396.619 1146.86 396.416 1147.06 396.252C1148.2 395.312 1148.91 393.046 1148.61 391.29C1148.47 390.466 1148.11 389.278 1147.91 388.949C1147.9 388.93 1147.53 389.129 1147.1 389.395C1146.66 389.66 1145.98 390.005 1145.58 390.162C1144.89 390.436 1144.76 390.451 1143.06 390.451C1142.07 390.451 1140.29 390.417 1139.09 390.379C1137.9 390.338 1136.5 390.349 1135.99 390.402C1134.91 390.511 1134.63 390.657 1133.48 391.758C1133.07 392.147 1132.52 392.596 1132.24 392.754C1131.64 393.106 1130.66 393.364 1129.97 393.364C1129.68 393.364 1129.14 393.42 1128.77 393.491C1128.01 393.63 1127.84 393.799 1127.98 394.278C1128.04 394.446 1128.14 394.851 1128.21 395.177C1128.34 395.768 1128.34 395.78 1128.02 396.18C1127.57 396.757 1127.49 397.105 1127.42 399.15C1127.4 399.862 1127.42 400.468 1127.47 400.498C1127.52 400.528 1127.76 400.48 1128 400.382C1128.55 400.161 1129.36 400.244 1129.81 400.566C1129.99 400.693 1130.27 401.011 1130.44 401.273C1130.7 401.682 1130.74 401.865 1130.74 402.472C1130.74 402.865 1130.68 403.389 1130.6 403.64C1130.51 403.887 1130.41 404.247 1130.37 404.434C1130.34 404.625 1130.09 405.063 1129.84 405.412C1129.02 406.52 1127.63 407.205 1126.18 407.209H1125.57L1125.18 406.603C1124.71 405.854 1124.27 405.37 1123.72 405.007C1123.34 404.76 1123.19 404.726 1122.45 404.738C1120.95 404.753 1119.89 405.344 1119.38 406.445C1119.13 406.988 1119.1 407.153 1119.14 408.003L1119.17 408.954L1118.76 408.939C1118.3 408.924 1117.8 408.501 1116.86 407.314C1115.24 405.296 1114.58 403.861 1114.19 401.502C1114 400.378 1114 400.442 1114.13 399.862C1114.33 398.925 1114.75 398.259 1115.72 397.304C1116.82 396.225 1116.95 395.922 1116.56 395.334C1116.43 395.128 1116.2 394.9 1116.05 394.829C1115.87 394.735 1115.75 394.675 1115.68 394.604L1113.38 393.14L1112.68 393.08C1112.02 393.027 1111.97 393.042 1111.69 393.316C1111.45 393.563 1111.4 393.694 1111.4 394.181C1111.4 394.495 1111.35 394.844 1111.29 394.956C1111.14 395.233 1110.81 395.218 1110.61 394.918C1110.44 394.653 1110.37 393.795 1110.5 393.578C1110.55 393.499 1110.6 393.203 1110.62 392.93C1110.66 392.241 1110.38 391.941 1109.6 391.84L1106.32 391.87C1106.19 391.859 1106.08 391.889 1105.86 391.975C1105.44 392.222 1105.2 392.555 1105.11 393.001C1105.06 393.241 1105.14 393.507 1105.47 394.132C1105.71 394.578 1105.91 395.027 1105.91 395.124C1105.91 395.39 1105.59 395.69 1105.31 395.69C1105.06 395.69 1104.95 395.563 1104.42 394.709C1104.02 394.068 1103.68 393.922 1103.14 394.166C1102.11 394.772 1101.55 395.81 1101.1 396.959C1100.88 397.577 1100.89 397.783 1101.21 398.42C1101.6 399.195 1101.89 399.326 1103.08 399.255C1104.18 399.195 1104.43 399.326 1104.43 399.967C1104.43 400.255 1104.35 400.386 1104.07 400.6C1103.68 400.903 1103.23 400.963 1102.3 400.828C1101.76 400.753 1101.69 400.764 1101.4 401.008C1101.13 401.24 1101.1 401.337 1101.12 401.809L1101.13 402.348C1101.46 403.24 1099.91 403.023 1102.1 405.018C1102.25 405.116 1102.56 405.224 1102.8 405.262C1103.26 405.337 1103.34 405.288 1104.4 404.337C1105.31 403.52 1106.13 404.004 1106.08 405.322C1106.02 406.531 1105.27 407.202 1103.7 407.415C1103.17 407.486 1102.7 407.516 1102.64 407.479C1102.57 407.441 1102.52 407.46 1102.52 407.524C1102.52 407.685 1103.41 408.228 1104.1 408.49C1104.58 408.67 1104.85 408.703 1105.5 408.659C1105.94 408.632 1106.4 408.55 1106.53 408.486C1106.91 408.28 1106.99 408.441 1106.92 409.217C1106.85 410.044 1106.66 410.553 1106.31 410.868C1105.74 411.396 1105.31 411.445 1104.19 411.126C1103.8 411.014 1103.47 410.947 1103.47 410.977C1103.47 411.003 1103.55 411.16 1103.63 411.321C1103.88 411.816 1104.47 412.25 1105.24 412.497C1105.64 412.628 1106 412.77 1106.05 412.823C1106.11 412.875 1106 413.044 1105.79 413.231C1105.34 413.636 1104.83 413.651 1103.95 413.287C1103.16 412.958 1103.12 412.958 1103.2 413.313C1103.24 413.475 1103.29 413.789 1103.32 414.018C1103.37 414.508 1103.7 415.182 1104.08 415.583C1104.98 416.53 1107.01 416.62 1108.51 415.774C1108.82 415.598 1109.12 415.456 1109.18 415.456C1109.37 415.456 1109.3 416.287 1109.08 416.714C1108.97 416.939 1108.67 417.294 1108.43 417.504L1107.98 417.886H1108.5C1109.18 417.882 1110.72 417.553 1111.68 417.208C1112.54 416.894 1112.63 416.882 1112.7 417.077C1112.78 417.276 1111.89 420.698 1111.61 421.305C1111.47 421.586 1111.15 422.054 1110.89 422.339C1110.46 422.803 1110.33 422.871 1109.79 422.957C1109.34 423.028 1109.05 423.017 1108.7 422.908C1108.1 422.728 1107.85 422.511 1107.58 421.912C1107.4 421.519 1107.37 421.32 1107.43 420.717C1107.48 420.268 1107.46 419.998 1107.4 419.998C1107.22 419.998 1106.55 420.863 1106.29 421.421C1105.7 422.676 1105.68 423.728 1106.21 424.893C1106.71 425.994 1107.84 426.799 1109.29 427.08C1109.83 427.185 1110.17 427.188 1110.92 427.091C1112.89 426.825 1114.22 426.129 1115.05 424.926C1115.38 424.44 1115.53 424.32 1115.98 424.174C1116.9 423.878 1117.96 423.23 1118.85 422.41C1119.18 422.106 1119.44 422.159 1119.44 422.533C1119.44 422.724 1120.06 424.121 1120.31 424.473C1120.42 424.646 1120.34 424.758 1119.58 425.488C1119.1 425.941 1118.32 426.615 1117.83 426.986C1116.77 427.806 1114.54 429.301 1114.38 429.301C1114.32 429.301 1114.21 429.36 1114.13 429.432C1113.92 429.626 1113.64 429.784 1112.93 430.128C1111.56 430.791 1110.75 431.012 1109.56 431.031C1108.88 431.042 1108.76 431.016 1108.41 430.75C1107.98 430.424 1107.94 430.226 1108.18 429.653C1108.42 429.08 1108.38 428.537 1108.09 428.259C1107.7 427.892 1107.23 427.799 1106.72 427.99C1105.73 428.484 1104.57 428.001 1103.31 429.158C1102.5 429.727 1102.4 430.297 1102.97 431.151C1103.37 431.765 1103.41 432.267 1103.08 432.604C1102.86 432.817 1102.81 432.825 1102.34 432.697C1102.07 432.622 1101.82 432.529 1101.79 432.487C1101.61 432.237 1101.08 431.941 1100.82 431.941C1100.18 431.941 1099.77 432.326 1099.52 433.184C1099.21 435.083 1099.56 435.577 1099.76 436.349C1099.81 436.723 1100.25 437.12 1100.62 437.12C1101.04 437.12 1101.26 437 1102.03 436.364C1102.89 435.645 1103.45 435.656 1103.64 436.397C1103.8 437.053 1103.01 437.749 1101.86 437.955C1101.23 438.071 1100.83 438.232 1100.7 438.431C1100.66 438.494 1100.62 438.723 1100.62 438.94C1100.79 439.906 1101.71 440.483 1102.27 441.277L1102.85 441.809C1103.51 442.404 1104.12 442.546 1104.66 442.228C1105.21 441.906 1105.44 441.374 1105.52 440.258C1105.62 438.955 1105.67 438.786 1106.02 438.397C1106.26 438.139 1106.37 438.082 1106.5 438.157C1106.65 438.24 1106.68 438.449 1106.69 439.352C1106.7 440.397 1106.72 440.479 1107.04 441.007C1107.73 441.857 1109.67 441.741 1110.96 440.936C1111.63 440.505 1111.84 440.116 1111.86 439.292C1111.86 438.79 1111.81 438.536 1111.63 438.24C1111.28 437.644 1111.33 437.506 1111.94 437.285L1112.48 437.094L1112.76 437.371C1113.03 437.637 1113.04 437.697 1113.01 438.58C1112.98 439.266 1113.02 439.625 1113.15 439.955C1113.3 440.344 1113.73 440.82 1113.93 440.82C1113.96 440.82 1113.98 440.535 1113.96 440.183C1113.92 439.431 1114.15 438.854 1115.06 437.513C1115.38 437.06 1115.66 436.562 1115.69 436.405C1115.81 435.873 1115.83 435.839 1116.12 435.873C1116.32 435.895 1116.48 436.019 1116.62 436.259C1116.82 436.599 1116.82 436.637 1116.64 437.64C1116.47 438.625 1116.48 439.266 1116.69 439.655C1116.75 439.768 1116.85 439.651 1117.05 439.232C1117.4 438.479 1117.65 438.082 1118.16 437.431C1118.61 436.865 1118.91 436.068 1118.91 435.427C1118.91 434.865 1119.09 434.416 1119.38 434.285C1119.89 434.053 1120.01 434.704 1119.81 436.655C1119.72 437.547 1119.8 438.494 1119.97 438.494C1120.02 438.494 1120.14 438.314 1120.23 438.097C1120.32 437.88 1120.61 437.363 1120.87 436.944C1121.65 435.693 1122.41 433.791 1122.33 433.304C1122.3 433.165 1122.39 432.742 1122.52 432.364C1122.71 431.832 1122.82 431.671 1123 431.645C1123.4 431.585 1123.59 432.034 1123.52 432.866C1123.39 434.221 1123.4 434.611 1123.53 434.925L1123.66 435.244L1123.99 434.622C1124.17 434.281 1124.46 433.749 1124.63 433.435C1124.9 432.929 1124.93 432.753 1124.93 431.933C1124.93 431.233 1124.97 430.963 1125.1 430.84C1125.32 430.615 1125.43 430.63 1125.61 430.918C1125.74 431.105 1125.75 431.244 1125.67 431.525C1125.61 431.727 1125.51 432.195 1125.45 432.574C1125.36 433.139 1125.37 433.334 1125.52 433.708C1125.61 433.959 1125.72 434.161 1125.77 434.161C1125.82 434.161 1125.89 433.967 1125.93 433.723C1125.96 433.484 1126.24 432.783 1126.53 432.165C1126.96 431.289 1127.08 430.918 1127.09 430.461C1127.13 429.566 1127.14 429.51 1127.31 429.51C1127.6 429.51 1127.71 429.926 1127.63 430.787C1127.57 431.491 1127.59 431.678 1127.79 432.135C1127.91 432.427 1128.1 432.75 1128.22 432.851C1128.41 433.027 1128.42 433.015 1128.42 432.566C1128.43 432.087 1128.58 431.611 1129.14 430.278C1129.49 429.458 1129.65 428.735 1129.74 427.555C1129.79 426.874 1129.95 426.552 1130.22 426.552C1130.25 426.552 1130.36 426.611 1130.46 426.683C1130.6 426.784 1130.65 427.038 1130.7 427.765C1130.75 428.716 1130.83 429.27 1130.93 429.443C1130.96 429.495 1131.17 429.162 1131.4 428.705C1131.62 428.248 1132 427.514 1132.23 427.076C1132.75 426.106 1133 424.863 1132.89 423.821L1132.82 423.14L1133.12 423.211C1133.28 423.252 1133.65 423.402 1133.95 423.548C1135.27 424.188 1135.99 424.436 1136.67 424.477C1137.14 424.507 1137.66 424.634 1138.31 424.896C1138.83 425.106 1139.7 425.398 1140.26 425.548C1141.52 425.889 1142.17 426.207 1143.02 426.907C1143.72 427.484 1144.8 428.667 1144.8 428.855C1144.8 428.914 1144.3 428.982 1143.61 429.016C1142.96 429.046 1142.17 429.124 1141.85 429.184C1140.18 429.502 1138.3 430.379 1136.98 431.442C1135.67 432.506 1135.06 433.079 1133.86 434.423C1132.5 435.951 1132.1 436.273 1131.31 436.483C1131.06 436.547 1129.71 436.644 1128.29 436.697C1126.74 436.756 1125.49 436.858 1125.14 436.947C1124.34 437.153 1123.53 437.438 1123.37 437.569C1123.3 437.629 1123.05 437.779 1122.81 437.906C1122.18 438.243 1121.11 439.239 1120.32 440.221C1119.94 440.696 1119.12 441.625 1118.5 442.284C1116.74 444.168 1115.76 444.816 1114.53 444.913C1113.66 444.984 1112.85 444.744 1112.28 444.258L1111.84 443.883L1111.6 444.28C1111.39 444.61 1111.35 444.823 1111.35 445.531C1111.35 446.299 1111.38 446.437 1111.67 446.901C1112.07 447.549 1112.96 448.051 1113.9 448.16C1115.67 448.366 1118.35 447.542 1119.78 446.351C1120.19 446.018 1120.35 446.04 1120.55 446.448C1120.91 447.156 1121.27 447.504 1121.94 447.819C1122.46 448.062 1122.62 448.193 1122.67 448.411C1122.92 449.515 1123.08 449.8 1123.79 450.422L1124.17 450.759L1123.92 451.684C1123.78 452.189 1123.53 452.792 1123.37 453.028C1122.94 453.635 1121.84 454.418 1121.14 454.62C1120.81 454.71 1120.4 454.829 1120.21 454.886C1119.67 455.047 1117.92 455.133 1117.68 455.005C1117.5 454.904 1117.48 454.822 1117.54 454.227C1117.61 453.466 1117.52 453.017 1117.21 452.62C1116.96 452.309 1116.38 452.122 1115.87 452.189C1114.74 452.38 1113.87 453.009 1113.32 453.714L1112.94 454.174C1112.55 454.646 1112.48 455.013 1112.7 455.305C1112.77 455.395 1113.12 455.627 1113.47 455.814C1114.18 456.189 1114.53 456.638 1114.42 457.046C1114.34 457.372 1114.13 457.481 1113.41 457.571C1112.89 457.634 1112.77 457.608 1112.22 457.32C1111.44 456.908 1111.03 456.837 1110.51 457.02C1110.19 457.133 1110.03 457.275 1109.85 457.623C1109.71 457.874 1109.6 458.211 1109.6 458.372C1109.51 459.537 1109.86 461.207 1110.13 461.848C1110.35 462.286 1110.61 462.421 1111.17 462.398C1111.62 462.383 1111.89 462.237 1112.47 461.672C1112.86 461.301 1113.02 461.211 1113.26 461.237C1113.68 461.286 1113.83 461.713 1113.6 462.203C1113.46 462.488 1113.29 462.615 1112.76 462.829C1112 463.132 1111.74 463.458 1111.73 464.11C1111.72 464.345 1111.81 464.69 1111.95 464.926C1112.24 465.529 1113.26 466.33 1114.61 466.57C1115.53 466.72 1116.29 465.892 1116.42 464.604C1116.48 463.982 1116.53 463.832 1116.76 463.649C1117.08 463.398 1117.38 463.447 1117.67 463.787C1117.82 463.96 1117.86 464.162 1117.85 464.649C1117.81 465.798 1117.83 465.918 1118.18 466.27C1118.76 466.813 1120.79 466.072 1121.61 465.484C1121.97 465.248 1122.29 464.686 1122.29 464.289C1122.29 464.102 1122.15 463.593 1121.97 463.155C1121.59 462.196 1121.58 461.952 1121.91 461.567C1122.12 461.323 1122.21 461.29 1122.36 461.387C1122.73 461.608 1123.04 462.349 1123.12 463.188C1123.18 463.847 1123.24 464.031 1123.44 464.192C1123.79 464.476 1124.03 464.454 1123.92 464.151C1123.78 463.754 1123.82 462.994 1124.01 462.331C1124.11 461.982 1124.19 461.387 1124.19 461.001C1124.19 460.335 1124.33 459.694 1124.51 459.488C1124.56 459.436 1124.67 459.556 1124.75 459.75C1124.86 460.031 1124.87 460.335 1124.79 461.17C1124.69 462.331 1124.78 462.915 1125.13 463.349C1125.38 463.653 1125.54 463.537 1125.37 463.17C1125.26 462.93 1125.3 462.78 1125.74 461.896C1126.22 460.923 1126.24 460.859 1126.28 459.735C1126.31 459.099 1126.36 458.574 1126.4 458.574C1126.45 458.574 1126.56 458.754 1126.67 458.971C1126.8 459.245 1126.88 459.698 1126.91 460.425C1126.95 461.376 1126.99 461.518 1127.25 461.844C1127.71 462.432 1127.77 462.383 1127.71 461.496C1127.66 460.795 1127.68 460.634 1127.91 460.14C1128.47 458.956 1128.83 457.949 1128.95 457.267C1129.15 456.148 1129.31 456.425 1129.33 457.897C1129.35 459.286 1129.52 459.881 1130.05 460.413C1130.41 460.773 1130.55 460.769 1130.46 460.398C1130.28 459.713 1130.38 459.069 1130.79 458.204C1131.41 456.901 1131.71 456.05 1131.82 455.298C1132.03 453.777 1132.02 453.822 1132.3 453.755C1133.15 453.538 1133.85 453.785 1134.05 454.373C1134.12 454.605 1134.06 454.811 1133.62 455.597C1132.83 457.02 1132.76 457.312 1132.97 458.073C1133.1 458.537 1133.17 458.563 1133.38 458.215C1133.47 458.077 1134.09 457.399 1134.76 456.71C1136.85 454.568 1137.34 453.747 1137.19 452.643C1137.07 451.807 1136.58 451.085 1135.06 449.542C1133.64 448.1 1133.23 447.564 1132.82 446.64C1131.65 444.044 1133.29 442.378 1137.24 442.134C1137.93 442.09 1138.86 442.116 1139.54 442.187C1140.87 442.329 1142.45 442.359 1143.08 442.254L1143.53 442.176L1143.74 442.674C1143.94 443.138 1144.63 445.434 1144.96 446.737C1145.04 447.059 1145.23 447.819 1145.39 448.43C1145.74 449.838 1145.82 450.852 1145.59 451.291C1145.39 451.676 1144.85 452.021 1144.45 452.021C1143.81 452.025 1142.94 451.261 1142.6 450.392C1142.49 450.104 1142.35 449.853 1142.31 449.838C1142.25 449.819 1142.1 449.969 1141.97 450.167C1141.57 450.755 1141.67 452.04 1142.21 453.081C1142.45 453.538 1143.16 454.302 1143.69 454.661C1144.83 455.44 1146.54 455.654 1147.97 455.193C1148.65 454.976 1148.86 454.845 1149.41 454.298C1149.76 453.946 1150.12 453.541 1150.21 453.399L1150.37 453.141L1151.15 453.504C1151.77 453.792 1152.1 453.875 1152.73 453.905C1153.53 453.946 1153.95 453.822 1154.93 453.249C1155.11 453.141 1155.27 453.13 1155.54 453.204C1156.09 453.354 1156.98 453.126 1157.79 452.635C1158.17 452.399 1158.57 452.137 1158.67 452.047C1158.93 451.823 1159.07 451.984 1159.38 452.815C1159.75 453.8 1159.7 455.167 1159.24 456.594C1158.74 458.193 1157.9 459.369 1156.71 460.163C1156.12 460.563 1156 460.601 1155.55 460.556C1154.91 460.496 1154.54 460.163 1154.21 459.342C1153.78 458.264 1153.67 458.058 1153.44 457.893C1153.09 457.65 1152.55 457.698 1151.99 458.017L1151.38 458.346C1150.49 459.29 1148.98 460.339 1148.78 461.556C1148.73 461.769 1148.78 461.915 1148.97 462.151C1149.2 462.417 1149.35 462.481 1149.9 462.541C1150.26 462.582 1150.64 462.661 1150.74 462.713C1151.28 462.998 1151.17 463.668 1150.53 463.934C1150.19 464.08 1150.01 464.084 1149.12 463.967C1148.56 463.893 1147.99 463.859 1147.84 463.896C1147.41 464.005 1147.02 464.376 1147.02 464.687C1146.98 465.949 1147.66 467.458 1148.24 468.619C1148.5 469.147 1148.79 469.356 1149.25 469.356C1149.51 469.356 1149.8 469.064 1150.74 467.862C1151.44 466.975 1151.91 466.623 1152.25 466.754C1152.53 466.862 1152.44 467.39 1152.04 467.911C1151.36 468.802 1151.3 469.222 1151.8 469.708C1152.63 470.484 1154.22 471.165 1155.31 471.161C1155.91 471.139 1156.42 470.858 1156.61 470.45C1156.76 470.143 1156.77 469.963 1156.66 469.034C1156.52 467.873 1156.61 467.54 1157.08 467.417C1157.58 467.289 1157.91 467.791 1157.91 468.679C1157.91 469.596 1158.11 470.225 1158.55 470.633C1158.97 471.038 1161.71 470.001 1162.13 469.645C1162.79 469.031 1162.92 468.285 1162.56 467.349C1162.44 467.053 1162.34 466.765 1162.34 466.709C1162.34 466.649 1162.55 466.51 1162.8 466.402C1163.1 466.274 1163.35 466.068 1163.51 465.814C1163.73 465.45 1163.74 465.364 1163.66 464.458C1163.52 462.904 1163.54 462.316 1163.77 462.065C1164.26 461.522 1164.82 462.076 1164.93 463.226C1165.02 464.087 1165.28 464.769 1165.64 465.072C1165.93 465.319 1166.33 465.443 1166.23 465.259C1165.88 464.578 1165.81 464.289 1165.86 463.735C1165.89 463.406 1166.01 462.953 1166.12 462.732C1166.24 462.507 1166.47 462.054 1166.64 461.72C1166.8 461.387 1166.98 461.114 1167.02 461.114C1167.14 461.11 1167.28 461.455 1167.37 461.953C1167.41 462.215 1167.48 462.499 1167.52 462.589C1168.11 463.855 1168.47 464.282 1168.96 464.282C1169.26 464.282 1169.27 464.316 1169 463.627C1168.7 462.885 1168.7 462.271 1169.01 461.376C1169.32 460.458 1169.35 458.975 1169.07 458.324C1168.69 457.421 1169.02 457.073 1169.55 457.826C1169.76 458.114 1169.89 458.504 1170 459.155C1170.09 459.661 1170.26 460.279 1170.37 460.53C1170.58 461.005 1170.99 461.369 1171.26 461.309C1171.4 461.275 1171.4 461.219 1171.26 460.848C1171.08 460.339 1171.06 459.155 1171.23 458.728C1171.3 458.556 1171.35 458.05 1171.35 457.601C1171.35 456.822 1171.33 456.729 1170.77 455.594C1170.09 454.208 1169.98 453.703 1170.23 453.055C1170.53 452.265 1170.99 452.055 1171.65 452.396C1172.2 452.68 1172.41 453.276 1172.5 454.834C1172.6 456.437 1172.82 457.178 1173.4 457.785C1173.6 458.002 1173.79 458.152 1173.83 458.118C1173.86 458.088 1173.83 457.818 1173.77 457.523C1173.61 456.774 1173.62 455.691 1173.8 455.276C1173.88 455.085 1174.11 454.407 1174.31 453.767C1174.58 452.86 1174.66 452.418 1174.66 451.755C1174.66 450.98 1174.63 450.857 1174.31 450.329C1173.81 449.52 1173.26 449.149 1172.12 448.894C1171.12 448.67 1170.11 448.711 1169.41 448.999C1169.08 449.134 1168.77 449.216 1168.72 449.183C1168.67 449.149 1168.41 448.849 1168.14 448.524C1167.34 447.572 1166.68 447.187 1165.62 447.037C1164.74 446.91 1164.71 446.895 1164.19 446.367C1163.21 445.359 1161.8 444.779 1159.71 444.509C1159.21 444.445 1158.7 444.352 1158.57 444.299C1158.34 444.213 1158.34 444.191 1158.48 443.861C1158.94 442.79 1159.19 442.045 1159.34 441.244C1159.52 440.262 1159.55 438.27 1159.4 437.334C1159.34 437.012 1159.32 436.727 1159.35 436.701C1159.41 436.637 1160.2 437.487 1161.06 438.547C1163.09 441.056 1164.66 442.629 1165.85 443.329C1167.31 444.198 1168.6 444.58 1171.89 445.146C1174 445.509 1174.56 445.704 1174.94 446.224C1175.31 446.722 1175.42 447.213 1175.56 448.853C1175.7 450.662 1175.85 451.093 1176.44 451.441C1177.08 451.815 1177.16 451.789 1176.98 451.276C1176.7 450.486 1176.69 449.628 1176.93 448.112C1177.32 445.621 1177.21 444.43 1176.48 443.517C1176.08 443.007 1175.93 442.887 1175.09 442.401C1174.74 442.195 1174.45 441.974 1174.45 441.91C1174.45 441.846 1174.7 441.517 1175.02 441.176C1176.45 439.626 1177.07 438.187 1177.19 436.139C1177.32 434.094 1176.33 431.656 1174.25 428.881C1173.3 427.619 1173.24 427.455 1173.39 426.447C1173.53 425.492 1173.7 425.148 1174.32 424.575C1175.44 423.541 1176.73 423.751 1177.56 425.107C1177.81 425.496 1177.89 425.286 1177.77 424.552C1177.54 423.088 1177.03 422.347 1175.91 421.822C1175.38 421.571 1175.16 421.534 1174.34 421.538C1173.53 421.541 1173.29 421.59 1172.75 421.833C1171.58 422.373 1170.85 423.358 1170.46 424.949C1170.32 425.481 1170.19 425.915 1170.14 425.919C1170.03 425.919 1169.55 424.908 1169.36 424.268C1169 423.017 1169.23 420.796 1169.83 419.841C1170.48 418.8 1171.28 418.115 1172.33 417.699C1172.98 417.445 1173.21 417.415 1174.18 417.418C1175.4 417.426 1175.88 417.557 1176.67 418.092C1176.93 418.265 1177.14 418.362 1177.14 418.31C1177.14 417.995 1176.42 417.092 1175.82 416.669C1173.52 415.029 1170.73 415.224 1168 417.224C1167.2 417.811 1166.79 418.051 1166.79 417.931C1166.79 417.688 1168.08 416.452 1169.74 415.138C1169.99 414.935 1170.37 414.624 1170.58 414.448C1170.79 414.269 1171.31 413.842 1171.74 413.497C1173.8 411.846 1176.04 409.382 1176.93 407.79C1178.09 405.738 1178.93 403.165 1179.26 400.656C1179.37 399.824 1179.3 398.544 1179.14 398.544C1179.08 398.544 1179.04 398.607 1179.04 398.682C1179.04 399.057 1177.78 401.948 1177.05 403.247C1176.85 403.596 1175.95 404.91 1175.44 405.573C1174.36 407.007 1172.08 409.28 1170.95 410.067C1170.82 410.153 1170.47 410.415 1170.15 410.651C1169.46 411.172 1168.01 411.909 1167.85 411.816C1167.79 411.771 1167.89 411.479 1168.13 411.037C1168.52 410.314 1169.46 408.659 1169.64 408.374C1172.45 403.918 1174.01 400.147 1174.15 397.443C1174.25 395.57 1173.84 393.649 1173.04 392.207C1172.49 391.219 1170.88 389.634 1169.74 388.96C1167.78 387.803 1166.44 387.44 1164.05 387.466ZM1111.74 395.117V395.199C1111.73 395.184 1111.73 395.154 1111.74 395.117Z" fill="#202022"/>
<path d="M1112.43 464.597C1112.16 464.582 1111.92 464.761 1111.86 465.021C1111.66 465.883 1111.5 466.754 1111.61 467.573C1111.72 468.426 1112.11 469.193 1112.92 469.845C1113.09 469.977 1113.31 470.003 1113.5 469.914C1113.69 469.824 1113.82 469.634 1113.82 469.423C1113.84 468.366 1114.05 467.486 1114.69 466.343C1114.81 466.126 1114.77 465.854 1114.59 465.68C1114.09 465.184 1113.26 464.644 1112.43 464.597Z" fill="#202022" stroke="#F5D90A" stroke-width="1.10466" stroke-linejoin="round"/>
<path d="M1152.33 469.222C1152.18 469.215 1152.04 469.27 1151.93 469.374C1151.82 469.478 1151.76 469.622 1151.76 469.773C1151.76 469.838 1151.76 469.904 1151.76 469.972C1151.75 470.682 1151.75 471.541 1152.08 472.398C1152.45 473.368 1153.21 474.279 1154.69 475.095C1154.88 475.205 1155.13 475.183 1155.3 475.04C1155.48 474.897 1155.55 474.662 1155.48 474.447C1155 472.926 1154.77 471.781 1154.91 470.65C1154.93 470.462 1154.86 470.276 1154.71 470.156C1153.97 469.549 1153.06 469.252 1152.33 469.222Z" fill="#202022" stroke="#F5D90A" stroke-width="1.10466" stroke-linejoin="round"/>
<path d="M1158.17 472.952C1158.07 473.153 1158.1 473.397 1158.25 473.567C1158.4 473.737 1158.63 473.8 1158.85 473.725C1160.06 473.299 1160.87 472.764 1161.38 472.073C1161.89 471.385 1162.06 470.609 1162.14 469.823C1162.18 469.545 1161.99 469.289 1161.72 469.225C1160.91 469.037 1159.76 469.195 1158.79 469.928C1158.63 470.049 1158.55 470.249 1158.58 470.449C1158.7 471.321 1158.54 472.244 1158.17 472.952Z" fill="#202022" stroke="#F5D90A" stroke-width="1.10466" stroke-linejoin="round"/>
<path d="M1152.06 458.69C1152.1 458.46 1151.99 458.231 1151.78 458.118L1151.75 458.102C1150.98 457.674 1150.26 457.274 1149.57 457.041C1148.86 456.798 1148.14 456.72 1147.37 456.971C1147.19 457.027 1147.06 457.165 1147.01 457.339C1146.96 457.514 1147 457.702 1147.11 457.844C1147.23 457.986 1147.34 458.123 1147.45 458.259C1148.08 459.012 1148.65 459.703 1149.14 460.911C1149.2 461.061 1149.32 461.177 1149.47 461.229C1149.62 461.281 1149.79 461.264 1149.93 461.182C1150.97 460.568 1151.89 459.761 1152.06 458.69Z" fill="#202022" stroke="#F5D90A" stroke-width="1.10466" stroke-linejoin="round"/>
<path d="M1121.71 465.697C1121.74 465.541 1121.7 465.379 1121.61 465.252C1121.51 465.125 1121.37 465.045 1121.21 465.033C1120.18 464.957 1119.24 465.284 1118.53 465.667C1118.36 465.759 1118.25 465.935 1118.24 466.129C1118.2 466.953 1117.82 467.661 1117.16 468.733C1117.05 468.922 1117.05 469.162 1117.18 469.343C1117.31 469.524 1117.54 469.61 1117.75 469.562C1119.71 469.124 1121.28 467.722 1121.71 465.697Z" fill="#202022" stroke="#F5D90A" stroke-width="1.10466" stroke-linejoin="round"/>
<path d="M1099.51 392.964C1099.3 392.991 1099.13 393.133 1099.06 393.331C1098.99 393.528 1099.04 393.748 1099.19 393.898C1099.98 394.712 1100.56 395.552 1100.93 396.674C1100.99 396.852 1101.13 396.988 1101.31 397.035C1101.49 397.082 1101.69 397.034 1101.82 396.908C1102.49 396.293 1103.07 395.614 1103.47 394.755C1103.59 394.488 1103.48 394.171 1103.22 394.034C1103.12 393.978 1103.01 393.919 1102.89 393.859C1101.98 393.366 1100.91 392.783 1099.51 392.964Z" fill="#202022" stroke="#F5D90A" stroke-width="1.10466" stroke-linejoin="round"/>
<path d="M1110.3 458.5C1110.15 458.291 1109.88 458.21 1109.64 458.306C1108.11 458.92 1106.86 460.021 1106.05 461.489C1105.95 461.676 1105.96 461.906 1106.09 462.078C1106.21 462.251 1106.43 462.337 1106.64 462.297C1107.82 462.074 1109.02 461.876 1110.18 461.774C1110.42 461.753 1110.62 461.575 1110.67 461.336C1110.68 461.317 1110.68 461.297 1110.69 461.277C1110.84 460.554 1111.05 459.559 1110.3 458.5Z" fill="#202022" stroke="#F5D90A" stroke-width="1.10466" stroke-linejoin="round"/>
<path d="M1106.34 428.704C1106.39 428.553 1106.38 428.385 1106.3 428.245C1105.88 427.503 1105.39 426.863 1104.75 426.426C1104.1 425.979 1103.33 425.769 1102.42 425.826C1102.23 425.838 1102.05 425.953 1101.96 426.127C1101.88 426.301 1101.89 426.509 1101.99 426.673C1102.05 426.774 1102.12 426.871 1102.18 426.964C1102.69 427.76 1103.04 428.309 1103.14 429.212C1103.16 429.339 1103.22 429.457 1103.31 429.546C1103.92 430.143 1104.67 430.088 1105.22 429.834C1105.49 429.709 1105.72 429.534 1105.91 429.346C1106.09 429.163 1106.25 428.94 1106.34 428.704Z" fill="#202022" stroke="#F5D90A" stroke-width="1.10466" stroke-linejoin="round"/>
<path d="M1115.9 452.943C1116.01 452.846 1116.08 452.707 1116.09 452.559C1116.09 452.411 1116.04 452.265 1115.94 452.155C1114.64 450.714 1113.03 450.04 1111.26 450.232C1111.06 450.253 1110.89 450.383 1110.81 450.57C1110.73 450.758 1110.76 450.972 1110.89 451.129C1111.13 451.422 1111.37 451.699 1111.6 451.971C1112.18 452.652 1112.74 453.297 1113.18 454.058C1113.32 454.293 1113.61 454.392 1113.86 454.292C1114.49 454.041 1114.89 453.805 1115.21 453.563C1115.36 453.444 1115.48 453.33 1115.59 453.226C1115.62 453.203 1115.64 453.18 1115.66 453.159C1115.74 453.081 1115.82 453.013 1115.9 452.943Z" fill="#202022" stroke="#F5D90A" stroke-width="1.10466" stroke-linejoin="round"/>
<path d="M1126.48 405.352C1126.65 405.522 1126.92 405.557 1127.13 405.439C1127.34 405.321 1127.45 405.077 1127.4 404.839C1126.88 402.418 1125.36 401.191 1123.93 400.128C1124 400.001 1124.08 399.863 1124.15 399.72C1124.29 399.416 1124.43 399.06 1124.46 398.645L1124.46 398.628C1124.51 397.489 1124.13 396.63 1123.45 396.115C1122.78 395.614 1121.92 395.512 1121.13 395.667C1119.58 395.971 1117.96 397.371 1118.25 399.467C1118.35 400.171 1118.62 400.92 1119.2 401.678L1119.2 401.678L1119.21 401.685C1119.65 402.245 1120.25 402.628 1120.88 402.923C1121.51 403.215 1122.21 403.437 1122.89 403.648C1124.3 404.086 1125.59 404.49 1126.48 405.352Z" fill="#202022" stroke="#F5D90A" stroke-width="1.10466" stroke-linejoin="round"/>
<path d="M1115.67 390.616C1115.56 390.464 1115.39 390.374 1115.2 390.377C1115.02 390.38 1114.85 390.475 1114.75 390.631C1114.23 391.428 1113.71 392.214 1113.12 392.841C1113.11 392.848 1113.1 392.855 1113.1 392.862C1112.86 393.143 1112.95 393.465 1113 393.588C1113.06 393.734 1113.16 393.865 1113.24 393.967C1113.43 394.181 1113.68 394.403 1113.95 394.588C1114.21 394.772 1114.52 394.948 1114.81 395.042C1114.95 395.088 1115.13 395.127 1115.31 395.111C1115.51 395.094 1115.75 395.007 1115.91 394.776C1115.95 394.721 1115.98 394.66 1115.99 394.595C1116.33 393.241 1116.4 391.679 1115.67 390.616Z" fill="#202022" stroke="#F5D90A" stroke-width="1.10466" stroke-linejoin="round"/>
<path d="M1105.81 388.492C1105.63 388.471 1105.44 388.545 1105.33 388.688C1105.21 388.831 1105.17 389.024 1105.22 389.202C1105.32 389.523 1105.42 389.799 1105.51 390.055C1105.76 390.737 1105.95 391.271 1105.92 392.121C1105.91 392.35 1106.04 392.561 1106.25 392.651C1107.43 393.148 1108.49 393.048 1109.34 392.467C1109.56 392.314 1109.64 392.023 1109.53 391.778C1108.85 390.307 1107.66 388.703 1105.81 388.492Z" fill="#202022" stroke="#F5D90A" stroke-width="1.10466" stroke-linejoin="round"/>
<path d="M1101.98 402.289C1101.89 402.108 1101.71 401.99 1101.51 401.982C1100.59 401.945 1099.81 401.7 1099.08 401.083C1098.92 400.945 1098.69 400.913 1098.5 400.999C1098.3 401.085 1098.18 401.275 1098.17 401.486C1098.13 402.824 1098.63 403.84 1099.4 404.486C1100.16 405.121 1101.15 405.37 1102.05 405.262C1102.32 405.229 1102.52 405.012 1102.54 404.745C1102.58 404.011 1102.43 403.208 1101.98 402.289Z" fill="#202022" stroke="#F5D90A" stroke-width="1.10466" stroke-linejoin="round"/>
<path d="M1100.54 433.307C1100.5 433.165 1100.41 433.043 1100.28 432.97C1100.15 432.896 1100 432.876 1099.86 432.914C1099.12 433.111 1098.2 433.38 1097.41 433.793C1096.63 434.2 1095.86 434.813 1095.65 435.759C1095.61 435.943 1095.67 436.135 1095.8 436.269C1095.93 436.402 1096.13 436.458 1096.31 436.418C1097.59 436.134 1098.77 436.147 1099.91 436.371C1100.16 436.421 1100.41 436.29 1100.52 436.055C1100.91 435.186 1100.78 434.246 1100.54 433.307Z" fill="#202022" stroke="#F5D90A" stroke-width="1.10466" stroke-linejoin="round"/>
<path d="M1099.72 443.67C1099.79 443.877 1099.97 444.025 1100.19 444.047C1100.4 444.07 1100.61 443.964 1100.72 443.775C1101.26 442.849 1101.93 442.074 1102.76 441.329C1102.95 441.151 1103 440.858 1102.86 440.632C1102.38 439.858 1101.71 439.254 1101.08 438.946C1100.82 438.814 1100.49 438.918 1100.35 439.18C1100.02 439.797 1099.69 440.434 1099.54 441.159C1099.38 441.902 1099.4 442.706 1099.72 443.67Z" fill="#202022" stroke="#F5D90A" stroke-width="1.10466" stroke-linejoin="round"/>
<path d="M1110.82 441.227C1110.88 441.07 1110.87 440.894 1110.78 440.749C1110.7 440.604 1110.55 440.506 1110.38 440.483C1110 440.428 1109.5 440.46 1109.01 440.539C1108.51 440.62 1107.97 440.756 1107.49 440.934C1107.3 441.002 1107.17 441.164 1107.14 441.359C1107.02 442.044 1106.67 442.654 1106.13 443.379C1105.99 443.561 1105.98 443.809 1106.1 444.002C1106.22 444.196 1106.45 444.295 1106.67 444.253C1108.13 443.975 1109.08 443.494 1109.72 442.917C1110.36 442.338 1110.64 441.704 1110.82 441.227Z" fill="#202022" stroke="#F5D90A" stroke-width="1.10466" stroke-linejoin="round"/>
<path d="M1147.74 464.894C1147.64 464.775 1147.5 464.701 1147.35 464.689C1147.2 464.678 1147.05 464.731 1146.94 464.834C1146.86 464.905 1146.78 464.977 1146.7 465.05C1146.12 465.584 1145.47 466.175 1144.97 466.831C1144.4 467.591 1143.97 468.493 1144.05 469.578C1144.07 469.798 1144.21 469.988 1144.42 470.06C1144.63 470.132 1144.86 470.073 1145.01 469.91C1145.94 468.887 1147.1 468.522 1148.38 468.317C1148.65 468.272 1148.85 468.03 1148.84 467.751C1148.8 466.492 1148.35 465.654 1147.74 464.894Z" fill="#202022" stroke="#F5D90A" stroke-width="1.10466" stroke-linejoin="round"/>
</g>
</g>
</g>
<path d="M738.566 632.635V558.055H746.928V632.635H738.566ZM741.956 632.635V625.064H782.975V632.635H741.956Z" fill="white"/>
<path d="M714.176 632.635V558.055H722.764V632.635H714.176Z" fill="white"/>
<path d="M655.242 632.635V558.055H663.604V632.635H655.242ZM658.18 599.3V591.842H700.668V599.3H658.18ZM658.18 565.626V558.055H705.866V565.626H658.18Z" fill="white"/>
<path d="M1311.96 634.217C1307.07 634.217 1302.66 633.727 1298.74 632.748C1294.9 631.844 1291.59 630.45 1288.8 628.567C1286.09 626.608 1283.94 624.197 1282.36 621.335C1280.85 618.397 1279.98 615.044 1279.76 611.278L1294 606.645C1294.15 610.035 1294.98 612.86 1296.48 615.12C1298.06 617.38 1300.29 619.037 1303.15 620.092C1306.01 621.146 1309.21 621.674 1312.75 621.674C1316.14 621.674 1319.01 621.259 1321.34 620.431C1323.68 619.602 1325.45 618.51 1326.65 617.154C1327.86 615.722 1328.46 614.178 1328.46 612.521C1328.46 610.562 1327.71 608.98 1326.2 607.775C1324.69 606.569 1322.62 605.552 1319.99 604.724C1317.42 603.895 1314.49 603.104 1311.17 602.351C1307.48 601.522 1303.83 600.58 1300.21 599.526C1296.67 598.471 1293.43 597.115 1290.49 595.458C1287.63 593.8 1285.33 591.653 1283.6 589.017C1281.94 586.38 1281.11 583.065 1281.11 579.073C1281.11 574.477 1282.24 570.522 1284.5 567.208C1286.84 563.818 1290.23 561.181 1294.67 559.298C1299.12 557.414 1304.47 556.473 1310.72 556.473C1317.05 556.473 1322.43 557.414 1326.88 559.298C1331.4 561.106 1334.9 563.705 1337.39 567.095C1339.87 570.409 1341.23 574.364 1341.46 578.96L1326.77 583.028C1326.77 580.692 1326.39 578.658 1325.64 576.926C1324.88 575.193 1323.83 573.762 1322.47 572.632C1321.12 571.426 1319.42 570.522 1317.39 569.92C1315.43 569.317 1313.17 569.016 1310.61 569.016C1307.67 569.016 1305.11 569.392 1302.92 570.146C1300.81 570.899 1299.19 571.916 1298.06 573.197C1297.01 574.477 1296.48 575.984 1296.48 577.717C1296.48 579.751 1297.31 581.446 1298.97 582.802C1300.7 584.082 1302.96 585.137 1305.75 585.966C1308.61 586.794 1311.74 587.585 1315.13 588.339C1318.37 589.017 1321.64 589.883 1324.96 590.938C1328.35 591.917 1331.47 593.235 1334.34 594.893C1337.27 596.475 1339.61 598.659 1341.34 601.447C1343.15 604.159 1344.05 607.586 1344.05 611.73C1344.05 616.25 1342.85 620.205 1340.44 623.595C1338.03 626.985 1334.41 629.621 1329.59 631.505C1324.84 633.313 1318.97 634.217 1311.96 634.217Z" fill="white"/>
<path d="M1230.39 632.635V558.055H1246.67V632.635H1230.39ZM1233.78 632.635V618.962H1278.19V632.635H1233.78Z" fill="white"/>
<path d="M1164.73 632.635V558.055H1181.12V632.635H1164.73ZM1176.03 632.635V619.414H1222.25V632.635H1176.03ZM1176.03 600.995V588.904H1216.6V600.995H1176.03ZM1176.03 571.163V558.055H1222.02V571.163H1176.03Z" fill="white"/>
<path d="M1124.35 634.217C1119.45 634.217 1115.05 633.727 1111.13 632.748C1107.29 631.844 1103.97 630.45 1101.18 628.567C1098.47 626.608 1096.33 624.197 1094.74 621.335C1093.24 618.397 1092.37 615.044 1092.14 611.278L1106.38 606.645C1106.53 610.035 1107.36 612.86 1108.87 615.12C1110.45 617.38 1112.67 619.037 1115.54 620.092C1118.4 621.146 1121.6 621.674 1125.14 621.674C1128.53 621.674 1131.39 621.259 1133.73 620.431C1136.06 619.602 1137.83 618.51 1139.04 617.154C1140.24 615.722 1140.85 614.178 1140.85 612.521C1140.85 610.562 1140.09 608.98 1138.59 607.775C1137.08 606.569 1135.01 605.552 1132.37 604.724C1129.81 603.895 1126.87 603.104 1123.56 602.351C1119.87 601.522 1116.21 600.58 1112.6 599.526C1109.06 598.471 1105.82 597.115 1102.88 595.458C1100.02 593.8 1097.72 591.653 1095.99 589.017C1094.33 586.38 1093.5 583.065 1093.5 579.073C1093.5 574.477 1094.63 570.522 1096.89 567.208C1099.23 563.818 1102.62 561.181 1107.06 559.298C1111.51 557.414 1116.85 556.473 1123.11 556.473C1129.43 556.473 1134.82 557.414 1139.27 559.298C1143.79 561.106 1147.29 563.705 1149.77 567.095C1152.26 570.409 1153.62 574.364 1153.84 578.96L1139.15 583.028C1139.15 580.692 1138.78 578.658 1138.02 576.926C1137.27 575.193 1136.21 573.762 1134.86 572.632C1133.5 571.426 1131.81 570.522 1129.77 569.92C1127.81 569.317 1125.55 569.016 1122.99 569.016C1120.06 569.016 1117.49 569.392 1115.31 570.146C1113.2 570.899 1111.58 571.916 1110.45 573.197C1109.4 574.477 1108.87 575.984 1108.87 577.717C1108.87 579.751 1109.7 581.446 1111.35 582.802C1113.09 584.082 1115.35 585.137 1118.13 585.966C1121 586.794 1124.12 587.585 1127.51 588.339C1130.75 589.017 1134.03 589.883 1137.34 590.938C1140.73 591.917 1143.86 593.235 1146.72 594.893C1149.66 596.475 1152 598.659 1153.73 601.447C1155.54 604.159 1156.44 607.586 1156.44 611.73C1156.44 616.25 1155.24 620.205 1152.83 623.595C1150.41 626.985 1146.8 629.621 1141.98 631.505C1137.23 633.313 1131.36 634.217 1124.35 634.217Z" fill="white"/>
<path d="M1054.05 634.217C1049.16 634.217 1044.75 633.727 1040.83 632.748C1036.99 631.844 1033.67 630.45 1030.89 628.567C1028.18 626.608 1026.03 624.197 1024.45 621.335C1022.94 618.397 1022.07 615.044 1021.85 611.278L1036.09 606.645C1036.24 610.035 1037.07 612.86 1038.57 615.12C1040.15 617.38 1042.38 619.037 1045.24 620.092C1048.1 621.146 1051.3 621.674 1054.84 621.674C1058.23 621.674 1061.1 621.259 1063.43 620.431C1065.77 619.602 1067.54 618.51 1068.74 617.154C1069.95 615.722 1070.55 614.178 1070.55 612.521C1070.55 610.562 1069.8 608.98 1068.29 607.775C1066.78 606.569 1064.71 605.552 1062.08 604.724C1059.51 603.895 1056.58 603.104 1053.26 602.351C1049.57 601.522 1045.92 600.58 1042.3 599.526C1038.76 598.471 1035.52 597.115 1032.58 595.458C1029.72 593.8 1027.42 591.653 1025.69 589.017C1024.03 586.38 1023.2 583.065 1023.2 579.073C1023.2 574.477 1024.33 570.522 1026.59 567.208C1028.93 563.818 1032.32 561.181 1036.76 559.298C1041.21 557.414 1046.56 556.473 1052.81 556.473C1059.14 556.473 1064.52 557.414 1068.97 559.298C1073.49 561.106 1076.99 563.705 1079.48 567.095C1081.96 570.409 1083.32 574.364 1083.55 578.96L1068.86 583.028C1068.86 580.692 1068.48 578.658 1067.73 576.926C1066.97 575.193 1065.92 573.762 1064.56 572.632C1063.21 571.426 1061.51 570.522 1059.48 569.92C1057.52 569.317 1055.26 569.016 1052.7 569.016C1049.76 569.016 1047.2 569.392 1045.01 570.146C1042.9 570.899 1041.28 571.916 1040.15 573.197C1039.1 574.477 1038.57 575.984 1038.57 577.717C1038.57 579.751 1039.4 581.446 1041.06 582.802C1042.79 584.082 1045.05 585.137 1047.84 585.966C1050.7 586.794 1053.83 587.585 1057.22 588.339C1060.46 589.017 1063.73 589.883 1067.05 590.938C1070.44 591.917 1073.56 593.235 1076.43 594.893C1079.36 596.475 1081.7 598.659 1083.43 601.447C1085.24 604.159 1086.14 607.586 1086.14 611.73C1086.14 616.25 1084.94 620.205 1082.53 623.595C1080.12 626.985 1076.5 629.621 1071.68 631.505C1066.93 633.313 1061.06 634.217 1054.05 634.217Z" fill="white"/>
<path d="M980.542 634.217C975.946 634.217 971.841 633.727 968.225 632.748C964.684 631.844 961.595 630.525 958.959 628.793C956.322 626.985 954.1 624.838 952.292 622.352C950.559 619.79 949.241 616.928 948.337 613.764C947.508 610.6 947.094 607.134 947.094 603.368V558.055H963.479V602.803C963.479 606.645 964.081 609.846 965.287 612.408C966.567 614.894 968.451 616.739 970.937 617.945C973.423 619.15 976.587 619.753 980.429 619.753C984.346 619.753 987.548 619.15 990.034 617.945C992.595 616.739 994.478 614.894 995.684 612.408C996.964 609.846 997.605 606.645 997.605 602.803V558.055H1013.76V603.368C1013.76 613.161 1010.98 620.77 1005.4 626.194C999.902 631.542 991.616 634.217 980.542 634.217Z" fill="white"/>
<path d="M875.594 632.635V558.055H905.878C909.946 558.055 913.637 558.394 916.952 559.072C920.266 559.674 923.204 560.578 925.766 561.784C928.327 562.989 930.474 564.496 932.207 566.304C934.015 568.036 935.371 570.07 936.275 572.406C937.179 574.666 937.631 577.189 937.631 579.977C937.631 582.613 937.216 585.024 936.388 587.209C935.559 589.318 934.316 591.164 932.659 592.746C931.001 594.328 928.93 595.646 926.444 596.701C923.958 597.68 921.057 598.358 917.743 598.735V600.43C921.585 600.806 924.636 601.71 926.896 603.142C929.231 604.498 931.039 606.343 932.32 608.679C933.676 611.014 934.843 613.914 935.823 617.38L940.343 632.635H922.376L918.873 618.51C918.195 615.496 917.215 613.161 915.935 611.504C914.654 609.771 913.034 608.566 911.076 607.888C909.117 607.134 906.744 606.758 903.957 606.758H891.866V632.635H875.594ZM891.866 594.554H904.748C909.87 594.554 913.825 593.574 916.613 591.616C919.4 589.657 920.794 586.606 920.794 582.463C920.794 578.395 919.475 575.419 916.839 573.536C914.277 571.577 910.398 570.598 905.2 570.598H891.866V594.554Z" fill="white"/>
<path d="M802.977 632.635V558.055H833.939C838.534 558.055 842.64 558.469 846.256 559.298C849.872 560.051 852.96 561.219 855.522 562.801C858.158 564.383 860.155 566.454 861.511 569.016C862.942 571.502 863.658 574.477 863.658 577.943C863.658 580.881 863.017 583.442 861.737 585.627C860.531 587.811 858.61 589.582 855.974 590.938C853.412 592.294 850.022 593.235 845.804 593.763V595.458C852.96 595.985 858.196 597.793 861.511 600.882C864.901 603.895 866.596 607.963 866.596 613.086C866.596 617.38 865.466 620.996 863.206 623.934C861.021 626.796 857.706 628.981 853.262 630.488C848.817 631.919 843.318 632.635 836.764 632.635H802.977ZM818.458 619.527H836.538C841.359 619.527 844.937 618.811 847.273 617.38C849.608 615.873 850.776 613.575 850.776 610.487C850.776 606.946 849.307 604.309 846.369 602.577C843.431 600.769 838.986 599.865 833.035 599.865H818.458V619.527ZM818.458 589.695H830.662C836.538 589.695 840.832 588.904 843.544 587.322C846.331 585.664 847.725 583.254 847.725 580.09C847.725 576.926 846.482 574.628 843.996 573.197C841.51 571.69 837.705 570.937 832.583 570.937H818.458V589.695Z" fill="white"/>
<defs>
<clipPath id="clip0_1285_1245">
<rect width="147.288" height="147.288" fill="white" transform="translate(787.539 357.133)"/>
</clipPath>
<clipPath id="clip1_1285_1245">
<rect width="110.466" height="66.8827" fill="white" transform="translate(806.305 394.691)"/>
</clipPath>
<clipPath id="clip2_1285_1245">
<rect width="147.07" height="147.07" fill="white" transform="translate(787.539 357.242)"/>
</clipPath>
<clipPath id="clip3_1285_1245">
<rect width="147.288" height="147.288" fill="white" transform="translate(1064.27 357.133)"/>
</clipPath>
<clipPath id="clip4_1285_1245">
<rect width="84.1645" height="88.3727" fill="white" transform="translate(1096.19 386.947)"/>
</clipPath>
</defs>
</svg>
