<svg width="490" height="178" viewBox="0 0 490 178" fill="none" xmlns="http://www.w3.org/2000/svg">
<g clip-path="url(#clip0_2383_1055)">
<path fill-rule="evenodd" clip-rule="evenodd" d="M245.093 96.4695C233.98 96.4676 223.212 92.6104 214.626 85.5558C206.04 78.5012 200.167 68.6863 198.009 57.7852C195.851 46.884 197.542 35.5719 202.794 25.7784C208.045 15.9848 216.531 8.31645 226.805 4.08129C237.079 -0.153864 248.504 -0.69348 259.132 2.55449C269.759 5.80245 278.931 12.6368 285.082 21.8918C291.233 31.1468 293.983 42.2492 292.862 53.3052C291.741 64.3612 286.82 74.6859 278.936 82.5184C269.933 91.4445 257.771 96.4579 245.093 96.4695Z" fill="#0090FF"/>
<path fill-rule="evenodd" clip-rule="evenodd" d="M249.492 42.9281L262.006 44.6879C262.352 43.4244 262.661 42.3339 263.007 41.1005L250.048 39.1751C251.507 33.9105 252.846 28.8039 254.418 23.8401C255.058 22.1693 256.051 20.6559 257.328 19.4028C257.662 19.0254 258.081 18.7336 258.551 18.5517C259.021 18.3698 259.527 18.3032 260.028 18.3574C260.53 18.4085 261.012 18.5787 261.435 18.8538C261.857 19.1246 262.208 19.4936 262.458 19.9293C262.991 20.7253 263.584 21.4796 264.232 22.1855C264.585 22.6267 265.093 22.9162 265.653 22.9945C266.212 23.0728 266.78 22.934 267.241 22.6067C267.805 22.0652 267.79 20.8167 267.835 19.8691C267.835 19.4931 267.414 19.0418 267.083 18.6958C266.371 17.9376 265.511 17.3335 264.556 16.9208C263.602 16.5081 262.573 16.2957 261.532 16.2967C256.727 16.0861 253.26 18.5529 250.59 22.2457C247.92 25.9384 246.731 30.2178 245.453 34.4746C245.077 35.7306 244.753 36.9791 244.392 38.3479L230.629 36.3548C230.471 37.6033 230.306 38.769 230.148 40.0175L243.588 42.0857C242.994 44.6353 242.429 47.0194 241.843 49.4486L228.997 47.6587C228.824 49.0275 228.696 50.0578 228.531 51.2687L241.023 53.1564C241.053 53.4867 241.053 53.8189 241.023 54.1492C239.714 59.7447 238.496 65.4305 237.007 70.9508C236.431 73.7048 235.002 76.2074 232.923 78.1031C232.574 78.4692 232.144 78.7475 231.667 78.9154C230.948 79.1731 230.161 79.1706 229.444 78.9081C228.727 78.6456 228.124 78.1399 227.741 77.4789C227.223 76.5582 226.572 75.7193 225.808 74.9895C225.214 74.5533 223.891 74.2976 223.454 74.6435C223.113 74.9705 222.841 75.3642 222.658 75.8001C222.474 76.236 222.382 76.705 222.386 77.178C222.581 78.0546 223.103 78.8239 223.845 79.329C224.913 80.1134 226.142 80.6505 227.442 80.9016C228.743 81.1526 230.084 81.1113 231.366 80.7805C233.461 80.3706 235.426 79.463 237.096 78.1345C238.766 76.806 240.092 75.0953 240.963 73.1469C242.448 69.9816 243.704 66.7142 244.723 63.3697C245.716 60.3614 246.385 57.2703 247.213 54.1191L260.307 56.0219C260.668 54.7734 260.991 53.6227 261.337 52.3968L247.912 50.4188C248.476 47.7715 248.965 45.4626 249.492 42.9281Z" fill="white"/>
<mask id="mask0_2383_1055" style="mask-type:alpha" maskUnits="userSpaceOnUse" x="125" y="7" width="75" height="83">
<path fill-rule="evenodd" clip-rule="evenodd" d="M196.198 68.5295C193.12 61.104 191.783 53.0726 192.287 45.0504C192.792 37.0281 195.125 29.2276 199.109 22.2462C193.83 15.7742 186.717 11.0515 178.703 8.69936C170.69 6.34723 162.152 6.47582 154.213 9.06822C146.274 11.6606 139.306 16.5954 134.225 23.2234C129.144 29.8514 126.188 37.8622 125.746 46.202C125.305 54.5418 127.398 62.82 131.75 69.9476C136.103 77.0753 142.511 82.7184 150.132 86.1349C157.752 89.5513 166.229 90.581 174.446 89.0884C182.663 87.5958 190.236 83.6509 196.168 77.7727C197.212 76.7316 198.199 75.6344 199.124 74.486C198.026 72.5632 197.049 70.5739 196.198 68.5295V68.5295Z" fill="white"/>
</mask>
<g mask="url(#mask0_2383_1055)">
<path d="M167.113 89.7542C189.991 89.7542 208.538 71.2078 208.538 48.3295C208.538 25.4513 189.991 6.90479 167.113 6.90479C144.235 6.90479 125.688 25.4513 125.688 48.3295C125.688 71.2078 144.235 89.7542 167.113 89.7542Z" fill="#037D4B"/>
<path d="M148.999 51.0161L148.987 51.0175L148.444 51.0945L140.017 52.1811C140.021 51.4838 139.979 50.9092 139.862 50.3546C139.77 49.9211 139.633 49.5087 139.445 49.0666L150.948 49.1545V50.7548L149.545 50.9681L149.008 51.0151L148.999 51.0161Z" fill="white"/>
<path d="M139.314 48.2746C139.422 47.7158 139.478 47.2254 139.477 46.7263C139.476 46.2443 139.424 45.7641 139.323 45.2165L150.948 46.7254V48.3635L139.314 48.2746Z" fill="white"/>
<path d="M150.948 44.3376V45.9278L139.393 44.428C139.605 43.8971 139.747 43.4211 139.829 42.9254C139.909 42.436 139.928 41.9392 139.902 41.3652L150.948 44.3376Z" fill="white"/>
<path d="M150.724 43.4581L140.263 40.6431C140.672 40.2396 141.002 39.8517 141.277 39.4259C141.628 38.8827 141.879 38.2937 142.101 37.5577L148.226 40.5127L148.866 40.8324L148.875 40.8366L149.371 41.0698L150.129 41.7506L150.724 43.4581Z" fill="white"/>
<path d="M149.493 40.1135L148.796 39.9132V37.6006C148.844 37.5863 148.914 37.5749 148.996 37.5749C149.079 37.5749 149.445 37.5863 149.493 37.6006V40.1135Z" fill="white"/>
<path d="M149.493 51.7926V56.9211H148.895V51.8295L149.088 51.8022L149.493 51.7926Z" fill="white"/>
<path d="M165.171 57.7121V63.5585C161.355 63.7661 157.98 63.7742 155.427 63.5993C154.109 63.5089 153.02 63.3704 152.208 63.1888C151.802 63.098 151.474 62.9986 151.226 62.8937C150.982 62.7905 150.843 62.6943 150.775 62.621L148.549 59.634V57.7121H165.171Z" fill="white"/>
<path d="M142.85 59.0331L147.926 60.1207L150.151 63.108L150.171 63.132C150.351 63.338 150.618 63.4955 150.918 63.6224C151.225 63.752 151.602 63.8639 152.035 63.9608C152.902 64.1546 154.035 64.2968 155.373 64.3885C158.052 64.5721 161.6 64.5563 165.59 64.3274C167.272 64.2308 169.034 64.0964 170.845 63.9227C171.606 63.8498 172.375 63.7699 173.151 63.683C177.714 63.1719 182.494 62.4181 187.013 61.4028C187.374 61.3218 187.733 61.2391 188.09 61.1548C190.241 60.6466 192.324 60.0772 194.286 59.4444C190.096 62.905 187.571 65.3206 184.386 69.4203H153.697C151.201 69.4203 148.875 67.7523 146.931 65.5159C145.117 63.428 143.696 60.9129 142.85 59.0331Z" fill="white"/>
<path d="M172.711 62.9359C172.205 62.9913 171.702 63.0437 171.203 63.0932V53.6189L172.711 53.3871V62.9359Z" fill="white"/>
<path d="M187.603 54.9725V60.4565C187.51 60.4782 187.119 60.4999 187.025 60.5215V55.0087L187.603 54.9725Z" fill="white"/>
<path d="M188.887 53.9706L187.94 54.1316L186.876 54.2687L178.535 55.3511C178.615 54.7691 178.594 54.2532 178.47 53.7184C178.369 53.2797 178.202 52.8359 177.979 52.3427H188.887V53.9706Z" fill="white"/>
<path d="M177.901 51.5517C178.074 50.969 178.157 50.4543 178.151 49.9312C178.145 49.4327 178.059 48.9423 177.91 48.396L188.887 49.8424V51.5517H177.901Z" fill="white"/>
<path d="M188.887 47.3433V49.0445L178.015 47.6121C178.322 47.093 178.546 46.6186 178.68 46.1197C178.817 45.6122 178.856 45.0967 178.816 44.5029L188.887 47.3433Z" fill="white"/>
<path d="M188.686 46.4648L179.158 43.7776C179.625 43.3345 179.978 42.926 180.255 42.4999C180.589 41.9853 180.801 41.4611 180.974 40.8478L186.729 44.0258L187.765 44.6524L188.248 45.0695L188.686 46.4648Z" fill="white"/>
<path d="M187.603 43.6302L187.025 43.2625V40.833C187.059 40.8266 187.399 41.0199 187.452 41.0213C187.512 41.0229 187.564 41.0315 187.603 41.0422V43.6302Z" fill="white"/>
<path d="M174.667 35.5705L175.122 37.8787L157.773 32.8417C158.78 32.0775 159.499 31.3541 160.019 30.5387C160.605 29.6215 160.921 28.6158 161.137 27.3628L174.667 35.5705Z" fill="white"/>
<path d="M157.344 33.5406L175.24 38.7367V41.0639L156.098 38.1404C156.581 37.3621 156.933 36.6725 157.143 35.944C157.356 35.2065 157.417 34.4488 157.344 33.5406Z" fill="white"/>
<path d="M155.904 38.9109L175.24 41.8641V45.1262L155.193 43.6804C155.553 42.835 155.79 42.1026 155.907 41.3486C156.024 40.5867 156.016 39.82 155.904 38.9109Z" fill="white"/>
<path d="M155.198 44.4738L175.24 45.9193V48.3802L155.164 49.0867C155.437 48.248 155.603 47.5176 155.618 46.776C155.632 46.0386 155.496 45.312 155.198 44.4738Z" fill="white"/>
<path d="M156.055 51.8672C155.928 51.1846 155.665 50.554 155.285 49.874L175.17 49.1742L174.676 52.2849L170.755 52.8875L155.946 54.5774C156.163 53.5234 156.206 52.6743 156.055 51.8672Z" fill="white"/>
<path d="M172.566 28.4484C172.711 28.5238 172.711 28.5909 172.711 28.5909V33.4589L171.203 32.5437V28.5912C171.203 28.5663 171.208 28.5096 171.347 28.4386C171.489 28.3655 171.709 28.3188 171.954 28.3209C172.198 28.3229 172.42 28.3731 172.566 28.4484Z" fill="white"/>
</g>
<mask id="mask1_2383_1055" style="mask-type:alpha" maskUnits="userSpaceOnUse" x="290" y="6" width="75" height="84">
<path fill-rule="evenodd" clip-rule="evenodd" d="M357.641 25.5776C354.267 20.4459 349.794 16.1284 344.547 12.9373C339.299 9.74633 333.408 7.76161 327.299 7.12677C321.19 6.49193 315.017 7.22284 309.225 9.26663C303.434 11.3104 298.169 14.616 293.812 18.9442C292.765 19.987 291.773 21.0841 290.841 22.2308C295.367 30.1934 297.747 39.1954 297.747 48.3545C297.747 57.5136 295.367 66.5156 290.841 74.4782C297.562 82.6667 307.164 87.9701 317.674 89.2987C328.185 90.6274 338.804 87.8805 347.352 81.6223C355.9 75.3641 361.726 66.07 363.634 55.6495C365.542 45.2289 363.387 34.4734 357.611 25.5926L357.641 25.5776Z" fill="white"/>
</mask>
<g mask="url(#mask1_2383_1055)">
<path d="M322.951 89.6261C345.794 89.6261 364.312 71.1083 364.312 48.2654C364.312 25.4226 345.794 6.90479 322.951 6.90479C300.109 6.90479 281.591 25.4226 281.591 48.2654C281.591 71.1083 300.109 89.6261 322.951 89.6261Z" fill="#CC3339"/>
<path fill-rule="evenodd" clip-rule="evenodd" d="M335.965 29.3157V24.6251C335.731 25.4169 335.515 26.828 335.515 29.3157V72.5276H344.453V29.3157C344.453 26.5566 344.159 25.1268 343.872 24.398V29.3157H343.082V23.7189H342.092V29.3157H341.303V23.7189H340.313V29.3157H339.524V23.7189H338.534V29.3157H337.744V23.7189H336.755V29.3157H335.965ZM334.114 29.7104H334.726V72.5276H332.422V38.4693H333.563L334.114 29.7104ZM345.243 72.5276V29.7104H345.704L345.962 38.4693H347.087V72.5276H345.243ZM336.163 31.4896H343.704V30.7001H336.163V31.4896ZM336.163 33.221H343.704V32.4315H336.163V33.221ZM336.163 34.9488H343.704V34.1593H336.163V34.9488ZM336.163 36.6373H343.704V35.8478H336.163V36.6373ZM336.163 38.3687H343.704V37.5792H336.163V38.3687ZM336.163 40.1001H343.704V39.3106H336.163V40.1001ZM336.163 41.8315H343.704V41.042H336.163V41.8315ZM336.163 43.5629H343.704V42.7734H336.163V43.5629ZM336.163 45.2944H343.704V44.5048H336.163V45.2944ZM336.163 47.0258H343.704V46.2362H336.163V47.0258ZM336.163 48.7572H343.704V47.9677H336.163V48.7572ZM336.163 50.4886H343.704V49.6991H336.163V50.4886ZM336.163 52.22H343.704V51.4305H336.163V52.22ZM336.163 53.9514H343.704V53.1619H336.163V53.9514ZM336.163 55.6828H343.704V54.8933H336.163V55.6828ZM336.163 57.4142H343.704V56.6247H336.163V57.4142ZM336.163 59.1456H343.704V58.3561H336.163V59.1456ZM336.163 60.877H343.704V60.0875H336.163V60.877ZM336.163 62.6085H343.704V61.8189H336.163V62.6085ZM336.163 64.3399H343.704V63.5504H336.163V64.3399ZM336.163 66.0713H343.704V65.2818H336.163V66.0713ZM336.163 67.8027H343.704V67.0132H336.163V67.8027ZM336.163 69.5341H343.704V68.7446H336.163V69.5341ZM336.163 71.2655H343.704V70.476H336.163V71.2655Z" fill="#FCCB36"/>
<path fill-rule="evenodd" clip-rule="evenodd" d="M320.382 36.0014L319.211 37.1725V27.7808H320.382V30.3098H326.01V27.7808H327.035V37.2135L326.01 36.1887V31.2796H320.382V36.0014ZM317.795 39.7055L322.708 34.7925V44.6184L317.795 39.7055ZM323.497 44.6184V34.7925L328.41 39.7055L323.497 44.6184ZM323.661 45.5714L328.574 40.6585V50.4844L323.661 45.5714ZM323.497 46.5245L328.41 51.4374L323.497 56.3503V46.5245ZM322.708 46.5245V56.3503L317.795 51.4374L322.708 46.5245ZM322.544 45.5714L317.631 50.4844V40.6585L322.544 45.5714ZM322.544 57.3034L317.631 52.3904V62.2163L322.544 57.3034ZM317.631 72.6266V64.1224L322.708 69.1988V72.6266H317.631ZM328.574 64.1224L323.497 69.1988V72.6266H328.574V64.1224ZM328.574 52.3904V62.2163L323.661 57.3034L328.574 52.3904ZM323.497 68.0823V58.2564L328.41 63.1693L323.497 68.0823ZM317.795 63.1693L322.708 68.0823V58.2564L317.795 63.1693Z" fill="#FCCB36"/>
<path fill-rule="evenodd" clip-rule="evenodd" d="M312.717 44.7964H299.66V41.6452L303.899 37.406V31.4537L305.484 30.587V24.3232H306.892V30.587L308.478 31.4537V37.406L312.717 41.6452V44.7964ZM300.852 72.8134H298.815V45.1912H313.783V72.8134H311.249V50.1014H308.872V47.6147H303.504V50.1014H300.852V72.8134ZM305.089 72.8134H303.057V52.4036H305.484V49.6649H306.892V52.4036H309.388V72.8134H307.286V53.5342H305.089V72.8134ZM307.286 31.7633H305.089V33.614H307.286V31.7633ZM307.286 34.918H305.089V36.8381H307.286V34.918ZM308.117 38.4887H304.502L302.155 41.2408H310.424L308.117 38.4887ZM303.057 42.4407H300.852V44.2568H303.057V42.4407ZM308.222 42.4407H304.396V44.2568H308.222V42.4407ZM311.249 42.4407H309.388V44.2568H311.249V42.4407Z" fill="#FCCB36"/>
</g>
<path d="M18.1436 124.881V140.803H36.8627V145.825H18.1436V165.402H11.978V119.859H40.0409V124.881H18.1436Z" fill="#172736"/>
<path d="M52.1768 165.402H46.0113V119.859H52.1768V165.402Z" fill="#172736"/>
<path d="M87.7575 160.222V165.402H61.9193V119.859H68.0531V160.222H87.7575Z" fill="#172736"/>
<path d="M139.433 119.478V165.783H128.627V146.206H109.813V165.783H99.0073V119.478H109.813V138.833H128.627V119.478H139.433Z" fill="#172736"/>
<path d="M191.958 142.615C191.958 145.962 191.375 149.077 190.21 151.958C189.065 154.84 187.445 157.351 185.347 159.491C183.249 161.609 180.718 163.273 177.751 164.48C174.806 165.688 171.533 166.292 167.931 166.292C164.329 166.292 161.045 165.688 158.079 164.48C155.112 163.273 152.57 161.609 150.451 159.491C148.354 157.351 146.722 154.84 145.557 151.958C144.413 149.077 143.841 145.962 143.841 142.615C143.841 139.267 144.413 136.153 145.557 133.271C146.722 130.39 148.354 127.889 150.451 125.771C152.57 123.652 155.112 121.989 158.079 120.781C161.045 119.573 164.329 118.969 167.931 118.969C171.533 118.969 174.806 119.584 177.751 120.813C180.718 122.02 183.249 123.684 185.347 125.802C187.445 127.921 189.065 130.421 190.21 133.303C191.375 136.184 191.958 139.288 191.958 142.615ZM180.961 142.615C180.961 140.326 180.665 138.271 180.071 136.449C179.478 134.606 178.62 133.049 177.497 131.777C176.395 130.506 175.039 129.531 173.429 128.853C171.819 128.175 169.986 127.836 167.931 127.836C165.855 127.836 164.001 128.175 162.369 128.853C160.759 129.531 159.392 130.506 158.269 131.777C157.168 133.049 156.32 134.606 155.727 136.449C155.134 138.271 154.837 140.326 154.837 142.615C154.837 144.924 155.134 147.001 155.727 148.844C156.32 150.666 157.168 152.213 158.269 153.484C159.392 154.755 160.759 155.73 162.369 156.408C164.001 157.065 165.855 157.393 167.931 157.393C169.986 157.393 171.819 157.065 173.429 156.408C175.039 155.73 176.395 154.755 177.497 153.484C178.62 152.213 179.478 150.666 180.071 148.844C180.665 147.001 180.961 144.924 180.961 142.615Z" fill="#172736"/>
<path d="M236.798 119.478V165.783H231.204C230.378 165.783 229.679 165.656 229.107 165.402C228.556 165.126 228.005 164.66 227.454 164.004L205.621 136.386C205.705 137.212 205.758 138.017 205.779 138.801C205.822 139.564 205.843 140.284 205.843 140.962V165.783H196.372V119.478H202.029C202.495 119.478 202.887 119.499 203.205 119.542C203.523 119.584 203.809 119.669 204.063 119.796C204.317 119.902 204.561 120.061 204.794 120.273C205.027 120.484 205.292 120.77 205.589 121.131L227.613 148.939C227.507 148.049 227.433 147.191 227.391 146.365C227.348 145.517 227.327 144.723 227.327 143.981V119.478H236.798Z" fill="#172736"/>
<path d="M266.122 141.788H282.585V161.334C280.212 163.071 277.68 164.332 274.989 165.116C272.319 165.9 269.523 166.292 266.599 166.292C262.785 166.292 259.31 165.699 256.175 164.512C253.06 163.304 250.39 161.652 248.166 159.554C245.941 157.435 244.225 154.935 243.017 152.054C241.809 149.151 241.206 146.005 241.206 142.615C241.206 139.161 241.778 135.994 242.922 133.112C244.066 130.209 245.697 127.709 247.816 125.612C249.956 123.514 252.53 121.883 255.539 120.717C258.569 119.552 261.948 118.969 265.677 118.969C267.605 118.969 269.417 119.128 271.112 119.446C272.807 119.764 274.364 120.198 275.784 120.749C277.224 121.3 278.538 121.957 279.724 122.72C280.911 123.482 281.97 124.309 282.903 125.199L279.788 129.934C279.301 130.676 278.665 131.131 277.881 131.301C277.118 131.47 276.292 131.279 275.402 130.729C274.555 130.22 273.75 129.786 272.987 129.426C272.245 129.044 271.483 128.737 270.699 128.504C269.915 128.271 269.088 128.101 268.22 127.995C267.351 127.889 266.376 127.836 265.296 127.836C263.283 127.836 261.471 128.197 259.861 128.917C258.251 129.616 256.874 130.612 255.73 131.904C254.607 133.197 253.738 134.754 253.124 136.576C252.509 138.377 252.202 140.39 252.202 142.615C252.202 145.072 252.541 147.255 253.219 149.162C253.897 151.069 254.85 152.679 256.079 153.992C257.329 155.306 258.812 156.312 260.529 157.012C262.266 157.69 264.183 158.029 266.281 158.029C267.573 158.029 268.739 157.902 269.777 157.647C270.836 157.393 271.864 157.054 272.86 156.63V149.607H268.283C267.605 149.607 267.076 149.427 266.694 149.066C266.313 148.706 266.122 148.251 266.122 147.7V141.788Z" fill="#172736"/>
<path d="M311.449 138.229H313.165C314.754 138.229 315.898 137.731 316.597 136.735L327.021 121.607C327.636 120.802 328.293 120.251 328.992 119.955C329.712 119.637 330.602 119.478 331.661 119.478H341.005L327.276 138.197C326.301 139.49 325.252 140.422 324.129 140.994C324.934 141.291 325.665 141.704 326.322 142.233C326.979 142.763 327.593 143.452 328.166 144.299L342.149 165.783H332.551C331.937 165.783 331.407 165.741 330.962 165.656C330.539 165.571 330.168 165.444 329.85 165.275C329.532 165.105 329.257 164.904 329.024 164.671C328.791 164.417 328.568 164.131 328.356 163.813L317.868 147.7C317.487 147.106 317 146.693 316.406 146.46C315.834 146.206 315.05 146.079 314.055 146.079H311.449V165.783H300.707V119.478H311.449V138.229Z" fill="#172736"/>
<path d="M387.077 142.615C387.077 145.962 386.494 149.077 385.329 151.958C384.185 154.84 382.564 157.351 380.467 159.491C378.369 161.609 375.837 163.273 372.871 164.48C369.926 165.688 366.652 166.292 363.05 166.292C359.449 166.292 356.165 165.688 353.198 164.48C350.232 163.273 347.69 161.609 345.571 159.491C343.473 157.351 341.842 154.84 340.676 151.958C339.532 149.077 338.96 145.962 338.96 142.615C338.96 139.267 339.532 136.153 340.676 133.271C341.842 130.39 343.473 127.889 345.571 125.771C347.69 123.652 350.232 121.989 353.198 120.781C356.165 119.573 359.449 118.969 363.05 118.969C366.652 118.969 369.926 119.584 372.871 120.813C375.837 122.02 378.369 123.684 380.467 125.802C382.564 127.921 384.185 130.421 385.329 133.303C386.494 136.184 387.077 139.288 387.077 142.615ZM376.081 142.615C376.081 140.326 375.784 138.271 375.191 136.449C374.598 134.606 373.74 133.049 372.617 131.777C371.515 130.506 370.159 129.531 368.549 128.853C366.938 128.175 365.106 127.836 363.05 127.836C360.974 127.836 359.12 128.175 357.489 128.853C355.878 129.531 354.512 130.506 353.389 131.777C352.287 133.049 351.44 134.606 350.846 136.449C350.253 138.271 349.957 140.326 349.957 142.615C349.957 144.924 350.253 147.001 350.846 148.844C351.44 150.666 352.287 152.213 353.389 153.484C354.512 154.755 355.878 155.73 357.489 156.408C359.12 157.065 360.974 157.393 363.05 157.393C365.106 157.393 366.938 157.065 368.549 156.408C370.159 155.73 371.515 154.755 372.617 153.484C373.74 152.213 374.598 150.666 375.191 148.844C375.784 147.001 376.081 144.924 376.081 142.615Z" fill="#172736"/>
<path d="M431.917 119.478V165.783H426.324C425.498 165.783 424.798 165.656 424.226 165.402C423.676 165.126 423.125 164.66 422.574 164.004L400.74 136.386C400.825 137.212 400.878 138.017 400.899 138.801C400.941 139.564 400.963 140.284 400.963 140.962V165.783H391.492V119.478H397.149C397.615 119.478 398.007 119.499 398.325 119.542C398.642 119.584 398.929 119.669 399.183 119.796C399.437 119.902 399.681 120.061 399.914 120.273C400.147 120.484 400.412 120.77 400.708 121.131L422.733 148.939C422.627 148.049 422.553 147.191 422.51 146.365C422.468 145.517 422.447 144.723 422.447 143.981V119.478H431.917Z" fill="#172736"/>
<path d="M461.242 141.788H477.704V161.334C475.331 163.071 472.799 164.332 470.109 165.116C467.439 165.9 464.642 166.292 461.718 166.292C457.905 166.292 454.43 165.699 451.294 164.512C448.18 163.304 445.51 161.652 443.285 159.554C441.061 157.435 439.344 154.935 438.137 152.054C436.929 149.151 436.325 146.005 436.325 142.615C436.325 139.161 436.897 135.994 438.041 133.112C439.185 130.209 440.817 127.709 442.936 125.612C445.076 123.514 447.65 121.883 450.658 120.717C453.688 119.552 457.068 118.969 460.797 118.969C462.725 118.969 464.536 119.128 466.231 119.446C467.926 119.764 469.484 120.198 470.903 120.749C472.344 121.3 473.657 121.957 474.844 122.72C476.03 123.482 477.09 124.309 478.022 125.199L474.908 129.934C474.42 130.676 473.785 131.131 473.001 131.301C472.238 131.47 471.412 131.279 470.522 130.729C469.674 130.22 468.869 129.786 468.106 129.426C467.365 129.044 466.602 128.737 465.818 128.504C465.034 128.271 464.208 128.101 463.339 127.995C462.47 127.889 461.496 127.836 460.415 127.836C458.402 127.836 456.591 128.197 454.981 128.917C453.37 129.616 451.993 130.612 450.849 131.904C449.726 133.197 448.858 134.754 448.243 136.576C447.629 138.377 447.321 140.39 447.321 142.615C447.321 145.072 447.66 147.255 448.338 149.162C449.016 151.069 449.97 152.679 451.199 153.992C452.449 155.306 453.932 156.312 455.648 157.012C457.385 157.69 459.303 158.029 461.401 158.029C462.693 158.029 463.858 157.902 464.896 157.647C465.956 157.393 466.983 157.054 467.979 156.63V149.607H463.403C462.725 149.607 462.195 149.427 461.814 149.066C461.432 148.706 461.242 148.251 461.242 147.7V141.788Z" fill="#172736"/>
</g>
<defs>
<clipPath id="clip0_2383_1055">
<rect width="488.544" height="177.084" fill="white" transform="translate(0.728027 0.458252)"/>
</clipPath>
</defs>
</svg>
