<?xml version="1.0" encoding="UTF-8"?><svg id="Livello_1" xmlns="http://www.w3.org/2000/svg" viewBox="0 0 165.37 86.37"><path d="M26.47,48.44v3.12c-2.42,4.07-5.7,6.45-10.54,6.45-6.87,0-11.45-5.15-11.45-11.78s4.75-11.78,11.45-11.78c4.58,0,8.43,2.51,10.5,6.5h4.84c-3.07-6.63-8.77-10.82-15.34-10.82-9.38,0-15.77,6.89-15.77,16.11s6.57,16.06,15.77,16.06c4.02,0,7.69-1.17,10.54-3.59v3.21h4.28v-17.88h-14.56v4.42h10.28Z" style="fill:#fff; stroke-width:0px;"/><path d="M43.5,57.97c-4.02,0-6.48-2.17-7.17-5.76h18.66c0-8.66-4.71-14.46-11.71-14.46s-11.58,5.5-11.58,12.3c0,7.19,4.24,11.95,11.75,12.17h.09c5.31-.04,9.33-3.51,11.23-8.49h-4.54c-1.34,2.51-3.67,4.24-6.74,4.24h0ZM43.28,41.99c3.85,0,6.48,2.51,7.3,6.02h-14.39c.78-3.51,3.41-6.02,7.09-6.02Z" style="fill:#fff; stroke-width:0px;"/><path d="M60.01,49.18c.73-3.72,3.41-7.19,7.35-7.19,4.58,0,7.47,3.64,7.47,8.05v11.86h4.15v-11.86c0-6.8-4.54-12.3-11.62-12.3-2.94,0-5.4,1.04-7.43,2.68l-.09-2.81h-4.28l.17,24.29h4.28v-12.73h0Z" style="fill:#fff; stroke-width:0px;"/><path d="M95.32,47.32c4.92-.43,8.64-2.64,8.64-8.31,0-6.71-5.23-8.53-10.89-8.53h-12.57v31.43h2.38v-14.55h9.5l9.55,14.55h2.94l-9.55-14.59h0ZM93.07,32.77c4.24,0,8.56,1.3,8.56,6.23s-4.32,6.06-8.56,6.06h-10.2v-12.3h10.2Z" style="fill:#fff; stroke-width:0px;"/><path d="M102.14,61.9h2.72s4.67-9.51,4.67-9.51h16.38l4.71,9.52h2.68l-15.55-31.43-15.6,31.42h0ZM110.61,50.22l7.13-14.42,7.04,14.42h-14.17,0Z" style="fill:#fff; stroke-width:0px;"/><path d="M151.47,32.77v29.14h2.42v-29.14h11.32v-2.21h-25.06v2.21h11.32,0Z" style="fill:#fff; stroke-width:0px;"/><path d="M135.61,52.1c.09-.09.18-.18.29-.29-.33-.39-.63-.79-.9-1.22-.44-.72-.78-1.49-1-2.3-.08-.3-.14-.61-.2-.93-.1-.76-.1-1.53,0-2.3.05-.31.11-.62.2-.93.21-.81.55-1.58,1-2.3.27-.43.57-.84.9-1.23-.1-.11-.19-.2-.28-.29l-.68-.5c-.12-.09-.43-.32-.84-.69-1.27,1.47-2.71,3.85-2.71,7.08s1.44,5.61,2.71,7.08c.34-.31.64-.54.84-.7l.67-.49h0Z" style="fill:#fff; stroke-width:0px;"/><path d="M138.23,54.41c-.36.37-.76.71-1.18,1.02l-.3.23c.57.56,1.05,1.19,1.46,1.87.44.72.76,1.49.96,2.3.17.65.25,1.33.25,2h2.36c0-3.72-1.9-6.32-3.27-7.69-.1.1-.2.2-.28.28h0Z" style="fill:#fff; stroke-width:0px;"/><path d="M137.06,36.99c.41.31.8.64,1.17,1,.09.09.18.18.29.29,1.36-1.37,3.26-4,3.26-7.72h-2.36c0,.68-.08,1.37-.25,2.03-.21.81-.53,1.58-.96,2.3-.41.68-.9,1.31-1.47,1.88l.31.23Z" style="fill:#fff; stroke-width:0px;"/><path d="M141.18,46.21c0,3.56-1.75,6.1-3.1,7.52-.09.1-.19.2-.28.29-.35.35-.72.67-1.11.97l-.41.3-.29.21c-.63.6-1.18,1.29-1.63,2.04-.44.72-.76,1.49-.97,2.3-.16.65-.25,1.33-.25,2h-2.36c0-3.82,2.02-6.46,3.38-7.81.11-.1.21-.2.31-.29.26-.24.52-.46.81-.67l.71-.51c.09-.09.19-.18.29-.29.49-.5.92-1.06,1.29-1.65.44-.72.77-1.49.99-2.3.08-.31.15-.62.19-.93v-.07c.02-.18.04-.37.05-.55.01-.18.02-.35.02-.53s0-.35-.02-.53c-.01-.17-.03-.36-.05-.54v-.08c-.04-.31-.11-.62-.19-.93-.22-.81-.55-1.58-.99-2.3-.37-.6-.8-1.15-1.29-1.66-.11-.11-.2-.21-.29-.29l-.71-.52c-.16-.13-.45-.34-.81-.67-.09-.09-.19-.18-.3-.29-1.37-1.35-3.38-4.02-3.38-7.85h2.36c0,.68.08,1.38.25,2.04.21.81.53,1.58.96,2.3.45.75,1,1.44,1.63,2.04l.29.22.41.3c.39.29.77.61,1.11.96.1.09.19.19.29.29,1.35,1.41,3.09,3.94,3.09,7.51h0Z" style="fill:#fff; stroke-width:0px;"/><path d="M138.18,47.29c.05-.36.07-.72.07-1.08,0-.36-.02-.72-.07-1.07,0-.03,0-.05,0-.08h-4.36c-.1.76-.1,1.53,0,2.3h4.36s0-.04,0-.07Z" style="fill:#fff; stroke-width:0px;"/><path d="M137.95,44.13c-.2-.71-.5-1.38-.88-2.01-.06-.1-.13-.19-.18-.29h-1.89c-.44.72-.78,1.49-1,2.3h3.95Z" style="fill:#fff; stroke-width:0px;"/><path d="M137.07,50.29c.39-.62.68-1.3.88-2.01h-3.94c.22.81.55,1.58,1,2.3h1.88c.07-.09.12-.19.19-.29Z" style="fill:#fff; stroke-width:0px;"/><path d="M134.6,32.59c.19.71.48,1.38.87,2.01.05.1.12.19.18.29h2.57c.43-.72.75-1.49.96-2.3h-4.58Z" style="fill:#fff; stroke-width:0px;"/><path d="M135.65,57.53c-.06.1-.13.19-.19.29-.38.63-.68,1.3-.87,2.01h4.58c-.2-.81-.53-1.58-.96-2.3h-2.56Z" style="fill:#fff; stroke-width:0px;"/><path d="M137.24,28.27c2.25-.52,3.65-2.72,3.12-4.92-.53-2.2-2.79-3.56-5.04-3.04-2.25.52-3.65,2.72-3.12,4.92s2.79,3.56,5.04,3.04Z" style="fill:#fff; stroke-width:0px;"/></svg>