<?xml version="1.0" encoding="UTF-8"?><svg id="Livello_1" xmlns="http://www.w3.org/2000/svg" viewBox="0 0 180.53 86.37"><path d="M7.93,26.07c-.14.09-1.83,1.8-3.76,3.8-2.47,2.56-3.51,3.69-3.51,3.82,0,.29.16.59.38.69.14.07,4.98.09,17.45.09,15.19,0,17.28-.02,17.51-.13.14-.07,1.86-1.78,3.81-3.8,3.23-3.34,3.55-3.7,3.55-3.95,0-.18-.07-.35-.2-.49l-.2-.21h-17.4c-16.92,0-17.4,0-17.64.16ZM60.2,34.79c-.9.2-1.68.66-2.38,1.39-.71.74-1.08,1.4-1.31,2.35-.3,1.2-.14,2.5.43,3.63.35.69,1.35,1.72,2.01,2.08,1.08.58,1.33.61,5.65.61h3.87l.42.21c.26.13.51.35.65.57.21.31.24.42.24,1s-.03.69-.24,1c-.15.22-.39.43-.65.57l-.42.22h-8.67l-1.21,1.07c-.67.59-1.29,1.16-1.4,1.28-.23.26-.24.57-.02.79.16.17.27.17,5.77.17,4.61,0,5.71-.02,6.18-.13,2.22-.48,3.9-2.62,3.9-4.97s-1.68-4.48-3.9-4.97c-.46-.1-1.35-.13-4.4-.13h-3.82s-.43-.22-.43-.22c-.28-.15-.51-.34-.65-.57-.19-.3-.22-.43-.22-.99s.03-.7.22-.99c.14-.22.37-.42.65-.57l.43-.22h8.68l1.25-1.19c.69-.66,1.29-1.29,1.33-1.4.06-.16.04-.26-.09-.44l-.17-.23h-5.58c-4.52-.03-5.68,0-6.11.09ZM80.19,34.78c-.87.28-1.68,1.05-2.01,1.9l-.19.48v12.05l.2.51c.27.7,1.02,1.47,1.69,1.75l.49.2h12.24l.47-.2c.66-.27,1.31-.91,1.64-1.61l.27-.56.02-5.93c.03-6.61.04-6.47-.53-7.33-.34-.52-.67-.8-1.32-1.11l-.47-.23-6.08-.02c-4.86-.01-6.15,0-6.42.1ZM100.32,34.83c-.15.17-.16.43-.16,8.37v8.19l.19.16c.19.16.41.16,6.55.16h6.35l.65-.7c1.27-1.36,1.39-1.57,1.1-1.92-.14-.18-.16-.18-5.79-.2-5.29-.02-5.65-.03-5.79-.17-.14-.14-.15-.55-.17-6.96-.02-6.16-.03-6.82-.16-6.96-.12-.14-.28-.15-1.38-.15-1.16,0-1.26.01-1.4.18ZM121.56,34.79c-.87.24-1.6.9-1.99,1.78l-.19.42-.02,7.22-.02,7.22.18.15c.15.13.36.15,1.4.15,1.11,0,1.24-.02,1.39-.17.16-.16.16-.28.16-3.1v-2.93l.2-.21.2-.21h4.81c4.81,0,5.06.01,5.23.29.03.05.06,1.42.06,3.04,0,2.84,0,2.96.16,3.12.15.15.27.17,1.39.17,1.04,0,1.25-.02,1.4-.15l.18-.15-.02-7.22-.02-7.22-.27-.57c-.32-.68-.92-1.25-1.58-1.53q-.45-.19-6.32-.21c-4.97-.01-5.94,0-6.32.11ZM141.29,34.79l-.18.13v8.26c0,7.89,0,8.26.15,8.4.21.2,2.51.21,2.79,0l.18-.13v-5.5c0-5.44,0-5.5.17-5.72.11-.15.25-.22.41-.22.21,0,.76.63,5.1,5.86l4.87,5.86h2.82l.17-.22c.17-.22.17-.26.17-8.31s0-8.08-.17-8.31l-.17-.22h-2.52l-.17.22c-.17.22-.17.29-.17,5.81s0,5.59-.16,5.76c-.3.31-.52.22-1.09-.45-.29-.34-2.44-2.98-4.78-5.88-2.34-2.89-4.31-5.31-4.38-5.37-.2-.17-2.79-.15-3.03.03ZM165.17,34.77c-.88.25-1.72,1.03-2.06,1.91l-.19.48-.02,7.05-.02,7.05.17.23.17.23h1.25c1.77,0,1.61.34,1.61-3.34,0-2.83,0-2.95.16-3.11.16-.17.27-.17,5.13-.17s4.97,0,5.13.17c.16.16.16.28.16,3.09s0,2.92.17,3.14l.17.22h1.27c1.16,0,1.28-.01,1.43-.17.16-.17.16-.28.16-7.17s0-7.02-.15-7.51c-.27-.91-.83-1.53-1.78-1.98l-.41-.19-5.99-.02c-4.58-.01-6.09,0-6.37.09ZM123.84,37.49c-.54.15-.95.51-1.18,1.02-.19.41-.2.52-.2,2.11,0,1.56,0,1.69.16,1.85.16.17.27.17,5.09.17s4.93,0,5.1-.18c.16-.17.17-.25.14-1.93-.03-1.75-.03-1.76-.26-2.16-.27-.47-.68-.78-1.21-.9-.56-.13-7.17-.11-7.65.03ZM167.46,37.49c-.54.15-.95.51-1.18,1.02-.18.41-.2.52-.2,2.11,0,1.56.01,1.69.16,1.85.16.17.27.17,5.13.17s4.97,0,5.14-.17c.16-.17.17-.25.14-1.93-.02-1.59-.04-1.79-.2-2.1-.23-.45-.75-.85-1.27-.97-.62-.14-7.23-.11-7.74.03ZM82.34,37.83c-.38.17-.77.55-.97.93-.18.35-.18.39-.18,4.25v3.9l.19.41c.11.22.32.5.47.63.56.44.61.45,4.67.45h3.78s.42-.2.42-.2c.48-.23.87-.68,1.01-1.15.06-.22.09-1.51.09-4.07,0-4.13,0-4.1-.52-4.67-.56-.61-.47-.6-4.82-.6-3.03,0-3.96.03-4.15.11ZM.86,39.02c-.13.14-.2.3-.2.49,0,.25.32.61,3.55,3.96,2.01,2.08,3.67,3.73,3.82,3.8.22.1,2.94.12,17.6.12h17.34l.2-.21c.14-.14.2-.3.2-.51,0-.29-.18-.49-3.58-3.97-1.97-2.02-3.66-3.71-3.76-3.77-.14-.08-4.08-.1-17.57-.11H1.06s-.2.21-.2.21ZM8.01,52.02c-.14.07-1.85,1.78-3.8,3.8-3.23,3.34-3.55,3.7-3.55,3.95,0,.18.07.35.2.49l.2.21h34.8l.37-.24c.2-.13,1.89-1.83,3.75-3.76,3.25-3.38,3.39-3.53,3.39-3.83,0-.22-.06-.38-.2-.53l-.2-.21h-17.35c-15.25,0-17.38.02-17.6.13Z" style="fill:#fff; fill-rule:evenodd; isolation:isolate; stroke-width:0px;"/></svg>