<?xml version="1.0" encoding="UTF-8"?><svg id="Livello_1" xmlns="http://www.w3.org/2000/svg" viewBox="0 0 86.37 86.37"><path d="M30.14.03c-2.11.12-3.78.3-5.19.56-6.7,1.24-12.98,4.98-17.53,10.46C2.99,16.38.42,22.86.04,29.68c-.23,4.13.44,8.39,2.53,16.09.4,1.48,3.28,11.66,4.72,16.7.38,1.33.85,2.97,1.04,3.64l.35,1.22h.83c.78.03.83.02.8-.07-.02-.05-.38-1.31-.82-2.8-.44-1.49-.98-3.34-1.21-4.12-.23-.77-.66-2.26-.97-3.29-.3-1.04-1.11-3.78-1.79-6.1-.68-2.32-1.23-4.23-1.22-4.24.01-.01.13.19.27.45,2.06,3.83,5.43,7.44,9.4,10.06,4.13,2.73,8.57,4.35,13.49,4.94.89.11,1.25.12,3.26.12,2.42,0,3.01-.04,4.86-.32,4.13-.64,8.12-2.17,11.31-4.33.26-.17.47-.31.48-.3,0,0-.34.4-.77.87-2.18,2.34-4.48,4.82-7.6,8.18-1.08,1.17-2.18,2.35-2.45,2.63-.42.45-6.32,6.79-8.72,9.37-1.08,1.17-3.58,3.86-5.73,6.17-.88.94-1.59,1.73-1.59,1.77,0,.04.33.06,1.01.06h1.01l2.21-2.37c4.11-4.42,17.01-18.29,21.85-23.48,4.23-4.55,6.38-7.02,8.28-9.56,1.5-2.01,2.79-4.12,3.83-6.29,1.8-3.76,2.67-7.31,2.82-11.57l.04-1.05.93,4.29c.51,2.36,1.22,5.6,1.56,7.19.35,1.59.77,3.54.94,4.33.17.79,1.32,6.05,2.54,11.68,2.93,13.44,4.91,22.56,5.62,25.81l.22,1.01h.81c.45.02.83.01.85-.01.02-.02,0-.2-.04-.39-.04-.19-.21-.92-.36-1.62-.16-.7-.39-1.75-.52-2.34-5.68-25.48-9.45-42.6-10.93-49.65-.61-2.89-1.36-5.86-2.08-8.19-1.16-3.75-2.63-7.05-4.08-9.12l-.34-.48-.67-.32c-.75-.36-1.99-.84-2.04-.79,0,0,.17.25.38.54,2.99,4.05,4.97,9.21,5.56,14.52.11,1.02.15,3.45.08,4.6-.49,7.3-3.54,14.01-8.68,19.11-6.17,6.12-14.46,9.14-23.02,8.38-4.86-.43-9.46-2.06-13.54-4.78-3.56-2.37-6.65-5.63-8.89-9.36-2.29-3.8-3.64-7.97-4.1-12.59-.11-1.14-.13-4.02-.03-5.07.17-1.74.4-3.15.72-4.51,1.09-4.51,3.06-8.44,6.04-12.06.73-.89,2.69-2.87,3.56-3.6,3.55-2.98,7.48-5.01,11.79-6.08,2.45-.61,4.45-.85,7.01-.85,1.43,0,2.25.05,3.6.22,5.29.66,10.38,2.83,14.56,6.21.4.32.76.58.81.58.19,0,1.69.33,2.29.51.35.1.64.17.65.16.03-.03-1.39-1.34-1.95-1.81-2.98-2.52-6.44-4.45-10.06-5.63-.59-.19-1.12-.37-1.18-.4-.06-.03,1.03-.04,2.68-.02,1.53.01,6.81.05,11.74.08,4.93.03,10.35.06,12.05.08,3.49.03,17.02.11,18.99.11h1.29V.32l-3.05-.03c-3.3-.04-15.02-.12-27.44-.2C43.74,0,31.04-.02,30.14.03ZM77.65,7.84c-.01.07-.06.53-.11,1.02-.04.5-.24,2.5-.42,4.46-.19,1.96-.51,5.29-.71,7.41-.2,2.12-.44,4.59-.53,5.5-.32,3.29-.57,6-.79,8.31-.12,1.3-.23,2.4-.25,2.44s-.05-.1-.07-.32c-.37-3.56-1.47-7.21-3.23-10.75-1.5-3.02-3.05-5.21-5.37-7.56-3.25-3.31-6.99-5.75-11.27-7.35-5.49-2.06-11.69-2.48-17.42-1.17-2.47.56-4.6,1.33-6.92,2.51-2.61,1.32-4.67,2.73-6.86,4.71-.76.69-2.6,2.57-2.58,2.64,0,.02.3.26.64.54l.63.5.44-.48c2.37-2.6,5.37-4.89,8.45-6.45,3.66-1.86,7.58-2.87,11.7-3.03,6.26-.24,12.15,1.39,17.27,4.76,3.61,2.38,6.77,5.73,8.92,9.46,2.35,4.06,3.8,8.75,4.27,13.77.12,1.33.12,3.99,0,5.19-.43,4.23-1.72,8.31-3.74,11.88-.19.33-.34.63-.34.67,0,.12.45,2.12.48,2.12.04,0,.74-1.14,1.18-1.91.43-.76,1.3-2.49,1.63-3.26,1.67-3.89,2.75-8.73,3.62-16.15.42-3.54,1.07-9.93,2.21-21.56.07-.73.26-2.68.42-4.33.16-1.65.3-3.15.32-3.33l.03-.33h-.79c-.78,0-.79,0-.81.12ZM12.68,24c-2.62.41-4.56,1.98-5.33,4.28-.44,1.32-.42,3.28.04,4.58.52,1.48,1.54,2.66,2.9,3.37,1.05.55,2.17.81,3.59.81,1.29,0,2.25-.21,3.32-.74.89-.44.87-.42,1.02-1.27.07-.39.11-.72.09-.74-.02-.02-.26.16-.55.39-.83.68-1.39.99-2.26,1.24-.57.16-2.05.18-2.62.02-2.08-.57-3.52-2.2-3.89-4.42-.1-.62-.08-2,.05-2.57.47-2.08,1.84-3.58,3.73-4.1.49-.13,1.67-.16,2.22-.05.9.18,1.81.63,2.41,1.19.33.31.49.36.49.16,0-.05.09-.38.21-.72l.2-.63-.14-.06c-.83-.33-1.93-.62-2.91-.76-.65-.09-2-.09-2.59,0ZM41.85,28.18c.02,3.72-.03,6.56-.13,8.11l-.03.5h1.59l-.03-.42c-.11-1.73-.14-2.68-.17-5.68-.02-2.04,0-3.38.02-3.37.07.03,4.66,4.91,7.13,7.59.28.31.81.9,1.18,1.31l.66.76h.29s.29,0,.29,0v-5.08c0-3.47.02-5.5.07-6.4.04-.73.06-1.32.05-1.33,0,0-.19,0-.41.02-.22.02-.56.02-.75,0-.2-.01-.37-.01-.37,0,0,.01.02.59.06,1.27.04.69.09,2.78.1,4.64l.03,3.4-.84-.87c-1.28-1.34-6.85-7.19-7.81-8.22l-.36-.39h-.59l.02,4.16ZM20.41,24.17s0,.4.02.84c.08,1.5.12,7.34.05,9.35-.03,1.05-.08,2.04-.09,2.2l-.03.29.91-.04c1.16-.05,4.89-.05,6.06,0l.89.04v-1.4l-.39.03c-.79.06-2.58.14-4.06.17l-1.51.03v-4.9h.7c.81,0,3.14.09,3.56.14l.29.03v-1.35l-.47.04c-.97.07-2.39.13-3.22.14h-.85s0-1.24,0-1.24c0-.68.02-1.71.03-2.29l.03-1.05,1.61.04c.88.02,2.1.07,2.71.11.61.04,1.16.08,1.22.08.12,0,.12,0,.12-.64v-.64l-.2.04c-.25.05-6.91.05-7.17,0-.11-.02-.2-.02-.22,0ZM30.49,25.2c.06,1.4.06,9.21,0,10.56l-.04,1.04h1.96l-.03-.61c-.02-.34-.05-1.73-.07-3.09l-.03-2.48h.9l.39.44c.88.99,2.06,2.58,3.6,4.87l.59.87h1.12c.74,0,1.11,0,1.09-.04-.02-.03-.24-.29-.48-.58-1.17-1.37-4.45-5.4-4.5-5.53-.02-.05,0-.08.07-.08.28,0,1.19-.29,1.68-.54.99-.5,1.67-1.29,1.88-2.2.12-.51.08-1.36-.09-1.8-.53-1.42-1.98-1.99-4.64-1.83-.96.06-3.06.03-3.33-.04l-.12-.03.04,1.08ZM32.84,24.98c-.21.02-.4.05-.42.08-.06.06-.11,1.52-.12,3.35v1.53s1.03-.03,1.03-.03c.82-.02,1.13-.05,1.48-.14,1.26-.32,1.97-1.02,2.1-2.07.17-1.37-.59-2.39-2-2.68-.41-.08-1.3-.1-2.07-.04ZM13.36,42.36c.26,4.56,1.31,8.66,3.26,12.71.42.87.44.91.71,1.08.53.35,2.27,1.12,2.34,1.05.01-.01-.18-.37-.43-.78-.82-1.38-1.72-3.28-2.31-4.85-1.05-2.8-1.62-5.46-1.86-8.58l-.09-1.19h-.83s-.83-.03-.83-.03l.03.6ZM66.3,60.71c-2.47,2.91-5.53,5.32-8.95,7.05-3.42,1.73-6.69,2.66-10.79,3.06-1.14.11-3.89.08-5.15-.05-.93-.1-2.63-.36-2.71-.41-.03-.02-.44.4-1.12,1.13-.14.15-.25.29-.23.3.04.04,1.8.38,2.59.5,1.48.22,2.5.29,4.28.29.99,0,2.04-.03,2.49-.07,7.11-.62,13.54-3.54,18.78-8.52.81-.77,1.73-1.79,1.73-1.92,0-.13-.39-1.88-.42-1.91-.01-.01-.24.23-.5.54ZM20.74,61.68c0,.11,2.39,2.46,3.18,3.12,2.23,1.87,4.46,3.36,6.94,4.61.67.34,2.02.95,2.59,1.16l.35.13.61-.66c.34-.36.6-.67.58-.69s-.28-.12-.59-.23c-.95-.34-2.14-.86-3.2-1.4-2.61-1.32-4.67-2.76-6.83-4.73l-.57-.52-.46-.09c-.59-.11-1.61-.39-2.17-.6-.24-.09-.43-.14-.43-.11Z" style="fill:#fff; fill-rule:evenodd; stroke-width:0px;"/></svg>