<?xml version="1.0" encoding="UTF-8"?><svg id="Livello_1" xmlns="http://www.w3.org/2000/svg" viewBox="0 0 156.66 86.37"><path d="M12.82,19.53c-1.84.23-4.54.88-5.34,1.29-1.77.91-3.41,2.9-4.4,5.37-1.06,2.61-1.32,4.72-1.01,8.12.25,2.75.42,3.38,1.24,4.63.35.53.69,1.06.77,1.18.07.12.32.75.55,1.42.23.66.88,1.92,1.45,2.8l1.03,1.6-.58.55c-.32.3-.65.74-.74.97-.12.31-.4.45-1.06.56-1.67.25-3.99,1.22-3.99,1.67,0,.09.55.36,1.22.61,3.38,1.22,6.77,3.9,9.09,7.17.75,1.06,1.29,1.25,1.09.38-.07-.3-.18-1.09-.24-1.76-.2-2.07.79-3.55,3.22-4.79,1.95-1,3.62-1.46,4.81-1.32.83.1,1.05.07,1.05-.15,0-.16-.28-.33-.64-.4-1.35-.26-3.57-2.11-3.94-3.3-.09-.3-.19-.32-.57-.14-.72.33-1.11.09-.87-.55.35-.93.45-3.3.19-4.13-.14-.42-.64-1.19-1.13-1.71-.48-.52-.82-1.01-.75-1.07.07-.07.57-.17,1.12-.22.74-.07.92-.15.69-.28-.33-.19-.4-.72-.19-1.49.11-.41.23-.44,1.63-.44s1.53-.03,1.85-.53c.33-.51.35-.51.61-.15.46.64.28,2.41-.34,3.33-.77,1.14-.86,1.59-.4,2.05.32.33.59.37,1.79.32,1.58-.08,2.06-.34,1.45-.8-.36-.27-.76-.26-1.52.04-.19.07-.34-.03-.42-.29-.18-.57.06-.86.59-.72.4.1.47.03.59-.61.1-.54.06-.78-.17-.95-.24-.18-.25-.31-.09-.61.12-.21.26-.74.32-1.17.08-.62.21-.81.59-.92.46-.13.46-.14.05-.16-.55-.03-1.01-.9-.89-1.7.08-.52,0-.64-.58-.92-.37-.18-1.21-.43-1.86-.56-.91-.18-1.22-.33-1.31-.64-.14-.46.21-.79,1.23-1.17.35-.13.64-.3.64-.39,0-.17-2.22-2.83-2.53-3.02-.11-.07-.2-.22-.2-.33,0-.14.38-.16,1.22-.05.67.09,2.4.14,3.85.11,2.03-.04,2.68,0,2.85.21.33.41.63,1.71.76,3.34l.12,1.5-.66.23c-.72.25-2.31,1.72-2.31,2.13,0,.31.51.34.69.04.07-.12.51-.39.97-.59.94-.42,1.93-.25,1.72.3-.08.22.07.3.64.35.6.05.76.15.81.51.06.43.62.65.62.25,0-.3-.74-.99-1.07-.99-.16,0-.29-.08-.29-.17s.13-.28.29-.42c.44-.37.36-.69-.37-1.39-.6-.58-.67-.76-.79-2.14-.26-3-1.09-5.01-2.8-6.73-2.47-2.49-5.71-3.58-9.33-3.14ZM16.48,33.1c-.26.22-.4.41-.3.41.1,0,.01.14-.19.3-.34.26-.23.29,1.23.3,1.68,0,1.87-.11,1.33-.84-.42-.56-1.49-.65-2.06-.16ZM19.89,34.31c-.07.11.02.2.18.2s.3-.09.3-.2-.08-.2-.18-.2-.24.09-.3.2ZM22.95,34.51c-.59.24-.56.46.05.31.37-.09.52-.04.62.23.24.67.82.83,1.28.36.46-.47,1.38-.11,1.51.6.06.32.03.74-.07.95-.12.25-.11.33.03.24.29-.18.68-1.6.54-1.97-.08-.2-.36-.31-.79-.31-.37,0-.8-.13-.96-.3-.32-.32-1.52-.38-2.22-.09ZM16.49,34.9c-.24.16-.21.19.13.19.23,0,.48-.09.55-.19.15-.25-.3-.25-.68,0ZM21.98,35.19c-.33.38-.31.98.05,1.28.25.21.29.12.29-.67,0-1.01,0-1.01-.34-.62ZM22.67,35.23c.14.06.31.05.37-.02.06-.07-.05-.11-.26-.1-.23,0-.27.06-.12.12ZM16.97,35.49c.07.11.21.2.31.2s.14-.09.07-.2c-.07-.11-.21-.2-.31-.2s-.14.09-.07.2ZM22.81,35.88c.07.11.25.2.41.2s.24-.09.17-.2c-.07-.11-.25-.2-.41-.2s-.24.09-.17.2ZM110.26,46.73v8.68h2.53l.02-2.91c.01-1.6.08-3.44.15-4.08.12-1.1.18-1.22.97-1.82,1.01-.78,1.92-.86,2.48-.23.34.39.37.73.32,4.73l-.04,4.32h2.72v-4.87c0-4.5-.03-4.93-.4-5.7-.84-1.76-3.31-1.94-5.31-.39l-.71.55v-6.95h-2.72v8.68ZM32.54,39.48c-.64.22-1.2.43-1.23.46-.03.03,1.15,3.53,2.63,7.77l2.69,7.72,1.34-.06,1.34-.06,2.79-7.49c1.54-4.12,2.79-7.59,2.79-7.7,0-.27-2.36-1.13-2.54-.93-.08.08-1.08,2.92-2.24,6.31-1.16,3.39-2.14,6.12-2.19,6.07-.04-.04-.93-2.85-1.96-6.24-1.04-3.39-1.97-6.18-2.07-6.21-.1-.03-.71.14-1.35.36ZM101.17,39.33c-4.64,1.47-6.8,7.24-4.53,12.11,1.33,2.86,4.37,4.58,7.58,4.31,1.27-.11,3.09-.7,3.76-1.21.34-.26.33-.32-.15-1.28-.28-.55-.53-1-.56-1s-.45.19-.92.42c-1.07.52-3.15.71-4.17.37-1.53-.51-2.95-2.31-3.41-4.31-.65-2.85.87-6.15,3.2-6.93,1.14-.38,3-.18,4.2.45.57.3,1.05.52,1.07.49.23-.29,1.07-1.76,1.07-1.87,0-.28-1.64-1.2-2.71-1.51-1.26-.38-3.3-.39-4.43-.03ZM47.35,39.37c-.07.07-.13.69-.13,1.38v1.25h2.5l.13-1.08c.19-1.57.11-1.68-1.23-1.68-.63,0-1.2.06-1.27.13ZM63.37,40.67c0,.57-.06,1.5-.12,2.07-.12,1.02-.13,1.04-.78,1.04s-.65,0-.65.97.01.97.63,1.04l.63.06.1,4.05c.1,4.37.19,4.72,1.26,5.43,1.03.69,3.28.46,3.98-.4.32-.39-.34-1.75-.76-1.56-.17.08-.56.14-.88.15-.99.03-1.11-.54-.94-4.37l.15-3.31,1.12-.06,1.12-.06v-1.95h-2.33v-4.14h-2.53v1.04ZM17.26,43.32c-.37.14-.97.67-.97.86,0,.08.22.2.49.27.27.07.49.25.49.39s.13.32.28.38c.18.07.25.02.18-.16-.17-.45.6-.7,2.14-.7s1.94-.18,1.19-.59c-.31-.17-.82-.21-1.52-.13-.77.09-1.14.05-1.42-.16-.41-.31-.43-.32-.86-.16ZM56.02,43.61c-.93.32-2.32,1.64-2.86,2.73-1.6,3.2-.57,7.6,2.09,8.99,1.57.82,3.76.44,5.22-.92l.84-.78-.76-.78-.76-.78-.5.48c-1.08,1.04-2.3,1.1-3.17.15-.67-.73-.93-1.63-.93-3.18,0-3.03,1.99-4.63,3.92-3.18.7.53.75.52,1.52-.29l.66-.69-.47-.51c-1.07-1.16-3.33-1.74-4.81-1.23ZM72.96,43.7c-3.64,1.31-4.79,7.71-1.91,10.63,1.99,2.02,5.44,1.91,7.3-.23,2.1-2.43,2.07-6.98-.07-9.21-1.33-1.39-3.44-1.86-5.31-1.19ZM86.81,43.57c-.48.2-1.12.91-1.52,1.69l-.31.59v-1.04s-.02-1.04-.02-1.04h-2.72v11.64h2.47l.12-1.04c.07-.57.12-2.22.12-3.67,0-2.3.05-2.72.39-3.28.5-.82,1.19-1.28,1.91-1.28.62,0,.67-.09.91-1.82.13-.93.13-.94-.42-.92-.31,0-.73.09-.95.18ZM125.39,43.65c-.84.32-2.49,1.36-2.93,1.85-.28.31-.26.4.26.98.31.35.61.64.67.64s.55-.31,1.1-.69c1.3-.91,2.14-.98,2.75-.25.23.27.33.66.29,1.11-.06.68-.09.7-1.32,1.03-3.32.87-4.53,1.95-4.53,4.04,0,2.93,2.84,4.4,5.19,2.69l.84-.61.42.57c.68.94,2.26.98,3.42.09.35-.27.36-.33.07-.95-.27-.57-.39-.65-.89-.57-.82.12-.88-.22-.73-4.17.13-3.27.12-3.4-.32-4.25-.25-.48-.69-1.05-.98-1.27-.66-.49-2.33-.62-3.31-.25ZM138.22,43.65c-.4.15-1.04.51-1.41.8l-.68.53v-1.2h-2.72v11.64h2.53v-3.76c0-2.25.08-3.92.2-4.15.11-.21.56-.65,1-.97.96-.71,1.88-.77,2.41-.17.34.39.37.72.32,4.73l-.05,4.32h2.74v-4.88c0-5.35-.08-5.79-1.2-6.62-.66-.49-2.18-.62-3.13-.26ZM148.5,43.67c-1.13.41-1.71.9-2.2,1.88-.72,1.44-.54,3.1.46,4.16l.49.52-.68.43c-.86.54-1.88,1.7-1.88,2.15,0,.63.59,1.21,1.51,1.48l.91.27-.81.54c-1.53,1.03-1.94,2.36-1.18,3.86.36.72.67,1,1.62,1.48,1.05.53,1.34.59,2.92.57,1.9-.02,2.98-.33,4.24-1.21,2.23-1.56,2.45-5.08.39-6.13-.98-.5-1.44-.6-4.09-.91-2.58-.3-3.03-.55-2.42-1.31.36-.45.48-.47,2.13-.41,1.46.05,1.88,0,2.52-.34.99-.51,1.73-1.4,1.99-2.4.21-.8.09-2.08-.22-2.27-.45-.28-.07-.48.91-.48h1.08l-.06-.84-.06-.84-1.6.06c-1.04.04-1.95-.05-2.61-.25-1.24-.37-2.35-.38-3.37-.01ZM22.07,43.91c-.05.09.21.32.58.51q.67.35.61-.1c-.04-.32-.21-.46-.58-.51-.28-.03-.56.01-.61.1ZM47.22,47.19c0,1.88-.06,4.5-.13,5.82l-.13,2.4h2.78v-11.64h-2.53v3.42ZM18.66,45.37c.12.37,1.68.81,2.35.66.75-.16.51-.4-.53-.55-.48-.07-1.11-.18-1.39-.25-.38-.1-.49-.06-.42.14ZM149.43,45.35c-1.11.45-1.44,2.47-.57,3.42.65.7,1.98.74,2.6.07,1.51-1.64-.04-4.31-2.03-3.49ZM73.14,46.32c-1.54,1.56-1.37,5.73.29,6.83.28.19.83.34,1.22.34,1.62,0,2.53-1.41,2.52-3.91,0-2.63-.81-3.83-2.55-3.83-.75,0-1.02.1-1.48.58ZM125.89,50.29c-1.15.45-1.58.86-1.74,1.68-.26,1.3,1.27,2.13,2.45,1.34.82-.55.97-.89.97-2.18,0-1.44-.06-1.47-1.68-.84ZM148.15,55.5c-.86.6-1.12,1.05-1.12,1.88,0,2.24,4.53,2.63,5.83.5,1.02-1.67.23-2.45-2.82-2.77-1.05-.11-1.24-.07-1.89.39ZM52.48,60.73c0,1.26-.18,1.69-.49,1.18-.21-.34-1.39-.21-1.92.21-1.05.84-1.38,2.27-.82,3.62.15.37.47.77.7.9.63.34,1.71.28,2.14-.11.34-.31.38-.32.38-.02,0,.19.16.33.39.33.36,0,.39-.13.39-1.65,0-.91.06-2.59.13-3.75l.13-2.1h-.52c-.51,0-.52.02-.52,1.38ZM102.08,63.1c0,3.62.01,3.75.39,3.75s.39-.13.39-1.74.04-1.78.46-2.18c.33-.32.65-.42,1.12-.38l.65.06.06,2.12c.05,1.96.08,2.12.44,2.12s.38-.14.38-2.26-.03-2.28-.43-2.56c-.6-.43-1.56-.38-2.17.1l-.51.41v-1.59c0-1.46-.03-1.59-.39-1.59-.38,0-.39.13-.39,3.75ZM36.46,60.04c-1.49.54-2.3,1.72-2.3,3.36,0,2.1,1.32,3.44,3.44,3.48,1.14.02,2.29-.38,2.15-.76-.06-.16-.11-.33-.11-.37s-.37.06-.83.23c-1.54.56-2.96-.05-3.54-1.53-.59-1.49.05-3.13,1.45-3.72.53-.22.88-.22,2.63.04.67.1.44-.52-.29-.77-.9-.31-1.68-.3-2.6.03ZM54.81,60.44c0,.36.1.49.39.49s.39-.13.39-.49-.1-.49-.39-.49-.39.13-.39.49ZM69.4,63.38c0,3.31.02,3.47.38,3.47.34,0,.39-.16.44-1.43.06-1.38.07-1.43.57-1.49.44-.05.69.16,1.64,1.38.61.79,1.17,1.51,1.24,1.59.07.08.29.03.49-.12.34-.25.29-.35-.78-1.71-.79-1.01-1.06-1.47-.87-1.54.15-.05.47-.3.72-.55.61-.62.6-1.65-.02-2.38-.44-.51-.59-.56-2.14-.62l-1.67-.07v3.47ZM110.58,60.08c-.07.07-.13,1.63-.13,3.45v3.32h.97v-3.45c0-3.22-.03-3.45-.36-3.45-.2,0-.41.06-.49.13ZM122.86,60.88c-.05.8-.12.95-.5,1-.63.09-.56.63.08.63h.51l-.13,1.54c-.08.96-.05,1.78.09,2.17.18.53.31.63.86.63.85,0,1.26-.17,1.26-.52,0-.22-.16-.25-.68-.15l-.68.13v-3.79h.68c.47,0,.68-.09.68-.3s-.21-.3-.68-.3h-.68v-.99c0-.85-.05-.99-.38-.99s-.39.16-.44.94ZM125.82,60.44c0,.36.1.49.39.49s.39-.13.39-.49-.1-.49-.39-.49-.39.13-.39.49ZM128.48,60.08c-.07.07-.13.52-.13.99,0,.72-.06.85-.39.85-.22,0-.39.13-.39.3s.17.3.39.3c.36,0,.39.13.39,1.84,0,2.42.3,2.82,1.81,2.43.74-.19.55-.62-.27-.62h-.66l-.06-1.82-.06-1.82h.69c.91,0,.96-.54.06-.63-.61-.06-.63-.1-.69-1-.05-.87-.32-1.18-.69-.81ZM137.3,60.93c0,.93-.03.99-.5.99-.61,0-.54.46.08.56.4.06.42.16.42,1.98,0,2.08.13,2.39,1,2.39.73,0,1.14-.19,1.14-.51,0-.19-.2-.26-.63-.23l-.63.05-.06-1.82-.06-1.82h.69c.48,0,.69-.09.69-.3s-.21-.3-.68-.3h-.68v-.99c0-.85-.05-.99-.39-.99s-.39.13-.39.99ZM70.31,61.66c-.06.62-.07,1.19-.02,1.28.05.09.49.16.96.16,1.5,0,2.12-1.11,1.16-2.08-.34-.35-.69-.48-1.24-.48h-.76l-.11,1.12ZM41.82,62.06c-.35.18-.63.44-.63.58,0,.34.28.33.98-.04.72-.38,1.35-.1,1.35.6,0,.4-.12.5-.73.61-1.92.35-2.79,1.64-1.8,2.65.48.48,1.78.54,2.14.09.22-.27.28-.27.59.01.36.33,1.36.33,1.36,0,0-.11-.18-.23-.4-.26-.37-.06-.4-.2-.4-1.99,0-1.62-.06-1.98-.36-2.25-.44-.41-1.3-.4-2.12.02ZM47.35,62.13c-.42.34-.51.36-.51.1,0-.18-.17-.31-.39-.31-.37,0-.39.13-.39,2.47s.02,2.47.39,2.47.39-.13.39-1.69.04-1.73.48-2.17c.26-.27.66-.48.88-.48.27,0,.4-.13.4-.39,0-.52-.58-.51-1.24.01ZM58.02,62.03c-.78.41-.95.6-.69.77.12.08.52,0,.89-.18.82-.39,1.45-.14,1.45.57,0,.41-.14.5-1.02.69-.56.12-1.22.41-1.46.64-.55.52-.59,1.54-.09,2,.44.41,1.56.42,2.12.03.38-.27.44-.27.59.02.11.2.37.29.73.25.65-.08.91-.56.31-.56-.47,0-.47,0-.41-2.1.04-1.4,0-1.66-.36-2.02-.48-.49-1.25-.53-2.06-.1ZM62.94,62.03c-1.45.8-1.55,3.86-.16,4.62.65.35,2.05.25,2.43-.18.47-.52.21-.9-.34-.51-1.01.71-2.07.09-2.21-1.29-.1-1.05.22-1.77.97-2.13.47-.23.61-.22,1.04.07.38.25.55.27.72.1.17-.17.11-.32-.24-.61-.54-.45-1.47-.48-2.21-.07ZM75.91,62.36c-1.08,1.01-1.17,3.02-.18,4.02.81.82,3.21.5,3.21-.43,0-.36-.19-.35-.67.02-.21.16-.67.29-1.02.29-.69,0-1.1-.43-1.34-1.43l-.13-.54h1.64c.9,0,1.69-.05,1.75-.11.24-.24-.25-1.6-.72-2.01-.76-.66-1.7-.59-2.54.2ZM80.6,62.14c-.42.34-.51.55-.46,1.13.05.63.17.78,1.01,1.23,1.11.61,1.34.9,1.06,1.42-.17.32-.34.36-1.15.27-.74-.09-.95-.05-.95.16,0,.33.58.54,1.52.54.52,0,.82-.14,1.15-.52.78-.92.5-1.65-.92-2.38-.64-.33-.97-.62-.97-.86,0-.6.49-.86,1.34-.72.91.16,1.28-.19.51-.49-.8-.31-1.56-.23-2.12.22ZM85.11,62.03c-.86.47-1.2,1.37-1.14,2.98.05,1.34,1.47,2.2,2.83,1.73.88-.31,1.17-.57.99-.87-.1-.16-.27-.14-.6.08-.48.32-1.4.4-1.76.16-.32-.22-.66-.95-.66-1.41,0-.38.11-.41,1.65-.41,1.64,0,1.65,0,1.65-.5,0-.66-.49-1.6-.96-1.86-.52-.28-1.37-.24-2,.11ZM89.95,62.14c-.55.29-.69.46-.54.62.16.16.4.13.91-.12.84-.41,1.45-.17,1.45.55,0,.4-.12.5-.73.61-1.58.29-2.37,1.09-2.11,2.13.22.91,1.72,1.29,2.45.62.31-.29.36-.29.6,0,.16.19.49.29.85.25.66-.07.75-.42.12-.52-.37-.06-.4-.2-.4-1.99,0-1.62-.06-1.98-.36-2.25-.47-.43-1.32-.4-2.24.09ZM95.56,62.2c-.44.45-.48.45-.48.1,0-.25-.13-.39-.39-.39-.37,0-.39.13-.39,2.47s.02,2.47.39,2.47.39-.13.39-1.59c0-1.85.18-2.28,1.09-2.67.37-.16.67-.41.67-.57,0-.46-.74-.35-1.27.19ZM98.31,62.13c-1.92,1.53-1.16,4.76,1.12,4.76.94,0,1.79-.55,1.47-.94-.2-.24-.28-.24-.64.01-.58.42-1.17.36-1.63-.15-.57-.63-.69-1.2-.45-2.11.29-1.09,1.11-1.55,1.98-1.11.59.3.94.26.94-.09,0-.28-1.09-.78-1.72-.78-.31,0-.8.19-1.08.41ZM114.46,62.13c-.42.34-.51.36-.51.1,0-.18-.17-.31-.39-.31-.37,0-.39.13-.39,2.47s.02,2.47.39,2.47.39-.13.39-1.74.04-1.78.47-2.18c.33-.32.65-.42,1.12-.38l.65.06.06,2.12c.05,1.96.08,2.12.44,2.12s.38-.14.38-2.26-.03-2.28-.43-2.56c-.6-.43-1.56-.38-2.17.1ZM119.07,61.94c-.23.12-.53.47-.65.79-.31.77.11,1.41,1.27,1.93.7.31.88.49.88.88,0,.59-.52.81-1.46.63-.36-.07-.7-.04-.77.07-.18.3.56.61,1.44.61,1.07,0,1.61-.55,1.53-1.54-.05-.65-.16-.78-1.03-1.23-.74-.39-.97-.61-.97-.96,0-.67.53-.94,1.27-.66.5.19.62.18.71-.06.06-.16.06-.34,0-.4-.22-.23-1.79-.25-2.21-.04ZM141.07,62.09c-1.74,1.07-1.46,4.2.42,4.73,1.01.29,2.77-.49,2.27-1-.18-.18-.31-.16-.59.1-.37.34-1.33.44-1.71.18-.32-.22-.66-.95-.66-1.41,0-.38.11-.41,1.65-.41,1.64,0,1.65,0,1.65-.5,0-.66-.49-1.6-.96-1.86-.57-.31-1.41-.24-2.07.17ZM54.81,64.38c0,2.33.02,2.47.39,2.47s.39-.13.39-2.47-.02-2.47-.39-2.47-.39.13-.39,2.47ZM125.82,64.38c0,2.33.02,2.47.39,2.47s.39-.13.39-2.47-.02-2.47-.39-2.47-.39.13-.39,2.47ZM131.46,64.07c0,1.7.07,2.22.31,2.47.48.48,1.61.47,2.36-.03.41-.27.45-.27.45.02,0,.19.16.32.39.32.37,0,.39-.13.39-2.47s-.02-2.47-.39-2.47-.39.13-.39,1.74c0,1.91-.16,2.23-1.22,2.5-.94.24-1.12-.12-1.12-2.3,0-1.82-.03-1.95-.39-1.95s-.39.13-.39,2.16ZM50.82,62.55c-.85.49-1.17,1.45-.86,2.59.3,1.11,1.37,1.47,2.12.72.31-.31.39-.66.39-1.65,0-.77-.09-1.33-.24-1.45-.43-.35-1.01-.43-1.41-.2ZM76.49,62.8c-.73.74-.6.9.69.9,1,0,1.17-.05,1.17-.36,0-.44-.59-1.02-1.05-1.02-.18,0-.55.22-.81.48ZM85.35,62.71c-.72.73-.51.99.78.99.91,0,1.17-.07,1.17-.3,0-.42-.71-1.08-1.17-1.08-.21,0-.56.18-.78.39ZM141.62,62.44c-.14.06-.38.36-.54.67l-.29.57h1.27c1.4,0,1.61-.24.88-.99-.38-.38-.81-.47-1.32-.26ZM42.24,64.57c-.7.31-.94.78-.65,1.31.26.49,1.19.5,1.62.02.18-.2.32-.64.32-.99,0-.71-.28-.79-1.28-.34ZM58.33,64.53c-1.09.57-1.01,1.57.13,1.68.7.07,1.22-.52,1.22-1.39,0-.44-.09-.55-.44-.54-.24,0-.65.11-.9.25ZM90.49,64.57c-.7.31-.94.78-.65,1.31.26.49,1.19.5,1.62.02.18-.2.32-.64.32-.99,0-.71-.28-.79-1.28-.34Z" style="fill:#fff; fill-rule:evenodd; stroke-width:0px;"/></svg>