<?xml version="1.0" encoding="UTF-8"?><svg id="Livello_1" xmlns="http://www.w3.org/2000/svg" viewBox="0 0 171.53 86.37"><path d="M17.37,24.91c-4.71.55-8.37,2.23-11.66,5.33-2.92,2.75-4.61,5.74-5.42,9.55-.37,1.78-.4,4.7-.06,6.53.71,3.8,2.51,7.04,5.47,9.83,2.92,2.75,6.09,4.35,10.13,5.11,1.89.35,4.98.38,6.93.05,4.03-.67,7.46-2.37,10.42-5.16,2.92-2.75,4.61-5.74,5.42-9.55.37-1.78.4-4.7.06-6.53-.71-3.8-2.51-7.04-5.47-9.83-2.91-2.74-6.12-4.37-10.06-5.09-1.61-.29-4.33-.41-5.76-.24ZM19.44,32.3c-.36.26-.51.66-.51,1.38,0,.6-.03.68-.23.63-.76-.22-2.69-.68-2.73-.64-.02.02.24.61.59,1.32,1.45,2.94,2.04,5.67,1.57,7.29-.18.61-1,2.17-1.67,3.17-.28.41-.48.8-.44.85.03.05.7.1,1.49.1h1.42v1.96h-1.67c-1.52,0-1.71-.03-2.1-.28-.6-.39-.89-.81-.95-1.38l-.05-.49-3.03-.03-3.03-.03.07.83c.23,2.8,2.6,5.14,5.63,5.57.43.06,3.13.11,6,.11,6.24,0,6.19.01,7.41-1.14.44-.42,1.17-1.33,1.64-2.04,1-1.54,1.49-2.02,2.57-2.56l.81-.41v-.73c0-.46-.05-.73-.15-.73-.08,0-1.47.36-3.09.81l-2.94.81-.8.73c-.44.4-.96.78-1.15.85-.19.07-.93.12-1.64.12h-1.29v-1.96h1.78l.92-.89c1.52-1.48,2.38-2.97,2.38-4.11,0-.64-.48-1.84-1.13-2.79-.61-.9-3.22-3.43-3.68-3.57-.24-.07-.27-.18-.27-1.18s-.03-1.13-.32-1.4c-.35-.33-1.03-.4-1.38-.14ZM56.75,34.6c-2.41.25-4.58,1.31-6.22,3.02-2.34,2.45-2.85,6.45-1.22,9.56,1.67,3.18,5.19,5.01,9.25,4.81,4.21-.2,7.46-2.53,8.68-6.22.44-1.32.44-3.7,0-5.03-.58-1.78-1.77-3.39-3.2-4.36-2.13-1.43-4.68-2.06-7.3-1.78ZM127.85,34.6c-3.57.41-5.78,2.59-5.52,5.44.15,1.66,1.12,2.91,2.88,3.71.52.23,1.78.68,2.82,1,2.19.66,2.65.87,3.18,1.4.32.32.39.49.39.99,0,.77-.46,1.27-1.37,1.47-1.36.31-2.69-.29-2.95-1.32l-.11-.46-2.44-.03-2.44-.03v.36c0,.2.12.71.26,1.14.74,2.23,3.13,3.61,6.51,3.75,1.74.07,2.97-.12,4.22-.68,3.56-1.58,4.29-5.97,1.33-7.98-.76-.52-1.59-.86-3.95-1.63-2.91-.95-3.42-1.29-3.42-2.32,0-.96.63-1.47,1.84-1.47.97,0,1.71.43,2.01,1.17l.22.55h4.94l-.09-.58c-.13-.9-.9-2.27-1.59-2.85-1.53-1.27-4.16-1.9-6.71-1.6ZM14.34,36.72c-3.83,5.66-4.78,7.08-4.78,7.19,0,.1.78.14,2.78.14h2.78l.57-1.06c.51-.95.57-1.16.61-2.07.03-.75-.02-1.25-.23-1.96-.36-1.24-1.04-2.89-1.19-2.89-.06,0-.31.29-.55.64ZM78.17,38.18c-1.01.16-1.98.61-2.74,1.28l-.65.58v-1.75h-4.69l.03,8.81.03,8.81h4.56l.04-2.87.03-2.87.59.51c.96.83,2.07,1.26,3.49,1.33,2.13.1,3.51-.37,4.9-1.68,1.44-1.36,2.11-3.02,2.11-5.29,0-1.52-.22-2.45-.89-3.7-.9-1.68-2.64-2.88-4.61-3.17-.97-.14-1.22-.14-2.21.01ZM93.59,38.17c-3.86.57-6.18,3.14-6.18,6.87,0,2.19.7,3.87,2.15,5.15,1.42,1.25,3.15,1.84,5.4,1.85,2.23,0,3.92-.61,5.34-1.95.78-.73,1.68-2.12,1.68-2.57,0-.09-.72-.14-2.35-.14h-2.35l-.56.54c-.43.41-.71.57-1.21.67-1.76.36-3.17-.49-3.49-2.1l-.09-.45h10.44v-1.01c-.01-4.03-2.65-6.65-6.96-6.89-.57-.03-1.39,0-1.82.06ZM144.57,38.16c-3.03.39-5.33,2.31-6.02,5.03-.09.37-.17,1.25-.17,1.96,0,3.41,2.01,5.86,5.45,6.69.98.24,3.01.24,4.07,0,2.23-.5,4.1-1.98,4.85-3.84l.26-.64h-4.82l-.55.54c-1.57,1.53-4.41.63-4.67-1.48l-.04-.35,5.17-.03,5.17-.03v-1.2c0-1.84-.43-3.08-1.54-4.4-1.4-1.67-4.39-2.61-7.16-2.25ZM160.25,38.17c-1.22.17-2.52.83-3.44,1.76-1.34,1.35-1.98,2.99-1.98,5.1,0,4.13,2.69,7,6.56,7,1.74,0,2.85-.4,4.01-1.46l.62-.56v1.89h4.56v-13.62h-4.56v1.89l-.46-.51c-.57-.63-2.04-1.33-3.12-1.5-.88-.14-1.12-.13-2.19.01ZM112,38.39c-.94.29-1.25.44-1.99,1.02l-.62.48v-1.61h-4.69l.03,6.78.03,6.78h4.56l.06-4.23c.05-3.26.11-4.31.24-4.54,1.1-1.89,4.13-1.92,5.11-.04.31.59.31.66.36,4.74l.04,4.15,2.24-.03,2.24-.03v-4.6c0-4.43-.01-4.64-.29-5.48-.54-1.63-1.84-2.87-3.54-3.36-1.05-.31-2.78-.31-3.78,0ZM56.93,38.4c-1.87.32-3.24,1.56-3.69,3.32-.67,2.68.36,5.13,2.57,6.09.73.32.95.35,2.18.35,1.2,0,1.45-.04,2.09-.32,1.86-.82,2.86-2.43,2.86-4.59,0-2.81-1.78-4.73-4.52-4.91-.48-.03-1.15,0-1.48.05ZM93.59,41.7c-.29.13-.69.4-.89.6-.37.37-.77,1.23-.65,1.41.03.05,1.32.09,2.85.09,2.78,0,2.79,0,2.79-.27,0-.48-.52-1.29-1.05-1.64-.7-.46-2.25-.56-3.05-.2ZM144.68,41.61c-.6.22-1.2.75-1.45,1.26-.47.98-.6.93,2.55.93h2.8v-.3c0-.74-.52-1.43-1.37-1.8-.57-.25-1.98-.3-2.53-.1ZM76.94,41.87c-.32.08-.76.36-1.19.75-.79.73-1,1.27-1,2.57,0,2.09,1.84,3.58,3.88,3.15,1.29-.27,2.12-1.05,2.47-2.32.38-1.39.02-2.63-.99-3.5-.89-.76-1.92-.97-3.17-.66ZM161.86,41.83c-1.45.45-2.21,1.41-2.31,2.91-.08,1.21.21,2.12.9,2.77.67.64,1.28.87,2.26.88,1.34.01,2.49-.7,3.04-1.87.31-.67.28-2.26-.06-2.95-.29-.61-.94-1.27-1.54-1.56-.44-.22-1.81-.32-2.29-.17Z" style="fill:#fff; fill-rule:evenodd; stroke-width:0px;"/></svg>