<?xml version="1.0" encoding="UTF-8"?><svg id="Livello_1" xmlns="http://www.w3.org/2000/svg" viewBox="0 0 207.89 86.37"><path d="M13.69,27.04c-.3.08-2.02.48-6.5,1.54-.48.11-2.06.49-3.51.83-1.45.34-2.87.68-3.16.74l-.52.12.46.4.46.4h26.65l.28-.44c.16-.24.25-.48.21-.52-.04-.04-2.87-.7-6.28-1.46-3.41-.76-6.36-1.43-6.56-1.49-.6-.17-1.16-.22-1.52-.12ZM.87,33.2v1.42h26.81v-2.84H.87v1.42ZM1.66,35.54c-.19.31-.34,6.69-.27,11.11.1,6.06.19,7.61.42,7.76.2.13,1.99.15,2.17.02.23-.16.44-10.48.28-14.18-.08-1.76-.17-3.54-.21-3.97l-.08-.77-1.13-.03c-.62-.02-1.16,0-1.19.06ZM8.97,35.71c-.2.53-.4,7.42-.32,10.93.1,4.7.28,7.67.46,7.78.18.12,2.09.12,2.25,0,.06-.05.12-.17.12-.26,0-.1.05-2.79.1-5.98.09-5.61-.03-11.46-.26-12.33q-.09-.34-1.17-.38c-1.03-.03-1.08-.02-1.18.24ZM17.4,35.66c-.06.11-.17,1.81-.26,3.76-.22,5.3.02,14.77.39,15.01.19.12,1.98.12,2.17,0,.17-.11.37-5.59.38-10.09,0-3.11-.21-8.25-.35-8.62-.1-.25-.18-.27-1.16-.27-.88,0-1.07.03-1.16.21ZM24.7,35.57c-.18.29-.43,7.49-.36,10.31.12,4.91.31,8.46.46,8.56.19.12,2.09.11,2.29-.02.14-.09.16-1.45.17-8.38,0-4.55-.04-8.78-.1-9.4l-.11-1.13-1.13-.03c-.7-.02-1.16.01-1.21.09ZM50.4,39.11c0,.13.29.25.59.25.12,0,.33.11.46.24.22.23.23.39.23,3.97v3.73h.83l-.03-3.49c-.02-1.92,0-3.49.02-3.49.03,0,.98,1.58,2.11,3.49l2.05,3.49h1.23v-8.29h-.82l-.03,3.34-.03,3.34-1.98-3.34-1.98-3.34h-1.33c-.73,0-1.33.05-1.33.11ZM63.04,39.63c0,.34-.03.74-.07.89-.05.19-.02.27.11.27.1,0,.21-.15.26-.35.13-.58.56-.83,1.42-.83h.75v7.7h1.4v-7.7h.82c.72,0,.86.04,1.11.29.16.16.29.43.29.59,0,.19.07.3.18.3.14,0,.18-.18.18-.89v-.89h-6.44v.62ZM73.49,39.15c.03.08.23.18.44.23q.7.14.7,4.21v3.71h5.03v-.89c0-.67-.04-.89-.16-.89-.09,0-.19.16-.23.35-.14.71-.4.83-1.83.83-.9,0-1.31-.04-1.38-.15-.05-.08-.11-.85-.14-1.72l-.04-1.57h1.01c.56,0,1.11.05,1.23.12.12.06.28.3.35.53.24.73.35.45.35-.89,0-.82-.05-1.3-.12-1.3-.07,0-.15.09-.19.21-.04.11-.18.33-.31.47-.21.24-.35.27-1.27.27h-1.03v-1.24c0-.68.05-1.37.11-1.54.11-.3.14-.3,1.29-.3,1.1,0,1.2.02,1.47.29.16.16.29.43.29.59,0,.19.07.3.18.3.14,0,.18-.18.18-.89v-.89h-3c-2.31,0-2.98.03-2.95.14ZM84.23,39.1c0,.14.28.26.58.26.11,0,.29.1.4.22.17.19.19.64.19,3.97v3.75h1.4v-3.88l.38.03c.36.02.44.13,1.46,1.85.6,1,1.1,1.87,1.11,1.92.02.05.35.08.74.06l.71-.04-1.15-1.99c-.7-1.22-1.09-2.01-1-2.03.08-.02.33-.1.56-.17.76-.24,1.19-.91,1.18-1.86,0-.87-.33-1.36-1.17-1.78-.65-.32-.72-.33-3.04-.37-1.55-.03-2.37,0-2.37.07ZM95.5,39.15c.03.08.22.18.43.22.78.16.76.07.8,4.19l.03,3.73h.69l.03-3.52.03-3.52,2.09,3.52,2.1,3.52h1.14v-8.29h-.7l-.03,3.35-.03,3.35-1.99-3.35-1.99-3.35h-1.33c-.99,0-1.32.04-1.28.14ZM107.88,39.11c0,.13.29.25.59.25.12,0,.3.08.4.19.16.16.18.69.18,3.97v3.78h5.03v-.9c0-.64-.04-.88-.14-.85-.08.03-.18.2-.23.38-.18.7-.37.78-1.74.78-.81,0-1.3-.05-1.39-.14-.1-.1-.14-.65-.14-1.72v-1.58h1c.91,0,1.03.03,1.29.29.16.16.29.4.29.53s.08.24.18.24c.14,0,.18-.22.18-1.3s-.03-1.3-.18-1.3c-.1,0-.18.08-.18.18s-.13.31-.29.47c-.26.26-.38.29-1.29.29h-1v-1.4c0-.93.05-1.45.14-1.54.09-.09.54-.14,1.24-.14,1.06,0,1.11.01,1.44.35.19.19.34.46.34.59s.08.25.18.25c.14,0,.18-.18.18-.89v-.89h-3.04c-1.71,0-3.04.05-3.04.11ZM118.89,39.34c0,.19-.03.59-.07.89-.06.45-.04.55.11.55.11,0,.21-.15.26-.35.12-.58.56-.83,1.42-.83h.75v7.7h1.4v-7.73l.89.05c.76.04.92.09,1.11.32.12.15.22.4.22.56,0,.17.07.28.18.28.14,0,.18-.18.18-.89v-.89h-6.44v.34ZM161.87,39.13c-.74.15-1.31.58-1.67,1.25-.77,1.46-.7,4.43.14,5.77.56.9,1.73,1.32,3.11,1.13,1.07-.15,1.34-.3,1.34-.77v-.4l-.4.24c-.55.33-1.53.42-2.08.19-.52-.22-.99-.89-1.21-1.76-.23-.85-.22-2.85.01-3.64.33-1.12,1.13-1.73,1.98-1.51.44.11,1.07.73,1.28,1.26.3.77.44.59.4-.5l-.04-.98-.41-.13c-.6-.2-1.86-.28-2.45-.16ZM171.11,39.09c-1.01.1-1.21.28-.56.47.65.19.67.35.67,4.16v3.46h1.06v-3.91h2.93v3.91h1.17v-8.05h-1.17v3.55h-2.93v-3.67l-.38.02c-.21.01-.57.04-.79.06ZM42.79,39.23c0,.06.18.14.41.18.22.04.46.18.53.3.07.14.12,1.53.12,3.53,0,3.05-.02,3.32-.21,3.5-.12.11-.35.2-.53.2-.2,0-.31.06-.31.18,0,.15.27.18,1.77.18,1.34,0,1.75-.03,1.72-.15-.03-.08-.22-.18-.43-.23-.21-.04-.43-.15-.49-.24-.14-.23-.13-6.7.01-6.97.07-.12.3-.26.53-.3.89-.17.32-.29-1.35-.29-.97,0-1.76.05-1.76.11ZM138.33,39.21c0,.05.17.15.38.21.34.1.38.16.37.53,0,.23-.46,1.83-1.01,3.55-.55,1.73-1.04,3.26-1.08,3.41-.07.25-.04.27.23.24.29-.04.35-.14.69-1.22l.38-1.18,1.37-.03,1.36-.03.39,1.25.39,1.25h.54s.54,0,.54,0l-.15-.5c-.08-.28-.65-2.08-1.26-4l-1.11-3.49-1.01-.03c-.56-.02-1.01.01-1.01.06ZM147.93,39.23c0,.06.18.14.41.18.22.04.46.18.53.3.07.14.12,1.63.12,3.84v3.62h1.17v-3.73h.3c.27,0,.4.2,1.25,1.87l.95,1.87h.56c.31,0,.56-.03.56-.06s-.42-.91-.93-1.94c-.51-1.03-.9-1.91-.86-1.95.04-.04.18-.07.3-.07s.43-.2.67-.44c.73-.74.78-2.04.1-2.81-.55-.63-1.15-.77-3.28-.77-1.02,0-1.85.05-1.85.11ZM182.46,39.3c0,.11.11.18.29.18.61,0,.65.24.65,3.73s-.04,3.73-.65,3.73c-.16,0-.29.05-.29.12,0,.07.59.12,1.53.12.99,0,1.5-.04,1.46-.12-.04-.07-.17-.12-.28-.12s-.3-.1-.4-.22c-.17-.19-.19-.61-.19-3.52,0-1.82.04-3.38.1-3.46.05-.08.24-.19.41-.24.7-.19.27-.32-1.15-.35-1.25-.03-1.46,0-1.46.15ZM190.07,39.18s.23.16.52.29l.52.23.84,2.65c.46,1.46.99,3.14,1.19,3.75l.36,1.1.47-.04c.43-.03.48-.07.62-.51.08-.26.53-1.67.99-3.14.46-1.47.96-3.04,1.1-3.49l.26-.83-.28-.04c-.16-.02-.31-.01-.34.02-.08.08-1.92,6.15-1.92,6.33,0,.41-.22.04-.49-.83-.17-.54-.63-2-1.03-3.26l-.72-2.28h-1.05c-.57,0-1.05.02-1.05.05ZM202.07,39.23c.04.06.22.14.42.19.19.04.4.18.47.3.07.13.12,1.67.12,3.84v3.62h4.22v-.83c0-.93-.13-1.06-.34-.36-.08.26-.24.53-.36.59-.32.17-2.03.15-2.21-.02-.1-.1-.14-.65-.14-1.72v-1.58h.8c.89,0,1.15.13,1.29.64.05.19.15.37.23.39.1.03.14-.3.14-1.27,0-1.09-.03-1.31-.17-1.31-.1,0-.18.11-.18.24,0,.49-.4.71-1.29.71h-.82v-1.4c0-.93.05-1.45.14-1.54.2-.21,1.56-.18,1.97.04.21.11.37.31.41.5.12.53.15.62.28.62.07,0,.12-.36.12-.89v-.89h-2.58c-1.55,0-2.56.04-2.52.11ZM86.95,39.74c-.09.1-.14.64-.14,1.67v1.53l.81-.06c1.29-.09,1.88-.62,1.88-1.65,0-.55-.31-1.14-.72-1.4-.44-.27-1.59-.33-1.83-.1ZM150.36,39.72c-.18.11-.21.33-.21,1.68v1.55l.72-.05c.65-.05.76-.1,1.11-.49.35-.38.39-.51.39-1.1,0-.7-.21-1.21-.6-1.45-.32-.2-1.18-.28-1.42-.13ZM139.5,40.81c0,.08-.23.85-.51,1.71l-.51,1.56,1.15.04c.64.02,1.16.01,1.16-.02,0-.19-1.13-3.44-1.2-3.44-.05,0-.09.07-.09.15ZM.87,56.3v.95h26.81v-1.9H.87v.95ZM.05,58.67v.71h28.8v-1.42H.05v.71Z" style="fill:#fff; fill-rule:evenodd; isolation:isolate; stroke-width:0px;"/></svg>