<?xml version="1.0" encoding="UTF-8"?><svg id="Livello_1" xmlns="http://www.w3.org/2000/svg" viewBox="0 0 130.59 86.37"><path d="M59.16,20.13c-.25.05-.66.27-.91.47-.85.7-.82.27-.78,9.54l.03,8.25.32.45c.2.28.53.55.89.72l.57.27h7.56c5.19,0,7.7-.04,8.01-.12.26-.07.64-.3.91-.57,1.04-1,.88-2.47-.34-3.27l-.54-.35h-12.39l-.39.33c-.72.61-1.16.15-.49-.51l.37-.37v-13.3l-.31-.51c-.51-.84-1.51-1.25-2.5-1.04ZM87.98,20.11c-1.17.23-1.89,1.2-1.9,2.56,0,.73-.25.92-1.32,1.01-1.08.09-1.61.38-2.05,1.11l-.27.46-.03,6.28c-.02,4.23,0,6.42.09,6.71.42,1.51,2.42,2.08,3.65,1.04.77-.65.81-.88.82-3.87v-2.66s-.39-.46-.39-.46c-.22-.25-.38-.53-.36-.63.06-.31.49-.26.93.12l.42.36,4.04.03c2.22.02,4.2,0,4.4-.03.2-.04.54-.21.74-.38.41-.35.79-.41.89-.15.09.23.11.19-.33.7l-.4.46.03,2.83.03,2.83.34.46c.8,1.1,2.28,1.24,3.32.34.79-.69.76-.39.76-7.46,0-5.5-.02-6.42-.17-6.76-.35-.82-1.13-1.32-2.04-1.32-.71,0-1.19-.17-1.34-.46-.07-.13-.14-.57-.17-.98-.06-.9-.44-1.49-1.2-1.9l-.5-.27-3.8-.02c-2.09,0-3.98.02-4.2.06ZM109.41,20.08c-.12.03-.34.07-.48.1-.36.07-1.15.79-1.33,1.2-.12.28-.15,1.92-.15,8.62v8.28s.25.43.25.43c.14.23.47.57.73.75l.48.33,5.81.03c3.89.02,5.96,0,6.26-.09.99-.26,1.67-1.19,1.67-2.29,0-.88.25-1.1,1.31-1.18.88-.07,1.28-.23,1.73-.69.44-.45.65-1.02.65-1.78,0-1.53-1.03-2.46-2.72-2.46-.75,0-.97-.31-.97-1.42,0-1.18.16-1.32,1.6-1.42,1.3-.08,2.09-.99,2.09-2.39,0-1-.3-1.58-1.05-2.07-.46-.3-.64-.35-1.2-.35-.77,0-1.3-.22-1.37-.57-.03-.13-.07-.55-.1-.93-.07-.84-.45-1.44-1.2-1.84l-.5-.27-5.65-.02c-3.11,0-5.75,0-5.87.03ZM24.2,20.28c-1.57.34-3,1.29-3.89,2.57-.85,1.22-1.04,1.86-1.15,3.9-.13,2.41-.33,3.29-1.07,4.69-.72,1.37-1.88,2.43-3.41,3.11-1.27.57-2.29.77-4.41.88-2.16.11-2.93.31-4.14,1.09-2.21,1.43-3.29,4.05-2.67,6.55.28,1.16.79,2.02,1.73,2.92,1.3,1.25,2.74,1.83,4.53,1.83s3.22-.57,4.47-1.77c1.37-1.31,1.88-2.55,2-4.86.17-3.27,1.32-5.54,3.57-7.06,1.45-.98,3.04-1.42,5.73-1.6,1.2-.08,1.75-.16,2.34-.37,3.54-1.24,5.24-5.34,3.55-8.57-1.32-2.51-4.37-3.92-7.17-3.31ZM111.26,23.88c-.09.17-.04.29.28.66l.39.45v2.22l-.39.45c-.43.5-.45.55-.26.73.21.2.37.16.87-.25l.47-.38h8.61l.27-.26c.26-.25.27-.34.27-1.39,0-.95-.03-1.16-.21-1.38l-.21-.25-4.48-.05-4.48-.05-.38-.35c-.43-.4-.59-.43-.75-.14ZM12.35,24.6c-.9.23-1.65.66-2.52,1.45-1.45,1.3-2.17,2.78-2.05,4.17.19,2.23,2.84,2.79,5.31,1.12,1.03-.7,1.73-1.48,2.28-2.54,1.43-2.77-.14-4.94-3.02-4.19ZM36.8,24.59c-2.14.73-1.98,3.73.32,5.94.61.59,1.04.89,1.79,1.25.95.46,1.03.47,2.02.47s1.06-.03,1.5-.3c.61-.39,1.02-1.18,1.02-1.98,0-2.99-4.05-6.27-6.64-5.38ZM87.46,24.54c-.39.15-.48.45-.48,1.51s-.07,1.27-.53,1.74c-.29.3-.28.58.03.7.11.04.32-.07.57-.3l.39-.36,4.41-.03,4.41-.03.44.38c.49.43.74.48.91.17.09-.17.04-.29-.28-.66-.39-.45-.39-.46-.39-1.53s0-1.08-.33-1.39l-.33-.32h-4.29c-2.36.01-4.4.06-4.53.11ZM111.21,31.61c-.04.11.07.34.32.64l.39.46v2.28l-.39.42c-.65.7-.11,1.12.56.44l.32-.32h4.21c4.34,0,4.81-.04,5.03-.44.06-.11.11-.68.11-1.27,0-.92-.03-1.11-.23-1.35l-.23-.28-4.41-.03-4.41-.03-.38-.35c-.41-.38-.8-.45-.91-.18ZM24.2,35.58c-1.57.34-3,1.29-3.89,2.57-.73,1.05-1.04,1.93-1.11,3.15-.11,1.87.48,3.36,1.87,4.69,1.3,1.25,2.74,1.83,4.53,1.83s3.22-.57,4.47-1.77c3.43-3.29,2.16-8.73-2.39-10.26-1.04-.35-2.45-.43-3.48-.21ZM40.11,35.58c-1.79.39-3.28,1.47-4.26,3.08-.49.81-.69,1.62-.8,3.24-.2,3.02-.9,4.75-2.56,6.36-1.64,1.59-3.47,2.28-6.5,2.46-1.89.11-2.77.34-3.78.96-1.84,1.14-2.88,2.84-3.01,4.91-.22,3.55,2.67,6.52,6.36,6.52,1.88,0,3.21-.52,4.53-1.78,1.33-1.26,1.94-2.72,1.94-4.64,0-1.25.26-2.88.61-3.84.82-2.27,2.73-3.96,5.22-4.61.94-.25,2.55-.43,3.78-.44,1.68,0,3.07-.57,4.34-1.78,3.42-3.26,2.13-8.73-2.42-10.26-1.02-.34-2.45-.43-3.45-.21ZM89.09,43.48l-1.75.03-.63.64-.63.64v.91c0,1.19-.08,1.26-1.35,1.26h-.95l-.7.68-.7.68v13.7l.66.61.66.61h1.98l.64-.62.64-.62v-6.13l-.45-.44-.45-.44.26-.24.26-.24.44.43.44.43h8.84l.46-.44.46-.44.27.21.27.21-.47.54-.47.54v5.99l.64.62.64.62h1.87l.72-.61.72-.61v-13.78l-.7-.63-.7-.63h-.96c-.85,0-.99-.04-1.2-.26-.21-.22-.24-.37-.24-1.17v-.92l-.66-.61-.66-.61-2.72.02c-1.5.01-3.51.04-4.47.06ZM58.07,44.13l-.64.62v17.23l.64.62.64.62h5.37s5.37,0,5.37,0l1.9-1.72,1.9-1.72h.88s.88,0,.88,0l.66-.61.66-.61v-10.37l-.65-.62-.65-.62h-1.8l-1.86-1.72-1.86-1.72h-10.82l-.64.62ZM111.67,44.13l-.64.62v.87c0,.77-.03.89-.26,1.1-.22.2-.39.23-1.15.23h-.89l-.7.68-.7.68v10.13l.7.67.7.67h.96c1.26,0,1.33.07,1.33,1.3v.9l.64.62.64.62h4.54s4.53,0,4.53,0l.7-.64.7-.64v-.91c0-1.18.08-1.26,1.29-1.27h.89s.7-.63.7-.63l.7-.63v-10.31l-.64-.62-.64-.62h-.9c-1.27,0-1.4-.13-1.4-1.29v-.88l-.63-.64-.63-.64h-9.2l-.64.62ZM61.18,47.17c-.2.21-.2.23.32.73l.52.51v9.9l-.53.52-.53.52.25.24.25.24.43-.4.43-.4h4.45c4.32,0,4.46,0,4.78-.22l.32-.22v-10.43l-.32-.22c-.32-.22-.46-.22-4.79-.22h-4.46l-.38-.38c-.21-.21-.41-.38-.45-.38s-.17.1-.28.22ZM87.22,47.96c-.22.22-.24.37-.24,1.42v1.17l-.47.46-.47.46.25.24.25.24.43-.4.43-.41,4.42-.07,4.42-.07.53.47.53.47.24-.23.24-.23-.47-.49-.47-.49v-1.17c0-1.78.44-1.64-4.94-1.64h-4.42l-.24.25ZM112.22,47.93l-.3.22v10.42l.3.22c.29.22.41.22,4.63.22s4.34,0,4.63-.22l.29-.22v-10.42l-.29-.22c-.29-.22-.41-.22-4.63-.22s-4.34,0-4.63.22ZM9.28,51.1c-1.77.61-2.02,2.81-.56,4.93.67.97,1.57,1.73,2.72,2.27.9.43.99.45,1.97.45s1.06-.03,1.5-.3c.61-.39,1.02-1.18,1.02-1.98,0-2.98-4.05-6.27-6.64-5.38ZM39.88,51.11c-.9.23-1.65.66-2.52,1.45-1.45,1.3-2.17,2.78-2.05,4.17.19,2.23,2.84,2.79,5.31,1.12,2.59-1.75,3.64-4.83,2.13-6.24-.68-.64-1.67-.81-2.87-.5Z" style="fill:#fff; fill-rule:evenodd; isolation:isolate; stroke-width:0px;"/></svg>