<svg xmlns="http://www.w3.org/2000/svg" data-name="Layer 1" viewBox="0 0 298.43 189.1">
  <circle cx="62.95" cy="118.42" r="7.19"/>
  <circle cx="62.95" cy="118.42" r="7.19"/>
  <path d="M33.71 123.51a7.18 7.18 0 005.09 2.11c3.97 0 7.19-3.23 7.19-7.19 0-1.98-.81-3.78-2.11-5.09-3.78-3.78-3.78-9.92 0-13.7a9.844 9.844 0 0113.93 0 7.18 7.18 0 005.09 2.11c3.97 0 7.19-3.23 7.19-7.19s-3.23-7.19-7.19-7.19c-1.98 0-3.78.81-5.09 2.11a9.862 9.862 0 01-13.93 0 7.18 7.18 0 00-5.09-2.11c-3.97 0-7.19 3.23-7.19 7.19 0 1.98.81 3.78 2.11 5.09 3.78 3.78 3.78 9.92 0 13.7m10.17-13.71z"/>
  <path d="M33.71 99.64a7.18 7.18 0 005.09 2.11c3.97 0 7.19-3.23 7.19-7.19 0-1.98-.81-3.78-2.11-5.09-3.78-3.78-3.78-9.92 0-13.7s10.08-3.85 13.93 0a7.18 7.18 0 005.09 2.11c3.97 0 7.19-3.23 7.19-7.19s-3.23-7.19-7.19-7.19c-1.98 0-3.78.81-5.09 2.11a9.862 9.862 0 01-13.93 0 7.18 7.18 0 00-5.09-2.11c-3.97 0-7.19 3.23-7.19 7.19 0 1.98.81 3.78 2.11 5.09 3.78 3.78 3.78 9.92 0 13.7m10.17-13.71zm13.98 47.74a7.18 7.18 0 005.09 2.11c3.97 0 7.19-3.23 7.19-7.19 0-1.98-.81-3.78-2.11-5.09-3.78-3.78-3.78-9.92 0-13.7a9.844 9.844 0 0113.93 0 7.18 7.18 0 005.09 2.11c3.97 0 7.19-3.23 7.19-7.19s-3.23-7.19-7.19-7.19c-1.98 0-3.78.81-5.09 2.11a9.862 9.862 0 01-13.93 0 7.18 7.18 0 00-5.09-2.11c-3.97 0-7.19 3.23-7.19 7.19 0 1.98.81 3.78 2.11 5.09 3.78 3.78 3.78 9.92 0 13.7m10.17-13.71z"/>
  <path d="M57.86 99.64c3.78 3.78 3.78 9.92 0 13.7a7.18 7.18 0 00-2.11 5.09c0 3.97 3.23 7.19 7.19 7.19 1.98 0 3.78-.81 5.09-2.11a9.862 9.862 0 0113.93 0 7.18 7.18 0 005.09 2.11c3.97 0 7.19-3.23 7.19-7.19 0-3.97-3.23-7.19-7.19-7.19-1.98 0-3.78.81-5.09 2.11a9.862 9.862 0 01-13.93 0c-3.78-3.78-3.78-9.92 0-13.7a7.18 7.18 0 002.11-5.09c0-3.97-3.23-7.19-7.19-7.19-1.98 0-3.78.81-5.09 2.11m0 10.17z"/>
  <path d="M87.14 115.21c-1.77 0-3.21 1.44-3.21 3.21s1.44 3.21 3.21 3.21 3.21-1.44 3.21-3.21-1.44-3.21-3.21-3.21z" fill="#00f839"/>
  <path d="M38.79 67.47c-1.77 0-3.21 1.44-3.21 3.21s1.44 3.21 3.21 3.21S42 72.45 42 70.68s-1.44-3.21-3.21-3.21z" fill="#00f8f2"/>
  <circle cx="38.79" cy="118.42" r="7.19"/>
  <circle cx="38.79" cy="118.42" r="3.78" fill="#00f839"/>
  <circle cx="38.79" cy="118.42" r="7.19"/>
  <circle cx="38.79" cy="118.42" r="3.21" fill="#00f8f2"/>
  <circle cx="62.95" cy="94.36" r="3.21" fill="#00f839"/>
  <circle cx="87.14" cy="70.68" r="7.19"/>
  <circle cx="87.14" cy="70.68" r="3.21" fill="#00f839"/>
  <path d="M113.08 70.1v17.65h3v-6.71h6.57v-2.78h-6.57v-5.4h8.94V70.1h-11.94zm25.38 13.17v-8.7h-3.07v6.59c0 1.43-.22 2.45-.65 3.06-.44.61-1.08.91-1.95.91-.67 0-1.2-.21-1.58-.62-.38-.41-.57-.99-.57-1.75v-8.2h-3.07v8.7c0 1.5.36 2.66 1.08 3.49.72.82 1.73 1.24 3.03 1.24.88 0 1.62-.24 2.22-.72.6-.48 1-1.17 1.21-2.06h.32l.19 2.66 4.66-.12v-2.49l-1.81-.27v-1.72zm10.92-8.95c-1.03 0-1.8.22-2.32.65-.52.44-.83 1.1-.93 1.98h-.34l-.27-2.39h-2.76v13.18h3.07v-6.91c0-2.44.92-3.65 2.76-3.65.66 0 1.18.22 1.54.65.36.43.55 1.04.55 1.84v8.08h3.07v-8.58c0-1.54-.38-2.73-1.14-3.58-.76-.85-1.84-1.27-3.23-1.27zm16.22 2.64h-.3c-.13-.86-.47-1.52-1.02-1.96-.55-.45-1.31-.67-2.27-.67-1.68 0-2.97.59-3.87 1.78-.9 1.18-1.35 2.89-1.35 5.12s.45 3.87 1.35 5.03c.9 1.16 2.19 1.74 3.86 1.74.95 0 1.72-.22 2.3-.67.58-.45.93-1.1 1.04-1.96h.27l.38 2.51 2.67-.12V69.12h-3.07v7.86zm-.66 7.3c-.44.63-1.16.94-2.15.94s-1.67-.34-2.16-1.01c-.49-.67-.73-1.66-.73-2.97s.25-2.34.75-3.05 1.21-1.06 2.15-1.06 1.63.32 2.1.95.71 1.61.71 2.91v.36c0 1.31-.22 2.28-.66 2.91zm13.9-11.59c.59 0 1.07-.19 1.45-.57.38-.38.57-.87.57-1.45s-.19-1.07-.57-1.45c-.38-.38-.87-.57-1.45-.57s-1.07.19-1.45.57c-.38.38-.57.87-.57 1.45s.19 1.07.57 1.45c.38.38.87.57 1.45.57zm1.65 4.69v-2.79h-7.25v2.79h4.19v7.6h-4.93v2.79h11.95v-2.79h-3.96v-7.6zm13.63-3.04c-1.03 0-1.8.22-2.32.65-.52.44-.83 1.1-.93 1.98h-.34l-.27-2.39h-2.76v13.18h3.07v-6.91c0-2.44.92-3.65 2.76-3.65.66 0 1.18.22 1.54.65.36.43.55 1.04.55 1.84v8.08h3.07v-8.58c0-1.54-.38-2.73-1.14-3.58-.76-.85-1.84-1.27-3.23-1.27zm16.26 2.64h-.21c-.13-.86-.48-1.52-1.05-1.96-.57-.45-1.36-.67-2.37-.67-1.68 0-2.97.59-3.87 1.78-.9 1.18-1.35 2.89-1.35 5.12s.45 3.87 1.35 5.03c.9 1.16 2.19 1.74 3.86 1.74.95 0 1.72-.22 2.3-.67.58-.45.93-1.1 1.04-1.96h.26v1.62c0 1.25-.29 2.2-.85 2.84-.56.64-1.45.98-2.67 1.03l-4.23.12.12 2.72 3.85-.12c2.38-.08 4.11-.68 5.2-1.8 1.09-1.11 1.63-2.84 1.63-5.19V74.58h-2.82l-.21 2.39zm-.69 7.3c-.44.63-1.16.94-2.15.94s-1.67-.34-2.16-1.01c-.49-.67-.73-1.66-.73-2.97s.25-2.34.75-3.05c.5-.7 1.21-1.06 2.15-1.06s1.63.32 2.1.95.71 1.61.71 2.91v.36c0 1.31-.22 2.28-.66 2.91zm25.68.81c-.45.05-.87.07-1.26.07-1.19 0-2.03-.23-2.55-.7-.51-.46-.77-1.21-.77-2.22v-4.86h5.9v-2.78h-5.9V70.6h-3.06v3.98h-3.22v2.78h3.22v5.11c0 1.93.48 3.34 1.44 4.21.96.88 2.52 1.32 4.69 1.32.6 0 1.16-.02 1.7-.07s1.08-.12 1.63-.22l-.3-2.81c-.57.07-1.08.13-1.53.18zm11.89-10.75c-1.03 0-1.8.22-2.32.65-.52.44-.83 1.1-.93 1.98h-.3v-7.86h-3.07v18.64h3.07v-7.04c0-2.39.92-3.59 2.76-3.59.66 0 1.18.21 1.54.63.36.42.55 1.02.55 1.8v8.2h3.07v-8.58c0-1.54-.38-2.73-1.14-3.58-.76-.85-1.84-1.27-3.23-1.27zm19.57 6.41c0-2.08-.5-3.67-1.51-4.76-1.01-1.09-2.43-1.64-4.27-1.64s-3.38.6-4.43 1.79c-1.05 1.19-1.57 2.87-1.57 5.02s.62 3.91 1.85 5.09c1.23 1.18 2.98 1.77 5.25 1.77.52 0 1.12-.02 1.8-.06.68-.04 1.42-.14 2.24-.29l-.32-2.83c-.58.11-1.15.19-1.71.25s-1.13.09-1.71.09c-1.42 0-2.51-.35-3.28-1.06-.47-.44-.8-.99-.98-1.67h8.58c.05-.53.07-1.1.07-1.7zm-8.78-.51c.09-.87.35-1.57.77-2.1.54-.68 1.29-1.02 2.26-1.02.89 0 1.58.27 2.08.81s.75 1.31.75 2.31h-5.85zM125.74 100.3h-.51c-1.49 0-2.74.78-3.75 2.33-1.01 1.55-1.71 3.8-2.1 6.75-.44 3.24-.39 5.65.15 7.22.54 1.57 1.58 2.36 3.13 2.36h.45l6.72-6-.96 6.87c-.58.1-1.17.18-1.78.25-.61.07-1.21.13-1.81.19s-1.17.1-1.72.13-1.04.04-1.48.04c-1.71 0-3.22-.25-4.52-.75-1.3-.5-2.37-1.22-3.19-2.16-.83-.95-1.4-2.09-1.72-3.43-.32-1.34-.36-2.85-.12-4.52.24-1.65.71-3.14 1.42-4.48.71-1.33 1.61-2.47 2.7-3.4 1.09-.94 2.37-1.65 3.82-2.15 1.45-.5 3.03-.75 4.75-.75.48 0 1 .02 1.55.06.56.04 1.12.09 1.69.16.57.07 1.13.16 1.69.27.56.11 1.07.22 1.55.34l-.96 6.75-5.02-6.09zm6.57 12.03c.18-1.21.55-2.32 1.1-3.33.56-1 1.26-1.87 2.12-2.58.86-.72 1.84-1.27 2.96-1.66 1.11-.39 2.32-.58 3.61-.58s2.44.2 3.45.6c1 .4 1.84.96 2.49 1.67.66.72 1.12 1.57 1.4 2.57.28 1 .33 2.1.15 3.31a9.976 9.976 0 01-1.1 3.33 8.881 8.881 0 01-2.12 2.58c-.86.72-1.84 1.27-2.96 1.66-1.11.39-2.32.58-3.61.58s-2.44-.19-3.45-.58c-1.01-.39-1.84-.94-2.49-1.66-.66-.72-1.12-1.57-1.4-2.57-.28-.99-.33-2.11-.15-3.34zm9.55-6.36c-.98 0-1.81.55-2.49 1.66-.69 1.1-1.17 2.69-1.45 4.76-.28 2.05-.24 3.61.12 4.69s1.03 1.61 2.03 1.61 1.86-.55 2.54-1.64c.68-1.09 1.15-2.7 1.43-4.81.26-2.03.2-3.58-.16-4.66-.37-1.07-1.04-1.61-2.02-1.61zm26.99 2.93c.04.42.03.86-.03 1.31 0 .12-.01.28-.04.48-.03.2-.08.55-.15 1.04l-.3 2.12c-.13.92-.31 2.16-.55 3.73l1.52 2.54h-7.43c.32-2.03.57-3.61.75-4.73s.31-1.96.4-2.49c.09-.54.14-.86.16-.97.02-.11.03-.18.03-.22.22-1.59.22-2.71 0-3.36-.22-.65-.71-.97-1.46-.97-.46 0-.94.11-1.45.34s-1.03.57-1.57 1.03l-1.25 8.84 1.52 2.54h-9.14l2.15-2.57 1.31-9.58-1.37-2.48 7.46-1.52-.39 2.57c1.37-1.13 2.85-1.79 4.42-1.97.16-.02.32-.03.49-.03h.49c2.31 0 3.7.88 4.18 2.63.99-.94 1.97-1.61 2.94-2.03.96-.42 2.02-.62 3.18-.6 1.53.02 2.65.4 3.34 1.15.7.75 1.04 1.99 1.04 3.72 0 .2-.01.43-.03.69-.02.26-.06.67-.12 1.24s-.16 1.34-.3 2.33c-.14.99-.33 2.29-.57 3.93l1.52 2.54h-7.46l1.25-8c.12-.9.19-1.65.22-2.25.03-.61-.01-1.09-.12-1.46-.11-.37-.28-.63-.52-.79s-.55-.24-.93-.24c-1 0-2.07.51-3.22 1.52zm30.66 0c.04.42.03.86-.03 1.31 0 .12-.01.28-.04.48-.03.2-.08.55-.15 1.04l-.3 2.12c-.13.92-.31 2.16-.55 3.73l1.52 2.54h-7.43c.32-2.03.57-3.61.75-4.73s.31-1.96.4-2.49c.09-.54.14-.86.16-.97.02-.11.03-.18.03-.22.22-1.59.22-2.71 0-3.36-.22-.65-.71-.97-1.46-.97-.46 0-.94.11-1.45.34s-1.03.57-1.57 1.03l-1.25 8.84 1.52 2.54h-9.14l2.15-2.57 1.31-9.58-1.37-2.48 7.46-1.52-.39 2.57c1.37-1.13 2.85-1.79 4.42-1.97.16-.02.32-.03.49-.03h.49c2.31 0 3.7.88 4.18 2.63.99-.94 1.97-1.61 2.94-2.03.96-.42 2.02-.62 3.18-.6 1.53.02 2.65.4 3.34 1.15.7.75 1.04 1.99 1.04 3.72 0 .2-.01.43-.03.69-.02.26-.06.67-.12 1.24s-.16 1.34-.3 2.33c-.14.99-.33 2.29-.57 3.93l1.52 2.54h-7.46l1.25-8c.12-.9.19-1.65.22-2.25.03-.61-.01-1.09-.12-1.46-.11-.37-.28-.63-.52-.79s-.55-.24-.93-.24c-1 0-2.07.51-3.22 1.52zm13.19 3.43c.18-1.21.55-2.32 1.1-3.33.56-1 1.26-1.87 2.12-2.58.86-.72 1.84-1.27 2.96-1.66 1.11-.39 2.32-.58 3.61-.58s2.44.2 3.45.6c1 .4 1.84.96 2.49 1.67.66.72 1.12 1.57 1.4 2.57.28 1 .33 2.1.15 3.31a9.976 9.976 0 01-1.1 3.33 8.881 8.881 0 01-2.12 2.58c-.86.72-1.84 1.27-2.96 1.66-1.11.39-2.32.58-3.61.58s-2.44-.19-3.45-.58c-1.01-.39-1.84-.94-2.49-1.66-.66-.72-1.12-1.57-1.4-2.57-.28-.99-.33-2.11-.15-3.34zm9.55-6.36c-.98 0-1.81.55-2.49 1.66-.69 1.1-1.17 2.69-1.45 4.76-.28 2.05-.24 3.61.12 4.69s1.03 1.61 2.03 1.61 1.86-.55 2.54-1.64c.68-1.09 1.15-2.7 1.43-4.81.26-2.03.2-3.58-.16-4.66-.37-1.07-1.04-1.61-2.02-1.61zm22.58-1.43c.94 0 1.71.14 2.33.42.62.28 1.09.72 1.42 1.31.33.6.53 1.37.6 2.31.07.95.01 2.1-.16 3.45l-.84 5.55 1.52 2.54h-7.4l1.28-8.45c.22-1.59.22-2.71.01-3.34-.21-.64-.69-.96-1.45-.96-.98 0-1.99.46-3.04 1.37l-1.25 8.84 1.52 2.54h-9.11l2.15-2.57 1.31-9.58-1.37-2.48 7.43-1.52-.39 2.57c.86-.7 1.72-1.21 2.58-1.54.87-.33 1.82-.48 2.85-.46zm21.19 6.12l-4.57-4.27c-.12-.04-.24-.06-.36-.06h-.42c-1.33 0-2.05.4-2.15 1.19-.04.32 0 .6.15.85.14.25.35.48.63.7.28.22.61.43.99.63s.78.4 1.19.6c.56.28 1.12.57 1.69.88s1.07.67 1.51 1.09c.44.42.78.91 1.01 1.46.24.56.3 1.21.18 1.97-.14 1-.51 1.8-1.1 2.42-.6.62-1.31 1.1-2.13 1.45-.83.35-1.71.59-2.64.72-.94.13-1.79.19-2.57.19s-1.64-.05-2.66-.13a31.16 31.16 0 01-3.1-.43l.84-5.86 4.57 4.31c.16 0 .31 0 .46-.01.15-.01.3-.02.46-.05.58-.1 1.05-.26 1.42-.48.37-.22.57-.5.61-.84a.95.95 0 00-.15-.7c-.14-.21-.34-.41-.6-.61-.26-.2-.56-.39-.91-.57-.35-.18-.72-.37-1.12-.57-.58-.28-1.16-.58-1.76-.9a7.75 7.75 0 01-1.6-1.12c-.47-.43-.83-.93-1.09-1.5-.26-.57-.33-1.24-.21-2.02.22-1.56 1.08-2.75 2.58-3.59 1.5-.84 3.5-1.26 5.99-1.26.96 0 1.92.07 2.9.2.97.13 1.9.32 2.78.56l-.81 5.75z"/>
</svg>
