<svg width="729" height="309" viewBox="0 0 729 309" fill="none" xmlns="http://www.w3.org/2000/svg">
<path fill-rule="evenodd" clip-rule="evenodd" d="M364.679 171.238C344.923 171.235 325.78 164.377 310.516 151.836C295.251 139.294 284.811 121.846 280.975 102.466C277.139 83.086 280.145 62.9755 289.481 45.5648C298.817 28.154 313.904 14.5214 332.168 6.99223C350.433 -0.536936 370.745 -1.49625 389.638 4.27791C408.531 10.0521 424.836 22.202 435.771 38.6554C446.706 55.1087 451.594 74.8463 449.602 94.5013C447.61 114.156 438.86 132.512 424.846 146.436C408.839 162.305 387.218 171.217 364.679 171.238Z" fill="#0090FF"/>
<path fill-rule="evenodd" clip-rule="evenodd" d="M372.5 76.0533L394.748 79.1819C395.363 76.9357 395.911 74.997 396.526 72.8042L373.489 69.3814C376.083 60.0221 378.463 50.9436 381.257 42.1191C382.396 39.1488 384.161 36.4584 386.432 34.2306C387.025 33.5597 387.77 33.0408 388.606 32.7175C389.441 32.3941 390.341 32.2757 391.232 32.3721C392.124 32.463 392.981 32.7655 393.732 33.2546C394.483 33.736 395.107 34.3919 395.55 35.1665C396.499 36.5817 397.554 37.9226 398.706 39.1776C399.333 39.962 400.236 40.4766 401.231 40.6158C402.225 40.755 403.236 40.5083 404.054 39.9264C405.057 38.9637 405.03 36.7442 405.11 35.0596C405.11 34.391 404.361 33.5888 403.773 32.9738C402.508 31.6258 400.979 30.5518 399.282 29.8181C397.584 29.0845 395.755 28.7069 393.906 28.7086C385.362 28.3342 379.198 32.7197 374.452 39.2846C369.705 45.8495 367.593 53.4573 365.32 61.0249C364.651 63.2578 364.076 65.4773 363.435 67.9107L338.967 64.3675C338.686 66.587 338.392 68.6594 338.111 70.8789L362.004 74.5558C360.948 79.0883 359.945 83.3268 358.902 87.6454L336.065 84.4632C335.758 86.8967 335.531 88.7284 335.236 90.881L357.445 94.237C357.498 94.8241 357.498 95.4148 357.445 96.0019C355.118 105.95 352.952 116.058 350.305 125.871C349.281 130.767 346.741 135.217 343.045 138.587C342.425 139.237 341.66 139.732 340.812 140.031C339.534 140.489 338.135 140.484 336.86 140.018C335.584 139.551 334.513 138.652 333.833 137.477C332.912 135.84 331.754 134.349 330.396 133.051C329.34 132.276 326.987 131.821 326.211 132.436C325.604 133.018 325.122 133.717 324.795 134.492C324.469 135.267 324.304 136.101 324.313 136.942C324.659 138.5 325.587 139.868 326.907 140.766C328.805 142.161 330.989 143.115 333.301 143.562C335.614 144.008 337.997 143.935 340.277 143.347C344 142.618 347.494 141.004 350.463 138.642C353.432 136.281 355.79 133.24 357.338 129.776C359.977 124.148 362.212 118.34 364.023 112.394C365.788 107.046 366.978 101.551 368.449 95.9484L391.726 99.3312C392.368 97.1117 392.943 95.066 393.558 92.8866L369.692 89.3702C370.695 84.6638 371.564 80.5591 372.5 76.0533Z" fill="white"/>
<mask id="mask0_273_2598" style="mask-type:alpha" maskUnits="userSpaceOnUse" x="152" y="12" width="131" height="148">
<path fill-rule="evenodd" clip-rule="evenodd" d="M277.756 121.567C272.285 108.366 269.906 94.0879 270.803 79.826C271.7 65.5642 275.848 51.6967 282.931 39.2852C273.547 27.7795 260.9 19.3836 246.654 15.202C232.408 11.0205 217.23 11.2491 203.116 15.8578C189.002 20.4665 176.614 29.2394 167.581 41.0226C158.548 52.8057 153.294 67.0471 152.508 81.8735C151.723 96.6998 155.444 111.417 163.182 124.088C170.92 136.759 182.312 146.792 195.86 152.865C209.408 158.939 224.477 160.769 239.085 158.116C253.693 155.462 267.156 148.449 277.703 137.999C279.559 136.148 281.313 134.198 282.957 132.156C281.005 128.738 279.268 125.201 277.756 121.567V121.567Z" fill="white"/>
</mask>
<g mask="url(#mask0_273_2598)">
<mask id="mask1_273_2598" style="mask-type:alpha" maskUnits="userSpaceOnUse" x="152" y="12" width="131" height="148">
<path fill-rule="evenodd" clip-rule="evenodd" d="M277.756 121.453C272.285 108.252 269.906 93.974 270.803 79.7121C271.7 65.4503 275.848 51.5828 282.931 39.1713C273.547 27.6656 260.9 19.2697 246.654 15.0881C232.408 10.9066 217.23 11.1352 203.116 15.7439C189.002 20.3526 176.614 29.1255 167.581 40.9087C158.548 52.6918 153.294 66.9332 152.508 81.7596C151.723 96.5859 155.444 111.303 163.182 123.974C170.92 136.645 182.312 146.678 195.86 152.751C209.408 158.825 224.477 160.655 239.085 158.002C253.693 155.348 267.156 148.335 277.703 137.885C279.559 136.034 281.313 134.084 282.957 132.042C281.005 128.624 279.268 125.087 277.756 121.453V121.453Z" fill="white"/>
</mask>
<g mask="url(#mask1_273_2598)">
</g>
<g clip-path="url(#clip0_273_2598)">
<path d="M226.078 159.186C266.751 159.186 299.722 126.214 299.722 85.542C299.722 44.8696 266.751 11.8981 226.078 11.8981C185.406 11.8981 152.434 44.8696 152.434 85.542C152.434 126.214 185.406 159.186 226.078 159.186Z" fill="#008F79"/>
<g clip-path="url(#clip1_273_2598)">
<path d="M223.86 113.956C223.851 115.278 223.335 116.334 222.04 116.334C220.67 116.333 219.12 113.669 215.277 111.838C211.842 110.201 208.478 109.465 205.431 109.46C201.666 109.453 195.317 111.276 189.305 111.355C183.634 111.429 178.505 108.727 175.26 105.187C172.838 102.545 171.156 98.3553 171.173 94.5602C171.194 89.7759 173.047 85.0844 177.266 81.5554C180.338 78.9865 183.887 77.9272 188.005 77.9142C194.173 77.8947 200.382 81.0681 204.316 84.1936C210.087 88.7782 215.391 94.8711 219.068 101.471C221.16 105.228 223.878 111.505 223.861 113.956L223.86 113.956Z" fill="white"/>
<path d="M228.951 113.956C228.96 115.278 229.476 116.334 230.771 116.334C232.141 116.333 233.691 113.669 237.534 111.838C240.969 110.201 244.333 109.465 247.38 109.46C251.145 109.453 257.494 111.276 263.506 111.355C269.177 111.429 274.306 108.727 277.551 105.187C279.973 102.545 281.655 98.3553 281.638 94.5602C281.617 89.7759 279.764 85.0844 275.545 81.5554C272.473 78.9865 268.924 77.9272 264.806 77.9142C258.638 77.8947 252.429 81.0681 248.495 84.1936C242.724 88.7782 237.42 94.8711 233.743 101.471C231.651 105.228 228.933 111.505 228.95 113.956L228.951 113.956Z" fill="white"/>
<path opacity="0.99" d="M237.161 49.452C242.151 49.4232 245.65 51.3672 248.547 54.208C251.668 57.2696 253.19 61.2866 253.213 65.838C253.235 70.2283 251.714 73.3694 250.002 75.7371C247.205 79.6053 243.993 82.097 240.7 85.1222C235.369 90.0198 232.06 94.3822 229.284 99.8363C228.599 101.182 228.011 103.187 226.404 103.187C224.797 103.187 224.209 101.182 223.523 99.8363C220.747 94.3824 217.438 90.0198 212.107 85.1222C208.814 82.0968 205.602 79.6052 202.806 75.7371C201.094 73.3696 199.572 70.2283 199.595 65.838C199.618 61.2866 201.14 57.2696 204.261 54.208C207.157 51.3672 210.656 49.4231 215.646 49.452C220.796 49.4817 224.067 51.2608 226.404 54.2451C228.741 51.2608 232.011 49.4816 237.161 49.452Z" fill="white"/>
<path d="M230.439 56.2519C232.154 54.9882 234.365 54.1738 236.495 54.2083C239.564 54.2578 242.448 55.2492 244.521 57.2552C246.824 59.4831 248.37 62.4499 248.274 66.1356C248.142 71.2068 245.397 73.9044 241.586 77.8028C238.984 80.4638 236.513 81.8438 232.742 86.0515C231.265 87.7004 228.292 91.9125 226.407 95.862C224.521 91.9125 221.548 87.7004 220.071 86.0515C216.3 81.8438 213.829 80.4638 211.228 77.8028C207.416 73.9046 204.671 71.2068 204.539 66.1356C204.444 62.4501 205.99 59.4833 208.292 57.2552C210.365 55.2493 213.25 54.2579 216.318 54.2083C218.448 54.1739 220.659 54.9882 222.374 56.2519C224.114 57.5331 225.33 59.1549 226.407 61.3052C227.483 59.1549 228.7 57.5331 230.439 56.2519Z" fill="white"/>
</g>
<g clip-path="url(#clip2_273_2598)">
<path d="M225.969 159.077C266.582 159.077 299.504 126.154 299.504 85.542C299.504 44.9297 266.582 12.007 225.969 12.007C185.357 12.007 152.434 44.9297 152.434 85.542C152.434 126.154 185.357 159.077 225.969 159.077Z" fill="#B8342E"/>
<path fill-rule="evenodd" clip-rule="evenodd" d="M214.107 87.7539C214.107 84.7059 214.577 82.0345 215.207 79.6598C208.692 80.2607 203.725 80.058 196.435 79.1168V77.0318C196.435 75.1422 197.636 73.0499 199.96 70.7259C200.185 70.5015 200.308 70.1902 200.308 69.8789V65.7088C200.308 64.297 201.025 62.8418 202.053 61.2201C202.306 60.8292 202.567 60.431 202.835 60.0328C202.856 60.0038 202.871 59.9749 202.892 59.9532C203.139 59.5767 203.392 59.2002 203.631 58.8238C204.145 58.0274 204.645 57.1803 204.992 56.326C205.05 56.1812 205.079 56.0292 205.079 55.8772V52.1559H211.334V55.8772C211.334 56.0292 211.363 56.1812 211.421 56.326C211.768 57.1803 212.268 58.0274 212.782 58.8238C213.021 59.2002 213.274 59.5767 213.52 59.9532L213.578 60.0328C213.846 60.431 214.107 60.8292 214.36 61.2201C215.388 62.8418 216.098 64.297 216.098 65.7088V69.8789C216.098 70.1974 216.228 70.5015 216.453 70.7259C216.901 71.1676 217.307 71.6092 217.662 72.0363C218.045 70.8056 218.328 69.6545 218.487 68.5033V65.7088C218.487 63.5513 217.415 61.5893 216.373 59.9459C216.098 59.5188 215.823 59.1061 215.555 58.7079L215.504 58.6283C215.258 58.2518 215.012 57.8898 214.787 57.5351C214.346 56.8473 213.977 56.2247 213.716 55.6383V51.4537L214.114 51.0627C214.339 50.8383 214.462 50.5342 214.462 50.2157C214.462 49.5641 214.273 48.7315 214.085 48.051C214.035 47.87 213.984 47.689 213.926 47.5152C214.172 47.298 214.317 46.9795 214.317 46.6392C214.317 44.3659 213.216 43.0338 212.159 42.6791C212.036 42.6429 211.906 42.6211 211.783 42.6211H204.63C204.5 42.6211 204.377 42.6429 204.254 42.6791C203.197 43.0338 202.096 44.3659 202.096 46.6392C202.096 46.9795 202.241 47.298 202.48 47.5152C202.429 47.689 202.378 47.87 202.328 48.051C202.14 48.7315 201.951 49.5641 201.951 50.2157C201.951 50.5342 202.074 50.8383 202.299 51.0627L202.697 51.4537V55.6383C202.436 56.2247 202.067 56.8473 201.626 57.5351C201.401 57.8898 201.155 58.2518 200.909 58.6283C200.887 58.6572 200.873 58.679 200.851 58.7079C200.59 59.1061 200.308 59.5188 200.04 59.9459C198.99 61.5893 197.926 63.5513 197.926 65.7088V69.3938C195.667 71.7395 194.053 74.2951 194.053 77.0318V109.249C194.103 110.653 195.24 112.108 197.376 113.165C199.555 114.237 202.979 115.019 208.206 115.019C213.434 115.019 216.858 114.237 219.037 113.165C221.173 112.108 222.31 110.653 222.36 109.249V103.768C217.604 100.59 214.107 95.2905 214.107 87.7539ZM204.623 48.6881C204.695 48.4274 204.775 48.1813 204.847 47.9424C204.934 47.9569 205.028 47.9713 205.13 47.9713C205.441 47.9786 205.702 47.8917 205.904 47.7903C206.1 47.8772 206.346 47.9496 206.635 47.9496C206.925 47.9496 207.186 47.87 207.381 47.7831C207.584 47.8772 207.845 47.9713 208.163 47.9786C208.496 47.9931 208.793 47.9062 209.039 47.7903C209.235 47.87 209.481 47.9496 209.778 47.9496C210.074 47.9496 210.306 47.8772 210.502 47.7903C210.711 47.8917 210.972 47.9786 211.283 47.9713C211.378 47.9713 211.479 47.9569 211.566 47.9424C211.638 48.1813 211.718 48.4274 211.79 48.6881C211.899 49.1007 211.986 49.4772 212.029 49.7668H204.377C204.427 49.4772 204.514 49.1007 204.623 48.6881ZM219.971 109.176C219.957 109.343 219.718 110.168 217.987 111.023C216.257 111.877 213.231 112.637 208.206 112.637C203.182 112.637 200.156 111.877 198.426 111.023C196.695 110.168 196.449 109.343 196.435 109.176V107.888C200.858 108.93 204.514 109.509 208.199 109.538C211.877 109.567 215.54 109.046 219.971 107.924V109.176Z" fill="white"/>
<path fill-rule="evenodd" clip-rule="evenodd" d="M250.387 57.5593C250.233 57.0597 249.771 56.7188 249.248 56.7189H219.821C219.299 56.7189 218.837 57.0597 218.683 57.5593C218.528 58.0589 218.718 58.6007 219.15 58.8952C219.15 58.8952 219.161 58.9031 219.184 58.9231C219.206 58.9426 219.236 58.9708 219.272 59.0095C219.344 59.0873 219.435 59.1995 219.539 59.3524C219.746 59.6584 219.99 60.109 220.223 60.7327C220.687 61.979 221.099 63.8923 221.099 66.6574C221.099 69.1951 220.497 71.4851 219.701 73.907C219.508 74.494 219.303 75.0896 219.094 75.6975C217.901 79.1613 216.572 83.0225 216.572 87.9559C216.572 97.7156 223.084 103.239 230.242 104.876C230.42 105.048 230.563 105.229 230.687 105.454C230.862 105.77 231.029 106.223 231.162 106.938C231.419 108.316 231.519 110.477 231.448 114.106L230.694 114.537C230.322 114.749 230.093 115.144 230.093 115.571V115.83L229.487 115.981C228.576 116.208 227.359 116.518 226.139 116.85C224.925 117.181 223.688 117.538 222.745 117.86C222.279 118.02 221.848 118.182 221.519 118.34C221.361 118.416 221.174 118.516 221.009 118.641C220.927 118.702 220.808 118.802 220.7 118.944C220.597 119.08 220.428 119.353 220.428 119.734C220.428 119.956 220.443 120.488 220.887 121.055C221.285 121.563 221.929 121.973 222.861 122.309C224.711 122.975 228.176 123.51 234.778 123.51C241.38 123.51 244.845 122.975 246.695 122.309C247.626 121.973 248.27 121.563 248.668 121.055C249.112 120.488 249.127 119.956 249.127 119.734C249.127 119.353 248.959 119.08 248.856 118.944C248.747 118.802 248.628 118.702 248.547 118.641C248.382 118.516 248.194 118.416 248.036 118.34C247.707 118.182 247.276 118.02 246.811 117.86C245.868 117.538 244.63 117.181 243.416 116.85C242.197 116.518 240.98 116.208 240.069 115.981L239.462 115.83V115.571C239.462 115.144 239.233 114.749 238.862 114.537L238.108 114.106C238.04 110.484 238.167 108.314 238.449 106.93C238.693 105.729 239.035 105.196 239.446 104.808C246.881 102.815 252.723 96.0345 252.723 87.9504C252.723 83.0161 251.388 79.1555 250.19 75.6929C249.981 75.0861 249.775 74.4915 249.581 73.9055C248.782 71.4835 248.176 69.1943 248.176 66.6565C248.176 63.8754 248.541 61.9502 248.963 60.6957C249.174 60.0682 249.396 59.6194 249.585 59.3181C249.68 59.1678 249.762 59.0604 249.826 58.9883C249.887 58.9195 249.921 58.8947 249.921 58.8947C250.353 58.6001 250.541 58.0589 250.387 57.5593ZM236.113 106.455C236.197 106.045 236.294 105.676 236.406 105.342C235.92 105.383 235.43 105.405 234.936 105.405C234.364 105.405 233.79 105.381 233.215 105.334C233.33 105.688 233.426 106.075 233.505 106.501C233.817 108.172 233.816 111.807 233.816 114.537L233.816 114.835C233.816 117.593 232.269 117.441 232.269 117.441C232.106 117.679 231.857 117.857 231.56 117.927L231.454 117.952L231.15 118.026C230.888 118.089 230.513 118.181 230.063 118.293C229.161 118.518 227.962 118.824 226.765 119.15C225.631 119.458 224.521 119.782 223.668 120.066C225.108 120.585 228.222 121.126 234.778 121.126C241.334 121.126 244.451 120.583 245.89 120.065C245.038 119.78 243.924 119.458 242.79 119.15C241.593 118.824 240.394 118.518 239.493 118.293C239.042 118.181 238.667 118.089 238.405 118.026L238.101 117.952L237.995 117.927C237.698 117.857 237.45 117.679 237.287 117.441C237.287 117.441 235.739 117.621 235.739 114.835C235.739 112.049 235.757 108.208 236.113 106.455ZM247.022 59.1023C246.91 59.3619 246.804 59.6401 246.704 59.9358C246.183 61.4851 245.793 63.6757 245.793 66.6565C245.793 68.9734 246.234 71.0741 246.827 73.0873H222.454C223.044 71.0739 223.483 68.9734 223.483 66.6574C223.483 63.6605 223.037 61.4576 222.456 59.8996C222.35 59.616 222.238 59.3501 222.122 59.1023H247.022Z" fill="white"/>
<path fill-rule="evenodd" clip-rule="evenodd" d="M250.387 57.5593C250.233 57.0597 249.771 56.7188 249.248 56.7189H219.821C219.299 56.7189 218.837 57.0597 218.683 57.5593C218.528 58.0589 218.718 58.6007 219.15 58.8952C219.15 58.8952 219.161 58.9031 219.184 58.9231C219.206 58.9426 219.236 58.9708 219.272 59.0095C219.344 59.0873 219.435 59.1995 219.539 59.3524C219.746 59.6584 219.99 60.109 220.223 60.7327C220.687 61.979 221.099 63.8923 221.099 66.6574C221.099 69.1951 220.497 71.4851 219.701 73.907C219.508 74.494 219.303 75.0896 219.094 75.6975C217.901 79.1613 216.572 83.0225 216.572 87.9559C216.572 97.7156 223.084 103.239 230.242 104.876C230.42 105.048 230.563 105.229 230.687 105.454C230.862 105.77 231.029 106.223 231.162 106.938C231.419 108.316 231.519 110.477 231.448 114.106L230.694 114.537C230.322 114.749 230.093 115.144 230.093 115.571V115.83L229.487 115.981C228.576 116.208 227.359 116.518 226.139 116.85C224.925 117.181 223.688 117.538 222.745 117.86C222.279 118.02 221.848 118.182 221.519 118.34C221.361 118.416 221.174 118.516 221.009 118.641C220.927 118.702 220.808 118.802 220.7 118.944C220.597 119.08 220.428 119.353 220.428 119.734C220.428 119.956 220.443 120.488 220.887 121.055C221.285 121.563 221.929 121.973 222.861 122.309C224.711 122.975 228.176 123.51 234.778 123.51C241.38 123.51 244.845 122.975 246.695 122.309C247.626 121.973 248.27 121.563 248.668 121.055C249.112 120.488 249.127 119.956 249.127 119.734C249.127 119.353 248.959 119.08 248.856 118.944C248.747 118.802 248.628 118.702 248.547 118.641C248.382 118.516 248.194 118.416 248.036 118.34C247.707 118.182 247.276 118.02 246.811 117.86C245.868 117.538 244.63 117.181 243.416 116.85C242.197 116.518 240.98 116.208 240.069 115.981L239.462 115.83V115.571C239.462 115.144 239.233 114.749 238.862 114.537L238.108 114.106C238.04 110.484 238.167 108.314 238.449 106.93C238.693 105.729 239.035 105.196 239.446 104.808C246.881 102.815 252.723 96.0345 252.723 87.9504C252.723 83.0161 251.388 79.1555 250.19 75.6929C249.981 75.0861 249.775 74.4915 249.581 73.9055C248.782 71.4835 248.176 69.1943 248.176 66.6565C248.176 63.8754 248.541 61.9502 248.963 60.6957C249.174 60.0682 249.396 59.6194 249.585 59.3181C249.68 59.1678 249.762 59.0604 249.826 58.9883C249.887 58.9195 249.921 58.8947 249.921 58.8947C250.353 58.6001 250.541 58.0589 250.387 57.5593ZM236.113 106.455C236.197 106.045 236.294 105.676 236.406 105.342C235.92 105.383 235.43 105.405 234.936 105.405C234.364 105.405 233.79 105.381 233.215 105.334C233.33 105.688 233.426 106.075 233.505 106.501C233.817 108.172 233.816 111.807 233.816 114.537L233.816 114.835C233.816 117.593 232.269 117.441 232.269 117.441C232.106 117.679 231.857 117.857 231.56 117.927L231.454 117.952L231.15 118.026C230.888 118.089 230.513 118.181 230.063 118.293C229.161 118.518 227.962 118.824 226.765 119.15C225.631 119.458 224.521 119.782 223.668 120.066C225.108 120.585 228.222 121.126 234.778 121.126C241.334 121.126 244.451 120.583 245.89 120.065C245.038 119.78 243.924 119.458 242.79 119.15C241.593 118.824 240.394 118.518 239.493 118.293C239.042 118.181 238.667 118.089 238.405 118.026L238.101 117.952L237.995 117.927C237.698 117.857 237.45 117.679 237.287 117.441C237.287 117.441 235.739 117.621 235.739 114.835C235.739 112.049 235.757 108.208 236.113 106.455ZM247.022 59.1023C246.91 59.3619 246.804 59.6401 246.704 59.9358C246.183 61.4851 245.793 63.6757 245.793 66.6565C245.793 68.9734 246.234 71.0741 246.827 73.0873H222.454C223.044 71.0739 223.483 68.9734 223.483 66.6574C223.483 63.6605 223.037 61.4576 222.456 59.8996C222.35 59.616 222.238 59.3501 222.122 59.1023H247.022Z" fill="white"/>
</g>
</g>
</g>
<mask id="mask2_273_2598" style="mask-type:alpha" maskUnits="userSpaceOnUse" x="446" y="12" width="131" height="148">
<path fill-rule="evenodd" clip-rule="evenodd" d="M564.766 45.208C558.767 36.085 550.816 28.4094 541.487 22.7365C532.158 17.0636 521.684 13.5352 510.824 12.4066C499.964 11.278 488.989 12.5774 478.693 16.2108C468.397 19.8442 459.037 25.7208 451.291 33.4153C449.429 35.2693 447.667 37.2196 446.01 39.2582C454.056 53.414 458.286 69.4175 458.286 85.7003C458.286 101.983 454.056 117.987 446.01 132.142C457.959 146.7 475.029 156.128 493.714 158.49C512.398 160.852 531.278 155.969 546.474 144.843C561.67 133.717 572.028 117.195 575.42 98.6692C578.812 80.1438 574.98 61.0228 564.712 45.2348L564.766 45.208Z" fill="white"/>
</mask>
<g mask="url(#mask2_273_2598)">
<mask id="mask3_273_2598" style="mask-type:alpha" maskUnits="userSpaceOnUse" x="446" y="11" width="131" height="148">
<path fill-rule="evenodd" clip-rule="evenodd" d="M564.766 45.0941C558.767 35.9712 550.816 28.2956 541.487 22.6226C532.158 16.9497 521.684 13.4213 510.824 12.2927C499.964 11.1641 488.989 12.4635 478.693 16.0969C468.397 19.7303 459.037 25.6069 451.291 33.3014C449.429 35.1554 447.667 37.1057 446.01 39.1443C454.056 53.3001 458.286 69.3036 458.286 85.5864C458.286 101.869 454.056 117.873 446.01 132.029C457.959 146.586 475.029 156.014 493.714 158.376C512.398 160.738 531.278 155.855 546.474 144.729C561.67 133.604 572.028 117.081 575.42 98.5553C578.812 80.0299 574.98 60.9089 564.712 45.1209L564.766 45.0941Z" fill="white"/>
</mask>
<g mask="url(#mask3_273_2598)">
</g>
<g clip-path="url(#clip3_273_2598)">
<path d="M502.812 159.186C543.484 159.186 576.456 126.214 576.456 85.542C576.456 44.8696 543.484 11.8981 502.812 11.8981C462.139 11.8981 429.168 44.8696 429.168 85.542C429.168 126.214 462.139 159.186 502.812 159.186Z" fill="#F5D90A"/>
<g clip-path="url(#clip4_273_2598)">
<path d="M528.919 42.2307C528.762 42.2307 528.597 42.2345 528.428 42.242C526.331 42.3019 525.728 42.4629 523.807 43.4516C522.047 44.3616 520.894 45.4177 519.587 47.3352C518.396 49.0765 517.564 51.3534 517.328 53.488C516.961 56.8509 516.37 59.8656 515.789 61.3148C515.437 62.2023 514.49 63.5056 513.943 63.8576C513.737 63.9924 513.58 64.1535 513.606 64.2246C513.662 64.3931 514.486 64.5317 515.007 64.4568C515.729 64.3519 516.857 63.8688 517.658 63.3296C518.246 62.9326 518.381 62.9401 518.287 63.3745C518.047 64.5205 517.991 65.041 517.961 66.4491C517.924 68.2841 518.066 68.9881 518.778 70.4113C519.175 71.209 519.987 72.3025 520.096 72.1902C520.122 72.1639 520.07 71.8681 519.987 71.5273C519.639 70.1604 519.59 69.4489 519.763 68.243C520.066 66.0784 520.594 64.5357 521.777 62.3972C522.047 61.9029 522.403 61.2363 522.56 60.918C522.721 60.5997 523.043 60.0155 523.272 59.6185C523.927 58.495 523.976 58.6673 523.901 61.9478C523.871 63.4458 523.792 64.8837 523.736 65.146C523.68 65.4082 523.657 65.6441 523.684 65.6703C523.758 65.7452 524.2 65.1722 524.672 64.3895C525.477 63.0563 526.279 61.094 526.421 60.1203C526.466 59.832 526.545 59.4762 526.601 59.3339C526.683 59.1129 526.706 57.1207 526.646 55.6376C526.631 55.2781 526.638 55.2669 527.002 55.2968C527.395 55.3305 528.986 55.0384 529.166 54.8998C529.226 54.8549 529.425 54.7688 529.612 54.7051C530.222 54.4992 531.653 53.3831 531.653 53.1098C531.653 53.0461 531.529 52.9899 531.383 52.9899C530.705 52.9899 529.825 52.3009 529.642 51.623C529.582 51.3983 529.563 50.9489 529.601 50.6306C529.698 49.7918 530.271 49.1701 531.271 48.8143C533.098 48.159 534.525 48.8143 535.428 50.7205C535.806 51.5182 535.825 51.6193 535.817 52.5668C535.799 54.6489 535.319 55.6976 532.971 58.7684C532.623 59.2253 532.196 59.8095 532.02 60.0716C531.848 60.3338 531.675 60.5734 531.642 60.5997C531.608 60.6296 531.275 61.1052 530.9 61.6595C530.529 62.21 529.867 63.1724 529.432 63.7941C527.166 67.0259 526.47 68.6811 525.721 72.5984C525.481 73.8642 525.47 74.6281 525.676 75.804C526.182 78.669 527.657 81.0543 531.443 85.1214C533.162 86.9676 534.428 88.6941 535.121 90.1397C535.435 90.795 535.48 90.9823 535.484 91.7612C535.488 92.7349 535.398 92.9296 534.686 93.5063C534.143 93.9445 533.522 93.9857 532.481 93.6524C531.177 93.2367 530.331 92.7049 529.271 91.6301C528.747 91.1021 528.136 90.4093 527.919 90.0872C527.32 89.2109 525.717 86.7729 525.373 86.2037C524.95 85.5108 524.684 85.0877 524.084 84.1702C523.8 83.732 523.549 83.335 523.526 83.2826C523.474 83.1665 521.703 80.4215 521.381 79.9645C520.729 79.0432 520.534 78.7848 519.568 77.5565C518.519 76.2271 515.812 73.4034 514.733 72.5159C513.498 71.501 512.022 70.6097 509.517 69.3701C508.086 68.6623 506.918 68.0294 506.921 67.962C506.921 67.8871 507.187 67.8347 507.648 67.8197C508.416 67.801 509.236 67.4864 509.745 67.0183C509.981 66.8048 509.996 66.8011 510.382 66.9846C511.198 67.3741 512.363 67.3066 512.782 66.8423C512.955 66.6513 512.94 66.6363 512.49 66.4378C511.764 66.1158 511.516 65.6814 511.516 64.7339V63.9474L512.044 63.8239C512.704 63.6703 513.539 63.1573 513.928 62.6667C514.276 62.221 514.628 61.4833 514.632 61.1837C514.632 61.0152 514.576 61.0489 514.321 61.356C513.981 61.7716 513.209 62.1873 512.782 62.1873C512.269 62.1873 511.569 61.6593 511.569 61.2698C511.569 61.1987 511.79 61.1125 512.071 61.0713C512.868 60.9552 513.456 60.5508 513.621 60.0078C513.685 59.8018 513.655 59.7868 513.172 59.8355C512.03 59.9441 511.88 59.5921 511.861 56.8208L511.846 54.7573L512.101 54.5513C512.243 54.4353 512.576 54.233 512.846 54.0982C513.426 53.8024 513.951 53.2294 514.239 52.5815C514.479 52.0423 514.636 50.3496 514.445 50.3496C514.385 50.3496 514.303 50.4544 514.261 50.5855C514.13 51.0236 513.595 51.7726 513.277 51.9599C512.831 52.2258 512.34 52.1958 511.925 51.8775C511.73 51.7277 511.569 51.5404 511.569 51.4618C511.569 51.3831 511.73 51.1809 511.928 51.0161C513.071 50.0762 513.778 47.8105 513.479 46.0541C513.34 45.2302 512.981 44.043 512.775 43.7134C512.764 43.6947 512.4 43.8932 511.966 44.1591C511.531 44.425 510.846 44.7695 510.445 44.9268C509.756 45.2002 509.629 45.2152 507.925 45.2152C506.937 45.2152 505.154 45.1815 503.959 45.144C502.768 45.1028 501.372 45.1141 500.859 45.1665C499.773 45.2751 499.495 45.4211 498.346 46.5221C497.938 46.9116 497.383 47.361 497.11 47.5183C496.503 47.8703 495.53 48.1287 494.837 48.1287C494.549 48.1287 494.009 48.1849 493.635 48.256C492.875 48.3946 492.706 48.5631 492.852 49.0425C492.904 49.211 493.006 49.6154 493.077 49.9413C493.208 50.533 493.204 50.5442 492.886 50.9449C492.433 51.5216 492.361 51.8699 492.29 53.9147C492.264 54.6262 492.283 55.2329 492.335 55.2629C492.384 55.2928 492.624 55.2441 492.863 55.1468C493.418 54.9258 494.223 55.0082 494.676 55.3303C494.856 55.4576 495.14 55.7759 495.309 56.0381C495.567 56.4463 495.612 56.6298 495.612 57.2364C495.612 57.6297 495.545 58.1539 495.462 58.4049C495.38 58.652 495.279 59.0115 495.241 59.1988C495.204 59.3898 494.96 59.8279 494.706 60.1762C493.889 61.2847 492.496 61.97 491.043 61.9738H490.44L490.051 61.3671C489.579 60.6181 489.137 60.135 488.583 59.7718C488.208 59.5246 488.059 59.4909 487.313 59.5021C485.815 59.5171 484.756 60.1088 484.246 61.2098C483.995 61.7528 483.969 61.9176 484.003 62.7677L484.037 63.7189L483.632 63.704C483.168 63.689 482.666 63.2658 481.722 62.0787C480.112 60.0601 479.449 58.6259 479.056 56.2665C478.865 55.143 478.869 55.2067 478.996 54.6262C479.194 53.69 479.614 53.0234 480.584 52.0685C481.685 50.99 481.816 50.6866 481.43 50.0987C481.295 49.8927 481.067 49.6643 480.921 49.5931C480.734 49.4995 480.614 49.4396 480.546 49.3684L478.243 47.9041L477.547 47.8442C476.891 47.7918 476.835 47.8068 476.562 48.0802C476.315 48.3273 476.27 48.4584 476.27 48.9452C476.27 49.2598 476.221 49.6081 476.161 49.7204C476.011 49.9976 475.674 49.9826 475.479 49.683C475.303 49.4171 475.236 48.5595 475.371 48.3423C475.419 48.2637 475.472 47.9678 475.487 47.6944C475.528 47.0054 475.247 46.7058 474.465 46.6046L471.188 46.6346C471.053 46.6234 470.944 46.6533 470.727 46.7395C470.311 46.9866 470.064 47.3199 469.974 47.7656C469.926 48.0053 470.012 48.2711 470.341 48.8966C470.577 49.3422 470.776 49.7916 470.776 49.889C470.776 50.1549 470.457 50.4544 470.18 50.4544C469.929 50.4544 469.813 50.3271 469.289 49.4733C468.892 48.8329 468.548 48.6868 468.012 48.9303C466.978 49.5369 466.413 50.5743 465.964 51.7241C465.746 52.342 465.761 52.5479 466.08 53.1846C466.465 53.9598 466.761 54.0908 467.952 54.0197C469.049 53.9598 469.293 54.0908 469.293 54.7312C469.293 55.0196 469.222 55.1507 468.937 55.3641C468.544 55.6675 468.094 55.7274 467.169 55.5926C466.63 55.5177 466.555 55.5289 466.271 55.7723C466.001 56.0045 465.967 56.1019 465.982 56.5737L465.997 57.113C466.323 58.0043 464.776 57.7871 466.971 59.783C467.117 59.8804 467.428 59.989 467.664 60.0264C468.124 60.1014 468.203 60.0527 469.263 59.1015C470.173 58.2851 470.997 58.7682 470.944 60.0864C470.892 61.296 470.139 61.9663 468.57 62.1798C468.042 62.2509 467.563 62.2809 467.503 62.2435C467.439 62.206 467.39 62.2247 467.39 62.2884C467.39 62.4494 468.278 62.9924 468.971 63.2546C469.446 63.4343 469.712 63.468 470.364 63.4231C470.809 63.3969 471.27 63.3145 471.394 63.2508C471.776 63.0449 471.862 63.2059 471.791 63.9811C471.716 64.8087 471.529 65.318 471.18 65.6326C470.604 66.1607 470.173 66.2093 469.057 65.891C468.664 65.7787 468.342 65.7113 468.342 65.7412C468.342 65.7674 468.413 65.9247 468.495 66.0857C468.75 66.5801 469.341 67.0145 470.105 67.2617C470.502 67.3927 470.869 67.535 470.922 67.5875C470.978 67.6399 470.869 67.8084 470.66 67.9957C470.203 68.4001 469.697 68.4151 468.817 68.0518C468.023 67.7223 467.986 67.7223 468.068 68.0781C468.106 68.2391 468.158 68.5537 468.184 68.7821C468.24 69.2727 468.57 69.9468 468.948 70.3475C469.843 71.2949 471.877 71.3848 473.375 70.5385C473.686 70.3625 473.989 70.2202 474.049 70.2202C474.232 70.2202 474.165 71.0515 473.948 71.4784C473.835 71.7032 473.539 72.0589 473.292 72.2686L472.847 72.6506H473.371C474.045 72.6468 475.592 72.3173 476.547 71.9728C477.412 71.6582 477.494 71.647 477.569 71.8417C477.644 72.0402 476.76 75.463 476.476 76.0698C476.341 76.3507 476.019 76.8188 475.753 77.1034C475.322 77.5678 475.199 77.6352 474.659 77.7213C474.21 77.7925 473.922 77.7812 473.566 77.6726C472.963 77.4929 472.719 77.2757 472.446 76.6765C472.266 76.2833 472.24 76.0848 472.3 75.4818C472.345 75.0324 472.33 74.7628 472.266 74.7628C472.09 74.7628 471.412 75.6279 471.154 76.1859C470.57 77.4404 470.547 78.4929 471.075 79.6574C471.573 80.7584 472.708 81.5636 474.157 81.8444C474.697 81.9493 475.041 81.953 475.783 81.8557C477.753 81.5898 479.086 80.8932 479.914 79.691C480.247 79.2041 480.393 79.0843 480.85 78.9383C481.767 78.6424 482.823 77.9946 483.718 77.1744C484.052 76.8711 484.303 76.9235 484.303 77.298C484.303 77.489 484.932 78.8858 485.175 79.2379C485.291 79.4101 485.209 79.5225 484.445 80.2527C483.969 80.7059 483.187 81.38 482.7 81.7507C481.632 82.5708 479.404 84.0651 479.251 84.0651C479.187 84.0651 479.075 84.125 478.996 84.1962C478.782 84.3909 478.509 84.5482 477.801 84.8927C476.431 85.5556 475.614 85.7766 474.427 85.7953C473.749 85.8065 473.626 85.7803 473.277 85.5144C472.851 85.1886 472.809 84.9901 473.045 84.4171C473.285 83.8442 473.251 83.3012 472.959 83.024C472.566 82.657 472.098 82.5634 471.585 82.7544C470.592 83.2487 469.435 82.7656 468.173 83.9228C467.364 84.492 467.271 85.0613 467.836 85.9151C468.24 86.5293 468.282 87.0311 467.945 87.3681C467.727 87.5816 467.679 87.5891 467.211 87.4618C466.934 87.3869 466.686 87.2932 466.656 87.252C466.477 87.0011 465.945 86.7053 465.683 86.7053C465.046 86.7053 464.642 87.091 464.383 87.9486C464.076 89.8473 464.424 90.3417 464.623 91.1131C464.679 91.4876 465.121 91.8846 465.488 91.8846C465.904 91.8846 466.128 91.7648 466.892 91.1281C467.757 90.4091 468.315 90.4203 468.503 91.1618C468.667 91.8172 467.881 92.5137 466.731 92.7197C466.098 92.8358 465.701 92.9968 465.57 93.1953C465.525 93.259 465.492 93.4874 465.488 93.7046C465.656 94.6708 466.578 95.2475 467.139 96.0414L467.712 96.5732C468.375 97.1686 468.986 97.3109 469.529 96.9926C470.076 96.6706 470.311 96.1388 470.39 95.0228C470.487 93.7196 470.532 93.551 470.888 93.1616C471.124 92.9032 471.236 92.847 471.368 92.9219C471.514 93.0043 471.547 93.214 471.558 94.1165C471.566 95.1614 471.585 95.2437 471.911 95.7718C472.596 96.6219 474.536 96.5058 475.831 95.7006C476.498 95.27 476.711 94.8805 476.723 94.0566C476.73 93.5548 476.674 93.3001 476.502 93.0043C476.15 92.4088 476.195 92.2703 476.809 92.0493L477.348 91.8583L477.629 92.1355C477.895 92.4013 477.902 92.4613 477.872 93.3451C477.846 94.0304 477.884 94.3899 478.018 94.7195C478.172 95.1089 478.599 95.5845 478.794 95.5845C478.827 95.5845 478.842 95.2999 478.824 94.9479C478.782 94.1952 479.018 93.6184 479.932 92.2777C480.243 91.8245 480.524 91.3265 480.557 91.1692C480.674 90.6374 480.7 90.6037 480.992 90.6374C481.187 90.6599 481.348 90.7835 481.486 91.0231C481.685 91.3639 481.685 91.4014 481.509 92.405C481.336 93.3899 481.351 94.0303 481.557 94.4198C481.617 94.5321 481.715 94.416 481.913 93.9966C482.269 93.2439 482.516 92.8469 483.029 92.1953C483.479 91.6298 483.774 90.8321 483.774 90.1917C483.774 89.63 483.958 89.1806 484.246 89.0496C484.759 88.8174 484.879 89.469 484.681 91.42C484.587 92.3113 484.666 93.2588 484.834 93.2588C484.887 93.2588 485.006 93.079 485.1 92.8618C485.19 92.6446 485.475 92.1278 485.737 91.7084C486.516 90.4576 487.28 88.5552 487.197 88.0683C487.171 87.9298 487.257 87.5066 487.392 87.1283C487.575 86.5966 487.684 86.4356 487.864 86.4093C488.268 86.3494 488.459 86.7988 488.384 87.6302C488.261 88.9858 488.265 89.3753 488.399 89.6899L488.53 90.0082L488.86 89.3865C489.04 89.0458 489.328 88.514 489.493 88.1994C489.762 87.6938 489.8 87.5178 489.8 86.6977C489.8 85.9974 489.837 85.7278 489.965 85.6042C490.189 85.3795 490.294 85.3945 490.482 85.6828C490.605 85.8701 490.616 86.0086 490.534 86.2895C490.478 86.4917 490.38 86.9598 490.32 87.3381C490.227 87.9036 490.238 88.0983 490.384 88.4728C490.478 88.7237 490.59 88.9259 490.639 88.9259C490.684 88.9259 490.755 88.7312 490.792 88.4878C490.83 88.2481 491.103 87.5478 491.399 86.9299C491.822 86.0536 491.946 85.6828 491.961 85.2259C491.994 84.3309 492.006 84.2747 492.174 84.2747C492.47 84.2747 492.575 84.6904 492.5 85.5517C492.436 86.2558 492.459 86.443 492.654 86.8999C492.781 87.192 492.972 87.5141 493.084 87.6152C493.279 87.7912 493.286 87.78 493.29 87.3306C493.294 86.8512 493.444 86.3756 494.009 85.0424C494.358 84.2222 494.515 83.4995 494.608 82.3197C494.661 81.6381 494.814 81.3161 495.084 81.3161C495.118 81.3161 495.23 81.376 495.327 81.4472C495.466 81.5483 495.518 81.8029 495.563 82.5294C495.616 83.4806 495.694 84.0349 495.796 84.2072C495.826 84.2596 496.035 83.9263 496.264 83.4694C496.488 83.0125 496.863 82.2785 497.099 81.8404C497.616 80.8704 497.867 79.6272 497.762 78.586L497.691 77.9044L497.983 77.9755C498.144 78.0167 498.518 78.1665 498.818 78.3126C500.132 78.9529 500.859 79.2001 501.537 79.2413C502.012 79.2713 502.525 79.3986 503.173 79.6607C503.694 79.8705 504.57 80.1626 505.124 80.3124C506.39 80.6531 507.034 80.9715 507.884 81.6718C508.584 82.2485 509.667 83.4319 509.667 83.6191C509.667 83.679 509.169 83.7465 508.48 83.7802C507.824 83.8101 507.034 83.8888 506.719 83.9487C505.049 84.267 503.165 85.1433 501.847 86.2069C500.533 87.2704 499.93 87.8434 498.728 89.1879C497.365 90.7159 496.968 91.0379 496.174 91.2477C495.93 91.3113 494.574 91.4087 493.159 91.4611C491.612 91.521 490.361 91.6221 490.009 91.712C489.212 91.918 488.399 92.2026 488.238 92.3337C488.167 92.3936 487.912 92.5434 487.676 92.6707C487.051 93.0078 485.976 94.0039 485.186 94.9851C484.808 95.4607 483.988 96.3895 483.366 97.0486C481.606 98.9323 480.625 99.5801 479.396 99.6775C478.531 99.7486 477.719 99.509 477.149 99.0221L476.707 98.6476L476.464 99.0446C476.258 99.3741 476.217 99.5876 476.217 100.295C476.217 101.063 476.251 101.202 476.539 101.666C476.936 102.314 477.827 102.816 478.771 102.924C480.539 103.13 483.216 102.306 484.65 101.116C485.055 100.782 485.216 100.805 485.422 101.213C485.778 101.921 486.133 102.269 486.804 102.584C487.324 102.827 487.485 102.958 487.534 103.175C487.785 104.28 487.942 104.565 488.654 105.186L489.039 105.523L488.785 106.448C488.646 106.954 488.399 107.557 488.234 107.793C487.811 108.399 486.706 109.182 486.002 109.384C485.677 109.474 485.265 109.594 485.081 109.65C484.542 109.811 482.785 109.897 482.55 109.77C482.362 109.669 482.344 109.587 482.403 108.991C482.478 108.231 482.389 107.782 482.078 107.385C481.831 107.074 481.246 106.886 480.733 106.954C479.61 107.145 478.737 107.774 478.19 108.478L477.808 108.939C477.419 109.411 477.344 109.778 477.569 110.07C477.64 110.16 477.984 110.392 478.336 110.579C479.048 110.953 479.393 111.403 479.288 111.811C479.205 112.137 478.999 112.245 478.277 112.335C477.76 112.399 477.632 112.373 477.086 112.084C476.307 111.672 475.899 111.601 475.374 111.785C475.056 111.897 474.899 112.039 474.715 112.388C474.58 112.639 474.472 112.976 474.472 113.137C474.382 114.301 474.723 115.972 475 116.612C475.221 117.05 475.475 117.185 476.033 117.163C476.49 117.148 476.76 117.002 477.34 116.436C477.726 116.065 477.891 115.976 478.13 116.002C478.55 116.05 478.7 116.477 478.468 116.968C478.329 117.253 478.16 117.38 477.629 117.593C476.868 117.897 476.606 118.222 476.595 118.874C476.588 119.11 476.681 119.455 476.816 119.69C477.108 120.293 478.13 121.095 479.475 121.335C480.392 121.484 481.156 120.657 481.284 119.368C481.344 118.747 481.4 118.597 481.628 118.413C481.947 118.163 482.246 118.211 482.538 118.552C482.684 118.724 482.729 118.927 482.714 119.413C482.677 120.563 482.699 120.683 483.044 121.035C483.628 121.578 485.661 120.836 486.474 120.248C486.834 120.013 487.156 119.451 487.156 119.054C487.156 118.867 487.014 118.357 486.838 117.919C486.456 116.96 486.444 116.717 486.778 116.331C486.991 116.088 487.073 116.054 487.227 116.152C487.598 116.372 487.909 117.114 487.987 117.953C488.051 118.612 488.111 118.795 488.309 118.956C488.658 119.241 488.894 119.219 488.789 118.915C488.65 118.518 488.688 117.758 488.875 117.095C488.976 116.747 489.058 116.152 489.058 115.766C489.058 115.099 489.197 114.459 489.38 114.253C489.429 114.2 489.534 114.32 489.613 114.515C489.729 114.796 489.74 115.099 489.661 115.934C489.556 117.095 489.65 117.679 490.002 118.114C490.249 118.417 490.406 118.301 490.238 117.934C490.129 117.694 490.171 117.545 490.609 116.661C491.088 115.687 491.107 115.623 491.152 114.5C491.178 113.863 491.23 113.339 491.272 113.339C491.313 113.339 491.429 113.519 491.534 113.736C491.668 114.009 491.743 114.463 491.777 115.189C491.818 116.14 491.856 116.283 492.114 116.608C492.579 117.196 492.642 117.148 492.575 116.26C492.522 115.56 492.549 115.399 492.781 114.904C493.335 113.721 493.702 112.714 493.822 112.032C494.017 110.912 494.181 111.189 494.2 112.661C494.219 114.051 494.387 114.646 494.919 115.178C495.279 115.537 495.421 115.534 495.327 115.163C495.151 114.477 495.249 113.833 495.657 112.968C496.279 111.665 496.578 110.815 496.683 110.062C496.9 108.542 496.885 108.587 497.162 108.519C498.016 108.302 498.716 108.549 498.915 109.137C498.99 109.369 498.922 109.575 498.488 110.362C497.702 111.785 497.627 112.077 497.836 112.837C497.967 113.302 498.039 113.328 498.252 112.98C498.338 112.841 498.96 112.163 499.63 111.474C501.716 109.332 502.207 108.512 502.053 107.407C501.941 106.572 501.443 105.849 499.926 104.306C498.51 102.865 498.095 102.329 497.683 101.404C496.518 98.8089 498.158 97.1424 502.109 96.8991C502.802 96.8541 503.731 96.8803 504.405 96.9515C505.738 97.0938 507.318 97.1237 507.951 97.0189L508.401 96.9402L508.61 97.4383C508.809 97.9027 509.498 100.198 509.828 101.502C509.906 101.824 510.101 102.584 510.254 103.194C510.61 104.602 510.685 105.617 510.457 106.055C510.254 106.441 509.719 106.786 509.318 106.786C508.674 106.789 507.805 106.025 507.468 105.157C507.356 104.868 507.221 104.617 507.172 104.602C507.12 104.584 506.97 104.733 506.835 104.932C506.435 105.52 506.539 106.804 507.079 107.845C507.315 108.302 508.03 109.066 508.554 109.426C509.696 110.205 511.404 110.418 512.838 109.958C513.516 109.74 513.722 109.609 514.273 109.063C514.625 108.71 514.984 108.306 515.074 108.164L515.235 107.905L516.018 108.269C516.639 108.557 516.965 108.639 517.594 108.669C518.396 108.71 518.815 108.587 519.796 108.014C519.98 107.905 520.141 107.894 520.411 107.969C520.954 108.119 521.845 107.89 522.657 107.4C523.039 107.164 523.44 106.902 523.541 106.812C523.796 106.587 523.942 106.748 524.249 107.58C524.612 108.564 524.564 109.931 524.11 111.358C523.605 112.957 522.766 114.133 521.579 114.927C520.987 115.328 520.871 115.365 520.414 115.32C519.774 115.26 519.407 114.927 519.081 114.107C518.65 113.028 518.542 112.823 518.306 112.658C517.961 112.414 517.422 112.463 516.853 112.781L516.25 113.111C515.355 114.055 513.846 115.103 513.647 116.32C513.595 116.534 513.643 116.68 513.842 116.916C514.067 117.182 514.213 117.245 514.767 117.305C515.13 117.346 515.508 117.425 515.61 117.478C516.149 117.762 516.036 118.432 515.4 118.698C515.055 118.844 514.876 118.848 513.988 118.732C513.43 118.657 512.857 118.623 512.711 118.661C512.277 118.77 511.887 119.14 511.883 119.451C511.85 120.713 512.527 122.222 513.104 123.383C513.37 123.911 513.658 124.121 514.119 124.121C514.374 124.121 514.67 123.829 515.606 122.627C516.302 121.739 516.778 121.387 517.115 121.518C517.396 121.627 517.302 122.155 516.909 122.675C516.227 123.567 516.168 123.986 516.666 124.473C517.493 125.248 519.085 125.93 520.178 125.926C520.781 125.904 521.287 125.623 521.482 125.215C521.628 124.907 521.635 124.728 521.523 123.799C521.388 122.638 521.478 122.305 521.95 122.181C522.444 122.054 522.774 122.556 522.774 123.443C522.774 124.361 522.979 124.99 523.421 125.398C523.833 125.802 526.582 124.765 526.994 124.409C527.653 123.795 527.792 123.05 527.425 122.114C527.309 121.818 527.211 121.529 527.211 121.473C527.211 121.413 527.417 121.275 527.672 121.166C527.968 121.039 528.219 120.833 528.376 120.578C528.601 120.215 528.612 120.129 528.526 119.223C528.383 117.668 528.41 117.081 528.638 116.83C529.129 116.287 529.683 116.841 529.799 117.99C529.885 118.852 530.144 119.533 530.507 119.837C530.799 120.084 531.196 120.207 531.099 120.024C530.75 119.342 530.679 119.054 530.728 118.5C530.758 118.17 530.878 117.717 530.99 117.496C531.102 117.271 531.334 116.818 531.503 116.485C531.672 116.152 531.844 115.878 531.885 115.878C532.009 115.875 532.151 116.219 532.233 116.717C532.274 116.979 532.346 117.264 532.387 117.354C532.979 118.62 533.342 119.047 533.825 119.047C534.132 119.047 534.136 119.08 533.862 118.391C533.566 117.65 533.57 117.036 533.874 116.14C534.184 115.223 534.218 113.74 533.941 113.088C533.555 112.186 533.888 111.838 534.42 112.59C534.626 112.879 534.757 113.268 534.87 113.92C534.96 114.425 535.124 115.043 535.233 115.294C535.446 115.77 535.862 116.133 536.128 116.073C536.267 116.039 536.267 115.983 536.132 115.613C535.948 115.103 535.93 113.92 536.098 113.493C536.165 113.321 536.218 112.815 536.218 112.366C536.222 111.587 536.195 111.493 535.637 110.358C534.956 108.973 534.851 108.467 535.098 107.819C535.401 107.029 535.855 106.819 536.517 107.16C537.064 107.445 537.274 108.04 537.368 109.598C537.469 111.201 537.69 111.943 538.263 112.549C538.469 112.767 538.66 112.916 538.693 112.883C538.723 112.853 538.701 112.583 538.637 112.287C538.476 111.538 538.491 110.456 538.671 110.04C538.749 109.849 538.978 109.171 539.173 108.531C539.446 107.625 539.525 107.183 539.525 106.52C539.525 105.745 539.495 105.621 539.176 105.093C538.682 104.284 538.124 103.914 536.989 103.659C535.989 103.434 534.975 103.475 534.274 103.764C533.945 103.899 533.634 103.981 533.585 103.947C533.54 103.914 533.278 103.614 533.005 103.288C532.203 102.337 531.548 101.951 530.484 101.801C529.604 101.674 529.578 101.659 529.061 101.131C528.08 100.124 526.672 99.5432 524.575 99.2736C524.077 99.2099 523.564 99.1163 523.433 99.0639C523.208 98.9777 523.204 98.9553 523.343 98.6257C523.807 97.5547 524.054 96.8094 524.204 96.0081C524.384 95.027 524.417 93.0347 524.264 92.0984C524.212 91.7763 524.189 91.4917 524.215 91.4654C524.279 91.4018 525.065 92.2519 525.923 93.3117C527.953 95.8209 529.529 97.3936 530.713 98.094C532.181 98.9628 533.465 99.3448 536.761 99.9103C538.869 100.274 539.427 100.468 539.809 100.989C540.176 101.487 540.288 101.977 540.423 103.618C540.569 105.426 540.719 105.857 541.311 106.205C541.947 106.58 542.026 106.554 541.846 106.041C541.569 105.25 541.554 104.393 541.794 102.876C542.187 100.386 542.075 99.195 541.348 98.2812C540.948 97.7719 540.794 97.652 539.959 97.1652C539.603 96.9592 539.315 96.7383 539.315 96.6746C539.315 96.6109 539.569 96.2814 539.884 95.9406C541.315 94.3902 541.936 92.9521 542.06 90.9038C542.187 88.859 541.202 86.4211 539.116 83.646C538.169 82.384 538.109 82.2192 538.255 81.2119C538.393 80.2569 538.566 79.9124 539.187 79.3394C540.307 78.3058 541.595 78.5155 542.43 79.8712C542.674 80.2606 542.752 80.0509 542.636 79.3169C542.404 77.8527 541.899 77.1111 540.779 76.5868C540.243 76.3359 540.03 76.2985 539.206 76.3022C538.401 76.306 538.161 76.3547 537.622 76.5981C536.446 77.1373 535.72 78.1222 535.323 79.7138C535.192 80.2456 535.053 80.68 535.012 80.6837C534.896 80.6837 534.416 79.6726 534.229 79.0322C533.866 77.7814 534.102 75.5607 534.697 74.6058C535.345 73.5647 536.143 72.8794 537.199 72.4637C537.847 72.2091 538.079 72.1791 539.049 72.1829C540.266 72.1904 540.745 72.3214 541.539 72.8569C541.798 73.0292 542.007 73.1266 542.007 73.0742C542.007 72.7596 541.285 71.8571 540.689 71.4339C538.39 69.7936 535.596 69.9883 532.866 71.9881C532.068 72.5761 531.653 72.8158 531.653 72.6959C531.653 72.4525 532.952 71.2167 534.604 69.9021C534.858 69.6999 535.237 69.3891 535.446 69.2131C535.656 69.0333 536.18 68.6064 536.611 68.2618C538.663 66.6103 540.906 64.1462 541.801 62.5545C542.955 60.5023 543.794 57.9295 544.131 55.4203C544.239 54.589 544.165 53.3082 544.003 53.3082C543.951 53.3082 543.91 53.3719 543.91 53.4468C543.91 53.8213 542.648 56.7123 541.918 58.0119C541.719 58.3602 540.813 59.6747 540.311 60.3374C539.225 61.7717 536.948 64.045 535.813 64.8314C535.69 64.9175 535.334 65.1797 535.019 65.4156C534.33 65.9361 532.874 66.6739 532.72 66.5803C532.653 66.5354 532.758 66.2432 532.994 65.8013C533.387 65.0786 534.323 63.4234 534.506 63.1388C537.319 58.6823 538.873 54.9112 539.019 52.2073C539.12 50.3348 538.712 48.4137 537.911 46.9719C537.356 45.9832 535.746 44.399 534.608 43.7249C532.645 42.5678 531.305 42.2045 528.919 42.2307ZM476.61 49.8816V49.9639C476.602 49.949 476.602 49.919 476.61 49.8816Z" fill="#202022"/>
<path d="M477.294 119.361C477.027 119.346 476.788 119.525 476.726 119.785C476.522 120.647 476.367 121.518 476.474 122.337C476.585 123.19 476.975 123.957 477.787 124.609C477.952 124.741 478.177 124.767 478.368 124.678C478.558 124.588 478.682 124.398 478.685 124.187C478.703 123.13 478.914 122.25 479.554 121.107C479.676 120.89 479.637 120.618 479.46 120.444C478.958 119.948 478.13 119.408 477.294 119.361Z" fill="#202022" stroke="#F5D90A" stroke-width="1.10466" stroke-linejoin="round"/>
<path d="M517.197 123.986C517.046 123.979 516.9 124.035 516.791 124.139C516.683 124.243 516.621 124.386 516.621 124.537C516.621 124.602 516.621 124.669 516.62 124.736C516.616 125.446 516.611 126.305 516.938 127.162C517.309 128.133 518.076 129.043 519.55 129.859C519.747 129.969 519.992 129.947 520.167 129.804C520.341 129.661 520.412 129.426 520.344 129.211C519.868 127.691 519.633 126.545 519.771 125.414C519.794 125.226 519.719 125.04 519.573 124.92C518.831 124.313 517.919 124.016 517.197 123.986Z" fill="#202022" stroke="#F5D90A" stroke-width="1.10466" stroke-linejoin="round"/>
<path d="M523.036 127.716C522.933 127.917 522.963 128.161 523.111 128.331C523.26 128.502 523.497 128.564 523.71 128.49C524.927 128.063 525.73 127.528 526.242 126.837C526.753 126.149 526.923 125.374 527.008 124.587C527.039 124.31 526.857 124.053 526.584 123.99C525.776 123.802 524.622 123.96 523.653 124.692C523.492 124.814 523.41 125.013 523.439 125.213C523.567 126.085 523.399 127.008 523.036 127.716Z" fill="#202022" stroke="#F5D90A" stroke-width="1.10466" stroke-linejoin="round"/>
<path d="M516.926 113.455C516.964 113.225 516.853 112.996 516.649 112.883L516.619 112.866C515.846 112.438 515.126 112.039 514.439 111.806C513.722 111.563 513 111.485 512.232 111.735C512.059 111.792 511.925 111.929 511.874 112.104C511.822 112.278 511.86 112.467 511.974 112.608C512.09 112.751 512.204 112.888 512.316 113.023C512.943 113.777 513.518 114.468 514 115.676C514.06 115.826 514.182 115.942 514.335 115.994C514.488 116.046 514.655 116.028 514.794 115.946C515.83 115.333 516.752 114.525 516.926 113.455Z" fill="#202022" stroke="#F5D90A" stroke-width="1.10466" stroke-linejoin="round"/>
<path d="M486.575 120.461C486.608 120.305 486.572 120.142 486.476 120.015C486.38 119.888 486.234 119.808 486.076 119.796C485.046 119.72 484.104 120.048 483.395 120.43C483.224 120.522 483.114 120.698 483.105 120.892C483.07 121.717 482.691 122.425 482.03 123.496C481.914 123.685 481.922 123.926 482.05 124.106C482.179 124.287 482.404 124.373 482.621 124.325C484.581 123.887 486.151 122.485 486.575 120.461Z" fill="#202022" stroke="#F5D90A" stroke-width="1.10466" stroke-linejoin="round"/>
<path d="M464.377 47.7291C464.17 47.7561 463.996 47.898 463.927 48.0955C463.858 48.2931 463.907 48.5125 464.053 48.6623C464.847 49.477 465.422 50.3171 465.793 51.4389C465.852 51.6168 465.997 51.7527 466.178 51.7999C466.359 51.8471 466.552 51.7991 466.691 51.6725C467.361 51.0577 467.937 50.3787 468.334 49.5193C468.457 49.2523 468.349 48.9356 468.089 48.7989C467.982 48.7428 467.873 48.6838 467.761 48.6235C466.849 48.1304 465.772 47.5478 464.377 47.7291Z" fill="#202022" stroke="#F5D90A" stroke-width="1.10466" stroke-linejoin="round"/>
<path d="M475.166 113.265C475.018 113.056 474.747 112.976 474.509 113.071C472.976 113.685 471.723 114.786 470.917 116.254C470.814 116.441 470.829 116.671 470.954 116.844C471.08 117.017 471.293 117.102 471.503 117.062C472.689 116.84 473.884 116.641 475.048 116.539C475.291 116.518 475.491 116.34 475.541 116.102C475.545 116.082 475.549 116.063 475.553 116.043C475.704 115.32 475.912 114.324 475.166 113.265Z" fill="#202022" stroke="#F5D90A" stroke-width="1.10466" stroke-linejoin="round"/>
<path d="M471.203 83.4686C471.258 83.3172 471.244 83.1494 471.165 83.0092C470.747 82.2674 470.255 81.6276 469.617 81.1899C468.965 80.7431 468.199 80.5332 467.287 80.5903C467.093 80.6025 466.919 80.7168 466.83 80.8908C466.741 81.0649 466.751 81.2728 466.856 81.4377C466.92 81.5385 466.982 81.6349 467.042 81.7279C467.554 82.5245 467.906 83.0728 468.009 83.9758C468.023 84.103 468.082 84.2211 468.173 84.3101C468.79 84.907 469.536 84.8522 470.083 84.5982C470.352 84.4737 470.588 84.2978 470.775 84.11C470.956 83.9272 471.118 83.704 471.203 83.4686Z" fill="#202022" stroke="#F5D90A" stroke-width="1.10466" stroke-linejoin="round"/>
<path d="M480.758 107.708C480.87 107.611 480.939 107.473 480.948 107.324C480.957 107.176 480.906 107.031 480.806 106.921C479.503 105.479 477.895 104.805 476.123 104.997C475.922 105.019 475.748 105.149 475.671 105.336C475.594 105.523 475.626 105.737 475.753 105.894C475.991 106.187 476.229 106.465 476.461 106.736C477.045 107.417 477.597 108.062 478.043 108.823C478.181 109.058 478.47 109.158 478.723 109.057C479.355 108.806 479.756 108.57 480.067 108.328C480.22 108.209 480.345 108.095 480.454 107.991C480.479 107.968 480.502 107.945 480.525 107.924C480.606 107.846 480.677 107.779 480.758 107.708Z" fill="#202022" stroke="#F5D90A" stroke-width="1.10466" stroke-linejoin="round"/>
<path d="M491.344 60.1164C491.519 60.2864 491.784 60.3219 491.997 60.2037C492.21 60.0855 492.321 59.8415 492.269 59.6034C491.743 57.1824 490.224 55.9562 488.797 54.8924C488.867 54.7656 488.943 54.6278 489.013 54.485C489.162 54.1808 489.299 53.8251 489.329 53.4101L489.33 53.3928C489.379 52.2541 489.001 51.3949 488.315 50.8797C487.649 50.3792 486.788 50.2765 485.998 50.4314C484.445 50.7361 482.824 52.1357 483.118 54.2314C483.214 54.9355 483.49 55.6845 484.07 56.4427L484.07 56.4427L484.076 56.4495C484.519 57.0097 485.115 57.3932 485.747 57.6873C486.377 57.9801 487.082 58.2014 487.761 58.413C489.165 58.8504 490.459 59.2546 491.344 60.1164Z" fill="#202022" stroke="#F5D90A" stroke-width="1.10466" stroke-linejoin="round"/>
<path d="M480.532 45.3793C480.427 45.2274 480.253 45.1379 480.068 45.1409C479.884 45.1439 479.713 45.2389 479.613 45.3941C479.099 46.1913 478.577 46.977 477.981 47.6045C477.974 47.6114 477.968 47.6184 477.962 47.6257C477.722 47.9062 477.817 48.2289 477.867 48.3519C477.926 48.4978 478.022 48.6284 478.11 48.731C478.292 48.9443 478.549 49.1661 478.812 49.3514C479.073 49.535 479.381 49.7115 479.672 49.8053C479.816 49.8515 479.995 49.8906 480.18 49.8746C480.379 49.8574 480.618 49.7705 480.778 49.5397C480.816 49.4849 480.844 49.4236 480.86 49.3588C481.199 48.0048 481.266 46.4423 480.532 45.3793Z" fill="#202022" stroke="#F5D90A" stroke-width="1.10466" stroke-linejoin="round"/>
<path d="M470.675 43.2574C470.49 43.2364 470.307 43.3098 470.188 43.4528C470.069 43.5958 470.029 43.7891 470.084 43.9671C470.181 44.2883 470.281 44.5645 470.373 44.8199C470.618 45.5019 470.81 46.0363 470.778 46.8861C470.769 47.1155 470.903 47.3263 471.115 47.4157C472.29 47.913 473.353 47.813 474.203 47.2318C474.426 47.0794 474.506 46.788 474.392 46.5431C473.708 45.0727 472.524 43.4682 470.675 43.2574Z" fill="#202022" stroke="#F5D90A" stroke-width="1.10466" stroke-linejoin="round"/>
<path d="M466.847 57.0532C466.757 56.8718 466.576 56.7538 466.374 56.7456C465.458 56.7085 464.674 56.4638 463.945 55.8464C463.783 55.7094 463.557 55.677 463.364 55.763C463.17 55.8491 463.043 56.0385 463.036 56.2503C462.994 57.5879 463.494 58.6034 464.269 59.2501C465.029 59.8846 466.019 60.1342 466.92 60.0254C467.186 59.9933 467.39 59.7757 467.405 59.5088C467.448 58.7744 467.3 57.9721 466.847 57.0532Z" fill="#202022" stroke="#F5D90A" stroke-width="1.10466" stroke-linejoin="round"/>
<path d="M465.402 88.0703C465.364 87.9283 465.272 87.807 465.145 87.7333C465.018 87.6596 464.867 87.6395 464.725 87.6775C463.988 87.8747 463.06 88.1433 462.27 88.5569C461.494 88.9637 460.726 89.5766 460.517 90.5229C460.476 90.707 460.532 90.8992 460.666 91.0326C460.799 91.1659 460.991 91.222 461.175 91.1813C462.457 90.898 463.635 90.9104 464.771 91.1348C465.024 91.1847 465.277 91.0538 465.382 90.8192C465.773 89.9495 465.649 89.0102 465.402 88.0703Z" fill="#202022" stroke="#F5D90A" stroke-width="1.10466" stroke-linejoin="round"/>
<path d="M464.585 98.435C464.652 98.6418 464.835 98.7894 465.052 98.8122C465.268 98.8349 465.478 98.7285 465.587 98.5403C466.125 97.6142 466.798 96.8392 467.621 96.0944C467.818 95.9161 467.86 95.623 467.722 95.3965C467.248 94.6228 466.572 94.0189 465.948 93.7111C465.681 93.5793 465.358 93.6826 465.217 93.9447C464.885 94.5619 464.556 95.1988 464.4 95.9235C464.24 96.6667 464.268 97.4705 464.585 98.435Z" fill="#202022" stroke="#F5D90A" stroke-width="1.10466" stroke-linejoin="round"/>
<path d="M475.688 95.991C475.748 95.8339 475.734 95.6579 475.648 95.5129C475.563 95.3679 475.416 95.2698 475.25 95.2463C474.86 95.1915 474.363 95.224 473.871 95.3031C473.371 95.3836 472.834 95.5195 472.354 95.6971C472.169 95.7657 472.034 95.928 472.001 96.1227C471.885 96.8072 471.536 97.418 470.993 98.1425C470.857 98.325 470.846 98.5727 470.967 98.766C471.088 98.9594 471.315 99.0587 471.539 99.0161C472.998 98.7383 473.949 98.2575 474.587 97.6805C475.227 97.1015 475.506 96.4671 475.688 95.991Z" fill="#202022" stroke="#F5D90A" stroke-width="1.10466" stroke-linejoin="round"/>
<path d="M512.603 119.657C512.507 119.538 512.366 119.465 512.214 119.453C512.061 119.442 511.911 119.494 511.799 119.598C511.722 119.669 511.643 119.741 511.563 119.814C510.98 120.348 510.334 120.939 509.836 121.595C509.259 122.354 508.834 123.257 508.914 124.342C508.931 124.562 509.076 124.751 509.285 124.824C509.493 124.896 509.725 124.837 509.873 124.674C510.806 123.651 511.967 123.286 513.241 123.081C513.516 123.036 513.715 122.794 513.705 122.515C513.659 121.256 513.216 120.418 512.603 119.657Z" fill="#202022" stroke="#F5D90A" stroke-width="1.10466" stroke-linejoin="round"/>
</g>
</g>
</g>
<path d="M103.434 287.4V212.82H111.796V287.4H103.434ZM106.824 287.4V279.829H147.843V287.4H106.824Z" fill="white"/>
<path d="M79.042 287.4V212.82H87.63V287.4H79.042Z" fill="white"/>
<path d="M20.1099 287.4V212.82H28.4719V287.4H20.1099ZM23.0479 254.065V246.607H65.5359V254.065H23.0479ZM23.0479 220.391V212.82H70.7339V220.391H23.0479Z" fill="white"/>
<path d="M676.829 288.982C671.932 288.982 667.525 288.492 663.608 287.513C659.766 286.609 656.451 285.215 653.664 283.332C650.952 281.373 648.805 278.963 647.223 276.1C645.716 273.162 644.85 269.81 644.624 266.043L658.862 261.41C659.012 264.8 659.841 267.625 661.348 269.885C662.93 272.145 665.152 273.802 668.015 274.857C670.877 275.912 674.079 276.439 677.62 276.439C681.01 276.439 683.872 276.025 686.208 275.196C688.543 274.367 690.313 273.275 691.519 271.919C692.724 270.488 693.327 268.943 693.327 267.286C693.327 265.327 692.573 263.745 691.067 262.54C689.56 261.335 687.488 260.318 684.852 259.489C682.29 258.66 679.352 257.869 676.038 257.116C672.346 256.287 668.693 255.346 665.077 254.291C661.536 253.236 658.297 251.88 655.359 250.223C652.496 248.566 650.198 246.419 648.466 243.782C646.808 241.145 645.98 237.831 645.98 233.838C645.98 229.243 647.11 225.288 649.37 221.973C651.705 218.583 655.095 215.946 659.54 214.063C663.984 212.18 669.333 211.238 675.586 211.238C681.914 211.238 687.3 212.18 691.745 214.063C696.265 215.871 699.768 218.47 702.254 221.86C704.74 225.175 706.096 229.13 706.322 233.725L691.632 237.793C691.632 235.458 691.255 233.424 690.502 231.691C689.748 229.958 688.694 228.527 687.338 227.397C685.982 226.192 684.287 225.288 682.253 224.685C680.294 224.082 678.034 223.781 675.473 223.781C672.535 223.781 669.973 224.158 667.789 224.911C665.679 225.664 664.06 226.681 662.93 227.962C661.875 229.243 661.348 230.749 661.348 232.482C661.348 234.516 662.176 236.211 663.834 237.567C665.566 238.848 667.826 239.902 670.614 240.731C673.476 241.56 676.603 242.351 679.993 243.104C683.232 243.782 686.509 244.648 689.824 245.703C693.214 246.682 696.34 248.001 699.203 249.658C702.141 251.24 704.476 253.425 706.208 256.212C708.016 258.924 708.921 262.352 708.921 266.495C708.921 271.015 707.715 274.97 705.305 278.36C702.894 281.75 699.278 284.387 694.457 286.27C689.711 288.078 683.835 288.982 676.829 288.982Z" fill="white"/>
<path d="M595.261 287.4V212.82H611.533V287.4H595.261ZM598.651 287.4V273.727H643.06V287.4H598.651Z" fill="white"/>
<path d="M529.597 287.4V212.82H545.982V287.4H529.597ZM540.897 287.4V274.179H587.114V287.4H540.897ZM540.897 255.76V243.669H581.464V255.76H540.897ZM540.897 225.928V212.82H586.888V225.928H540.897Z" fill="white"/>
<path d="M489.218 288.982C484.321 288.982 479.914 288.492 475.997 287.513C472.155 286.609 468.84 285.215 466.053 283.332C463.341 281.373 461.194 278.963 459.612 276.1C458.105 273.162 457.239 269.81 457.013 266.043L471.251 261.41C471.401 264.8 472.23 267.625 473.737 269.885C475.319 272.145 477.541 273.802 480.404 274.857C483.266 275.912 486.468 276.439 490.009 276.439C493.399 276.439 496.261 276.025 498.597 275.196C500.932 274.367 502.702 273.275 503.908 271.919C505.113 270.488 505.716 268.943 505.716 267.286C505.716 265.327 504.962 263.745 503.456 262.54C501.949 261.335 499.877 260.318 497.241 259.489C494.679 258.66 491.741 257.869 488.427 257.116C484.735 256.287 481.082 255.346 477.466 254.291C473.925 253.236 470.686 251.88 467.748 250.223C464.885 248.566 462.587 246.419 460.855 243.782C459.197 241.145 458.369 237.831 458.369 233.838C458.369 229.243 459.499 225.288 461.759 221.973C464.094 218.583 467.484 215.946 471.929 214.063C476.373 212.18 481.722 211.238 487.975 211.238C494.303 211.238 499.689 212.18 504.134 214.063C508.654 215.871 512.157 218.47 514.643 221.86C517.129 225.175 518.485 229.13 518.711 233.725L504.021 237.793C504.021 235.458 503.644 233.424 502.891 231.691C502.137 229.958 501.083 228.527 499.727 227.397C498.371 226.192 496.676 225.288 494.642 224.685C492.683 224.082 490.423 223.781 487.862 223.781C484.924 223.781 482.362 224.158 480.178 224.911C478.068 225.664 476.449 226.681 475.319 227.962C474.264 229.243 473.737 230.749 473.737 232.482C473.737 234.516 474.565 236.211 476.223 237.567C477.955 238.848 480.215 239.902 483.003 240.731C485.865 241.56 488.992 242.351 492.382 243.104C495.621 243.782 498.898 244.648 502.213 245.703C505.603 246.682 508.729 248.001 511.592 249.658C514.53 251.24 516.865 253.425 518.598 256.212C520.406 258.924 521.31 262.352 521.31 266.495C521.31 271.015 520.104 274.97 517.694 278.36C515.283 281.75 511.667 284.387 506.846 286.27C502.1 288.078 496.224 288.982 489.218 288.982Z" fill="white"/>
<path d="M418.919 288.982C414.023 288.982 409.616 288.492 405.698 287.513C401.856 286.609 398.542 285.215 395.754 283.332C393.042 281.373 390.895 278.963 389.313 276.1C387.807 273.162 386.94 269.81 386.714 266.043L400.952 261.41C401.103 264.8 401.932 267.625 403.438 269.885C405.02 272.145 407.243 273.802 410.105 274.857C412.968 275.912 416.17 276.439 419.71 276.439C423.1 276.439 425.963 276.025 428.298 275.196C430.634 274.367 432.404 273.275 433.609 271.919C434.815 270.488 435.417 268.943 435.417 267.286C435.417 265.327 434.664 263.745 433.157 262.54C431.651 261.335 429.579 260.318 426.942 259.489C424.381 258.66 421.443 257.869 418.128 257.116C414.437 256.287 410.783 255.346 407.167 254.291C403.627 253.236 400.387 251.88 397.449 250.223C394.587 248.566 392.289 246.419 390.556 243.782C388.899 241.145 388.07 237.831 388.07 233.838C388.07 229.243 389.2 225.288 391.46 221.973C393.796 218.583 397.186 215.946 401.63 214.063C406.075 212.18 411.424 211.238 417.676 211.238C424.004 211.238 429.391 212.18 433.835 214.063C438.355 215.871 441.858 218.47 444.344 221.86C446.83 225.175 448.186 229.13 448.412 233.725L433.722 237.793C433.722 235.458 433.346 233.424 432.592 231.691C431.839 229.958 430.784 228.527 429.428 227.397C428.072 226.192 426.377 225.288 424.343 224.685C422.385 224.082 420.125 223.781 417.563 223.781C414.625 223.781 412.064 224.158 409.879 224.911C407.77 225.664 406.15 226.681 405.02 227.962C403.966 229.243 403.438 230.749 403.438 232.482C403.438 234.516 404.267 236.211 405.924 237.567C407.657 238.848 409.917 239.902 412.704 240.731C415.567 241.56 418.693 242.351 422.083 243.104C425.323 243.782 428.6 244.648 431.914 245.703C435.304 246.682 438.431 248.001 441.293 249.658C444.231 251.24 446.567 253.425 448.299 256.212C450.107 258.924 451.011 262.352 451.011 266.495C451.011 271.015 449.806 274.97 447.395 278.36C444.985 281.75 441.369 284.387 436.547 286.27C431.801 288.078 425.925 288.982 418.919 288.982Z" fill="white"/>
<path d="M345.408 288.982C340.813 288.982 336.707 288.492 333.091 287.513C329.551 286.609 326.462 285.291 323.825 283.558C321.189 281.75 318.966 279.603 317.158 277.117C315.426 274.556 314.107 271.693 313.203 268.529C312.375 265.365 311.96 261.9 311.96 258.133V212.82H328.345V257.568C328.345 261.41 328.948 264.612 330.153 267.173C331.434 269.659 333.317 271.505 335.803 272.71C338.289 273.915 341.453 274.518 345.295 274.518C349.213 274.518 352.414 273.915 354.9 272.71C357.462 271.505 359.345 269.659 360.55 267.173C361.831 264.612 362.471 261.41 362.471 257.568V212.82H378.63V258.133C378.63 267.926 375.843 275.535 370.268 280.959C364.769 286.308 356.482 288.982 345.408 288.982Z" fill="white"/>
<path d="M240.459 287.4V212.82H270.743C274.811 212.82 278.502 213.159 281.817 213.837C285.131 214.44 288.069 215.344 290.631 216.549C293.192 217.754 295.339 219.261 297.072 221.069C298.88 222.802 300.236 224.836 301.14 227.171C302.044 229.431 302.496 231.955 302.496 234.742C302.496 237.379 302.081 239.789 301.253 241.974C300.424 244.083 299.181 245.929 297.524 247.511C295.866 249.093 293.795 250.411 291.309 251.466C288.823 252.445 285.922 253.123 282.608 253.5V255.195C286.45 255.572 289.501 256.476 291.761 257.907C294.096 259.263 295.904 261.109 297.185 263.444C298.541 265.779 299.708 268.68 300.688 272.145L305.208 287.4H287.241L283.738 273.275C283.06 270.262 282.08 267.926 280.8 266.269C279.519 264.536 277.899 263.331 275.941 262.653C273.982 261.9 271.609 261.523 268.822 261.523H256.731V287.4H240.459ZM256.731 249.319H269.613C274.735 249.319 278.69 248.34 281.478 246.381C284.265 244.422 285.659 241.371 285.659 237.228C285.659 233.16 284.34 230.184 281.704 228.301C279.142 226.342 275.263 225.363 270.065 225.363H256.731V249.319Z" fill="white"/>
<path d="M167.843 287.4V212.82H198.805C203.4 212.82 207.506 213.234 211.122 214.063C214.738 214.816 217.827 215.984 220.388 217.566C223.025 219.148 225.021 221.22 226.377 223.781C227.808 226.267 228.524 229.243 228.524 232.708C228.524 235.646 227.884 238.207 226.603 240.392C225.398 242.577 223.477 244.347 220.84 245.703C218.279 247.059 214.889 248.001 210.67 248.528V250.223C217.827 250.75 223.062 252.558 226.377 255.647C229.767 258.66 231.462 262.728 231.462 267.851C231.462 272.145 230.332 275.761 228.072 278.699C225.887 281.562 222.573 283.746 218.128 285.253C213.683 286.684 208.184 287.4 201.63 287.4H167.843ZM183.324 274.292H201.404C206.225 274.292 209.804 273.576 212.139 272.145C214.474 270.638 215.642 268.341 215.642 265.252C215.642 261.711 214.173 259.075 211.235 257.342C208.297 255.534 203.852 254.63 197.901 254.63H183.324V274.292ZM183.324 244.46H195.528C201.404 244.46 205.698 243.669 208.41 242.087C211.197 240.43 212.591 238.019 212.591 234.855C212.591 231.691 211.348 229.393 208.862 227.962C206.376 226.455 202.572 225.702 197.449 225.702H183.324V244.46Z" fill="white"/>
<defs>
<clipPath id="clip0_273_2598">
<rect width="147.288" height="147.288" fill="white" transform="translate(152.406 11.8981)"/>
</clipPath>
<clipPath id="clip1_273_2598">
<rect width="110.466" height="66.8827" fill="white" transform="translate(171.173 49.4562)"/>
</clipPath>
<clipPath id="clip2_273_2598">
<rect width="147.07" height="147.07" fill="white" transform="translate(152.406 12.007)"/>
</clipPath>
<clipPath id="clip3_273_2598">
<rect width="147.288" height="147.288" fill="white" transform="translate(429.139 11.8981)"/>
</clipPath>
<clipPath id="clip4_273_2598">
<rect width="84.1645" height="88.3727" fill="white" transform="translate(461.056 41.7116)"/>
</clipPath>
</defs>
</svg>
