<svg width="57" height="34" viewBox="0 0 57 34" fill="none" xmlns="http://www.w3.org/2000/svg">
<g clip-path="url(#clip0_1420_4046)">
<path d="M15.18 17.49L26.33 6.34L20.05 0.05L8.92 11.17V0H0V17.45V26.29H8.89H26.33V17.49H15.18Z" fill="#2E3192"/>
<path d="M41.0001 8.91L29.8501 20.04L36.1301 26.33L47.2601 15.2V26.29H56.1801V8.91V0H47.3001H29.8501V8.91H41.0001Z" fill="#ED1C24"/>
<path d="M2.01 32.34C2.1 32.34 2.19 32.34 2.28 32.31C2.37 32.29 2.44 32.26 2.51 32.22C2.58 32.18 2.63 32.12 2.67 32.05C2.71 31.98 2.73 31.88 2.73 31.77C2.73 31.54 2.67 31.38 2.54 31.29C2.41 31.19 2.24 31.14 2.03 31.14H0.97V32.35H2.01V32.34ZM1.95 30.47C2.12 30.47 2.27 30.43 2.38 30.35C2.49 30.27 2.55 30.13 2.55 29.95C2.55 29.85 2.53 29.76 2.49 29.7C2.45 29.63 2.4 29.58 2.34 29.55C2.28 29.51 2.21 29.49 2.13 29.47C2.05 29.46 1.97 29.45 1.88 29.45H0.97V30.48H1.95V30.47ZM2.08 28.7C2.29 28.7 2.48 28.72 2.65 28.76C2.82 28.8 2.97 28.86 3.09 28.94C3.21 29.02 3.31 29.14 3.38 29.27C3.45 29.41 3.48 29.58 3.48 29.79C3.48 30.01 3.43 30.2 3.33 30.34C3.23 30.49 3.08 30.61 2.88 30.7C3.15 30.78 3.35 30.91 3.49 31.11C3.62 31.31 3.69 31.54 3.69 31.81C3.69 32.03 3.65 32.22 3.56 32.38C3.47 32.54 3.36 32.68 3.21 32.78C3.06 32.88 2.9 32.96 2.71 33.01C2.52 33.06 2.33 33.08 2.13 33.08H0V28.69H2.07L2.08 28.7Z" fill="white"/>
<path d="M7.59008 32.75C7.26008 33.04 6.80008 33.18 6.21008 33.18C5.62008 33.18 5.15008 33.04 4.82008 32.75C4.49008 32.46 4.33008 32.02 4.33008 31.42V28.69H5.30008V31.42C5.30008 31.54 5.30008 31.65 5.33008 31.77C5.35008 31.88 5.39008 31.99 5.46008 32.07C5.53008 32.16 5.62008 32.23 5.73008 32.28C5.85008 32.34 6.01008 32.36 6.20008 32.36C6.55008 32.36 6.78008 32.28 6.91008 32.13C7.04008 31.98 7.11008 31.74 7.11008 31.41V28.68H8.08008V31.41C8.08008 32 7.91008 32.45 7.58008 32.73" fill="white"/>
<path d="M9.6699 32.01C9.7199 32.11 9.7899 32.2 9.8799 32.26C9.9699 32.32 10.0699 32.37 10.1899 32.4C10.3099 32.43 10.4299 32.45 10.5599 32.45C10.6499 32.45 10.7399 32.45 10.8399 32.43C10.9399 32.41 11.0299 32.39 11.1199 32.35C11.2099 32.31 11.2799 32.25 11.3399 32.18C11.3999 32.11 11.4299 32.02 11.4299 31.91C11.4299 31.79 11.3899 31.69 11.3199 31.62C11.2399 31.54 11.1399 31.48 11.0199 31.43C10.8999 31.38 10.7599 31.34 10.5999 31.3C10.4399 31.26 10.2899 31.22 10.1199 31.18C9.9599 31.14 9.7999 31.09 9.6399 31.03C9.4799 30.97 9.3399 30.89 9.2199 30.8C9.0999 30.71 8.9999 30.59 8.9199 30.45C8.8399 30.31 8.8099 30.14 8.8099 29.93C8.8099 29.71 8.8599 29.51 8.9499 29.34C9.0499 29.17 9.1699 29.03 9.3299 28.92C9.4899 28.81 9.6599 28.73 9.8599 28.67C10.0599 28.62 10.2499 28.59 10.4499 28.59C10.6799 28.59 10.8999 28.62 11.1099 28.67C11.3199 28.72 11.5099 28.8 11.6799 28.92C11.8399 29.03 11.9699 29.18 12.0699 29.36C12.1699 29.54 12.2199 29.75 12.2199 30.01H11.2799C11.2799 29.88 11.2399 29.77 11.1999 29.68C11.1599 29.59 11.0899 29.53 11.0099 29.48C10.9299 29.43 10.8399 29.4 10.7399 29.38C10.6399 29.36 10.5299 29.35 10.4099 29.35C10.3299 29.35 10.2499 29.35 10.1799 29.37C10.0999 29.39 10.0299 29.41 9.9699 29.46C9.9099 29.5 9.8499 29.55 9.8099 29.61C9.7699 29.67 9.7499 29.75 9.7499 29.84C9.7499 29.92 9.7699 30 9.7999 30.05C9.8299 30.1 9.8999 30.15 9.9899 30.2C10.0899 30.25 10.2199 30.29 10.3899 30.34C10.5599 30.38 10.7799 30.44 11.0599 30.51C11.1399 30.53 11.2599 30.56 11.3999 30.6C11.5399 30.64 11.6899 30.71 11.8299 30.81C11.9699 30.91 12.0999 31.03 12.1999 31.19C12.2999 31.35 12.3599 31.55 12.3599 31.8C12.3599 32 12.3199 32.19 12.2399 32.36C12.1599 32.53 12.0499 32.68 11.8899 32.81C11.7399 32.93 11.5399 33.03 11.3199 33.1C11.0899 33.17 10.8299 33.2 10.5299 33.2C10.2899 33.2 10.0499 33.17 9.8199 33.11C9.5899 33.05 9.3899 32.96 9.2199 32.83C9.0399 32.7 8.9099 32.54 8.7999 32.35C8.6999 32.15 8.6499 31.92 8.6499 31.65H9.5899C9.5899 31.8 9.6199 31.92 9.6699 32.03" fill="white"/>
<path d="M13.8999 28.7H12.9299V33.09H13.8999V28.7Z" fill="white"/>
<path d="M15.71 28.7L17.55 31.64H17.57V28.7H18.47V33.09H17.5L15.67 30.15H15.66V33.09H14.75V28.7H15.71Z" fill="white"/>
<path d="M22.6201 28.7V29.51H20.2901V30.45H22.4301V31.2H20.2901V32.28H22.6701V33.09H19.3201V28.7H22.6201Z" fill="white"/>
<path d="M24.0701 32.01C24.1201 32.11 24.1901 32.2 24.2801 32.26C24.3701 32.32 24.4701 32.37 24.5901 32.4C24.7101 32.43 24.8301 32.45 24.9601 32.45C25.0501 32.45 25.1401 32.45 25.2401 32.43C25.3401 32.41 25.4301 32.39 25.5201 32.35C25.6101 32.31 25.6801 32.25 25.7401 32.18C25.8001 32.11 25.8301 32.02 25.8301 31.91C25.8301 31.79 25.7901 31.69 25.7201 31.62C25.6401 31.54 25.5401 31.48 25.4201 31.43C25.3001 31.38 25.1601 31.34 25.0001 31.3C24.8401 31.26 24.6901 31.22 24.5201 31.18C24.3601 31.14 24.2001 31.09 24.0401 31.03C23.8801 30.97 23.7401 30.89 23.6201 30.8C23.5001 30.71 23.4001 30.59 23.3201 30.45C23.2501 30.31 23.2101 30.14 23.2101 29.93C23.2101 29.71 23.2601 29.51 23.3601 29.34C23.4601 29.17 23.5801 29.03 23.7401 28.92C23.9001 28.81 24.0701 28.73 24.2701 28.67C24.4701 28.62 24.6601 28.59 24.8601 28.59C25.0901 28.59 25.3101 28.62 25.5201 28.67C25.7301 28.72 25.9201 28.8 26.0901 28.92C26.2501 29.03 26.3801 29.18 26.4801 29.36C26.5801 29.54 26.6301 29.75 26.6301 30.01H25.6901C25.6901 29.88 25.6501 29.77 25.6101 29.68C25.5701 29.59 25.5001 29.53 25.4201 29.48C25.3401 29.43 25.2501 29.4 25.1501 29.38C25.0501 29.36 24.9401 29.35 24.8201 29.35C24.7401 29.35 24.6601 29.35 24.5901 29.37C24.5101 29.39 24.4401 29.41 24.3801 29.46C24.3201 29.5 24.2601 29.55 24.2201 29.61C24.1801 29.67 24.1601 29.75 24.1601 29.84C24.1601 29.92 24.1801 30 24.2101 30.05C24.2401 30.1 24.3101 30.15 24.4101 30.2C24.5101 30.25 24.6401 30.29 24.8101 30.34C24.9801 30.38 25.2001 30.44 25.4801 30.51C25.5601 30.53 25.6801 30.56 25.8201 30.6C25.9601 30.64 26.1101 30.71 26.2501 30.81C26.3901 30.91 26.5201 31.03 26.6201 31.19C26.7201 31.35 26.7801 31.55 26.7801 31.8C26.7801 32 26.7401 32.19 26.6601 32.36C26.5801 32.53 26.4701 32.68 26.3101 32.81C26.1601 32.93 25.9601 33.03 25.7401 33.1C25.5101 33.17 25.2501 33.2 24.9501 33.2C24.7101 33.2 24.4701 33.17 24.2401 33.11C24.0101 33.05 23.8101 32.96 23.6401 32.83C23.4601 32.7 23.3201 32.54 23.2201 32.35C23.1201 32.15 23.0701 31.92 23.0701 31.65H24.0101C24.0101 31.8 24.0401 31.92 24.0901 32.03" fill="white"/>
<path d="M28.07 32.01C28.12 32.11 28.1901 32.2 28.2801 32.26C28.3701 32.32 28.47 32.37 28.59 32.4C28.71 32.43 28.83 32.45 28.96 32.45C29.05 32.45 29.14 32.45 29.24 32.43C29.34 32.41 29.4301 32.39 29.5201 32.35C29.6101 32.31 29.68 32.25 29.74 32.18C29.8 32.11 29.83 32.02 29.83 31.91C29.83 31.79 29.79 31.69 29.72 31.62C29.64 31.54 29.54 31.48 29.42 31.43C29.3 31.38 29.16 31.34 29 31.3C28.84 31.26 28.6901 31.22 28.5201 31.18C28.3601 31.14 28.2001 31.09 28.0401 31.03C27.8801 30.97 27.7401 30.89 27.6201 30.8C27.5001 30.71 27.4 30.59 27.32 30.45C27.24 30.31 27.21 30.14 27.21 29.93C27.21 29.71 27.26 29.51 27.35 29.34C27.45 29.17 27.57 29.03 27.73 28.92C27.89 28.81 28.06 28.73 28.26 28.67C28.46 28.62 28.65 28.59 28.85 28.59C29.08 28.59 29.3 28.62 29.51 28.67C29.72 28.72 29.91 28.8 30.08 28.92C30.24 29.03 30.37 29.18 30.47 29.36C30.57 29.54 30.6201 29.75 30.6201 30.01H29.68C29.68 29.88 29.64 29.77 29.6 29.68C29.55 29.59 29.49 29.53 29.41 29.48C29.33 29.43 29.24 29.4 29.14 29.38C29.04 29.36 28.93 29.35 28.81 29.35C28.73 29.35 28.65 29.35 28.58 29.37C28.5 29.39 28.4301 29.41 28.3701 29.46C28.3101 29.5 28.25 29.55 28.21 29.61C28.17 29.67 28.15 29.75 28.15 29.84C28.15 29.92 28.1701 30 28.2001 30.05C28.2301 30.1 28.3 30.15 28.39 30.2C28.49 30.25 28.6201 30.29 28.7901 30.34C28.9601 30.38 29.18 30.44 29.46 30.51C29.54 30.53 29.66 30.56 29.8 30.6C29.95 30.64 30.09 30.71 30.23 30.81C30.37 30.91 30.5 31.03 30.6 31.19C30.7 31.35 30.76 31.55 30.76 31.8C30.76 32 30.72 32.19 30.64 32.36C30.56 32.53 30.4501 32.68 30.2901 32.81C30.1401 32.93 29.94 33.03 29.72 33.1C29.49 33.17 29.23 33.2 28.93 33.2C28.69 33.2 28.45 33.17 28.22 33.11C27.99 33.05 27.7901 32.96 27.6201 32.83C27.4401 32.7 27.3101 32.54 27.2001 32.35C27.1001 32.15 27.05 31.92 27.05 31.65H27.99C27.99 31.8 28.02 31.92 28.07 32.03" fill="white"/>
<path d="M34.4401 28.7V29.51H32.3101V30.52H34.1501V31.27H32.3101V33.09H31.3401V28.7H34.4401Z" fill="white"/>
<path d="M37.03 30.68C37.25 30.68 37.42 30.63 37.53 30.53C37.64 30.43 37.7 30.27 37.7 30.05C37.7 29.83 37.64 29.68 37.53 29.59C37.42 29.49 37.25 29.45 37.03 29.45H35.97V30.69H37.03V30.68ZM37.37 28.7C37.57 28.7 37.75 28.73 37.9 28.8C38.06 28.86 38.19 28.95 38.31 29.06C38.42 29.17 38.51 29.3 38.57 29.44C38.63 29.59 38.66 29.74 38.66 29.91C38.66 30.17 38.61 30.39 38.5 30.58C38.39 30.77 38.21 30.91 37.97 31.01C38.09 31.05 38.19 31.11 38.27 31.17C38.35 31.24 38.41 31.32 38.46 31.41C38.51 31.5 38.55 31.6 38.57 31.72C38.59 31.83 38.61 31.94 38.62 32.05C38.62 32.12 38.62 32.2 38.63 32.3C38.63 32.39 38.64 32.49 38.65 32.59C38.66 32.69 38.68 32.78 38.7 32.87C38.72 32.96 38.76 33.03 38.8 33.09H37.83C37.78 32.95 37.74 32.78 37.73 32.59C37.72 32.4 37.7 32.21 37.67 32.04C37.64 31.81 37.57 31.64 37.46 31.54C37.35 31.43 37.18 31.38 36.94 31.38H35.97V33.1H35V28.71H37.38L37.37 28.7Z" fill="white"/>
<path d="M41.71 31.39L41.15 29.78H41.14L40.57 31.39H41.71ZM41.65 28.7L43.3 33.09H42.29L41.96 32.11H40.31L39.96 33.09H38.99L40.66 28.7H41.65Z" fill="white"/>
<path d="M44.6499 28.7L46.4799 31.64H46.4999V28.7H47.3999V33.09H46.4399L44.5999 30.15H44.5899V33.09H43.6799V28.7H44.6499Z" fill="white"/>
<path d="M51.0801 29.87C51.0201 29.78 50.9501 29.7 50.8601 29.63C50.7701 29.56 50.6801 29.51 50.5701 29.47C50.4601 29.43 50.3501 29.41 50.2301 29.41C50.0101 29.41 49.8301 29.45 49.6701 29.54C49.5201 29.62 49.3901 29.74 49.3001 29.88C49.2101 30.02 49.1401 30.18 49.0901 30.36C49.0501 30.54 49.0301 30.73 49.0301 30.92C49.0301 31.11 49.0501 31.28 49.0901 31.46C49.1301 31.63 49.2001 31.79 49.3001 31.93C49.3901 32.07 49.5201 32.18 49.6701 32.27C49.8201 32.35 50.0101 32.4 50.2301 32.4C50.5301 32.4 50.7601 32.31 50.9301 32.13C51.1001 31.95 51.2001 31.71 51.2301 31.42H52.1701C52.1501 31.69 52.0801 31.94 51.9801 32.16C51.8801 32.38 51.7401 32.57 51.5701 32.73C51.4001 32.89 51.2001 33 50.9801 33.09C50.7501 33.17 50.5001 33.21 50.2301 33.21C49.8901 33.21 49.5901 33.15 49.3201 33.04C49.0501 32.92 48.8201 32.76 48.6401 32.56C48.4601 32.36 48.3101 32.11 48.2101 31.84C48.1101 31.56 48.0601 31.26 48.0601 30.95C48.0601 30.64 48.1101 30.32 48.2101 30.04C48.3101 29.76 48.4501 29.51 48.6401 29.3C48.8201 29.09 49.0501 28.93 49.3201 28.81C49.5901 28.69 49.8901 28.63 50.2301 28.63C50.4701 28.63 50.7001 28.67 50.9201 28.73C51.1401 28.8 51.3301 28.9 51.5001 29.04C51.6701 29.17 51.8101 29.34 51.9201 29.53C52.0301 29.73 52.1001 29.95 52.1301 30.21H51.1901C51.1701 30.1 51.1401 30 51.0801 29.9" fill="white"/>
<path d="M56.1301 28.7V29.51H53.8001V30.45H55.9301V31.2H53.8001V32.28H56.1801V33.09H52.8301V28.7H56.1301Z" fill="white"/>
</g>
<defs>
<clipPath id="clip0_1420_4046">
<rect width="56.18" height="33.19" fill="white"/>
</clipPath>
</defs>
</svg>
