<svg clip-rule="evenodd" fill-rule="evenodd" stroke-linejoin="round" stroke-miterlimit="2" viewBox="0 0 1350 525" xmlns="http://www.w3.org/2000/svg"><g transform="scale(4.16667)"><path d="m133.888 73.944c1.537 3.13 3.703 5.569 6.5 7.319 2.795 1.75 6.083 2.625 9.86 2.625 1.963 0 3.606-.125 4.93-.375s2.454-.546 3.389-.889c.935-.342 1.81-.643 2.625-.903l-.056-3.944c-.481.333-1.236.69-2.263 1.069-1.028.38-2.26.704-3.695.973-1.435.268-3.004.402-4.708.402-3.018 0-5.597-.763-7.735-2.291-2.139-1.528-3.774-3.615-4.903-6.264-1.13-2.647-1.694-5.647-1.694-8.999 0-3.666.62-6.782 1.861-9.347 1.24-2.564 2.953-4.518 5.138-5.86 2.185-1.343 4.704-2.014 7.555-2.014 2.074 0 3.764.13 5.07.389 1.305.259 2.333.546 3.083.861s1.328.546 1.736.694l.666-4.111c-.555-.111-1.273-.291-2.152-.541-.88-.25-2.014-.482-3.403-.695-1.389-.212-3.129-.319-5.222-.319-2.574 0-5.004.468-7.291 1.403s-4.296 2.305-6.027 4.11c-1.732 1.806-3.093 4.028-4.083 6.667-.991 2.638-1.486 5.671-1.486 9.096 0 4.167.768 7.815 2.305 10.944zm49.066 8.833c1.694-.741 2.958-1.5 3.791-2.278l.723-1.833-1-.889c-.223.241-.723.579-1.5 1.014-.778.435-1.736.829-2.875 1.18-1.139.352-2.366.528-3.68.528-2.222 0-3.824-.523-4.806-1.569-.981-1.046-1.472-2.375-1.472-3.986 0-1.389.398-2.537 1.195-3.444.796-.907 1.972-1.648 3.527-2.222.87-.352 1.912-.634 3.125-.848 1.213-.212 2.403-.365 3.569-.458 1.167-.092 2.12-.139 2.861-.139l1-1.611-1-1.277c-1.074 0-2.319.055-3.736.166-1.416.111-2.856.301-4.319.57-1.463.268-2.796.634-4 1.097-2.166.796-3.819 1.902-4.958 3.319-1.138 1.417-1.708 3.143-1.708 5.18 0 1.797.403 3.338 1.208 4.625.806 1.287 1.917 2.273 3.333 2.958 1.417.685 3.032 1.028 4.847 1.028 2.222 0 4.181-.371 5.875-1.111zm7.958-20.888c0-2.592-.44-4.601-1.32-6.027-.879-1.426-2.11-2.417-3.694-2.972-1.583-.556-3.43-.833-5.541-.833-1.667 0-3.278.208-4.833.624-1.556.417-2.894.875-4.014 1.375s-1.856.871-2.208 1.111l1.111 3.222c.537-.388 1.296-.786 2.278-1.194.981-.407 2.05-.745 3.208-1.014 1.157-.268 2.254-.403 3.291-.403 2.426 0 4.236.399 5.431 1.195 1.194.796 1.791 2.379 1.791 4.75v17.276l.278.056v4.388h4.222zm21.498 22.054 11.999-31.442h-4.833l-6.777 19.221-2.889 9.61h1.334l-3.167-9.61-6.999-19.221h-4.889l12.388 31.442zm31.262-1.166c1.694-.741 2.958-1.5 3.791-2.278l.722-1.833-1-.889c-.222.241-.722.579-1.5 1.014-.777.435-1.736.829-2.874 1.18-1.139.352-2.366.528-3.681.528-2.222 0-3.824-.523-4.805-1.569-.982-1.046-1.472-2.375-1.472-3.986 0-1.389.398-2.537 1.194-3.444s1.972-1.648 3.528-2.222c.87-.352 1.912-.634 3.125-.848 1.212-.212 2.402-.365 3.569-.458 1.166-.092 2.12-.139 2.861-.139l1-1.611-1-1.277c-1.074 0-2.32.055-3.736.166-1.417.111-2.857.301-4.319.57-1.463.268-2.797.634-4 1.097-2.167.796-3.819 1.902-4.958 3.319s-1.708 3.143-1.708 5.18c0 1.797.402 3.338 1.208 4.625.805 1.287 1.917 2.273 3.333 2.958 1.417.685 3.032 1.028 4.847 1.028 2.222 0 4.18-.371 5.875-1.111zm7.957-20.888c0-2.592-.44-4.601-1.319-6.027-.88-1.426-2.111-2.417-3.694-2.972-1.583-.556-3.43-.833-5.541-.833-1.667 0-3.278.208-4.833.624-1.556.417-2.894.875-4.014 1.375-1.121.5-1.857.871-2.208 1.111l1.111 3.222c.537-.388 1.296-.786 2.277-1.194.982-.407 2.051-.745 3.209-1.014 1.157-.268 2.254-.403 3.291-.403 2.426 0 4.236.399 5.43 1.195 1.195.796 1.792 2.379 1.792 4.75v17.276l.278.056v4.388h4.221zm14.666-23.609h-4.556v45.164h4.556zm16.317 19.984c.843-.601 1.815-1.12 2.917-1.555 1.101-.435 2.282-.653 3.541-.653 1.148 0 1.995.074 2.542.222.546.149.958.297 1.236.445v-4.278c-.278-.111-.662-.194-1.153-.25-.491-.055-1.088-.083-1.791-.083-1.427 0-2.815.296-4.167.889s-2.518 1.268-3.5 2.028c-.981.759-1.629 1.398-1.944 1.916l.333 3c.482-.518 1.144-1.079 1.986-1.681zm-1.708 25.179v-24.554l-.389-1.944-.277-4.389h-3.889v30.887zm17.484 13.583c.38.055.787.101 1.223.139.434.037.791.055 1.069.055.426 0 .898-.037 1.417-.111.518-.074.972-.166 1.361-.278 2.036-.555 3.786-1.874 5.249-3.958 1.463-2.083 2.806-4.967 4.028-8.652l10.61-31.72h-4.888l-6.444 21.221-2.389 8.221h1.333l-2.778-8.221-7.444-21.221h-4.833l11.611 30.942h1.889l-.389-.611c-.667 2.833-1.472 5.014-2.417 6.542-.944 1.527-1.954 2.587-3.027 3.18-1.075.592-2.149.889-3.222.889-.389 0-.861-.038-1.417-.111-.555-.075-.972-.149-1.25-.223v3.722c.093.074.329.139.708.195z" fill="#030404" fill-rule="nonzero"/><g fill="none" stroke="#030404" stroke-width="2.44"><path d="m81.11 17.156v30.749l26.631-15.374z"/><path d="m81.11 17.156-26.63 15.375 26.63 15.375z"/><path d="m81.11 17.156-26.63-15.375v30.75z"/><path d="m27.85 17.156 26.63 15.375v-30.75z"/><path d="m27.85 17.156v30.749l26.63-15.374z"/><path d="m27.85 17.156-26.631 15.375 26.631 15.375z"/><path d="m1.219 63.281 26.631-15.376-26.631-15.374z"/><path d="m1.219 63.281 26.631 15.375v-30.75z"/><path d="m1.219 63.281v30.75l26.631-15.375z"/><path d="m27.85 109.405v-30.749l-26.631 15.375z"/><path d="m27.85 109.405 26.63-15.374-26.63-15.375z"/><path d="m27.85 109.405 26.63 15.375v-30.749z"/><path d="m81.11 109.405-26.63-15.374v30.749z"/><path d="m81.11 109.405v-30.749l-26.63 15.375z"/><path d="m81.11 109.405 26.63-15.374-26.63-15.375z"/></g></g></svg>