<svg width="168" height="33" viewBox="0 0 168 33" fill="none" xmlns="http://www.w3.org/2000/svg">
<path d="M47.2331 22.6197C44.1734 22.6197 42.2682 19.8773 42.2682 16.0969C42.2682 12.3165 43.8562 9.54413 47.2049 9.54413C49.4067 9.54413 50.8407 10.9595 51.096 12.8121H56.2053C55.9463 10.5033 54.9064 8.48362 53.1176 7.12648C51.6441 6.00027 49.6244 5.30765 47.2293 5.30765C41.082 5.30765 37.0688 9.95519 37.0688 16.1025C37.0688 22.2799 41.1983 26.8111 47.2574 26.8111C50.1725 26.8111 52.2804 26.0021 53.8684 24.4723C55.3203 23.0805 56.2051 21.2 56.3517 19.194H51.2443C51.0134 21.1762 49.5137 22.6197 47.2331 22.6197Z" fill="white"/>
<path d="M65.7723 11.1623C61.0385 11.1623 57.8625 14.541 57.8625 18.984C57.8625 23.4269 61.0385 26.8056 65.7723 26.8056C70.5343 26.8056 73.6559 23.4269 73.6559 18.984C73.6559 14.541 70.5343 11.1623 65.7723 11.1623ZM65.7427 23.457C63.6927 23.457 62.6247 21.6681 62.6247 18.984C62.6247 16.2998 63.6927 14.479 65.7427 14.479C67.7922 14.479 68.8881 16.2979 68.8881 18.984C68.8881 21.67 67.8018 23.457 65.7369 23.457H65.7427Z" fill="white"/>
<path d="M80.3423 9.58794C81.3454 8.58445 81.3454 6.95741 80.3423 5.95391C79.3384 4.95038 77.7116 4.95038 76.7084 5.95391C75.7046 6.95741 75.7046 8.58445 76.7084 9.58794C77.7116 10.5915 79.3384 10.5915 80.3423 9.58794Z" fill="white"/>
<path d="M74.4336 14.8902H76.389V26.3439H81.095V11.566H74.4336V14.8902Z" fill="white"/>
<path d="M92.631 11.1324C90.5815 11.1324 89.166 11.9996 88.0701 13.5857H87.9837V11.566H83.4524V26.344H88.1564V18.1751C88.1564 16.3581 89.1963 15.0592 90.7542 15.0592C92.3121 15.0592 93.0627 16.1254 93.0627 17.6871V26.3459H97.7686V16.7316C97.7686 13.4412 95.8635 11.1324 92.631 11.1324Z" fill="white"/>
<path d="M108.804 5.70561H100V26.3531H108.486C111.084 26.3531 113.162 25.6886 114.779 24.4761C117.087 22.7154 118.358 19.8003 118.358 16.1645C118.358 9.83323 114.52 5.70561 108.804 5.70561ZM108.112 22.0359H105.108V9.97775H108.168C111.372 9.97775 113.189 12.4029 113.189 16.1551C113.189 19.9074 111.46 22.0434 108.112 22.0434V22.0359Z" fill="white"/>
<path d="M132.306 13.0695C131.037 11.9151 129.363 11.2225 127.255 11.2225C122.75 11.2225 119.664 14.6011 119.664 19.016C119.664 23.4889 122.667 26.8658 127.548 26.8658C129.425 26.8658 130.927 26.3758 132.166 25.5105C133.394 24.6872 134.276 23.4413 134.645 22.0098H130.055C129.65 22.9334 128.843 23.4815 127.603 23.4815C125.667 23.4815 124.571 22.2407 124.282 20.2492H134.904C134.932 17.2553 134.061 14.6893 132.306 13.0695ZM124.312 17.458C124.629 15.6955 125.553 14.5711 127.342 14.5711C128.871 14.5711 129.969 15.6973 130.142 17.458H124.312Z" fill="white"/>
<path d="M144.198 17.1031C142.32 16.754 140.65 16.6132 140.65 15.5733C140.65 14.6498 141.545 14.2162 142.7 14.2162C143.999 14.2162 144.892 14.6216 145.066 15.9487H149.395C149.164 13.0336 146.913 11.2148 142.727 11.2148C139.235 11.2148 136.346 12.8309 136.346 15.9487C136.346 19.4118 139.088 20.1044 141.656 20.5381C143.619 20.8835 145.41 21.028 145.41 22.3569C145.41 23.3086 144.515 23.8285 143.101 23.8285C141.543 23.8285 140.561 23.1059 140.389 21.6343H135.938C136.081 24.8966 138.795 26.89 143.124 26.89C146.992 26.89 149.849 25.2156 149.849 21.9834C149.857 18.1993 146.797 17.5367 144.198 17.1031Z" fill="white"/>
<path d="M160.924 17.1068L166.119 11.5657H160.693L156.306 16.5587V5.70561H151.659V26.3437H156.306V21.8126L157.722 20.3109L161.271 26.3437H166.726L160.924 17.1068Z" fill="white"/>
<path d="M16.391 17.4429C17.1747 17.4429 17.81 16.8075 17.81 16.0238C17.81 15.2401 17.1747 14.6048 16.391 14.6048C15.6073 14.6048 14.9719 15.2401 14.9719 16.0238C14.9719 16.8075 15.6073 17.4429 16.391 17.4429Z" fill="#F8BF1E"/>
<path d="M27.7604 17.4429C28.5441 17.4429 29.1794 16.8075 29.1794 16.0238C29.1794 15.2401 28.5441 14.6048 27.7604 14.6048C26.9766 14.6048 26.3413 15.2401 26.3413 16.0238C26.3413 16.8075 26.9766 17.4429 27.7604 17.4429Z" fill="#F8BF1E"/>
<path d="M27.7604 28.8289C28.5441 28.8289 29.1794 28.1936 29.1794 27.4099C29.1794 26.6261 28.5441 25.9909 27.7604 25.9909C26.9766 25.9909 26.3413 26.6261 26.3413 27.4099C26.3413 28.1936 26.9766 28.8289 27.7604 28.8289Z" fill="#F8BF1E"/>
<path d="M31.9383 4.36471C31.8791 3.5466 31.5847 2.76303 31.0904 2.10842C30.5961 1.4538 29.9231 0.956069 29.1525 0.675182C28.3818 0.39429 27.5464 0.342228 26.7468 0.525266C25.9472 0.708306 25.2176 1.11863 24.6459 1.70682C24.3338 2.03421 23.9592 2.29561 23.5443 2.47552C23.1293 2.65544 22.6825 2.75021 22.2302 2.75421H21.8886C21.4246 2.75014 20.966 2.65376 20.5397 2.47072C20.1134 2.28768 19.7277 2.02162 19.4052 1.68805C19.0098 1.28766 18.5387 0.969767 18.0195 0.752801C17.5003 0.53583 16.9431 0.424107 16.3803 0.424107C15.8176 0.424107 15.2604 0.53583 14.7412 0.752801C14.222 0.969767 13.7509 1.28766 13.3555 1.68805C13.0326 2.02168 12.6466 2.28776 12.22 2.47079C11.7933 2.65383 11.3345 2.75017 10.8703 2.75421H10.5399C10.0857 2.75949 9.63521 2.67236 9.21571 2.49811C8.79621 2.32386 8.41653 2.06615 8.09973 1.74061C7.97306 1.60732 7.83827 1.48194 7.6962 1.3652C6.84638 0.700729 5.77591 0.383824 4.70134 0.47858C3.62676 0.573337 2.62827 1.07268 1.90785 1.87561C1.18744 2.67854 0.798861 3.72512 0.820728 4.80365C0.842589 5.88217 1.27326 6.91212 2.02563 7.68521L2.07631 7.73399C2.4052 8.05394 2.66615 8.43698 2.84354 8.86015C3.02093 9.28326 3.11111 9.73787 3.10869 10.1967V10.5139C3.10458 10.978 3.00839 11.4366 2.8257 11.8632C2.64301 12.2899 2.37744 12.6759 2.04441 12.9991C1.64402 13.3946 1.32612 13.8656 1.10915 14.3849C0.892187 14.9041 0.78046 15.4612 0.78046 16.024C0.78046 16.5867 0.892187 17.1439 1.10915 17.6632C1.32612 18.1824 1.64402 18.6534 2.04441 19.0488C2.37798 19.3714 2.64403 19.757 2.82708 20.1834C3.01012 20.6097 3.10649 21.0682 3.11057 21.5321V21.9545C3.10582 22.4067 3.01072 22.8533 2.83085 23.2682C2.65098 23.6831 2.38997 24.0577 2.06317 24.3703C1.64384 24.7606 1.3077 25.2318 1.07492 25.7552C0.842138 26.2787 0.717512 26.8438 0.708531 27.4167C0.699549 27.9895 0.806386 28.5583 1.02264 29.0888C1.23889 29.6194 1.56009 30.1008 1.96697 30.5042C2.37386 30.9075 2.85804 31.2245 3.39044 31.4361C3.92286 31.6476 4.49253 31.7495 5.06528 31.7355C5.63803 31.7215 6.20205 31.592 6.72351 31.3546C7.24494 31.1173 7.71308 30.777 8.09973 30.3543C8.41015 30.0225 8.78461 29.7572 9.20044 29.5742C9.61633 29.3913 10.065 29.2946 10.5192 29.29H10.8947C11.349 29.2946 11.7976 29.3913 12.2135 29.5742C12.6294 29.7572 13.0038 30.0225 13.3142 30.3543C13.8989 30.9639 14.6519 31.3855 15.4772 31.5655C16.3024 31.7455 17.1626 31.6757 17.948 31.3651C18.7335 31.0544 19.4087 30.517 19.8875 29.8211C20.3663 29.1253 20.6271 28.3027 20.6367 27.4581C20.6463 26.6135 20.4042 25.7851 19.9413 25.0787C19.4784 24.3721 18.8155 23.8195 18.0373 23.4911C17.2591 23.1627 16.4008 23.0734 15.5716 23.2347C14.7425 23.396 13.9801 23.8004 13.3818 24.3966C13.0594 24.7241 12.6757 24.9849 12.2525 25.164C11.8292 25.3431 11.3749 25.4369 10.9153 25.4402H10.5268C10.067 25.4422 9.61144 25.3526 9.18665 25.1767C8.76193 25.0007 8.37645 24.7419 8.05282 24.4153C8.0438 24.4044 8.03375 24.3944 8.0228 24.3853C7.68995 24.0623 7.42457 23.6765 7.24185 23.2502C7.05919 22.824 6.96287 22.3657 6.95849 21.902V21.5265C6.96287 21.0628 7.05919 20.6045 7.24185 20.1782C7.42457 19.752 7.68995 19.3662 8.0228 19.0432C8.42245 18.648 8.73977 18.1774 8.95638 17.6588C9.17306 17.1401 9.28465 16.5836 9.28484 16.0216C9.28504 15.4595 9.1737 14.9029 8.95741 14.3841C8.74112 13.8654 8.42406 13.3946 8.02467 12.9991C7.69111 12.6766 7.42502 12.291 7.24198 11.8646C7.05893 11.4383 6.96261 10.9798 6.95849 10.5158V10.1835C6.96106 9.72247 7.05552 9.26657 7.23631 8.84243C7.41709 8.41829 7.68068 8.03448 8.01152 7.71337L8.04155 7.68334L8.0697 7.65519C8.39082 7.32447 8.77475 7.06115 9.19889 6.88068C9.62303 6.70015 10.0789 6.60615 10.5399 6.60402H10.8703C11.3345 6.60731 11.7933 6.70311 12.2201 6.88583C12.6468 7.06862 13.0328 7.33459 13.3555 7.66833C13.7509 8.06844 14.2218 8.38608 14.7409 8.60288C15.2599 8.81969 15.8169 8.93128 16.3794 8.93128C16.9419 8.93128 17.4989 8.81969 18.0179 8.60288C18.537 8.38608 19.0079 8.06844 19.4033 7.66833C19.7263 7.33549 20.1121 7.07004 20.5384 6.88738C20.9646 6.70472 21.4229 6.6084 21.8867 6.60402H22.1776C22.6413 6.6084 23.0996 6.70472 23.5259 6.88738C23.9522 7.07004 24.338 7.33549 24.661 7.66833C25.2719 8.29111 26.0596 8.71099 26.9173 8.87104C27.775 9.03102 28.6611 8.92342 29.4555 8.56274C30.2499 8.20213 30.9142 7.6059 31.3583 6.85497C31.8025 6.10399 32.0049 5.23462 31.9383 4.36471Z" fill="#F8BF1E"/>
</svg>
