<svg width="314" height="51" viewBox="0 0 314 51" fill="none" xmlns="http://www.w3.org/2000/svg">
<path d="M0.466797 1.13135H25.6492C48.516 1.13135 56.0418 11.6152 56.0418 25.2516C56.0418 40.7208 48.3713 49.3718 27.8201 49.3718H0.466797V1.13135ZM27.1688 36.4686C34.9841 36.4686 38.0233 32.5097 38.0233 25.2516C38.0233 19.0199 34.9117 14.0346 26.5899 14.0346H18.5576V36.4686H27.1688Z" fill="white"/>
<path d="M107.926 33.7557H76.1584C76.5926 37.7146 78.7635 40.3539 85.4933 40.3539C91.427 40.3539 93.3085 38.741 93.6703 36.6149H107.926C107.709 44.1663 101.486 50.1047 84.9143 50.1047C65.1592 50.1047 59.3701 40.8671 59.3701 31.6296C59.3701 19.3862 68.7773 12.4214 84.4802 12.4214C100.183 12.4214 107.926 18.873 107.926 30.4566V33.7557ZM93.6703 26.6443C93.6703 23.785 91.7165 21.439 85.4933 21.439C79.7042 21.439 77.2438 23.3451 76.3755 27.2308H93.6703V26.6443Z" fill="white"/>
<path d="M111.762 33.1694H127.609C127.609 36.6151 129.925 39.401 139.115 39.401C148.305 39.401 150.259 37.2016 150.259 34.7089C150.259 33.096 149.318 32.0696 147.075 31.5565C144.615 31.0433 138.464 30.75 133.543 30.3834C127.971 30.0169 121.096 29.1371 117.334 27.1576C113.643 25.2515 111.472 21.8057 111.472 16.967C111.472 7.72947 120.156 0.251465 139.621 0.251465C162.705 0.251465 166.685 8.16935 166.685 16.8937H151.272C151.272 13.3013 147.871 11.1019 140.2 11.1019C132.53 11.1019 129.708 12.9347 129.708 15.574C129.708 16.967 130.504 17.9201 132.168 18.4333C134.339 19.1664 140.345 19.3864 145.628 19.8262C152.502 20.3394 157.857 20.926 161.62 22.5389C166.179 24.445 168.784 28.184 168.784 33.1694C168.784 41.0872 164.804 50.2515 139.621 50.2515C114.439 50.2515 111.762 39.6943 111.762 33.1694Z" fill="white"/>
<path d="M177.106 35.5152V24.6648H171.1V13.1545H176.02C178.264 13.1545 179.132 12.1281 179.494 9.56213L180.145 4.94336H193.749V13.1545H209.886V24.6648H193.749V34.2689C193.749 37.7879 195.703 38.8143 202.143 38.8143C204.821 38.8143 207.86 38.5211 209.452 38.3011V49.1516C207.643 49.5915 203.301 50.1047 198.091 50.1047C182.171 50.1047 177.106 43.9463 177.106 35.5152Z" fill="white"/>
<path d="M211.912 31.3363C211.912 21.5856 219.004 12.4214 237.601 12.4214C256.198 12.4214 263.29 21.5856 263.29 31.3363C263.29 41.0871 256.343 50.1047 237.601 50.1047C218.859 50.1047 211.912 41.1604 211.912 31.3363ZM246.646 31.3363C246.646 27.0108 244.331 23.4185 237.601 23.4185C230.871 23.4185 228.556 27.0108 228.556 31.3363C228.556 35.6619 230.871 39.1076 237.601 39.1076C244.331 39.1076 246.646 35.5152 246.646 31.3363Z" fill="white"/>
<path d="M298.676 32.6559C298.676 27.9638 297.229 25.3979 292.598 25.3979C286.519 25.3979 283.842 30.1633 283.842 35.5152V49.3715H267.198V13.1545H283.842L283.552 23.4184H283.769C285.651 17.5533 290.065 12.4946 298.893 12.4946C310.11 12.4946 313.511 18.653 313.511 27.8905" fill="white"/>
</svg>
