<svg width="681" height="152" viewBox="0 0 681 152" fill="none" xmlns="http://www.w3.org/2000/svg">
<g clip-path="url(#clip0_238_411)">
<path d="M78.0344 47.0669C77.5628 42.2994 69.9657 40.5181 69.1274 40.3086C68.2891 40.099 61.1635 38.4225 52.6757 45.0237C44.1879 51.6249 40.4679 66.7657 40.4679 66.7657L39.7344 70.0139H38.5817C31.8048 70.0277 25.3095 72.7258 20.5175 77.5174C15.7255 82.3091 13.0273 88.804 13.0135 95.5804V96.5758C13.0126 101.611 14.4988 106.535 17.2858 110.729C20.0728 114.923 24.0363 118.201 28.6793 120.151L28.1029 122.876C27.055 128.062 25.1165 135.03 22.9159 139.85C20.7154 144.67 18.0957 146.818 15.4236 147.552C12.7515 148.285 11.1797 146.818 10.4985 146.189C9.81742 145.561 7.25012 141.527 7.25012 141.527C6.75305 140.836 6.07243 140.298 5.28534 139.974C4.49825 139.65 3.63614 139.552 2.79663 139.693C2.42987 139.745 -0.242222 140.531 0.0197481 144.146C0.491294 148.914 8.08842 150.747 8.92672 150.905C9.76503 151.062 16.8906 152.791 25.4308 146.189C33.971 139.588 37.5862 124.447 37.5862 124.447L38.1102 122.142H39.5772C46.3541 122.128 52.8494 119.43 57.6414 114.639C62.4334 109.847 65.1316 103.352 65.1454 96.5758V95.5804C65.1456 90.4971 63.6304 85.5292 60.7933 81.3112C57.9562 77.0932 53.9261 73.8166 49.2177 71.8999L49.9512 68.3374C50.9991 63.2031 52.9377 56.1828 55.1382 51.4153C57.3388 46.6478 59.9585 44.395 62.6305 43.6616C65.3026 42.9281 66.8745 44.395 67.5556 45.0237C68.2367 45.6524 70.804 49.6864 70.804 49.6864C71.3011 50.3774 71.9817 50.9154 72.7688 51.2394C73.5559 51.5635 74.418 51.6607 75.2575 51.5201C75.6242 51.4677 78.2963 50.6819 78.0344 47.0669ZM18.7244 96.5758V95.5804C18.7512 90.3586 20.8232 85.3553 24.4962 81.6434C28.1692 77.9315 33.1506 75.8066 38.3721 75.7244L34.9665 90.3413C34.8617 90.7081 32.504 100.924 32.504 100.924C32.504 100.924 31.0894 108.154 29.8319 114.388C26.5049 112.749 23.7021 110.212 21.7395 107.065C19.7769 103.918 18.7327 100.285 18.7244 96.5758V96.5758ZM59.4345 95.5804V96.5758C59.4345 99.1833 58.9209 101.765 57.923 104.174C56.925 106.583 55.4624 108.772 53.6184 110.616C51.7745 112.46 49.5855 113.922 47.1763 114.92C44.7671 115.918 42.1849 116.432 39.5772 116.432H39.42L45.3405 90.3413L48.0126 77.6105C51.4147 79.2275 54.2913 81.7717 56.3118 84.9505C58.3324 88.1294 59.4147 91.8138 59.4345 95.5804Z" fill="white"/>
<path d="M112.929 89.1888V57.1259H135.982V62.3126H119.006V70.9046H134.305V76.0912H119.006V89.1888H112.929Z" fill="white"/>
<path d="M141.798 60.8456V55.397H147.509V60.8456H141.798ZM141.798 89.1888V64.6177H147.509V89.1888H141.798Z" fill="white"/>
<path d="M154.53 89.1888V55.397H160.241V89.1888H154.53Z" fill="white"/>
<path d="M177.792 89.7651C175.533 89.8311 173.289 89.3645 171.243 88.403C169.507 87.4524 168.128 85.9629 167.314 84.1593C166.385 81.8649 165.939 79.4038 166.004 76.9295C165.929 74.4374 166.375 71.9571 167.314 69.6472C168.114 67.8477 169.499 66.371 171.243 65.456C173.277 64.4529 175.526 63.967 177.792 64.0415C179.867 63.9828 181.922 64.4515 183.765 65.4036C185.403 66.3115 186.679 67.754 187.381 69.4901C188.219 71.3237 188.586 73.6813 188.586 76.6151V78.2916H171.872C171.904 79.6107 172.134 80.9175 172.553 82.1685C172.91 83.1379 173.572 83.9653 174.439 84.5261C175.496 85.0486 176.666 85.3006 177.845 85.2595C178.517 85.2601 179.187 85.172 179.836 84.9976C180.449 84.8174 181.02 84.5144 181.512 84.107C182.003 83.7241 182.382 83.2178 182.613 82.64C182.879 81.9927 183.004 81.2962 182.979 80.5968H188.586C188.619 81.9995 188.351 83.3931 187.8 84.6832C187.271 85.7984 186.48 86.7691 185.494 87.5123C184.453 88.2765 183.281 88.8446 182.036 89.1888C180.655 89.5743 179.227 89.7682 177.792 89.7651ZM171.977 74.31H182.665C182.699 73.422 182.575 72.535 182.298 71.6904C182.124 71.0324 181.802 70.4231 181.355 69.9092C180.956 69.4374 180.428 69.0916 179.836 68.9138C179.176 68.6997 178.486 68.5936 177.792 68.5994C176.75 68.5781 175.715 68.7744 174.754 69.1757C173.932 69.5758 173.267 70.2398 172.867 71.0618C172.365 72.0775 172.063 73.1802 171.977 74.31V74.31Z" fill="white"/>
<path d="M204.618 89.7651C202.409 89.8322 200.216 89.3649 198.226 88.4029C196.534 87.4439 195.208 85.9517 194.454 84.1593C193.615 82.2733 193.196 79.8109 193.196 76.9294C193.196 74.048 193.615 71.5332 194.454 69.6472C195.231 67.8662 196.576 66.3926 198.279 65.456C200.239 64.4575 202.419 63.9709 204.618 64.0414C206.109 64.0142 207.595 64.2264 209.019 64.6701C210.234 65.0485 211.357 65.6727 212.32 66.5038C213.251 67.356 213.969 68.4147 214.416 69.5948C214.905 70.9547 215.136 72.3938 215.097 73.8384H209.281C209.309 72.8566 209.149 71.8786 208.81 70.9569C208.473 70.2483 207.923 69.6622 207.238 69.2805C206.396 68.8533 205.456 68.6546 204.513 68.7042C203.411 68.6383 202.32 68.9527 201.422 69.5948C200.55 70.2531 199.908 71.1698 199.588 72.2143C199.174 73.6435 198.98 75.1274 199.012 76.6151V77.2438C198.988 78.731 199.182 80.2138 199.588 81.6446C199.909 82.703 200.572 83.6247 201.475 84.2641C202.458 84.891 203.61 85.2019 204.775 85.1547C205.69 85.1899 206.596 84.9724 207.395 84.526C208.121 84.1557 208.695 83.5445 209.019 82.7972C209.416 81.9077 209.613 80.9419 209.596 79.9681H215.097C215.131 81.3782 214.9 82.7821 214.416 84.1069C213.974 85.2897 213.255 86.3496 212.32 87.1979C211.376 88.0666 210.247 88.7113 209.019 89.084C207.605 89.5721 206.114 89.8028 204.618 89.7651V89.7651Z" fill="white"/>
<path d="M231.811 89.7651C229.5 89.8343 227.205 89.3681 225.104 88.4029C223.312 87.4764 221.876 85.9849 221.018 84.1593C220.045 81.8764 219.58 79.4096 219.655 76.9294C219.655 73.9432 220.127 71.5332 221.018 69.6472C221.862 67.8248 223.304 66.3459 225.104 65.4559C227.192 64.4479 229.494 63.9625 231.811 64.0414C234.535 64.0414 236.788 64.5129 238.57 65.4559C240.356 66.3485 241.78 67.8285 242.604 69.6472C243.547 71.5332 243.966 73.9432 243.966 76.9294C243.966 79.9157 243.547 82.2732 242.604 84.1593C241.766 85.9812 240.347 87.4736 238.57 88.4029C236.453 89.3743 234.139 89.8406 231.811 89.7651V89.7651ZM231.811 85.1023C233.076 85.1584 234.331 84.8492 235.426 84.2117C236.399 83.6117 237.124 82.6821 237.469 81.5922C237.925 80.1891 238.138 78.7185 238.098 77.2438V76.5627C238.138 75.088 237.925 73.6173 237.469 72.2143C237.112 71.1308 236.39 70.2049 235.426 69.5948C234.331 68.9572 233.076 68.648 231.811 68.7041C230.547 68.6623 229.296 68.9705 228.196 69.5948C227.263 70.2259 226.563 71.1464 226.205 72.2143C225.749 73.6173 225.536 75.088 225.576 76.5627V77.2438C225.536 78.7185 225.749 80.1891 226.205 81.5922C226.548 82.6677 227.251 83.5926 228.196 84.2117C229.296 84.836 230.547 85.1442 231.811 85.1023V85.1023Z" fill="white"/>
<path d="M249.782 60.8456V55.397H255.493V60.8456H249.782ZM249.782 89.1888V64.6177H255.493V89.1888H249.782Z" fill="white"/>
<path d="M262.514 89.1888V64.6177H267.229L267.701 67.8659H268.067C268.636 67.1136 269.306 66.4436 270.058 65.8751C270.846 65.2843 271.733 64.8406 272.678 64.5653C273.719 64.1928 274.821 64.0152 275.926 64.0414C277.333 64.0291 278.725 64.3148 280.013 64.8797C281.227 65.4561 282.221 66.4125 282.842 67.604C283.576 68.8613 283.89 70.5378 283.89 72.5811V89.1888H278.127V73.6289C278.137 72.9043 278.049 72.1817 277.865 71.4809C277.676 70.9494 277.372 70.4664 276.974 70.0663C276.553 69.6939 276.051 69.4248 275.507 69.2805C274.909 69.1244 274.292 69.0538 273.673 69.0709C272.695 69.0309 271.727 69.2865 270.897 69.8044C270.06 70.2925 269.372 70.9987 268.906 71.8476C268.411 72.7834 268.159 73.828 268.172 74.8862V89.1888H262.514Z" fill="white"/>
<path d="M112.929 133.721V101.658H135.982V106.844H119.006V115.436H134.305V120.623H119.006V133.721H112.929Z" fill="white"/>
<path d="M151.333 134.297C149.023 134.366 146.728 133.9 144.627 132.935C142.823 132.025 141.382 130.528 140.54 128.691C139.568 126.408 139.103 123.941 139.178 121.461C139.178 118.475 139.65 116.065 140.54 114.179C141.37 112.347 142.816 110.863 144.627 109.988C146.715 108.98 149.016 108.494 151.333 108.573C154.058 108.573 156.311 109.045 158.092 109.988C159.878 110.88 161.303 112.36 162.127 114.179C163.07 116.065 163.489 118.475 163.489 121.461C163.489 124.447 163.07 126.805 162.127 128.691C161.288 130.513 159.87 132.005 158.092 132.935C155.975 133.906 153.662 134.372 151.333 134.297ZM151.333 129.634C152.599 129.69 153.854 129.381 154.949 128.743C155.922 128.143 156.647 127.214 156.992 126.124C157.448 124.721 157.661 123.25 157.621 121.776V121.094C157.661 119.62 157.448 118.149 156.992 116.746C156.635 115.663 155.913 114.737 154.949 114.127C153.854 113.489 152.599 113.18 151.333 113.236C150.069 113.194 148.818 113.502 147.718 114.127C146.785 114.758 146.086 115.678 145.727 116.746C145.271 118.149 145.059 119.62 145.099 121.094V121.776C145.059 123.25 145.271 124.721 145.727 126.124C146.071 127.2 146.774 128.124 147.718 128.743C148.818 129.368 150.069 129.676 151.333 129.634V129.634Z" fill="white"/>
<path d="M177.112 134.297C174.754 134.297 172.815 133.668 171.348 132.358C169.881 131.049 169.095 128.848 169.095 125.757V109.149H174.806V124.709C174.783 125.438 174.89 126.166 175.121 126.857C175.289 127.399 175.596 127.886 176.011 128.272C176.405 128.655 176.893 128.926 177.426 129.058C178.043 129.211 178.677 129.281 179.312 129.267C180.289 129.292 181.252 129.038 182.089 128.534C182.924 128.037 183.597 127.309 184.027 126.438C184.522 125.521 184.774 124.494 184.761 123.452V109.149H190.472V133.721H185.757L185.285 130.472H184.971C184.388 131.212 183.719 131.88 182.98 132.463C182.176 133.04 181.294 133.499 180.36 133.825C179.307 134.147 178.212 134.306 177.112 134.297V134.297Z" fill="white"/>
<path d="M197.493 133.721V109.149H202.261L202.732 112.398H203.046C203.629 111.658 204.298 110.99 205.037 110.407C205.825 109.816 206.712 109.372 207.657 109.097C208.699 108.725 209.8 108.547 210.906 108.573C212.328 108.567 213.737 108.853 215.045 109.411C216.259 109.988 217.252 110.944 217.874 112.136C218.555 113.393 218.869 115.07 218.869 117.113V133.721H213.158V118.161C213.181 117.432 213.075 116.704 212.844 116.013C212.655 115.481 212.351 114.998 211.953 114.598C211.544 114.237 211.062 113.969 210.539 113.812C209.922 113.659 209.288 113.589 208.653 113.603C207.675 113.572 206.71 113.827 205.876 114.336C205.05 114.838 204.365 115.541 203.885 116.379C203.409 117.32 203.174 118.364 203.204 119.418V133.721H197.493Z" fill="white"/>
<path d="M234.273 134.297C232.451 134.334 230.655 133.862 229.086 132.935C227.53 131.94 226.336 130.47 225.681 128.743C224.812 126.399 224.403 123.908 224.476 121.409C224.476 118.423 224.895 116.013 225.733 114.127C226.371 112.405 227.547 110.936 229.086 109.935C230.546 109.023 232.237 108.55 233.959 108.573C234.982 108.579 236.002 108.702 236.998 108.94C237.897 109.173 238.748 109.564 239.513 110.092C240.209 110.615 240.812 111.253 241.294 111.979H241.608V99.9288H247.319V133.721H242.604L242.132 130.472H241.766C241.001 131.702 239.914 132.699 238.622 133.354C237.262 133.992 235.775 134.315 234.273 134.297V134.297ZM236.055 129.372C237.174 129.446 238.284 129.131 239.198 128.481C240.069 127.845 240.712 126.945 241.032 125.914C241.441 124.592 241.635 123.212 241.608 121.828V121.199C241.62 120.108 241.515 119.019 241.294 117.951C241.093 117.075 240.738 116.241 240.246 115.489C239.826 114.84 239.225 114.33 238.517 114.022C237.752 113.648 236.906 113.468 236.055 113.498C234.877 113.428 233.707 113.72 232.701 114.336C231.82 114.929 231.187 115.823 230.92 116.851C230.526 118.247 230.349 119.696 230.396 121.147V121.828C230.355 123.261 230.532 124.692 230.92 126.072C231.215 127.086 231.843 127.971 232.701 128.586C233.723 129.158 234.885 129.43 236.055 129.372V129.372Z" fill="white"/>
<path d="M260.627 134.297C259.835 134.276 259.047 134.189 258.27 134.035C257.364 133.878 256.494 133.559 255.702 133.092C254.836 132.602 254.127 131.875 253.659 130.996C253.091 129.763 252.823 128.412 252.878 127.055C252.932 125.698 253.308 124.374 253.973 123.19C254.768 122.051 255.853 121.147 257.117 120.571C258.666 119.88 260.307 119.421 261.99 119.208C264.04 118.946 266.105 118.824 268.172 118.842V116.799C268.183 116.156 268.076 115.517 267.858 114.912C267.624 114.334 267.199 113.853 266.653 113.55C265.848 113.187 264.967 113.026 264.085 113.079C263.159 113.051 262.236 113.193 261.361 113.498C260.811 113.701 260.336 114.066 259.999 114.546C259.745 114.915 259.617 115.356 259.632 115.803V116.432H254.131C254.088 116.278 254.07 116.119 254.078 115.96V115.384C254.06 114.069 254.505 112.789 255.336 111.769C256.253 110.66 257.472 109.841 258.846 109.411C262.34 108.26 266.116 108.297 269.587 109.516C270.912 110.063 272.043 110.993 272.835 112.188C273.554 113.466 273.916 114.914 273.883 116.379V127.958C273.853 128.202 273.886 128.451 273.977 128.68C274.069 128.909 274.217 129.111 274.407 129.267C274.736 129.481 275.115 129.608 275.507 129.634H277.027V133.563L275.664 133.983C274.946 134.166 274.206 134.254 273.464 134.244C272.727 134.247 271.997 134.105 271.316 133.825C270.692 133.598 270.134 133.22 269.692 132.725C269.266 132.197 268.946 131.593 268.748 130.944H268.486C267.934 131.599 267.3 132.18 266.6 132.673C265.809 133.199 264.943 133.605 264.033 133.878C262.92 134.162 261.776 134.303 260.627 134.297ZM262.356 129.634C263.213 129.64 264.063 129.498 264.871 129.215C265.547 128.951 266.156 128.539 266.653 128.01C267.172 127.515 267.567 126.905 267.805 126.229C268.062 125.47 268.186 124.672 268.172 123.871V122.771C266.595 122.762 265.019 122.868 263.457 123.085C262.227 123.219 261.045 123.631 259.999 124.29C259.574 124.553 259.229 124.925 258.999 125.368C258.768 125.81 258.661 126.307 258.689 126.805C258.683 127.324 258.829 127.834 259.108 128.272C259.394 128.723 259.816 129.072 260.313 129.267C260.965 129.518 261.658 129.643 262.356 129.634V129.634Z" fill="white"/>
<path d="M287.715 134.297C286.457 134.373 285.208 134.043 284.152 133.354C283.294 132.807 282.633 131.999 282.266 131.049C281.911 130.112 281.733 129.117 281.742 128.115V113.812H278.808V109.15H281.899L282.895 102.286H287.453V109.15H291.697V113.812H287.453V127.539C287.421 127.817 287.451 128.099 287.542 128.365C287.632 128.63 287.781 128.872 287.976 129.072C288.172 129.273 288.41 129.428 288.673 129.525C288.936 129.622 289.217 129.659 289.496 129.634H291.697V133.563L290.544 133.878L289.13 134.192L287.715 134.297Z" fill="white"/>
<path d="M296.832 105.377V99.9288H302.542V105.377H296.832ZM296.832 133.721V109.149H302.542V133.721H296.832Z" fill="white"/>
<path d="M320.514 134.297C318.186 134.367 315.874 133.901 313.755 132.935C311.974 131.993 310.542 130.506 309.668 128.691C308.777 126.805 308.358 124.343 308.358 121.461C308.358 118.58 308.777 116.065 309.668 114.179C310.529 112.368 311.966 110.894 313.755 109.988C315.861 108.979 318.18 108.494 320.514 108.573C322.831 108.494 325.132 108.98 327.22 109.988C329.021 110.878 330.463 112.357 331.307 114.179C332.197 116.065 332.617 118.475 332.617 121.461C332.617 124.447 332.197 126.805 331.307 128.691C330.448 130.517 329.012 132.008 327.22 132.935C325.12 133.9 322.824 134.366 320.514 134.297V134.297ZM320.514 129.634C321.778 129.676 323.029 129.368 324.129 128.743C325.073 128.124 325.776 127.2 326.12 126.124C326.576 124.721 326.788 123.25 326.748 121.776V121.094C326.788 119.62 326.576 118.149 326.12 116.746C325.761 115.678 325.062 114.758 324.129 114.127C323.004 113.543 321.755 113.239 320.487 113.239C319.22 113.239 317.971 113.543 316.846 114.127C315.913 114.758 315.213 115.678 314.855 116.746C314.399 118.149 314.186 119.62 314.226 121.094V121.776C314.186 123.25 314.399 124.721 314.855 126.124C315.199 127.2 315.902 128.124 316.846 128.743C317.962 129.375 319.232 129.683 320.514 129.634Z" fill="white"/>
<path d="M338.432 133.721V109.15H343.2L343.672 112.398H343.986C344.583 111.67 345.25 111.003 345.977 110.407C346.771 109.826 347.656 109.383 348.597 109.097C349.639 108.728 350.74 108.551 351.845 108.573C353.268 108.561 354.678 108.847 355.984 109.412C357.198 109.988 358.192 110.944 358.814 112.136C359.566 113.684 359.926 115.393 359.861 117.113V133.721H354.098V118.161C354.121 117.432 354.014 116.705 353.784 116.013C353.615 115.472 353.308 114.984 352.893 114.598C352.5 114.215 352.011 113.944 351.478 113.812C350.862 113.659 350.227 113.589 349.592 113.603C348.616 113.578 347.652 113.833 346.815 114.336C345.993 114.825 345.322 115.533 344.877 116.379C344.36 117.306 344.106 118.357 344.143 119.418V133.721H338.432Z" fill="white"/>
</g>
<path d="M113.065 24.8936V6.94083H115.552V14.6349H125.313V6.94083H127.825V24.8936H125.313V16.807H115.552V24.8936H113.065Z" fill="white"/>
<path d="M137.543 25.2076C136.147 25.2076 134.97 24.9547 134.01 24.4487C133.068 23.9253 132.344 23.1315 131.838 22.0672C131.35 21.003 131.105 19.6508 131.105 18.0108C131.105 16.3534 131.35 15.0013 131.838 13.9544C132.344 12.8902 133.068 12.1051 134.01 11.5991C134.97 11.0757 136.147 10.814 137.543 10.814C138.939 10.814 140.108 11.0757 141.05 11.5991C142.01 12.1051 142.734 12.8902 143.222 13.9544C143.711 15.0013 143.955 16.3534 143.955 18.0108C143.955 19.6508 143.711 21.003 143.222 22.0672C142.734 23.1315 142.01 23.9253 141.05 24.4487C140.108 24.9547 138.939 25.2076 137.543 25.2076ZM137.543 23.271C138.433 23.271 139.174 23.0966 139.768 22.7476C140.361 22.3987 140.806 21.8579 141.102 21.1251C141.416 20.3749 141.573 19.4327 141.573 18.2987V17.723C141.573 16.5715 141.416 15.6293 141.102 14.8966C140.806 14.1638 140.361 13.623 139.768 13.274C139.174 12.9251 138.433 12.7506 137.543 12.7506C136.653 12.7506 135.903 12.9251 135.293 13.274C134.699 13.623 134.254 14.1638 133.958 14.8966C133.661 15.6293 133.513 16.5715 133.513 17.723V18.2987C133.513 19.4327 133.661 20.3749 133.958 21.1251C134.254 21.8579 134.699 22.3987 135.293 22.7476C135.903 23.0966 136.653 23.271 137.543 23.271Z" fill="white"/>
<path d="M151.631 25.2076C150.689 25.2076 149.86 25.1117 149.145 24.9198C148.429 24.7279 147.836 24.4487 147.365 24.0823C146.894 23.7159 146.536 23.2798 146.292 22.7738C146.048 22.2679 145.926 21.6921 145.926 21.0466C145.926 20.9593 145.926 20.8808 145.926 20.811C145.926 20.7238 145.935 20.654 145.952 20.6017H148.229C148.211 20.6715 148.203 20.7325 148.203 20.7849C148.203 20.8372 148.203 20.8896 148.203 20.9419C148.22 21.5525 148.377 22.0323 148.674 22.3813C148.988 22.7302 149.415 22.9744 149.956 23.114C150.497 23.2536 151.099 23.3234 151.762 23.3234C152.338 23.3234 152.87 23.2536 153.358 23.114C153.847 22.957 154.23 22.7302 154.51 22.4336C154.806 22.1196 154.955 21.727 154.955 21.2559C154.955 20.6802 154.763 20.244 154.379 19.9474C154.012 19.6334 153.524 19.3891 152.913 19.2147C152.303 19.0402 151.666 18.857 151.003 18.6651C150.445 18.5081 149.886 18.3336 149.328 18.1417C148.77 17.9498 148.264 17.7142 147.81 17.4351C147.374 17.1559 147.016 16.7983 146.737 16.3621C146.475 15.9085 146.345 15.3415 146.345 14.661C146.345 14.0504 146.467 13.5096 146.711 13.0385C146.973 12.5674 147.339 12.1662 147.81 11.8347C148.281 11.5032 148.848 11.2589 149.511 11.1019C150.192 10.9274 150.942 10.8402 151.762 10.8402C152.634 10.8402 153.393 10.9362 154.039 11.1281C154.702 11.32 155.251 11.5904 155.687 11.9393C156.123 12.2883 156.446 12.6896 156.656 13.1432C156.865 13.5793 156.97 14.0504 156.97 14.5564C156.97 14.661 156.97 14.7657 156.97 14.8704C156.97 14.9576 156.961 15.0274 156.943 15.0798H154.693V14.7919C154.693 14.443 154.597 14.1115 154.405 13.7974C154.23 13.4659 153.916 13.2042 153.463 13.0123C153.027 12.803 152.416 12.6983 151.631 12.6983C151.125 12.6983 150.689 12.7419 150.322 12.8291C149.956 12.8989 149.651 13.021 149.406 13.1955C149.162 13.3525 148.979 13.5444 148.857 13.7713C148.735 13.9806 148.674 14.2249 148.674 14.504C148.674 14.9576 148.822 15.3066 149.119 15.5508C149.415 15.7951 149.808 15.9957 150.296 16.1527C150.802 16.3098 151.343 16.4842 151.919 16.6762C152.529 16.8506 153.149 17.0338 153.777 17.2257C154.422 17.4002 155.007 17.627 155.53 17.9062C156.071 18.1853 156.499 18.5691 156.813 19.0576C157.144 19.5287 157.31 20.1568 157.31 20.9419C157.31 21.6747 157.17 22.3115 156.891 22.8523C156.612 23.3932 156.211 23.8381 155.687 24.187C155.181 24.5359 154.579 24.7889 153.882 24.9459C153.201 25.1204 152.451 25.2076 151.631 25.2076Z" fill="white"/>
<path d="M163.375 25.2076C162.66 25.2076 162.102 25.0768 161.7 24.8151C161.299 24.5359 161.011 24.1783 160.837 23.7421C160.662 23.2885 160.575 22.8087 160.575 22.3027V13.0647H158.795V11.1281H160.627L161.046 7.28104H162.878V11.1281H165.469V13.0647H162.878V21.9625C162.878 22.3987 162.956 22.7302 163.114 22.957C163.271 23.1664 163.567 23.271 164.003 23.271H165.469V24.7889C165.294 24.8761 165.085 24.9459 164.841 24.9983C164.596 25.0506 164.344 25.0942 164.082 25.1291C163.838 25.1815 163.602 25.2076 163.375 25.2076Z" fill="white"/>
<path d="M173.421 25.2076C172.06 25.2076 170.909 24.9547 169.967 24.4487C169.042 23.9253 168.336 23.1315 167.847 22.0672C167.376 21.003 167.14 19.6508 167.14 18.0108C167.14 16.3534 167.376 15.0013 167.847 13.9544C168.336 12.8902 169.051 12.1051 169.993 11.5991C170.935 11.0757 172.113 10.814 173.526 10.814C174.817 10.814 175.899 11.067 176.771 11.573C177.643 12.0615 178.298 12.803 178.734 13.7974C179.187 14.7744 179.414 16.0044 179.414 17.4874V18.5866H169.522C169.557 19.6857 169.714 20.593 169.993 21.3083C170.29 22.0062 170.726 22.5208 171.302 22.8523C171.877 23.1664 172.601 23.3234 173.474 23.3234C174.067 23.3234 174.582 23.2536 175.018 23.114C175.471 22.957 175.846 22.7389 176.143 22.4598C176.457 22.1806 176.693 21.8491 176.85 21.4653C177.007 21.0815 177.094 20.6627 177.111 20.2091H179.362C179.344 20.9419 179.205 21.6223 178.943 22.2504C178.682 22.861 178.298 23.3844 177.792 23.8206C177.286 24.2568 176.666 24.597 175.934 24.8413C175.201 25.0855 174.363 25.2076 173.421 25.2076ZM169.574 16.8593H177.033C177.033 16.0917 176.946 15.4462 176.771 14.9227C176.597 14.3993 176.344 13.9719 176.012 13.6404C175.698 13.3089 175.323 13.0734 174.887 12.9338C174.468 12.7768 173.988 12.6983 173.447 12.6983C172.645 12.6983 171.964 12.8466 171.406 13.1432C170.848 13.4398 170.42 13.8934 170.124 14.504C169.827 15.1147 169.644 15.8998 169.574 16.8593Z" fill="white"/>
<path d="M186.947 25.2076C185.813 25.2076 184.836 24.9547 184.016 24.4487C183.214 23.9427 182.586 23.1576 182.132 22.0934C181.696 21.0117 181.478 19.6159 181.478 17.9062C181.478 16.2836 181.705 14.9489 182.158 13.9021C182.612 12.8553 183.24 12.0789 184.043 11.573C184.845 11.067 185.778 10.814 186.843 10.814C187.453 10.814 188.02 10.8838 188.544 11.0234C189.067 11.163 189.53 11.381 189.931 11.6776C190.35 11.9742 190.716 12.3668 191.03 12.8553H191.187V5.97253H193.49V24.8936H191.632L191.423 22.9308H191.239C190.768 23.6985 190.158 24.2742 189.407 24.6581C188.657 25.0244 187.837 25.2076 186.947 25.2076ZM187.497 23.1925C188.369 23.1925 189.076 23.0006 189.617 22.6168C190.158 22.233 190.55 21.6747 190.794 20.9419C191.056 20.2091 191.187 19.3019 191.187 18.2202V17.8015C191.187 16.8593 191.091 16.0655 190.899 15.42C190.707 14.7744 190.445 14.2598 190.114 13.8759C189.783 13.4921 189.399 13.2217 188.963 13.0647C188.526 12.9076 188.064 12.8291 187.575 12.8291C186.721 12.8291 186.023 13.0036 185.482 13.3525C184.941 13.684 184.54 14.2162 184.278 14.9489C184.016 15.6642 183.885 16.5976 183.885 17.7491V18.2987C183.885 19.4851 184.025 20.4447 184.304 21.1774C184.583 21.8927 184.985 22.4074 185.508 22.7215C186.049 23.0355 186.712 23.1925 187.497 23.1925Z" fill="white"/>
<path d="M209.123 25.2076C208.198 25.2076 207.37 25.0244 206.637 24.6581C205.904 24.2742 205.302 23.6985 204.831 22.9308H204.648L204.413 24.8936H202.581V5.97253H204.884V12.8553H205.041C205.355 12.3668 205.721 11.9742 206.14 11.6776C206.559 11.381 207.03 11.163 207.553 11.0234C208.076 10.8838 208.635 10.814 209.228 10.814C210.292 10.814 211.226 11.067 212.028 11.573C212.831 12.0789 213.45 12.8553 213.886 13.9021C214.34 14.9489 214.567 16.2836 214.567 17.9062C214.567 19.6159 214.349 21.0117 213.912 22.0934C213.476 23.1576 212.857 23.9427 212.054 24.4487C211.252 24.9547 210.275 25.2076 209.123 25.2076ZM208.574 23.1925C209.359 23.1925 210.013 23.0355 210.536 22.7215C211.077 22.4074 211.487 21.8927 211.766 21.1774C212.046 20.4447 212.185 19.4851 212.185 18.2987V17.7491C212.185 16.5976 212.054 15.6642 211.793 14.9489C211.531 14.2162 211.13 13.684 210.589 13.3525C210.048 13.0036 209.35 12.8291 208.495 12.8291C208.007 12.8291 207.544 12.9076 207.108 13.0647C206.672 13.2217 206.279 13.4921 205.93 13.8759C205.599 14.2598 205.337 14.7744 205.145 15.42C204.971 16.0655 204.884 16.8593 204.884 17.8015V18.2202C204.884 19.3019 205.006 20.2091 205.25 20.9419C205.512 21.6747 205.913 22.233 206.454 22.6168C207.012 23.0006 207.719 23.1925 208.574 23.1925Z" fill="white"/>
<path d="M218.556 29.6566C218.137 29.6566 217.771 29.6217 217.457 29.5519C217.16 29.4996 216.959 29.4647 216.855 29.4472V27.7723H218.006C218.425 27.7723 218.835 27.6851 219.236 27.5106C219.637 27.3361 220.013 27.0396 220.361 26.6208C220.71 26.2021 221.007 25.6264 221.251 24.8936L215.913 11.1281H218.32L221.068 18.2202C221.19 18.5517 221.33 18.9617 221.487 19.4502C221.661 19.9213 221.827 20.4098 221.984 20.9157C222.158 21.4217 222.298 21.8666 222.403 22.2504H222.56C222.63 21.9713 222.717 21.6572 222.821 21.3083C222.926 20.9593 223.031 20.6017 223.135 20.2353C223.258 19.8515 223.371 19.4938 223.476 19.1623C223.598 18.8134 223.694 18.5081 223.764 18.2464L226.093 11.1281H228.422L223.764 24.501C223.502 25.2513 223.214 25.9404 222.9 26.5685C222.586 27.214 222.237 27.7636 221.853 28.2172C221.469 28.6708 221.007 29.0198 220.466 29.264C219.925 29.5257 219.288 29.6566 218.556 29.6566Z" fill="white"/>
<path d="M462.426 25.0638V6.89481H472.066C473.073 6.89481 473.956 7.08021 474.715 7.45101C475.474 7.80414 476.066 8.31619 476.489 8.98716C476.931 9.65812 477.152 10.4439 477.152 11.3444C477.152 12.033 477.019 12.6598 476.754 13.2248C476.507 13.7898 476.154 14.2666 475.695 14.655C475.253 15.0435 474.75 15.3348 474.185 15.529V15.635C474.838 15.7762 475.421 16.0411 475.933 16.4295C476.463 16.8003 476.878 17.2947 477.178 17.9127C477.496 18.5131 477.655 19.237 477.655 20.0845C477.655 21.2322 477.399 22.1769 476.887 22.9184C476.392 23.66 475.73 24.2074 474.9 24.5605C474.07 24.896 473.126 25.0638 472.066 25.0638H462.426ZM465.392 22.5212H471.828C472.64 22.5212 473.302 22.3093 473.814 21.8855C474.344 21.4441 474.609 20.7378 474.609 19.7667C474.609 19.184 474.494 18.6896 474.265 18.2835C474.053 17.8597 473.726 17.5419 473.285 17.33C472.843 17.1005 472.287 16.9857 471.616 16.9857H465.392V22.5212ZM465.392 14.4961H471.378C471.943 14.4961 472.428 14.3902 472.834 14.1783C473.241 13.9664 473.55 13.6662 473.761 13.2778C473.991 12.8893 474.106 12.4567 474.106 11.98C474.106 11.1148 473.867 10.4792 473.391 10.0731C472.932 9.64929 472.322 9.43741 471.563 9.43741H465.392V14.4961Z" fill="white"/>
<path d="M481.181 25.0638V11.1325H483.459L483.697 13.3837H483.856C484.015 12.9423 484.218 12.5274 484.465 12.1389C484.73 11.7505 485.066 11.4326 485.472 11.1854C485.896 10.9382 486.408 10.8146 487.008 10.8146C487.291 10.8146 487.538 10.8411 487.75 10.8941C487.979 10.9471 488.156 10.9912 488.279 11.0265V13.6221H487.352C486.787 13.6221 486.284 13.7104 485.843 13.8869C485.419 14.0635 485.057 14.3284 484.757 14.6815C484.474 15.017 484.262 15.4319 484.121 15.9263C483.997 16.4207 483.936 16.9769 483.936 17.5949V25.0638H481.181Z" fill="white"/>
<path d="M496.541 25.3816C495.093 25.3816 493.866 25.1256 492.86 24.6135C491.871 24.0838 491.12 23.2804 490.608 22.2033C490.114 21.1263 489.867 19.7579 489.867 18.0981C489.867 16.4207 490.114 15.0523 490.608 13.9929C491.12 12.9158 491.871 12.1213 492.86 11.6092C493.866 11.0795 495.093 10.8146 496.541 10.8146C498.024 10.8146 499.26 11.0795 500.249 11.6092C501.238 12.1213 501.979 12.9158 502.474 13.9929C502.986 15.0523 503.242 16.4207 503.242 18.0981C503.242 19.7579 502.986 21.1263 502.474 22.2033C501.979 23.2804 501.238 24.0838 500.249 24.6135C499.26 25.1256 498.024 25.3816 496.541 25.3816ZM496.541 23.1038C497.424 23.1038 498.148 22.9361 498.713 22.6006C499.278 22.2475 499.693 21.7178 499.958 21.0115C500.24 20.3052 500.381 19.4136 500.381 18.3365V17.8597C500.381 16.7827 500.24 15.891 499.958 15.1847C499.693 14.4785 499.278 13.9576 498.713 13.6221C498.148 13.269 497.424 13.0924 496.541 13.0924C495.676 13.0924 494.961 13.269 494.396 13.6221C493.831 13.9576 493.407 14.4785 493.124 15.1847C492.86 15.891 492.727 16.7827 492.727 17.8597V18.3365C492.727 19.4136 492.86 20.3052 493.124 21.0115C493.407 21.7178 493.831 22.2475 494.396 22.6006C494.961 22.9361 495.676 23.1038 496.541 23.1038Z" fill="white"/>
<path d="M510.949 25.3816C509.607 25.3816 508.521 25.0284 507.692 24.3222C506.862 23.5982 506.447 22.3711 506.447 20.6407V11.1325H509.201V20.2169C509.201 20.7467 509.263 21.1881 509.387 21.5412C509.528 21.8943 509.722 22.1769 509.969 22.3887C510.217 22.6006 510.508 22.7507 510.843 22.839C511.179 22.9273 511.55 22.9714 511.956 22.9714C512.591 22.9714 513.165 22.8213 513.677 22.5212C514.207 22.2033 514.631 21.7708 514.949 21.2234C515.266 20.6584 515.425 20.0139 515.425 19.29V11.1325H518.18V25.0638H515.929L515.69 23.0774H515.505C515.169 23.5894 514.772 24.0132 514.313 24.3487C513.854 24.6841 513.342 24.9402 512.777 25.1167C512.229 25.2933 511.62 25.3816 510.949 25.3816Z" fill="white"/>
<path d="M524.596 29.8841C523.961 29.8841 523.36 29.7517 522.795 29.4868C522.248 29.222 521.806 28.8423 521.471 28.3479C521.136 27.8536 520.968 27.2532 520.968 26.5469C520.968 25.77 521.18 25.1432 521.603 24.6665C522.045 24.1721 522.557 23.8013 523.14 23.5541C522.716 23.3599 522.372 23.0774 522.107 22.7066C521.859 22.3358 521.736 21.912 521.736 21.4353C521.736 20.782 521.974 20.2523 522.451 19.8461C522.928 19.44 523.484 19.1752 524.12 19.0516C523.502 18.6455 523.016 18.1334 522.663 17.5154C522.327 16.8974 522.16 16.2 522.16 15.4231C522.16 14.4873 522.38 13.6839 522.822 13.0129C523.263 12.3243 523.916 11.7858 524.782 11.3973C525.665 11.0089 526.733 10.8146 527.986 10.8146C528.534 10.8146 529.046 10.8588 529.523 10.9471C530.017 11.0177 530.458 11.1236 530.847 11.2649C531.465 10.9471 531.906 10.5674 532.171 10.126C532.436 9.66695 532.595 9.24318 532.648 8.85473H535.349C535.349 9.43741 535.226 9.96711 534.979 10.4439C534.749 10.9029 534.422 11.2914 533.999 11.6092C533.592 11.9094 533.098 12.1213 532.515 12.2449C532.957 12.651 533.283 13.1277 533.495 13.6751C533.725 14.2048 533.84 14.7874 533.84 15.4231C533.84 16.3413 533.628 17.1446 533.204 17.8333C532.78 18.5219 532.136 19.0604 531.271 19.4489C530.423 19.8373 529.372 20.0315 528.119 20.0315H525.947C525.523 20.0315 525.179 20.1198 524.914 20.2964C524.667 20.473 524.543 20.7378 524.543 21.091C524.543 21.3911 524.667 21.6383 524.914 21.8325C525.161 22.0268 525.488 22.1239 525.894 22.1239H531.774C532.798 22.1239 533.645 22.4682 534.316 23.1568C534.987 23.8278 535.323 24.693 535.323 25.7524C535.323 26.5293 535.12 27.2267 534.714 27.8447C534.325 28.4804 533.769 28.9748 533.045 29.3279C532.339 29.6987 531.518 29.8841 530.582 29.8841H524.596ZM525.497 27.8447H530.555C530.926 27.8447 531.262 27.7741 531.562 27.6328C531.862 27.4916 532.1 27.2885 532.277 27.0237C532.454 26.7765 532.542 26.494 532.542 26.1761C532.542 25.6464 532.374 25.2315 532.039 24.9313C531.721 24.6312 531.324 24.4811 530.847 24.4811H525.497C525.002 24.4811 524.587 24.6488 524.252 24.9843C523.916 25.3021 523.749 25.6994 523.749 26.1761C523.749 26.6705 523.908 27.0678 524.225 27.368C524.561 27.6858 524.985 27.8447 525.497 27.8447ZM528.013 18.0451C529.055 18.0451 529.832 17.8156 530.344 17.3565C530.856 16.8798 531.112 16.2353 531.112 15.4231C531.112 14.5932 530.856 13.9576 530.344 13.5162C529.832 13.0571 529.055 12.8275 528.013 12.8275C526.971 12.8275 526.194 13.0571 525.682 13.5162C525.17 13.9576 524.914 14.5932 524.914 15.4231C524.914 15.9528 525.02 16.4207 525.232 16.8268C525.461 17.2153 525.806 17.5154 526.265 17.7273C526.742 17.9392 527.324 18.0451 528.013 18.0451Z" fill="white"/>
<path d="M537.978 25.0638V5.91486H540.732V12.801H540.918C541.253 12.3773 541.633 12.0241 542.057 11.7416C542.48 11.4415 542.957 11.2119 543.487 11.053C544.016 10.8941 544.599 10.8146 545.235 10.8146C546.118 10.8146 546.895 10.9736 547.565 11.2914C548.236 11.5915 548.757 12.0859 549.128 12.7746C549.517 13.4632 549.711 14.3902 549.711 15.5555V25.0638H546.956V15.9793C546.956 15.4496 546.886 15.0082 546.744 14.655C546.621 14.3019 546.435 14.0194 546.188 13.8075C545.941 13.5956 545.65 13.4455 545.314 13.3572C544.979 13.269 544.608 13.2248 544.202 13.2248C543.566 13.2248 542.984 13.3749 542.454 13.6751C541.942 13.9752 541.527 14.399 541.209 14.9464C540.891 15.4937 540.732 16.147 540.732 16.9063V25.0638H537.978Z" fill="white"/>
<path d="M557.16 25.3816C556.365 25.3816 555.738 25.2315 555.279 24.9313C554.838 24.6135 554.52 24.2162 554.326 23.7395C554.149 23.2451 554.061 22.7242 554.061 22.1769V13.4102H552.313V11.1325H554.114L554.617 7.23912H556.815V11.1325H559.331V13.4102H556.815V21.859C556.815 22.2651 556.904 22.5741 557.08 22.786C557.257 22.9979 557.548 23.1038 557.954 23.1038H559.331V24.9578C559.155 25.0284 558.934 25.0902 558.669 25.1432C558.422 25.2138 558.166 25.2668 557.901 25.3021C557.636 25.3551 557.389 25.3816 557.16 25.3816Z" fill="white"/>
<path d="M571.72 25.3816C570.926 25.3816 570.299 25.2315 569.84 24.9313C569.398 24.6135 569.081 24.2162 568.886 23.7395C568.71 23.2451 568.622 22.7242 568.622 22.1769V13.4102H566.874V11.1325H568.675L569.178 7.23912H571.376V11.1325H573.892V13.4102H571.376V21.859C571.376 22.2651 571.464 22.5741 571.641 22.786C571.817 22.9979 572.109 23.1038 572.515 23.1038H573.892V24.9578C573.716 25.0284 573.495 25.0902 573.23 25.1432C572.983 25.2138 572.727 25.2668 572.462 25.3021C572.197 25.3551 571.95 25.3816 571.72 25.3816Z" fill="white"/>
<path d="M582.783 25.3816C581.335 25.3816 580.108 25.1256 579.101 24.6135C578.113 24.0838 577.362 23.2804 576.85 22.2033C576.356 21.1263 576.109 19.7579 576.109 18.0981C576.109 16.4207 576.356 15.0523 576.85 13.9929C577.362 12.9158 578.113 12.1213 579.101 11.6092C580.108 11.0795 581.335 10.8146 582.783 10.8146C584.266 10.8146 585.502 11.0795 586.491 11.6092C587.48 12.1213 588.221 12.9158 588.716 13.9929C589.228 15.0523 589.484 16.4207 589.484 18.0981C589.484 19.7579 589.228 21.1263 588.716 22.2033C588.221 23.2804 587.48 24.0838 586.491 24.6135C585.502 25.1256 584.266 25.3816 582.783 25.3816ZM582.783 23.1038C583.666 23.1038 584.39 22.9361 584.955 22.6006C585.52 22.2475 585.935 21.7178 586.2 21.0115C586.482 20.3052 586.623 19.4136 586.623 18.3365V17.8597C586.623 16.7827 586.482 15.891 586.2 15.1847C585.935 14.4785 585.52 13.9576 584.955 13.6221C584.39 13.269 583.666 13.0924 582.783 13.0924C581.918 13.0924 581.203 13.269 580.638 13.6221C580.073 13.9576 579.649 14.4785 579.366 15.1847C579.101 15.891 578.969 16.7827 578.969 17.8597V18.3365C578.969 19.4136 579.101 20.3052 579.366 21.0115C579.649 21.7178 580.073 22.2475 580.638 22.6006C581.203 22.9361 581.918 23.1038 582.783 23.1038Z" fill="white"/>
<path d="M600.292 29.8841C599.762 29.8841 599.321 29.84 598.968 29.7517C598.615 29.681 598.394 29.6369 598.306 29.6192V27.6328H599.63C600.018 27.6328 600.407 27.5446 600.795 27.368C601.201 27.1914 601.563 26.9089 601.881 26.5205C602.199 26.132 602.464 25.6464 602.676 25.0638L597.246 11.1325H600.133L602.835 18.0716C602.958 18.3895 603.091 18.7867 603.232 19.2635C603.391 19.7402 603.541 20.2258 603.682 20.7202C603.841 21.2146 603.973 21.656 604.079 22.0444H604.212C604.3 21.7796 604.388 21.4794 604.477 21.1439C604.583 20.7908 604.689 20.4288 604.795 20.058C604.9 19.6872 605.006 19.3341 605.112 18.9986C605.218 18.6455 605.307 18.3453 605.377 18.0981L607.628 11.1325H610.436L605.722 24.5341C605.457 25.2756 605.165 25.9731 604.847 26.6264C604.53 27.2797 604.159 27.8447 603.735 28.3215C603.329 28.8159 602.843 29.1955 602.278 29.4603C601.713 29.7428 601.051 29.8841 600.292 29.8841Z" fill="white"/>
<path d="M618.85 25.3816C617.402 25.3816 616.175 25.1256 615.168 24.6135C614.179 24.0838 613.429 23.2804 612.917 22.2033C612.422 21.1263 612.175 19.7579 612.175 18.0981C612.175 16.4207 612.422 15.0523 612.917 13.9929C613.429 12.9158 614.179 12.1213 615.168 11.6092C616.175 11.0795 617.402 10.8146 618.85 10.8146C620.333 10.8146 621.569 11.0795 622.557 11.6092C623.546 12.1213 624.288 12.9158 624.782 13.9929C625.294 15.0523 625.55 16.4207 625.55 18.0981C625.55 19.7579 625.294 21.1263 624.782 22.2033C624.288 23.2804 623.546 24.0838 622.557 24.6135C621.569 25.1256 620.333 25.3816 618.85 25.3816ZM618.85 23.1038C619.732 23.1038 620.456 22.9361 621.021 22.6006C621.586 22.2475 622.001 21.7178 622.266 21.0115C622.549 20.3052 622.69 19.4136 622.69 18.3365V17.8597C622.69 16.7827 622.549 15.891 622.266 15.1847C622.001 14.4785 621.586 13.9576 621.021 13.6221C620.456 13.269 619.732 13.0924 618.85 13.0924C617.984 13.0924 617.269 13.269 616.704 13.6221C616.139 13.9576 615.715 14.4785 615.433 15.1847C615.168 15.891 615.036 16.7827 615.036 17.8597V18.3365C615.036 19.4136 615.168 20.3052 615.433 21.0115C615.715 21.7178 616.139 22.2475 616.704 22.6006C617.269 22.9361 617.984 23.1038 618.85 23.1038Z" fill="white"/>
<path d="M633.258 25.3816C631.916 25.3816 630.83 25.0284 630 24.3222C629.17 23.5982 628.755 22.3711 628.755 20.6407V11.1325H631.51V20.2169C631.51 20.7467 631.572 21.1881 631.695 21.5412C631.836 21.8943 632.031 22.1769 632.278 22.3887C632.525 22.6006 632.816 22.7507 633.152 22.839C633.487 22.9273 633.858 22.9714 634.264 22.9714C634.9 22.9714 635.474 22.8213 635.986 22.5212C636.515 22.2033 636.939 21.7708 637.257 21.2234C637.575 20.6584 637.734 20.0139 637.734 19.29V11.1325H640.488V25.0638H638.237L637.999 23.0774H637.813C637.478 23.5894 637.081 24.0132 636.621 24.3487C636.162 24.6841 635.65 24.9402 635.085 25.1167C634.538 25.2933 633.929 25.3816 633.258 25.3816Z" fill="white"/>
<path d="M657.527 25.3816C656.609 25.3816 655.779 25.1962 655.038 24.8254C654.296 24.4546 653.687 23.8984 653.21 23.1568H653.025L652.787 25.0638H650.535V5.91486H653.29V12.8275H653.449C653.749 12.3685 654.102 11.9888 654.508 11.6887C654.932 11.3885 655.409 11.1678 655.938 11.0265C656.468 10.8853 657.042 10.8146 657.66 10.8146C658.719 10.8146 659.655 11.0707 660.467 11.5827C661.28 12.0948 661.906 12.8805 662.348 13.9399C662.807 14.9993 663.036 16.3677 663.036 18.0451C663.036 19.7579 662.816 21.1528 662.374 22.2298C661.933 23.3069 661.297 24.1015 660.467 24.6135C659.655 25.1256 658.675 25.3816 657.527 25.3816ZM656.759 22.9979C657.554 22.9979 658.198 22.839 658.693 22.5212C659.205 22.2033 659.584 21.709 659.832 21.038C660.079 20.3494 660.202 19.4577 660.202 18.363V17.8862C660.202 16.7915 660.079 15.8998 659.832 15.2112C659.602 14.5226 659.231 14.0194 658.719 13.7015C658.207 13.3661 657.536 13.1983 656.706 13.1983C656.194 13.1983 655.726 13.2866 655.303 13.4632C654.879 13.6397 654.517 13.9223 654.217 14.3107C653.917 14.6815 653.687 15.1671 653.528 15.7674C653.369 16.3677 653.29 17.0917 653.29 17.9392V18.31C653.29 19.3164 653.405 20.1728 653.634 20.8791C653.881 21.5677 654.261 22.0974 654.773 22.4682C655.285 22.8213 655.947 22.9979 656.759 22.9979Z" fill="white"/>
<path d="M667.887 29.8841C667.357 29.8841 666.915 29.84 666.562 29.7517C666.209 29.681 665.988 29.6369 665.9 29.6192V27.6328H667.224C667.613 27.6328 668.001 27.5446 668.39 27.368C668.796 27.1914 669.158 26.9089 669.476 26.5205C669.793 26.132 670.058 25.6464 670.27 25.0638L664.841 11.1325H667.728L670.429 18.0716C670.553 18.3895 670.685 18.7867 670.826 19.2635C670.985 19.7402 671.135 20.2258 671.277 20.7202C671.436 21.2146 671.568 21.656 671.674 22.0444H671.806C671.895 21.7796 671.983 21.4794 672.071 21.1439C672.177 20.7908 672.283 20.4288 672.389 20.058C672.495 19.6872 672.601 19.3341 672.707 18.9986C672.813 18.6455 672.901 18.3453 672.972 18.0981L675.223 11.1325H678.03L673.316 24.5341C673.051 25.2756 672.76 25.9731 672.442 26.6264C672.124 27.2797 671.753 27.8447 671.33 28.3215C670.924 28.8159 670.438 29.1955 669.873 29.4603C669.308 29.7428 668.646 29.8841 667.887 29.8841Z" fill="white"/>
<g clip-path="url(#clip1_238_411)">
<path d="M595.906 56.9816L578.551 96.655L573.594 62.1793C572.963 57.4948 580.931 54.6065 580.931 54.6065C580.201 52.988 577.683 53.0143 577.683 53.0143H572.292C571.438 44.5401 579.123 38.3621 587.432 40.2438C595.597 42.0663 598.562 50.9484 595.906 56.9751V56.9816Z" fill="#6E55DC"/>
<path d="M563.667 109.491L529.837 86.9307C521.225 81.1738 512.712 87.0426 510.904 93.1022C508.241 102.043 514.204 109.491 523.565 109.491H563.667Z" fill="#FCCC12"/>
<path d="M568.105 53.5736C569.36 44.8165 561.518 38.3293 553.03 40.257C544.865 42.0795 541.901 50.9616 544.556 56.9883L561.912 96.6617L568.111 53.5736H568.105Z" fill="#EF1541"/>
<path d="M560.518 103.169L543.866 65.1795C539.968 56.3697 529.64 55.2776 523.933 60.4423C519.917 64.0873 516.801 73.9958 525.781 80.0027L560.518 103.175V103.169Z" fill="#FF7112"/>
<path d="M616.891 109.491C626.252 109.491 632.208 102.043 629.552 93.1022C627.745 87.0426 619.231 81.1738 610.619 86.9307L576.789 109.491H616.891Z" fill="#05AC3F"/>
<path d="M614.675 79.9961C623.656 73.9958 620.539 64.0807 616.523 60.4358C610.816 55.271 600.489 56.3631 596.59 65.1729L579.938 103.162L614.675 79.9895V79.9961Z" fill="#069DE0"/>
<path d="M536.188 117.847H543.971L559.999 139.329V117.847H567.296V151.066H559.512L543.485 129.532V151.066H536.188V117.847Z" fill="white"/>
<path d="M604.433 140.605C604.433 149.645 597.202 151.06 592.679 151.06H573.384V117.841H592.659C598.569 117.841 603.296 121.203 603.296 127.492C603.296 130.604 601.1 132.328 599.437 133.177C602.178 134.552 604.433 136.592 604.433 140.605ZM580.431 124.078V130.361H591.811C593.691 130.361 595.749 129.578 595.749 127.242C595.749 124.907 594.138 124.078 591.541 124.078H580.431ZM596.932 140.605C596.932 137.421 594.276 136.592 591.693 136.592H580.431V144.526H591.962C594.066 144.526 596.932 143.796 596.932 140.605Z" fill="white"/>
<path d="M636.639 140.276L636.449 140.059L636.205 139.769C632.925 142.572 630.841 144.151 626.108 144.151H625.91C619.402 144.151 615.372 139.092 615.372 134.407C615.372 129.032 620.119 124.663 625.95 124.663C630.65 124.703 633.135 127.229 634.325 128.446L634.509 128.637L634.641 128.506L634.661 128.486L634.772 128.374L634.976 128.17L639.986 123.157C639.368 122.538 634.687 116.959 625.989 116.959C615.964 116.959 607.641 124.578 607.595 134.374C607.595 143.888 615.583 151.882 625.891 151.928C633.648 151.928 637.573 148.757 641.208 145.632L636.62 140.283L636.639 140.276Z" fill="white"/>
<path d="M528.259 140.276L528.069 140.059L527.825 139.769C524.545 142.572 522.461 144.151 517.728 144.151H517.53C511.022 144.151 506.992 139.092 506.992 134.407C506.992 129.032 511.739 124.663 517.57 124.663C522.27 124.703 524.755 127.229 525.945 128.446L526.129 128.637L526.261 128.506L526.28 128.486L526.392 128.374L526.596 128.17L531.605 123.157C530.987 122.538 526.307 116.959 517.609 116.959C507.584 116.959 499.261 124.578 499.215 134.374C499.215 143.888 507.202 151.882 517.511 151.928C525.268 151.928 529.193 148.757 532.828 145.632L528.24 140.283L528.259 140.276Z" fill="white"/>
</g>
<defs>
<clipPath id="clip0_238_411">
<rect width="360" height="111.484" fill="white" transform="translate(0 39.8964)"/>
</clipPath>
<clipPath id="clip1_238_411">
<rect width="142" height="112" fill="white" transform="translate(499.228 39.9149)"/>
</clipPath>
</defs>
</svg>
