<svg width="1920" height="960" viewBox="0 0 1920 960" fill="none" xmlns="http://www.w3.org/2000/svg">
<path fill-rule="evenodd" clip-rule="evenodd" d="M960.259 506.036C929.032 506.03 898.774 495.191 874.646 475.367C850.518 455.544 834.015 427.963 827.951 397.33C821.888 366.697 826.64 334.91 841.397 307.389C856.153 279.869 880.001 258.32 908.871 246.419C937.742 234.518 969.847 233.002 999.71 242.129C1029.57 251.256 1055.35 270.461 1072.63 296.468C1089.92 322.475 1097.64 353.673 1094.49 384.741C1091.34 415.809 1077.51 444.822 1055.36 466.832C1030.06 491.915 995.886 506.003 960.259 506.036Z" fill="#0090FF"/>
<path fill-rule="evenodd" clip-rule="evenodd" d="M972.621 355.581L1007.79 360.527C1008.76 356.976 1009.63 353.912 1010.6 350.446L974.185 345.035C978.285 330.242 982.047 315.892 986.464 301.943C988.264 297.248 991.053 292.995 994.643 289.474C995.58 288.414 996.759 287.593 998.079 287.082C999.399 286.571 1000.82 286.384 1002.23 286.536C1003.64 286.68 1004.99 287.158 1006.18 287.931C1007.37 288.692 1008.36 289.729 1009.06 290.953C1010.56 293.19 1012.22 295.31 1014.04 297.294C1015.03 298.533 1016.46 299.347 1018.03 299.567C1019.61 299.787 1021.2 299.397 1022.5 298.477C1024.08 296.955 1024.04 293.447 1024.17 290.784C1024.17 289.728 1022.98 288.46 1022.05 287.487C1020.05 285.357 1017.64 283.659 1014.95 282.499C1012.27 281.34 1009.38 280.743 1006.46 280.746C992.952 280.154 983.209 287.086 975.706 297.463C968.204 307.839 964.865 319.865 961.272 331.827C960.215 335.356 959.306 338.864 958.292 342.711L919.617 337.11C919.173 340.618 918.708 343.894 918.264 347.402L956.031 353.214C954.361 360.379 952.776 367.078 951.128 373.904L915.031 368.875C914.545 372.721 914.185 375.616 913.72 379.019L948.824 384.324C948.909 385.252 948.909 386.185 948.824 387.113C945.147 402.837 941.723 418.814 937.538 434.327C935.92 442.066 931.905 449.098 926.063 454.425C925.083 455.454 923.873 456.236 922.533 456.708C920.513 457.432 918.302 457.425 916.286 456.687C914.27 455.95 912.577 454.528 911.501 452.671C910.046 450.084 908.216 447.726 906.07 445.676C904.4 444.45 900.681 443.731 899.455 444.704C898.494 445.622 897.732 446.729 897.216 447.954C896.7 449.179 896.44 450.496 896.454 451.826C897.001 454.289 898.468 456.451 900.554 457.87C903.554 460.074 907.006 461.584 910.662 462.289C914.317 462.995 918.083 462.878 921.688 461.949C927.573 460.797 933.095 458.247 937.788 454.513C942.482 450.78 946.209 445.973 948.655 440.498C952.827 431.603 956.359 422.422 959.222 413.024C962.012 404.57 963.892 395.884 966.217 387.029L1003.01 392.376C1004.03 388.867 1004.93 385.634 1005.91 382.189L968.183 376.631C969.768 369.192 971.141 362.703 972.621 355.581Z" fill="white"/>
<mask id="mask0_4066_40838" style="mask-type:alpha" maskUnits="userSpaceOnUse" x="624" y="254" width="208" height="234">
<path fill-rule="evenodd" clip-rule="evenodd" d="M822.864 427.522C814.215 406.656 810.456 384.088 811.873 361.545C813.291 339.002 819.848 317.082 831.043 297.464C816.21 279.277 796.22 266.006 773.702 259.396C751.184 252.787 727.192 253.148 704.883 260.433C682.575 267.718 662.993 281.585 648.715 300.21C634.437 318.835 626.131 341.346 624.89 364.781C623.649 388.216 629.531 411.478 641.762 431.507C653.993 451.536 672 467.394 693.414 476.994C714.829 486.595 738.648 489.488 761.739 485.294C784.829 481.1 806.109 470.014 822.779 453.496C825.714 450.571 828.486 447.488 831.085 444.261C828 438.857 825.254 433.267 822.864 427.522V427.522Z" fill="white"/>
</mask>
<g mask="url(#mask0_4066_40838)">
<mask id="mask1_4066_40838" style="mask-type:alpha" maskUnits="userSpaceOnUse" x="624" y="254" width="208" height="233">
<path fill-rule="evenodd" clip-rule="evenodd" d="M822.864 427.342C814.215 406.476 810.456 383.908 811.873 361.365C813.291 338.822 819.848 316.902 831.043 297.283C816.21 279.097 796.22 265.826 773.702 259.216C751.184 252.607 727.192 252.968 704.884 260.253C682.575 267.538 662.993 281.405 648.715 300.03C634.437 318.655 626.131 341.166 624.89 364.601C623.649 388.036 629.531 411.298 641.762 431.327C653.993 451.356 672 467.214 693.415 476.814C714.829 486.415 738.648 489.308 761.739 485.114C784.829 480.92 806.109 469.834 822.779 453.316C825.714 450.391 828.486 447.308 831.085 444.081C828 438.677 825.254 433.087 822.864 427.342V427.342Z" fill="white"/>
</mask>
<g mask="url(#mask1_4066_40838)">
</g>
<g clip-path="url(#clip0_4066_40838)">
<path d="M741.179 486.985C805.468 486.985 857.585 434.869 857.585 370.58C857.585 306.29 805.468 254.174 741.179 254.174C676.89 254.174 624.773 306.29 624.773 370.58C624.773 434.869 676.89 486.985 741.179 486.985Z" fill="#008F79"/>
<g clip-path="url(#clip1_4066_40838)">
<path d="M737.673 415.492C737.658 417.582 736.843 419.251 734.795 419.251C732.631 419.25 730.18 415.038 724.106 412.144C718.676 409.557 713.358 408.394 708.542 408.386C702.592 408.375 692.556 411.257 683.053 411.381C674.089 411.498 665.981 407.227 660.852 401.631C657.024 397.455 654.365 390.833 654.392 384.834C654.426 377.272 657.354 369.856 664.024 364.278C668.879 360.218 674.488 358.543 680.997 358.523C690.748 358.492 700.562 363.508 706.781 368.448C715.902 375.695 724.286 385.326 730.097 395.758C733.405 401.697 737.701 411.618 737.674 415.492L737.673 415.492Z" fill="white"/>
<path d="M745.719 415.492C745.733 417.582 746.549 419.251 748.597 419.251C750.761 419.25 753.212 415.038 759.286 412.144C764.716 409.557 770.034 408.394 774.85 408.386C780.8 408.375 790.836 411.257 800.339 411.381C809.303 411.498 817.411 407.227 822.54 401.631C826.368 397.455 829.027 390.833 829 384.834C828.966 377.272 826.038 369.856 819.368 364.278C814.513 360.218 808.904 358.543 802.395 358.523C792.644 358.492 782.83 363.508 776.611 368.448C767.49 375.695 759.106 385.326 753.295 395.758C749.987 401.697 745.691 411.618 745.718 415.492L745.719 415.492Z" fill="white"/>
<path opacity="0.99" d="M758.698 313.534C766.585 313.488 772.116 316.561 776.694 321.051C781.628 325.891 784.033 332.24 784.07 339.434C784.105 346.374 781.7 351.339 778.994 355.081C774.574 361.196 769.497 365.134 764.291 369.916C755.865 377.658 750.635 384.553 746.246 393.174C745.164 395.301 744.234 398.471 741.693 398.471C739.153 398.471 738.223 395.301 737.141 393.174C732.752 384.553 727.522 377.658 719.096 369.916C713.89 365.134 708.813 361.196 704.393 355.081C701.687 351.339 699.282 346.374 699.317 339.434C699.354 332.24 701.759 325.891 706.693 321.051C711.271 316.561 716.802 313.488 724.689 313.534C732.83 313.581 738 316.393 741.693 321.11C745.387 316.393 750.557 313.58 758.698 313.534Z" fill="white"/>
<path d="M748.072 324.282C750.783 322.285 754.278 320.997 757.645 321.052C762.494 321.13 767.054 322.697 770.331 325.868C773.97 329.39 776.414 334.079 776.263 339.905C776.054 347.921 771.716 352.185 765.691 358.347C761.578 362.553 757.673 364.734 751.713 371.385C749.377 373.991 744.678 380.649 741.698 386.892C738.718 380.649 734.019 373.991 731.683 371.385C725.723 364.734 721.818 362.553 717.705 358.347C711.68 352.185 707.342 347.921 707.133 339.905C706.982 334.079 709.426 329.39 713.065 325.868C716.342 322.697 720.901 321.13 725.751 321.052C729.118 320.997 732.613 322.285 735.324 324.282C738.073 326.307 739.996 328.871 741.698 332.27C743.4 328.871 745.322 326.307 748.072 324.282Z" fill="white"/>
</g>
<g clip-path="url(#clip2_4066_40838)">
<path d="M741.006 486.813C805.2 486.813 857.24 434.774 857.24 370.58C857.24 306.386 805.2 254.346 741.006 254.346C676.812 254.346 624.773 306.386 624.773 370.58C624.773 434.774 676.812 486.813 741.006 486.813Z" fill="#B8342E"/>
<path fill-rule="evenodd" clip-rule="evenodd" d="M722.256 374.076C722.256 369.258 723 365.035 723.995 361.282C713.696 362.232 705.846 361.911 694.322 360.424V357.128C694.322 354.141 696.222 350.834 699.895 347.16C700.25 346.806 700.444 346.314 700.444 345.821V339.23C700.444 336.998 701.577 334.698 703.202 332.135C703.603 331.517 704.015 330.888 704.438 330.258C704.473 330.212 704.495 330.167 704.53 330.132C704.919 329.537 705.319 328.942 705.697 328.347C706.509 327.088 707.299 325.749 707.848 324.399C707.94 324.17 707.986 323.93 707.986 323.69V317.808H717.873V323.69C717.873 323.93 717.919 324.17 718.01 324.399C718.56 325.749 719.349 327.088 720.162 328.347C720.539 328.942 720.94 329.537 721.329 330.132L721.42 330.258C721.844 330.888 722.256 331.517 722.656 332.135C724.281 334.698 725.403 336.998 725.403 339.23V345.821C725.403 346.325 725.609 346.806 725.964 347.16C726.673 347.858 727.314 348.557 727.875 349.232C728.481 347.286 728.927 345.467 729.179 343.647V339.23C729.179 335.82 727.486 332.719 725.838 330.121C725.403 329.446 724.968 328.793 724.545 328.164L724.464 328.038C724.075 327.443 723.686 326.871 723.332 326.31C722.634 325.223 722.05 324.239 721.638 323.312V316.698L722.267 316.08C722.622 315.725 722.817 315.244 722.817 314.741C722.817 313.711 722.519 312.395 722.222 311.319C722.141 311.033 722.061 310.747 721.97 310.472C722.359 310.129 722.588 309.625 722.588 309.088C722.588 305.494 720.848 303.389 719.178 302.828C718.983 302.771 718.777 302.736 718.582 302.736H707.276C707.07 302.736 706.876 302.771 706.681 302.828C705.01 303.389 703.271 305.494 703.271 309.088C703.271 309.625 703.5 310.129 703.877 310.472C703.797 310.747 703.717 311.033 703.637 311.319C703.34 312.395 703.042 313.711 703.042 314.741C703.042 315.244 703.237 315.725 703.591 316.08L704.221 316.698V323.312C703.809 324.239 703.225 325.223 702.527 326.31C702.172 326.871 701.783 327.443 701.394 328.038C701.36 328.084 701.337 328.118 701.303 328.164C700.891 328.793 700.444 329.446 700.021 330.121C698.362 332.719 696.679 335.82 696.679 339.23V345.055C693.109 348.762 690.557 352.802 690.557 357.128V408.052C690.637 410.272 692.434 412.572 695.81 414.243C699.254 415.936 704.667 417.172 712.929 417.172C721.192 417.172 726.604 415.936 730.049 414.243C733.425 412.572 735.221 410.272 735.302 408.052V399.389C727.783 394.365 722.256 385.989 722.256 374.076ZM707.265 312.326C707.379 311.914 707.505 311.525 707.62 311.147C707.757 311.17 707.906 311.193 708.066 311.193C708.558 311.205 708.97 311.067 709.29 310.907C709.599 311.044 709.988 311.159 710.446 311.159C710.904 311.159 711.316 311.033 711.625 310.896C711.945 311.044 712.357 311.193 712.861 311.205C713.387 311.227 713.856 311.09 714.245 310.907C714.554 311.033 714.943 311.159 715.413 311.159C715.882 311.159 716.248 311.044 716.557 310.907C716.889 311.067 717.301 311.205 717.793 311.193C717.942 311.193 718.102 311.17 718.239 311.147C718.354 311.525 718.479 311.914 718.594 312.326C718.766 312.978 718.903 313.573 718.972 314.031H706.876C706.956 313.573 707.093 312.978 707.265 312.326ZM731.525 407.937C731.502 408.201 731.125 409.505 728.39 410.855C725.655 412.206 720.871 413.407 712.929 413.407C704.987 413.407 700.204 412.206 697.469 410.855C694.734 409.505 694.345 408.201 694.322 407.937V405.9C701.314 407.548 707.093 408.464 712.918 408.51C718.731 408.555 724.522 407.731 731.525 405.958V407.937Z" fill="white"/>
<path fill-rule="evenodd" clip-rule="evenodd" d="M779.602 326.348C779.359 325.559 778.629 325.02 777.802 325.02H731.289C730.462 325.02 729.732 325.559 729.488 326.348C729.245 327.138 729.544 327.994 730.227 328.46C730.227 328.46 730.245 328.473 730.281 328.504C730.316 328.535 730.362 328.58 730.419 328.641C730.534 328.764 730.678 328.941 730.842 329.183C731.17 329.666 731.555 330.379 731.923 331.365C732.658 333.335 733.308 336.359 733.308 340.729C733.308 344.741 732.356 348.36 731.098 352.189C730.793 353.116 730.469 354.058 730.138 355.019C728.253 360.494 726.152 366.597 726.152 374.395C726.152 389.822 736.445 398.553 747.761 401.14C748.041 401.411 748.267 401.698 748.464 402.054C748.74 402.553 749.004 403.269 749.215 404.399C749.621 406.577 749.779 409.994 749.666 415.729L748.474 416.41C747.887 416.746 747.525 417.37 747.525 418.045V418.455L746.566 418.693C745.126 419.051 743.202 419.542 741.275 420.066C739.356 420.589 737.4 421.155 735.909 421.664C735.174 421.916 734.492 422.172 733.972 422.423C733.722 422.543 733.426 422.7 733.165 422.898C733.036 422.995 732.848 423.153 732.677 423.377C732.514 423.591 732.247 424.022 732.247 424.625C732.247 424.977 732.272 425.817 732.973 426.713C733.602 427.516 734.62 428.165 736.093 428.696C739.017 429.748 744.494 430.593 754.929 430.593C765.365 430.593 770.841 429.748 773.766 428.696C775.239 428.165 776.256 427.516 776.885 426.713C777.587 425.817 777.611 424.977 777.611 424.625C777.611 424.022 777.344 423.591 777.182 423.377C777.011 423.153 776.822 422.995 776.693 422.898C776.433 422.7 776.137 422.543 775.887 422.423C775.366 422.172 774.685 421.916 773.949 421.664C772.459 421.155 770.503 420.589 768.584 420.066C766.656 419.542 764.733 419.051 763.293 418.693L762.334 418.455V418.045C762.334 417.37 761.972 416.746 761.385 416.41L760.193 415.729C760.085 410.004 760.287 406.575 760.732 404.387C761.118 402.488 761.659 401.645 762.308 401.033C774.06 397.883 783.295 387.165 783.295 374.386C783.295 366.587 781.184 360.485 779.292 355.011C778.96 354.052 778.635 353.112 778.329 352.186C777.065 348.358 776.108 344.739 776.108 340.728C776.108 336.332 776.685 333.289 777.352 331.306C777.685 330.314 778.036 329.605 778.335 329.129C778.485 328.891 778.615 328.721 778.716 328.607C778.812 328.498 778.865 328.459 778.865 328.459C779.548 327.994 779.846 327.138 779.602 326.348ZM757.04 403.636C757.172 402.987 757.326 402.405 757.503 401.876C756.735 401.942 755.96 401.975 755.179 401.975C754.276 401.975 753.368 401.938 752.46 401.864C752.642 402.424 752.793 403.036 752.918 403.708C753.411 406.35 753.41 412.095 753.409 416.41L753.409 416.882C753.409 421.24 750.963 421 750.963 421C750.706 421.377 750.312 421.658 749.843 421.769L749.676 421.809L749.196 421.926C748.781 422.026 748.188 422.171 747.477 422.348C746.052 422.703 744.156 423.187 742.265 423.702C740.471 424.189 738.716 424.701 737.369 425.151C739.644 425.97 744.567 426.826 754.929 426.826C765.292 426.826 770.219 425.968 772.495 425.148C771.147 424.699 769.387 424.189 767.594 423.702C765.702 423.187 763.807 422.703 762.382 422.348C761.67 422.171 761.077 422.026 760.663 421.926L760.182 421.809L760.015 421.769C759.546 421.658 759.153 421.377 758.895 421C758.895 421 756.45 421.285 756.45 416.882C756.45 412.478 756.477 406.407 757.04 403.636ZM774.283 328.787C774.106 329.198 773.938 329.637 773.781 330.105C772.957 332.554 772.341 336.016 772.341 340.728C772.341 344.39 773.038 347.711 773.974 350.893H735.45C736.382 347.71 737.076 344.39 737.076 340.729C737.076 335.992 736.371 332.51 735.452 330.048C735.285 329.599 735.109 329.179 734.925 328.787H774.283Z" fill="white"/>
<path fill-rule="evenodd" clip-rule="evenodd" d="M779.602 326.348C779.359 325.559 778.629 325.02 777.802 325.02H731.289C730.462 325.02 729.732 325.559 729.488 326.348C729.245 327.138 729.544 327.994 730.227 328.46C730.227 328.46 730.245 328.473 730.281 328.504C730.316 328.535 730.362 328.58 730.419 328.641C730.534 328.764 730.678 328.941 730.842 329.183C731.17 329.666 731.555 330.379 731.923 331.365C732.658 333.335 733.308 336.359 733.308 340.729C733.308 344.741 732.356 348.36 731.098 352.189C730.793 353.116 730.469 354.058 730.138 355.019C728.253 360.494 726.152 366.597 726.152 374.395C726.152 389.822 736.445 398.553 747.761 401.14C748.041 401.411 748.267 401.698 748.464 402.054C748.74 402.553 749.004 403.269 749.215 404.399C749.621 406.577 749.779 409.994 749.666 415.729L748.474 416.41C747.887 416.746 747.525 417.37 747.525 418.045V418.455L746.566 418.693C745.126 419.051 743.202 419.542 741.275 420.066C739.356 420.589 737.4 421.155 735.909 421.664C735.174 421.916 734.492 422.172 733.972 422.423C733.722 422.543 733.426 422.7 733.165 422.898C733.036 422.995 732.848 423.153 732.677 423.377C732.514 423.591 732.247 424.022 732.247 424.625C732.247 424.977 732.272 425.817 732.973 426.713C733.602 427.516 734.62 428.165 736.093 428.696C739.017 429.748 744.494 430.593 754.929 430.593C765.365 430.593 770.841 429.748 773.766 428.696C775.239 428.165 776.256 427.516 776.885 426.713C777.587 425.817 777.611 424.977 777.611 424.625C777.611 424.022 777.344 423.591 777.182 423.377C777.011 423.153 776.822 422.995 776.693 422.898C776.433 422.7 776.137 422.543 775.887 422.423C775.366 422.172 774.685 421.916 773.949 421.664C772.459 421.155 770.503 420.589 768.584 420.066C766.656 419.542 764.733 419.051 763.293 418.693L762.334 418.455V418.045C762.334 417.37 761.972 416.746 761.385 416.41L760.193 415.729C760.085 410.004 760.287 406.575 760.732 404.387C761.118 402.488 761.659 401.645 762.308 401.033C774.06 397.883 783.295 387.165 783.295 374.386C783.295 366.587 781.184 360.485 779.292 355.011C778.96 354.052 778.635 353.112 778.329 352.186C777.065 348.358 776.108 344.739 776.108 340.728C776.108 336.332 776.685 333.289 777.352 331.306C777.685 330.314 778.036 329.605 778.335 329.129C778.485 328.891 778.615 328.721 778.716 328.607C778.812 328.498 778.865 328.459 778.865 328.459C779.548 327.994 779.846 327.138 779.602 326.348ZM757.04 403.636C757.172 402.987 757.326 402.405 757.503 401.876C756.735 401.942 755.96 401.975 755.179 401.975C754.276 401.975 753.368 401.938 752.46 401.864C752.642 402.424 752.793 403.036 752.918 403.708C753.411 406.35 753.41 412.095 753.409 416.41L753.409 416.882C753.409 421.24 750.963 421 750.963 421C750.706 421.377 750.312 421.658 749.843 421.769L749.676 421.809L749.196 421.926C748.781 422.026 748.188 422.171 747.477 422.348C746.052 422.703 744.156 423.187 742.265 423.702C740.471 424.189 738.716 424.701 737.369 425.151C739.644 425.97 744.567 426.826 754.929 426.826C765.292 426.826 770.219 425.968 772.495 425.148C771.147 424.699 769.387 424.189 767.594 423.702C765.702 423.187 763.807 422.703 762.382 422.348C761.67 422.171 761.077 422.026 760.663 421.926L760.182 421.809L760.015 421.769C759.546 421.658 759.153 421.377 758.895 421C758.895 421 756.45 421.285 756.45 416.882C756.45 412.478 756.477 406.407 757.04 403.636ZM774.283 328.787C774.106 329.198 773.938 329.637 773.781 330.105C772.957 332.554 772.341 336.016 772.341 340.728C772.341 344.39 773.038 347.711 773.974 350.893H735.45C736.382 347.71 737.076 344.39 737.076 340.729C737.076 335.992 736.371 332.51 735.452 330.048C735.285 329.599 735.109 329.179 734.925 328.787H774.283Z" fill="white"/>
</g>
</g>
</g>
<mask id="mask2_4066_40838" style="mask-type:alpha" maskUnits="userSpaceOnUse" x="1088" y="254" width="208" height="233">
<path fill-rule="evenodd" clip-rule="evenodd" d="M1276.53 306.825C1267.05 292.405 1254.48 280.273 1239.73 271.306C1224.99 262.339 1208.43 256.762 1191.26 254.978C1174.1 253.194 1156.75 255.248 1140.48 260.991C1124.2 266.734 1109.41 276.023 1097.16 288.185C1094.22 291.116 1091.43 294.199 1088.81 297.421C1101.53 319.796 1108.22 345.092 1108.22 370.83C1108.22 396.568 1101.53 421.864 1088.81 444.239C1107.7 467.249 1134.68 482.152 1164.22 485.886C1193.75 489.619 1223.6 481.9 1247.61 464.314C1271.63 446.729 1288.01 420.612 1293.37 391.329C1298.73 362.047 1292.67 331.823 1276.44 306.868L1276.53 306.825Z" fill="white"/>
</mask>
<g mask="url(#mask2_4066_40838)">
<mask id="mask3_4066_40838" style="mask-type:alpha" maskUnits="userSpaceOnUse" x="1088" y="254" width="208" height="233">
<path fill-rule="evenodd" clip-rule="evenodd" d="M1276.53 306.645C1267.05 292.225 1254.48 280.093 1239.73 271.126C1224.99 262.159 1208.43 256.582 1191.26 254.798C1174.1 253.014 1156.75 255.068 1140.48 260.811C1124.2 266.554 1109.41 275.843 1097.16 288.005C1094.22 290.936 1091.43 294.018 1088.81 297.241C1101.53 319.616 1108.22 344.912 1108.22 370.65C1108.22 396.387 1101.53 421.684 1088.81 444.059C1107.7 467.069 1134.68 481.972 1164.22 485.706C1193.75 489.439 1223.6 481.72 1247.61 464.134C1271.63 446.548 1288.01 420.431 1293.37 391.149C1298.73 361.867 1292.67 331.643 1276.44 306.688L1276.53 306.645Z" fill="white"/>
</mask>
<g mask="url(#mask3_4066_40838)">
</g>
<g clip-path="url(#clip3_4066_40838)">
<path d="M1178.6 486.985C1242.89 486.985 1295.01 434.869 1295.01 370.58C1295.01 306.29 1242.89 254.174 1178.6 254.174C1114.31 254.174 1062.19 306.29 1062.19 370.58C1062.19 434.869 1114.31 486.985 1178.6 486.985Z" fill="#F5D90A"/>
<g clip-path="url(#clip4_4066_40838)">
<path d="M1219.86 302.119C1219.61 302.119 1219.35 302.125 1219.09 302.137C1215.77 302.232 1214.82 302.487 1211.78 304.049C1209 305.488 1207.18 307.157 1205.11 310.188C1203.23 312.94 1201.92 316.539 1201.54 319.913C1200.96 325.229 1200.03 329.994 1199.11 332.285C1198.55 333.688 1197.06 335.748 1196.19 336.304C1195.87 336.517 1195.62 336.772 1195.66 336.884C1195.75 337.151 1197.05 337.37 1197.87 337.251C1199.02 337.086 1200.8 336.322 1202.06 335.47C1202.99 334.842 1203.21 334.854 1203.06 335.541C1202.68 337.352 1202.59 338.175 1202.54 340.4C1202.48 343.301 1202.71 344.414 1203.83 346.663C1204.46 347.924 1205.75 349.653 1205.92 349.475C1205.96 349.434 1205.88 348.966 1205.75 348.427C1205.2 346.267 1205.12 345.142 1205.39 343.236C1205.87 339.814 1206.7 337.376 1208.58 333.996C1209 333.214 1209.56 332.161 1209.81 331.658C1210.07 331.155 1210.58 330.231 1210.94 329.604C1211.97 327.828 1212.05 328.1 1211.93 333.285C1211.88 335.653 1211.76 337.926 1211.67 338.341C1211.58 338.755 1211.55 339.128 1211.59 339.169C1211.71 339.288 1212.41 338.382 1213.15 337.145C1214.42 335.038 1215.69 331.936 1215.92 330.397C1215.99 329.941 1216.11 329.379 1216.2 329.154C1216.33 328.804 1216.37 325.655 1216.27 323.311C1216.25 322.743 1216.26 322.725 1216.83 322.773C1217.45 322.826 1219.97 322.364 1220.25 322.145C1220.35 322.074 1220.66 321.938 1220.96 321.837C1221.92 321.512 1224.18 319.748 1224.18 319.316C1224.18 319.215 1223.99 319.126 1223.76 319.126C1222.69 319.126 1221.3 318.037 1221.01 316.966C1220.91 316.61 1220.88 315.9 1220.94 315.397C1221.1 314.071 1222 313.088 1223.58 312.526C1226.47 311.49 1228.73 312.526 1230.15 315.539C1230.75 316.8 1230.78 316.96 1230.77 318.457C1230.74 321.748 1229.98 323.406 1226.27 328.26C1225.72 328.982 1225.04 329.905 1224.77 330.32C1224.49 330.734 1224.22 331.113 1224.17 331.154C1224.11 331.202 1223.59 331.954 1223 332.83C1222.41 333.7 1221.36 335.221 1220.67 336.204C1217.09 341.312 1215.99 343.929 1214.81 350.12C1214.43 352.121 1214.41 353.329 1214.74 355.187C1215.54 359.716 1217.87 363.486 1223.85 369.915C1226.57 372.833 1228.57 375.562 1229.67 377.847C1230.16 378.883 1230.23 379.179 1230.24 380.41C1230.25 381.949 1230.1 382.257 1228.98 383.169C1228.12 383.861 1227.14 383.926 1225.49 383.4C1223.43 382.742 1222.1 381.902 1220.42 380.203C1219.59 379.368 1218.63 378.273 1218.28 377.764C1217.34 376.379 1214.8 372.525 1214.26 371.626C1213.59 370.531 1213.17 369.862 1212.22 368.411C1211.77 367.719 1211.38 367.091 1211.34 367.008C1211.26 366.825 1208.46 362.486 1207.95 361.764C1206.92 360.307 1206.61 359.899 1205.08 357.958C1203.43 355.856 1199.15 351.393 1197.44 349.99C1195.49 348.386 1193.16 346.977 1189.2 345.018C1186.93 343.899 1185.09 342.898 1185.09 342.792C1185.09 342.673 1185.51 342.591 1186.24 342.567C1187.45 342.537 1188.75 342.04 1189.56 341.3C1189.93 340.963 1189.95 340.957 1190.56 341.247C1191.85 341.862 1193.69 341.756 1194.36 341.022C1194.63 340.72 1194.61 340.696 1193.9 340.383C1192.75 339.874 1192.36 339.187 1192.36 337.689V336.446L1193.19 336.251C1194.23 336.008 1195.55 335.197 1196.17 334.422C1196.72 333.717 1197.28 332.551 1197.28 332.078C1197.28 331.811 1197.19 331.865 1196.79 332.35C1196.25 333.007 1195.03 333.664 1194.36 333.664C1193.55 333.664 1192.44 332.829 1192.44 332.214C1192.44 332.101 1192.79 331.965 1193.23 331.9C1194.49 331.717 1195.42 331.077 1195.68 330.219C1195.78 329.893 1195.74 329.87 1194.97 329.947C1193.17 330.118 1192.93 329.562 1192.9 325.181L1192.88 321.92L1193.28 321.594C1193.5 321.411 1194.03 321.091 1194.46 320.878C1195.38 320.41 1196.2 319.505 1196.66 318.481C1197.04 317.628 1197.29 314.953 1196.99 314.953C1196.89 314.953 1196.76 315.118 1196.7 315.325C1196.49 316.018 1195.64 317.202 1195.14 317.498C1194.43 317.918 1193.66 317.871 1193 317.368C1192.69 317.131 1192.44 316.835 1192.44 316.711C1192.44 316.586 1192.69 316.267 1193.01 316.006C1194.81 314.52 1195.93 310.939 1195.46 308.163C1195.24 306.861 1194.67 304.984 1194.35 304.463C1194.33 304.434 1193.75 304.747 1193.07 305.168C1192.38 305.588 1191.3 306.132 1190.66 306.381C1189.57 306.813 1189.37 306.837 1186.68 306.837C1185.12 306.837 1182.3 306.784 1180.41 306.724C1178.53 306.659 1176.32 306.677 1175.51 306.76C1173.79 306.932 1173.36 307.162 1171.54 308.903C1170.89 309.518 1170.02 310.229 1169.58 310.477C1168.63 311.034 1167.09 311.442 1165.99 311.442C1165.54 311.442 1164.68 311.531 1164.09 311.643C1162.89 311.862 1162.62 312.129 1162.85 312.887C1162.94 313.153 1163.1 313.792 1163.21 314.307C1163.42 315.243 1163.41 315.26 1162.91 315.894C1162.19 316.805 1162.08 317.356 1161.97 320.588C1161.92 321.713 1161.95 322.672 1162.04 322.719C1162.11 322.766 1162.49 322.689 1162.87 322.535C1163.75 322.186 1165.02 322.316 1165.74 322.825C1166.02 323.027 1166.47 323.53 1166.74 323.944C1167.15 324.589 1167.22 324.879 1167.22 325.838C1167.22 326.46 1167.11 327.289 1166.98 327.685C1166.85 328.076 1166.69 328.644 1166.63 328.94C1166.57 329.242 1166.19 329.935 1165.78 330.485C1164.49 332.237 1162.29 333.321 1160 333.326H1159.04L1158.43 332.368C1157.68 331.184 1156.98 330.42 1156.11 329.846C1155.51 329.455 1155.28 329.402 1154.1 329.42C1151.73 329.443 1150.06 330.379 1149.25 332.119C1148.85 332.977 1148.81 333.238 1148.87 334.581L1148.92 336.085L1148.28 336.061C1147.55 336.038 1146.75 335.369 1145.26 333.492C1142.72 330.302 1141.67 328.035 1141.05 324.305C1140.75 322.529 1140.75 322.63 1140.95 321.713C1141.27 320.233 1141.93 319.179 1143.46 317.67C1145.2 315.965 1145.41 315.485 1144.8 314.556C1144.59 314.23 1144.23 313.869 1143.99 313.757C1143.7 313.609 1143.51 313.514 1143.4 313.402L1139.76 311.087L1138.66 310.993C1137.63 310.91 1137.54 310.933 1137.1 311.365C1136.71 311.756 1136.64 311.963 1136.64 312.733C1136.64 313.23 1136.57 313.781 1136.47 313.958C1136.23 314.396 1135.7 314.373 1135.39 313.899C1135.12 313.479 1135.01 312.123 1135.22 311.78C1135.3 311.656 1135.38 311.188 1135.41 310.756C1135.47 309.667 1135.03 309.193 1133.79 309.033L1128.61 309.081C1128.4 309.063 1128.23 309.11 1127.88 309.246C1127.23 309.637 1126.83 310.164 1126.69 310.868C1126.62 311.247 1126.75 311.667 1127.27 312.656C1127.65 313.36 1127.96 314.071 1127.96 314.225C1127.96 314.645 1127.46 315.118 1127.02 315.118C1126.62 315.118 1126.44 314.917 1125.61 313.567C1124.98 312.555 1124.44 312.324 1123.59 312.709C1121.96 313.668 1121.06 315.308 1120.35 317.125C1120.01 318.102 1120.03 318.427 1120.54 319.434C1121.15 320.659 1121.61 320.866 1123.5 320.754C1125.23 320.659 1125.62 320.866 1125.62 321.879C1125.62 322.334 1125.5 322.542 1125.05 322.879C1124.43 323.358 1123.72 323.453 1122.26 323.24C1121.41 323.122 1121.29 323.139 1120.84 323.524C1120.41 323.891 1120.36 324.045 1120.38 324.791L1120.41 325.643C1120.92 327.052 1118.48 326.709 1121.95 329.864C1122.18 330.018 1122.67 330.189 1123.04 330.248C1123.77 330.367 1123.89 330.29 1125.57 328.786C1127.01 327.496 1128.31 328.26 1128.23 330.343C1128.14 332.255 1126.95 333.315 1124.47 333.652C1123.64 333.765 1122.88 333.812 1122.79 333.753C1122.68 333.694 1122.61 333.723 1122.61 333.824C1122.61 334.078 1124.01 334.937 1125.11 335.351C1125.86 335.635 1126.28 335.688 1127.31 335.617C1128.01 335.576 1128.74 335.446 1128.94 335.345C1129.54 335.02 1129.68 335.274 1129.56 336.499C1129.44 337.808 1129.15 338.613 1128.6 339.11C1127.69 339.945 1127.01 340.021 1125.24 339.518C1124.62 339.341 1124.11 339.234 1124.11 339.282C1124.11 339.323 1124.22 339.572 1124.35 339.826C1124.76 340.607 1125.69 341.294 1126.9 341.685C1127.53 341.892 1128.11 342.117 1128.19 342.2C1128.28 342.283 1128.11 342.549 1127.78 342.845C1127.05 343.484 1126.25 343.508 1124.86 342.934C1123.61 342.413 1123.55 342.413 1123.68 342.975C1123.74 343.23 1123.82 343.727 1123.86 344.088C1123.95 344.864 1124.47 345.929 1125.07 346.562C1126.49 348.06 1129.7 348.202 1132.07 346.864C1132.56 346.586 1133.04 346.361 1133.13 346.361C1133.42 346.361 1133.32 347.675 1132.97 348.35C1132.8 348.705 1132.33 349.268 1131.94 349.599L1131.23 350.203H1132.06C1133.13 350.197 1135.57 349.676 1137.08 349.131C1138.45 348.634 1138.58 348.616 1138.7 348.924C1138.82 349.238 1137.42 354.648 1136.97 355.607C1136.76 356.051 1136.25 356.791 1135.83 357.241C1135.15 357.975 1134.95 358.082 1134.1 358.218C1133.39 358.33 1132.93 358.313 1132.37 358.141C1131.42 357.857 1131.03 357.514 1130.6 356.566C1130.32 355.945 1130.27 355.631 1130.37 354.678C1130.44 353.968 1130.42 353.542 1130.32 353.542C1130.04 353.542 1128.97 354.909 1128.56 355.791C1127.63 357.774 1127.6 359.437 1128.43 361.278C1129.22 363.019 1131.01 364.291 1133.3 364.735C1134.16 364.901 1134.7 364.907 1135.87 364.753C1138.99 364.333 1141.09 363.232 1142.4 361.331C1142.93 360.562 1143.16 360.372 1143.88 360.142C1145.33 359.674 1147 358.65 1148.42 357.353C1148.94 356.874 1149.34 356.957 1149.34 357.549C1149.34 357.851 1150.33 360.059 1150.72 360.615C1150.9 360.887 1150.77 361.065 1149.57 362.219C1148.81 362.936 1147.58 364.001 1146.81 364.587C1145.12 365.883 1141.6 368.245 1141.35 368.245C1141.25 368.245 1141.08 368.34 1140.95 368.453C1140.61 368.76 1140.18 369.009 1139.06 369.554C1136.9 370.601 1135.61 370.951 1133.73 370.98C1132.66 370.998 1132.46 370.956 1131.91 370.536C1131.24 370.021 1131.17 369.707 1131.55 368.802C1131.93 367.896 1131.87 367.038 1131.41 366.6C1130.79 366.02 1130.05 365.872 1129.24 366.174C1127.67 366.955 1125.84 366.191 1123.85 368.02C1122.57 368.92 1122.42 369.82 1123.31 371.17C1123.95 372.14 1124.02 372.934 1123.48 373.466C1123.14 373.804 1123.06 373.816 1122.32 373.614C1121.89 373.496 1121.5 373.348 1121.45 373.283C1121.16 372.886 1120.32 372.419 1119.91 372.419C1118.9 372.419 1118.26 373.028 1117.85 374.384C1117.37 377.385 1117.92 378.166 1118.23 379.386C1118.32 379.978 1119.02 380.605 1119.6 380.605C1120.26 380.605 1120.61 380.416 1121.82 379.409C1123.19 378.273 1124.07 378.291 1124.37 379.463C1124.63 380.499 1123.38 381.6 1121.57 381.925C1120.57 382.109 1119.94 382.363 1119.73 382.677C1119.66 382.778 1119.61 383.139 1119.6 383.482C1119.87 385.009 1121.32 385.921 1122.21 387.176L1123.12 388.016C1124.16 388.958 1125.13 389.182 1125.99 388.679C1126.85 388.17 1127.23 387.33 1127.35 385.566C1127.5 383.506 1127.57 383.239 1128.14 382.624C1128.51 382.215 1128.69 382.126 1128.89 382.245C1129.13 382.375 1129.18 382.707 1129.2 384.133C1129.21 385.785 1129.24 385.915 1129.75 386.75C1130.84 388.093 1133.9 387.91 1135.95 386.637C1137 385.956 1137.34 385.341 1137.36 384.038C1137.37 383.245 1137.28 382.843 1137.01 382.375C1136.45 381.434 1136.52 381.215 1137.5 380.866L1138.35 380.564L1138.79 381.002C1139.21 381.422 1139.22 381.517 1139.18 382.914C1139.13 383.997 1139.19 384.565 1139.41 385.086C1139.65 385.702 1140.32 386.454 1140.63 386.454C1140.69 386.454 1140.71 386.004 1140.68 385.447C1140.61 384.257 1140.99 383.346 1142.43 381.227C1142.92 380.51 1143.37 379.723 1143.42 379.474C1143.6 378.634 1143.65 378.581 1144.11 378.634C1144.42 378.669 1144.67 378.865 1144.89 379.244C1145.2 379.782 1145.2 379.841 1144.92 381.428C1144.65 382.985 1144.68 383.997 1145 384.613C1145.1 384.79 1145.25 384.607 1145.56 383.944C1146.13 382.754 1146.52 382.126 1147.33 381.096C1148.04 380.203 1148.51 378.942 1148.51 377.929C1148.51 377.042 1148.8 376.331 1149.25 376.124C1150.06 375.757 1150.25 376.787 1149.94 379.871C1149.79 381.28 1149.91 382.777 1150.18 382.777C1150.26 382.777 1150.45 382.493 1150.6 382.15C1150.74 381.807 1151.19 380.99 1151.61 380.327C1152.84 378.35 1154.05 375.343 1153.92 374.573C1153.87 374.354 1154.01 373.685 1154.22 373.087C1154.51 372.247 1154.69 371.992 1154.97 371.951C1155.61 371.856 1155.91 372.566 1155.79 373.88C1155.6 376.023 1155.6 376.639 1155.82 377.136L1156.02 377.639L1156.54 376.657C1156.83 376.118 1157.28 375.277 1157.54 374.78C1157.97 373.981 1158.03 373.703 1158.03 372.407C1158.03 371.3 1158.09 370.873 1158.29 370.678C1158.65 370.323 1158.81 370.347 1159.11 370.802C1159.3 371.098 1159.32 371.317 1159.19 371.761C1159.1 372.081 1158.95 372.821 1158.85 373.419C1158.7 374.313 1158.72 374.62 1158.95 375.212C1159.1 375.609 1159.28 375.929 1159.36 375.929C1159.43 375.929 1159.54 375.621 1159.6 375.236C1159.66 374.857 1160.09 373.75 1160.56 372.774C1161.23 371.388 1161.42 370.802 1161.45 370.08C1161.5 368.665 1161.52 368.577 1161.78 368.577C1162.25 368.577 1162.42 369.234 1162.3 370.595C1162.2 371.708 1162.23 372.004 1162.54 372.726C1162.74 373.188 1163.04 373.697 1163.22 373.857C1163.53 374.135 1163.54 374.117 1163.55 373.407C1163.55 372.649 1163.79 371.897 1164.68 369.79C1165.23 368.494 1165.48 367.351 1165.63 365.486C1165.71 364.409 1165.96 363.9 1166.38 363.9C1166.44 363.9 1166.61 363.995 1166.77 364.107C1166.99 364.267 1167.07 364.67 1167.14 365.818C1167.22 367.321 1167.35 368.198 1167.51 368.47C1167.55 368.553 1167.89 368.026 1168.25 367.304C1168.6 366.582 1169.19 365.421 1169.57 364.729C1170.38 363.196 1170.78 361.23 1170.61 359.585L1170.5 358.507L1170.96 358.62C1171.22 358.685 1171.81 358.922 1172.28 359.153C1174.36 360.165 1175.51 360.555 1176.58 360.621C1177.33 360.668 1178.14 360.869 1179.17 361.284C1179.99 361.615 1181.38 362.077 1182.25 362.314C1184.25 362.852 1185.27 363.355 1186.61 364.462C1187.72 365.374 1189.43 367.244 1189.43 367.54C1189.43 367.635 1188.65 367.742 1187.56 367.795C1186.52 367.842 1185.27 367.967 1184.77 368.061C1182.13 368.564 1179.16 369.95 1177.07 371.631C1174.99 373.312 1174.04 374.218 1172.14 376.343C1169.99 378.758 1169.36 379.267 1168.1 379.598C1167.72 379.699 1165.58 379.853 1163.34 379.936C1160.89 380.031 1158.92 380.19 1158.36 380.332C1157.1 380.658 1155.82 381.108 1155.56 381.315C1155.45 381.41 1155.05 381.647 1154.67 381.848C1153.68 382.381 1151.99 383.955 1150.74 385.506C1150.14 386.258 1148.84 387.726 1147.86 388.768C1145.08 391.745 1143.53 392.769 1141.59 392.923C1140.22 393.036 1138.93 392.657 1138.03 391.887L1137.34 391.295L1136.95 391.923C1136.62 392.444 1136.56 392.781 1136.56 393.9C1136.56 395.113 1136.61 395.332 1137.07 396.066C1137.7 397.09 1139.11 397.884 1140.6 398.055C1143.39 398.381 1147.62 397.079 1149.89 395.196C1150.53 394.669 1150.78 394.705 1151.11 395.35C1151.67 396.469 1152.23 397.019 1153.29 397.517C1154.12 397.901 1154.37 398.109 1154.45 398.452C1154.84 400.198 1155.09 400.648 1156.22 401.631L1156.83 402.163L1156.43 403.626C1156.21 404.425 1155.82 405.378 1155.56 405.751C1154.89 406.71 1153.14 407.947 1152.03 408.266C1151.51 408.408 1150.86 408.598 1150.57 408.687C1149.72 408.941 1146.94 409.077 1146.57 408.876C1146.27 408.716 1146.24 408.586 1146.34 407.645C1146.46 406.443 1146.31 405.733 1145.82 405.105C1145.43 404.614 1144.51 404.318 1143.7 404.425C1141.92 404.727 1140.54 405.721 1139.68 406.834L1139.08 407.562C1138.46 408.308 1138.34 408.888 1138.7 409.35C1138.81 409.492 1139.35 409.859 1139.91 410.155C1141.03 410.747 1141.58 411.457 1141.41 412.102C1141.28 412.617 1140.96 412.789 1139.82 412.931C1139 413.032 1138.8 412.99 1137.93 412.534C1136.7 411.883 1136.06 411.771 1135.23 412.061C1134.72 412.238 1134.48 412.463 1134.19 413.014C1133.97 413.41 1133.8 413.943 1133.8 414.198C1133.66 416.039 1134.2 418.679 1134.64 419.691C1134.99 420.384 1135.39 420.597 1136.27 420.561C1136.99 420.538 1137.42 420.307 1138.34 419.413C1138.95 418.827 1139.21 418.685 1139.58 418.726C1140.25 418.803 1140.48 419.478 1140.12 420.253C1139.9 420.703 1139.63 420.905 1138.79 421.242C1137.59 421.721 1137.18 422.236 1137.16 423.266C1137.15 423.639 1137.29 424.184 1137.51 424.557C1137.97 425.51 1139.58 426.777 1141.71 427.155C1143.16 427.392 1144.37 426.084 1144.57 424.048C1144.66 423.065 1144.75 422.828 1145.11 422.538C1145.62 422.142 1146.09 422.219 1146.55 422.757C1146.78 423.03 1146.85 423.349 1146.83 424.119C1146.77 425.936 1146.81 426.125 1147.35 426.682C1148.27 427.54 1151.49 426.368 1152.77 425.439C1153.34 425.066 1153.85 424.178 1153.85 423.551C1153.85 423.255 1153.63 422.449 1153.35 421.757C1152.74 420.242 1152.73 419.857 1153.25 419.247C1153.59 418.862 1153.72 418.809 1153.96 418.963C1154.55 419.312 1155.04 420.484 1155.16 421.81C1155.27 422.852 1155.36 423.142 1155.67 423.397C1156.22 423.846 1156.6 423.811 1156.43 423.331C1156.21 422.704 1156.27 421.502 1156.57 420.455C1156.73 419.904 1156.86 418.963 1156.86 418.353C1156.86 417.3 1157.08 416.287 1157.37 415.962C1157.44 415.879 1157.61 416.068 1157.73 416.376C1157.92 416.82 1157.93 417.3 1157.81 418.62C1157.64 420.455 1157.79 421.378 1158.35 422.065C1158.74 422.544 1158.99 422.361 1158.72 421.781C1158.55 421.402 1158.62 421.165 1159.31 419.768C1160.07 418.229 1160.1 418.128 1160.17 416.352C1160.21 415.346 1160.29 414.517 1160.36 414.517C1160.42 414.517 1160.6 414.802 1160.77 415.145C1160.98 415.577 1161.1 416.293 1161.16 417.442C1161.22 418.945 1161.28 419.17 1161.69 419.685C1162.42 420.614 1162.52 420.538 1162.42 419.135C1162.33 418.028 1162.37 417.773 1162.74 416.992C1163.62 415.121 1164.2 413.529 1164.39 412.451C1164.69 410.682 1164.96 411.12 1164.98 413.446C1165.01 415.642 1165.28 416.583 1166.12 417.424C1166.69 417.992 1166.91 417.986 1166.77 417.4C1166.49 416.317 1166.64 415.299 1167.29 413.931C1168.27 411.871 1168.74 410.528 1168.91 409.338C1169.25 406.935 1169.23 407.006 1169.67 406.899C1171.02 406.556 1172.12 406.946 1172.44 407.876C1172.56 408.243 1172.45 408.568 1171.76 409.811C1170.52 412.061 1170.4 412.523 1170.73 413.724C1170.94 414.458 1171.05 414.5 1171.39 413.949C1171.53 413.73 1172.51 412.659 1173.57 411.57C1176.87 408.184 1177.64 406.887 1177.4 405.141C1177.22 403.821 1176.43 402.679 1174.04 400.24C1171.8 397.961 1171.14 397.114 1170.49 395.652C1168.65 391.55 1171.24 388.916 1177.49 388.531C1178.58 388.46 1180.05 388.502 1181.12 388.614C1183.22 388.839 1185.72 388.887 1186.72 388.721L1187.43 388.596L1187.76 389.384C1188.08 390.118 1189.17 393.746 1189.69 395.806C1189.81 396.315 1190.12 397.517 1190.36 398.482C1190.92 400.708 1191.04 402.312 1190.68 403.004C1190.36 403.614 1189.51 404.159 1188.88 404.159C1187.86 404.165 1186.49 402.957 1185.96 401.584C1185.78 401.128 1185.57 400.731 1185.49 400.708C1185.41 400.678 1185.17 400.915 1184.96 401.228C1184.32 402.158 1184.49 404.188 1185.34 405.834C1185.71 406.556 1186.85 407.764 1187.67 408.332C1189.48 409.563 1192.18 409.9 1194.45 409.172C1195.52 408.829 1195.84 408.622 1196.71 407.758C1197.27 407.201 1197.84 406.562 1197.98 406.337L1198.23 405.929L1199.47 406.503C1200.45 406.959 1200.97 407.089 1201.96 407.136C1203.23 407.201 1203.89 407.006 1205.44 406.1C1205.73 405.929 1205.99 405.911 1206.41 406.029C1207.27 406.266 1208.68 405.905 1209.97 405.129C1210.57 404.756 1211.2 404.342 1211.36 404.2C1211.77 403.845 1212 404.099 1212.48 405.414C1213.06 406.97 1212.98 409.131 1212.26 411.386C1211.46 413.914 1210.14 415.773 1208.26 417.028C1207.33 417.661 1207.14 417.72 1206.42 417.649C1205.41 417.554 1204.83 417.028 1204.31 415.731C1203.63 414.026 1203.46 413.701 1203.09 413.44C1202.54 413.056 1201.69 413.133 1200.79 413.636L1199.84 414.157C1198.42 415.648 1196.04 417.306 1195.72 419.23C1195.64 419.567 1195.72 419.798 1196.03 420.171C1196.39 420.591 1196.62 420.692 1197.49 420.787C1198.07 420.852 1198.67 420.976 1198.83 421.059C1199.68 421.509 1199.5 422.568 1198.49 422.989C1197.95 423.219 1197.67 423.225 1196.26 423.042C1195.38 422.924 1194.48 422.87 1194.24 422.929C1193.56 423.101 1192.94 423.687 1192.94 424.178C1192.88 426.173 1193.95 428.559 1194.87 430.394C1195.29 431.228 1195.74 431.56 1196.47 431.56C1196.87 431.56 1197.34 431.098 1198.82 429.198C1199.92 427.795 1200.67 427.239 1201.21 427.446C1201.65 427.618 1201.5 428.452 1200.88 429.275C1199.8 430.684 1199.71 431.347 1200.5 432.116C1201.8 433.342 1204.32 434.419 1206.05 434.413C1207 434.378 1207.8 433.934 1208.11 433.288C1208.34 432.803 1208.35 432.519 1208.17 431.051C1207.96 429.216 1208.1 428.689 1208.85 428.494C1209.63 428.292 1210.15 429.086 1210.15 430.489C1210.15 431.939 1210.48 432.933 1211.17 433.578C1211.82 434.218 1216.17 432.578 1216.82 432.016C1217.86 431.045 1218.08 429.867 1217.5 428.387C1217.32 427.919 1217.16 427.464 1217.16 427.375C1217.16 427.28 1217.49 427.061 1217.89 426.889C1218.36 426.688 1218.76 426.363 1219.01 425.96C1219.36 425.386 1219.38 425.25 1219.24 423.817C1219.02 421.361 1219.06 420.431 1219.42 420.035C1220.2 419.176 1221.07 420.052 1221.25 421.87C1221.39 423.231 1221.8 424.309 1222.37 424.788C1222.84 425.179 1223.46 425.374 1223.31 425.084C1222.76 424.007 1222.65 423.551 1222.72 422.675C1222.77 422.154 1222.96 421.438 1223.14 421.088C1223.31 420.733 1223.68 420.017 1223.95 419.49C1224.21 418.963 1224.49 418.531 1224.55 418.531C1224.75 418.525 1224.97 419.07 1225.1 419.857C1225.17 420.271 1225.28 420.721 1225.35 420.863C1226.28 422.864 1226.85 423.539 1227.62 423.539C1228.1 423.539 1228.11 423.592 1227.68 422.503C1227.21 421.331 1227.22 420.36 1227.7 418.945C1228.19 417.495 1228.24 415.151 1227.8 414.121C1227.19 412.695 1227.72 412.144 1228.56 413.334C1228.88 413.79 1229.09 414.405 1229.27 415.435C1229.41 416.234 1229.67 417.211 1229.84 417.608C1230.18 418.36 1230.84 418.934 1231.26 418.839C1231.48 418.786 1231.48 418.697 1231.26 418.111C1230.97 417.306 1230.94 415.435 1231.21 414.761C1231.32 414.488 1231.4 413.689 1231.4 412.979C1231.41 411.748 1231.37 411.6 1230.48 409.806C1229.41 407.616 1229.24 406.817 1229.63 405.793C1230.11 404.544 1230.83 404.212 1231.87 404.751C1232.74 405.201 1233.07 406.142 1233.22 408.604C1233.38 411.138 1233.73 412.31 1234.63 413.269C1234.96 413.612 1235.26 413.849 1235.31 413.796C1235.36 413.749 1235.33 413.322 1235.22 412.855C1234.97 411.671 1234.99 409.96 1235.28 409.303C1235.4 409.001 1235.76 407.93 1236.07 406.918C1236.5 405.485 1236.63 404.787 1236.63 403.739C1236.63 402.514 1236.58 402.318 1236.08 401.484C1235.3 400.205 1234.41 399.619 1232.62 399.216C1231.04 398.861 1229.44 398.926 1228.33 399.382C1227.81 399.595 1227.32 399.725 1227.24 399.672C1227.17 399.619 1226.75 399.145 1226.32 398.63C1225.05 397.127 1224.02 396.517 1222.34 396.28C1220.95 396.079 1220.91 396.055 1220.09 395.221C1218.54 393.628 1216.31 392.711 1213 392.285C1212.21 392.184 1211.4 392.036 1211.19 391.953C1210.84 391.817 1210.83 391.782 1211.05 391.261C1211.78 389.568 1212.17 388.39 1212.41 387.123C1212.7 385.572 1212.75 382.423 1212.51 380.943C1212.42 380.434 1212.39 379.984 1212.43 379.943C1212.53 379.842 1213.77 381.186 1215.13 382.861C1218.34 386.827 1220.83 389.313 1222.7 390.42C1225.02 391.793 1227.05 392.397 1232.26 393.291C1235.59 393.865 1236.47 394.173 1237.08 394.996C1237.66 395.783 1237.83 396.559 1238.05 399.151C1238.28 402.01 1238.52 402.691 1239.45 403.242C1240.46 403.834 1240.58 403.792 1240.3 402.981C1239.86 401.732 1239.84 400.377 1240.21 397.979C1240.84 394.043 1240.66 392.16 1239.51 390.716C1238.88 389.911 1238.63 389.722 1237.31 388.952C1236.75 388.626 1236.3 388.277 1236.3 388.177C1236.3 388.076 1236.7 387.555 1237.2 387.016C1239.46 384.566 1240.44 382.293 1240.63 379.055C1240.84 375.823 1239.28 371.969 1235.98 367.583C1234.48 365.588 1234.39 365.328 1234.62 363.735C1234.84 362.226 1235.11 361.681 1236.09 360.776C1237.86 359.142 1239.9 359.473 1241.22 361.616C1241.61 362.232 1241.73 361.9 1241.55 360.74C1241.18 358.426 1240.38 357.253 1238.61 356.425C1237.76 356.028 1237.43 355.969 1236.12 355.975C1234.85 355.981 1234.47 356.058 1233.62 356.442C1231.76 357.295 1230.61 358.852 1229.99 361.367C1229.78 362.208 1229.56 362.895 1229.49 362.901C1229.31 362.901 1228.55 361.302 1228.26 360.29C1227.68 358.313 1228.06 354.803 1229 353.293C1230.02 351.648 1231.28 350.565 1232.95 349.908C1233.98 349.505 1234.34 349.458 1235.88 349.464C1237.8 349.475 1238.56 349.683 1239.81 350.529C1240.22 350.801 1240.55 350.955 1240.55 350.872C1240.55 350.375 1239.41 348.949 1238.47 348.28C1234.83 345.687 1230.42 345.995 1226.1 349.156C1224.84 350.085 1224.18 350.464 1224.18 350.275C1224.18 349.89 1226.24 347.936 1228.85 345.858C1229.25 345.539 1229.85 345.048 1230.18 344.769C1230.51 344.485 1231.34 343.81 1232.02 343.266C1235.27 340.655 1238.81 336.76 1240.23 334.244C1242.05 331.001 1243.38 326.934 1243.91 322.968C1244.08 321.654 1243.96 319.629 1243.71 319.629C1243.62 319.629 1243.56 319.73 1243.56 319.848C1243.56 320.44 1241.56 325.01 1240.41 327.064C1240.1 327.615 1238.66 329.692 1237.87 330.74C1236.15 333.007 1232.55 336.6 1230.76 337.843C1230.57 337.98 1230 338.394 1229.51 338.767C1228.42 339.59 1226.11 340.756 1225.87 340.608C1225.77 340.537 1225.93 340.075 1226.3 339.377C1226.93 338.234 1228.41 335.618 1228.7 335.168C1233.14 328.124 1235.6 322.163 1235.83 317.889C1235.99 314.929 1235.34 311.893 1234.08 309.614C1233.2 308.051 1230.65 305.547 1228.86 304.481C1225.75 302.652 1223.63 302.078 1219.86 302.119ZM1137.18 314.213V314.343C1137.17 314.319 1137.17 314.272 1137.18 314.213Z" fill="#202022"/>
<path d="M1138.26 424.036C1137.84 424.012 1137.46 424.295 1137.36 424.707C1137.04 426.069 1136.8 427.445 1136.97 428.74C1137.14 430.088 1137.76 431.301 1139.04 432.331C1139.3 432.539 1139.66 432.582 1139.96 432.44C1140.26 432.298 1140.46 431.997 1140.46 431.664C1140.49 429.993 1140.82 428.602 1141.83 426.796C1142.03 426.453 1141.97 426.024 1141.69 425.747C1140.89 424.964 1139.58 424.11 1138.26 424.036Z" fill="#202022" stroke="#F5D90A" stroke-width="1.74609" stroke-linejoin="round"/>
<path d="M1201.34 431.346C1201.1 431.336 1200.87 431.424 1200.7 431.588C1200.53 431.752 1200.43 431.98 1200.43 432.217C1200.43 432.32 1200.43 432.425 1200.43 432.533C1200.42 433.655 1200.41 435.012 1200.93 436.367C1201.52 437.901 1202.73 439.34 1205.06 440.63C1205.37 440.803 1205.76 440.769 1206.03 440.543C1206.31 440.317 1206.42 439.946 1206.32 439.605C1205.56 437.202 1205.19 435.391 1205.41 433.604C1205.45 433.307 1205.33 433.012 1205.1 432.823C1203.92 431.863 1202.48 431.394 1201.34 431.346Z" fill="#202022" stroke="#F5D90A" stroke-width="1.74609" stroke-linejoin="round"/>
<path d="M1210.57 437.243C1210.4 437.561 1210.45 437.946 1210.69 438.215C1210.92 438.484 1211.3 438.583 1211.63 438.465C1213.56 437.791 1214.83 436.945 1215.64 435.854C1216.44 434.765 1216.71 433.54 1216.85 432.297C1216.89 431.858 1216.61 431.452 1216.18 431.352C1214.9 431.055 1213.07 431.305 1211.54 432.462C1211.29 432.655 1211.16 432.97 1211.2 433.286C1211.41 434.664 1211.14 436.124 1210.57 437.243Z" fill="#202022" stroke="#F5D90A" stroke-width="1.74609" stroke-linejoin="round"/>
<path d="M1200.91 414.701C1200.97 414.337 1200.79 413.975 1200.47 413.796L1200.42 413.77C1199.2 413.093 1198.06 412.462 1196.98 412.094C1195.84 411.71 1194.7 411.586 1193.49 411.982C1193.21 412.071 1193 412.289 1192.92 412.565C1192.84 412.84 1192.9 413.138 1193.08 413.362C1193.26 413.587 1193.44 413.804 1193.62 414.018C1194.61 415.209 1195.52 416.301 1196.28 418.211C1196.38 418.448 1196.57 418.631 1196.81 418.714C1197.05 418.796 1197.32 418.768 1197.54 418.638C1199.17 417.669 1200.63 416.393 1200.91 414.701Z" fill="#202022" stroke="#F5D90A" stroke-width="1.74609" stroke-linejoin="round"/>
<path d="M1152.93 425.774C1152.98 425.528 1152.93 425.271 1152.78 425.07C1152.62 424.869 1152.39 424.743 1152.14 424.724C1150.51 424.603 1149.03 425.121 1147.91 425.726C1147.63 425.871 1147.46 426.149 1147.45 426.456C1147.39 427.759 1146.79 428.878 1145.75 430.572C1145.56 430.871 1145.58 431.251 1145.78 431.537C1145.98 431.823 1146.34 431.959 1146.68 431.882C1149.78 431.191 1152.26 428.974 1152.93 425.774Z" fill="#202022" stroke="#F5D90A" stroke-width="1.74609" stroke-linejoin="round"/>
<path d="M1117.85 310.81C1117.52 310.853 1117.24 311.077 1117.13 311.39C1117.02 311.702 1117.1 312.049 1117.33 312.286C1118.59 313.573 1119.5 314.901 1120.08 316.674C1120.18 316.956 1120.41 317.17 1120.69 317.245C1120.98 317.32 1121.28 317.244 1121.5 317.044C1122.56 316.072 1123.47 314.999 1124.1 313.64C1124.29 313.218 1124.12 312.717 1123.71 312.501C1123.54 312.413 1123.37 312.32 1123.19 312.224C1121.75 311.445 1120.05 310.524 1117.85 310.81Z" fill="#202022" stroke="#F5D90A" stroke-width="1.74609" stroke-linejoin="round"/>
<path d="M1134.9 414.401C1134.67 414.07 1134.24 413.943 1133.86 414.093C1131.44 415.064 1129.46 416.804 1128.19 419.124C1128.02 419.42 1128.05 419.784 1128.24 420.057C1128.44 420.33 1128.78 420.465 1129.11 420.403C1130.99 420.051 1132.88 419.737 1134.72 419.576C1135.1 419.542 1135.42 419.261 1135.49 418.884C1135.5 418.853 1135.51 418.822 1135.51 418.791C1135.75 417.648 1136.08 416.075 1134.9 414.401Z" fill="#202022" stroke="#F5D90A" stroke-width="1.74609" stroke-linejoin="round"/>
<path d="M1128.63 367.302C1128.72 367.063 1128.7 366.798 1128.57 366.576C1127.91 365.404 1127.14 364.392 1126.13 363.7C1125.1 362.994 1123.89 362.662 1122.45 362.753C1122.14 362.772 1121.86 362.953 1121.72 363.228C1121.58 363.503 1121.6 363.832 1121.76 364.092C1121.86 364.251 1121.96 364.404 1122.06 364.551C1122.87 365.81 1123.42 366.677 1123.59 368.104C1123.61 368.305 1123.7 368.492 1123.85 368.633C1124.82 369.576 1126 369.489 1126.86 369.088C1127.29 368.891 1127.66 368.613 1127.96 368.316C1128.24 368.027 1128.5 367.675 1128.63 367.302Z" fill="#202022" stroke="#F5D90A" stroke-width="1.74609" stroke-linejoin="round"/>
<path d="M1143.74 405.617C1143.92 405.463 1144.03 405.244 1144.04 405.01C1144.06 404.776 1143.98 404.546 1143.82 404.372C1141.76 402.093 1139.22 401.028 1136.42 401.331C1136.1 401.365 1135.82 401.571 1135.7 401.867C1135.58 402.162 1135.63 402.501 1135.83 402.749C1136.21 403.212 1136.58 403.651 1136.95 404.081C1137.87 405.157 1138.75 406.176 1139.45 407.379C1139.67 407.751 1140.13 407.908 1140.53 407.749C1141.53 407.352 1142.16 406.979 1142.65 406.597C1142.89 406.409 1143.09 406.228 1143.26 406.064C1143.3 406.027 1143.34 405.992 1143.37 405.958C1143.5 405.835 1143.62 405.728 1143.74 405.617Z" fill="#202022" stroke="#F5D90A" stroke-width="1.74609" stroke-linejoin="round"/>
<path d="M1160.47 330.39C1160.75 330.659 1161.17 330.715 1161.5 330.528C1161.84 330.342 1162.01 329.956 1161.93 329.58C1161.1 325.753 1158.7 323.815 1156.44 322.133C1156.56 321.933 1156.68 321.715 1156.79 321.489C1157.02 321.008 1157.24 320.446 1157.29 319.79C1157.29 319.781 1157.29 319.772 1157.29 319.763C1157.36 317.963 1156.77 316.605 1155.68 315.79C1154.63 314.999 1153.27 314.837 1152.02 315.082C1149.57 315.563 1147 317.776 1147.47 321.088C1147.62 322.201 1148.06 323.385 1148.97 324.583L1148.97 324.584L1148.98 324.594C1149.68 325.48 1150.62 326.086 1151.62 326.551C1152.62 327.014 1153.73 327.364 1154.81 327.698C1157.03 328.389 1159.07 329.028 1160.47 330.39Z" fill="#202022" stroke="#F5D90A" stroke-width="1.74609" stroke-linejoin="round"/>
<path d="M1143.38 307.096C1143.21 306.856 1142.94 306.715 1142.65 306.719C1142.36 306.724 1142.09 306.874 1141.93 307.12C1141.12 308.38 1140.29 309.622 1139.35 310.614C1139.34 310.624 1139.33 310.636 1139.32 310.647C1138.94 311.09 1139.09 311.601 1139.17 311.795C1139.26 312.026 1139.41 312.232 1139.55 312.394C1139.84 312.731 1140.25 313.082 1140.66 313.375C1141.07 313.665 1141.56 313.944 1142.02 314.092C1142.25 314.165 1142.53 314.227 1142.82 314.202C1143.14 314.175 1143.52 314.037 1143.77 313.672C1143.83 313.586 1143.87 313.489 1143.9 313.386C1144.44 311.246 1144.54 308.777 1143.38 307.096Z" fill="#202022" stroke="#F5D90A" stroke-width="1.74609" stroke-linejoin="round"/>
<path d="M1127.8 303.742C1127.51 303.709 1127.22 303.825 1127.04 304.051C1126.85 304.277 1126.79 304.583 1126.87 304.864C1127.03 305.372 1127.18 305.808 1127.33 306.212C1127.72 307.29 1128.02 308.135 1127.97 309.478C1127.95 309.841 1128.17 310.174 1128.5 310.315C1130.36 311.101 1132.04 310.943 1133.38 310.024C1133.73 309.783 1133.86 309.323 1133.68 308.936C1132.6 306.612 1130.73 304.075 1127.8 303.742Z" fill="#202022" stroke="#F5D90A" stroke-width="1.74609" stroke-linejoin="round"/>
<path d="M1121.75 325.549C1121.61 325.262 1121.32 325.075 1121 325.062C1119.55 325.004 1118.31 324.617 1117.16 323.641C1116.91 323.424 1116.55 323.373 1116.24 323.509C1115.94 323.645 1115.74 323.945 1115.72 324.28C1115.66 326.394 1116.45 327.999 1117.67 329.021C1118.88 330.024 1120.44 330.419 1121.86 330.247C1122.28 330.196 1122.61 329.852 1122.63 329.43C1122.7 328.269 1122.46 327.001 1121.75 325.549Z" fill="#202022" stroke="#F5D90A" stroke-width="1.74609" stroke-linejoin="round"/>
<path d="M1119.47 374.576C1119.41 374.352 1119.26 374.16 1119.06 374.043C1118.86 373.927 1118.62 373.895 1118.4 373.955C1117.23 374.267 1115.77 374.691 1114.52 375.345C1113.29 375.988 1112.08 376.957 1111.75 378.453C1111.68 378.744 1111.77 379.048 1111.98 379.258C1112.19 379.469 1112.5 379.558 1112.79 379.493C1114.81 379.046 1116.67 379.065 1118.47 379.42C1118.87 379.499 1119.27 379.292 1119.44 378.921C1120.05 377.546 1119.86 376.062 1119.47 374.576Z" fill="#202022" stroke="#F5D90A" stroke-width="1.74609" stroke-linejoin="round"/>
<path d="M1118.18 390.959C1118.28 391.286 1118.57 391.519 1118.91 391.555C1119.26 391.591 1119.59 391.423 1119.76 391.126C1120.61 389.662 1121.67 388.437 1122.98 387.259C1123.29 386.978 1123.35 386.514 1123.13 386.156C1122.39 384.933 1121.32 383.979 1120.33 383.492C1119.91 383.284 1119.4 383.447 1119.18 383.861C1118.65 384.837 1118.13 385.844 1117.88 386.989C1117.63 388.164 1117.68 389.434 1118.18 390.959Z" fill="#202022" stroke="#F5D90A" stroke-width="1.74609" stroke-linejoin="round"/>
<path d="M1135.72 387.096C1135.82 386.848 1135.8 386.569 1135.66 386.34C1135.53 386.111 1135.29 385.956 1135.03 385.919C1134.42 385.832 1133.63 385.883 1132.85 386.009C1132.06 386.136 1131.21 386.351 1130.45 386.631C1130.16 386.74 1129.95 386.996 1129.9 387.304C1129.71 388.386 1129.16 389.352 1128.3 390.497C1128.09 390.785 1128.07 391.177 1128.26 391.482C1128.45 391.788 1128.81 391.945 1129.17 391.878C1131.47 391.438 1132.97 390.678 1133.98 389.766C1135 388.851 1135.44 387.848 1135.72 387.096Z" fill="#202022" stroke="#F5D90A" stroke-width="1.74609" stroke-linejoin="round"/>
<path d="M1194.08 424.505C1193.92 424.316 1193.7 424.2 1193.46 424.182C1193.22 424.164 1192.98 424.247 1192.8 424.411C1192.68 424.523 1192.56 424.637 1192.43 424.752C1191.51 425.595 1190.49 426.53 1189.7 427.567C1188.79 428.767 1188.12 430.194 1188.25 431.91C1188.27 432.257 1188.5 432.556 1188.83 432.67C1189.16 432.784 1189.53 432.691 1189.76 432.433C1191.24 430.817 1193.07 430.24 1195.08 429.915C1195.52 429.845 1195.83 429.462 1195.82 429.022C1195.75 427.031 1195.05 425.707 1194.08 424.505Z" fill="#202022" stroke="#F5D90A" stroke-width="1.74609" stroke-linejoin="round"/>
</g>
</g>
</g>
<path d="M547.32 689.648V571.763H560.538V689.648H547.32ZM552.679 689.648V677.681H617.516V689.648H552.679Z" fill="white"/>
<path d="M508.765 689.648V571.763H522.339V689.648H508.765Z" fill="white"/>
<path d="M415.613 689.648V571.763H428.831V689.648H415.613ZM420.257 636.957V625.168H487.416V636.957H420.257ZM420.257 583.73V571.763H495.632V583.73H420.257Z" fill="white"/>
<path d="M1453.66 692.149C1445.92 692.149 1438.95 691.375 1432.76 689.827C1426.69 688.398 1421.45 686.195 1417.04 683.218C1412.76 680.122 1409.36 676.311 1406.86 671.787C1404.48 667.143 1403.11 661.844 1402.76 655.89L1425.26 648.567C1425.5 653.925 1426.81 658.39 1429.19 661.963C1431.69 665.535 1435.2 668.155 1439.73 669.822C1444.25 671.489 1449.31 672.322 1454.91 672.322C1460.27 672.322 1464.79 671.667 1468.49 670.358C1472.18 669.048 1474.98 667.321 1476.88 665.178C1478.79 662.915 1479.74 660.474 1479.74 657.855C1479.74 654.759 1478.55 652.258 1476.17 650.353C1473.78 648.448 1470.51 646.84 1466.34 645.53C1462.29 644.22 1457.65 642.97 1452.41 641.779C1446.58 640.47 1440.8 638.981 1435.08 637.314C1429.49 635.647 1424.37 633.504 1419.72 630.884C1415.2 628.264 1411.57 624.871 1408.83 620.703C1406.21 616.535 1404.9 611.296 1404.9 604.985C1404.9 597.721 1406.68 591.47 1410.26 586.23C1413.95 580.872 1419.31 576.704 1426.33 573.727C1433.36 570.75 1441.81 569.262 1451.7 569.262C1461.7 569.262 1470.21 570.75 1477.24 573.727C1484.38 576.585 1489.92 580.693 1493.85 586.052C1497.78 591.291 1499.92 597.543 1500.28 604.806L1477.06 611.236C1477.06 607.545 1476.46 604.33 1475.27 601.591C1474.08 598.852 1472.41 596.59 1470.27 594.804C1468.13 592.899 1465.45 591.47 1462.23 590.517C1459.14 589.564 1455.57 589.088 1451.52 589.088C1446.87 589.088 1442.82 589.684 1439.37 590.874C1436.04 592.065 1433.48 593.673 1431.69 595.697C1430.02 597.721 1429.19 600.103 1429.19 602.841C1429.19 606.057 1430.5 608.736 1433.12 610.879C1435.86 612.903 1439.43 614.57 1443.84 615.88C1448.36 617.19 1453.3 618.44 1458.66 619.631C1463.78 620.703 1468.96 622.072 1474.2 623.739C1479.56 625.287 1484.5 627.371 1489.03 629.991C1493.67 632.491 1497.36 635.945 1500.1 640.35C1502.96 644.637 1504.39 650.055 1504.39 656.604C1504.39 663.749 1502.48 670 1498.67 675.359C1494.86 680.717 1489.15 684.885 1481.52 687.862C1474.02 690.72 1464.73 692.149 1453.66 692.149Z" fill="white"/>
<path d="M1324.73 689.648V571.763H1350.45V689.648H1324.73ZM1330.09 689.648V668.036H1400.28V689.648H1330.09Z" fill="white"/>
<path d="M1220.94 689.648V571.763H1246.84V689.648H1220.94ZM1238.8 689.648V668.75H1311.85V689.648H1238.8ZM1238.8 639.636V620.524H1302.92V639.636H1238.8ZM1238.8 592.482V571.763H1311.5V592.482H1238.8Z" fill="white"/>
<path d="M1157.11 692.149C1149.37 692.149 1142.41 691.375 1136.21 689.827C1130.14 688.398 1124.9 686.195 1120.5 683.218C1116.21 680.122 1112.82 676.311 1110.32 671.787C1107.93 667.143 1106.56 661.844 1106.21 655.89L1128.71 648.567C1128.95 653.925 1130.26 658.39 1132.64 661.963C1135.14 665.535 1138.66 668.155 1143.18 669.822C1147.71 671.489 1152.77 672.322 1158.36 672.322C1163.72 672.322 1168.25 671.667 1171.94 670.358C1175.63 669.048 1178.43 667.321 1180.33 665.178C1182.24 662.915 1183.19 660.474 1183.19 657.855C1183.19 654.759 1182 652.258 1179.62 650.353C1177.24 648.448 1173.96 646.84 1169.79 645.53C1165.75 644.22 1161.1 642.97 1155.86 641.779C1150.03 640.47 1144.25 638.981 1138.54 637.314C1132.94 635.647 1127.82 633.504 1123.18 630.884C1118.65 628.264 1115.02 624.871 1112.28 620.703C1109.66 616.535 1108.35 611.296 1108.35 604.985C1108.35 597.721 1110.14 591.47 1113.71 586.23C1117.4 580.872 1122.76 576.704 1129.78 573.727C1136.81 570.75 1145.26 569.262 1155.15 569.262C1165.15 569.262 1173.66 570.75 1180.69 573.727C1187.83 576.585 1193.37 580.693 1197.3 586.052C1201.23 591.291 1203.37 597.543 1203.73 604.806L1180.51 611.236C1180.51 607.545 1179.92 604.33 1178.72 601.591C1177.53 598.852 1175.87 596.59 1173.72 594.804C1171.58 592.899 1168.9 591.47 1165.69 590.517C1162.59 589.564 1159.02 589.088 1154.97 589.088C1150.32 589.088 1146.28 589.684 1142.82 590.874C1139.49 592.065 1136.93 593.673 1135.14 595.697C1133.48 597.721 1132.64 600.103 1132.64 602.841C1132.64 606.057 1133.95 608.736 1136.57 610.879C1139.31 612.903 1142.88 614.57 1147.29 615.88C1151.81 617.19 1156.75 618.44 1162.11 619.631C1167.23 620.703 1172.41 622.072 1177.65 623.739C1183.01 625.287 1187.95 627.371 1192.48 629.991C1197.12 632.491 1200.81 635.945 1203.55 640.35C1206.41 644.637 1207.84 650.055 1207.84 656.604C1207.84 663.749 1205.93 670 1202.12 675.359C1198.31 680.717 1192.6 684.885 1184.98 687.862C1177.47 690.72 1168.19 692.149 1157.11 692.149Z" fill="white"/>
<path d="M1045.99 692.149C1038.25 692.149 1031.29 691.375 1025.1 689.827C1019.02 688.398 1013.78 686.195 1009.38 683.218C1005.09 680.122 1001.7 676.311 999.197 671.787C996.816 667.143 995.447 661.844 995.089 655.89L1017.59 648.567C1017.83 653.925 1019.14 658.39 1021.52 661.963C1024.02 665.535 1027.54 668.155 1032.06 669.822C1036.59 671.489 1041.65 672.322 1047.24 672.322C1052.6 672.322 1057.13 671.667 1060.82 670.358C1064.51 669.048 1067.31 667.321 1069.21 665.178C1071.12 662.915 1072.07 660.474 1072.07 657.855C1072.07 654.759 1070.88 652.258 1068.5 650.353C1066.12 648.448 1062.84 646.84 1058.68 645.53C1054.63 644.22 1049.98 642.97 1044.74 641.779C1038.91 640.47 1033.13 638.981 1027.42 637.314C1021.82 635.647 1016.7 633.504 1012.06 630.884C1007.53 628.264 1003.9 624.871 1001.16 620.703C998.543 616.535 997.233 611.296 997.233 604.985C997.233 597.721 999.019 591.47 1002.59 586.23C1006.28 580.872 1011.64 576.704 1018.67 573.727C1025.69 570.75 1034.15 569.262 1044.03 569.262C1054.03 569.262 1062.55 570.75 1069.57 573.727C1076.72 576.585 1082.25 580.693 1086.18 586.052C1090.11 591.291 1092.26 597.543 1092.61 604.806L1069.39 611.236C1069.39 607.545 1068.8 604.33 1067.61 601.591C1066.42 598.852 1064.75 596.59 1062.61 594.804C1060.46 592.899 1057.78 591.47 1054.57 590.517C1051.47 589.564 1047.9 589.088 1043.85 589.088C1039.21 589.088 1035.16 589.684 1031.71 590.874C1028.37 592.065 1025.81 593.673 1024.02 595.697C1022.36 597.721 1021.52 600.103 1021.52 602.841C1021.52 606.057 1022.83 608.736 1025.45 610.879C1028.19 612.903 1031.76 614.57 1036.17 615.88C1040.7 617.19 1045.64 618.44 1051 619.631C1056.12 620.703 1061.3 622.072 1066.53 623.739C1071.89 625.287 1076.84 627.371 1081.36 629.991C1086 632.491 1089.7 635.945 1092.43 640.35C1095.29 644.637 1096.72 650.055 1096.72 656.604C1096.72 663.749 1094.82 670 1091.01 675.359C1087.19 680.717 1081.48 684.885 1073.86 687.862C1066.36 690.72 1057.07 692.149 1045.99 692.149Z" fill="white"/>
<path d="M929.799 692.149C922.535 692.149 916.046 691.375 910.33 689.827C904.733 688.398 899.851 686.314 895.684 683.575C891.516 680.717 888.003 677.324 885.145 673.394C882.407 669.346 880.323 664.821 878.894 659.819C877.584 654.818 876.929 649.341 876.929 643.387V571.763H902.828V642.494C902.828 648.567 903.781 653.627 905.686 657.676C907.71 661.606 910.687 664.523 914.617 666.428C918.546 668.333 923.547 669.286 929.62 669.286C935.812 669.286 940.873 668.333 944.802 666.428C948.851 664.523 951.828 661.606 953.733 657.676C955.757 653.627 956.77 648.567 956.77 642.494V571.763H982.311V643.387C982.311 658.867 977.906 670.893 969.094 679.467C960.401 687.921 947.303 692.149 929.799 692.149Z" fill="white"/>
<path d="M763.909 689.648V571.763H811.778C818.208 571.763 824.043 572.298 829.282 573.37C834.522 574.323 839.166 575.752 843.214 577.657C847.263 579.562 850.656 581.944 853.395 584.801C856.253 587.54 858.396 590.755 859.825 594.447C861.254 598.019 861.969 602.008 861.969 606.414C861.969 610.581 861.314 614.392 860.004 617.845C858.694 621.179 856.729 624.097 854.11 626.597C851.49 629.098 848.215 631.182 844.286 632.849C840.356 634.397 835.772 635.468 830.533 636.064V638.743C836.605 639.338 841.428 640.767 845 643.03C848.692 645.173 851.549 648.09 853.574 651.782C855.717 655.473 857.563 660.058 859.111 665.535L866.255 689.648H837.856L832.319 667.321C831.247 662.558 829.699 658.867 827.675 656.247C825.65 653.508 823.09 651.603 819.994 650.531C816.898 649.341 813.147 648.745 808.742 648.745H789.63V689.648H763.909ZM789.63 629.455H809.992C818.089 629.455 824.341 627.907 828.746 624.811C833.152 621.715 835.355 616.892 835.355 610.343C835.355 603.913 833.271 599.21 829.104 596.233C825.055 593.137 818.923 591.589 810.706 591.589H789.63V629.455Z" fill="white"/>
<path d="M649.129 689.648V571.763H698.069C705.333 571.763 711.822 572.417 717.538 573.727C723.254 574.918 728.136 576.764 732.184 579.264C736.352 581.765 739.508 585.04 741.651 589.088C743.913 593.018 745.045 597.721 745.045 603.199C745.045 607.843 744.033 611.891 742.008 615.344C740.103 618.798 737.067 621.596 732.899 623.739C728.85 625.883 723.492 627.371 716.824 628.205V630.884C728.136 631.717 736.412 634.575 741.651 639.457C747.009 644.22 749.689 650.651 749.689 658.748C749.689 665.535 747.902 671.251 744.33 675.895C740.877 680.42 735.638 683.873 728.612 686.254C721.587 688.517 712.894 689.648 702.534 689.648H649.129ZM673.599 668.929H702.177C709.798 668.929 715.454 667.798 719.146 665.535C722.837 663.154 724.683 659.522 724.683 654.64C724.683 649.043 722.361 644.875 717.717 642.137C713.073 639.279 706.047 637.85 696.64 637.85H673.599V668.929ZM673.599 621.775H692.889C702.177 621.775 708.965 620.524 713.251 618.024C717.657 615.404 719.86 611.594 719.86 606.592C719.86 601.591 717.895 597.959 713.966 595.697C710.036 593.315 704.023 592.125 695.926 592.125H673.599V621.775Z" fill="white"/>
<defs>
<clipPath id="clip0_4066_40838">
<rect width="232.812" height="232.812" fill="white" transform="translate(624.727 254.174)"/>
</clipPath>
<clipPath id="clip1_4066_40838">
<rect width="174.609" height="105.719" fill="white" transform="translate(654.392 313.54)"/>
</clipPath>
<clipPath id="clip2_4066_40838">
<rect width="232.467" height="232.467" fill="white" transform="translate(624.727 254.346)"/>
</clipPath>
<clipPath id="clip3_4066_40838">
<rect width="232.812" height="232.812" fill="white" transform="translate(1062.15 254.174)"/>
</clipPath>
<clipPath id="clip4_4066_40838">
<rect width="133.035" height="139.687" fill="white" transform="translate(1112.6 301.299)"/>
</clipPath>
</defs>
</svg>
