<svg width="1920" height="960" viewBox="0 0 1920 960" fill="none" xmlns="http://www.w3.org/2000/svg">
<path fill-rule="evenodd" clip-rule="evenodd" d="M857.677 319.351C851.248 303.845 848.452 287.073 849.504 270.314C850.556 253.556 855.427 237.263 863.747 222.688C852.725 209.177 837.87 199.314 821.126 194.402C804.394 189.491 786.556 189.757 769.984 195.174C753.399 200.592 738.851 210.895 728.242 224.738C717.633 238.581 711.457 255.313 710.539 272.724C709.62 290.147 713.986 307.424 723.077 322.32C732.169 337.202 745.546 348.995 761.466 356.129C777.385 363.264 795.089 365.42 812.246 362.292C829.405 359.178 845.218 350.938 857.61 338.653C859.794 336.483 861.856 334.193 863.787 331.784C861.498 327.764 859.447 323.611 857.677 319.338V319.351Z" fill="#FF8700"/>
<path fill-rule="evenodd" clip-rule="evenodd" d="M1194.84 229.65C1187.8 218.934 1178.46 209.91 1167.49 203.254C1156.54 196.585 1144.22 192.446 1131.47 191.115C1118.72 189.783 1105.82 191.314 1093.72 195.587C1081.62 199.86 1070.63 206.755 1061.53 215.793C1059.35 217.976 1057.28 220.265 1055.33 222.661C1064.78 239.287 1069.75 258.095 1069.75 277.223C1069.75 296.35 1064.78 315.146 1055.33 331.784C1069.38 348.888 1089.42 359.963 1111.37 362.732C1133.32 365.5 1155.5 359.763 1173.36 346.705C1191.21 333.635 1203.38 314.227 1207.37 292.464C1211.35 270.7 1206.85 248.232 1194.79 229.689L1194.86 229.663L1194.84 229.65Z" fill="#E3AB28"/>
<path fill-rule="evenodd" clip-rule="evenodd" d="M959.785 377.706C936.57 377.706 914.089 369.653 896.159 354.918C878.229 340.183 865.956 319.684 861.457 296.922C856.945 274.161 860.485 250.534 871.454 230.075C882.422 209.616 900.153 193.603 921.596 184.765C943.053 175.927 966.92 174.795 989.109 181.57C1011.3 188.359 1030.45 202.628 1043.3 221.956C1056.14 241.283 1061.88 264.471 1059.55 287.565C1057.21 310.66 1046.93 332.222 1030.47 348.582C1011.66 367.217 986.26 377.693 959.785 377.72V377.706Z" fill="#0090FF"/>
<path fill-rule="evenodd" clip-rule="evenodd" d="M968.979 265.895L995.122 269.568C995.841 266.933 996.493 264.657 997.212 262.074L970.151 258.055C973.199 247.06 975.995 236.398 979.282 226.029C980.627 222.541 982.691 219.373 985.366 216.764C986.058 215.979 986.936 215.367 987.921 214.981C988.907 214.595 989.958 214.461 991.009 214.581C992.061 214.688 993.06 215.047 993.952 215.619C994.83 216.179 995.562 216.951 996.094 217.869C997.212 219.533 998.45 221.104 999.795 222.581C1000.53 223.5 1001.59 224.112 1002.76 224.272C1003.93 224.431 1005.12 224.152 1006.08 223.46C1007.26 222.328 1007.22 219.719 1007.32 217.736C1007.32 216.951 1006.44 216.005 1005.74 215.287C1004.25 213.703 1002.46 212.438 1000.47 211.573C998.477 210.708 996.333 210.268 994.15 210.268C984.115 209.829 976.873 214.981 971.296 222.688C965.719 230.395 963.243 239.339 960.567 248.231C959.782 250.853 959.103 253.462 958.358 256.324L929.607 252.158C929.273 254.767 928.928 257.203 928.608 259.812L956.68 264.138C955.443 269.462 954.258 274.44 953.033 279.512L926.212 275.771C925.853 278.633 925.587 280.776 925.24 283.305L951.33 287.245C951.396 287.937 951.396 288.63 951.33 289.322C948.601 301.008 946.045 312.882 942.944 324.409C941.746 330.16 938.751 335.391 934.412 339.344C933.679 340.103 932.788 340.689 931.79 341.048C930.285 341.58 928.647 341.58 927.144 341.034C925.64 340.489 924.389 339.425 923.589 338.053C922.512 336.136 921.154 334.379 919.557 332.848C918.318 331.943 915.55 331.398 914.645 332.13C913.926 332.809 913.367 333.633 912.981 334.552C912.595 335.457 912.409 336.442 912.409 337.427C912.822 339.264 913.899 340.861 915.457 341.927C917.693 343.564 920.249 344.681 922.964 345.215C925.679 345.747 928.475 345.653 931.164 344.962C935.543 344.109 939.642 342.206 943.13 339.438C946.617 336.669 949.386 333.088 951.209 329.028C954.311 322.413 956.933 315.597 959.063 308.609C961.14 302.327 962.538 295.871 964.268 289.295L991.609 293.275C992.367 290.666 993.033 288.27 993.765 285.701L965.732 281.575C966.904 276.051 967.928 271.219 969.033 265.935L968.979 265.895Z" fill="white"/>
<path fill-rule="evenodd" clip-rule="evenodd" d="M769.723 254.984C769.812 255.019 769.897 255.054 769.991 255.089C770.285 255.208 770.617 255.089 770.777 254.815C773.442 250.221 778.425 247.128 784.133 247.128C787.28 247.128 790.219 248.073 792.666 249.694L792.864 249.823L793.043 249.972C793.093 250.012 793.148 250.056 793.212 250.106C793.804 250.559 794.326 251.041 794.788 251.533C795.043 251.807 795.48 251.812 795.743 251.543C796.166 251.111 796.638 250.683 797.165 250.27L797.225 250.221C799.811 248.276 803.032 247.118 806.514 247.118C812.223 247.118 817.205 250.211 819.869 254.805C820.029 255.079 820.363 255.193 820.656 255.079C820.8 255.024 820.934 254.969 821.069 254.915C821.426 254.78 821.585 254.353 821.396 254.02C820.854 253.06 820.243 251.891 819.571 250.618C816.687 245.119 812.739 237.606 808.707 235.84C806.589 234.915 804.42 234.204 802.213 233.712C801.959 233.657 801.769 233.449 801.72 233.19C801.282 230.803 799.622 228.844 797.409 227.979C797.165 227.884 796.992 227.656 796.992 227.392V225.393C796.992 224.225 796.042 223.28 794.874 223.28C793.705 223.28 792.754 224.225 792.754 225.393V227.392C792.754 227.656 792.585 227.884 792.337 227.979C790.079 228.859 788.399 230.878 788.001 233.329C787.961 233.583 787.778 233.797 787.524 233.861C785.599 234.334 783.685 234.99 781.786 235.835C777.902 237.571 774.347 244.512 771.593 249.897C770.786 251.474 770.046 252.921 769.385 254.059C769.191 254.393 769.344 254.825 769.707 254.964L769.723 254.984Z" fill="white"/>
<path fill-rule="evenodd" clip-rule="evenodd" d="M841.893 260.096C841.867 259.684 841.449 259.445 841.077 259.614C838.635 260.728 830.749 264.601 823.599 270.996C823.518 271.066 823.434 271.11 823.34 271.135C823.892 270.399 824.404 269.569 824.851 268.664C826.712 264.91 825.15 260.206 824.578 258.749C824.474 258.48 824.19 258.346 823.917 258.426C822.947 258.704 820.67 259.47 818.666 260.976C818.253 261.285 817.611 261.031 817.523 260.529C817.333 259.47 816.986 258.465 816.517 257.536C816.513 257.516 816.508 257.501 816.498 257.481C816.483 257.451 816.468 257.421 816.448 257.386L816.438 257.371C816.384 257.267 816.319 257.163 816.264 257.063C816.219 256.984 816.174 256.899 816.129 256.824C815.985 256.586 815.836 256.352 815.678 256.123C815.673 256.113 815.662 256.103 815.658 256.093C815.488 255.86 815.315 255.631 815.13 255.407C815.071 255.338 815.011 255.273 814.952 255.203C814.817 255.049 814.683 254.9 814.539 254.756C814.469 254.686 814.399 254.612 814.33 254.547C814.18 254.398 814.022 254.259 813.862 254.119C813.803 254.065 813.743 254.01 813.679 253.96C813.454 253.776 813.231 253.597 812.992 253.433C812.947 253.403 812.897 253.374 812.854 253.339C812.66 253.205 812.46 253.075 812.256 252.956C812.171 252.906 812.087 252.861 812.008 252.812C811.828 252.712 811.65 252.618 811.465 252.528C811.377 252.484 811.291 252.444 811.203 252.399C810.989 252.3 810.77 252.21 810.546 252.12C810.491 252.101 810.441 252.076 810.387 252.056C810.109 251.956 809.83 251.862 809.541 251.782C809.467 251.762 809.387 251.743 809.308 251.723C809.094 251.668 808.875 251.618 808.656 251.573C808.557 251.554 808.458 251.539 808.353 251.519C808.14 251.484 807.93 251.454 807.712 251.434C807.617 251.424 807.522 251.414 807.428 251.404C807.12 251.38 806.812 251.365 806.498 251.365C805.867 251.365 805.245 251.419 804.644 251.519C804.042 251.618 803.451 251.767 802.883 251.961C802.316 252.155 801.769 252.389 801.247 252.668C800.725 252.946 800.228 253.259 799.761 253.612C799.596 253.741 799.437 253.876 799.288 254.01C799.249 254.045 799.213 254.08 799.174 254.114C799.044 254.234 798.92 254.353 798.801 254.472C798.786 254.487 798.766 254.502 798.751 254.522C798.622 254.656 798.498 254.796 798.378 254.93C798.349 254.965 798.324 255 798.293 255.034C798.2 255.149 798.105 255.268 798.02 255.382C798 255.407 797.981 255.432 797.961 255.462C797.862 255.601 797.767 255.74 797.677 255.875C797.657 255.905 797.637 255.939 797.618 255.969C797.582 256.024 797.543 256.084 797.513 256.138C797.498 256.168 797.483 256.193 797.468 256.223C797.349 256.432 797.239 256.64 797.14 256.844V256.849C797.041 257.058 796.962 257.262 796.881 257.471C796.872 257.496 796.861 257.521 796.852 257.545C796.852 257.555 796.852 257.56 796.847 257.57C796.429 258.714 796.285 259.793 796.17 260.648C796.161 260.713 796.155 260.773 796.146 260.837C796.136 260.897 796.13 260.957 796.121 261.016C796.111 261.076 796.105 261.131 796.096 261.19C796.086 261.245 796.081 261.3 796.071 261.354C796.062 261.404 796.051 261.459 796.046 261.509C796.037 261.558 796.026 261.608 796.017 261.653C796.006 261.697 795.997 261.742 795.986 261.787C795.976 261.827 795.961 261.871 795.952 261.911C795.942 261.951 795.927 261.991 795.911 262.026C795.897 262.06 795.882 262.095 795.868 262.13C795.852 262.16 795.837 262.195 795.818 262.225C795.803 262.254 795.783 262.279 795.762 262.304C795.742 262.329 795.723 262.354 795.703 262.374C795.683 262.394 795.658 262.413 795.633 262.428C795.609 262.443 795.584 262.458 795.559 262.473C795.529 262.483 795.505 262.493 795.474 262.503C795.444 262.513 795.41 262.518 795.379 262.518C795.37 262.518 795.36 262.518 795.35 262.518H795.33C795.33 262.518 795.32 262.518 795.311 262.518C795.3 262.518 795.295 262.518 795.286 262.518C795.27 262.518 795.255 262.518 795.236 262.518C795.205 262.518 795.176 262.508 795.146 262.498C795.117 262.488 795.092 262.478 795.061 262.468C795.036 262.458 795.007 262.443 794.982 262.423C794.957 262.409 794.932 262.389 794.912 262.369C794.887 262.349 794.867 262.324 794.848 262.299C794.828 262.274 794.803 262.249 794.788 262.22C794.768 262.19 794.749 262.16 794.729 262.13C794.709 262.095 794.693 262.065 794.673 262.031C794.654 261.996 794.639 261.956 794.624 261.921C794.609 261.881 794.594 261.842 794.58 261.802C794.564 261.757 794.549 261.717 794.535 261.673C794.519 261.628 794.504 261.578 794.495 261.533C794.479 261.484 794.47 261.434 794.454 261.384C794.44 261.334 794.43 261.28 794.415 261.23C794.4 261.175 794.391 261.121 794.38 261.066C794.366 261.011 794.355 260.952 794.346 260.897C794.336 260.837 794.321 260.778 794.31 260.718C794.301 260.658 794.285 260.594 794.276 260.534C794.26 260.469 794.251 260.405 794.242 260.34V260.325C794.082 259.515 793.893 258.55 793.54 257.555C793.54 257.555 793.54 257.545 793.54 257.536C793.536 257.521 793.525 257.501 793.52 257.486C793.446 257.277 793.361 257.068 793.272 256.859C793.256 256.819 793.236 256.78 793.216 256.745C793.132 256.551 793.033 256.362 792.934 256.168C792.918 256.143 792.909 256.118 792.898 256.093C792.889 256.079 792.884 256.064 792.873 256.054C792.854 256.019 792.834 255.979 792.809 255.944C792.749 255.845 792.69 255.74 792.625 255.641C792.595 255.596 792.571 255.551 792.541 255.507C792.476 255.407 792.406 255.308 792.332 255.208C792.307 255.174 792.282 255.139 792.257 255.104C792.158 254.97 792.054 254.84 791.944 254.711C791.924 254.686 791.899 254.661 791.879 254.637C791.79 254.532 791.695 254.428 791.596 254.328C791.556 254.289 791.517 254.249 791.477 254.209C791.387 254.119 791.292 254.03 791.198 253.945C791.158 253.906 791.118 253.871 791.073 253.831C790.935 253.712 790.795 253.592 790.64 253.478C790.532 253.393 790.428 253.309 790.328 253.224C790.104 253.075 789.88 252.936 789.647 252.807C788.021 251.887 786.141 251.365 784.137 251.365C783.824 251.365 783.515 251.38 783.208 251.404C783.113 251.414 783.019 251.424 782.924 251.434C782.71 251.459 782.496 251.484 782.283 251.519C782.182 251.534 782.083 251.554 781.979 251.573C781.76 251.618 781.541 251.668 781.327 251.723C781.253 251.743 781.174 251.758 781.099 251.782C780.811 251.862 780.531 251.951 780.254 252.056C780.199 252.076 780.149 252.101 780.094 252.12C779.87 252.205 779.652 252.3 779.438 252.399C779.349 252.439 779.264 252.484 779.18 252.523C778.995 252.613 778.817 252.707 778.638 252.812C778.553 252.856 778.474 252.906 778.389 252.956C778.185 253.08 777.986 253.21 777.788 253.344C777.743 253.374 777.698 253.403 777.653 253.433C777.414 253.602 777.191 253.776 776.967 253.965C776.907 254.015 776.848 254.07 776.787 254.119C776.629 254.259 776.469 254.403 776.315 254.552C776.246 254.622 776.176 254.691 776.106 254.761C775.962 254.91 775.823 255.059 775.689 255.213C775.63 255.278 775.569 255.348 775.515 255.412C775.33 255.636 775.152 255.865 774.983 256.098C774.983 256.098 774.973 256.108 774.973 256.118C774.809 256.352 774.66 256.591 774.511 256.834C774.466 256.909 774.421 256.989 774.376 257.068C774.317 257.172 774.252 257.277 774.197 257.381L774.187 257.396C774.173 257.426 774.157 257.456 774.137 257.491C774.128 257.511 774.123 257.531 774.118 257.545C773.65 258.48 773.302 259.48 773.113 260.539C773.024 261.041 772.377 261.295 771.969 260.986C769.966 259.48 767.688 258.714 766.719 258.436C766.445 258.356 766.161 258.495 766.057 258.759C765.485 260.216 763.924 264.92 765.784 268.674C766.141 269.395 766.54 270.071 766.967 270.688C759.916 264.477 752.243 260.718 749.847 259.624C749.474 259.455 749.056 259.694 749.031 260.106C748.753 264.442 747.719 284.979 751.985 296.152C755.446 305.217 760.911 311.029 767.072 312.063C767.345 312.108 767.559 312.332 767.598 312.6C769.31 324.499 776.117 324.803 783.147 322.834C791.272 320.561 795.624 323.291 795.624 323.291C795.624 323.291 799.93 320.561 807.965 322.834C814.916 324.803 821.659 324.499 823.349 312.595C823.39 312.322 823.604 312.103 823.872 312.058C830.023 311.014 835.478 305.202 838.939 296.152C843.21 284.974 842.171 264.442 841.893 260.106V260.096ZM770.702 269.285C769.955 268.385 770.085 267.058 770.985 266.312C771.885 265.571 773.223 265.695 773.963 266.595L775.56 268.525C780.129 265.482 784.108 265.432 787.14 266.546C788.761 267.137 790 268.022 790.825 268.743C791.691 269.504 792.735 270.414 792.571 271.697C792.496 272.259 792.198 272.771 791.74 273.109C790.805 273.805 789.487 273.616 788.786 272.692C788.786 272.692 788.777 272.682 788.766 272.667C788.741 272.637 788.696 272.582 788.632 272.513C788.503 272.373 788.304 272.16 788.03 271.926C787.484 271.448 786.688 270.887 785.678 270.519C783.829 269.842 780.781 269.629 776.53 273.06C775.63 273.786 774.306 273.656 773.566 272.761L770.692 269.29L770.702 269.285ZM811.799 314.426C810.069 316.161 807.458 317.32 804.211 316.648C801.282 316.041 799.199 316.29 797.911 316.628C797.264 316.797 796.802 316.996 796.529 317.135C796.389 317.205 796.299 317.259 796.25 317.289C796.235 317.3 796.22 317.309 796.22 317.309C795.489 317.837 794.499 317.846 793.759 317.325H793.748C793.748 317.325 793.705 317.289 793.664 317.264C793.579 317.21 793.435 317.126 793.242 317.027C792.859 316.822 792.287 316.564 791.576 316.36C790.159 315.947 788.229 315.748 786.071 316.564C784.316 317.225 781.616 317.429 779.309 316.345C778.1 315.773 776.997 314.843 776.256 313.456C775.524 312.083 775.242 310.412 775.406 308.488C775.505 307.324 776.529 306.465 777.698 306.564C778.862 306.663 779.726 307.687 779.627 308.846C779.513 310.159 779.732 310.975 780 311.476C780.258 311.964 780.637 312.297 781.119 312.521C782.188 313.023 783.67 312.954 784.57 312.611C787.796 311.393 790.701 311.7 792.764 312.302C793.68 312.57 794.44 312.899 795.011 313.182C795.489 312.969 796.096 312.74 796.831 312.546C798.751 312.038 801.5 311.775 805.071 312.516C806.747 312.864 807.946 312.307 808.796 311.452C809.74 310.507 810.143 309.289 810.143 308.662C810.143 307.498 811.093 306.549 812.261 306.549C813.43 306.549 814.379 307.493 814.379 308.662C814.379 310.532 813.44 312.784 811.803 314.426H811.799ZM813.822 284.949C813.698 285.093 813.639 285.282 813.664 285.471C814.002 287.922 813.838 292.815 808.427 296.549C807.687 297.062 806.771 297.454 805.777 297.758C805.618 297.808 805.484 297.912 805.414 298.061C805.12 298.668 804.883 299.419 805.026 300.065C805.285 301.228 805.677 301.462 806.901 302.204C807.11 302.328 807.339 302.466 807.597 302.626C808.323 303.079 808.099 303.447 807.294 303.53C805.862 303.679 804.27 302.775 803.057 301.417C802.366 300.647 802.008 299.816 801.824 299.085C801.744 298.772 801.457 298.543 801.133 298.573C798.254 298.817 795.723 298.652 795.36 298.627C795.33 298.627 795.3 298.627 795.27 298.627C794.907 298.652 792.392 298.812 789.503 298.578C789.179 298.553 788.896 298.778 788.816 299.09C788.632 299.822 788.274 300.647 787.588 301.417C786.38 302.775 784.783 303.679 783.352 303.53C782.545 303.447 782.322 303.079 783.048 302.626C783.307 302.466 783.535 302.328 783.745 302.204C784.967 301.462 785.36 301.223 785.619 300.065C785.759 299.443 785.54 298.722 785.261 298.126C785.191 297.971 785.047 297.862 784.884 297.813C783.794 297.504 782.789 297.091 781.988 296.545C776.256 292.651 776.32 287.504 776.713 285.167C776.744 284.988 776.694 284.809 776.589 284.665C776.002 283.865 775.654 282.88 775.654 281.811C775.654 279.146 777.822 276.983 780.492 276.983C783.163 276.983 785.331 279.146 785.331 281.811C785.331 284.476 783.163 286.639 780.492 286.639C780.164 286.639 779.906 286.953 780.03 287.256C780.786 289.096 782.606 292.094 786.429 292.094C791.203 292.094 794.366 291.313 795.131 291.105C795.25 291.07 795.37 291.07 795.489 291.105C796.245 291.313 799.353 292.094 804.047 292.094C807.96 292.094 809.74 288.852 810.432 287.042C810.506 286.843 810.342 286.639 810.134 286.639C807.458 286.639 805.295 284.481 805.295 281.811C805.295 279.141 807.463 276.983 810.134 276.983C812.803 276.983 814.972 279.146 814.972 281.811C814.972 283.004 814.534 284.098 813.813 284.944L813.822 284.949ZM819.79 269.285L816.916 272.756C816.174 273.646 814.852 273.781 813.952 273.055C809.701 269.624 806.658 269.832 804.802 270.514C803.794 270.882 803.002 271.443 802.45 271.921C802.177 272.16 801.978 272.368 801.849 272.508C801.784 272.577 801.739 272.632 801.719 272.662L801.71 272.672L801.7 272.687C800.999 273.611 799.68 273.8 798.746 273.104C798.304 272.776 798.006 272.279 797.925 271.737C797.866 271.344 797.916 270.926 798.065 270.558C798.219 270.175 798.518 269.877 798.796 269.579C799.075 269.285 799.358 269.002 799.661 268.738C800.487 268.017 801.725 267.132 803.345 266.541C806.379 265.432 810.362 265.477 814.927 268.52L816.523 266.59C817.268 265.69 818.601 265.566 819.501 266.307C820.401 267.048 820.53 268.38 819.785 269.28L819.79 269.285Z" fill="white"/>
<path d="M1125.73 229.152H1127.47C1128.43 229.152 1129.21 229.932 1129.21 230.895V247.786L1130.53 252.856H1115.77L1117.37 247.014V230.895C1117.37 229.932 1118.15 229.152 1119.11 229.152H1120.85V224.62C1120.85 223.272 1121.94 222.18 1123.29 222.18C1124.63 222.18 1125.73 223.272 1125.73 224.62V229.152Z" fill="white"/>
<path fill-rule="evenodd" clip-rule="evenodd" d="M1114.59 257.737H1131.64V269.935L1135.51 284.927H1111.13L1114.59 272.164V257.737ZM1121.89 261.223C1121.89 261.03 1122.05 260.874 1122.24 260.874H1124.33C1124.52 260.874 1124.68 261.03 1124.68 261.223V271.332C1124.68 271.525 1124.52 271.681 1124.33 271.681H1122.24C1122.05 271.681 1121.89 271.525 1121.89 271.332V261.223Z" fill="white"/>
<path d="M1110.94 289.808C1111.23 290.025 1111.59 290.156 1111.99 290.156H1134.62C1135.01 290.156 1135.37 290.025 1135.66 289.808H1110.94Z" fill="white"/>
<path fill-rule="evenodd" clip-rule="evenodd" d="M1105.09 289.808H1140.88L1151.97 318.815C1152.41 319.956 1151.57 321.181 1150.34 321.181H1096.19C1094.98 321.181 1094.14 319.98 1094.55 318.843L1105.09 289.808ZM1117.02 300.963C1116.83 300.963 1116.67 301.118 1116.67 301.311V314.21C1116.67 314.402 1116.83 314.558 1117.02 314.558H1119.11C1119.3 314.558 1119.46 314.402 1119.46 314.21V301.311C1119.46 301.118 1119.3 300.963 1119.11 300.963H1117.02ZM1122.24 300.963C1122.05 300.963 1121.9 301.118 1121.9 301.311V314.21C1121.9 314.402 1122.05 314.558 1122.24 314.558H1124.33C1124.52 314.558 1124.68 314.402 1124.68 314.21V301.311C1124.68 301.118 1124.52 300.963 1124.33 300.963H1122.24ZM1127.12 301.311C1127.12 301.118 1127.27 300.963 1127.47 300.963H1129.55C1129.75 300.963 1129.9 301.118 1129.9 301.311V314.21C1129.9 314.402 1129.75 314.558 1129.55 314.558H1127.47C1127.27 314.558 1127.12 314.402 1127.12 314.21V301.311Z" fill="white"/>
<path d="M1097.18 266.103C1096.99 266.103 1096.83 266.259 1096.83 266.451V268.98C1096.2 269.421 1095.79 270.154 1095.79 270.983V287.032C1095.75 287.116 1095.73 287.204 1095.7 287.294L1091.91 302.523L1090.08 294.973C1090.04 294.793 1089.97 294.625 1089.87 294.473V278.652C1089.87 277.823 1089.46 277.09 1088.83 276.649V274.12C1088.83 273.928 1088.67 273.772 1088.48 273.772H1086.39C1086.2 273.772 1086.04 273.928 1086.04 274.12V276.649C1085.41 277.09 1085 277.823 1085 278.652V294.701C1084.96 294.785 1084.94 294.873 1084.91 294.964L1080.39 313.163H1078.04V321.181H1089.8C1089.46 319.921 1089.48 318.537 1089.97 317.175L1093.27 308.088L1093.23 307.934H1093.32L1100.84 287.207C1100.8 287.063 1100.74 286.928 1100.66 286.804V270.983C1100.66 270.154 1100.25 269.421 1099.62 268.98V266.451C1099.62 266.259 1099.46 266.103 1099.27 266.103H1097.18Z" fill="white"/>
<path d="M1102.93 295.76L1098.51 307.935H1103.67C1104.8 307.935 1105.63 306.877 1105.36 305.78L1102.93 295.76Z" fill="white"/>
<path d="M1096.61 313.163L1094.55 318.843C1094.14 319.98 1094.98 321.181 1096.19 321.181L1098.58 321.181V313.163H1096.61Z" fill="white"/>
<path d="M1146.96 266.451C1146.96 266.259 1147.11 266.103 1147.31 266.103H1149.4C1149.59 266.103 1149.74 266.259 1149.74 266.451V268.98C1150.37 269.421 1150.79 270.154 1150.79 270.983V286.804C1150.88 286.956 1150.95 287.123 1151 287.303L1153.34 296.948L1153.83 294.964C1153.86 294.873 1153.88 294.785 1153.92 294.701V278.652C1153.92 277.823 1154.33 277.09 1154.96 276.649V274.12C1154.96 273.928 1155.12 273.772 1155.31 273.772H1157.4C1157.59 273.772 1157.75 273.928 1157.75 274.12V276.649C1158.38 277.09 1158.79 277.823 1158.79 278.652V294.473C1158.89 294.625 1158.96 294.793 1159 294.973L1163.42 313.163H1166.1V321.181H1156.73C1157.09 319.887 1157.06 318.462 1156.52 317.07L1145.56 288.381L1145.83 287.294C1145.85 287.204 1145.88 287.116 1145.92 287.032V270.983C1145.92 270.154 1146.33 269.421 1146.96 268.98V266.451Z" fill="white"/>
<path d="M1146.96 321.182L1150.34 321.181C1151.57 321.181 1152.41 319.956 1151.97 318.815L1149.5 312.363L1149.31 313.163H1146.96V321.182Z" fill="white"/>
<path d="M1147.81 307.935H1142.92C1141.78 307.935 1140.95 306.871 1141.23 305.771L1143.5 296.652L1147.81 307.935Z" fill="white"/>
<path d="M744.573 511.875V518.351H690.117V425.829H697.651V511.875H744.573Z" fill="white"/>
<path d="M657.258 425.829H664.792V518.351H657.258V425.829Z" fill="white"/>
<path d="M591.927 432.438V467.728H633.166V474.337H591.927V518.351H584.394V425.829H638.849V432.438H591.927Z" fill="white"/>
<path d="M1334.81 517.822C1332.6 518.968 1329.04 519.541 1324.1 519.541C1321.81 519.541 1319.96 519.188 1318.55 518.483C1317.23 517.866 1316.13 516.853 1315.25 515.443L1296.87 485.572C1295.38 483.105 1294.05 481.342 1292.91 480.285C1291.85 479.139 1290.57 478.39 1289.08 478.038C1287.58 477.597 1285.46 477.377 1282.73 477.377H1280.35V518.351H1263.57V425.829H1280.35V465.614H1287.09H1288.15L1315.64 425.829H1333.75L1302.42 469.843C1305.95 472.222 1309.25 475.967 1312.34 481.078L1334.81 517.822Z" fill="white"/>
<path d="M1211.66 519.673C1199.15 519.673 1189.41 515.487 1182.45 507.116C1175.58 498.657 1172.14 486.805 1172.14 471.561C1172.14 456.582 1175.58 444.994 1182.45 436.8C1189.41 428.605 1199.15 424.507 1211.66 424.507C1224.17 424.507 1233.87 428.605 1240.74 436.8C1247.7 444.994 1251.18 456.582 1251.18 471.561C1251.18 486.805 1247.7 498.657 1240.74 507.116C1233.87 515.487 1224.17 519.673 1211.66 519.673ZM1211.66 507.116C1219.24 507.116 1224.84 504.252 1228.45 498.525C1232.15 492.709 1234 483.721 1234 471.561C1234 459.666 1232.19 450.942 1228.58 445.391C1224.97 439.84 1219.33 437.064 1211.66 437.064C1204 437.064 1198.36 439.84 1194.74 445.391C1191.13 450.942 1189.32 459.666 1189.32 471.561C1189.32 483.721 1191.13 492.709 1194.74 498.525C1198.44 504.252 1204.08 507.116 1211.66 507.116Z" fill="white"/>
<path d="M1169.58 517.822C1167.38 518.968 1163.81 519.541 1158.87 519.541C1156.58 519.541 1154.73 519.188 1153.32 518.483C1152 517.866 1150.9 516.853 1150.02 515.443L1131.65 485.572C1130.15 483.105 1128.83 481.342 1127.68 480.285C1126.62 479.139 1125.34 478.39 1123.85 478.038C1122.35 477.597 1120.23 477.377 1117.5 477.377H1115.12V518.351H1098.34V425.829H1115.12V465.614H1121.86H1122.92L1150.41 425.829H1168.52L1137.2 469.843C1140.72 472.222 1144.03 475.967 1147.11 481.078L1169.58 517.822Z" fill="white"/>
<path d="M1084.1 468.125V508.702C1080.31 512.315 1075.64 515.047 1070.09 516.897C1064.63 518.748 1058.55 519.673 1051.85 519.673C1037.75 519.673 1027.05 515.663 1019.73 507.645C1012.51 499.626 1008.89 487.775 1008.89 472.09C1008.89 462.309 1010.66 453.85 1014.18 446.713C1017.71 439.575 1022.77 434.112 1029.38 430.323C1035.99 426.446 1043.79 424.507 1052.78 424.507C1059.3 424.507 1065.24 425.433 1070.62 427.283C1076.08 429.133 1080.44 431.777 1083.7 435.213C1082.91 437.593 1081.68 439.751 1080 441.69C1078.42 443.629 1077.01 444.598 1075.77 444.598C1074.72 444.598 1073.39 444.113 1071.81 443.144C1068.81 440.941 1065.77 439.355 1062.69 438.386C1059.6 437.416 1056.21 436.932 1052.51 436.932C1043.88 436.932 1037.31 439.928 1032.82 445.92C1028.32 451.911 1026.08 460.635 1026.08 472.09C1026.08 495.529 1034.62 507.248 1051.72 507.248C1055.15 507.248 1058.28 506.896 1061.1 506.191C1063.92 505.398 1066.08 504.385 1067.58 503.151V480.153H1055.95C1053.48 480.153 1051.76 479.272 1050.79 477.509C1049.82 475.659 1049.34 472.531 1049.34 468.125H1084.1Z" fill="white"/>
<path d="M996.699 500.243C996.699 502.975 996.787 506.191 996.963 509.892C997.139 512.359 997.227 513.989 997.227 514.782C997.227 517.161 996.082 518.351 993.791 518.351H980.177V512.932C980.177 508.526 978.459 503.636 975.022 498.261L940.921 448.96V518.351H924.399V425.829H939.071C940.216 425.829 941.141 426.005 941.846 426.358C942.551 426.622 943.3 427.327 944.093 428.473L980.177 480.285V425.829H996.699V500.243Z" fill="white"/>
<path d="M901.472 518.351C900.151 510.509 898.609 502.446 896.846 494.163H857.591C855.828 502.446 854.286 510.509 852.964 518.351H836.443C839.086 501.433 843.051 485.396 848.338 470.24C853.625 454.996 860.454 440.192 868.825 425.829H885.744C894.027 440.104 900.811 454.863 906.098 470.107C911.385 485.263 915.351 501.345 917.994 518.351H901.472ZM893.806 481.871C889.665 466.627 884.113 452.352 877.152 439.047C870.191 452.528 864.684 466.803 860.631 481.871H893.806Z" fill="white"/>
<path d="M818.854 470.504C823.612 471.826 827.445 474.469 830.353 478.434C833.349 482.312 834.847 486.761 834.847 491.784C834.847 500.243 831.939 506.808 826.124 511.478C820.396 516.06 812.201 518.351 801.539 518.351H767.967V425.829H800.218C809.646 425.829 817.048 428.12 822.423 432.702C827.886 437.196 830.618 443.32 830.618 451.074C830.618 455.568 829.56 459.578 827.445 463.102C825.331 466.539 822.467 469.006 818.854 470.504ZM813.699 451.074C813.699 442.263 808.016 437.857 796.649 437.857H784.753V465.217H796.252C802.244 465.217 806.65 464.072 809.47 461.78C812.289 459.489 813.699 455.921 813.699 451.074ZM798.367 506.323C803.302 506.323 807.179 505.883 809.998 505.001C812.818 504.032 814.845 502.534 816.078 500.508C817.312 498.393 817.929 495.485 817.929 491.784C817.929 486.497 816.387 482.752 813.303 480.549C810.307 478.258 805.24 477.113 798.103 477.113H784.753V506.323H798.367Z" fill="white"/>
<path fill-rule="evenodd" clip-rule="evenodd" d="M604.581 699.616L720.177 741.553L718.456 746.296L602.861 704.359L604.581 699.616Z" fill="white"/>
<path fill-rule="evenodd" clip-rule="evenodd" d="M604.583 699.614L647.728 620.352L652.159 622.764L609.014 702.026L604.583 699.614Z" fill="white"/>
<path d="M715.898 725.517C705.609 727.636 698.986 737.693 701.104 747.982C703.223 758.271 713.281 764.894 723.569 762.775C733.858 760.657 740.481 750.599 738.363 740.31C736.244 730.022 726.186 723.399 715.898 725.517Z" fill="#FF8700"/>
<path d="M643.837 602.747C633.549 604.865 626.925 614.923 629.044 625.212C631.162 635.5 641.22 642.123 651.509 640.005C661.798 637.886 668.421 627.829 666.302 617.54C664.184 607.251 654.126 600.628 643.837 602.747Z" fill="#E3AB28"/>
<path d="M603.777 685.424C593.488 687.543 586.865 697.601 588.984 707.889C591.102 718.178 601.16 724.801 611.449 722.682C621.737 720.564 628.361 710.506 626.242 700.217C624.124 689.929 614.066 683.306 603.777 685.424Z" fill="#0090FF"/>
<path d="M778.605 657.76C774.051 657.76 770.092 656.968 766.727 655.384C763.427 653.8 760.689 651.689 758.511 649.049C756.333 646.344 754.684 643.374 753.562 640.141C752.506 636.907 751.978 633.674 751.978 630.44V628.658C751.978 625.293 752.506 621.994 753.562 618.76C754.684 615.527 756.333 612.623 758.511 610.049C760.755 607.41 763.526 605.298 766.826 603.715C770.125 602.131 773.985 601.339 778.407 601.339C782.828 601.339 786.787 602.164 790.285 603.814C793.848 605.463 796.686 607.806 798.797 610.841C800.975 613.811 802.196 617.341 802.46 621.433H793.353C792.891 618.133 791.374 615.395 788.8 613.217C786.226 610.973 782.762 609.852 778.407 609.852C774.645 609.852 771.511 610.709 769.003 612.425C766.496 614.141 764.615 616.483 763.361 619.453C762.107 622.422 761.48 625.788 761.48 629.549C761.48 633.179 762.107 636.511 763.361 639.547C764.615 642.516 766.496 644.892 769.003 646.673C771.577 648.389 774.777 649.247 778.605 649.247C781.574 649.247 784.148 648.719 786.325 647.663C788.503 646.607 790.252 645.189 791.572 643.407C792.891 641.625 793.683 639.613 793.947 637.369H803.054C802.856 641.526 801.635 645.123 799.391 648.158C797.214 651.194 794.31 653.569 790.681 655.285C787.117 656.935 783.092 657.76 778.605 657.76Z" fill="white"/>
<path d="M841.305 657.76C836.686 657.76 832.628 656.968 829.13 655.384C825.633 653.8 822.663 651.722 820.222 649.148C817.846 646.508 816.032 643.572 814.778 640.338C813.59 637.105 812.996 633.806 812.996 630.44V628.658C812.996 625.293 813.623 621.994 814.877 618.76C816.131 615.461 817.978 612.524 820.42 609.95C822.861 607.311 825.831 605.232 829.328 603.715C832.826 602.131 836.818 601.339 841.305 601.339C845.793 601.339 849.785 602.131 853.282 603.715C856.78 605.232 859.749 607.311 862.191 609.95C864.633 612.524 866.48 615.461 867.734 618.76C868.988 621.994 869.615 625.293 869.615 628.658V630.44C869.615 633.806 868.988 637.105 867.734 640.338C866.546 643.572 864.732 646.508 862.29 649.148C859.914 651.722 856.978 653.8 853.48 655.384C849.983 656.968 845.925 657.76 841.305 657.76ZM841.305 649.247C845.265 649.247 848.63 648.389 851.402 646.673C854.239 644.892 856.384 642.516 857.836 639.547C859.353 636.577 860.112 633.245 860.112 629.549C860.112 625.788 859.353 622.422 857.836 619.453C856.318 616.483 854.14 614.141 851.303 612.425C848.531 610.709 845.199 609.852 841.305 609.852C837.478 609.852 834.146 610.709 831.308 612.425C828.471 614.141 826.293 616.483 824.775 619.453C823.257 622.422 822.499 625.788 822.499 629.549C822.499 633.245 823.224 636.577 824.676 639.547C826.194 642.516 828.339 644.892 831.11 646.673C833.948 648.389 837.346 649.247 841.305 649.247Z" fill="white"/>
<path d="M882.263 632.519V624.402H919.085V632.519H882.263Z" fill="white"/>
<path d="M949.986 655.978L960.677 604.902H973.545L986.016 655.978H977.9L965.428 605.1H968.595L957.806 655.978H949.986ZM945.136 655.978V648.455H956.123V655.978H945.136ZM942.959 655.978L928.012 603.121H937.119L951.669 655.978H942.959ZM979.88 655.978V648.455H990.867V655.978H979.88ZM984.334 655.978L997.004 603.121H1005.62L992.648 655.978H984.334Z" fill="white"/>
<path d="M1042.82 657.76C1038.2 657.76 1034.14 656.968 1030.65 655.384C1027.15 653.8 1024.18 651.722 1021.74 649.148C1019.36 646.508 1017.55 643.572 1016.29 640.338C1015.11 637.105 1014.51 633.806 1014.51 630.44V628.658C1014.51 625.293 1015.14 621.994 1016.39 618.76C1017.65 615.461 1019.5 612.524 1021.94 609.95C1024.38 607.311 1027.35 605.232 1030.85 603.715C1034.34 602.131 1038.34 601.339 1042.82 601.339C1047.31 601.339 1051.3 602.131 1054.8 603.715C1058.3 605.232 1061.27 607.311 1063.71 609.95C1066.15 612.524 1068 615.461 1069.25 618.76C1070.5 621.994 1071.13 625.293 1071.13 628.658V630.44C1071.13 633.806 1070.5 637.105 1069.25 640.338C1068.06 643.572 1066.25 646.508 1063.81 649.148C1061.43 651.722 1058.49 653.8 1055 655.384C1051.5 656.968 1047.44 657.76 1042.82 657.76ZM1042.82 649.247C1046.78 649.247 1050.15 648.389 1052.92 646.673C1055.76 644.892 1057.9 642.516 1059.35 639.547C1060.87 636.577 1061.63 633.245 1061.63 629.549C1061.63 625.788 1060.87 622.422 1059.35 619.453C1057.83 616.483 1055.66 614.141 1052.82 612.425C1050.05 610.709 1046.72 609.852 1042.82 609.852C1038.99 609.852 1035.66 610.709 1032.82 612.425C1029.99 614.141 1027.81 616.483 1026.29 619.453C1024.77 622.422 1024.02 625.788 1024.02 629.549C1024.02 633.245 1024.74 636.577 1026.19 639.547C1027.71 642.516 1029.86 644.892 1032.63 646.673C1035.46 648.389 1038.86 649.247 1042.82 649.247Z" fill="white"/>
<path d="M1086.35 655.978V603.121H1093.88V624.897H1093.48C1093.48 617.176 1095.16 611.534 1098.53 607.971C1101.96 604.341 1107.07 602.527 1113.87 602.527H1115.65V611.039H1112.29C1107.01 611.039 1102.95 612.458 1100.11 615.296C1097.27 618.067 1095.86 622.092 1095.86 627.372V655.978H1086.35Z" fill="white"/>
<path d="M1164.37 655.978L1144.47 631.331H1135.76L1160.01 603.121H1170.01L1148.04 628.559L1148.73 623.511L1175.36 655.978H1164.37ZM1127.94 655.978V583.72H1137.44V655.978H1127.94Z" fill="white"/>
<path d="M1188.25 655.978V603.121H1197.75V655.978H1188.25ZM1180.13 610.643V603.121H1197.75V610.643H1180.13ZM1190.92 594.608C1188.81 594.608 1187.22 594.047 1186.17 592.925C1185.18 591.803 1184.68 590.385 1184.68 588.669C1184.68 586.953 1185.18 585.535 1186.17 584.413C1187.22 583.291 1188.81 582.73 1190.92 582.73C1193.03 582.73 1194.58 583.291 1195.57 584.413C1196.63 585.535 1197.16 586.953 1197.16 588.669C1197.16 590.385 1196.63 591.803 1195.57 592.925C1194.58 594.047 1193.03 594.608 1190.92 594.608Z" fill="white"/>
<path d="M1217.11 655.978V603.121H1224.64V625.788H1223.45C1223.45 620.575 1224.14 616.186 1225.53 612.623C1226.98 608.994 1229.16 606.255 1232.06 604.407C1234.96 602.494 1238.62 601.537 1243.05 601.537H1243.44C1250.11 601.537 1255.02 603.616 1258.19 607.773C1261.42 611.93 1263.04 617.935 1263.04 625.788V655.978H1253.54V623.808C1253.54 619.717 1252.38 616.45 1250.07 614.009C1247.76 611.501 1244.6 610.247 1240.57 610.247C1236.41 610.247 1233.05 611.534 1230.48 614.108C1227.9 616.681 1226.61 620.113 1226.61 624.402V655.978H1217.11Z" fill="white"/>
<path d="M1301.41 676.567C1298.97 676.567 1296.5 676.468 1293.99 676.27C1291.55 676.072 1289.2 675.808 1286.96 675.478V667.46C1289.34 667.79 1291.81 668.054 1294.38 668.252C1297.02 668.516 1299.5 668.648 1301.81 668.648C1306.62 668.648 1310.45 667.988 1313.29 666.668C1316.19 665.414 1318.27 663.402 1319.53 660.63C1320.85 657.925 1321.51 654.427 1321.51 650.138V640.042L1324.67 632.519C1324.48 637.864 1323.35 642.318 1321.31 645.882C1319.26 649.379 1316.59 652.019 1313.29 653.8C1310.06 655.516 1306.46 656.374 1302.5 656.374C1298.81 656.374 1295.41 655.681 1292.31 654.295C1289.27 652.843 1286.63 650.864 1284.39 648.356C1282.21 645.849 1280.49 642.978 1279.24 639.745C1278.05 636.445 1277.46 632.981 1277.46 629.351V627.57C1277.46 623.874 1278.08 620.443 1279.34 617.275C1280.59 614.042 1282.34 611.237 1284.58 608.862C1286.83 606.486 1289.5 604.638 1292.6 603.319C1295.77 601.999 1299.23 601.339 1303 601.339C1307.42 601.339 1311.31 602.296 1314.68 604.209C1318.04 606.057 1320.68 608.796 1322.59 612.425C1324.57 615.989 1325.66 620.377 1325.86 625.59L1323.09 625.689V603.121H1330.61V649.742C1330.61 656.077 1329.62 661.191 1327.64 665.084C1325.73 669.044 1322.63 671.947 1318.34 673.795C1314.11 675.643 1308.47 676.567 1301.41 676.567ZM1304.28 647.663C1307.45 647.663 1310.32 646.97 1312.89 645.585C1315.53 644.199 1317.61 642.219 1319.13 639.646C1320.71 637.006 1321.51 633.872 1321.51 630.242V625.689C1321.51 622.125 1320.68 619.123 1319.03 616.681C1317.45 614.24 1315.37 612.392 1312.79 611.138C1310.22 609.885 1307.42 609.258 1304.38 609.258C1300.95 609.258 1297.91 610.049 1295.27 611.633C1292.64 613.217 1290.59 615.461 1289.14 618.364C1287.69 621.202 1286.96 624.567 1286.96 628.46C1286.96 632.354 1287.69 635.752 1289.14 638.656C1290.66 641.559 1292.7 643.803 1295.27 645.387C1297.91 646.904 1300.92 647.663 1304.28 647.663Z" fill="white"/>
<path d="M866.802 764.678C859.081 764.678 853.043 763.094 848.688 759.927C844.332 756.759 842.023 752.305 841.759 746.564H855.814C856.078 748.28 857.101 749.831 858.883 751.216C860.731 752.536 863.469 753.196 867.099 753.196C869.87 753.196 872.147 752.734 873.928 751.81C875.776 750.82 876.7 749.435 876.7 747.653C876.7 746.069 876.007 744.815 874.621 743.891C873.236 742.902 870.761 742.209 867.198 741.813L862.941 741.417C856.408 740.757 851.492 738.942 848.193 735.973C844.959 733.003 843.342 729.209 843.342 724.59C843.342 720.762 844.299 717.562 846.213 714.988C848.127 712.415 850.766 710.468 854.132 709.148C857.563 707.828 861.457 707.169 865.812 707.169C872.807 707.169 878.449 708.719 882.738 711.821C887.027 714.856 889.271 719.278 889.469 725.085H875.413C875.149 723.303 874.225 721.818 872.642 720.63C871.058 719.377 868.715 718.75 865.614 718.75C863.172 718.75 861.226 719.212 859.774 720.135C858.322 721.059 857.596 722.313 857.596 723.897C857.596 725.415 858.223 726.569 859.477 727.361C860.731 728.153 862.776 728.714 865.614 729.044L869.87 729.44C876.535 730.166 881.715 732.013 885.411 734.983C889.106 737.952 890.954 741.945 890.954 746.96C890.954 750.589 889.964 753.757 887.984 756.462C886.004 759.102 883.2 761.148 879.571 762.599C875.941 763.985 871.685 764.678 866.802 764.678Z" fill="white"/>
<path d="M902.205 782.792V708.752H914.775V732.211L913.093 732.112C913.357 726.701 914.479 722.148 916.458 718.453C918.438 714.691 921.11 711.887 924.476 710.039C927.841 708.125 931.636 707.169 935.859 707.169C939.62 707.169 943.019 707.861 946.054 709.247C949.156 710.633 951.795 712.58 953.973 715.087C956.217 717.529 957.899 720.432 959.021 723.798C960.209 727.097 960.803 730.727 960.803 734.686V736.963C960.803 740.856 960.242 744.518 959.12 747.95C957.998 751.315 956.349 754.252 954.171 756.759C952.059 759.267 949.453 761.247 946.351 762.698C943.316 764.084 939.818 764.777 935.859 764.777C931.768 764.777 928.072 763.952 924.773 762.302C921.539 760.587 918.933 758.013 916.953 754.582C914.973 751.084 913.885 746.663 913.687 741.318L918.042 747.257V782.792H902.205ZM931.405 751.513C934.11 751.513 936.453 750.853 938.433 749.534C940.478 748.214 942.062 746.366 943.184 743.99C944.306 741.615 944.867 738.876 944.867 735.775C944.867 732.673 944.306 729.968 943.184 727.658C942.062 725.349 940.511 723.567 938.532 722.313C936.552 720.993 934.176 720.333 931.405 720.333C929.029 720.333 926.786 720.894 924.674 722.016C922.562 723.138 920.846 724.755 919.527 726.866C918.273 728.912 917.646 731.42 917.646 734.389V738.051C917.646 740.889 918.306 743.331 919.626 745.376C921.011 747.356 922.76 748.874 924.872 749.93C926.983 750.985 929.161 751.513 931.405 751.513Z" fill="white"/>
<path d="M1005.56 762.995V746.96H1002.88V729.539C1002.88 726.767 1002.22 724.689 1000.9 723.303C999.584 721.917 997.472 721.224 994.569 721.224C993.117 721.224 991.203 721.257 988.828 721.323C986.452 721.389 984.01 721.488 981.503 721.62C978.995 721.752 976.719 721.884 974.673 722.016V708.653C976.191 708.521 977.972 708.389 980.018 708.257C982.064 708.125 984.175 708.026 986.353 707.96C988.531 707.894 990.576 707.861 992.49 707.861C998.033 707.861 1002.69 708.653 1006.45 710.237C1010.27 711.821 1013.18 714.229 1015.16 717.463C1017.14 720.63 1018.13 724.722 1018.13 729.737V762.995H1005.56ZM988.234 764.381C984.34 764.381 980.909 763.688 977.939 762.302C975.036 760.917 972.759 758.937 971.11 756.363C969.46 753.724 968.635 750.589 968.635 746.96C968.635 743.001 969.658 739.767 971.703 737.26C973.749 734.686 976.62 732.805 980.315 731.618C984.01 730.364 988.267 729.737 993.084 729.737H1004.67V738.546H992.985C990.213 738.546 988.069 739.239 986.551 740.625C985.099 741.945 984.373 743.76 984.373 746.069C984.373 748.247 985.099 750.028 986.551 751.414C988.069 752.734 990.213 753.394 992.985 753.394C994.767 753.394 996.35 753.097 997.736 752.503C999.188 751.843 1000.38 750.754 1001.3 749.237C1002.22 747.719 1002.75 745.607 1002.88 742.902L1006.64 746.861C1006.31 750.622 1005.39 753.79 1003.87 756.363C1002.42 758.937 1000.38 760.917 997.736 762.302C995.163 763.688 991.995 764.381 988.234 764.381Z" fill="white"/>
<path d="M1056.9 764.876C1052.22 764.876 1048.13 764.117 1044.63 762.599C1041.2 761.016 1038.33 758.904 1036.02 756.264C1033.71 753.625 1031.99 750.655 1030.87 747.356C1029.75 743.99 1029.19 740.526 1029.19 736.963V735.082C1029.19 731.387 1029.78 727.856 1030.97 724.491C1032.16 721.059 1033.91 718.024 1036.22 715.384C1038.53 712.745 1041.4 710.666 1044.83 709.148C1048.33 707.63 1052.32 706.872 1056.8 706.872C1061.69 706.872 1066.01 707.828 1069.77 709.742C1073.53 711.59 1076.54 714.196 1078.78 717.562C1081.02 720.927 1082.28 724.788 1082.54 729.143H1067C1066.74 726.701 1065.75 724.656 1064.03 723.006C1062.38 721.29 1059.97 720.432 1056.8 720.432C1054.17 720.432 1051.95 721.092 1050.17 722.412C1048.46 723.732 1047.17 725.547 1046.31 727.856C1045.45 730.166 1045.03 732.904 1045.03 736.072C1045.03 738.975 1045.42 741.615 1046.21 743.99C1047.01 746.3 1048.26 748.115 1049.97 749.435C1051.76 750.688 1054.07 751.315 1056.9 751.315C1059.02 751.315 1060.8 750.952 1062.25 750.226C1063.77 749.435 1064.95 748.379 1065.81 747.059C1066.74 745.673 1067.3 744.089 1067.49 742.308H1082.94C1082.74 746.795 1081.48 750.754 1079.18 754.186C1076.87 757.551 1073.8 760.191 1069.97 762.104C1066.14 763.952 1061.79 764.876 1056.9 764.876Z" fill="white"/>
<path d="M1118.9 764.876C1114.28 764.876 1110.19 764.084 1106.63 762.5C1103.13 760.917 1100.19 758.805 1097.82 756.165C1095.51 753.46 1093.73 750.457 1092.47 747.158C1091.28 743.793 1090.69 740.361 1090.69 736.864V734.884C1090.69 731.255 1091.28 727.79 1092.47 724.491C1093.73 721.125 1095.51 718.123 1097.82 715.483C1100.13 712.844 1103 710.765 1106.43 709.247C1109.93 707.663 1113.88 706.872 1118.31 706.872C1124.11 706.872 1129 708.191 1132.96 710.831C1136.98 713.405 1140.05 716.803 1142.16 721.026C1144.27 725.184 1145.33 729.737 1145.33 734.686V740.031H1097.32V731.024H1135.73L1130.58 735.181C1130.58 731.947 1130.12 729.176 1129.19 726.866C1128.27 724.557 1126.88 722.808 1125.04 721.62C1123.26 720.366 1121.01 719.739 1118.31 719.739C1115.53 719.739 1113.19 720.366 1111.28 721.62C1109.36 722.874 1107.91 724.722 1106.92 727.163C1105.93 729.539 1105.44 732.475 1105.44 735.973C1105.44 739.206 1105.9 742.044 1106.82 744.485C1107.75 746.861 1109.2 748.709 1111.18 750.028C1113.16 751.348 1115.73 752.008 1118.9 752.008C1121.8 752.008 1124.18 751.447 1126.03 750.325C1127.87 749.204 1129.13 747.818 1129.79 746.168H1144.34C1143.55 749.798 1142 753.031 1139.69 755.869C1137.38 758.706 1134.47 760.917 1130.98 762.5C1127.48 764.084 1123.45 764.876 1118.9 764.876Z" fill="white"/>
</svg>
