<svg width="2000" height="1000" viewBox="0 0 2000 1000" fill="none" xmlns="http://www.w3.org/2000/svg">
<path fill-rule="evenodd" clip-rule="evenodd" d="M999.839 494.93C977.277 494.926 955.415 487.095 937.983 472.772C920.55 458.449 908.627 438.522 904.246 416.39C899.865 394.257 903.298 371.291 913.96 351.407C924.622 331.523 941.852 315.954 962.711 307.356C983.57 298.757 1006.77 297.662 1028.34 304.256C1049.92 310.85 1068.54 324.726 1081.03 343.516C1093.52 362.306 1099.1 384.847 1096.82 407.294C1094.55 429.741 1084.56 450.703 1068.55 466.605C1050.27 484.728 1025.58 494.906 999.839 494.93Z" fill="#0090FF"/>
<path fill-rule="evenodd" clip-rule="evenodd" d="M1008.77 386.225L1034.18 389.798C1034.88 387.233 1035.51 385.019 1036.21 382.515L1009.9 378.606C1012.86 367.917 1015.58 357.549 1018.77 347.472C1020.07 344.079 1022.09 341.007 1024.68 338.463C1025.36 337.696 1026.21 337.104 1027.16 336.734C1028.12 336.365 1029.15 336.23 1030.16 336.34C1031.18 336.444 1032.16 336.789 1033.02 337.348C1033.88 337.898 1034.59 338.647 1035.09 339.531C1036.18 341.148 1037.38 342.679 1038.7 344.112C1039.41 345.008 1040.45 345.596 1041.58 345.755C1042.72 345.914 1043.87 345.632 1044.81 344.967C1045.95 343.868 1045.92 341.333 1046.01 339.409C1046.01 338.646 1045.16 337.73 1044.49 337.027C1043.04 335.488 1041.29 334.261 1039.36 333.423C1037.42 332.586 1035.33 332.154 1033.22 332.156C1023.46 331.729 1016.42 336.737 1011 344.234C1005.58 351.732 1003.17 360.42 1000.57 369.063C999.807 371.613 999.15 374.147 998.417 376.926L970.474 372.88C970.153 375.415 969.817 377.781 969.497 380.316L996.783 384.515C995.577 389.692 994.432 394.532 993.241 399.464L967.16 395.83C966.809 398.609 966.55 400.701 966.214 403.159L991.576 406.992C991.637 407.662 991.637 408.337 991.576 409.007C988.919 420.368 986.446 431.912 983.422 443.119C982.253 448.711 979.352 453.792 975.131 457.641C974.423 458.384 973.549 458.949 972.581 459.29C971.121 459.813 969.524 459.808 968.068 459.275C966.611 458.742 965.388 457.715 964.61 456.373C963.559 454.504 962.237 452.801 960.686 451.319C959.48 450.434 956.793 449.914 955.907 450.617C955.213 451.281 954.662 452.08 954.289 452.965C953.916 453.85 953.729 454.802 953.739 455.763C954.134 457.542 955.194 459.104 956.701 460.13C958.868 461.722 961.363 462.813 964.004 463.322C966.645 463.832 969.366 463.748 971.97 463.077C976.223 462.244 980.212 460.402 983.603 457.704C986.994 455.007 989.687 451.534 991.454 447.578C994.469 441.152 997.02 434.518 999.089 427.728C1001.1 421.62 1002.46 415.344 1004.14 408.946L1030.73 412.81C1031.46 410.275 1032.12 407.939 1032.82 405.45L1005.56 401.434C1006.71 396.059 1007.7 391.371 1008.77 386.225Z" fill="white"/>
<mask id="mask0_1285_1245" style="mask-type:alpha" maskUnits="userSpaceOnUse" x="757" y="313" width="150" height="169">
<path fill-rule="evenodd" clip-rule="evenodd" d="M900.569 438.204C894.32 423.128 891.604 406.822 892.628 390.534C893.652 374.247 898.39 358.41 906.478 344.235C895.761 331.096 881.319 321.507 865.049 316.732C848.779 311.956 831.445 312.217 815.327 317.481C799.209 322.744 785.061 332.763 774.745 346.22C764.429 359.676 758.428 375.94 757.532 392.873C756.635 409.805 760.884 426.612 769.721 441.083C778.558 455.554 791.569 467.011 807.041 473.948C822.513 480.884 839.722 482.974 856.405 479.944C873.088 476.914 888.463 468.904 900.508 456.97C902.628 454.856 904.631 452.629 906.509 450.297C904.279 446.393 902.296 442.354 900.569 438.204V438.204Z" fill="white"/>
</mask>
<g mask="url(#mask0_1285_1245)">
<mask id="mask1_1285_1245" style="mask-type:alpha" maskUnits="userSpaceOnUse" x="757" y="313" width="150" height="169">
<path fill-rule="evenodd" clip-rule="evenodd" d="M900.569 438.073C894.32 422.997 891.604 406.691 892.628 390.404C893.652 374.116 898.39 358.279 906.478 344.105C895.761 330.965 881.319 321.376 865.049 316.601C848.779 311.825 831.445 312.086 815.327 317.35C799.209 322.613 785.061 332.632 774.745 346.089C764.429 359.545 758.428 375.81 757.532 392.742C756.635 409.674 760.884 426.481 769.721 440.952C778.558 455.423 791.569 466.88 807.041 473.817C822.513 480.753 839.722 482.843 856.405 479.813C873.088 476.783 888.463 468.774 900.508 456.839C902.628 454.725 904.631 452.498 906.509 450.166C904.279 446.262 902.296 442.223 900.569 438.073V438.073Z" fill="white"/>
</mask>
<g mask="url(#mask1_1285_1245)">
</g>
<g clip-path="url(#clip0_1285_1245)">
<path d="M841.549 481.167C887.998 481.167 925.653 443.512 925.653 397.063C925.653 350.614 887.998 312.959 841.549 312.959C795.1 312.959 757.445 350.614 757.445 397.063C757.445 443.512 795.1 481.167 841.549 481.167Z" fill="#008F79"/>
<g clip-path="url(#clip1_1285_1245)">
<path d="M839.015 429.512C839.004 431.023 838.415 432.229 836.936 432.228C835.372 432.228 833.601 429.184 829.213 427.094C825.29 425.225 821.448 424.384 817.968 424.378C813.669 424.371 806.417 426.452 799.552 426.542C793.075 426.627 787.217 423.541 783.512 419.498C780.746 416.48 778.825 411.696 778.844 407.362C778.868 401.898 780.984 396.54 785.803 392.51C789.311 389.576 793.364 388.367 798.066 388.352C805.111 388.329 812.202 391.954 816.695 395.523C823.285 400.759 829.342 407.717 833.541 415.255C835.931 419.545 839.035 426.713 839.015 429.513L839.015 429.512Z" fill="white"/>
<path d="M844.829 429.512C844.839 431.023 845.428 432.229 846.908 432.228C848.472 432.228 850.242 429.184 854.631 427.094C858.554 425.225 862.396 424.384 865.876 424.378C870.175 424.371 877.426 426.452 884.292 426.542C890.768 426.627 896.627 423.541 900.332 419.498C903.098 416.48 905.019 411.696 905 407.362C904.976 401.898 902.86 396.54 898.041 392.51C894.533 389.576 890.48 388.367 885.777 388.352C878.733 388.329 871.641 391.954 867.149 395.523C860.559 400.759 854.501 407.717 850.302 415.255C847.912 419.545 844.809 426.713 844.828 429.513L844.829 429.512Z" fill="white"/>
<path opacity="0.99" d="M854.207 355.848C859.906 355.815 863.902 358.035 867.21 361.28C870.775 364.776 872.513 369.364 872.539 374.561C872.564 379.575 870.827 383.163 868.872 385.866C865.678 390.284 862.01 393.13 858.249 396.585C852.161 402.178 848.382 407.16 845.211 413.389C844.429 414.925 843.757 417.216 841.922 417.216C840.087 417.216 839.415 414.925 838.632 413.389C835.462 407.16 831.683 402.178 825.595 396.585C821.834 393.13 818.166 390.284 814.972 385.866C813.017 383.163 811.28 379.575 811.305 374.561C811.331 369.364 813.069 364.776 816.634 361.28C819.942 358.035 823.938 355.815 829.636 355.848C835.518 355.882 839.253 357.914 841.922 361.322C844.591 357.914 848.326 355.882 854.207 355.848Z" fill="white"/>
<path d="M846.528 363.614C848.487 362.171 851.012 361.241 853.445 361.281C856.949 361.337 860.243 362.469 862.611 364.76C865.24 367.305 867.006 370.693 866.896 374.902C866.746 380.693 863.611 383.774 859.258 388.226C856.287 391.265 853.465 392.841 849.159 397.647C847.472 399.53 844.076 404.34 841.923 408.85C839.77 404.34 836.375 399.53 834.688 397.647C830.381 392.841 827.56 391.265 824.588 388.226C820.235 383.774 817.101 380.693 816.95 374.902C816.841 370.693 818.606 367.305 821.236 364.76C823.604 362.469 826.898 361.337 830.402 361.281C832.835 361.241 835.359 362.171 837.318 363.614C839.305 365.077 840.694 366.93 841.923 369.385C843.153 366.93 844.542 365.077 846.528 363.614Z" fill="white"/>
</g>
<g clip-path="url(#clip2_1285_1245)">
<path d="M841.425 481.043C887.805 481.043 925.404 443.444 925.404 397.063C925.404 350.683 887.805 313.084 841.425 313.084C795.044 313.084 757.445 350.683 757.445 397.063C757.445 443.444 795.044 481.043 841.425 481.043Z" fill="#B8342E"/>
<path fill-rule="evenodd" clip-rule="evenodd" d="M827.879 399.588C827.879 396.107 828.417 393.056 829.136 390.344C821.695 391.031 816.023 390.799 807.697 389.724V387.343C807.697 385.185 809.069 382.796 811.723 380.142C811.98 379.885 812.12 379.53 812.12 379.174V374.412C812.12 372.8 812.939 371.138 814.113 369.286C814.402 368.839 814.7 368.384 815.006 367.93C815.031 367.897 815.047 367.863 815.072 367.839C815.353 367.409 815.642 366.979 815.915 366.549C816.502 365.639 817.073 364.672 817.47 363.696C817.536 363.531 817.569 363.357 817.569 363.184V358.934H824.712V363.184C824.712 363.357 824.746 363.531 824.812 363.696C825.209 364.672 825.779 365.639 826.366 366.549C826.639 366.979 826.928 367.409 827.209 367.839L827.276 367.93C827.581 368.384 827.879 368.839 828.168 369.286C829.343 371.138 830.153 372.8 830.153 374.412V379.174C830.153 379.538 830.302 379.885 830.558 380.142C831.071 380.646 831.534 381.15 831.939 381.638C832.377 380.232 832.699 378.918 832.881 377.603V374.412C832.881 371.948 831.658 369.707 830.467 367.83C830.153 367.343 829.839 366.871 829.533 366.417L829.475 366.326C829.194 365.896 828.913 365.482 828.656 365.077C828.152 364.292 827.73 363.581 827.433 362.911V358.132L827.887 357.685C828.144 357.429 828.284 357.082 828.284 356.718C828.284 355.974 828.069 355.023 827.854 354.246C827.796 354.039 827.739 353.833 827.672 353.634C827.954 353.386 828.119 353.022 828.119 352.634C828.119 350.038 826.862 348.516 825.655 348.111C825.514 348.07 825.366 348.045 825.225 348.045H817.056C816.907 348.045 816.767 348.07 816.626 348.111C815.419 348.516 814.162 350.038 814.162 352.634C814.162 353.022 814.328 353.386 814.601 353.634C814.543 353.833 814.485 354.039 814.427 354.246C814.212 355.023 813.997 355.974 813.997 356.718C813.997 357.082 814.138 357.429 814.394 357.685L814.849 358.132V362.911C814.551 363.581 814.129 364.292 813.625 365.077C813.369 365.482 813.088 365.896 812.806 366.326C812.782 366.359 812.765 366.383 812.74 366.417C812.443 366.871 812.12 367.343 811.814 367.83C810.615 369.707 809.4 371.948 809.4 374.412V378.62C806.82 381.299 804.977 384.218 804.977 387.343V424.136C805.034 425.74 806.333 427.402 808.772 428.609C811.26 429.833 815.171 430.726 821.141 430.726C827.11 430.726 831.021 429.833 833.51 428.609C835.949 427.402 837.247 425.74 837.305 424.136V417.877C831.873 414.247 827.879 408.195 827.879 399.588ZM817.048 354.974C817.131 354.676 817.222 354.395 817.304 354.122C817.403 354.138 817.511 354.155 817.627 354.155C817.982 354.163 818.28 354.064 818.511 353.948C818.735 354.048 819.016 354.13 819.346 354.13C819.677 354.13 819.975 354.039 820.198 353.94C820.43 354.048 820.727 354.155 821.091 354.163C821.471 354.18 821.81 354.081 822.091 353.948C822.315 354.039 822.596 354.13 822.935 354.13C823.274 354.13 823.538 354.048 823.762 353.948C824.001 354.064 824.299 354.163 824.655 354.155C824.762 354.155 824.878 354.138 824.977 354.122C825.06 354.395 825.151 354.676 825.233 354.974C825.357 355.445 825.457 355.875 825.506 356.206H816.767C816.825 355.875 816.924 355.445 817.048 354.974ZM834.576 424.053C834.56 424.243 834.287 425.186 832.311 426.162C830.335 427.137 826.879 428.005 821.141 428.005C815.403 428.005 811.947 427.137 809.97 426.162C807.994 425.186 807.713 424.243 807.697 424.053V422.582C812.749 423.772 816.924 424.434 821.132 424.467C825.333 424.5 829.516 423.904 834.576 422.623V424.053Z" fill="white"/>
<path fill-rule="evenodd" clip-rule="evenodd" d="M869.312 365.105C869.136 364.534 868.609 364.145 868.012 364.145H834.405C833.808 364.145 833.281 364.534 833.105 365.105C832.929 365.675 833.145 366.294 833.638 366.63C833.638 366.63 833.652 366.64 833.677 366.662C833.703 366.685 833.736 366.717 833.777 366.761C833.86 366.85 833.964 366.978 834.083 367.153C834.319 367.502 834.598 368.017 834.863 368.729C835.394 370.152 835.865 372.337 835.865 375.495C835.865 378.393 835.176 381.009 834.268 383.774C834.047 384.445 833.813 385.125 833.574 385.819C832.212 389.775 830.694 394.185 830.694 399.819C830.694 410.965 838.131 417.273 846.306 419.142C846.509 419.338 846.672 419.546 846.814 419.802C847.014 420.163 847.205 420.68 847.357 421.497C847.65 423.071 847.765 425.539 847.683 429.683L846.822 430.175C846.398 430.417 846.136 430.869 846.136 431.356V431.652L845.443 431.824C844.403 432.083 843.013 432.438 841.62 432.817C840.234 433.194 838.821 433.603 837.744 433.971C837.212 434.153 836.72 434.338 836.344 434.519C836.163 434.606 835.95 434.719 835.761 434.862C835.668 434.932 835.532 435.046 835.408 435.208C835.291 435.363 835.098 435.675 835.098 436.111C835.098 436.364 835.115 436.971 835.622 437.619C836.077 438.199 836.812 438.668 837.876 439.051C839.989 439.811 843.946 440.422 851.486 440.422C859.026 440.422 862.982 439.811 865.095 439.051C866.16 438.668 866.895 438.199 867.349 437.619C867.856 436.971 867.874 436.364 867.874 436.111C867.874 435.675 867.681 435.363 867.563 435.208C867.44 435.046 867.304 434.932 867.211 434.862C867.022 434.719 866.808 434.606 866.628 434.519C866.252 434.338 865.76 434.153 865.228 433.971C864.151 433.603 862.738 433.194 861.351 432.817C859.959 432.438 858.569 432.083 857.529 431.824L856.836 431.652V431.356C856.836 430.869 856.574 430.417 856.15 430.175L855.289 429.683C855.211 425.546 855.357 423.069 855.678 421.488C855.957 420.116 856.348 419.507 856.817 419.064C865.308 416.789 871.98 409.045 871.98 399.812C871.98 394.177 870.455 389.768 869.088 385.814C868.848 385.121 868.613 384.442 868.392 383.773C867.479 381.007 866.788 378.392 866.788 375.494C866.788 372.318 867.204 370.119 867.686 368.687C867.927 367.97 868.18 367.457 868.397 367.113C868.505 366.942 868.599 366.819 868.672 366.737C868.741 366.658 868.78 366.63 868.78 366.63C869.273 366.293 869.488 365.675 869.312 365.105ZM853.011 420.945C853.106 420.477 853.218 420.056 853.346 419.674C852.79 419.721 852.23 419.746 851.667 419.746C851.014 419.746 850.357 419.719 849.701 419.665C849.833 420.07 849.942 420.512 850.033 420.998C850.389 422.907 850.388 427.057 850.388 430.175L850.387 430.515C850.387 433.665 848.62 433.491 848.62 433.491C848.434 433.763 848.15 433.967 847.811 434.047L847.69 434.076L847.343 434.16C847.044 434.232 846.616 434.337 846.101 434.465C845.072 434.721 843.702 435.071 842.335 435.443C841.04 435.795 839.772 436.165 838.798 436.49C840.442 437.082 843.999 437.7 851.486 437.7C858.973 437.7 862.533 437.08 864.177 436.488C863.203 436.163 861.932 435.795 860.636 435.443C859.269 435.071 857.9 434.721 856.87 434.465C856.356 434.337 855.928 434.232 855.628 434.16L855.281 434.076L855.16 434.047C854.821 433.967 854.537 433.763 854.351 433.491C854.351 433.491 852.584 433.697 852.584 430.515C852.584 427.334 852.604 422.948 853.011 420.945ZM865.469 366.867C865.341 367.163 865.22 367.481 865.106 367.819C864.511 369.588 864.066 372.09 864.066 375.494C864.066 378.14 864.569 380.539 865.246 382.838H837.412C838.086 380.539 838.587 378.14 838.587 375.495C838.587 372.073 838.077 369.557 837.414 367.778C837.293 367.454 837.165 367.15 837.033 366.867H865.469Z" fill="white"/>
<path fill-rule="evenodd" clip-rule="evenodd" d="M869.312 365.105C869.136 364.534 868.609 364.145 868.012 364.145H834.405C833.808 364.145 833.281 364.534 833.105 365.105C832.929 365.675 833.145 366.294 833.638 366.63C833.638 366.63 833.652 366.64 833.677 366.662C833.703 366.685 833.736 366.717 833.777 366.761C833.86 366.85 833.964 366.978 834.083 367.153C834.319 367.502 834.598 368.017 834.863 368.729C835.394 370.152 835.865 372.337 835.865 375.495C835.865 378.393 835.176 381.009 834.268 383.774C834.047 384.445 833.813 385.125 833.574 385.819C832.212 389.775 830.694 394.185 830.694 399.819C830.694 410.965 838.131 417.273 846.306 419.142C846.509 419.338 846.672 419.546 846.814 419.802C847.014 420.163 847.205 420.68 847.357 421.497C847.65 423.071 847.765 425.539 847.683 429.683L846.822 430.175C846.398 430.417 846.136 430.869 846.136 431.356V431.652L845.443 431.824C844.403 432.083 843.013 432.438 841.62 432.817C840.234 433.194 838.821 433.603 837.744 433.971C837.212 434.153 836.72 434.338 836.344 434.519C836.163 434.606 835.95 434.719 835.761 434.862C835.668 434.932 835.532 435.046 835.408 435.208C835.291 435.363 835.098 435.675 835.098 436.111C835.098 436.364 835.115 436.971 835.622 437.619C836.077 438.199 836.812 438.668 837.876 439.051C839.989 439.811 843.946 440.422 851.486 440.422C859.026 440.422 862.982 439.811 865.095 439.051C866.16 438.668 866.895 438.199 867.349 437.619C867.856 436.971 867.874 436.364 867.874 436.111C867.874 435.675 867.681 435.363 867.563 435.208C867.44 435.046 867.304 434.932 867.211 434.862C867.022 434.719 866.808 434.606 866.628 434.519C866.252 434.338 865.76 434.153 865.228 433.971C864.151 433.603 862.738 433.194 861.351 432.817C859.959 432.438 858.569 432.083 857.529 431.824L856.836 431.652V431.356C856.836 430.869 856.574 430.417 856.15 430.175L855.289 429.683C855.211 425.546 855.357 423.069 855.678 421.488C855.957 420.116 856.348 419.507 856.817 419.064C865.308 416.789 871.98 409.045 871.98 399.812C871.98 394.177 870.455 389.768 869.088 385.814C868.848 385.121 868.613 384.442 868.392 383.773C867.479 381.007 866.788 378.392 866.788 375.494C866.788 372.318 867.204 370.119 867.686 368.687C867.927 367.97 868.18 367.457 868.397 367.113C868.505 366.942 868.599 366.819 868.672 366.737C868.741 366.658 868.78 366.63 868.78 366.63C869.273 366.293 869.488 365.675 869.312 365.105ZM853.011 420.945C853.106 420.477 853.218 420.056 853.346 419.674C852.79 419.721 852.23 419.746 851.667 419.746C851.014 419.746 850.357 419.719 849.701 419.665C849.833 420.07 849.942 420.512 850.033 420.998C850.389 422.907 850.388 427.057 850.388 430.175L850.387 430.515C850.387 433.665 848.62 433.491 848.62 433.491C848.434 433.763 848.15 433.967 847.811 434.047L847.69 434.076L847.343 434.16C847.044 434.232 846.616 434.337 846.101 434.465C845.072 434.721 843.702 435.071 842.335 435.443C841.04 435.795 839.772 436.165 838.798 436.49C840.442 437.082 843.999 437.7 851.486 437.7C858.973 437.7 862.533 437.08 864.177 436.488C863.203 436.163 861.932 435.795 860.636 435.443C859.269 435.071 857.9 434.721 856.87 434.465C856.356 434.337 855.928 434.232 855.628 434.16L855.281 434.076L855.16 434.047C854.821 433.967 854.537 433.763 854.351 433.491C854.351 433.491 852.584 433.697 852.584 430.515C852.584 427.334 852.604 422.948 853.011 420.945ZM865.469 366.867C865.341 367.163 865.22 367.481 865.106 367.819C864.511 369.588 864.066 372.09 864.066 375.494C864.066 378.14 864.569 380.539 865.246 382.838H837.412C838.086 380.539 838.587 378.14 838.587 375.495C838.587 372.073 838.077 369.557 837.414 367.778C837.293 367.454 837.165 367.15 837.033 366.867H865.469Z" fill="white"/>
</g>
</g>
</g>
<mask id="mask2_1285_1245" style="mask-type:alpha" maskUnits="userSpaceOnUse" x="1092" y="313" width="150" height="169">
<path fill-rule="evenodd" clip-rule="evenodd" d="M1228.34 351.001C1221.49 340.582 1212.41 331.816 1201.76 325.338C1191.1 318.859 1179.14 314.829 1166.74 313.541C1154.34 312.252 1141.8 313.736 1130.04 317.885C1118.29 322.035 1107.6 328.746 1098.75 337.533C1096.62 339.651 1094.61 341.878 1092.72 344.206C1101.91 360.372 1106.74 378.649 1106.74 397.244C1106.74 415.84 1101.91 434.117 1092.72 450.283C1106.37 466.908 1125.86 477.675 1147.2 480.373C1168.54 483.07 1190.1 477.493 1207.45 464.787C1224.81 452.082 1236.64 433.212 1240.51 412.055C1244.38 390.899 1240.01 369.062 1228.28 351.031L1228.34 351.001Z" fill="white"/>
</mask>
<g mask="url(#mask2_1285_1245)">
<mask id="mask3_1285_1245" style="mask-type:alpha" maskUnits="userSpaceOnUse" x="1092" y="312" width="150" height="169">
<path fill-rule="evenodd" clip-rule="evenodd" d="M1228.34 350.872C1221.49 340.453 1212.41 331.687 1201.76 325.209C1191.1 318.73 1179.14 314.701 1166.74 313.412C1154.34 312.123 1141.8 313.607 1130.04 317.756C1118.29 321.906 1107.6 328.617 1098.75 337.404C1096.62 339.522 1094.61 341.749 1092.72 344.077C1101.91 360.243 1106.74 378.52 1106.74 397.116C1106.74 415.711 1101.91 433.988 1092.72 450.154C1106.37 466.779 1125.86 477.546 1147.2 480.244C1168.54 482.941 1190.1 477.364 1207.45 464.659C1224.81 451.953 1236.64 433.083 1240.51 411.926C1244.38 390.77 1240.01 368.933 1228.28 350.902L1228.34 350.872Z" fill="white"/>
</mask>
<g mask="url(#mask3_1285_1245)">
</g>
<g clip-path="url(#clip3_1285_1245)">
<path d="M1157.59 481.169C1204.04 481.169 1241.69 443.514 1241.69 397.065C1241.69 350.616 1204.04 312.961 1157.59 312.961C1111.14 312.961 1073.48 350.616 1073.48 397.065C1073.48 443.514 1111.14 481.169 1157.59 481.169Z" fill="#202022"/>
<g clip-path="url(#clip4_1285_1245)">
<path d="M1187.4 347.603C1187.22 347.603 1187.04 347.607 1186.84 347.616C1184.45 347.684 1183.76 347.868 1181.57 348.997C1179.56 350.037 1178.24 351.243 1176.75 353.432C1175.39 355.421 1174.44 358.021 1174.17 360.459C1173.75 364.3 1173.07 367.743 1172.41 369.398C1172.01 370.411 1170.92 371.9 1170.3 372.302C1170.06 372.456 1169.89 372.64 1169.92 372.721C1169.98 372.913 1170.92 373.072 1171.51 372.986C1172.34 372.866 1173.63 372.315 1174.54 371.699C1175.21 371.245 1175.37 371.254 1175.26 371.75C1174.99 373.059 1174.92 373.653 1174.89 375.261C1174.85 377.357 1175.01 378.161 1175.82 379.786C1176.27 380.697 1177.2 381.946 1177.33 381.818C1177.36 381.788 1177.3 381.45 1177.2 381.061C1176.81 379.5 1176.75 378.687 1176.95 377.31C1177.29 374.838 1177.9 373.076 1179.25 370.634C1179.56 370.069 1179.96 369.308 1180.14 368.945C1180.33 368.581 1180.69 367.914 1180.95 367.46C1181.7 366.177 1181.76 366.374 1181.67 370.121C1181.64 371.831 1181.55 373.474 1181.48 373.773C1181.42 374.072 1181.39 374.342 1181.42 374.372C1181.51 374.457 1182.01 373.803 1182.55 372.909C1183.47 371.387 1184.39 369.146 1184.55 368.034C1184.6 367.704 1184.69 367.298 1184.76 367.135C1184.85 366.883 1184.88 364.608 1184.81 362.914C1184.79 362.504 1184.8 362.491 1185.21 362.525C1185.66 362.563 1187.48 362.23 1187.69 362.072C1187.75 362.02 1187.98 361.922 1188.19 361.849C1188.89 361.614 1190.53 360.339 1190.53 360.027C1190.53 359.955 1190.38 359.89 1190.22 359.89C1189.44 359.89 1188.44 359.103 1188.23 358.329C1188.16 358.073 1188.14 357.56 1188.18 357.196C1188.29 356.238 1188.95 355.528 1190.09 355.122C1192.18 354.373 1193.81 355.122 1194.84 357.299C1195.27 358.21 1195.29 358.325 1195.28 359.407C1195.26 361.785 1194.71 362.983 1192.03 366.49C1191.63 367.011 1191.15 367.679 1190.94 367.978C1190.75 368.277 1190.55 368.551 1190.51 368.581C1190.47 368.615 1190.09 369.158 1189.67 369.791C1189.24 370.42 1188.49 371.519 1187.99 372.229C1185.4 375.92 1184.61 377.81 1183.75 382.284C1183.48 383.729 1183.46 384.602 1183.7 385.945C1184.28 389.217 1185.96 391.941 1190.29 396.586C1192.25 398.694 1193.69 400.666 1194.49 402.317C1194.85 403.065 1194.9 403.279 1194.9 404.169C1194.9 405.281 1194.8 405.503 1193.99 406.162C1193.37 406.662 1192.66 406.709 1191.47 406.328C1189.98 405.854 1189.02 405.246 1187.81 404.019C1187.21 403.416 1186.51 402.625 1186.26 402.257C1185.58 401.256 1183.75 398.472 1183.35 397.822C1182.87 397.03 1182.57 396.547 1181.88 395.499C1181.56 394.999 1181.27 394.546 1181.24 394.486C1181.18 394.353 1179.16 391.218 1178.79 390.696C1178.05 389.644 1177.83 389.349 1176.72 387.946C1175.53 386.428 1172.43 383.203 1171.2 382.19C1169.79 381.031 1168.11 380.013 1165.25 378.597C1163.61 377.789 1162.28 377.066 1162.28 376.989C1162.28 376.904 1162.58 376.844 1163.11 376.827C1163.99 376.805 1164.92 376.446 1165.51 375.911C1165.78 375.667 1165.79 375.663 1166.23 375.873C1167.17 376.318 1168.5 376.241 1168.97 375.71C1169.17 375.492 1169.15 375.475 1168.64 375.248C1167.81 374.881 1167.53 374.384 1167.53 373.302V372.404L1168.13 372.263C1168.88 372.088 1169.84 371.502 1170.28 370.942C1170.68 370.433 1171.08 369.59 1171.09 369.248C1171.09 369.056 1171.02 369.094 1170.73 369.445C1170.34 369.919 1169.46 370.394 1168.97 370.394C1168.39 370.394 1167.59 369.791 1167.59 369.346C1167.59 369.265 1167.84 369.167 1168.16 369.12C1169.07 368.987 1169.74 368.525 1169.93 367.905C1170.01 367.67 1169.97 367.653 1169.42 367.708C1168.11 367.832 1167.94 367.43 1167.92 364.265L1167.91 361.909L1168.2 361.674C1168.36 361.541 1168.74 361.31 1169.05 361.156C1169.71 360.818 1170.31 360.164 1170.64 359.424C1170.91 358.808 1171.09 356.875 1170.87 356.875C1170.81 356.875 1170.71 356.995 1170.66 357.144C1170.51 357.645 1169.9 358.5 1169.54 358.714C1169.03 359.018 1168.47 358.984 1168 358.62C1167.77 358.449 1167.59 358.235 1167.59 358.145C1167.59 358.055 1167.77 357.824 1168 357.636C1169.3 356.563 1170.11 353.975 1169.77 351.969C1169.61 351.029 1169.2 349.673 1168.97 349.296C1168.95 349.275 1168.54 349.502 1168.04 349.805C1167.55 350.109 1166.76 350.502 1166.31 350.682C1165.52 350.994 1165.37 351.011 1163.43 351.011C1162.3 351.011 1160.26 350.973 1158.9 350.93C1157.54 350.883 1155.94 350.896 1155.36 350.956C1154.12 351.08 1153.8 351.247 1152.49 352.504C1152.02 352.949 1151.39 353.462 1151.08 353.642C1150.38 354.044 1149.27 354.339 1148.48 354.339C1148.15 354.339 1147.54 354.403 1147.11 354.484C1146.24 354.642 1146.05 354.835 1146.21 355.382C1146.27 355.575 1146.39 356.037 1146.47 356.409C1146.62 357.084 1146.62 357.097 1146.25 357.555C1145.73 358.214 1145.65 358.611 1145.57 360.947C1145.54 361.759 1145.56 362.452 1145.62 362.486C1145.68 362.52 1145.95 362.465 1146.23 362.354C1146.86 362.101 1147.78 362.195 1148.3 362.563C1148.5 362.709 1148.83 363.072 1149.02 363.372C1149.31 363.838 1149.37 364.047 1149.37 364.74C1149.37 365.189 1149.29 365.788 1149.19 366.074C1149.1 366.357 1148.99 366.767 1148.94 366.981C1148.9 367.199 1148.62 367.7 1148.33 368.097C1147.4 369.363 1145.81 370.146 1144.15 370.15H1143.46L1143.01 369.457C1142.48 368.602 1141.97 368.05 1141.34 367.636C1140.91 367.353 1140.74 367.315 1139.89 367.328C1138.18 367.345 1136.97 368.02 1136.39 369.278C1136.1 369.898 1136.07 370.086 1136.11 371.057L1136.15 372.143L1135.68 372.126C1135.15 372.109 1134.58 371.626 1133.5 370.27C1131.66 367.965 1130.91 366.327 1130.46 363.632C1130.24 362.349 1130.24 362.422 1130.39 361.759C1130.62 360.69 1131.1 359.929 1132.2 358.838C1133.46 357.606 1133.61 357.26 1133.17 356.589C1133.02 356.353 1132.75 356.092 1132.59 356.011C1132.37 355.904 1132.24 355.836 1132.16 355.755L1129.53 354.082L1128.73 354.014C1127.99 353.954 1127.92 353.971 1127.61 354.283C1127.33 354.566 1127.28 354.715 1127.28 355.271C1127.28 355.631 1127.22 356.028 1127.15 356.157C1126.98 356.473 1126.6 356.456 1126.37 356.114C1126.17 355.81 1126.1 354.831 1126.25 354.583C1126.31 354.493 1126.36 354.155 1126.38 353.843C1126.43 353.056 1126.11 352.714 1125.21 352.598L1121.47 352.632C1121.32 352.62 1121.19 352.654 1120.95 352.752C1120.47 353.034 1120.19 353.415 1120.09 353.924C1120.03 354.198 1120.13 354.501 1120.51 355.216C1120.78 355.725 1121 356.238 1121 356.349C1121 356.653 1120.64 356.995 1120.32 356.995C1120.04 356.995 1119.9 356.849 1119.3 355.874C1118.85 355.143 1118.46 354.976 1117.85 355.254C1116.67 355.947 1116.02 357.132 1115.51 358.445C1115.26 359.15 1115.28 359.386 1115.64 360.113C1116.08 360.998 1116.42 361.148 1117.78 361.066C1119.03 360.998 1119.31 361.148 1119.31 361.879C1119.31 362.208 1119.23 362.358 1118.9 362.602C1118.45 362.948 1117.94 363.017 1116.88 362.863C1116.27 362.777 1116.18 362.79 1115.86 363.068C1115.55 363.333 1115.51 363.444 1115.53 363.983L1115.54 364.599C1115.92 365.617 1114.15 365.369 1116.66 367.648C1116.82 367.76 1117.18 367.884 1117.45 367.926C1117.97 368.012 1118.06 367.956 1119.27 366.87C1120.31 365.938 1121.25 366.489 1121.19 367.995C1121.13 369.376 1120.27 370.142 1118.48 370.386C1117.88 370.467 1117.33 370.501 1117.26 370.458C1117.19 370.415 1117.14 370.437 1117.14 370.51C1117.14 370.693 1118.15 371.314 1118.94 371.613C1119.48 371.818 1119.79 371.857 1120.53 371.805C1121.04 371.776 1121.57 371.681 1121.71 371.609C1122.14 371.374 1122.24 371.557 1122.16 372.443C1122.08 373.388 1121.86 373.97 1121.46 374.329C1120.81 374.932 1120.31 374.987 1119.04 374.624C1118.59 374.496 1118.22 374.419 1118.22 374.453C1118.22 374.483 1118.3 374.662 1118.4 374.846C1118.69 375.411 1119.36 375.907 1120.24 376.189C1120.69 376.339 1121.11 376.501 1121.17 376.561C1121.23 376.621 1121.11 376.814 1120.87 377.027C1120.35 377.489 1119.77 377.506 1118.77 377.092C1117.86 376.715 1117.82 376.715 1117.91 377.122C1117.95 377.305 1118.01 377.665 1118.04 377.926C1118.11 378.486 1118.48 379.256 1118.91 379.713C1119.94 380.795 1122.26 380.898 1123.97 379.931C1124.32 379.73 1124.67 379.568 1124.74 379.568C1124.95 379.568 1124.87 380.517 1124.62 381.005C1124.5 381.262 1124.16 381.668 1123.88 381.907L1123.37 382.344H1123.97C1124.74 382.339 1126.5 381.963 1127.59 381.569C1128.58 381.21 1128.67 381.197 1128.76 381.42C1128.85 381.646 1127.84 385.555 1127.51 386.248C1127.36 386.569 1126.99 387.104 1126.69 387.429C1126.19 387.959 1126.05 388.036 1125.44 388.134C1124.92 388.216 1124.59 388.203 1124.19 388.079C1123.5 387.874 1123.22 387.626 1122.91 386.941C1122.7 386.492 1122.67 386.266 1122.74 385.577C1122.79 385.064 1122.78 384.756 1122.7 384.756C1122.5 384.756 1121.73 385.744 1121.43 386.381C1120.77 387.814 1120.74 389.016 1121.34 390.346C1121.91 391.603 1123.21 392.522 1124.86 392.843C1125.48 392.963 1125.87 392.967 1126.72 392.856C1128.97 392.552 1130.49 391.757 1131.44 390.384C1131.82 389.828 1131.98 389.691 1132.51 389.524C1133.55 389.186 1134.76 388.447 1135.78 387.51C1136.16 387.163 1136.45 387.223 1136.45 387.651C1136.45 387.869 1137.17 389.464 1137.45 389.866C1137.58 390.063 1137.48 390.191 1136.61 391.025C1136.07 391.543 1135.18 392.313 1134.62 392.736C1133.4 393.673 1130.86 395.379 1130.68 395.379C1130.61 395.379 1130.48 395.448 1130.39 395.529C1130.15 395.751 1129.83 395.931 1129.03 396.325C1127.46 397.082 1126.53 397.334 1125.17 397.355C1124.4 397.368 1124.26 397.338 1123.86 397.034C1123.37 396.662 1123.32 396.436 1123.59 395.781C1123.87 395.127 1123.83 394.507 1123.5 394.19C1123.05 393.771 1122.51 393.664 1121.93 393.882C1120.79 394.447 1119.47 393.895 1118.03 395.217C1117.11 395.867 1117 396.517 1117.64 397.492C1118.11 398.193 1118.15 398.767 1117.77 399.151C1117.52 399.395 1117.46 399.404 1116.93 399.258C1116.61 399.173 1116.33 399.066 1116.3 399.019C1116.09 398.732 1115.48 398.394 1115.19 398.394C1114.46 398.394 1114 398.835 1113.7 399.814C1113.35 401.983 1113.75 402.547 1113.97 403.428C1114.04 403.856 1114.54 404.309 1114.96 404.309C1115.44 404.309 1115.69 404.173 1116.57 403.446C1117.55 402.624 1118.19 402.637 1118.41 403.484C1118.59 404.232 1117.7 405.028 1116.38 405.263C1115.66 405.396 1115.21 405.58 1115.06 405.806C1115.01 405.879 1114.97 406.14 1114.96 406.388C1115.16 407.491 1116.21 408.15 1116.85 409.057L1117.5 409.664C1118.26 410.344 1118.96 410.507 1119.58 410.143C1120.2 409.775 1120.47 409.168 1120.56 407.893C1120.67 406.405 1120.72 406.213 1121.13 405.768C1121.4 405.473 1121.53 405.409 1121.68 405.494C1121.84 405.588 1121.88 405.828 1121.9 406.858C1121.9 408.052 1121.93 408.146 1122.3 408.749C1123.08 409.72 1125.3 409.587 1126.78 408.667C1127.54 408.176 1127.78 407.731 1127.79 406.79C1127.8 406.217 1127.74 405.926 1127.54 405.588C1127.14 404.908 1127.19 404.75 1127.89 404.498L1128.51 404.279L1128.83 404.596C1129.13 404.9 1129.14 404.968 1129.11 405.977C1129.08 406.76 1129.12 407.171 1129.27 407.547C1129.45 407.992 1129.94 408.535 1130.16 408.535C1130.2 408.535 1130.21 408.21 1130.19 407.808C1130.15 406.948 1130.42 406.29 1131.46 404.758C1131.81 404.241 1132.13 403.672 1132.17 403.492C1132.31 402.885 1132.34 402.847 1132.67 402.885C1132.89 402.911 1133.08 403.052 1133.23 403.326C1133.46 403.715 1133.46 403.758 1133.26 404.904C1133.06 406.029 1133.08 406.76 1133.31 407.205C1133.38 407.333 1133.49 407.2 1133.72 406.721C1134.13 405.862 1134.41 405.408 1135 404.664C1135.51 404.018 1135.85 403.107 1135.85 402.376C1135.85 401.735 1136.06 401.221 1136.39 401.072C1136.97 400.807 1137.11 401.551 1136.88 403.779C1136.77 404.797 1136.86 405.879 1137.06 405.879C1137.12 405.879 1137.25 405.674 1137.36 405.425C1137.46 405.177 1137.79 404.587 1138.09 404.108C1138.98 402.68 1139.85 400.507 1139.76 399.951C1139.73 399.793 1139.82 399.31 1139.98 398.878C1140.19 398.27 1140.31 398.086 1140.52 398.057C1140.98 397.988 1141.2 398.501 1141.11 399.451C1140.97 400.999 1140.97 401.444 1141.13 401.803L1141.28 402.167L1141.65 401.457C1141.86 401.067 1142.19 400.46 1142.38 400.101C1142.69 399.523 1142.73 399.322 1142.73 398.386C1142.73 397.586 1142.77 397.278 1142.92 397.137C1143.17 396.88 1143.29 396.897 1143.51 397.227C1143.65 397.441 1143.66 397.599 1143.57 397.92C1143.5 398.151 1143.39 398.685 1143.32 399.117C1143.22 399.763 1143.23 399.985 1143.4 400.413C1143.5 400.7 1143.63 400.931 1143.69 400.931C1143.74 400.931 1143.82 400.708 1143.86 400.43C1143.9 400.156 1144.22 399.357 1144.55 398.651C1145.04 397.65 1145.18 397.227 1145.2 396.705C1145.23 395.683 1145.25 395.619 1145.44 395.619C1145.78 395.619 1145.9 396.093 1145.81 397.077C1145.74 397.881 1145.76 398.095 1145.99 398.617C1146.13 398.95 1146.35 399.318 1146.48 399.434C1146.7 399.635 1146.71 399.622 1146.71 399.109C1146.72 398.561 1146.89 398.018 1147.54 396.495C1147.93 395.559 1148.11 394.733 1148.22 393.386C1148.28 392.608 1148.45 392.24 1148.76 392.24C1148.8 392.24 1148.93 392.308 1149.04 392.39C1149.2 392.505 1149.26 392.796 1149.31 393.626C1149.37 394.712 1149.46 395.345 1149.58 395.542C1149.61 395.601 1149.85 395.221 1150.11 394.699C1150.37 394.177 1150.79 393.339 1151.06 392.839C1151.65 391.731 1151.94 390.311 1151.82 389.122L1151.74 388.344L1152.07 388.425C1152.26 388.472 1152.68 388.643 1153.03 388.81C1154.53 389.541 1155.36 389.823 1156.13 389.87C1156.67 389.905 1157.26 390.05 1158 390.349C1158.6 390.589 1159.6 390.922 1160.23 391.094C1161.67 391.483 1162.41 391.846 1163.38 392.646C1164.18 393.305 1165.42 394.656 1165.42 394.87C1165.42 394.938 1164.85 395.015 1164.06 395.054C1163.31 395.088 1162.41 395.178 1162.05 395.246C1160.14 395.61 1157.99 396.611 1156.49 397.825C1154.99 399.04 1154.3 399.694 1152.92 401.23C1151.37 402.975 1150.91 403.343 1150.01 403.582C1149.73 403.655 1148.18 403.766 1146.56 403.826C1144.8 403.894 1143.37 404.01 1142.97 404.112C1142.06 404.348 1141.13 404.673 1140.94 404.822C1140.86 404.891 1140.57 405.062 1140.3 405.207C1139.59 405.592 1138.36 406.73 1137.46 407.85C1137.03 408.394 1136.09 409.454 1135.38 410.207C1133.37 412.358 1132.25 413.098 1130.85 413.209C1129.86 413.29 1128.93 413.017 1128.28 412.461L1127.78 412.033L1127.5 412.486C1127.26 412.863 1127.22 413.107 1127.22 413.915C1127.22 414.792 1127.25 414.95 1127.58 415.48C1128.04 416.22 1129.05 416.793 1130.13 416.917C1132.15 417.152 1135.21 416.212 1136.85 414.851C1137.31 414.471 1137.49 414.497 1137.73 414.963C1138.13 415.771 1138.54 416.169 1139.31 416.528C1139.9 416.806 1140.08 416.956 1140.14 417.204C1140.43 418.465 1140.61 418.79 1141.42 419.5L1141.86 419.885L1141.57 420.942C1141.41 421.519 1141.13 422.208 1140.94 422.477C1140.46 423.17 1139.2 424.064 1138.39 424.295C1138.02 424.397 1137.55 424.534 1137.34 424.598C1136.72 424.782 1134.72 424.881 1134.45 424.735C1134.23 424.62 1134.21 424.526 1134.28 423.846C1134.37 422.977 1134.26 422.464 1133.91 422.011C1133.63 421.656 1132.96 421.442 1132.37 421.519C1131.09 421.737 1130.09 422.456 1129.47 423.26L1129.03 423.786C1128.59 424.325 1128.5 424.744 1128.76 425.077C1128.84 425.18 1129.23 425.445 1129.64 425.659C1130.45 426.087 1130.84 426.6 1130.72 427.066C1130.63 427.438 1130.39 427.562 1129.57 427.665C1128.98 427.738 1128.83 427.708 1128.21 427.378C1127.32 426.908 1126.85 426.827 1126.25 427.036C1125.89 427.164 1125.71 427.327 1125.5 427.725C1125.35 428.011 1125.22 428.396 1125.22 428.58C1125.12 429.91 1125.51 431.818 1125.83 432.549C1126.08 433.05 1126.37 433.203 1127.01 433.178C1127.53 433.161 1127.84 432.994 1128.5 432.348C1128.94 431.925 1129.13 431.822 1129.4 431.852C1129.88 431.908 1130.05 432.395 1129.79 432.955C1129.63 433.28 1129.44 433.426 1128.83 433.67C1127.96 434.016 1127.66 434.388 1127.65 435.132C1127.64 435.402 1127.75 435.795 1127.9 436.065C1128.23 436.753 1129.4 437.669 1130.94 437.942C1131.98 438.113 1132.86 437.168 1133 435.697C1133.07 434.987 1133.13 434.816 1133.4 434.606C1133.76 434.32 1134.1 434.375 1134.43 434.765C1134.6 434.961 1134.65 435.192 1134.64 435.748C1134.59 437.061 1134.62 437.198 1135.01 437.6C1135.68 438.22 1138 437.373 1138.93 436.702C1139.34 436.433 1139.71 435.791 1139.71 435.338C1139.71 435.124 1139.55 434.542 1139.34 434.042C1138.91 432.947 1138.9 432.669 1139.28 432.228C1139.52 431.95 1139.61 431.912 1139.79 432.023C1140.21 432.275 1140.57 433.122 1140.66 434.08C1140.73 434.833 1140.8 435.043 1141.03 435.226C1141.42 435.551 1141.69 435.526 1141.57 435.179C1141.41 434.726 1141.46 433.858 1141.67 433.101C1141.79 432.703 1141.88 432.023 1141.88 431.583C1141.88 430.821 1142.04 430.09 1142.25 429.855C1142.3 429.795 1142.42 429.932 1142.51 430.154C1142.65 430.475 1142.66 430.821 1142.57 431.775C1142.45 433.101 1142.56 433.768 1142.96 434.264C1143.24 434.611 1143.42 434.478 1143.23 434.059C1143.1 433.785 1143.15 433.614 1143.65 432.605C1144.2 431.493 1144.22 431.42 1144.27 430.137C1144.3 429.41 1144.36 428.811 1144.41 428.811C1144.46 428.811 1144.59 429.016 1144.71 429.265C1144.86 429.577 1144.95 430.094 1144.99 430.924C1145.03 432.01 1145.08 432.173 1145.37 432.545C1145.9 433.216 1145.97 433.161 1145.9 432.147C1145.84 431.347 1145.87 431.163 1146.13 430.599C1146.77 429.247 1147.18 428.097 1147.32 427.318C1147.54 426.04 1147.73 426.356 1147.75 428.037C1147.77 429.624 1147.97 430.304 1148.57 430.911C1148.98 431.322 1149.15 431.317 1149.04 430.894C1148.84 430.111 1148.95 429.376 1149.42 428.388C1150.13 426.899 1150.47 425.929 1150.59 425.069C1150.84 423.333 1150.82 423.384 1151.14 423.307C1152.11 423.059 1152.91 423.341 1153.14 424.013C1153.22 424.278 1153.15 424.513 1152.65 425.411C1151.75 427.036 1151.67 427.37 1151.91 428.238C1152.06 428.768 1152.14 428.798 1152.38 428.401C1152.48 428.242 1153.19 427.468 1153.95 426.681C1156.34 424.235 1156.9 423.298 1156.72 422.037C1156.59 421.083 1156.02 420.258 1154.29 418.496C1152.68 416.849 1152.2 416.237 1151.73 415.181C1150.4 412.217 1152.27 410.314 1156.79 410.036C1157.58 409.985 1158.64 410.015 1159.41 410.096C1160.93 410.259 1162.73 410.293 1163.46 410.173L1163.97 410.083L1164.21 410.652C1164.44 411.182 1165.22 413.804 1165.6 415.292C1165.69 415.66 1165.91 416.528 1166.09 417.225C1166.49 418.833 1166.58 419.992 1166.32 420.493C1166.09 420.933 1165.48 421.327 1165.02 421.327C1164.28 421.331 1163.29 420.459 1162.91 419.466C1162.78 419.137 1162.62 418.851 1162.57 418.833C1162.51 418.812 1162.34 418.983 1162.18 419.21C1161.73 419.881 1161.85 421.348 1162.46 422.537C1162.73 423.059 1163.55 423.931 1164.15 424.342C1165.45 425.232 1167.4 425.475 1169.04 424.949C1169.81 424.701 1170.05 424.552 1170.68 423.927C1171.08 423.525 1171.49 423.063 1171.59 422.901L1171.78 422.606L1172.67 423.021C1173.38 423.35 1173.75 423.444 1174.47 423.478C1175.39 423.525 1175.86 423.384 1176.98 422.73C1177.19 422.606 1177.38 422.593 1177.69 422.678C1178.31 422.849 1179.32 422.589 1180.25 422.028C1180.69 421.759 1181.15 421.459 1181.26 421.357C1181.55 421.1 1181.72 421.284 1182.07 422.234C1182.48 423.358 1182.43 424.919 1181.91 426.549C1181.33 428.375 1180.38 429.718 1179.02 430.625C1178.34 431.082 1178.21 431.125 1177.69 431.074C1176.96 431.005 1176.54 430.625 1176.17 429.688C1175.68 428.456 1175.55 428.221 1175.28 428.033C1174.89 427.755 1174.27 427.811 1173.62 428.174L1172.93 428.551C1171.91 429.628 1170.19 430.826 1169.96 432.216C1169.9 432.46 1169.96 432.626 1170.18 432.896C1170.44 433.2 1170.61 433.272 1171.24 433.341C1171.66 433.388 1172.09 433.478 1172.2 433.537C1172.82 433.862 1172.69 434.628 1171.96 434.932C1171.57 435.098 1171.37 435.103 1170.35 434.97C1169.71 434.885 1169.06 434.846 1168.89 434.889C1168.4 435.013 1167.95 435.436 1167.95 435.791C1167.91 437.233 1168.68 438.956 1169.34 440.282C1169.65 440.885 1169.98 441.125 1170.5 441.125C1170.79 441.125 1171.13 440.791 1172.2 439.418C1172.99 438.404 1173.54 438.002 1173.92 438.152C1174.24 438.276 1174.14 438.879 1173.69 439.474C1172.91 440.492 1172.84 440.971 1173.41 441.527C1174.35 442.412 1176.17 443.19 1177.42 443.186C1178.11 443.16 1178.69 442.84 1178.91 442.373C1179.08 442.023 1179.08 441.817 1178.96 440.757C1178.8 439.431 1178.91 439.05 1179.44 438.909C1180.01 438.764 1180.38 439.337 1180.38 440.35C1180.38 441.398 1180.62 442.117 1181.12 442.583C1181.6 443.045 1184.73 441.86 1185.2 441.454C1185.96 440.752 1186.12 439.901 1185.7 438.832C1185.56 438.494 1185.45 438.165 1185.45 438.101C1185.45 438.032 1185.69 437.874 1185.98 437.75C1186.32 437.605 1186.6 437.369 1186.78 437.079C1187.04 436.664 1187.05 436.565 1186.95 435.53C1186.79 433.755 1186.82 433.084 1187.08 432.797C1187.64 432.177 1188.28 432.81 1188.41 434.123C1188.51 435.107 1188.8 435.885 1189.22 436.232C1189.55 436.514 1190 436.655 1189.89 436.446C1189.49 435.667 1189.41 435.338 1189.47 434.705C1189.5 434.329 1189.64 433.811 1189.77 433.559C1189.9 433.302 1190.16 432.785 1190.35 432.404C1190.55 432.023 1190.74 431.711 1190.79 431.711C1190.93 431.707 1191.09 432.1 1191.19 432.669C1191.24 432.968 1191.32 433.294 1191.36 433.396C1192.04 434.842 1192.45 435.329 1193.01 435.329C1193.36 435.329 1193.36 435.368 1193.05 434.581C1192.71 433.734 1192.72 433.033 1193.06 432.01C1193.42 430.963 1193.45 429.269 1193.14 428.525C1192.7 427.494 1193.08 427.096 1193.69 427.956C1193.92 428.285 1194.07 428.73 1194.2 429.474C1194.3 430.052 1194.49 430.757 1194.61 431.044C1194.86 431.587 1195.33 432.002 1195.64 431.934C1195.79 431.895 1195.79 431.831 1195.64 431.408C1195.43 430.826 1195.41 429.474 1195.6 428.987C1195.68 428.79 1195.74 428.213 1195.74 427.7C1195.74 426.81 1195.71 426.703 1195.08 425.407C1194.3 423.825 1194.18 423.247 1194.46 422.508C1194.81 421.605 1195.32 421.366 1196.08 421.755C1196.71 422.08 1196.94 422.76 1197.05 424.539C1197.17 426.37 1197.42 427.216 1198.07 427.909C1198.31 428.157 1198.53 428.328 1198.57 428.29C1198.6 428.256 1198.57 427.948 1198.5 427.61C1198.32 426.755 1198.33 425.518 1198.54 425.044C1198.63 424.826 1198.89 424.052 1199.11 423.32C1199.43 422.285 1199.52 421.781 1199.52 421.024C1199.52 420.138 1199.48 419.997 1199.12 419.394C1198.55 418.47 1197.92 418.047 1196.62 417.756C1195.48 417.5 1194.32 417.547 1193.52 417.876C1193.14 418.03 1192.79 418.124 1192.73 418.085C1192.68 418.047 1192.38 417.705 1192.07 417.333C1191.15 416.246 1190.41 415.806 1189.19 415.635C1188.19 415.489 1188.16 415.472 1187.57 414.869C1186.45 413.719 1184.84 413.056 1182.44 412.748C1181.87 412.675 1181.29 412.568 1181.14 412.508C1180.88 412.41 1180.88 412.384 1181.03 412.008C1181.57 410.785 1181.85 409.934 1182.02 409.019C1182.22 407.898 1182.26 405.623 1182.09 404.554C1182.03 404.186 1182 403.861 1182.03 403.831C1182.1 403.758 1183 404.729 1183.98 405.939C1186.3 408.805 1188.1 410.601 1189.45 411.401C1191.13 412.393 1192.6 412.829 1196.36 413.475C1198.77 413.89 1199.4 414.112 1199.84 414.707C1200.26 415.276 1200.39 415.836 1200.54 417.709C1200.71 419.775 1200.88 420.267 1201.56 420.664C1202.28 421.092 1202.37 421.062 1202.17 420.476C1201.85 419.574 1201.83 418.594 1202.11 416.862C1202.56 414.018 1202.43 412.658 1201.6 411.615C1201.14 411.033 1200.96 410.896 1200.01 410.34C1199.6 410.105 1199.28 409.852 1199.28 409.78C1199.28 409.707 1199.57 409.331 1199.93 408.942C1201.56 407.171 1202.27 405.529 1202.41 403.189C1202.56 400.854 1201.43 398.07 1199.05 394.901C1197.97 393.459 1197.9 393.271 1198.07 392.121C1198.22 391.03 1198.42 390.637 1199.13 389.982C1200.41 388.802 1201.88 389.041 1202.83 390.59C1203.11 391.034 1203.2 390.795 1203.07 389.957C1202.8 388.285 1202.23 387.438 1200.95 386.839C1200.34 386.552 1200.09 386.51 1199.15 386.514C1198.23 386.518 1197.96 386.574 1197.34 386.852C1196 387.468 1195.17 388.592 1194.72 390.41C1194.57 391.017 1194.41 391.513 1194.36 391.518C1194.23 391.518 1193.68 390.363 1193.47 389.632C1193.05 388.203 1193.32 385.667 1194 384.576C1194.74 383.387 1195.65 382.605 1196.86 382.13C1197.6 381.839 1197.86 381.805 1198.97 381.809C1200.36 381.818 1200.91 381.968 1201.82 382.579C1202.11 382.776 1202.35 382.887 1202.35 382.827C1202.35 382.468 1201.53 381.437 1200.85 380.954C1198.22 379.081 1195.03 379.303 1191.91 381.587C1191 382.258 1190.53 382.532 1190.53 382.395C1190.53 382.117 1192.01 380.706 1193.9 379.205C1194.19 378.974 1194.62 378.619 1194.86 378.418C1195.1 378.212 1195.7 377.725 1196.19 377.331C1198.53 375.445 1201.09 372.631 1202.12 370.813C1203.43 368.47 1204.39 365.532 1204.78 362.666C1204.9 361.717 1204.81 360.254 1204.63 360.254C1204.57 360.254 1204.52 360.327 1204.52 360.412C1204.52 360.84 1203.08 364.141 1202.25 365.626C1202.02 366.023 1200.99 367.525 1200.41 368.281C1199.17 369.92 1196.57 372.516 1195.28 373.414C1195.14 373.512 1194.73 373.812 1194.37 374.081C1193.58 374.675 1191.92 375.518 1191.74 375.411C1191.67 375.36 1191.79 375.026 1192.06 374.521C1192.51 373.696 1193.57 371.806 1193.78 371.481C1197 366.391 1198.77 362.085 1198.94 358.997C1199.05 356.858 1198.59 354.664 1197.67 353.018C1197.04 351.889 1195.2 350.079 1193.9 349.309C1191.66 347.988 1190.13 347.573 1187.4 347.603ZM1127.66 356.341V356.435C1127.66 356.418 1127.66 356.383 1127.66 356.341Z" fill="#F5D90A"/>
<path d="M1128.45 435.689C1128.14 435.671 1127.87 435.876 1127.8 436.173C1127.57 437.158 1127.39 438.152 1127.51 439.087C1127.64 440.061 1128.08 440.938 1129.01 441.682C1129.2 441.832 1129.46 441.863 1129.67 441.761C1129.89 441.658 1130.03 441.441 1130.04 441.2C1130.06 439.993 1130.3 438.988 1131.03 437.683C1131.17 437.435 1131.12 437.125 1130.92 436.925C1130.35 436.359 1129.4 435.742 1128.45 435.689Z" fill="#F5D90A" stroke="#202022" stroke-width="1.26156" stroke-linejoin="round"/>
<path d="M1174.02 440.971C1173.85 440.964 1173.68 441.027 1173.56 441.146C1173.43 441.265 1173.36 441.429 1173.36 441.601C1173.36 441.675 1173.36 441.751 1173.36 441.829C1173.36 442.639 1173.35 443.62 1173.73 444.599C1174.15 445.707 1175.02 446.747 1176.71 447.679C1176.93 447.804 1177.21 447.779 1177.41 447.616C1177.61 447.453 1177.69 447.185 1177.62 446.939C1177.07 445.202 1176.8 443.894 1176.96 442.603C1176.99 442.388 1176.9 442.175 1176.73 442.038C1175.89 441.345 1174.85 441.006 1174.02 440.971Z" fill="#F5D90A" stroke="#202022" stroke-width="1.26156" stroke-linejoin="round"/>
<path d="M1180.69 445.232C1180.57 445.461 1180.6 445.739 1180.77 445.934C1180.94 446.128 1181.21 446.2 1181.46 446.115C1182.85 445.628 1183.77 445.016 1184.35 444.228C1184.93 443.441 1185.13 442.556 1185.23 441.658C1185.26 441.341 1185.05 441.048 1184.74 440.976C1183.82 440.761 1182.5 440.941 1181.39 441.778C1181.21 441.917 1181.12 442.145 1181.15 442.373C1181.3 443.368 1181.1 444.423 1180.69 445.232Z" fill="#F5D90A" stroke="#202022" stroke-width="1.26156" stroke-linejoin="round"/>
<path d="M1173.71 428.945C1173.76 428.682 1173.63 428.42 1173.4 428.291L1173.36 428.272C1172.48 427.783 1171.66 427.327 1170.87 427.061C1170.05 426.784 1169.23 426.694 1168.35 426.981C1168.15 427.045 1168 427.202 1167.94 427.402C1167.88 427.601 1167.93 427.816 1168.06 427.977C1168.19 428.14 1168.32 428.297 1168.45 428.451C1169.16 429.312 1169.82 430.101 1170.37 431.481C1170.44 431.652 1170.58 431.785 1170.75 431.844C1170.93 431.903 1171.12 431.884 1171.28 431.79C1172.46 431.089 1173.51 430.167 1173.71 428.945Z" fill="#F5D90A" stroke="#202022" stroke-width="1.26156" stroke-linejoin="round"/>
<path d="M1139.04 436.945C1139.08 436.767 1139.04 436.582 1138.93 436.436C1138.82 436.291 1138.66 436.2 1138.47 436.187C1137.3 436.099 1136.22 436.474 1135.41 436.91C1135.22 437.016 1135.09 437.216 1135.08 437.438C1135.04 438.38 1134.61 439.188 1133.85 440.412C1133.72 440.628 1133.73 440.902 1133.88 441.109C1134.02 441.315 1134.28 441.414 1134.53 441.358C1136.77 440.859 1138.56 439.257 1139.04 436.945Z" fill="#F5D90A" stroke="#202022" stroke-width="1.26156" stroke-linejoin="round"/>
<path d="M1113.7 353.883C1113.46 353.914 1113.26 354.076 1113.18 354.301C1113.1 354.527 1113.16 354.778 1113.33 354.949C1114.23 355.879 1114.89 356.839 1115.31 358.12C1115.38 358.323 1115.55 358.478 1115.75 358.532C1115.96 358.586 1116.18 358.531 1116.34 358.386C1117.1 357.684 1117.76 356.909 1118.21 355.927C1118.35 355.623 1118.23 355.261 1117.93 355.105C1117.81 355.041 1117.69 354.973 1117.56 354.904C1116.52 354.341 1115.29 353.676 1113.7 353.883Z" fill="#F5D90A" stroke="#202022" stroke-width="1.26156" stroke-linejoin="round"/>
<path d="M1126.02 428.726C1125.85 428.488 1125.54 428.396 1125.27 428.504C1123.52 429.206 1122.09 430.463 1121.17 432.139C1121.05 432.353 1121.06 432.615 1121.21 432.813C1121.35 433.01 1121.6 433.108 1121.84 433.063C1123.19 432.808 1124.55 432.582 1125.88 432.465C1126.16 432.441 1126.39 432.238 1126.45 431.965C1126.45 431.943 1126.46 431.921 1126.46 431.898C1126.63 431.073 1126.87 429.936 1126.02 428.726Z" fill="#F5D90A" stroke="#202022" stroke-width="1.26156" stroke-linejoin="round"/>
<path d="M1121.5 394.698C1121.56 394.525 1121.54 394.334 1121.45 394.173C1120.97 393.326 1120.41 392.596 1119.68 392.096C1118.94 391.586 1118.06 391.346 1117.02 391.411C1116.8 391.425 1116.6 391.555 1116.5 391.754C1116.4 391.953 1116.41 392.19 1116.53 392.379C1116.6 392.494 1116.67 392.604 1116.74 392.71C1117.33 393.62 1117.73 394.246 1117.85 395.277C1117.86 395.423 1117.93 395.558 1118.03 395.659C1118.74 396.341 1119.59 396.278 1120.22 395.988C1120.52 395.846 1120.79 395.645 1121.01 395.431C1121.21 395.222 1121.4 394.967 1121.5 394.698Z" fill="#F5D90A" stroke="#202022" stroke-width="1.26156" stroke-linejoin="round"/>
<path d="M1132.41 422.379C1132.54 422.268 1132.62 422.11 1132.63 421.941C1132.64 421.772 1132.58 421.605 1132.46 421.48C1130.98 419.833 1129.14 419.064 1127.12 419.283C1126.89 419.308 1126.69 419.456 1126.6 419.67C1126.51 419.883 1126.55 420.128 1126.69 420.307C1126.97 420.642 1127.24 420.959 1127.5 421.269C1128.17 422.047 1128.8 422.783 1129.31 423.652C1129.47 423.921 1129.8 424.034 1130.09 423.92C1130.81 423.633 1131.26 423.363 1131.62 423.087C1131.8 422.951 1131.94 422.821 1132.06 422.702C1132.09 422.676 1132.12 422.65 1132.14 422.625C1132.24 422.537 1132.32 422.46 1132.41 422.379Z" fill="#F5D90A" stroke="#202022" stroke-width="1.26156" stroke-linejoin="round"/>
<path d="M1144.49 368.029C1144.69 368.224 1145 368.264 1145.24 368.129C1145.48 367.994 1145.61 367.715 1145.55 367.443C1144.95 364.679 1143.21 363.278 1141.58 362.063C1141.67 361.919 1141.75 361.761 1141.83 361.598C1142 361.251 1142.16 360.844 1142.19 360.37C1142.19 360.364 1142.19 360.357 1142.19 360.351C1142.25 359.05 1141.82 358.069 1141.03 357.481C1140.27 356.909 1139.29 356.792 1138.39 356.969C1136.61 357.317 1134.76 358.915 1135.1 361.308C1135.21 362.113 1135.52 362.968 1136.19 363.834L1136.19 363.834L1136.19 363.842C1136.7 364.481 1137.38 364.919 1138.1 365.255C1138.82 365.59 1139.63 365.842 1140.4 366.084C1142.01 366.584 1143.48 367.045 1144.49 368.029Z" fill="#F5D90A" stroke="#202022" stroke-width="1.26156" stroke-linejoin="round"/>
<path d="M1132.15 351.2C1132.03 351.027 1131.83 350.925 1131.62 350.928C1131.41 350.931 1131.21 351.04 1131.1 351.217C1130.51 352.128 1129.92 353.025 1129.23 353.741C1129.23 353.749 1129.22 353.757 1129.21 353.766C1128.94 354.086 1129.05 354.455 1129.1 354.595C1129.17 354.762 1129.28 354.911 1129.38 355.028C1129.59 355.271 1129.88 355.525 1130.18 355.736C1130.48 355.946 1130.83 356.148 1131.17 356.255C1131.33 356.308 1131.53 356.352 1131.75 356.334C1131.97 356.314 1132.25 356.215 1132.43 355.951C1132.47 355.889 1132.5 355.819 1132.52 355.745C1132.91 354.199 1132.99 352.414 1132.15 351.2Z" fill="#F5D90A" stroke="#202022" stroke-width="1.26156" stroke-linejoin="round"/>
<path d="M1120.89 348.776C1120.68 348.752 1120.47 348.835 1120.34 348.999C1120.2 349.162 1120.15 349.383 1120.22 349.586C1120.33 349.953 1120.44 350.268 1120.55 350.56C1120.83 351.339 1121.05 351.949 1121.01 352.92C1121 353.182 1121.15 353.422 1121.39 353.525C1122.74 354.092 1123.95 353.978 1124.92 353.315C1125.18 353.14 1125.27 352.808 1125.14 352.528C1124.36 350.849 1123 349.016 1120.89 348.776Z" fill="#F5D90A" stroke="#202022" stroke-width="1.26156" stroke-linejoin="round"/>
<path d="M1116.52 364.532C1116.41 364.325 1116.21 364.19 1115.98 364.18C1114.93 364.138 1114.04 363.859 1113.2 363.154C1113.02 362.997 1112.76 362.96 1112.54 363.058C1112.32 363.157 1112.17 363.373 1112.17 363.615C1112.12 365.142 1112.69 366.302 1113.57 367.041C1114.44 367.765 1115.57 368.05 1116.6 367.926C1116.9 367.889 1117.14 367.641 1117.16 367.336C1117.2 366.497 1117.03 365.581 1116.52 364.532Z" fill="#F5D90A" stroke="#202022" stroke-width="1.26156" stroke-linejoin="round"/>
<path d="M1114.87 399.955C1114.83 399.792 1114.72 399.654 1114.58 399.57C1114.43 399.485 1114.26 399.463 1114.1 399.506C1113.25 399.731 1112.19 400.038 1111.29 400.51C1110.41 400.975 1109.53 401.675 1109.29 402.755C1109.24 402.966 1109.31 403.185 1109.46 403.338C1109.61 403.49 1109.83 403.554 1110.04 403.507C1111.51 403.184 1112.85 403.198 1114.15 403.454C1114.44 403.511 1114.73 403.362 1114.85 403.094C1115.29 402.101 1115.15 401.028 1114.87 399.955Z" fill="#F5D90A" stroke="#202022" stroke-width="1.26156" stroke-linejoin="round"/>
<path d="M1113.93 411.79C1114.01 412.026 1114.22 412.195 1114.47 412.221C1114.72 412.247 1114.95 412.125 1115.08 411.911C1115.69 410.853 1116.46 409.968 1117.4 409.117C1117.63 408.914 1117.68 408.579 1117.52 408.32C1116.98 407.437 1116.2 406.747 1115.49 406.395C1115.19 406.245 1114.82 406.363 1114.66 406.662C1114.28 407.367 1113.9 408.094 1113.72 408.922C1113.54 409.771 1113.57 410.689 1113.93 411.79Z" fill="#F5D90A" stroke="#202022" stroke-width="1.26156" stroke-linejoin="round"/>
<path d="M1126.61 409.001C1126.68 408.821 1126.67 408.62 1126.57 408.455C1126.47 408.289 1126.3 408.177 1126.11 408.15C1125.67 408.088 1125.1 408.125 1124.54 408.215C1123.97 408.307 1123.35 408.462 1122.81 408.665C1122.59 408.744 1122.44 408.929 1122.4 409.151C1122.27 409.933 1121.87 410.631 1121.25 411.458C1121.1 411.666 1121.08 411.949 1121.22 412.17C1121.36 412.391 1121.62 412.504 1121.88 412.456C1123.54 412.138 1124.63 411.589 1125.36 410.93C1126.09 410.269 1126.41 409.545 1126.61 409.001Z" fill="#F5D90A" stroke="#202022" stroke-width="1.26156" stroke-linejoin="round"/>
<path d="M1168.78 436.028C1168.67 435.892 1168.51 435.808 1168.33 435.795C1168.16 435.782 1167.99 435.842 1167.86 435.96C1167.77 436.041 1167.68 436.123 1167.59 436.207C1166.92 436.816 1166.19 437.492 1165.62 438.241C1164.96 439.108 1164.47 440.138 1164.56 441.378C1164.58 441.629 1164.75 441.845 1164.99 441.928C1165.23 442.01 1165.49 441.943 1165.66 441.757C1166.72 440.589 1168.05 440.172 1169.51 439.937C1169.82 439.886 1170.05 439.61 1170.04 439.291C1169.98 437.853 1169.48 436.897 1168.78 436.028Z" fill="#F5D90A" stroke="#202022" stroke-width="1.26156" stroke-linejoin="round"/>
</g>
</g>
</g>
<path d="M621.475 569.381H674.667V576.825H629.52V607.564H671.905V615.129H629.52V656.434H621.475V569.381ZM693.074 656.434H685.029V569.381H693.074V656.434ZM721.802 648.989H767.91V656.434H713.757V569.381H721.802V648.989ZM805.182 569.381H837.962C841.885 569.381 845.727 569.701 849.489 570.341C853.252 570.982 856.614 572.142 859.575 573.823C862.537 575.424 864.899 577.666 866.66 580.548C868.421 583.429 869.301 587.112 869.301 591.594C869.301 595.677 868.301 599.399 866.3 602.761C864.378 606.123 862.137 608.605 859.575 610.206C861.336 611.006 863.018 612.007 864.618 613.207C866.219 614.328 867.62 615.689 868.821 617.29C870.022 618.891 870.942 620.812 871.583 623.053C872.303 625.215 872.663 627.736 872.663 630.618C872.663 635.341 871.783 639.343 870.022 642.625C868.341 645.827 866.019 648.469 863.058 650.55C860.096 652.631 856.614 654.152 852.611 655.113C848.689 655.993 844.526 656.434 840.124 656.434H805.182V569.381ZM820.432 644.186H840.724C846.167 644.186 850.21 643.025 852.851 640.704C855.573 638.303 856.934 634.941 856.934 630.618C856.934 626.135 855.533 622.813 852.731 620.652C850.01 618.491 845.727 617.41 839.883 617.41H820.432V644.186ZM820.432 605.763H839.403C843.886 605.763 847.408 604.762 849.97 602.761C852.531 600.76 853.812 597.598 853.812 593.275C853.812 589.433 852.491 586.551 849.85 584.63C847.208 582.629 843.726 581.628 839.403 581.628H820.432V605.763ZM907.752 569.381H923.842L956.501 656.434H939.811L932.967 637.102H897.666L890.942 656.434H875.332L907.752 569.381ZM902.108 624.374H928.404L915.196 587.031L902.108 624.374ZM1016.87 656.434L980.009 586.911V656.434H965.24V569.381H985.653L1022.52 638.903V569.381H1037.28V656.434H1016.87ZM1093.13 567.82C1102.9 567.82 1110.98 570.381 1117.38 575.504C1123.87 580.548 1128.03 587.712 1129.87 596.998H1115.34C1113.9 591.634 1111.22 587.512 1107.3 584.63C1103.38 581.748 1098.53 580.307 1092.77 580.307C1089.09 580.307 1085.64 580.988 1082.44 582.349C1079.32 583.709 1076.6 585.751 1074.28 588.472C1072.04 591.194 1070.28 594.556 1068.99 598.558C1067.71 602.561 1067.07 607.244 1067.07 612.607C1067.07 617.89 1067.67 622.573 1068.87 626.656C1070.16 630.738 1071.88 634.18 1074.04 636.982C1076.28 639.783 1078.96 641.905 1082.08 643.346C1085.28 644.787 1088.81 645.507 1092.65 645.507C1095.21 645.507 1097.85 645.187 1100.57 644.546C1103.38 643.906 1105.9 642.825 1108.14 641.304C1110.46 639.783 1112.34 637.742 1113.78 635.181C1115.22 632.539 1115.94 629.297 1115.94 625.455V623.774H1093.73V610.926H1130.11V656.434H1118.1L1117.62 645.987C1115.06 649.83 1111.46 652.791 1106.82 654.873C1102.25 656.954 1096.97 657.995 1090.97 657.995C1084.8 657.995 1079.24 656.914 1074.28 654.753C1069.39 652.591 1065.23 649.549 1061.79 645.627C1058.43 641.625 1055.83 636.822 1053.99 631.218C1052.22 625.615 1051.34 619.411 1051.34 612.607C1051.34 605.883 1052.3 599.759 1054.23 594.236C1056.15 588.713 1058.91 583.99 1062.51 580.067C1066.11 576.145 1070.48 573.143 1075.6 571.062C1080.8 568.9 1086.65 567.82 1093.13 567.82ZM1161.77 610.806L1198.75 569.381H1216.89L1184.59 604.802L1219.89 656.434H1201.88L1174.5 615.849L1161.77 629.777V656.434H1146.52V569.381H1161.77V610.806ZM1233.82 612.847C1233.82 618.13 1234.46 622.813 1235.74 626.896C1237.1 630.978 1238.94 634.42 1241.26 637.222C1243.66 639.944 1246.42 642.025 1249.54 643.466C1252.67 644.827 1256.03 645.507 1259.63 645.507C1263.23 645.507 1266.6 644.827 1269.72 643.466C1272.84 642.025 1275.56 639.944 1277.88 637.222C1280.28 634.42 1282.12 630.978 1283.41 626.896C1284.77 622.813 1285.45 618.13 1285.45 612.847C1285.45 607.564 1284.77 602.921 1283.41 598.919C1282.12 594.836 1280.28 591.434 1277.88 588.713C1275.56 585.911 1272.84 583.83 1269.72 582.469C1266.6 581.028 1263.23 580.307 1259.63 580.307C1256.03 580.307 1252.67 581.028 1249.54 582.469C1246.42 583.83 1243.66 585.911 1241.26 588.713C1238.94 591.434 1237.1 594.836 1235.74 598.919C1234.46 602.921 1233.82 607.564 1233.82 612.847ZM1301.18 612.847C1301.18 619.571 1300.22 625.695 1298.29 631.218C1296.37 636.742 1293.61 641.505 1290.01 645.507C1286.41 649.429 1282.04 652.511 1276.92 654.753C1271.8 656.914 1266.03 657.995 1259.63 657.995C1253.23 657.995 1247.46 656.914 1242.34 654.753C1237.22 652.511 1232.85 649.429 1229.25 645.507C1225.65 641.505 1222.89 636.742 1220.97 631.218C1219.05 625.695 1218.09 619.571 1218.09 612.847C1218.09 606.123 1219.05 599.999 1220.97 594.476C1222.89 588.953 1225.65 584.23 1229.25 580.307C1232.85 576.305 1237.22 573.223 1242.34 571.062C1247.46 568.9 1253.23 567.82 1259.63 567.82C1266.03 567.82 1271.8 568.9 1276.92 571.062C1282.04 573.223 1286.41 576.305 1290.01 580.307C1293.61 584.23 1296.37 588.953 1298.29 594.476C1300.22 599.999 1301.18 606.123 1301.18 612.847ZM1330.51 610.806L1367.49 569.381H1385.62L1353.32 604.802L1388.62 656.434H1370.61L1343.23 615.849L1330.51 629.777V656.434H1315.26V569.381H1330.51V610.806Z" fill="white"/>
<defs>
<clipPath id="clip0_1285_1245">
<rect width="168.208" height="168.208" fill="white" transform="translate(757.414 312.959)"/>
</clipPath>
<clipPath id="clip1_1285_1245">
<rect width="126.156" height="76.3823" fill="white" transform="translate(778.844 355.854)"/>
</clipPath>
<clipPath id="clip2_1285_1245">
<rect width="167.959" height="167.959" fill="white" transform="translate(757.414 313.084)"/>
</clipPath>
<clipPath id="clip3_1285_1245">
<rect width="168.208" height="168.208" fill="white" transform="translate(1073.45 312.961)"/>
</clipPath>
<clipPath id="clip4_1285_1245">
<rect width="96.1187" height="100.925" fill="white" transform="translate(1109.91 347.01)"/>
</clipPath>
</defs>
</svg>
