<svg width="221" height="41" viewBox="0 0 221 41" fill="none" xmlns="http://www.w3.org/2000/svg">
<g clip-path="url(#clip0_1535_524)">
<path d="M3.30176 1.49066L10.1478 13.2541H24.3283L3.30176 1.49066Z" fill="white"/>
<path d="M10.6235 14.0711L14.0941 20.0342L24.4904 14.0711H10.6235Z" fill="white"/>
<path d="M14.374 20.5168L17.7512 26.3179L24.7326 14.6608L14.374 20.5168Z" fill="white"/>
<path d="M25.3994 39.4584V14.9921L18.0674 26.8636L25.3994 39.4584Z" fill="white"/>
<path d="M27.1504 13.2542H41.331L48.177 1.49075L27.1504 13.2542Z" fill="white"/>
<path d="M37.3841 20.0338L40.8547 14.0706H26.9878L37.3841 20.0338Z" fill="white"/>
<path d="M33.7228 26.3137L37.0999 20.5126L26.7456 14.6566L33.7228 26.3137Z" fill="white"/>
<path d="M26.0815 39.4587L33.4144 26.8587L26.0815 14.9925V39.4587Z" fill="white"/>
<path d="M75.3633 5.15559H74.9802L74.7719 5.47445L66.4576 18.1876L58.1433 5.47445L57.9341 5.15559H54.3599L55.0764 6.25017L65.1222 21.593C65.3194 21.9029 65.6135 22.1388 65.9587 22.2642L66.0727 22.3053H66.8219L66.9239 22.2736C67.2894 22.1553 67.603 21.9146 67.8119 21.5922L77.8353 6.2493L78.5485 5.15474H75.3624L75.3633 5.15559Z" fill="white"/>
<path d="M97.9553 7.0055C96.2521 5.62379 93.7596 4.92436 90.5444 4.92436C87.3096 4.92436 84.8076 5.62379 83.107 7.0055C81.313 8.45664 80.4019 10.7015 80.4019 13.6775C80.4019 16.6535 81.3079 18.9206 83.0925 20.3684C84.7956 21.7518 87.3001 22.4521 90.5444 22.4521C91.9741 22.4718 93.4001 22.3012 94.7847 21.9446C95.9435 21.6446 97.0269 21.1059 97.9656 20.3632C99.7425 18.9129 100.642 16.6612 100.642 13.6724C100.642 10.6835 99.7399 8.45578 97.9553 7.0055ZM97.6561 13.6741C97.6561 15.7424 97.1273 17.1704 96.0396 18.0532C94.8816 18.9909 93.031 19.4666 90.5401 19.4666C88.0493 19.4666 86.1687 18.9901 85.0039 18.0481C83.9093 17.1678 83.3822 15.7338 83.3822 13.6689C83.3822 11.6041 83.9162 10.1872 85.0048 9.31637C86.1713 8.37865 88.0347 7.90294 90.5419 7.90294C93.049 7.90294 94.8833 8.37779 96.0473 9.31293C97.1342 10.1846 97.6561 11.6109 97.6561 13.6758V13.6741Z" fill="white"/>
<path d="M175.58 5.15559H174.873V22.2213H193.044V19.2376H177.853V15.0325H193.044V12.0487H177.853V8.14017H193.044V5.15559H175.575H175.58Z" fill="white"/>
<path d="M125.523 5.15562H122.872L122.669 5.33563L114.321 12.8982L105.955 5.33563L105.753 5.15477H101.295L102.654 6.38477L112.822 15.593V22.2213H115.806V15.6016L125.999 6.38906L127.36 5.15906L125.523 5.15562Z" fill="white"/>
<path d="M137.105 5.78212C137.024 5.65898 136.928 5.54592 136.821 5.44527L136.809 5.43327L136.795 5.42212C136.513 5.18716 136.157 5.06068 135.79 5.06555H135.735C135.471 5.06249 135.211 5.1265 134.98 5.25156C134.748 5.37662 134.552 5.55861 134.41 5.78041C134.392 5.81041 132.815 8.21298 132.815 8.21298L129.366 13.4707L124.349 21.119L123.632 22.2135H127.219L127.428 21.8938L135.742 9.18155L143.475 21.0101L143.605 21.2055L144.05 21.8913L144.258 22.2127H147.839L147.125 21.1181L137.105 5.78212Z" fill="white"/>
<path d="M218.951 20.9622L211.619 15.0342C212.928 15.0228 214.179 14.4918 215.097 13.5581C216.014 12.6243 216.523 11.3642 216.512 10.055C216.501 8.74585 215.97 7.4948 215.036 6.57711C214.102 5.65941 212.842 5.15024 211.533 5.16161H197.978V8.14189H211.532C211.794 8.13414 212.054 8.17897 212.298 8.2737C212.542 8.36842 212.764 8.51112 212.952 8.69336C213.139 8.8756 213.289 9.09366 213.391 9.33462C213.492 9.57558 213.545 9.83455 213.545 10.0962C213.545 10.3578 213.492 10.6168 213.391 10.8577C213.289 11.0987 213.139 11.3168 212.952 11.499C212.764 11.6812 212.542 11.8239 212.298 11.9187C212.054 12.0134 211.794 12.0582 211.532 12.0505H197.978V22.2239H200.962V15.0342H206.853L215.519 22.0628L215.712 22.2213H220.503L218.951 20.9622Z" fill="white"/>
<path d="M157.483 5.15477C155.916 5.15658 154.415 5.77956 153.307 6.88703C152.2 7.99449 151.577 9.49601 151.575 11.0622V22.2188H169.641V11.9571H159.886V14.9433H166.658V19.2351H154.557V11.1428C154.559 10.3476 154.875 9.58547 155.438 9.0232C156 8.46093 156.762 8.14436 157.557 8.14278H169.936V5.15477H157.483Z" fill="white"/>
<path d="M103.157 33.6388C102.302 33.17 101.333 32.9511 100.359 33.007H97.1724C96.6526 33.053 96.1297 32.9672 95.6518 32.7576C95.6201 32.7396 95.5301 32.6822 95.5301 32.3127C95.5301 31.8987 95.6518 31.8113 95.7178 31.7702C96.174 31.5442 96.6845 31.4506 97.1912 31.5002H103.639L105.514 29.0865H97.1732C96.1713 29.0246 95.1745 29.2714 94.3172 29.7936C93.9195 30.0778 93.5996 30.4575 93.3871 30.8977C93.1745 31.3379 93.0761 31.8245 93.101 32.3127C93.07 32.804 93.1716 33.2946 93.3951 33.7332C93.6185 34.1718 93.9556 34.5424 94.3712 34.8062C95.2276 35.2705 96.1963 35.4874 97.1689 35.4327H100.352C100.866 35.3874 101.383 35.4742 101.854 35.6847C101.891 35.707 101.988 35.7653 101.988 36.1399C101.988 36.5573 101.866 36.6439 101.803 36.685C101.352 36.9093 100.847 37.0019 100.346 36.9525H93.2835L91.4072 39.3636H100.356C101.354 39.4245 102.346 39.1776 103.2 38.6564C103.598 38.3721 103.918 37.9922 104.13 37.5516C104.343 37.1111 104.441 36.6241 104.416 36.1356C104.448 35.6449 104.349 35.1545 104.127 34.7154C103.906 34.2763 103.571 33.9046 103.157 33.6388Z" fill="white"/>
<path d="M125.814 31.0921C125.572 30.6272 125.224 30.2258 124.799 29.9204C124.372 29.6191 123.893 29.3997 123.386 29.2733C122.863 29.1427 122.326 29.0785 121.787 29.0821H115.597L113.717 31.501H121.783C122.107 31.4971 122.43 31.5355 122.744 31.615C122.968 31.6707 123.181 31.765 123.373 31.8936C123.495 31.9778 123.595 32.0901 123.665 32.221C123.736 32.3687 123.769 32.5314 123.763 32.695C123.77 32.8515 123.738 33.0073 123.67 33.1484C123.607 33.2658 123.515 33.3648 123.403 33.4356C123.211 33.557 122.999 33.644 122.777 33.6927C122.451 33.7666 122.118 33.802 121.783 33.7982H114.971V39.3696H117.385V36.2067H121.786C122.314 36.2103 122.841 36.1547 123.356 36.0413C123.86 35.9302 124.34 35.7268 124.77 35.4413C125.204 35.1481 125.56 34.7528 125.806 34.2901C126.061 33.7969 126.189 33.2483 126.181 32.6933C126.189 32.1378 126.063 31.5884 125.814 31.0921Z" fill="white"/>
<path d="M157.803 36.7272C157.439 36.5886 157.104 36.382 156.816 36.1186C156.55 35.8731 156.338 35.5755 156.192 35.2443C156.041 34.8993 155.965 34.5262 155.969 34.1497C155.964 33.7822 156.039 33.418 156.187 33.0817C156.329 32.7694 156.537 32.4911 156.796 32.2657C157.082 32.0203 157.412 31.8315 157.768 31.7095C158.192 31.5668 158.637 31.4964 159.085 31.5012H164.001L166.144 29.0849H159.087C158.365 29.0792 157.647 29.1951 156.963 29.4277C156.309 29.651 155.706 30.0005 155.187 30.4563C154.678 30.9076 154.271 31.4611 153.992 32.0806C153.702 32.7314 153.556 33.4367 153.563 34.1489C153.56 34.8646 153.706 35.5732 153.992 36.2292C154.267 36.8605 154.669 37.4283 155.174 37.8972C155.686 38.3678 156.284 38.7359 156.934 38.9815C157.624 39.2411 158.356 39.3713 159.093 39.3655H164.009L166.152 36.9535H159.096C158.655 36.9595 158.216 36.8828 157.803 36.7272Z" fill="white"/>
<path d="M177.527 36.9524V35.3504H184.102L186.245 32.9367H177.524V31.5001H184.443L186.32 29.0864H175.113V39.3635H184.472L186.614 36.9489L177.527 36.9524Z" fill="white"/>
<path d="M140.066 29.5581L140.052 29.5358C139.856 29.2756 139.57 29.0976 139.25 29.0361L138.907 29.0215L138.751 29.0429C138.578 29.08 138.414 29.1551 138.273 29.2628C138.132 29.3706 138.017 29.5083 137.935 29.6661L131.565 39.3638H134.466L136.393 36.4204H141.669L143.593 39.3638H146.472L140.066 29.5581ZM137.502 34.3161L139.028 31.9855L140.554 34.3161H137.502Z" fill="white"/>
</g>
<defs>
<clipPath id="clip0_1535_524">
<rect width="220" height="40" fill="white" transform="translate(0.529297 0.25)"/>
</clipPath>
</defs>
</svg>
