<svg width="175" height="46" viewBox="0 0 175 46" fill="none" xmlns="http://www.w3.org/2000/svg">
<g clip-path="url(#clip0_1535_548)">
<g clip-path="url(#clip1_1535_548)">
<path d="M174.055 34.318H44.8105C49.5753 28.2966 52.2365 21.5736 52.0781 11.3686H174.055V34.318Z" fill="#606B6F"/>
<path d="M35.5089 36.7045C45.8161 28.2967 49.1667 15.345 42.9925 7.77598C36.8184 0.207004 23.4576 0.887029 13.1503 9.29486C2.843 17.7027 -0.507556 30.6545 5.6666 38.2234C11.8407 45.7924 25.2016 45.1124 35.5089 36.7045Z" fill="#F15E2D"/>
<path d="M34.7232 8.46105C39.2562 14.0191 36.5113 23.7607 28.5918 30.2219C20.6736 36.6806 10.5786 37.411 6.0442 31.8556C1.51112 26.2949 4.2561 16.5533 12.1756 10.0934C20.095 3.63344 30.1901 2.90171 34.7232 8.46105Z" fill="url(#paint0_linear_1535_548)"/>
<path d="M21.1575 30.2679V34.0391H6.50586V30.2679H9.30713V15.9382H6.83966C6.83966 15.9382 7.74025 14.6017 8.54005 13.6003C9.33985 12.599 10.6004 11.4143 10.6004 11.4143H20.9416V15.7235H18.1403V30.2666L21.1575 30.2679Z" fill="white"/>
<path d="M23.7456 18.5249V11.2442H45.1845C45.1845 11.2442 46.0118 12.7744 46.1741 14.7353C46.3377 16.6949 46.0445 18.3573 46.0445 18.3573H44.2682L43.1909 15.7053H40.3346V29.8399H41.7784C41.7784 29.8399 41.3583 30.7012 40.3346 31.9945C39.328 33.2655 38.4392 34.1491 38.4392 34.1491H28.9149V30.1632H32.1468V15.7249H29.2382L27.8362 18.5262L23.7456 18.5249Z" fill="url(#paint1_linear_1535_548)"/>
<path d="M68.3305 27.5322C67.9888 27.6448 67.6786 27.7522 67.4024 27.849C67.1249 27.9511 66.7623 28.0558 66.3146 28.1632C65.935 28.2522 65.5227 28.3294 65.0776 28.3936C64.6338 28.4577 64.143 28.4878 63.6076 28.4878C62.5996 28.4878 61.6847 28.3805 60.86 28.1658C60.0353 27.9511 59.318 27.6134 58.708 27.1566C58.1098 26.7063 57.6438 26.1368 57.3087 25.4431C56.9735 24.7532 56.8047 23.9469 56.8047 23.0293C56.8047 22.1601 56.967 21.3852 57.2903 20.6979C57.6136 20.0133 58.0797 19.4347 58.6897 18.9622C59.2813 18.5014 59.9947 18.1545 60.8312 17.9111C61.6689 17.6702 62.5983 17.5511 63.6167 17.5511C64.3642 17.5511 65.109 17.6205 65.8525 17.7553C66.5947 17.8927 67.422 18.1336 68.3305 18.4792V20.1455H68.1904C67.4259 19.6573 66.6654 19.3038 65.914 19.0813C65.1614 18.8588 64.355 18.7462 63.4963 18.7462C62.7934 18.7462 62.1598 18.8326 61.597 19.0067C61.0341 19.1782 60.5314 19.4465 60.0903 19.8091C59.6609 20.1639 59.3271 20.6142 59.0876 21.1535C58.848 21.6954 58.7289 22.3198 58.7289 23.028C58.7289 23.7689 58.8598 24.409 59.1256 24.943C59.39 25.4771 59.7303 25.9117 60.1479 26.2468C60.5838 26.5976 61.0917 26.8555 61.6729 27.0217C62.2554 27.1932 62.8706 27.2744 63.5173 27.2744C64.4074 27.2744 65.2399 27.1592 66.0188 26.9262C66.7963 26.6958 67.5241 26.3489 68.2022 25.8855H68.3331V27.5322H68.3305Z" fill="white"/>
<path d="M82.6824 28.2967H80.283L75.636 24.1013H73.0324V28.2967H71.1841V17.7422H75.0758C75.9161 17.7422 76.6164 17.7827 77.1754 17.8652C77.7356 17.949 78.2396 18.0956 78.6873 18.3103C79.1913 18.5511 79.5853 18.8548 79.868 19.22C80.1508 19.5852 80.2934 20.0512 80.2934 20.6128C80.2934 21.372 80.0408 22.0108 79.5368 22.5253C79.0342 23.0371 78.3391 23.4232 77.4555 23.6811L82.6824 28.2967ZM78.36 20.7136C78.36 20.4099 78.2894 20.1403 78.1493 19.9086C78.0092 19.6729 77.7775 19.4766 77.4542 19.3156C77.1859 19.1794 76.8691 19.0852 76.5026 19.0289C76.1347 18.9752 75.7028 18.9464 75.204 18.9464H73.0298V22.9297H74.8964C75.4815 22.9297 75.992 22.8918 76.4266 22.8119C76.8625 22.7347 77.2317 22.5894 77.538 22.3773C77.8181 22.1784 78.0249 21.9506 78.1585 21.6953C78.2933 21.4375 78.36 21.1102 78.36 20.7136Z" fill="white"/>
<path d="M93.8339 28.2967H84.6787V17.7422H93.8339V18.9897H86.527V21.8813H93.8339V23.1262H86.527V27.0479H93.8339V28.2967Z" fill="white"/>
<path d="M108.344 28.2966H106.375L105.012 25.3566H99.0026L97.64 28.2966H95.7642L100.822 17.7421H103.286L108.344 28.2966ZM104.443 24.1523L102.007 18.97L99.5616 24.1523H104.443Z" fill="white"/>
<path d="M118.883 18.9912H113.919V28.2969H112.071V18.9912H107.106V17.7437H118.883V18.9912Z" fill="white"/>
<path d="M126.781 28.2969H121.293V27.2209H123.113V18.8197H121.293V17.7437H126.781V18.8197H124.961V27.2209H126.781V28.2969Z" fill="white"/>
<path d="M139.669 18.9545C140.234 19.4271 140.669 20.0057 140.97 20.6903C141.272 21.3749 141.423 22.1524 141.423 23.0242C141.423 23.8934 141.27 24.671 140.961 25.3608C140.653 26.0454 140.221 26.6188 139.669 27.0795C139.095 27.5547 138.42 27.916 137.639 28.1555C136.858 28.3964 135.966 28.5155 134.966 28.5155C133.988 28.5155 133.1 28.3925 132.3 28.1477C131.502 27.9016 130.821 27.5468 130.262 27.0795C129.702 26.6122 129.271 26.0363 128.968 25.3569C128.667 24.6762 128.516 23.8973 128.516 23.0255C128.516 22.1642 128.665 21.3919 128.965 20.7086C129.264 20.0266 129.698 19.4428 130.27 18.9545C130.82 18.4912 131.499 18.1364 132.311 17.8903C133.124 17.6442 134.007 17.5225 134.967 17.5225C135.963 17.5225 136.856 17.6455 137.649 17.8956C138.434 18.1443 139.102 18.4977 139.665 18.9545H139.669ZM139.499 23.0255C139.499 21.6524 139.094 20.5973 138.285 19.8525C137.476 19.1077 136.373 18.7346 134.972 18.7346C133.56 18.7346 132.45 19.1077 131.646 19.8525C130.838 20.596 130.436 21.6524 130.436 23.0255C130.436 24.4092 130.847 25.4695 131.67 26.2038C132.489 26.9408 133.592 27.306 134.972 27.306C136.353 27.306 137.453 26.9408 138.271 26.2038C139.095 25.4695 139.501 24.4079 139.501 23.0255H139.499Z" fill="white"/>
<path d="M154.051 28.2967H151.763L145.174 18.8548V28.2967H143.448V17.7422H146.312L152.32 26.3633V17.7422H154.048V28.2967H154.051Z" fill="white"/>
<path d="M166.67 25.2848C166.67 25.6945 166.542 26.1029 166.292 26.5048C166.039 26.9067 165.686 27.2457 165.233 27.5245C164.734 27.8256 164.154 28.0638 163.492 28.2353C162.83 28.4042 162.032 28.4879 161.099 28.4879C160.096 28.4879 159.197 28.4186 158.397 28.2785C157.598 28.1358 156.785 27.9251 155.956 27.6449V25.8883H156.09C156.79 26.3307 157.603 26.6737 158.523 26.9158C159.443 27.1567 160.307 27.2758 161.117 27.2758C162.263 27.2758 163.153 27.1122 163.789 26.7875C164.428 26.4603 164.747 26.0257 164.747 25.4812C164.747 25.0138 164.597 24.6683 164.294 24.4483C163.993 24.2258 163.533 24.0543 162.916 23.9313C162.451 23.8344 161.945 23.7572 161.403 23.6957C160.856 23.6341 160.281 23.5556 159.67 23.46C158.441 23.2637 157.527 22.926 156.931 22.4456C156.336 21.9652 156.039 21.3408 156.039 20.5685C156.039 19.6862 156.529 18.9597 157.514 18.3955C158.496 17.83 159.743 17.5499 161.256 17.5499C162.233 17.5499 163.128 17.6219 163.944 17.762C164.759 17.9046 165.48 18.0787 166.106 18.2856V19.9454H165.978C165.449 19.605 164.753 19.3236 163.891 19.0998C163.03 18.8759 162.148 18.762 161.246 18.762C160.256 18.762 159.462 18.9178 158.861 19.2293C158.263 19.5409 157.96 19.9428 157.96 20.4363C157.96 20.8735 158.111 21.219 158.408 21.4691C158.708 21.7217 159.234 21.9115 159.985 22.0437C160.384 22.1105 160.949 22.189 161.686 22.2846C162.42 22.3788 163.04 22.4757 163.552 22.5765C164.585 22.7833 165.363 23.0975 165.884 23.5176C166.394 23.9405 166.656 24.5282 166.656 25.2848H166.67Z" fill="white"/>
</g>
</g>
<defs>
<linearGradient id="paint0_linear_1535_548" x1="12.0656" y1="10.1843" x2="28.8025" y2="30.2494" gradientUnits="userSpaceOnUse">
<stop stop-color="#F4C4B1"/>
<stop offset="0.2235" stop-color="#F1A385"/>
<stop offset="0.4579" stop-color="#EE865E"/>
<stop offset="0.6735" stop-color="#ED7041"/>
<stop offset="0.8612" stop-color="#EB6430"/>
<stop offset="1" stop-color="#EB5F2A"/>
</linearGradient>
<linearGradient id="paint1_linear_1535_548" x1="24.8059" y1="10.6568" x2="43.7001" y2="29.2338" gradientUnits="userSpaceOnUse">
<stop offset="0.5879" stop-color="white"/>
<stop offset="0.7196" stop-color="#F6ECE9"/>
<stop offset="0.8905" stop-color="#ECD9D3"/>
<stop offset="1" stop-color="#E9D2CB"/>
</linearGradient>
<clipPath id="clip0_1535_548">
<rect width="173.571" height="45" fill="white" transform="translate(0.914062 0.5)"/>
</clipPath>
<clipPath id="clip1_1535_548">
<rect width="179.565" height="57.8571" fill="white" transform="translate(-5.51172 -5.92863)"/>
</clipPath>
</defs>
</svg>
