<svg width="156" height="49" viewBox="0 0 156 49" fill="none" xmlns="http://www.w3.org/2000/svg">
<g clip-path="url(#clip0_1420_4063)">
<path d="M30.4724 22.4376H18.1145V25.5158H30.4724V22.4376Z" fill="white"/>
<path d="M24.1594 2.50431e-07C19.3805 2.50431e-07 14.7088 1.41712 10.7353 4.07217C6.76171 6.72721 3.6647 10.5009 1.83588 14.9161C0.00705143 19.3313 -0.471453 24.1896 0.460875 28.8767C1.3932 33.5639 3.69449 37.8693 7.07372 41.2485C10.4529 44.6277 14.7584 46.929 19.4455 47.8613C24.1326 48.7937 28.9909 48.3152 33.4061 46.4863C37.8213 44.6575 41.595 41.5605 44.2501 37.587C46.9051 33.6134 48.3222 28.9418 48.3222 24.1628C48.3227 20.9896 47.698 17.8473 46.4839 14.9156C45.2697 11.9838 43.4899 9.31992 41.2461 7.07611C39.0023 4.83229 36.3384 3.05249 33.4067 1.83835C30.4749 0.624221 27.3326 -0.000456626 24.1594 2.50431e-07ZM33.1435 33.7173H30.3401V27.7523H17.9822V33.7173H15.1753V14.3718H17.9822V20.2012H30.3401V14.3718H33.1435V33.7173Z" fill="white"/>
<path d="M72.3668 22.9872H61.6123V15.224H58.8889V33.453H61.6123V25.5367H72.3668V33.453H75.0902V15.224H72.3668V22.9872Z" fill="white"/>
<path d="M84.5196 22.629C86.3039 22.629 87.556 23.5472 88.1508 25.2898H80.8466C81.3614 23.5959 82.697 22.629 84.5335 22.629M84.5335 20.3821C80.8397 20.3821 78.0502 23.2585 78.0502 27.0671C78.0321 27.9525 78.1935 28.8324 78.5248 29.6536C78.856 30.4749 79.3502 31.2206 79.9776 31.8456C80.6049 32.4707 81.3523 32.9622 82.1748 33.2904C82.9973 33.6187 83.8778 33.777 84.7631 33.7556C89.1595 33.7556 90.6968 30.8061 90.8916 29.7731L90.9194 29.6131H88.3943L88.356 29.6897C88.3247 29.7557 87.4934 31.3592 84.7631 31.3592C82.5162 31.3592 80.8466 29.7731 80.6588 27.4845H91.0238V27.3454C91.0238 23.2446 88.3456 20.389 84.5126 20.389" fill="white"/>
<path d="M99.7608 31.3591C97.3574 31.3591 95.6775 29.5922 95.6775 27.0705C95.6775 24.5489 97.3574 22.7785 99.7608 22.7785C102.164 22.7785 103.799 24.5419 103.799 27.0705C103.799 29.5992 102.14 31.3591 99.7608 31.3591ZM103.747 22.4098C103.117 21.5403 101.681 20.382 99.333 20.382C95.6183 20.382 93.0271 23.1333 93.0271 27.0705C93.0271 31.0078 95.6183 33.7556 99.333 33.7556C100.186 33.7816 101.032 33.6017 101.8 33.2311C102.569 32.8606 103.236 32.3103 103.747 31.6269V33.453H106.321V14.5665H103.747V22.4098Z" fill="white"/>
<path d="M115.847 22.629C117.628 22.629 118.884 23.5472 119.475 25.2898H112.171C112.686 23.5959 114.021 22.629 115.861 22.629M115.861 20.3821C112.164 20.3821 109.374 23.2585 109.374 27.0671C109.356 27.9525 109.518 28.8324 109.849 29.6536C110.18 30.4749 110.674 31.2206 111.302 31.8456C111.929 32.4707 112.677 32.9622 113.499 33.2904C114.322 33.6187 115.202 33.777 116.087 33.7556C120.484 33.7556 122.021 30.8061 122.216 29.7731L122.244 29.6131H119.718L119.684 29.6897C119.649 29.7557 118.814 31.3592 116.087 31.3592C113.84 31.3592 112.174 29.7731 111.987 27.4845H122.369V27.3454C122.369 23.2446 119.691 20.389 115.861 20.389" fill="white"/>
<path d="M127.844 22.542V20.6847H125.266V33.4495H127.844V26.2602C127.844 24.0272 129.009 23.1576 132.017 23.1576H135.343V20.5838H132.07C129.52 20.5838 128.362 21.7142 127.858 22.542" fill="white"/>
<path d="M146.779 27.0671C146.779 29.554 145.134 31.3592 142.869 31.3592C140.508 31.3592 138.859 29.5957 138.859 27.0671C138.859 24.5385 140.518 22.7785 142.88 22.7785C145.144 22.7785 146.789 24.5837 146.789 27.0671M146.737 22.4168C146.233 21.7212 144.949 20.3821 142.448 20.3821C139.353 20.3821 136.219 22.6777 136.219 27.0671C136.219 31.0044 138.779 33.7556 142.448 33.7556C143.282 33.7885 144.11 33.6134 144.859 33.246C145.608 32.8786 146.253 32.3306 146.737 31.6513V33.4635H149.311V20.6847H146.737V22.4168Z" fill="white"/>
<path d="M151.804 21.0638H152.511V22.6603H152.775V21.0638H153.481V20.8203H151.804V21.0638Z" fill="white"/>
<path d="M155.516 20.8203L154.907 22.2742L154.298 20.8203H153.885V22.6603H154.135V21.0638L154.81 22.6707H154.991L155.658 21.0777V22.6603H155.923V20.8203H155.516Z" fill="white"/>
</g>
<defs>
<clipPath id="clip0_1420_4063">
<rect width="155.923" height="48.3221" fill="white"/>
</clipPath>
</defs>
</svg>
