<svg width="130" height="60" viewBox="0 0 130 60" fill="none" xmlns="http://www.w3.org/2000/svg">
<g clip-path="url(#clip0_146_9134)">
<path d="M129.261 5.37231H37.4205V8.97955H129.261V5.37231Z" fill="#007DB6"/>
<path d="M58.7437 51.3853H0V54.9925H58.7437V51.3853Z" fill="#DC1F34"/>
<path d="M129.342 20.71H0.126709V24.3172H129.342V20.71Z" fill="white"/>
<path d="M129.342 36.0476H0.126709V39.6548H129.342V36.0476Z" fill="white"/>
<path d="M125.177 50.7676L126.362 54.2499L130 54.1891L127.091 56.4044L128.274 59.8867L125.292 57.7717L122.382 59.9853L123.45 56.4652L120.469 54.3485L124.109 54.2877L125.177 50.7676Z" fill="white"/>
<path d="M96.4096 59.9999C94.9309 59.9736 93.535 59.663 92.2821 58.8511C90.4264 57.6498 89.245 55.9703 88.9444 53.7402C88.6714 51.7123 89.0354 49.8142 90.3078 48.1642C91.507 46.6112 93.0719 45.6646 95.0073 45.3704C96.5803 45.1305 98.1289 45.2275 99.5914 45.8865C101.782 46.8741 103.205 48.5422 103.691 50.9448C104.042 52.6802 103.925 54.3943 103.11 55.9851C102.011 58.133 100.253 59.4247 97.8884 59.8388C97.4009 59.9243 96.9036 59.9456 96.4096 59.9982V59.9999ZM92.7339 52.6013C92.755 52.8643 92.7566 53.1305 92.8021 53.3885C93.1011 55.1272 94.5133 56.4945 96.3788 56.4847C97.6154 56.4781 98.5936 55.9818 99.3005 54.9563C99.9001 54.0853 100.053 53.1075 99.9521 52.0705C99.749 49.9999 98.1224 48.603 96.0879 48.7607C95.1161 48.8363 94.302 49.2242 93.6569 49.9703C93.0036 50.7246 92.7436 51.617 92.7339 52.603V52.6013Z" fill="#DC1F34"/>
<path d="M71.5617 52.5981C71.5845 54.1774 71.2091 55.645 70.2731 56.9301C69.108 58.5324 67.5577 59.5234 65.6094 59.8422C64.0136 60.1035 62.4357 60.023 60.9505 59.341C58.5812 58.2514 57.0944 56.4272 56.6849 53.7912C56.4574 52.327 56.589 50.8841 57.2227 49.5299C58.1847 47.4741 59.7642 46.1216 61.9369 45.5414C63.7504 45.0566 65.572 45.1109 67.3026 45.8849C69.6459 46.9318 71.0759 48.7428 71.4886 51.3278C71.5227 51.5365 71.5487 51.7485 71.5601 51.9605C71.5715 52.1725 71.5634 52.3845 71.5634 52.5981H71.5617ZM67.717 52.6047C67.6991 52.3927 67.6845 52.1824 67.6634 51.9704C67.4944 50.3467 66.2496 48.917 64.5352 48.7691C63.3392 48.6655 62.283 48.9679 61.4591 49.8849C60.4207 51.0402 60.2322 52.4174 60.6499 53.8537C61.0789 55.3295 62.088 56.2382 63.6301 56.4453C64.7579 56.5965 65.7654 56.3122 66.5876 55.4872C67.3757 54.6951 67.7089 53.7156 67.717 52.6047Z" fill="#DC1F34"/>
<path d="M82.9611 53.1108V45.6038H86.6645V59.8503C86.5897 59.8536 86.5215 59.8602 86.4532 59.8602C85.9056 59.8602 85.3563 59.8553 84.8087 59.8635C84.656 59.8651 84.5503 59.8224 84.4447 59.7074C82.7076 57.7797 80.964 55.8553 79.2236 53.9309C78.6695 53.3179 78.1137 52.7049 77.5596 52.0919C77.5482 52.0788 77.5303 52.0722 77.4946 52.0508V59.709H73.788V45.4296C73.8416 45.4263 73.8968 45.4181 73.9521 45.4181C74.5387 45.4181 75.1253 45.4116 75.712 45.4231C75.8062 45.4247 75.9232 45.4773 75.9866 45.5463C77.9496 47.6679 79.9077 49.7928 81.8658 51.9194C82.2168 52.3006 82.5678 52.6835 82.9611 53.1092V53.1108Z" fill="#DC1F34"/>
<path d="M50.6057 51.0075V45.604H54.3903V59.7174H50.6057V54.4339H44.9133V59.7158H41.1271V45.604H44.9084V51.0075H50.6073H50.6057Z" fill="#DC1F34"/>
<path d="M106.064 45.5892C106.147 45.5892 106.221 45.5892 106.294 45.5892C108.188 45.5892 110.081 45.5859 111.974 45.5892C113.011 45.5925 114.015 45.7585 114.941 46.2581C116.272 46.9779 117.143 48.0707 117.47 49.5679C117.791 51.037 117.666 52.4487 116.808 53.7306C116.387 54.36 115.835 54.8497 115.186 55.231C115.138 55.2605 115.086 55.2868 115.037 55.3181C115.027 55.3246 115.022 55.3378 115 55.3657C115.991 56.8037 116.985 58.2482 118.004 59.724H117.808C116.488 59.724 115.169 59.7223 113.849 59.7273C113.717 59.7273 113.646 59.6845 113.576 59.5728C112.881 58.4635 112.179 57.3608 111.483 56.2515C111.41 56.1348 111.334 56.0855 111.194 56.0888C110.723 56.0987 110.251 56.0921 109.759 56.0921V59.7092H106.059V45.5859L106.064 45.5892ZM109.767 48.8037V52.9138C110.376 52.9138 110.974 52.9204 111.571 52.9105C111.792 52.9072 112.016 52.8842 112.234 52.8398C113.262 52.6311 113.89 51.7864 113.826 50.7117C113.768 49.7059 112.989 48.8842 111.988 48.8234C111.27 48.779 110.55 48.7971 109.83 48.7872C109.813 48.7872 109.795 48.7971 109.765 48.8053L109.767 48.8037Z" fill="#DC1F34"/>
<path d="M0.224243 0.00328677C0.321743 0.00328677 0.389993 0.00328677 0.458243 0.00328677C1.67537 0.00328677 2.89249 0.00657354 4.11124 0C4.27374 0 4.33549 0.0476582 4.37937 0.210353C5.08624 2.88414 5.80124 5.55629 6.51462 8.22679C6.52599 8.26952 6.54549 8.30896 6.57149 8.37469C6.79899 7.57272 7.01187 6.79376 7.23937 6.01972C7.80974 4.07395 8.38662 2.13147 8.95537 0.185703C8.99437 0.0525883 9.04312 0 9.18774 0.00164339C9.89462 0.00986031 10.6031 0.00821693 11.31 0.00164339C11.4432 0.00164339 11.4952 0.0460148 11.5326 0.172555C12.3419 2.93016 13.156 5.68611 13.9685 8.44371C13.9831 8.49137 13.9994 8.53903 14.0286 8.63106C14.196 8.04437 14.3552 7.50041 14.5064 6.95481C15.1336 4.69844 15.7576 2.44043 16.3816 0.182416C16.4109 0.0755957 16.4369 0.00164339 16.575 0.00164339C17.7677 0.00657354 18.9589 0.00493016 20.1516 0.00493016C20.1939 0.00493016 20.2377 0.0147905 20.3044 0.0246508C20.1906 0.377979 20.0817 0.718159 19.9696 1.0567C18.5559 5.34593 17.1421 9.63517 15.7316 13.926C15.6764 14.0937 15.6032 14.1479 15.4261 14.1463C14.6364 14.1348 13.845 14.1348 13.0552 14.1463C12.896 14.1479 12.8375 14.092 12.7904 13.9491C11.9649 11.4297 11.1329 8.91208 10.3041 6.39441C10.2846 6.33689 10.2619 6.28102 10.2229 6.1742C10.0864 6.61298 9.96287 7.00082 9.84262 7.3903C9.16174 9.57601 8.48087 11.7634 7.80487 13.9507C7.76099 14.0953 7.70249 14.1495 7.54324 14.1479C6.65762 14.138 5.77199 14.143 4.87499 14.143C3.32474 9.43468 1.77937 4.73459 0.224243 0.00328677Z" fill="#007DB6"/>
<path d="M45.4837 5.4231H51.1436V0.022931H54.9542V14.1298H51.1598V8.8512H45.4934V14.1248H41.7007V0.0163574H45.4837V5.42145V5.4231Z" fill="#007DB6"/>
<path d="M40.0416 3.37708H35.5209V14.1265H31.7249V3.38858H27.261V0.0163574H40.0416V3.37708Z" fill="#007DB6"/>
<path d="M25.6035 14.1347H21.8059V0.00976562H25.6035V14.1347Z" fill="#007DB6"/>
</g>
<defs>
<clipPath id="clip0_146_9134">
<rect width="130" height="60" fill="white"/>
</clipPath>
</defs>
</svg>
