 <svg xmlns="http://www.w3.org/2000/svg" viewBox="0 0 39.225 40.205">
    <g fill="#E8E7E1">
      <path
        d="M39.225 9.807V30.4h-.981v.981h-1.961v.981h-1.961v.981H32.36v.983H30.4v.981h-1.962v.981h-1.961v.981h-1.962v.981h-1.961v.976h-1.961v.981h-1.961v-.981H16.67v-.981h-1.961v-.981h-1.961v-.981h-1.961v-.981H8.826v-.976H6.864v-.981H4.9v-.981H2.942v-.981H.981v-.981H0V9.807h.981v-.981h1.961v.981H4.9v.981h1.961v.981h1.961v.981h1.961v.976h1.961v.981h1.961v.981h1.965v.981h1.961v.981h1.961v.981h-.981v1.961h.981v.981h-.981v1.961h.981v.981h-.981v1.961h.981v.981h-.981v1.961h.981v.981h-.981v1.961h.981v.981h-.981v1.961h.981v.981h-.981v1.961h1.961v-.981h1.961v-.981H25.5v-.981h1.961v-.975h1.961v-.981h1.958v-.981h1.961v-.981H35.3v-.981h1.961v-.981h.981v-1.963h-.981v-.981h.981v-1.961h-.981v-.981h.981v-1.961h-.981v-.981h.981v-1.961h-.981v-.981h.981V15.69h-.981v-.981h.981v-1.961h-.981v-.981h.981v-1.96z" />
      <path d="M36.385 8.857H38.3v.958h-1.915z" />
      <path d="M34.231 9.814h2.154v.958h-2.154z" />
      <path d="M32.316 10.772h1.915v.958h-1.915z" />
      <path d="M30.401 11.729h1.915v.958h-1.915z" />
      <path d="M28.486 12.687h1.915v.958h-1.915z" />
      <path d="M26.571 13.644h1.915v.958h-1.915z" />
      <path d="M24.416 14.602h2.154v1.197h-2.154z" />
      <path d="M22.501 15.799h1.915v.958h-1.915z" />
      <path d="M20.586 16.756h1.915v.958h-1.915z" />
      <path d="M2.873 7.899h1.915v.958H2.873z" />
      <path d="M4.788 6.942h2.154V7.9H4.788z" />
      <path d="M6.942 5.984h1.915v.958H6.942z" />
      <path d="M8.857 4.788h1.915v1.197H8.857z" />
      <path d="M10.772 3.83h1.915v.958h-1.915z" />
      <path d="M12.687 2.873h1.915v.958h-1.915z" />
      <path d="M14.602 1.915h2.154v.958h-2.154z" />
      <path d="M16.756.958h1.915v.958h-1.915z" />
      <path d="M18.671 0h1.915v.958h-1.915z" />
      <path d="M20.586.958h1.915v.958h-1.915z" />
      <path d="M22.501 1.915h1.915v.958h-1.915z" />
      <path d="M24.416 2.873h2.154v.958h-2.154z" />
      <path d="M26.571 3.83h1.915v.958h-1.915z" />
      <path d="M28.486 4.788h1.915v1.197h-1.915z" />
      <path d="M30.401 5.984h1.915v.958h-1.915z" />
      <path d="M32.316 6.942h1.915V7.9h-1.915z" />
      <path d="M34.231 7.899h2.154v.958h-2.154z" />
      <path d="M20.586 18.671h.958v.958h-.958z" />
      <path d="M20.586 21.544h.958v.958h-.958z" />
      <path d="M21.544 22.501h.958v.958h-.958z" />
      <path d="M22.501 23.459h.958v.958h-.958z" />
      <path d="M23.459 24.416h.958v1.197h-.958z" />
      <path d="M24.416 25.613h1.197v.958h-1.197z" />
      <path d="M25.613 26.571h.958v.958h-.958z" />
      <path d="M26.571 27.528h.958v.958h-.958z" />
      <path d="M27.528 28.486h.958v.958h-.958z" />
      <path d="M28.486 29.443h.958v.958h-.958z" />
      <path d="M29.443 30.401h.958v.958h-.958z" />
      <path d="M30.401 31.358h.958v.958h-.958z" />
      <path d="M20.586 24.416h.958v1.197h-.958z" />
      <path d="M21.544 25.613h.958v.958h-.958z" />
      <path d="M22.501 26.571h.958v.958h-.958z" />
      <path d="M23.459 27.528h.958v.958h-.958z" />
      <path d="M24.416 28.486h1.197v.958h-1.197z" />
      <path d="M25.613 29.443h.958v.958h-.958z" />
      <path d="M26.571 30.401h.958v.958h-.958z" />
      <path d="M27.528 31.358h.958v.958h-.958z" />
      <path d="M28.486 32.316h.958v.958h-.958z" />
      <path d="M20.586 27.528h.958v.958h-.958z" />
      <path d="M21.544 28.486h.958v.958h-.958z" />
      <path d="M22.501 29.443h.958v.958h-.958z" />
      <path d="M23.459 30.401h.958v.958h-.958z" />
      <path d="M24.416 31.358h1.197v.958h-1.197z" />
      <path d="M25.613 32.316h.958v.958h-.958z" />
      <path d="M26.571 33.273h.958v.958h-.958z" />
      <path d="M20.586 30.401h.958v.958h-.958z" />
      <path d="M21.544 31.358h.958v.958h-.958z" />
      <path d="M22.501 32.316h.958v.958h-.958z" />
      <path d="M23.459 33.273h.958v.958h-.958z" />
      <path d="M24.416 34.231h1.197v.958h-1.197z" />
      <path d="M20.586 33.273h.958v.958h-.958z" />
      <path d="M21.544 34.231h.958v.958h-.958z" />
      <path d="M22.501 35.188h.958v1.197h-.958z" />
      <path d="M20.586 36.385h.958v.958h-.958z" />
      <path d="M22.501 17.714h.958v.958h-.958z" />
      <path d="M24.416 16.756h1.197v.958h-1.197z" />
      <path d="M25.613 17.714h.958v.958h-.958z" />
      <path d="M26.571 18.671h.958v.958h-.958z" />
      <path d="M27.528 19.629h.958v.958h-.958z" />
      <path d="M28.486 20.586h.958v.958h-.958z" />
      <path d="M29.443 21.544h.958v.958h-.958z" />
      <path d="M30.401 22.501h.958v.958h-.958z" />
      <path d="M31.358 23.459h.958v.958h-.958z" />
      <path d="M32.316 24.416h.958v1.197h-.958z" />
      <path d="M33.273 25.613h.958v.958h-.958z" />
      <path d="M34.231 26.571h.958v.958h-.958z" />
      <path d="M35.188 27.528h1.197v.958h-1.197z" />
      <path d="M36.385 28.486h.958v.958h-.958z" />
      <path d="M26.571 15.799h.958v.958h-.958z" />
      <path d="M27.528 16.756h.958v.958h-.958z" />
      <path d="M28.486 17.714h.958v.958h-.958z" />
      <path d="M29.443 18.671h.958v.958h-.958z" />
      <path d="M30.401 19.629h.958v.958h-.958z" />
      <path d="M31.358 20.586h.958v.958h-.958z" />
      <path d="M32.316 21.544h.958v.958h-.958z" />
      <path d="M33.273 22.501h.958v.958h-.958z" />
      <path d="M34.231 23.459h.958v.958h-.958z" />
      <path d="M35.188 24.416h1.197v1.197h-1.197z" />
      <path d="M36.385 25.613h.958v.958h-.958z" />
      <path d="M28.486 14.602h.958v1.197h-.958z" />
      <path d="M29.443 15.799h.958v.958h-.958z" />
      <path d="M30.401 16.756h.958v.958h-.958z" />
      <path d="M31.358 17.714h.958v.958h-.958z" />
      <path d="M32.316 18.671h.958v.958h-.958z" />
      <path d="M33.273 19.629h.958v.958h-.958z" />
      <path d="M34.231 20.586h.958v.958h-.958z" />
      <path d="M35.188 21.544h1.197v.958h-1.197z" />
      <path d="M36.385 22.501h.958v.958h-.958z" />
      <path d="M30.401 13.644h.958v.958h-.958z" />
      <path d="M31.358 14.602h.958v1.197h-.958z" />
      <path d="M32.316 15.799h.958v.958h-.958z" />
      <path d="M33.273 16.756h.958v.958h-.958z" />
      <path d="M34.231 17.714h.958v.958h-.958z" />
      <path d="M35.188 18.671h1.197v.958h-1.197z" />
      <path d="M36.385 19.629h.958v.958h-.958z" />
      <path d="M32.316 12.687h.958v.958h-.958z" />
      <path d="M33.273 13.644h.958v.958h-.958z" />
      <path d="M34.231 14.602h.958v1.197h-.958z" />
      <path d="M35.188 15.799h1.197v.958h-1.197z" />
      <path d="M36.385 16.756h.958v.958h-.958z" />
      <path d="M34.231 11.729h.958v.958h-.958z" />
      <path d="M35.188 12.687h1.197v.958h-1.197z" />
      <path d="M36.385 13.644h.958v.958h-.958z" />
      <path d="M36.385 10.772h.958v.958h-.958z" />
      <path d="M23.459 18.671h.958v.958h-.958z" />
      <path d="M24.416 19.629h1.197v.958h-1.197z" />
      <path d="M25.613 20.586h.958v.958h-.958z" />
      <path d="M26.571 21.544h.958v.958h-.958z" />
      <path d="M27.528 22.501h.958v.958h-.958z" />
      <path d="M28.486 23.459h.958v.958h-.958z" />
      <path d="M29.443 24.416h.958v1.197h-.958z" />
      <path d="M30.401 25.613h.958v.958h-.958z" />
      <path d="M31.358 26.571h.958v.958h-.958z" />
      <path d="M32.316 27.528h.958v.958h-.958z" />
      <path d="M33.273 28.486h.958v.958h-.958z" />
      <path d="M34.231 29.443h.958v.958h-.958z" />
      <path d="M21.544 19.629h.958v.958h-.958z" />
      <path d="M22.501 20.586h.958v.958h-.958z" />
      <path d="M23.459 21.544h.958v.958h-.958z" />
      <path d="M24.416 22.501h1.197v.958h-1.197z" />
      <path d="M25.613 23.459h.958v.958h-.958z" />
      <path d="M26.571 24.416h.958v1.197h-.958z" />
      <path d="M27.528 25.613h.958v.958h-.958z" />
      <path d="M28.486 26.571h.958v.958h-.958z" />
      <path d="M29.443 27.528h.958v.958h-.958z" />
      <path d="M30.401 28.486h.958v.958h-.958z" />
      <path d="M31.358 29.443h.958v.958h-.958z" />
      <path d="M32.316 30.401h.958v.958h-.958z" />
    </g>
  </svg>