<svg data-v-6a019a22="" data-v-093ceb58="" xmlns="http://www.w3.org/2000/svg"
    viewBox="0 0 29.203 30.74">
    <path data-v-6a019a22="" fill="#E8E7E1"
        d="M48.666,21.537V20H36.37v1.537H34.833v9.222H33.3V32.3H31.759v1.537H30.222V35.37H28.685v1.537H25.611V35.37H24.074V33.833H22.537V30.759H21v7.685h1.537v1.537h1.537v1.537h1.537v1.537h1.537v1.537h1.537v6.148h3.074V49.2H30.222V47.666h1.537V46.129H33.3V44.592H36.37v1.537h3.074V44.592H37.907V43.055h1.537V41.518h1.537V33.833h1.537V35.37h1.537V32.3H40.981V30.759h6.148V29.222H42.518V27.685H50.2V21.537Zm-9.222,0v1.537H37.907V21.537Z"
        transform="translate(-21 -20)"></path>
</svg>