<svg xmlns="http://www.w3.org/2000/svg" width="21.435" height="21.639" viewBox="0 0 21.435 21.639">
    <g transform="translate(8242.69 -513.164)">
      <path d="M-8192.361,514.562h-2.4v-1.4h2.4Z" transform="translate(-38.358)" fill="#fff" />
      <path d="M-8192.361,514.562h-2.4v-1.4h2.4Z" transform="translate(-32.995 18.775)" fill="#fff" />
      <path d="M-8192.361,514.562h-2.4v-1.4h2.4Z" transform="translate(-43.78 18.775)" fill="#fff" />
      <path d="M-8192.361,514.562h-2.4v-1.4h2.4Z" transform="translate(-35.761 17.576)" fill="#fff" />
      <path d="M-8192.361,514.562h-2.4v-1.4h2.4Z" transform="translate(-38.407 16.178)" fill="#fff" />
      <path d="M-8192.361,514.562h-2.4v-1.4h2.4Z" transform="translate(-41.203 17.576)" fill="#fff" />
      <path d="M-8191.5,514.562h-3.259v-1.4h3.259Z" transform="translate(-30.455 20.241)" fill="#fff" />
      <path d="M-8191.5,514.562h-3.259v-1.4h3.259Z" transform="translate(-47.233 20.241)" fill="#fff" />
      <path d="M-8181.5,522.477h-1.4v-2.684h1.4Z" transform="translate(-47.854 -5.305)" fill="#fff" />
      <path d="M-8181.5,522.477h-1.4v-2.684h1.4Z" transform="translate(-51.648 -5.305)" fill="#fff" />
      <path d="M-8181.5,522.477h-1.4v-2.684h1.4Z" transform="translate(-42.441 6.878)" fill="#fff" />
      <path d="M-8181.5,522.477h-1.4v-2.684h1.4Z" transform="translate(-57.222 6.878)" fill="#fff" />
      <path d="M-8181.5,522.477h-1.4v-2.684h1.4Z" transform="translate(-41.04 9.562)" fill="#fff" />
      <path d="M-8181.5,522.477h-1.4v-2.684h1.4Z" transform="translate(-58.616 9.562)" fill="#fff" />
      <path d="M-8181.5,522.477h-1.4v-2.684h1.4Z" transform="translate(-39.761 12.246)" fill="#fff" />
      <path d="M-8181.5,522.477h-1.4v-2.684h1.4Z" transform="translate(-59.797 12.246)" fill="#fff" />
      <path d="M-8174.405,535.932h-1.4v-2.7h1.4Z" transform="translate(-53.528 -16.059)" fill="#fff" />
      <path d="M-8174.405,535.932h-1.4v-2.7h1.4Z" transform="translate(-60.319 -16.059)" fill="#fff" />
      <path d="M-8163.311,548.152h-5.26v-1.4h5.26Z" transform="translate(-59.316 -26.881)" fill="#fff" />
      <path d="M-8163.311,548.152h-5.26v-1.4h5.26Z" transform="translate(-72.831 -26.881)" fill="#fff" />
      <path d="M-8140.894,554.852h-1.343v-1.4h1.343Z" transform="translate(-80.39 -32.243)" fill="#fff" />
      <path d="M-8140.894,554.852h-1.343v-1.4h1.343Z" transform="translate(-100.426 -32.243)" fill="#fff" />
      <path d="M-8147.027,561.722h-1.162v-1.4h1.162Z" transform="translate(-75.627 -37.741)" fill="#fff" />
      <path d="M-8147.027,561.722h-1.162v-1.4h1.162Z" transform="translate(-93.203 -37.741)" fill="#fff" />
      <path d="M-8154.162,568.352h-1.241v-1.4h1.241Z" transform="translate(-69.853 -43.047)" fill="#fff" />
      <path d="M-8154.162,568.352h-1.241v-1.4h1.241Z" transform="translate(-84.57 -43.047)" fill="#fff" />
      <path d="M-8160.3,574.616h-1.1v-1.4h1.1Z" transform="translate(-65.059 -48.059)" fill="#fff" />
      <path d="M-8160.3,574.616h-1.1v-1.4h1.1Z" transform="translate(-77.144 -48.059)" fill="#fff" />
    </g>
  </svg>