<svg xmlns="http://www.w3.org/2000/svg" width="22.689" height="24.137" viewBox="0 0 22.689 24.137">
    <g transform="translate(-2369.093 -884)">
      <g transform="translate(2369.093 884)">
        <path d="M34.57,0H37.6q0,.756,0,1.513H34.57Q34.569.757,34.57,0Z" transform="translate(-27.007 0)" fill="#070517" />
        <path d="M23.55,6.267h1.513q0,6.035,0,12.069H23.551q0-.756,0-1.512H22.038q0-.756,0-1.512h1.513Q23.551,10.789,23.55,6.267Z" transform="translate(-17.5 -4.755)" fill="#070517" />
        <path d="M47.1,6.268h1.513q0,2.252,0,4.505h6.05q0,.756,0,1.513H53.155q0,1.512,0,3.025H51.642q0-1.512,0-3.026H48.617q0,1.512,0,3.026-.756,0-1.512,0Q47.1,10.789,47.1,6.268Z" transform="translate(-36.516 -4.755)" fill="#070517" />
        <path d="M9.5,37.466h3.025q0,.756,0,1.513H9.5Q9.5,38.223,9.5,37.466Z" transform="translate(-7.991 -28.423)" fill="#070517" />
        <path d="M90.97,37.466h1.513v7.563H90.97Z" transform="translate(-69.794 -28.423)" fill="#070517" />
        <path d="M3.236,43.733H4.749v3.025H3.236Q3.236,45.246,3.236,43.733Z" transform="translate(-3.236 -33.177)" fill="#070517" />
        <path d="M9.5,56.266h1.512q0,.756,0,1.512H9.5Q9.5,57.022,9.5,56.266Z" transform="translate(-7.991 -42.685)" fill="#070517" />
        <path d="M84.7,68.8h1.512v2.993H84.7Q84.7,70.3,84.7,68.8Z" transform="translate(-65.039 -52.194)" fill="#070517" />
        <path d="M28.3,81.2h1.512q0,.756,0,1.512H28.3Q28.3,81.955,28.3,81.2Z" transform="translate(-22.253 -61.6)" fill="#070517" />
        <path d="M73.682,81.2h1.513v4.537H72.169q0-.756,0-1.513h1.512Q73.682,82.712,73.682,81.2Z" transform="translate(-55.531 -61.601)" fill="#070517" />
        <path d="M65.9,87.466h1.512q0,.756,0,1.513H65.9Q65.9,88.223,65.9,87.466Z" transform="translate(-50.777 -66.354)" fill="#070517" />
        <path d="M78.436,31.2h3.025v1.513H79.949q0,.756,0,1.513H78.436Q78.436,32.713,78.436,31.2Z" transform="translate(-60.285 -23.67)" fill="#070517" />
        <path d="M15.77,62.533h1.512q0,1.5,0,2.992H18.8q0,.756,0,1.512H17.283q0-.74,0-1.48H15.77Q15.77,64.046,15.77,62.533Z" transform="translate(-12.745 -47.44)" fill="#070517" />
        <path d="M34.57,87.467h1.512q0,.756,0,1.512h6.049q0,.756,0,1.513H34.57Q34.57,88.978,34.57,87.467Z" transform="translate(-27.007 -66.355)" fill="#070517" />
      </g>
    </g>
  </svg>