<svg  data-v-93152294="" xmlns="http://www.w3.org/2000/svg" width="41.316"
    height="40.459" viewBox="0 0 41.316 40.459" class="svg-linkedin" data-v-b99f8496="">
    <path 
        d="M39.419,44.959H10.9a6.418,6.418,0,0,1-4.516-1.832A6.178,6.178,0,0,1,4.5,38.681v-27.9A6.178,6.178,0,0,1,6.381,6.332,6.418,6.418,0,0,1,10.9,4.5H39.419a6.418,6.418,0,0,1,4.517,1.832,6.178,6.178,0,0,1,1.881,4.447v27.9a6.178,6.178,0,0,1-1.881,4.447A6.418,6.418,0,0,1,39.419,44.959ZM10.9,6.324a4.52,4.52,0,0,0-4.573,4.454v27.9A4.52,4.52,0,0,0,10.9,43.135H39.419a4.52,4.52,0,0,0,4.573-4.454v-27.9a4.52,4.52,0,0,0-4.573-4.454Z"
        transform="translate(-4.5 -4.5)"  fill="#bafe36" stroke="#bafe36"></path>
    <path 
        d="M12,19.1h5.247V36.329H12Zm2.608-2.027h-.029A2.536,2.536,0,1,1,14.638,12a2.536,2.536,0,1,1-.03,5.069ZM37.186,36.329H31.939V27.106c0-2.228-1.286-3.749-3.35-3.749a3,3,0,0,0-2.841,2.017,7.067,7.067,0,0,0-.106,1.832v9.124H20.4V19.1h5.247v2.652A5.337,5.337,0,0,1,30.615,19.1c3.755,0,6.571,2.281,6.571,7.374v9.86Z"
        transform="translate(-3.935 -3.935)"  fill="#bafe36" stroke="#bafe36"></path>
</svg>