  <svg xmlns="http://www.w3.org/2000/svg" viewBox="0 0 215 78">
    <g fill="#070517">
      <path d="M60.067 11.231h4.434V9.454h-4.434V6.018h5.45V4.249h-7.219v12.187h1.769z" />
      <path d="M67.489 7.297h1.769v9.14h-1.769z" />
      <path d="M67.489 4.081h1.769v1.718h-1.769z" />
      <path d="M72.253 3.997h1.769v12.44h-1.769z" />
      <path d="M78.667 16.094a4.676 4.676 0 002.391.6 4.477 4.477 0 002.412-.672 4.09 4.09 0 001.616-1.9l-1.735-.55a2.524 2.524 0 01-.943 1.08 2.664 2.664 0 01-1.434.376 2.34 2.34 0 01-1.929-.825 3.28 3.28 0 01-.646-1.832h6.807a6.417 6.417 0 00-.385-2.835 3.9 3.9 0 00-1.469-1.84 4.217 4.217 0 00-2.378-.648 4.494 4.494 0 00-2.344.6 4.11 4.11 0 00-1.57 1.7 5.634 5.634 0 00-.563 2.6 5.2 5.2 0 00.571 2.483 4.141 4.141 0 001.599 1.663zm.377-6.647a2.4 2.4 0 012-.838 2.12 2.12 0 011.79.762 3.21 3.21 0 01.562 1.616h-4.954a3.159 3.159 0 01.602-1.54z" />
      <path d="M89.159 16.064a4.341 4.341 0 002.386.626 4.3 4.3 0 002.5-.714 3.928 3.928 0 001.481-2.053l-1.794-.423a2.451 2.451 0 01-.808 1.13 2.261 2.261 0 01-1.384.394 2.2 2.2 0 01-1.892-.872 3.814 3.814 0 01-.647-2.285 4.666 4.666 0 01.279-1.625 2.424 2.424 0 01.829-1.121 2.352 2.352 0 011.43-.411 2.29 2.29 0 011.367.427 2.361 2.361 0 01.859 1.2l1.76-.507a3.488 3.488 0 00-1.4-2.04 4.345 4.345 0 00-2.56-.745 4.408 4.408 0 00-2.378.618 4.08 4.08 0 00-1.523 1.706 5.684 5.684 0 00-.542 2.5 5.772 5.772 0 00.529 2.479 4.064 4.064 0 001.508 1.716z" />
      <path d="M99.327 16.073a4.887 4.887 0 004.747 0 4.156 4.156 0 001.562-1.7 5.966 5.966 0 000-5.014 4.171 4.171 0 00-1.557-1.7 4.881 4.881 0 00-4.731-.012 4.123 4.123 0 00-1.565 1.692 5.443 5.443 0 00-.559 2.519 5.516 5.516 0 00.546 2.509 4.131 4.131 0 001.557 1.706zm.059-5.852a2.375 2.375 0 01.854-1.109 2.5 2.5 0 011.464-.4 2.3 2.3 0 011.951.858 3.68 3.68 0 01.656 2.29 3.767 3.767 0 01-.647 2.28 2.609 2.609 0 01-3.9.021 3.692 3.692 0 01-.66-2.3 4.426 4.426 0 01.283-1.64z" />
      <path d="M108.665 7.297h1.769v9.14h-1.769z" />
      <path d="M108.665 4.081h1.769v1.718h-1.769z" />
      <path d="M119.774 16.437h1.794V11.36a7.324 7.324 0 00-.076-.981 5.578 5.578 0 00-.287-1.143 3.7 3.7 0 00-.614-1.079 2.942 2.942 0 00-1.045-.8 3.706 3.706 0 00-1.591-.305 3.961 3.961 0 00-2.107.533 3.457 3.457 0 00-.914.81v-1.1h-1.583v9.139h1.794v-4.756a4.561 4.561 0 01.182-1.38 2.433 2.433 0 01.5-.913 1.873 1.873 0 01.741-.5 2.56 2.56 0 01.9-.157 2.117 2.117 0 011.181.3 2.021 2.021 0 01.7.778 3.42 3.42 0 01.339 1.045 7.048 7.048 0 01.088 1.1z" />
      <path d="M60.067 30.038h4.434v-1.777h-4.434v-3.436h5.45v-1.769h-7.219v12.187h1.769z" />
      <path d="M68.726 34.879a4.885 4.885 0 004.748 0 4.154 4.154 0 001.561-1.7 5.966 5.966 0 000-5.014 4.167 4.167 0 00-1.557-1.7 4.883 4.883 0 00-4.73-.012 4.123 4.123 0 00-1.566 1.692 5.438 5.438 0 00-.559 2.518 5.519 5.519 0 00.546 2.509 4.128 4.128 0 001.557 1.707zm.059-5.853a2.381 2.381 0 01.854-1.108 2.5 2.5 0 011.464-.4 2.3 2.3 0 011.951.859 3.679 3.679 0 01.656 2.289 3.766 3.766 0 01-.647 2.281 2.609 2.609 0 01-3.9.021 3.692 3.692 0 01-.66-2.3 4.431 4.431 0 01.283-1.642z" />
      <path d="M86.04 35.243v-9.14h-1.786v4.756a4.566 4.566 0 01-.182 1.38 2.441 2.441 0 01-.5.914 1.888 1.888 0 01-.741.5 2.564 2.564 0 01-.9.157 2.122 2.122 0 01-1.18-.3 2.026 2.026 0 01-.7-.778 3.423 3.423 0 01-.338-1.045 7.026 7.026 0 01-.089-1.1v-4.494H77.83v5.077a7.346 7.346 0 00.076.981 5.553 5.553 0 00.288 1.143 3.689 3.689 0 00.614 1.079 2.942 2.942 0 001.045.8 3.7 3.7 0 001.591.3 3.965 3.965 0 002.108-.533 3.443 3.443 0 00.914-.81v1.1z" />
      <path d="M93.487 25.857a3.961 3.961 0 00-2.107.534 3.434 3.434 0 00-.914.81v-1.1h-1.583v9.14h1.794v-4.756a4.552 4.552 0 01.182-1.379 2.438 2.438 0 01.5-.914 1.867 1.867 0 01.741-.5 2.57 2.57 0 01.9-.157 2.121 2.121 0 011.181.3 2.03 2.03 0 01.7.779 3.431 3.431 0 01.339 1.045 7.038 7.038 0 01.089 1.1v4.494h1.794v-5.078a7.414 7.414 0 00-.076-.982 5.583 5.583 0 00-.288-1.143 3.72 3.72 0 00-.613-1.079 2.951 2.951 0 00-1.045-.8 3.707 3.707 0 00-1.594-.314z" />
      <path d="M105.674 34.858a3.716 3.716 0 00.525-.459v.845h1.574V23.057h-1.777v3.672a4.15 4.15 0 00-.309-.249 3.658 3.658 0 00-2.179-.63 3.88 3.88 0 00-2.221.63 4.127 4.127 0 00-1.443 1.719 5.763 5.763 0 00-.508 2.466 5.841 5.841 0 00.5 2.468 4.137 4.137 0 001.43 1.73 3.8 3.8 0 002.2.635 3.665 3.665 0 002.208-.64zm-4.185-2.556a4.62 4.62 0 01-.275-1.638 4.562 4.562 0 01.275-1.624 2.553 2.553 0 01.842-1.159 2.318 2.318 0 011.447-.432 2.2 2.2 0 011.367.406 2.365 2.365 0 01.8 1.134 5 5 0 01.259 1.675 5.081 5.081 0 01-.254 1.677 2.358 2.358 0 01-.8 1.143 2.3 2.3 0 01-1.422.414 2.209 2.209 0 01-1.4-.432 2.591 2.591 0 01-.838-1.164z" />
      <path d="M117.747 27.592a2.65 2.65 0 00-1.333-1.325 5.072 5.072 0 00-2.137-.418 4.208 4.208 0 00-2.534.694 3.411 3.411 0 00-1.291 1.87l1.65.507a1.8 1.8 0 01.838-1.1 2.667 2.667 0 011.32-.335 2.1 2.1 0 011.612.521 2.068 2.068 0 01.448 1.331l-1.041.146q-.85.119-1.621.254a12.974 12.974 0 00-1.379.313 3.963 3.963 0 00-1.185.6 2.381 2.381 0 00-.728.894 2.843 2.843 0 00-.245 1.218 2.736 2.736 0 00.351 1.368 2.58 2.58 0 001.037 1 3.5 3.5 0 001.7.376 4.206 4.206 0 002.154-.512 3.645 3.645 0 001.138-1.068v1.326h1.566V29.61a10.687 10.687 0 00-.051-1.075 2.759 2.759 0 00-.269-.943zm-1.625 4.646a2.146 2.146 0 01-.431.863 2.5 2.5 0 01-.872.681 2.9 2.9 0 01-1.295.267 2.125 2.125 0 01-.93-.178 1.237 1.237 0 01-.542-.478 1.266 1.266 0 01-.178-.656 1.107 1.107 0 01.165-.618 1.428 1.428 0 01.448-.432 3.169 3.169 0 01.648-.3 7.851 7.851 0 01.985-.232q.554-.1 1.24-.2l.944-.141c0 .15-.009.32-.017.514a3.106 3.106 0 01-.165.91z" />
      <path d="M123.288 23.566h-1.777v2.539h-1.752v1.422h1.752v4.121c0 .5.007.94.021 1.333a2.682 2.682 0 00.317 1.155 2.023 2.023 0 00.982.931 3.843 3.843 0 001.481.321 7.592 7.592 0 001.692-.144v-1.5a6.38 6.38 0 01-1.561.055 1.2 1.2 0 01-.969-.6 1.45 1.45 0 01-.174-.685q-.012-.406-.012-.957V27.52h2.716v-1.422h-2.716z" />
      <path d="M128.227 26.103h1.769v9.14h-1.769z" />
      <path d="M128.227 22.887h1.769v1.718h-1.769z" />
      <path d="M139.325 26.466a4.884 4.884 0 00-4.731-.012 4.125 4.125 0 00-1.565 1.692 5.435 5.435 0 00-.559 2.518 5.523 5.523 0 00.546 2.509 4.13 4.13 0 001.553 1.706 4.885 4.885 0 004.747 0 4.149 4.149 0 001.561-1.7 5.962 5.962 0 000-5.014 4.167 4.167 0 00-1.552-1.699zm-.419 6.479a2.609 2.609 0 01-3.9.021 3.694 3.694 0 01-.66-2.3 4.431 4.431 0 01.28-1.638 2.382 2.382 0 01.854-1.108 2.5 2.5 0 011.464-.4 2.3 2.3 0 011.951.859 3.679 3.679 0 01.656 2.289 3.766 3.766 0 01-.645 2.277z" />
      <path d="M146.289 28.193a1.867 1.867 0 01.74-.5 2.572 2.572 0 01.9-.157 2.119 2.119 0 011.18.3 2.037 2.037 0 01.7.779 3.41 3.41 0 01.338 1.045 7.011 7.011 0 01.089 1.1v4.494h1.794v-5.078a7.377 7.377 0 00-.076-.982 5.585 5.585 0 00-.288-1.143 3.707 3.707 0 00-.613-1.079 2.954 2.954 0 00-1.045-.8 3.706 3.706 0 00-1.591-.305 3.961 3.961 0 00-2.107.534 3.439 3.439 0 00-.914.81v-1.1h-1.583v9.14h1.794v-4.756a4.561 4.561 0 01.182-1.379 2.439 2.439 0 01.5-.923z" />
      <path d="M162.316 22.827a2.737 2.737 0 00-.825.186 2.013 2.013 0 00-.761.542 1.927 1.927 0 00-.411.707 3.22 3.22 0 00-.148.778q-.026.393-.026.741v.321h-1.514v1.422h1.514v7.718h1.769v-7.718h2.311v-1.422h-2.311v-.66a1.186 1.186 0 01.309-.876 1.271 1.271 0 01.935-.309h1.066v-1.455h-1.151q-.347 0-.757.025z" />
      <path d="M172.338 26.466a4.884 4.884 0 00-4.731-.012 4.123 4.123 0 00-1.565 1.692 5.435 5.435 0 00-.559 2.518 5.523 5.523 0 00.546 2.509 4.127 4.127 0 001.553 1.706 4.884 4.884 0 004.747 0 4.15 4.15 0 001.562-1.7 5.965 5.965 0 000-5.014 4.167 4.167 0 00-1.553-1.699zm-.419 6.479a2.609 2.609 0 01-3.9.021 3.694 3.694 0 01-.66-2.3 4.431 4.431 0 01.279-1.638 2.385 2.385 0 01.854-1.108 2.5 2.5 0 011.464-.4 2.3 2.3 0 011.951.859 3.68 3.68 0 01.656 2.289 3.764 3.764 0 01-.644 2.277z" />
      <path d="M180.897 26.056a3.55 3.55 0 00-.876.169 2.773 2.773 0 00-.774.394 2.508 2.508 0 00-.626.6 3.4 3.4 0 00-.22.343v-1.464h-1.574v9.14h1.786v-4.613a4.669 4.669 0 01.11-1.028 2.818 2.818 0 01.36-.884 2.269 2.269 0 011.684-1.024 2.85 2.85 0 01.995.068v-1.659a3.455 3.455 0 00-.865-.042z" />
      <path d="M190.957 23.566h-1.777v2.539h-1.752v1.422h1.752v4.121c0 .5.007.94.021 1.333a2.682 2.682 0 00.317 1.155 2.022 2.022 0 00.982.931 3.843 3.843 0 001.481.321 7.6 7.6 0 001.693-.144v-1.5a6.382 6.382 0 01-1.562.055 1.2 1.2 0 01-.969-.6 1.453 1.453 0 01-.173-.685q-.012-.406-.013-.957V27.52h2.717v-1.422h-2.717z" />
      <path d="M203.674 28.041a3.7 3.7 0 00-.613-1.078 2.943 2.943 0 00-1.045-.8 3.7 3.7 0 00-1.591-.306 3.961 3.961 0 00-2.107.534 3.425 3.425 0 00-.914.81v-4.145h-1.583v12.187h1.794v-4.757a4.544 4.544 0 01.182-1.379 2.442 2.442 0 01.5-.914 1.863 1.863 0 01.741-.5 2.559 2.559 0 01.9-.157 2.117 2.117 0 011.181.3 2.028 2.028 0 01.7.778 3.416 3.416 0 01.339 1.045 7.037 7.037 0 01.089 1.1v4.494h1.794v-5.077a7.323 7.323 0 00-.076-.982 5.583 5.583 0 00-.291-1.153z" />
      <path d="M214.102 31.172h.881a6.421 6.421 0 00-.385-2.835 3.9 3.9 0 00-1.468-1.841 4.227 4.227 0 00-2.378-.647 4.487 4.487 0 00-2.344.6 4.1 4.1 0 00-1.57 1.7 5.635 5.635 0 00-.563 2.6 5.2 5.2 0 00.572 2.484 4.135 4.135 0 001.6 1.667 4.67 4.67 0 002.391.6 4.48 4.48 0 002.412-.672 4.091 4.091 0 001.617-1.9l-1.735-.55a2.524 2.524 0 01-.944 1.079 2.656 2.656 0 01-1.435.377 2.342 2.342 0 01-1.929-.825 3.278 3.278 0 01-.646-1.833h5.926zm-5.281-2.92a2.4 2.4 0 012-.837 2.12 2.12 0 011.79.761 3.213 3.213 0 01.561 1.616h-4.954a3.164 3.164 0 01.603-1.54z" />
      <path d="M62.747 54.04a7.4 7.4 0 00.884-.068 4.427 4.427 0 002.407-1.02 5.26 5.26 0 001.477-2.141 8.394 8.394 0 000-5.7 5.3 5.3 0 00-1.477-2.146 4.421 4.421 0 00-2.407-1.024 7.3 7.3 0 00-.884-.067 39.03 39.03 0 00-.631-.009h-3.817v12.186h3.817c.108-.003.323-.006.631-.011zM60.11 43.546h2.006q.28 0 .681.013a4.564 4.564 0 01.706.072 2.636 2.636 0 011.494.792 3.875 3.875 0 01.859 1.54 6.826 6.826 0 01.28 1.993 6.929 6.929 0 01-.271 1.963 3.858 3.858 0 01-.851 1.554 2.662 2.662 0 01-1.511.807 5.54 5.54 0 01-.7.068q-.4.018-.686.017h-2.006z" />
      <path d="M78.48 51.73l-1.735-.549a2.532 2.532 0 01-.944 1.079 2.663 2.663 0 01-1.434.376 2.34 2.34 0 01-1.93-.825 3.278 3.278 0 01-.646-1.832h6.807a6.425 6.425 0 00-.385-2.835 3.9 3.9 0 00-1.469-1.841 4.221 4.221 0 00-2.378-.647 4.486 4.486 0 00-2.344.6 4.108 4.108 0 00-1.57 1.7 5.634 5.634 0 00-.563 2.6 5.2 5.2 0 00.571 2.484 4.142 4.142 0 001.6 1.667 4.684 4.684 0 002.391.6 4.482 4.482 0 002.412-.673 4.089 4.089 0 001.617-1.904zm-6.042-4.671a2.4 2.4 0 012-.838 2.12 2.12 0 011.79.761 3.2 3.2 0 01.562 1.617h-4.954a3.162 3.162 0 01.602-1.54z" />
      <path d="M88.925 51.535l-1.794-.423a2.44 2.44 0 01-.808 1.13 2.264 2.264 0 01-1.384.393 2.2 2.2 0 01-1.891-.872 3.809 3.809 0 01-.647-2.285 4.652 4.652 0 01.279-1.625 2.425 2.425 0 01.829-1.121 2.356 2.356 0 011.43-.411 2.287 2.287 0 011.367.428 2.36 2.36 0 01.859 1.2l1.76-.507a3.48 3.48 0 00-1.4-2.04 4.343 4.343 0 00-2.56-.745 4.4 4.4 0 00-2.378.618 4.076 4.076 0 00-1.523 1.705 5.69 5.69 0 00-.542 2.5 5.785 5.785 0 00.529 2.479 4.069 4.069 0 001.5 1.718 4.347 4.347 0 002.386.626 4.291 4.291 0 002.5-.715 3.927 3.927 0 001.488-2.053z" />
      <path d="M97.477 45.303a4.223 4.223 0 00-2.378-.647 4.483 4.483 0 00-2.344.6 4.108 4.108 0 00-1.57 1.7 5.634 5.634 0 00-.563 2.6 5.2 5.2 0 00.572 2.484 4.136 4.136 0 001.6 1.667 4.68 4.68 0 002.391.6 4.483 4.483 0 002.412-.673 4.093 4.093 0 001.616-1.9l-1.735-.549a2.532 2.532 0 01-.944 1.079 2.665 2.665 0 01-1.434.376 2.34 2.34 0 01-1.93-.825 3.275 3.275 0 01-.646-1.832h6.807a6.421 6.421 0 00-.385-2.835 3.9 3.9 0 00-1.469-1.845zm-4.308 1.756a2.4 2.4 0 012-.838 2.121 2.121 0 011.79.761 3.219 3.219 0 01.561 1.617h-4.954a3.162 3.162 0 01.606-1.54z" />
      <path d="M109.553 46.846a3.713 3.713 0 00-.614-1.079 2.939 2.939 0 00-1.045-.8 3.7 3.7 0 00-1.591-.3 3.968 3.968 0 00-2.108.533 3.448 3.448 0 00-.914.81v-1.1h-1.583v9.14h1.794v-4.756a4.551 4.551 0 01.182-1.38 2.435 2.435 0 01.5-.914 1.885 1.885 0 01.74-.5 2.571 2.571 0 01.9-.156 2.12 2.12 0 011.181.3 2.039 2.039 0 01.7.778 3.422 3.422 0 01.338 1.045 7.019 7.019 0 01.089 1.1v4.494h1.794v-5.078a7.309 7.309 0 00-.077-.981 5.535 5.535 0 00-.286-1.156z" />
      <path d="M115.012 42.37h-1.777v2.539h-1.752v1.422h1.752v4.117c0 .5.007.94.021 1.333a2.687 2.687 0 00.317 1.155 2.023 2.023 0 00.982.931 3.844 3.844 0 001.481.321 7.562 7.562 0 001.692-.144v-1.5a6.426 6.426 0 01-1.561.055 1.2 1.2 0 01-.969-.6 1.457 1.457 0 01-.174-.686q-.012-.406-.012-.956v-4.036h2.716v-1.422h-2.716z" />
      <path d="M123.947 44.862a3.594 3.594 0 00-.876.17 2.746 2.746 0 00-.774.393 2.476 2.476 0 00-.626.605 3.3 3.3 0 00-.22.343v-1.465h-1.574v9.14h1.786v-4.612a4.656 4.656 0 01.11-1.028 2.828 2.828 0 01.36-.884 2.267 2.267 0 011.684-1.024 2.836 2.836 0 01.994.067v-1.659a3.547 3.547 0 00-.864-.046z" />
      <path d="M133.956 46.399a2.652 2.652 0 00-1.333-1.325 5.068 5.068 0 00-2.137-.419 4.214 4.214 0 00-2.535.694 3.412 3.412 0 00-1.29 1.87l1.65.508a1.8 1.8 0 01.838-1.1 2.677 2.677 0 011.32-.335 1.725 1.725 0 012.061 1.852l-1.042.146q-.851.119-1.621.254a12.947 12.947 0 00-1.379.313 3.949 3.949 0 00-1.185.6 2.378 2.378 0 00-.728.893 2.847 2.847 0 00-.246 1.219 2.728 2.728 0 00.351 1.367 2.581 2.581 0 001.037 1 3.494 3.494 0 001.7.377 4.2 4.2 0 002.154-.513 3.633 3.633 0 001.139-1.068v1.326h1.565v-5.627a10.708 10.708 0 00-.051-1.075 2.777 2.777 0 00-.268-.957zm-1.625 4.646a2.146 2.146 0 01-.431.863 2.507 2.507 0 01-.872.681 2.9 2.9 0 01-1.295.267 2.119 2.119 0 01-.931-.178 1.239 1.239 0 01-.542-.478 1.267 1.267 0 01-.177-.656 1.112 1.112 0 01.165-.618 1.431 1.431 0 01.449-.432 3.239 3.239 0 01.647-.3 7.769 7.769 0 01.986-.232q.554-.1 1.24-.2l.944-.141c0 .15-.009.319-.017.513a3.129 3.129 0 01-.166.91z" />
      <path d="M137.111 41.608h1.769v12.44h-1.769z" />
      <path d="M141.875 41.693h1.769v1.718h-1.769z" />
      <path d="M141.875 44.909h1.769v9.14h-1.769z" />
      <path d="M146.167 46.492h4.714l-5.188 7.278v.279h7.743v-1.583h-4.925l5.179-7.269v-.288h-7.523z" />
      <path d="M161.949 45.303a4.223 4.223 0 00-2.378-.647 4.484 4.484 0 00-2.344.6 4.1 4.1 0 00-1.57 1.7 5.638 5.638 0 00-.563 2.6 5.2 5.2 0 00.572 2.484 4.137 4.137 0 001.6 1.667 4.68 4.68 0 002.391.6 4.484 4.484 0 002.412-.673 4.092 4.092 0 001.616-1.9l-1.735-.549a2.53 2.53 0 01-.943 1.079 2.664 2.664 0 01-1.435.376 2.34 2.34 0 01-1.93-.825 3.276 3.276 0 01-.646-1.832h6.807a6.418 6.418 0 00-.385-2.835 3.9 3.9 0 00-1.469-1.845zm-4.308 1.756a2.4 2.4 0 012-.838 2.12 2.12 0 011.79.761 3.217 3.217 0 01.562 1.617h-4.955a3.162 3.162 0 01.603-1.54z" />
      <path d="M172.385 45.535a3.825 3.825 0 00-.309-.25 3.661 3.661 0 00-2.179-.63 3.882 3.882 0 00-2.222.63 4.132 4.132 0 00-1.443 1.718 5.771 5.771 0 00-.508 2.467 5.846 5.846 0 00.5 2.467 4.144 4.144 0 001.43 1.731 3.805 3.805 0 002.2.635 3.668 3.668 0 002.2-.639 3.827 3.827 0 00.525-.458v.843h1.574V41.863h-1.777zm-.05 5.611a2.361 2.361 0 01-.8 1.143 2.3 2.3 0 01-1.422.415 2.208 2.208 0 01-1.4-.432 2.578 2.578 0 01-.829-1.164 4.614 4.614 0 01-.275-1.637 4.563 4.563 0 01.275-1.625 2.546 2.546 0 01.842-1.159 2.323 2.323 0 011.447-.432 2.207 2.207 0 011.367.407 2.372 2.372 0 01.8 1.134 5.009 5.009 0 01.258 1.676 5.084 5.084 0 01-.267 1.673z" />
      <path d="M69.706 69.757l-2.564-9.216-1.862.008-2.564 9.208-2.564-9.216h-1.853l3.537 12.187h1.76l2.615-9.114 2.615 9.114h1.76l3.546-12.187H72.27z" />
      <path d="M81.657 63.982a4.226 4.226 0 00-2.378-.648 4.487 4.487 0 00-2.344.6 4.106 4.106 0 00-1.57 1.7 5.635 5.635 0 00-.563 2.6 5.194 5.194 0 00.572 2.484 4.139 4.139 0 001.6 1.667 4.674 4.674 0 002.391.6 4.476 4.476 0 002.411-.673 4.09 4.09 0 001.617-1.9l-1.735-.55a2.536 2.536 0 01-.944 1.079 2.666 2.666 0 01-1.435.376 2.341 2.341 0 01-1.929-.825 3.273 3.273 0 01-.646-1.832h6.807a6.42 6.42 0 00-.385-2.835 3.9 3.9 0 00-1.469-1.843zm-4.308 1.756a2.4 2.4 0 012-.838 2.121 2.121 0 011.79.761 3.221 3.221 0 01.562 1.617h-4.955a3.168 3.168 0 01.604-1.54z" />
      <path d="M92.37 63.965a3.876 3.876 0 00-2.222-.631 3.653 3.653 0 00-2.179.631 3.481 3.481 0 00-.309.249v-3.673h-1.777v12.187h1.574v-.844a3.8 3.8 0 00.525.459 3.67 3.67 0 002.2.639 3.808 3.808 0 002.2-.635 4.139 4.139 0 001.43-1.731 5.845 5.845 0 00.5-2.467 5.77 5.77 0 00-.508-2.467 4.124 4.124 0 00-1.434-1.717zm-.2 5.821a2.6 2.6 0 01-.829 1.164 2.21 2.21 0 01-1.4.431 2.3 2.3 0 01-1.422-.414 2.363 2.363 0 01-.8-1.143 5.08 5.08 0 01-.254-1.676 4.993 4.993 0 01.258-1.675 2.376 2.376 0 01.8-1.135 2.2 2.2 0 011.367-.405 2.319 2.319 0 011.447.432 2.55 2.55 0 01.843 1.159 4.569 4.569 0 01.275 1.624 4.627 4.627 0 01-.291 1.638z" />
      <path d="M20.687 0H0v20.686h18.806v16.926H0V58.3h18.806v18.8h20.687V56.414H20.687V39.488h18.806V18.801H20.687zM1.881 18.806V1.88h16.926v16.925zm35.731 39.493v16.926H20.687V58.3zm-18.806-1.88H1.88V39.493h16.926zm18.806-35.732v16.926H20.687V20.687z" />
      <path d="M7.76 14.575h1.6v-3.433h2.868v-1.6H9.36V7.709h3.573v-1.6H7.76z" />
      <path d="M28.162 29.948h2.868v-1.6h-2.868v-1.833h3.573v-1.6h-5.172v8.463h1.6z" />
      <path d="M10.026 52.181a5.72 5.72 0 00.6-.041 3.275 3.275 0 001.734-.711 3.733 3.733 0 001.081-1.493 5.485 5.485 0 000-3.961 3.738 3.738 0 00-1.081-1.493 3.282 3.282 0 00-1.734-.71 5.72 5.72 0 00-.6-.041q-.312-.007-.411-.006H6.876v8.462h2.739l.411-.006zm-1.528-6.953h1.117c.106 0 .249 0 .429.006a2.551 2.551 0 01.488.053 1.567 1.567 0 01.888.5 2.531 2.531 0 01.526.964 4.115 4.115 0 01.173 1.2 4.157 4.157 0 01-.167 1.175 2.585 2.585 0 01-.518.976 1.559 1.559 0 01-.9.517 3.086 3.086 0 01-.488.05c-.18.005-.323.009-.429.009H8.5z" />
      <path d="M27.509 70.992l1.64-5.712 1.64 5.712h1.575l2.48-8.462h-1.681l-1.587 5.818-1.587-5.818-1.681.012-1.586 5.806-1.587-5.818h-1.681l2.48 8.462z" />
    </g>
  </svg>