<svg xmlns="http://www.w3.org/2000/svg" width="232.95" height="477.113" viewBox="0 0 232.95 477.113">
  <path d="M306.045-986.581c-1.514,1.251-1.711,1.843-1.514,4.147.263,2.041-.395,4.674-2.831,11.256-2.765,7.438-12.77,34.295-32.978,88.534-11.717,31.4-13.165,35.151-14.679,37.191a7.068,7.068,0,0,0-1.58,4.344c.066,1.251-1.843,7.438-4.344,14.087-2.436,6.517-5.529,14.942-6.912,18.76-1.448,3.818-5.134,13.692-8.228,22.051-3.16,8.294-5.99,16-6.385,16.983s-.79,1.777-.922,1.646c-.2-.2,2.041-8.623,11.651-43.971,2.238-8.162,4.41-16.325,4.871-18.1.922-3.752,6.648-24.882,9.545-35.216,1.053-3.818,3.094-11.388,4.608-16.785,1.514-5.464,2.831-10.334,3.028-10.993a2.66,2.66,0,0,1,1.909-1.448,5.819,5.819,0,0,0,2.567-1.448c1.448-1.382,1.316-5.068-.132-6.385-1.646-1.448-4.937-1.382-6.253.066a5.04,5.04,0,0,0-.132,6.056c.856.987.724,1.975-1.251,9.281-1.251,4.476-3.291,12.309-4.674,17.378-1.317,5.069-3.423,12.77-4.608,17.115s-3.884,14.284-5.924,22.051-5.266,19.747-7.241,26.659c-1.909,6.846-5.2,18.892-7.241,26.659-6.451,24.092-8.228,28.766-5.858,15.4.527-3.225,1.251-7.767,1.58-10.137,1.251-9.15,8.031-56.873,9.61-67.471,1.58-10.664,7.043-50.685,9.15-66.812.592-4.147,1.777-12.836,2.633-19.287,1.646-11.717,1.646-11.783,3.949-13.955,2.7-2.5,2.9-4.41.658-6.583-2.106-2.172-4.476-2.106-6.253.132-1.58,2.041-1.316,4.279.724,6.517,1.251,1.317,1.251,1.514-.724,16.127-1.119,8.1-2.436,18.168-2.962,22.315-2.37,18.1-5.6,41.206-7.57,53.647-.329,2.172-1.251,8.557-1.975,14.152-1.316,9.874-2.106,15.4-4.213,29.292-.527,3.62-1.909,13.1-3.028,21.064-1.975,13.757-3.357,19.55-2.83,12.046.132-1.909.527-10.729.856-19.616s.987-24.158,1.382-33.9l.79-17.773,1.909-1.777c3.028-2.83,2.238-6.582-1.646-7.965-1.58-.592-4.081.658-5.134,2.567-.724,1.317-.658,1.975.263,3.884.592,1.251,1.58,2.3,2.172,2.3.856,0,.987.856.658,6.714-.2,3.752-.724,15.337-1.119,25.869-.395,10.466-.79,19.813-.922,20.735s-.263,4.608-.263,8.162c-.066,3.62-.2,6.385-.461,6.188-.527-.592-.79-8.162-1.251-35.085-.2-13.757-.527-26.922-.658-29.292-.79-12.178-1.053-42.786-.395-42.786,1.514,0,3.357-2.633,3.357-4.805a4.113,4.113,0,0,0-4.41-4.41c-4.015,0-5.661,5.2-2.567,8.1,1.514,1.382,1.514,1.843,1.975,15.93.2,7.965.527,21.854.724,30.938.2,9.018.461,21.064.658,26.659.527,17.312.987,54.371.658,53.647-.2-.527-3.818-21.92-15.8-94.459-.922-5.6-2.238-13.494-2.962-17.444-2.106-11.388-5.266-29.555-6.648-38.178-1.382-8.36-4.344-26.659-5-30.74a5,5,0,0,1,.724-3.884c3.555-5.068-3.028-10.927-6.78-6.122-1.58,2.041-1.711,2.83-.592,5.2a3.7,3.7,0,0,0,2.7,2.106c1.053.2,2.041.724,2.172,1.119s2.436,13.889,5.2,30.016c2.7,16.127,5.332,31.662,5.858,34.558,1.053,5.4,5.069,29.49,8.031,47.723.856,5.6,2.5,15.535,3.62,22.051,1.053,6.517,2.567,15.4,3.225,19.747.724,4.344,1.711,10.269,2.238,13.165s1.185,6.714,1.382,8.557c.263,1.777.592,3.884.79,4.608.263.922.132,1.119-.329.658a36.1,36.1,0,0,1-2.765-6.582c-7.438-21-10.2-28.436-15.469-42.457-1.58-4.147-6.78-18.365-11.519-31.6-4.805-13.231-11.19-30.806-14.284-39.034-5.332-14.35-5.529-15.074-4.542-16.588,2.172-3.357.395-7.57-3.291-7.57-2.436,0-5.529,2.37-5.529,4.279s2.3,4.213,4.674,4.739c1.514.263,2.041,1.119,3.752,5.727,1.053,2.9,4.674,12.7,8.031,21.788,3.357,9.018,6.912,18.826,7.9,21.722,1.053,2.9,4.279,11.783,7.241,19.748,2.9,7.965,7.241,19.813,9.61,26.33s4.871,13.3,5.529,15.14c2.436,6.253,7.241,20.34,7.241,21.064,0,.79-.987-1.251-4.476-9.216-1.448-3.291-3.357-7.636-4.344-9.676a39.807,39.807,0,0,1-1.711-4.147c0-.461-2.9-7.175-6.253-14.481-1.251-2.7-3.291-7.307-4.542-10.334-1.185-3.028-5.858-13.757-10.269-23.895S168.8-855,166.5-860.263c-2.238-5.266-6.977-16-10.466-23.894-3.489-7.833-6.319-14.416-6.319-14.613s-1.185-2.9-2.567-6.056c-1.382-3.225-7.372-16.917-13.231-30.477-9.15-21.261-10.532-24.816-9.94-26.2,1.975-4.213,0-7.636-4.279-7.241-3.16.263-4.871,2.7-3.884,5.529.724,1.909,1.646,2.633,4.344,3.16,1.711.395,3.16,3.357,14.876,30.674,1.975,4.542,3.949,9.084,4.41,10.2,1.646,3.62,6.78,15.8,7.109,16.785.329.79,13.033,29.753,16.588,37.849,3.16,7.043,9.61,21.985,9.61,22.249,0,.2.987,2.5,2.238,5.2,1.251,2.633,4.937,10.993,8.162,18.628,3.225,7.57,7.767,17.97,10.005,23.039s4.608,10.729,5.266,12.507a67.92,67.92,0,0,0,3.291,7.57c2.436,4.871,5.661,13.165,4.739,12.178-.329-.395-3.291-5.858-6.582-12.178-3.225-6.319-6.78-13.165-7.833-15.14-3.489-6.385-12.77-24.158-20.932-39.824-7.57-14.547-24.684-47-28.963-54.964-2.238-4.147-6.385-12.178-9.215-17.773s-5.661-11.125-6.319-12.309c-.922-1.58-1.119-2.9-.79-5.332.329-2.962.2-3.357-1.448-4.608a6.386,6.386,0,0,0-2.962-1.448c-1.711,0-4.608,3.028-4.608,4.805a4.817,4.817,0,0,0,4.805,4.41c2.37,0,2.37,0,8.886,12.836,1.251,2.5,5.727,10.993,9.874,18.76s11.124,21.13,15.469,29.621,9.281,17.97,10.927,21.064c1.711,3.094,3.752,6.912,4.608,8.557,3.028,5.924,10.8,20.867,13.231,25.343,2.3,4.279,4.279,8.1,17.509,33.7,2.7,5.2,4.739,9.413,4.542,9.413a47.589,47.589,0,0,1-4.081-5.793c-2.041-3.16-6.319-9.742-9.479-14.613s-8.557-13.165-11.98-18.431-8.821-13.56-11.98-18.431c-3.225-4.871-7.9-12.178-10.532-16.127-11.98-18.234-13.56-21-13.1-22.71,1.382-4.542,0-7.307-3.686-7.372-5.727-.2-6.122,7.965-.461,9.018a5.546,5.546,0,0,1,3.555,2.5c.724,1.185,4.542,6.977,8.426,12.967,7.175,10.993,12.836,19.616,25.013,38.178,7.241,10.927,11.651,17.839,22.71,34.887,8.623,13.428,8.162,12.573,7.109,12.112-.461-.2-4.213-4.279-8.294-9.018-4.015-4.805-8.623-10.005-10.2-11.651-1.514-1.646-5.134-5.661-7.965-8.886-6.253-7.043-20.142-22.446-30.674-33.9-4.213-4.542-12.507-13.692-18.431-20.406s-10.993-12.309-11.19-12.507-2.962-3.225-6.188-6.846c-5.2-5.793-5.727-6.648-5.4-8.426.461-2.3-1.119-5.727-2.765-5.924C103.3-869.939,101-868.359,101-865.4a4.6,4.6,0,0,0,4.805,4.476c2.5,0,3.489.922,18.234,17.444,5.2,5.793,11.124,12.309,13.231,14.481,2.041,2.172,5.134,5.6,6.846,7.57,3.225,3.686,10.269,11.519,18.1,20.011,2.37,2.567,6.648,7.372,9.545,10.6s8.228,9.216,11.848,13.165c3.62,4.015,8.623,9.676,11.124,12.507,2.5,2.9,6.319,7.175,8.557,9.545,5,5.4,8.294,9.413,7.965,9.742-.132.2-4.081-2.041-8.689-4.937C192.5-757.049,179.2-765.08,158.6-777.389c-36.928-21.986-36.2-21.525-36.006-23.368a6.08,6.08,0,0,0-.79-3.291c-1.448-2.172-5.793-2.238-7.241-.132-1.382,1.975-1.316,3.291.395,5.464,1.251,1.58,1.711,1.777,4.279,1.382,2.633-.329,3.423-.066,9.281,3.291,3.489,2.041,8.491,5.069,10.993,6.714,2.567,1.646,5.661,3.555,6.912,4.279,4.279,2.37,18.036,10.532,25.343,14.942,4.015,2.436,11.388,6.846,16.456,9.874,13.823,8.162,20.077,12.112,20.077,12.638,0,.263-2.3-.527-5.069-1.843-2.83-1.317-9.281-4.147-14.35-6.319s-11.388-4.937-14.021-6.188c-2.7-1.251-5-2.238-5.134-2.238s-2.172-.856-4.542-1.975c-3.818-1.777-4.279-2.172-4.279-3.884a4.644,4.644,0,0,0-4.608-4.871c-5,0-6.319,6.977-1.646,8.755a6.412,6.412,0,0,0,3.686-.066c2.041-.592,3.752,0,21.327,7.636,10.532,4.608,21.13,9.215,23.631,10.2a30.269,30.269,0,0,1,5.266,2.633c.79.79-6.78.856-17.509.066-6.78-.461-7.043-.527-8.952-2.567-2.3-2.435-4.739-2.765-6.714-.79-1.711,1.711-1.646,3.95.066,6.188,1.711,2.172,4.081,2.238,6.253.066l1.711-1.711,12.573.132c6.977.066,13.231.329,13.955.592l1.316.461-1.316.395c-.724.2-4.871,1.053-9.215,1.777-4.344.79-16.061,3.094-26,5.068-26.857,5.4-29.885,5.99-38.508,7.57l-7.965,1.382-1.711-1.711a6.009,6.009,0,0,0-3.357-1.777c-1.909,0-4.41,2.567-4.41,4.542s2.83,4.674,4.937,4.674c1.58,0,4.279-2.041,4.279-3.225,0-.856,1.053-1.119,9.215-2.633,3.818-.724,14.942-2.962,24.684-5,16.193-3.291,43.642-8.821,48.842-9.742,2.172-.461,3.094.066,2.3,1.317-.263.395-2.238,2.765-4.476,5.2-13.165,14.876-27.252,30.872-33.834,38.508-4.147,4.805-9.808,11.322-12.507,14.416-2.765,3.094-7.043,7.965-9.545,10.927-2.567,2.9-10.466,11.849-17.641,19.945-12.968,14.416-13.1,14.547-15.271,14.152-1.843-.329-2.567-.066-3.949,1.317-2.041,2.041-1.843,4.542.461,6.451,3.291,2.831,7.307.329,6.977-4.344-.066-1.646.395-2.765,1.843-4.41,1.053-1.251,10.071-11.454,20.011-22.644,26.791-30.214,36.072-40.746,40.746-46.341,2.3-2.7,5-5.858,6.056-6.912s4.015-4.542,6.648-7.7c5.463-6.582,7.833-8.36,3.686-2.7-1.514,2.041-8.294,11.322-15.008,20.537-28.9,39.758-26.659,36.994-29.292,36.467-1.843-.329-2.5-.132-3.884,1.316-1.909,1.843-2.041,2.831-.987,5.266a5.344,5.344,0,0,0,5.332,2.567c1.646-.395,3.291-3.291,3.028-5.464-.2-1.975,2.041-5.332,21.459-32.057,1.843-2.435,9.018-12.375,16.061-22.117,7.043-9.676,12.9-17.575,13.1-17.575.461,0-.395,2.5-2.436,6.912-2.9,6.385-7.9,17.97-7.9,18.365,0,.132-.987,2.436-2.238,5.134-1.251,2.633-5.529,12.375-9.479,21.591s-10.532,24.355-14.613,33.571-8.36,19.023-9.545,21.722c-10.993,25.738-31.662,73.329-37.652,86.56-7.175,15.93-7.965,17.444-9.347,17.444-1.448,0-4.015,2.9-4.015,4.608,0,3.686,5.661,5.6,8.031,2.633,1.448-1.777,1.514-2.765.2-5.332-1.053-1.909-.922-2.172,2.633-10.334,4.344-9.808,5.463-12.243,6.582-14.942.461-1.119,1.58-3.62,2.5-5.6,3.489-7.767,4.344-9.742,6.912-15.8,4.739-11.256,30.082-69.709,35.677-82.281,1.843-4.147,6.78-15.4,10.927-25.013,4.213-9.61,8.623-19.682,9.808-22.38s3.291-7.636,4.674-10.861a46.117,46.117,0,0,1,3.028-6.583c.79-.922,2.238-4.476-26.725,68.129-14.284,35.677-27.778,69.643-30.082,75.5-3.752,9.479-4.41,10.729-5.727,10.729-1.909,0-4.739,2.765-4.739,4.608a5.224,5.224,0,0,0,1.646,2.962c3.818,3.884,8.689.329,6.912-4.937-.79-2.37-.658-3.028,2.3-10.6,6.714-17.707,15.8-40.811,24.421-62.139,4.937-12.309,9.808-24.487,10.8-26.988,2.765-7.109,5.924-14.942,6.912-17.115.461-1.119,3.752-9.347,7.307-18.431C205-708.6,208.821-717.554,207.9-714.131c-.263.922-.658,2.5-.922,3.62-.263,1.053-1.58,5.793-2.962,10.532-1.317,4.674-3.686,13.3-5.332,19.089-1.58,5.793-3.489,12.573-4.213,15.14-.724,2.5-2.041,7.241-2.9,10.532-2.7,9.874-15.6,54.569-15.732,54.569a7.9,7.9,0,0,0-4.608,3.95c-1.251,3.752,3.884,7.307,6.78,4.674a4.612,4.612,0,0,0,.856-6.188,5.331,5.331,0,0,1-.922-3.028c.066-.724,2.238-8.755,4.805-17.773,5-17.839,6.056-21.525,7.175-25.869l.79-2.831,1.119,1.909a7.572,7.572,0,0,0,3.16,2.633l2.041.658-.922,3.884c-1.514,6.583-6.582,32.32-11.256,57.136-.527,2.9-1.251,6.122-1.58,7.241-.263,1.053-.724,2.7-.922,3.62-.263,1.251-.79,1.711-2.172,1.843-2.041.132-4.147,2.238-4.147,4.081a6.265,6.265,0,0,0,1.382,2.9,4.558,4.558,0,0,0,6.846.395c1.053-1.185,1.119-1.646.395-4.805-.856-3.423-.329-7.833,2.567-21.525.329-1.646,1.646-8.623,2.962-15.469,1.251-6.912,2.7-14.416,3.291-16.785.527-2.37,1.777-8.294,2.7-13.165s2.238-9.61,2.83-10.532a11.646,11.646,0,0,0,1.053-5.6c.066-2.172,1.646-12.178,3.62-22.315,3.225-16.456,3.686-18.168,4.344-16.456a5.838,5.838,0,0,1,.592,2.3c-.263.395-2.7,17.115-5.266,35.809-3.16,23.763-4.344,32.32-6.319,46.078-1.119,7.57-2.37,17.049-2.9,21.064-.461,3.949-1.777,13.626-2.9,21.393-6.056,42.655-5.924,42.062-8.426,42.128-2.106,0-2.83,4.739-1.119,7.175.987,1.382,1.448,1.514,4.279,1.185,1.777-.2,4.081-3.62,3.818-4.674a10.111,10.111,0,0,0-1.843-3.291c-1.251-1.382-1.251-1.448.592-14.547,1.053-7.241,2.5-17.9,3.291-23.7,1.382-10.269,4.871-35.545,6.912-50.027.592-4.015,2.765-20.274,4.937-36.2,3.489-25.738,4.542-33.307,5.529-39.166a14.463,14.463,0,0,0,.329-2.172c.066-.263.856-.263,1.777-.066,4.213,1.053,6.912-3.489,4.213-7.109-1.448-1.975-1.448-2.3-1.053-12.309.527-10.927,1.514-22.446,2.041-22.973.263-.263.395,4.279.527,16.127,0,.856.263,1.514.592,1.514s.461-2.5.263-5.6c-.263-4.674-.132-5.6.724-5.6.724,0,.922-.461.592-1.646-.263-.922-.132-1.646.2-1.646.263,0,.724.987.922,2.106.395,2.106,1.711,8.294,6.714,32.123,1.317,6.319,2.567,12.243,2.765,13.165.658,3.686,1.58,7.965,3.094,14.811.922,3.95,2.765,12.112,4.015,18.1,2.37,11.059,3.884,18.036,7.636,34.558,4.41,19.813,6.648,29.95,8.162,37.191.856,4.147,2.633,11.98,3.949,17.444,3.291,13.823,3.357,14.218,1.711,15.732-1.777,1.58-1.843,5.068-.132,6.582a4.488,4.488,0,0,0,6.582-.987c1.251-2.238.461-5.068-1.58-5.99-1.711-.79-2.962-3.884-2.962-7.241,0-1.711-1.909-4.805-1.975-7.109,0-.527-.592-3.291-1.251-6.253-1.909-7.7-6.583-28.5-8.36-36.862-1.843-8.755-4.476-21.064-6.188-28.634-.658-3.094-1.843-8.689-2.633-12.507s-1.843-8.228-2.37-9.874c-.461-1.646-1.316-5.463-1.909-8.557s-1.711-8.886-2.633-12.836c-.856-4.015-2.5-11.519-3.62-16.785s-3.028-14.021-4.279-19.418c-3.225-14.087-4.41-20.142-4.081-20.537.2-.132,1.251,2.765,2.436,6.517s4.344,13.757,7.043,22.249,5.793,18.431,6.846,22.051c1.843,5.99,7.307,23.17,21.459,67.471,8.689,27.252,9.347,29.424,9.281,32.32,0,2.172.329,3.094,1.448,4.015a4.227,4.227,0,0,0,5.924-.132,4.59,4.59,0,0,0-3.884-7.767l-2.238.2-2.172-6.583c-8.821-27.251-17.9-55.425-20.406-63.653-.263-.922.2-1.119,2.5-1.316,2.238-.132,2.962-.527,3.752-1.975,1.382-2.435.395-5.2-2.37-6.385-2.238-.987-.922,2.238-14.811-35.94-2.5-6.912-4.871-13.231-5.2-14.087-2.106-5-6.582-18.036-6.253-18.3.132-.2,1.119,1.448,2.172,3.555,1.777,3.489,9.018,16.456,32.452,58.123,4.739,8.491,10.005,17.839,11.717,20.735,1.646,2.9,4.147,7.438,5.529,10.005,1.448,2.633,4.147,7.5,6.122,10.8,2.633,4.41,3.489,6.517,3.225,7.636a4.667,4.667,0,0,0,2.37,5.661c1.711,1.053,2.238,1.053,3.752.329a4.894,4.894,0,0,0,1.975-6.385c-.658-1.382-1.316-1.777-3.752-1.909-2.567-.132-3.16-.461-4.213-2.3-.658-1.185-3.884-6.846-7.175-12.638s-6.451-11.454-7.109-12.507c-.724-1.119-1.448-2.436-1.711-2.962s-1.975-3.686-3.884-6.912c-1.843-3.291-4.081-7.241-5-8.886s-3.555-6.385-5.924-10.532c-12.243-21.525-22.907-41.009-22.644-41.272.132-.2.658.395,1.119,1.251.461.79,7.307,11.717,15.271,24.224s15.666,24.619,17.18,26.988c1.514,2.3,3.884,6.056,5.332,8.294,1.448,2.3,4.739,7.438,7.241,11.454,2.567,4.015,6.977,10.927,9.808,15.337,2.9,4.41,7.043,10.861,9.281,14.284s5.2,8.1,6.648,10.4c1.382,2.238,3.291,5.266,4.213,6.714s2.765,4.41,4.213,6.648c1.843,2.962,2.3,4.213,1.777,4.739-1.185,1.185-.856,5.4.461,6.582a4.535,4.535,0,0,0,6.056-.2c2.7-2.7.79-7.9-2.962-7.9-1.185,0-2.106-.724-3.357-2.831-.987-1.514-4.476-6.912-7.833-11.98-3.291-5.069-7.175-11.059-8.623-13.362-1.382-2.238-3.884-6.122-5.463-8.557s-6.714-10.466-11.388-17.9c-4.739-7.438-9.874-15.4-11.388-17.773s-6.122-9.61-10.2-16.127c-6.517-10.4-12.968-20.406-19.155-29.819a17.242,17.242,0,0,1-1.909-3.291,4.462,4.462,0,0,0-.987-1.777c-3.423-4.279-12.243-18.76-11.519-18.76.329,0,.987.592,1.514,1.382.987,1.317,17.839,19.616,29.095,31.53,11.388,12.112,23.17,24.75,26.659,28.634,1.909,2.172,5.464,5.99,7.833,8.557,2.436,2.5,9.15,9.61,14.876,15.8,5.793,6.122,11.783,12.507,13.428,14.152,4.147,4.279,5.99,6.846,5.99,8.426,0,3.16,5.661,4.608,7.5,1.975,2.9-4.081-1.119-9.084-5.4-6.846l-1.777.922-12.178-12.9c-6.714-7.109-14.416-15.271-17.18-18.168-2.7-2.962-7.241-7.7-9.94-10.6-2.765-2.9-5.6-5.99-6.319-6.846l-1.251-1.646,2.041-1.382c4.344-2.9,2.3-8.557-2.9-8.1l-2.567.2-26.067-25.935c-22.775-22.71-26.857-27.054-25.738-27.054.132,0,2.436.856,5.069,1.909,6.912,2.765,19.089,7.438,25.145,9.676,3.752,1.382,5.4,2.37,5.924,3.555a7.369,7.369,0,0,0,2.567,2.567c1.646.922,1.909.922,3.62-.329a4.694,4.694,0,0,0,1.185-6.582c-1.316-2.041-4.608-2.172-6.714-.132l-1.514,1.382-6.714-2.5c-3.752-1.382-9.742-3.62-13.362-4.937-3.62-1.382-8.031-3.028-9.874-3.686-2.37-.922-2.9-1.317-1.909-1.448,1.251-.2,20.142,2.83,27.91,4.476,1.646.329,10.071,1.777,18.76,3.291,8.689,1.448,19.089,3.225,23.039,3.949,4.015.658,9.413,1.58,12.046,1.975,4.476.724,4.937.922,5.529,2.7.922,2.633,3.686,4.081,5.793,3.028a7.746,7.746,0,0,0,2.633-2.633c.856-1.58.856-1.975,0-3.555-1.514-2.633-4.279-3.291-6.648-1.58l-1.975,1.448-17.9-3.028c-9.874-1.711-20.472-3.489-23.631-3.949s-7.307-1.185-9.215-1.58-9.874-1.777-17.641-3.028c-21.13-3.423-24.158-4.015-23.565-4.608.132-.2,6.912-.922,15.074-1.646,8.1-.724,15.8-1.448,17.049-1.646,1.251-.132,4.213-.461,6.583-.658s8.491-.79,13.626-1.316c12.9-1.382,15.535-1.316,16.983.329,3.489,3.884,8.821-1.777,6.253-6.648-.527-.922-1.382-1.251-3.225-1.251a4.652,4.652,0,0,0-4.871,3.357,3.42,3.42,0,0,1-2.567,1.448c-3.752.658-23.631,2.633-23.829,2.37a7.821,7.821,0,0,1,.2-2.83l.395-2.633,13.494-2.7c7.438-1.514,17.18-3.555,21.722-4.476,25.277-5.332,23.7-5.069,25.408-3.95,3.291,2.106,7.372-1.053,6.517-5.068a4.269,4.269,0,0,0-5.6-3.16c-1.909.724-2.633,1.646-2.633,3.686a2.358,2.358,0,0,1-1.448,2.106c-.856.395-8.031,2.041-16,3.686s-20.077,4.213-26.988,5.661c-12.77,2.7-14.942,2.962-18.5,2.172-1.58-.329-2.436-.132-3.95,1.185-1.251,1.053-3.752,2.041-7.175,2.765-16.259,3.423-23.631,4.871-23.894,4.674-.329-.395,2.567-1.975,21.92-12.243,9.084-4.805,17.18-9.281,18.1-9.874s4.344-2.5,7.57-4.279c3.291-1.711,12.9-6.977,21.393-11.717,8.491-4.674,17.312-9.545,19.55-10.729,3.423-1.909,4.476-2.172,6.648-1.843,2.106.329,2.9.132,4.015-.987,2.9-2.9.856-7.965-3.094-7.965-2.5,0-4.081,1.843-4.081,4.739v2.3l-17.246,9.61c-9.545,5.266-18.958,10.4-20.932,11.519-15.4,8.294-25.738,13.955-27.054,14.811-.856.527-3.357,1.909-5.529,3.094s-7.9,4.344-12.77,7.043c-4.871,2.633-8.952,4.674-9.15,4.542-.263-.263,8.426-11.059,9.808-12.243.856-.724,25.343-29.555,30.016-35.414,2.7-3.357,5.924-7.241,7.175-8.557a11.615,11.615,0,0,0,2.238-2.9c0-.263,1.119-1.053,2.567-1.777,3.818-1.975,4.608-5.6,1.711-7.833L276.094-818l6.122-8.1c3.423-4.476,9.676-12.77,14.021-18.431,4.279-5.661,11.388-14.942,15.666-20.6,6.912-9.084,8.031-10.269,9.742-10.269,2.238,0,5.134-2.567,5.134-4.608a5.224,5.224,0,0,0-1.646-2.962c-3.818-3.884-9.413.2-6.912,5,.592,1.053.329,1.712-1.251,3.752-1.119,1.317-3.094,3.884-4.41,5.727-1.382,1.777-5.6,7.438-9.479,12.507-5.924,7.767-12.441,16.39-26.593,34.953a16.177,16.177,0,0,1-3.752,3.686,5.591,5.591,0,0,0-2.172,2.9c-.263,1.053-2.633,4.674-5.2,8.031-6.056,7.9-21.393,27.91-31,40.614-4.147,5.4-8.426,10.927-9.545,12.178l-2.041,2.3,1.251-2.962c2.041-4.871,24.421-54.832,28.568-63.85.592-1.251,3.62-8.1,6.714-15.14,3.16-7.043,6.253-14.021,6.912-15.469s1.909-4.41,2.83-6.583,3.357-7.833,5.4-12.507c2.106-4.739,4.476-10.2,5.332-12.178.79-1.975,4.739-10.861,8.755-19.747,6.517-14.482,7.438-16.127,9.084-16.588a4.323,4.323,0,0,0,1.777-7.7c-2.37-1.843-4.476-1.711-6.122.329s-1.711,3.489-.395,5.266a4.629,4.629,0,0,1,.987,2.3c0,.856-9.215,22.578-11.124,26.067-.329.658-2.567,5.6-4.937,11.059-15.6,36.2-15.666,36.2-16.456,35.085a12.551,12.551,0,0,0-2.5-2.106c-1.646-1.053-1.711-1.251-.856-3.225.461-1.185,3.555-9.545,6.912-18.563,6.451-17.51,9.479-25.8,17.312-46.736,2.765-7.241,5.727-15.4,6.714-18.1,3.028-8.623,16.127-43.708,16.72-44.761.263-.527,1.58-1.053,2.9-1.185a4.525,4.525,0,0,0,4.41-4.739c0-2.041-.527-2.9-2.436-3.884C308.546-988.226,308.151-988.161,306.045-986.581ZM255.03-837.421c0,.263-3.094,8.162-6.846,17.641-3.752,9.413-6.977,17.707-7.241,18.365s-.592,1.119-.724.922c-.2-.2,1.185-4.279,2.962-9.15,1.843-4.871,4.476-11.914,5.858-15.732,3.752-10.269,4.739-12.507,5.4-12.507A.532.532,0,0,1,255.03-837.421Zm.395,9.545c-10.6,23.895-16.456,36.664-16.72,36.4s.987-3.818,2.83-7.9c.527-1.119,3.949-9.676,7.636-19.089s7.043-17.509,7.372-17.97a2.805,2.805,0,0,1,1.843-.79C259.375-837.224,258.98-835.842,255.425-827.877ZM272.013-810.1a2.4,2.4,0,0,1,.79,1.316c0,.263-3.62,4.739-8.031,9.94-4.476,5.2-9.281,10.927-10.729,12.7-11.322,13.823-19.089,22.841-18.694,21.656s35.019-46.406,35.48-46.406A2.72,2.72,0,0,1,272.013-810.1ZM239.3-797.663c-.329.856-.658,1.251-.658.79-.066-.987.658-2.962.987-2.633C239.825-799.375,239.627-798.519,239.3-797.663Zm15.074,48.316c0,.527-.263.987-.527.987-1.777,0-15.864,1.975-16.917,2.37-.79.263-1.119.2-.79-.132.527-.592,14.745-4.015,17.114-4.147A1,1,0,0,1,254.372-749.348Zm1.711,2.765c-.527.527-14.35,2.172-14.811,1.777-.395-.395,1.251-.724,6.188-1.448C253.516-747.044,256.676-747.175,256.084-746.583Zm-29.49,30.477c2.172,5.99,4.871,13.231,5.924,16.127,1.119,2.9,3.489,9.413,5.332,14.482,1.777,5.068,4.608,13.033,6.319,17.707,2.83,7.965,2.962,8.557,1.909,9.676-1.382,1.514-1.975,1.185-2.83-1.58-.329-1.119-2.041-6.583-3.686-11.98-4.081-13.1-7.109-22.644-12.77-40.153-4.344-13.494-5.134-16.127-4.41-15.4C222.579-727.1,224.488-722.03,226.594-716.106Zm48.184,33.571c0,1.843-1.777.987-4.476-2.106-1.711-1.909-6.648-7.175-10.993-11.717-12.836-13.362-22.38-23.763-22.578-24.553-.132-.461,8.36,7.9,18.892,18.5C266.155-691.751,274.778-682.865,274.778-682.535ZM209.94-713.012c-.2.658-.658,2.37-.987,3.818s-1.316,6.056-2.172,10.2c-.922,4.147-2.3,10.4-3.028,13.823-3.028,14.218-7.175,32.386-7.438,32.452-.066.066-1.185.658-2.3,1.251-2.567,1.317-2.633.987-1.185-3.818,2.238-7.5,4.476-15.469,9.215-32.847,2.765-10.137,5.463-19.747,6.056-21.393.527-1.646,1.119-3.357,1.251-3.818.132-.395.395-.79.658-.79C210.2-714.131,210.2-713.6,209.94-713.012Zm3.423,10.334c-.527,5.924-1.053,8.623-1.646,8.821-.856.263-.724-2.831.2-8.426.132-.527.395-2.9.658-5.266.527-4.344,1.119-6.451,1.448-4.608C214.087-711.63,213.824-707.351,213.363-702.678Zm-2.83,2.435c-.592,4.147-1.514,8.1-1.975,8.821-.527.724-.922.987-.922.658,0-.592,1.382-7.767,2.7-13.823.263-1.448.527-2.9.592-3.225,0-.329.132-.461.395-.263C211.52-707.878,211.191-704.323,210.533-700.242Zm-9.874,38.705c-.987,5.134-2.041,9.281-2.3,9.281s.395-4.015,1.448-9.018c1.053-4.937,1.909-9.281,1.909-9.61,0-.395.2-.527.395-.329C202.3-670.95,201.646-666.606,200.659-661.537Z" transform="translate(-101 987.892)" fill="#FFFDFD" />
</svg>
