<svg xmlns="http://www.w3.org/2000/svg" width="234.22" height="473" viewBox="0 0 234.22 473">
  <path d="M1173.083-989.2a4.438,4.438,0,0,0-3.591,4.636c0,1.893-1.828,3.264-18.934,13.972-1.632.979-8.814,5.68-16,10.381-20.827,13.58-19.848,13.058-21.284,12.209-1.893-1.241-3.591-.914-5.811.979-2.35,1.959,1.371,1.828-35.126.914l-17.172-.392-1.632-2.155c-1.306-1.567-2.155-2.089-3.852-2.089a4.494,4.494,0,0,0-2.938.979c-1.175,1.436-2.024,1.306-11.752-1.893-4.832-1.567-10.251-3.265-12.079-3.852-1.763-.522-9.336-2.938-16.78-5.354-13.58-4.374-13.58-4.374-13.58-6.268a4.56,4.56,0,0,0-4.244-4.5,5.46,5.46,0,0,0-3.33,1.7c-2.024,1.959-1.763,4.44.718,6.464,1.436,1.241,1.632,2.155,2.873,15.539,1.632,17.3,1.632,17.367.261,17.889-2.938,1.11-3.591,4.244-1.5,6.921l1.306,1.7-7.9,23.7c-4.375,13.058-8.227,24.092-8.618,24.484a2.407,2.407,0,0,1-1.763.849c-1.436,0-2.35,1.11-2.938,3.46-.392,1.5-.13,2.089,1.893,3.917,2.024,1.893,2.481,2.873,3.591,8.031,2.024,9.532,4.57,21.219,5.615,25.4,1.371,5.941,3.656,16,4.309,19.2.522,2.546.457,2.938-1.045,4.113a4.131,4.131,0,0,0-.2,6.4,4.793,4.793,0,0,0,2.22,1.306c.979,0,1.24,1.5,2.938,17.3,3.983,37.8,5.158,50.927,4.44,51.188a5.35,5.35,0,0,0-3.2,4.5c0,1.959,1.7,4.048,3.265,4.048.653,0,.783,1.371.392,6.66-.2,3.721-.588,10.25-.783,14.56s-.784,15.017-1.241,23.831c-.522,8.814-1.11,19.979-1.371,24.81-.588,12.34-.457,11.687-2.742,13.058a6.471,6.471,0,0,0-2.481,2.938,4.772,4.772,0,0,0,3.656,5.354c1.828.326,2.089.784,5.55,11.23,1.959,5.941,6.921,20.7,10.969,32.776l7.378,21.872-1.306,1.763c-1.175,1.567-1.24,2.024-.522,3.917.457,1.11.914,2.285.979,2.481s-4.244,7.051-9.663,15.213l-9.728,14.821-2.155-.392c-1.763-.326-2.481-.065-3.787,1.24-2.089,2.089-2.089,3.917,0,5.941,1.959,2.024,4.44,2.089,6.268.261,1.567-1.567.13-1.567,45.05-.131l13.385.392,1.11,1.828a4.005,4.005,0,0,0,6.2,1.436,5.292,5.292,0,0,0,1.959-2.612c.13-.979,1.763-1.763,8.161-3.722,4.374-1.306,13.123-4.048,19.391-6.007s13.776-4.244,16.649-5.093,8.292-2.546,12.013-3.722c5.419-1.7,6.986-1.959,7.965-1.371,1.893,1.175,5.484.979,6.66-.392,1.241-1.371,1.436-4.766.392-5.811-.718-.718.522-4.9,6.529-22.525,2.546-7.443,2.938-8.1,5.288-8.618a3.088,3.088,0,0,0,2.677-2.22c.588-1.632,1.241-1.959,7.639-3.656,3.852-.979,8.292-2.155,9.924-2.677,1.632-.457,6.2-1.632,10.12-2.677l7.182-1.828,1.763,1.763c2.22,2.22,4.048,2.22,6.072.131,1.828-1.763,1.959-2.873.914-5.876-.718-1.893.914-7.9,8.879-32.188a3.033,3.033,0,0,1,1.436-1.24c2.22-.783,3.46-2.35,3.46-4.374,0-2.546-.588-3.4-2.742-4.244-2.155-.784-1.893.326-4.766-20.305-3.395-24.092-7.378-51.579-8.553-58.7-.979-5.876-.979-6.137.261-6.986a4.253,4.253,0,0,0,.914-6.137l-1.306-1.7,2.873-17.3c3.46-21.089,3.134-19.783,5.093-20.7,3-1.371,2.807-6.986-.2-7.77-1.5-.392-1.959-2.155-4.048-15.017l-1.5-9.271,1.436-1.567a5,5,0,0,0,0-6.986l-1.5-1.371-.2-33.625c-.2-27.944-.065-33.559.653-33.559.522,0,1.371-.849,2.024-1.893a3.414,3.414,0,0,0,.392-3.722c-.783-2.22-1.7-2.873-3.917-2.873a3.911,3.911,0,0,1-2.677-1.175c-.522-.588-5.027-7.574-9.99-15.409-7.7-12.209-8.879-14.495-8.226-15.474,1.11-1.893.849-5.223-.522-6.725-1.11-1.175-1.175-1.828-.718-4.309.327-1.632,2.22-12.47,4.244-24.157,4.505-25.79,4.7-26.769,6.2-26.769,3.917,0,5.745-6.072,2.612-8.553C1175.5-990.044,1175.76-989.979,1173.083-989.2Zm-1.436,8.227c.2.326-.261,3.46-.914,7.051s-1.632,9.336-2.22,12.732-2.22,12.666-3.591,20.5c-1.436,7.835-2.612,14.429-2.612,14.56a1.458,1.458,0,0,1-.914.2c-1.632,0-3.722,2.285-4.178,4.44-.457,2.024-1.567,2.807-14.495,10.577-11.883,7.117-14.168,8.227-15.017,7.508a5.743,5.743,0,0,0-2.285-1.11c-1.11-.2-2.285-3.134-6.986-17.432l-5.68-17.237,1.24-1.632a6.279,6.279,0,0,0,1.306-3.4c0-1.828,3.591-4.374,25.463-18.347,3-1.959,10.773-6.986,17.3-11.165C1169.492-981.1,1171.059-981.948,1171.646-980.969Zm-164.075,21.611c4.505,1.436,13.319,4.309,19.587,6.333s12.862,4.179,14.56,4.7c1.763.522,3.265,1.371,3.46,2.024a16.467,16.467,0,0,0,.979,2.22c1.11,2.155,1.567.979-12.6,32.645-3.722,8.292-4.179,8.88-5.746,8.88a5.033,5.033,0,0,0-2.481.392c-.718.392-7.639-4.179-23.5-15.539-7.247-5.158-7.378-5.288-6.986-7.378.326-1.7,0-2.481-1.5-4.244-1.567-1.763-1.959-2.938-2.285-6.725-.261-2.546-.914-9.4-1.5-15.343-.588-6.333-.783-10.838-.392-10.969a7.994,7.994,0,0,0,1.763-1.045C992.229-964.32,991.119-964.646,1007.572-959.358Zm78.349,14.821c6.268.2,13.254.327,15.474.327,3.656,0,4.113.131,5.354,1.893l1.371,1.828-2.024,4.179c-2.155,4.44-21.938,40.284-22.852,41.459a4.193,4.193,0,0,1-2.742.392c-2.089-.261-2.416-.653-9.4-13.711-16.062-29.9-18.085-34.016-17.3-35.779l.718-1.567,9.99.326C1069.989-944.994,1079.652-944.733,1085.92-944.537Zm-24.027,21.546c14.1,26.638,15.147,28.728,14.691,29.968-.522,1.371-2.089,1.306-12.862-.326-4.832-.718-12.6-1.893-17.3-2.546-14.1-2.155-13.319-1.893-14.364-4.179-.979-2.024-.914-2.35.979-6.66,2.416-5.354,3.591-7.965,4.831-10.9,10.642-24.288,10.512-24.092,12.6-23.831C1052.034-941.272,1053.275-939.314,1061.893-922.991Zm54.974,1.175c5.093,15.539,5.68,17.563,4.766,18.281a6.066,6.066,0,0,0-1.632,2.416c-.588,1.567-1.828,1.959-17.367,5.811-15.8,3.917-18.673,4.309-18.673,2.677,0-.392,5.288-10.251,11.752-21.938s11.752-21.415,11.752-21.676c0-1.045,2.155-3.46,2.807-3.265C1110.73-939.379,1113.669-931.414,1116.868-921.816ZM998.3-918.747c2.416,1.763,9.075,6.529,14.821,10.642,9.075,6.4,10.446,7.639,10.642,9.336a9.577,9.577,0,0,0,.849,3.265c.588,1.175-.327,3.526-6.268,15.343-3.852,7.7-7.443,14.56-7.9,15.213a4.4,4.4,0,0,1-2.677,1.5,5.577,5.577,0,0,0-3,1.567c-1.306,1.632-1.437,1.632-13.842-1.632-5.027-1.306-10.251-2.677-11.556-3.069-1.959-.522-2.612-1.175-3.852-3.656l-1.436-3,8.031-24.027c5.484-16.323,8.422-24.157,9.075-24.288C993.4-922.208,994.057-921.881,998.3-918.747Zm161.071,1.306a2.575,2.575,0,0,0,1.893.653c1.959,0,2.35.522,9.859,12.405,11.1,17.563,11.491,18.412,10.9,21.285-.588,2.807-1.893,3.722-23.309,15.931-6.072,3.46-15.6,9.01-21.089,12.34-5.484,3.265-10.316,5.942-10.773,5.942a5.219,5.219,0,0,1-2.22-1.175l-1.436-1.11,1.175-21.742c1.175-21.676,1.175-21.742,2.873-23.5a7.974,7.974,0,0,0,1.893-3.33c.13-1.306,2.742-3.134,14.233-9.99,7.7-4.57,14.364-8.357,14.821-8.357A1.459,1.459,0,0,1,1159.372-917.441Zm-37.346,21.023c1.175.849,2.154,1.5,2.285,1.567.065.065-.326,7.378-.914,16.323s-1.175,18.869-1.371,22c-.327,5.354-.457,5.811-1.893,6.4a4.227,4.227,0,0,0-2.22,2.285c-.653,1.7-.783,1.763-5.093,1.306-2.416-.2-8.357-.588-13.189-.849l-8.814-.392-2.677-2.807-2.612-2.742-2.22-15.8-2.22-15.735,1.7-1.436a7.825,7.825,0,0,0,2.024-2.481c.261-.783,3.787-1.893,13.319-4.179,7.117-1.7,14.429-3.46,16.192-3.917C1118.957-898.116,1119.675-898.05,1122.026-896.418Zm-69.991,2.481c9.859,1.436,19.13,2.808,20.632,3.069,2.089.261,2.873.718,3.2,1.763a8.176,8.176,0,0,0,2.22,3c1.7,1.567,1.893,2.285,3.852,16.323,1.11,8.1,2.024,15.343,2.024,16.127a2.742,2.742,0,0,1-1.306,2.155,4.967,4.967,0,0,0-1.959,2.22c-.392,1.175-1.24,1.632-3.4,1.893-1.567.2-7.965,1.11-14.233,2.089-17.563,2.612-17.5,2.612-20.371.131-2.22-1.959-2.481-2.612-4.048-9.924-3-14.1-8.292-37.085-8.618-37.672-.457-.718,2.285-3.787,3.33-3.787C1033.753-896.549,1042.176-895.373,1052.034-893.937Zm-23.309,1.11c.457,1.567,2.612,11.23,4.636,20.762.979,4.309,2.546,11.818,3.591,16.649l1.893,8.814-1.371,1.11a4.3,4.3,0,0,1-2.089,1.175,38.316,38.316,0,0,1-6.268-3.265c-3.069-1.763-7.965-4.57-10.9-6.268-4.309-2.481-5.419-3.4-5.419-4.57a8.748,8.748,0,0,0-.718-3.069c-.588-1.371-.065-2.807,3.983-10.969,6.79-13.58,11.1-21.48,11.752-21.48C1028.138-893.937,1028.53-893.415,1028.726-892.827Zm154.216,15.017c-.261.653-2.807,4.374-5.68,8.357-2.873,3.917-11.883,16.453-20.044,27.748-14.364,19.914-14.886,20.567-17.171,20.762s-2.481.065-5.093-4.244c-1.436-2.416-4.375-7.117-6.464-10.316l-3.787-5.876,1.567-3c1.371-2.677,2.481-3.526,11.23-8.814,5.419-3.2,10.316-6.137,10.969-6.464,2.742-1.567,12.927-7.443,21.35-12.405,11.556-6.79,11.556-6.79,12.666-6.855C1183.007-878.92,1183.2-878.528,1182.942-877.81Zm3,29.054c.065,15.539.131,29.446.2,30.882.2,4.831-.392,7.574-1.893,8.227a12.846,12.846,0,0,0-2.481,1.371c-.849.588-2.155.522-6.2-.392-6.986-1.632-28.989-6.921-30.36-7.312a3.092,3.092,0,0,1-1.5-2.22c-.392-1.7.457-3.134,7.117-12.405,4.178-5.746,10.969-15.213,15.213-21.089,4.178-5.811,9.532-13.254,11.948-16.453,2.416-3.265,4.766-6.529,5.289-7.378C1185.684-879.377,1185.814-877.941,1185.945-848.756ZM989.878-862.467c12.8,3.33,13.385,3.526,14.56,5.484a5.623,5.623,0,0,0,2.416,2.416c.849.2,1.371,1.175,1.7,3.134.261,1.567.588,3.46.718,4.179,1.11,5.55,2.873,16.714,2.873,17.955a4.144,4.144,0,0,1-1.567,2.677,5.167,5.167,0,0,0-1.828,3.4c-.2,1.959-.914,2.546-10.512,8.357-9.794,5.941-12.144,6.855-13.189,5.158-.2-.327-1.371-5.158-2.677-10.9-1.24-5.68-3.46-15.474-4.9-21.742-4.962-22.068-4.766-20.762-3.069-22.2a7.427,7.427,0,0,1,1.828-1.306C976.428-865.862,982.566-864.36,989.878-862.467Zm34.016,13.319c9.206,5.419,11.752,7.247,12.079,8.553a4.213,4.213,0,0,1,.2,1.828c-2.873,2.155-9.075,6.529-13.123,9.271-4.766,3.265-5.223,3.46-6.268,2.546a3.965,3.965,0,0,0-1.893-1.045c-.914,0-.979-.2-3.33-14.364-1.7-10.381-1.828-11.556-.849-12.6a4.769,4.769,0,0,1,1.24-1.11C1012.077-856.069,1017.5-852.935,1023.894-849.148Zm82.919,3.526c6.529.327,10.838.849,10.969,1.306a4.323,4.323,0,0,0,3.722,2.612c1.044,0,1.959.718,3,2.416.784,1.371,3.787,6.072,6.594,10.512l5.093,7.965-.784,2.742c-.914,2.938.2,2.35-26.965,15.213-3.591,1.7-9.532,4.5-13.254,6.268-6.464,3.069-6.725,3.134-8.292,2.155-1.959-1.24-1.893.588-.914-27.683l.783-21.154,1.7-1.763c1.437-1.5,2.089-1.7,4.636-1.5C1094.734-846.406,1100.872-845.949,1106.813-845.622Zm-25.333.588a3.966,3.966,0,0,0,2.155,1.436c1.241.261,1.306.784,1.306,7.77,0,4.113-.2,12.209-.457,17.955s-.522,12.862-.522,15.8c0,4.113-.261,5.55-1.11,6.464-1.306,1.241.326,2.807-14.3-14.168-21.35-24.81-24.353-28.4-24.419-29.054-.065-2.089,1.828-2.807,9.793-3.852,4.505-.588,9.271-1.24,10.577-1.436,1.371-.2,4.7-.718,7.508-1.175C1079.2-846.471,1080.5-846.471,1081.48-845.034Zm-35.844,10.9c1.5,1.763,3.983,4.7,5.615,6.464,1.7,1.828,4.9,5.615,7.247,8.423s7.182,8.553,10.773,12.732c10.316,12.013,10.773,12.666,10.251,14.756-.457,1.632-1.436,2.089-11.556,5.55-6.137,2.089-16.976,5.876-24.157,8.357l-13.123,4.505-2.22-1.175c-1.241-.653-2.481-1.306-2.742-1.371-.522-.2-.979-2.22-6.66-28.6-2.873-12.993-3-14.168-2.089-16a24.929,24.929,0,0,0,1.306-3.069c.131-.588,3.33-3.2,7.052-5.876,11.687-8.292,11.36-8.1,14.625-7.965C1042.763-837.265,1043.22-837,1045.636-834.131Zm-34.473,14.625a2.575,2.575,0,0,0,1.893.653c1.371,0,1.632.588,3.264,8.292,1.893,9.01,4.244,19.848,6.333,29.185.783,3.721,1.045,6.072.588,6.529-.588.588-6.529-3.983-25.4-19.718l-8.88-7.378v-2.807l-.065-2.873,10.185-6.2c5.55-3.46,10.446-6.268,10.9-6.268A1.252,1.252,0,0,1,1011.163-819.506Zm136.065,5.223c1.306.326,6.007,1.5,10.512,2.546,23.962,5.615,23.5,5.484,23.9,7.051a7.9,7.9,0,0,0,2.481,3.134c2.22,1.7,2.22,1.959,4.7,17.433l1.11,6.986-1.5,1.241a3.735,3.735,0,0,0-1.436,3.33c.065,2.155,0,2.155-10.708,7.313-5.876,2.807-11.165,5.158-11.622,5.158a2.757,2.757,0,0,1-1.7-.914,3.684,3.684,0,0,0-2.089-1.175c-1.045-.131-2.416-3.264-7.443-17.171-12.732-34.93-11.948-32.514-10.773-34.081C1143.9-815.132,1144.094-815.132,1147.228-814.283Zm-10.577,7.313c-6.725,30.164-10.251,45.834-10.447,45.964a12.211,12.211,0,0,1-1.763.588c-1.436.326-3.656-1.306-16-11.556-7.9-6.594-15.67-12.927-17.171-14.1-2.024-1.632-2.742-2.677-2.742-3.983,0-2.024-1.045-1.371,15.343-9.271,31.144-14.951,31.209-15.017,32.58-13.646C1137.7-811.736,1137.7-811.54,1136.651-806.97Zm6.007,2.155c1.371,3.591,3.917,10.642,5.746,15.67s4.7,12.8,6.333,17.3c2.938,7.965,3.591,11.1,2.481,11.1-.327,0-.914.653-1.241,1.5-.718,1.5-1.175,1.567-12.666,2.35-11.23.784-12.079.718-12.666-.326a13.569,13.569,0,0,0-1.828-2.35c-1.11-1.175-.979-1.893,2.873-19,2.155-9.794,4.7-21.219,5.68-25.463.914-4.244,1.959-7.574,2.285-7.443C1139.98-811.41,1141.352-808.341,1142.657-804.816ZM997.582-793c5.289,4.375,12.993,10.642,17.041,13.907,5.811,4.766,7.312,6.268,6.986,7.247a4.3,4.3,0,0,0,.261,2.546c.588,1.045-.065,2.22-3.983,7.378-2.546,3.33-6.921,9.01-9.663,12.6s-6.855,8.945-9.075,11.948c-2.285,2.938-4.505,5.289-4.9,5.158-.718-.2-1.371-5.55-4.962-39.958-.783-7.574-1.828-16.976-2.285-20.893-.784-7.117-.718-8.422.392-8.031C987.658-800.964,992.294-797.307,997.582-793Zm83.833,5.615,1.893,1.436-.326,13.711c-.522,20.436-.718,21.742-2.807,22.721a6.22,6.22,0,0,0-2.546,2.481l-.783,1.632-13.254-.522-13.254-.522-1.5-1.959a4.7,4.7,0,0,0-3.069-1.893c-2.285,0-15.735-17.041-15.408-19.522.261-2.089.2-2.089,6.79-4.309,2.938-.979,9.467-3.265,14.494-5.093,10.12-3.591,27.292-9.6,27.618-9.6A17.888,17.888,0,0,1,1081.415-787.383Zm17.563,9.4c6.268,5.288,13.515,11.23,16,13.254,6.66,5.354,6.855,5.484,6.855,6.594,0,2.089-1.436,2.742-12.144,5.289-6.072,1.436-13.385,3.134-16.257,3.852-6.529,1.632-6.79,1.632-8.618-.065-1.436-1.371-1.436-1.763-1.175-9.336.2-4.375.457-12.275.653-17.694.261-8.292.457-9.924,1.436-10.577a4.506,4.506,0,0,1,1.436-.849C1087.357-787.514,1092.71-783.2,1098.978-777.981Zm90.754,11.426c0,.979-3.722,23.374-5.289,31.731-.588,3.526-.914,4.113-2.155,4.113-1.5,0-1.306.2-11.818-13.58-6.268-8.227-7.051-9.532-6.333-10.642a4.8,4.8,0,0,0,.783-2.22c0-.718,3.787-2.873,11.23-6.529,9.336-4.505,11.36-5.289,12.405-4.7A2.64,2.64,0,0,1,1189.732-766.555Zm-153.824,8.292c3.46,4.375,6.268,8.292,6.268,8.618a5.269,5.269,0,0,1-.588,1.828,10.151,10.151,0,0,0-.914,2.155c-.2.588-2.481,1.7-5.419,2.742-7.965,2.612-19.326,6.594-28.662,9.924-4.636,1.632-9.01,2.938-9.663,2.807-1.306-.2-1.959.784,18.281-25.986,7.639-10.055,7.7-10.12,10.642-10.446a9,9,0,0,1,3.4,0C1029.444-766.425,1032.447-762.7,1035.908-758.264Zm120.526,3.069c0,1.175,2.024,2.285,4.179,2.285,1.045,0,2.089.718,3.134,2.089.783,1.175,4.178,5.55,7.443,9.728,8.88,11.361,8.814,11.3,7.9,12.6-.718,1.045-1.763,1.045-15.147.065-32.253-2.22-30.686-2.024-31.666-3.917a5.333,5.333,0,0,0-2.612-2.155c-1.763-.653-1.763-.718-2.155-8.618l-.457-7.965,1.959-1.893c1.828-1.893,2.22-1.959,10.251-2.481C1153.365-756.37,1156.434-756.3,1156.434-755.195Zm-32.841,2.807,2.155,1.763.392,8.161c.392,7.574.326,8.227-.849,9.336-1.24,1.11-1.7.979-12.013-2.742-5.876-2.089-14.364-5.093-18.738-6.66-4.831-1.632-7.7-2.938-7.182-3.2.457-.261,5.288-1.567,10.642-2.873,5.419-1.306,12.732-3.069,16.323-3.917,3.591-.914,6.66-1.632,6.856-1.632A10.59,10.59,0,0,1,1123.593-752.388Zm-50.273,8.357c2.807.261,4.309.718,5.158,1.632a3.97,3.97,0,0,0,2.351,1.24c1.175,0,1.24.653.849,16.453-.392,17.041-.783,24.68-1.175,25.071-.131.2-1.241-1.175-2.481-2.938-2.481-3.526-21.807-30.034-25.333-34.669-2.807-3.722-3.591-5.484-3.069-6.855.327-.914,1.567-.979,9.99-.653C1064.962-744.553,1071.1-744.226,1073.319-744.03Zm-33.755,22.525c-12.079,50.665-11.491,48.445-12.666,48.054-.392-.131-2.742-3.591-5.288-7.77-2.481-4.113-5.811-9.467-7.378-11.818-1.567-2.416-6.464-10.251-10.9-17.5l-8.1-13.189,1.24-2.35c1.11-2.285,1.5-2.481,16.714-7.77,8.618-3,18.347-6.4,21.742-7.574l6.072-2.155,1.567,1.436,1.567,1.5Zm64.05-16.388c18.085,6.464,20.828,7.574,20.828,8.292-.065,1.371-1.893,2.873-29.576,23.766-13.058,9.924-12.927,9.924-12.536-1.567.2-4.374.457-13.646.653-20.632.326-11.948.392-12.666,1.763-14.168a7.669,7.669,0,0,1,1.893-1.567C1086.834-743.769,1094.473-741.092,1103.614-737.893Zm-46.748,8.553c5.027,6.856,10.708,14.56,12.536,17.106,9.271,12.666,9.6,13.254,7.639,14.886a2.822,2.822,0,0,0-.718,2.742c.261,1.763,0,1.959-5.027,4.374-6.594,3.069-25.463,12.209-33.559,16.127-5.615,2.742-6.2,2.873-7.117,1.959-1.24-1.24-1.306-1.045,4.375-24.288,2.089-8.618,5.158-21.481,6.855-28.6,1.632-7.051,3.134-13.385,3.4-14.037.522-1.371,1.5-2.742,2.089-2.742C1047.595-741.81,1051.9-736.2,1056.866-729.34Zm97.936,1.567c24.288,1.5,23.962,1.436,23.7,3.264-.13.914-4.9,6.4-12.013,13.842-6.464,6.725-13.319,13.907-15.213,15.931-3.4,3.656-3.46,3.721-5.811,3-1.306-.392-2.481-.718-2.547-.784-.2-.065-4.831-12.993-6.464-17.955-.588-1.632-2.024-5.811-3.33-9.271-2.22-6.268-2.285-6.333-1.045-8.031,1.045-1.5,1.5-1.632,4.113-1.371C1137.826-728.948,1146.183-728.361,1154.8-727.773Zm-26.7,1.893c1.045.326,2.024,2.024,3.787,6.594,1.306,3.4,2.35,6.4,2.35,6.66a35.848,35.848,0,0,0,1.241,3.787c.718,1.763,2.35,6.268,3.656,9.924,2.416,6.529,2.416,6.79,1.371,8.945-.783,1.632-.914,2.677-.457,3.852.588,1.567,0,2.22-11.034,11.426-10.185,8.422-11.948,9.663-13.646,9.4a6.266,6.266,0,0,0-3.2.457c-1.11.588-2.677-.718-13.776-11.948-13.972-14.037-14.56-14.756-13.711-16.127a4.867,4.867,0,0,0,.588-2.22c0-.979,2.22-3.069,7.247-6.855,3.983-3.069,12.862-9.859,19.718-15.147,6.986-5.419,12.993-9.532,13.515-9.4C1126.27-726.337,1127.38-726.075,1128.1-725.88ZM999.476-714.258c2.807,4.766,7.639,12.666,10.773,17.5,3.069,4.831,5.746,9.271,6.007,9.794s.849,1.567,1.24,2.22c7.182,11.034,7.965,12.8,6.333,13.776-.392.261-.588,1.567-.522,2.938l.2,2.546-10.381,8.357c-20.828,16.714-21.807,17.367-22.982,16.453-1.175-.979-1.11-3.134,1.11-42.7.653-12.209,1.436-26.116,1.7-30.882.2-4.7.653-8.618.849-8.618C994.057-722.876,996.6-718.959,999.476-714.258Zm183.531-7.051c.065.065.588,3.069,1.175,6.66.588,3.526,1.306,8.227,1.632,10.381.392,2.155.914,5.941,1.306,8.488.326,2.481,1.763,12.666,3.2,22.525s3.069,21.938,3.722,26.834l1.11,8.945-1.371,1.763a6.507,6.507,0,0,0-1.437,3,1.7,1.7,0,0,1-1.11,1.5c-5.289,1.567-20.436,5.811-24.614,6.921-4.636,1.24-5.223,1.24-6.268.326a3.88,3.88,0,0,0-1.828-.979c-1.436,0-1.306.392-5.027-19.914-.522-2.873-2.155-11.687-3.591-19.587s-2.807-15.278-3.069-16.453a4.607,4.607,0,0,1,.718-3.526,7.186,7.186,0,0,0,1.045-3.526c0-1.567,1.11-3.069,5.419-7.508,2.938-3.134,9.859-10.381,15.409-16.257,9.075-9.532,10.25-10.577,11.752-10.185A14.872,14.872,0,0,1,1183.007-721.309Zm-104.53,30.686c.2.457-.522,2.873-1.632,5.354-1.045,2.481-3.33,8.031-5.027,12.34-5.811,14.69-6.4,15.8-8.88,16.127a23.153,23.153,0,0,0-3.134.718c-1.306.588-27.748-11.426-27.748-12.6,0-1.045,9.924-6.137,38.848-19.848C1077.824-691.863,1078.02-691.929,1078.477-690.623Zm15.278,10.838c16.192,16.78,16.257,16.78,15.866,18.281-.392,1.436-.784,1.567-8.031,2.612-2.677.392-10.708,1.567-17.824,2.612-14.756,2.22-16.518,2.35-16.975.979-.392-.849,2.089-7.574,7.313-19.914,1.175-2.677,3-7.182,4.113-9.924,1.11-2.807,2.481-5.158,3.069-5.288.588-.2,1.175-.326,1.371-.392C1082.852-690.819,1087.879-685.857,1093.755-679.785Zm50.992-2.677c.261.2.914,3,1.567,6.268.588,3.2,1.5,7.77,1.959,10.12.392,2.35,1.763,9.4,2.873,15.67,1.175,6.268,2.677,14.233,3.33,17.628.849,4.7.979,6.4.392,6.986-.849.914.131,1.763-21.35-18.477L1118.7-658.173l.13-2.938c.065-3.2-1.306-1.828,16.649-17.171C1141.482-683.376,1143.115-684.159,1144.747-682.462ZM1039.3-663.07c3.591,1.632,7.378,3.4,8.488,3.852,10.838,4.9,10.512,4.636,10.969,6.921a6.078,6.078,0,0,0,1.763,3.265c1.306.979,1.306,1.045-2.22,9.794-3.4,8.422-9.467,22.982-11.23,27.03-.457,1.045-1.371,3.2-1.959,4.7-.849,2.22-1.436,2.807-2.612,2.807-.849,0-1.763.261-1.959.653a1.874,1.874,0,0,1-1.436.653c-.588,0-11.491-6.986-24.157-15.474-22.2-14.886-23.047-15.539-23.047-17.5,0-2.22-.718-1.567,17.89-16.323,3.656-2.873,8.488-6.725,10.773-8.553,3.656-3,4.374-3.33,6.529-3.069,1.7.261,2.677,0,3.265-.718C1031.6-666.531,1032.121-666.4,1039.3-663.07Zm70.775,4.9c0,.914-15.017,20.893-15.931,21.154a23.313,23.313,0,0,1-3.46.522c-2.612.327-3.134,0-12.732-6.79-6.072-4.309-9.989-7.574-9.989-8.227,0-.914,2.416-1.436,16-3.526,8.814-1.306,17.759-2.677,19.913-3.069C1109.294-658.957,1110.078-659.022,1110.078-658.173Zm15.539,8.618c24.941,23.5,26.965,25.463,26.312,26.116-.392.392-4.766-.065-12.6-1.436-6.594-1.11-18.412-3.069-26.312-4.374-7.9-1.241-15.017-2.416-15.735-2.612a2.158,2.158,0,0,1-1.7-1.763c-.261-1.241,1.5-3.983,7.7-12.275l8.031-10.708,3.33-.065,3.33-.065Zm-51.122,5.484c3.852,2.807,7.639,5.484,8.357,6.007,3.526,2.35,4.113,3.2,3.852,5.745-.261,2.807,1.632,1.371-24.81,18.738-15.539,10.251-16.453,10.773-16.453,9.532,0-.653,11.23-28.336,16.453-40.545,1.175-2.742,2.873-4.375,4.832-4.44C1067.116-649.1,1070.642-646.813,1074.494-644.071Zm-69.534,19.979c6.986,4.636,13.776,9.206,15.017,10.055,1.24.914,5.093,3.526,8.488,5.811,8.684,5.811,9.6,6.66,10.055,9.794.392,2.612.261,2.742-8.814,14.037-5.093,6.268-10.446,12.927-11.948,14.756-2.089,2.677-2.938,3.33-3.983,3.069a6.314,6.314,0,0,1-1.763-.849c-.2-.2-2.024-5.223-3.983-11.165s-6.856-20.371-10.9-32.188c-3.983-11.752-7.051-21.676-6.855-22C990.792-633.559,989.486-634.343,1004.96-624.092Zm106.423-4.113c9.467,1.5,28.728,4.7,37.672,6.2,2.35.392,5.093,4.244,4.57,6.464-.327,1.5-10.577,26.573-11.622,28.6a2.83,2.83,0,0,1-2.546,1.175,4.222,4.222,0,0,0-3.918,3.983c0,.718-.979,1.306-3.068,1.893-1.763.457-3.983,1.045-5.093,1.371-2.481.718-11.622,3.33-17.628,5.027-2.481.718-7.247,1.959-10.577,2.742l-6.007,1.436-1.632-1.828a4.787,4.787,0,0,1-1.371-3.526c.261-1.567,1.11-18.281,2.22-42.243.392-9.859.522-10.708,1.959-12.209a3.513,3.513,0,0,1,3.591-1.306C1099.043-630.229,1105.116-629.25,1111.383-628.205Zm83.115-.784c1.045,1.11.849,1.893-2.481,12.275-6.921,21.415-6.4,20.175-8.749,20.371-1.893.2-2.546-.261-5.876-3.917-2.089-2.285-5.484-6.2-7.639-8.684-2.089-2.546-4.9-5.745-6.268-7.182-2.807-3-3.134-4.7-.979-5.484.783-.326,6.594-1.959,12.862-3.656s12.6-3.46,14.037-3.917C1192.931-630.36,1193.258-630.36,1194.5-628.989Zm-104.2.784c.914,0,.979,1.436.588,12.862-.522,15.6-1.567,36.106-2.089,39.827-.261,2.155-.653,2.742-1.894,3.069a4.767,4.767,0,0,0-2.546,2.285l-.979,1.828-14.1.457-14.1.457-1.567-1.632a5.29,5.29,0,0,0-2.807-1.7c-1.371,0-1.5-.457-3.983-11.1-2.807-12.079-2.938-13.646-1.7-15.017a8.776,8.776,0,0,0,1.567-3.33c.326-1.763,2.155-3.134,15.082-11.752,8.1-5.354,15.147-9.924,15.67-10.185s3-1.893,5.55-3.591c2.481-1.763,4.962-3,5.419-2.807A6.41,6.41,0,0,0,1090.295-628.205Zm73.778,14.821c2.155,2.481,6.072,6.921,8.684,9.99s5.354,6.2,6.072,6.986c1.893,2.089.979,3.852-2.677,5.027-5.289,1.7-30.36,8.227-31.47,8.227-1.959,0-1.045-3.591,4.244-16.845,6.333-15.866,6.856-16.91,8.945-17.3a17.064,17.064,0,0,0,1.893-.392A28.907,28.907,0,0,1,1164.073-613.384Zm-121.636,18.412c.457.718,3.983,17.041,4.57,21.089.392,2.351.2,3.526-.653,4.9-.653.979-1.24,1.893-1.24,1.959-.065.131-4.309.784-9.532,1.5-5.158.718-10.969,1.632-12.927,1.959-3,.522-3.722.457-4.766-.457a3.478,3.478,0,0,1-1.175-1.632c0-.457,6.072-8.227,12.862-16.518.914-1.11,3.722-4.505,6.268-7.639C1040.282-595.234,1041.653-596.278,1042.437-594.972Zm94.41,16.714c.588.718-.131,3.656-3.983,14.821-2.612,7.639-4.962,14.233-5.289,14.625a5.784,5.784,0,0,1-2.938,1.11c-2.612.457-1.828.914-21.807-12.144-5.419-3.526-9.728-6.725-9.6-7.117.326-.914,2.285-1.567,16.845-5.354,6.268-1.7,14.364-3.917,17.955-4.9C1135.8-579.5,1135.8-579.5,1136.847-578.258Zm-52.232,12.47a4.689,4.689,0,0,0,5.811,1.567c2.35-.718,2.546-.653,7.574,2.742,2.873,1.893,9.271,6.072,14.234,9.271,8.422,5.419,8.945,5.876,8.945,7.835v2.089l-8.618,2.677c-9.859,3.069-38.26,11.818-47.4,14.56l-6.072,1.828-2.155-1.371c-2.481-1.632-2.612-2.089-4.9-24.941l-1.24-11.752,1.5-1.306a7.828,7.828,0,0,0,1.828-2.416c.457-1.175,2.611-1.371,21.415-1.7C1082.329-566.832,1083.961-566.637,1084.614-565.788Zm-37.673,2.481c2.873,2.546,2.612,1.306,4.636,21.611l1.567,15.017-2.285,2.22-2.285,2.22-15.8-.457c-39.762-1.045-40.284-1.11-41-2.742-.783-1.7-1.371-.718,11.361-19.848,7.443-11.23,8.161-12.079,10.185-12.275,1.828-.2,3.069-1.241,4.374-3.852.065-.131,3.461-.653,7.574-1.241,7.247-1.045,18.216-2.612,18.869-2.742A12.169,12.169,0,0,1,1046.942-563.307Z" transform="translate(-967.264 989.752)" fill="#FFFDFD" />
</svg>
