  <svg xmlns="http://www.w3.org/2000/svg" viewBox="0 0 27.175 36.432">
    <g fill="#E8E7E1">
      <path
        d="M1.709 31.89v3.494h23.757V31.89H1.709M.661 30.842h25.854v5.59H.661z" />
      <path d="M1.049 30.841H.001V2.005h1.048z" />
      <path d="M1.748 2.005H.7v-.974h1.048z" />
      <path d="M10.831 16.295H9.783V15.27h1.048z" />
      <path d="M14.325 13.982h-1.048V7.355h1.048z" />
      <path d="M10.132 9.661H9.084v-2.3h1.048z" />
      <path d="M17.819 9.661h-1.048v-2.3h1.048z" />
      <path d="M12.357 13.977v-1.048h1.781v1.048z" />
      <path d="M17.12 16.295h-1.048V15.27h1.048z" />
      <path d="M3.844 19.638H2.796V3.865h1.048z" />
      <path d="M24.107 19.638h-1.048V3.865h1.048z" />
      <path d="M26.204 2.005h-1.048V.93h1.048z" />
      <path d="M3.828 3.843V2.795h19.445v1.048z" />
      <path d="M1.725 1.048V0h23.658v1.048z" />
      <path d="M3.828 20.613v-1.048h19.445v1.048z" />
      <path d="M16.427 26.902v-1.048h6.846v1.048z" />
      <path d="M3.151 27.601v-1.048h2.521v1.048z" />
      <path d="M10.654 17.12v-1.048h5.541v1.048z" />
      <path d="M27.176 30.842h-1.048V2.005h1.048z" />
    </g>
  </svg>