  <svg xmlns="http://www.w3.org/2000/svg" viewBox="0 0 31.56 25.703">
    <path fill="#E8E7E1" d="M-4314.535-9462.748h7.845v-2.016h-1.974v-1.925h-1.937v-2.013h-2.052v-4.059h-1.883v-5.893h1.883v2.023h2.052v2.011h3.91v1.858h4.023v-3.869h1.895v-3.942h1.969v1.919h5.925v2.023h2.052v2.011h1.881v3.91h1.919v2.007h2.1v2.013h-4.015v3.94h-1.881v1.826h-2.052v2.019h-3.96v2.16h-11.826v-2.16h-3.988v-2.019h-1.883Z" transform="translate(4316.49 9482.446)" />
    <rect fill="#E8E7E1" width="1.937" height="1.937" transform="translate(0 17.628)" />
    <rect fill="#E8E7E1" width="3.913" height="1.858" transform="translate(17.747 0)" />
    <rect fill="#E8E7E1" width="2.016" height="1.937" transform="translate(29.446 9.802)" />
    <rect fill="#E8E7E1" width="2.016" height="1.937" transform="translate(21 8)" />
  </svg>