<?xml version="1.0" encoding="utf-8"?>
<!-- Generator: Adobe Illustrator 26.0.2, SVG Export Plug-In . SVG Version: 6.00 Build 0)  -->
<svg version="1.1" id="Layer_1" xmlns="http://www.w3.org/2000/svg" xmlns:xlink="http://www.w3.org/1999/xlink" x="0px" y="0px"
	 viewBox="0 0 200 200" style="enable-background:new 0 0 200 200;" xml:space="preserve">
<style type="text/css">
	.st0{fill:#010101;}
</style>
<g>
	<g>
		<g id="search_00000112598952551476260310000013894284383860236694_">
			<path class="st0" d="M94.4,137.4c24.2,0,43.9-19.6,43.9-43.9s-19.6-43.9-43.9-43.9S50.5,69.3,50.5,93.5S70.2,137.4,94.4,137.4z
				 M94.4,62.2c17.3,0,31.3,14,31.3,31.3s-14,31.3-31.3,31.3s-31.3-14-31.3-31.3S77.1,62.2,94.4,62.2z"/>
			<path class="st0" d="M144.6,149.9c1.7,0,3.3-0.6,4.4-1.8c2.5-2.4,2.5-6.4,0-8.9c0,0,0,0,0,0l-23.6-23.6c-2.5-2.5-6.6-2.4-9.1,0.2
				c-2.5,2.5-2.4,6.6,0.2,9.1l23.6,23.3C141.3,149.3,142.9,149.9,144.6,149.9L144.6,149.9z"/>
		</g>
	</g>
</g>
</svg>
