<svg xmlns="http://www.w3.org/2000/svg" width="46.883" height="37.886" viewBox="0 0 46.883 37.886" class="svg-twitter" data-v-21bfbc70="" data-v-93152294="" data-v-b99f8496=""><path d="M13.576,59.523v-.007A26.421,26.421,0,0,1-.756,55.322l.549-1.528a17.648,17.648,0,0,0,2.058.125,17.35,17.35,0,0,0,9.009-2.513,9.9,9.9,0,0,1-7.017-6.573l-.431-1.339,1.381.266q.149.029.3.052A9.882,9.882,0,0,1,.626,35.544V34.011l1.239.69a8.123,8.123,0,0,0,.97.459,9.906,9.906,0,0,1-.789-11.106l.606-1.043.761.936A24.877,24.877,0,0,0,20.43,33.029a9.9,9.9,0,0,1,13.836-10.2,9.816,9.816,0,0,1,2.874,1.936,17.265,17.265,0,0,0,5.052-2.006l1.893-1.123-.675,2.1a9.917,9.917,0,0,1-1.792,3.273A17.269,17.269,0,0,0,43.5,26.3l2.627-1.164-1.6,2.388a19.188,19.188,0,0,1-4.358,4.63c.007.259.007.515.007.766a27.035,27.035,0,0,1-1.737,9.368,27.413,27.413,0,0,1-5.109,8.556A25.209,25.209,0,0,1,24.98,57.1,26.921,26.921,0,0,1,13.576,59.523Zm0-1.674v.007a25.268,25.268,0,0,0,10.7-2.266,23.554,23.554,0,0,0,7.8-5.848,25.753,25.753,0,0,0,4.8-8.038,25.352,25.352,0,0,0,1.631-8.783c0-.388,0-.754-.025-1.114l-.031-.461.374-.271A17.563,17.563,0,0,0,41.4,28.8a18.883,18.883,0,0,1-2.67.512l-.526-1.542a8.253,8.253,0,0,0,2.584-2.437,18.94,18.94,0,0,1-3.764,1.158l-.452.089-.316-.336a8.233,8.233,0,0,0-14.016,7.5l.25,1.076-1.1-.055a26.542,26.542,0,0,1-18.433-8.79A8.232,8.232,0,0,0,6.033,35.87l2.414,1.611-2.9-.086a9.861,9.861,0,0,1-3.16-.623,8.225,8.225,0,0,0,6.5,6.833l.054,1.62a9.931,9.931,0,0,1-3,.339,8.235,8.235,0,0,0,7.17,4.47l2.337.044-1.838,1.444A19.01,19.01,0,0,1,3.1,55.545,24.76,24.76,0,0,0,13.575,57.849Z" transform="translate(0.756 -21.637)" fill="#060517" data-v-21bfbc70=""></path></svg>