<svg width="92" height="29" viewBox="0 0 92 29" fill="none" xmlns="http://www.w3.org/2000/svg">
<g clip-path="url(#clip0_97_11049)">
<rect x="1" y="1.25635" width="90" height="26" stroke="#E8E7E1" stroke-width="2"/>
<path d="M13.98 21.2563V11.1763H17.942C18.5813 11.1763 19.118 11.307 19.552 11.5683C19.986 11.8297 20.3127 12.168 20.532 12.5833C20.7513 12.994 20.861 13.428 20.861 13.8853C20.861 14.4407 20.7233 14.9167 20.448 15.3133C20.1773 15.71 19.811 15.9807 19.349 16.1253L19.335 15.7823C19.979 15.941 20.4737 16.2513 20.819 16.7133C21.1643 17.1707 21.337 17.705 21.337 18.3163C21.337 18.909 21.218 19.4247 20.98 19.8633C20.7467 20.302 20.4037 20.645 19.951 20.8923C19.503 21.135 18.9593 21.2563 18.32 21.2563H13.98ZM15.464 19.8633H18.096C18.4273 19.8633 18.7237 19.8003 18.985 19.6743C19.251 19.5483 19.4587 19.3687 19.608 19.1353C19.762 18.8973 19.839 18.615 19.839 18.2883C19.839 17.985 19.7713 17.712 19.636 17.4693C19.5053 17.222 19.314 17.0283 19.062 16.8883C18.8147 16.7437 18.523 16.6713 18.187 16.6713H15.464V19.8633ZM15.464 15.2923H17.921C18.1917 15.2923 18.4343 15.2387 18.649 15.1313C18.8683 15.0193 19.041 14.8607 19.167 14.6553C19.2977 14.4453 19.363 14.1933 19.363 13.8993C19.363 13.5073 19.2323 13.1853 18.971 12.9333C18.7097 12.6813 18.3597 12.5553 17.921 12.5553H15.464V15.2923ZM22.73 21.2563V11.1763H29.17V12.5553H24.193V15.3833H28.33V16.7623H24.193V19.8773H29.17V21.2563H22.73ZM34.5503 21.4663C33.8736 21.4663 33.2506 21.3497 32.6813 21.1163C32.1119 20.8783 31.6173 20.533 31.1973 20.0803C30.7773 19.6277 30.4506 19.077 30.2173 18.4283C29.9839 17.7797 29.8673 17.0423 29.8673 16.2163C29.8673 15.129 30.0656 14.1957 30.4623 13.4163C30.8589 12.6323 31.4096 12.0303 32.1143 11.6103C32.8189 11.1857 33.6309 10.9733 34.5503 10.9733C35.7356 10.9733 36.6806 11.2487 37.3853 11.7993C38.0946 12.35 38.5776 13.1107 38.8343 14.0813L37.3503 14.3473C37.1449 13.7453 36.8136 13.2647 36.3563 12.9053C35.8989 12.546 35.3249 12.364 34.6343 12.3593C33.9203 12.3547 33.3253 12.5133 32.8493 12.8353C32.3779 13.1573 32.0233 13.61 31.7853 14.1933C31.5473 14.772 31.4259 15.4463 31.4213 16.2163C31.4166 16.9863 31.5333 17.6607 31.7713 18.2393C32.0093 18.8133 32.3663 19.2613 32.8423 19.5833C33.3229 19.9053 33.9203 20.0687 34.6343 20.0733C35.2083 20.0827 35.7006 19.9777 36.1113 19.7583C36.5266 19.5343 36.8556 19.2077 37.0983 18.7783C37.3409 18.349 37.4973 17.8217 37.5673 17.1963H35.6073V16.0203H39.1213C39.1306 16.1043 39.1376 16.2163 39.1423 16.3563C39.1469 16.4917 39.1493 16.578 39.1493 16.6153C39.1493 17.5487 38.9696 18.3817 38.6103 19.1143C38.2509 19.847 37.7283 20.4233 37.0423 20.8433C36.3563 21.2587 35.5256 21.4663 34.5503 21.4663ZM40.6845 21.2563V11.1763H42.1475V21.2563H40.6845ZM44.2495 21.2563V11.1763H45.7335L50.6965 18.6663V11.1763H52.1805V21.2563H50.6965L45.7335 13.7593V21.2563H44.2495ZM54.1343 21.2563V11.1763H55.6183L60.5813 18.6663V11.1763H62.0653V21.2563H60.5813L55.6183 13.7593V21.2563H54.1343ZM64.0191 21.2563V11.1763H70.4591V12.5553H65.4821V15.3833H69.6191V16.7623H65.4821V19.8773H70.4591V21.2563H64.0191ZM72.1402 21.2563V11.1763H76.2142C76.3122 11.1763 76.4335 11.181 76.5782 11.1903C76.7228 11.195 76.8605 11.209 76.9912 11.2323C77.5512 11.321 78.0178 11.5123 78.3912 11.8063C78.7692 12.1003 79.0515 12.4713 79.2382 12.9193C79.4248 13.3673 79.5182 13.862 79.5182 14.4033C79.5182 15.206 79.3128 15.899 78.9022 16.4823C78.4915 17.061 77.8755 17.4227 77.0542 17.5673L76.4592 17.6373H73.6032V21.2563H72.1402ZM78.0342 21.2563L76.0462 17.1543L77.5232 16.7763L79.7072 21.2563H78.0342ZM73.6032 16.2513H76.1582C76.2515 16.2513 76.3542 16.2467 76.4662 16.2373C76.5828 16.228 76.6925 16.2117 76.7952 16.1883C77.0938 16.1183 77.3342 15.99 77.5162 15.8033C77.6982 15.612 77.8288 15.3927 77.9082 15.1453C77.9875 14.898 78.0272 14.6507 78.0272 14.4033C78.0272 14.156 77.9875 13.911 77.9082 13.6683C77.8288 13.421 77.6982 13.204 77.5162 13.0173C77.3342 12.826 77.0938 12.6953 76.7952 12.6253C76.6925 12.5973 76.5828 12.5787 76.4662 12.5693C76.3542 12.56 76.2515 12.5553 76.1582 12.5553H73.6032V16.2513Z" fill="#E8E7E1"/>
</g>
<defs>
<clipPath id="clip0_97_11049">
<rect width="92" height="28" fill="white" transform="translate(0 0.256348)"/>
</clipPath>
</defs>
</svg>
