<svg width="233" height="30" viewBox="0 0 233 30" fill="none" xmlns="http://www.w3.org/2000/svg">
<g clip-path="url(#clip0_126_3359)">
<path d="M5.958 22.27C5.028 22.27 4.188 22.111 3.438 21.793C2.694 21.469 2.079 21.01 1.593 20.416C1.113 19.816 0.801 19.105 0.657 18.283L2.619 17.986C2.817 18.778 3.231 19.396 3.861 19.84C4.491 20.278 5.226 20.497 6.066 20.497C6.588 20.497 7.068 20.416 7.506 20.254C7.944 20.086 8.295 19.849 8.559 19.543C8.829 19.231 8.964 18.859 8.964 18.427C8.964 18.193 8.922 17.986 8.838 17.806C8.76 17.626 8.649 17.47 8.505 17.338C8.367 17.2 8.196 17.083 7.992 16.987C7.794 16.885 7.575 16.798 7.335 16.726L4.014 15.745C3.69 15.649 3.36 15.526 3.024 15.376C2.688 15.22 2.379 15.019 2.097 14.773C1.821 14.521 1.596 14.212 1.422 13.846C1.248 13.474 1.161 13.024 1.161 12.496C1.161 11.698 1.365 11.023 1.773 10.471C2.187 9.913 2.745 9.493 3.447 9.211C4.149 8.923 4.935 8.779 5.805 8.779C6.681 8.791 7.464 8.947 8.154 9.247C8.85 9.547 9.426 9.979 9.882 10.543C10.344 11.101 10.662 11.779 10.836 12.577L8.82 12.919C8.73 12.433 8.538 12.016 8.244 11.668C7.95 11.314 7.59 11.044 7.164 10.858C6.738 10.666 6.276 10.567 5.778 10.561C5.298 10.549 4.857 10.621 4.455 10.777C4.059 10.933 3.741 11.152 3.501 11.434C3.267 11.716 3.15 12.04 3.15 12.406C3.15 12.766 3.255 13.057 3.465 13.279C3.675 13.501 3.933 13.678 4.239 13.81C4.551 13.936 4.86 14.041 5.166 14.125L7.56 14.8C7.86 14.884 8.199 14.998 8.577 15.142C8.961 15.28 9.33 15.475 9.684 15.727C10.044 15.979 10.341 16.315 10.575 16.735C10.809 17.149 10.926 17.671 10.926 18.301C10.926 18.955 10.794 19.531 10.53 20.029C10.266 20.521 9.903 20.935 9.441 21.271C8.985 21.601 8.457 21.85 7.857 22.018C7.257 22.186 6.624 22.27 5.958 22.27ZM20.206 22V17.221C20.206 16.843 20.173 16.456 20.107 16.06C20.047 15.658 19.927 15.286 19.747 14.944C19.573 14.602 19.324 14.326 19 14.116C18.682 13.906 18.265 13.801 17.749 13.801C17.413 13.801 17.095 13.858 16.795 13.972C16.495 14.08 16.231 14.257 16.003 14.503C15.781 14.749 15.604 15.073 15.472 15.475C15.346 15.877 15.283 16.366 15.283 16.942L14.113 16.501C14.113 15.619 14.278 14.842 14.608 14.17C14.938 13.492 15.412 12.964 16.03 12.586C16.648 12.208 17.395 12.019 18.271 12.019C18.943 12.019 19.507 12.127 19.963 12.343C20.419 12.559 20.788 12.844 21.07 13.198C21.358 13.546 21.577 13.927 21.727 14.341C21.877 14.755 21.979 15.16 22.033 15.556C22.087 15.952 22.114 16.3 22.114 16.6V22H20.206ZM13.375 22V9.04H15.058V16.033H15.283V22H13.375ZM27.7432 22.27C27.0232 22.27 26.4202 22.138 25.9342 21.874C25.4482 21.604 25.0792 21.25 24.8272 20.812C24.5812 20.368 24.4582 19.882 24.4582 19.354C24.4582 18.862 24.5452 18.43 24.7192 18.058C24.8932 17.686 25.1512 17.371 25.4932 17.113C25.8352 16.849 26.2552 16.636 26.7532 16.474C27.1852 16.348 27.6742 16.237 28.2202 16.141C28.7662 16.045 29.3392 15.955 29.9392 15.871C30.5452 15.787 31.1452 15.703 31.7392 15.619L31.0552 15.997C31.0672 15.235 30.9052 14.671 30.5692 14.305C30.2392 13.933 29.6692 13.747 28.8592 13.747C28.3492 13.747 27.8812 13.867 27.4552 14.107C27.0292 14.341 26.7322 14.731 26.5642 15.277L24.8092 14.737C25.0492 13.903 25.5052 13.24 26.1772 12.748C26.8552 12.256 27.7552 12.01 28.8772 12.01C29.7472 12.01 30.5032 12.16 31.1452 12.46C31.7932 12.754 32.2672 13.222 32.5672 13.864C32.7232 14.182 32.8192 14.518 32.8552 14.872C32.8912 15.226 32.9092 15.607 32.9092 16.015V22H31.2442V19.777L31.5682 20.065C31.1662 20.809 30.6532 21.364 30.0292 21.73C29.4112 22.09 28.6492 22.27 27.7432 22.27ZM28.0762 20.731C28.6102 20.731 29.0692 20.638 29.4532 20.452C29.8372 20.26 30.1462 20.017 30.3802 19.723C30.6142 19.429 30.7672 19.123 30.8392 18.805C30.9412 18.517 30.9982 18.193 31.0102 17.833C31.0282 17.473 31.0372 17.185 31.0372 16.969L31.6492 17.194C31.0552 17.284 30.5152 17.365 30.0292 17.437C29.5432 17.509 29.1022 17.581 28.7062 17.653C28.3162 17.719 27.9682 17.8 27.6622 17.896C27.4042 17.986 27.1732 18.094 26.9692 18.22C26.7712 18.346 26.6122 18.499 26.4922 18.679C26.3782 18.859 26.3212 19.078 26.3212 19.336C26.3212 19.588 26.3842 19.822 26.5102 20.038C26.6362 20.248 26.8282 20.416 27.0862 20.542C27.3442 20.668 27.6742 20.731 28.0762 20.731ZM35.7862 22V12.28H37.4602V14.638L37.2262 14.332C37.3462 14.02 37.5022 13.735 37.6942 13.477C37.8862 13.213 38.1082 12.997 38.3602 12.829C38.6062 12.649 38.8792 12.511 39.1792 12.415C39.4852 12.313 39.7972 12.253 40.1152 12.235C40.4332 12.211 40.7392 12.226 41.0332 12.28V14.044C40.7152 13.96 40.3612 13.936 39.9712 13.972C39.5872 14.008 39.2332 14.131 38.9092 14.341C38.6032 14.539 38.3602 14.779 38.1802 15.061C38.0062 15.343 37.8802 15.658 37.8022 16.006C37.7242 16.348 37.6852 16.711 37.6852 17.095V22H35.7862ZM47.4224 22.27C46.4564 22.27 45.6074 22.06 44.8754 21.64C44.1494 21.214 43.5824 20.623 43.1744 19.867C42.7724 19.105 42.5714 18.223 42.5714 17.221C42.5714 16.159 42.7694 15.238 43.1654 14.458C43.5674 13.678 44.1254 13.075 44.8394 12.649C45.5534 12.223 46.3844 12.01 47.3324 12.01C48.3224 12.01 49.1654 12.241 49.8614 12.703C50.5574 13.159 51.0764 13.81 51.4184 14.656C51.7664 15.502 51.9044 16.507 51.8324 17.671H49.9514V16.987C49.9394 15.859 49.7234 15.025 49.3034 14.485C48.8894 13.945 48.2564 13.675 47.4044 13.675C46.4624 13.675 45.7544 13.972 45.2804 14.566C44.8064 15.16 44.5694 16.018 44.5694 17.14C44.5694 18.208 44.8064 19.036 45.2804 19.624C45.7544 20.206 46.4384 20.497 47.3324 20.497C47.9204 20.497 48.4274 20.365 48.8534 20.101C49.2854 19.831 49.6214 19.447 49.8614 18.949L51.7064 19.534C51.3284 20.404 50.7554 21.079 49.9874 21.559C49.2194 22.033 48.3644 22.27 47.4224 22.27ZM43.9574 17.671V16.204H50.8964V17.671H43.9574Z" fill="white"/>
<path d="M132.022 23.9594V23.9563C129.883 23.959 127.8 23.3498 126 22.1944L126.231 21.5523C126.516 21.5865 126.807 21.6042 127.096 21.6048C127.909 21.6052 128.712 21.4713 129.481 21.2056C129.972 21.0362 130.44 20.8163 130.881 20.5487C129.508 20.2048 128.379 19.1752 127.932 17.787L127.751 17.2243L128.332 17.3361C128.374 17.3441 128.416 17.3514 128.458 17.3579C128.106 17.1275 127.79 16.8441 127.521 16.5157C126.915 15.7754 126.581 14.8407 126.581 13.884V13.24L127.101 13.53C127.233 13.6032 127.369 13.6676 127.509 13.7228C127.132 13.2465 126.863 12.6894 126.722 12.0844C126.482 11.0499 126.644 9.97445 127.177 9.05617L127.432 8.61785L127.752 9.01122C128.214 9.58057 128.739 10.1023 129.31 10.562C129.875 11.0168 130.49 11.4137 131.137 11.7419C131.784 12.07 132.468 12.3312 133.169 12.5183C133.736 12.6696 134.317 12.7731 134.902 12.8273C134.837 12.2627 134.887 11.6879 135.053 11.1416C135.263 10.4459 135.654 9.81499 136.184 9.31705C136.593 8.93249 137.065 8.63946 137.587 8.44608C138.092 8.25936 138.621 8.17309 139.161 8.18966C139.701 8.20623 140.224 8.32481 140.716 8.54211C141.165 8.74042 141.57 9.01358 141.923 9.35547C142.671 9.18807 143.385 8.90493 144.046 8.51258L144.842 8.04053L144.558 8.92099C144.395 9.4272 144.138 9.893 143.805 10.2964C144.073 10.2132 144.337 10.1141 144.596 9.99972L145.699 9.51074L145.028 10.5143C144.528 11.2627 143.913 11.9165 143.197 12.4598C143.2 12.5687 143.2 12.6762 143.2 12.7816C143.2 14.0813 142.948 15.4424 142.47 16.7176C141.969 18.0551 141.247 19.2647 140.323 20.3127C139.331 21.4386 138.15 22.3233 136.814 22.9423C135.357 23.6172 133.745 23.9594 132.022 23.9594ZM132.022 23.2562L132.022 23.6073V23.2593C133.643 23.2593 135.156 22.9389 136.52 22.3071C137.767 21.7291 138.87 20.9023 139.798 19.8498C140.665 18.866 141.344 17.7296 141.815 16.4722C142.263 15.2746 142.5 13.9984 142.5 12.7816C142.5 12.6186 142.5 12.4648 142.49 12.3134L142.476 12.1198L142.634 12.006C143.026 11.722 143.388 11.4027 143.715 11.0509C143.347 11.1494 142.972 11.2213 142.593 11.2661L142.372 10.6181C142.807 10.3574 143.176 10.0071 143.457 9.59434C142.95 9.81052 142.421 9.97336 141.876 10.0808L141.686 10.1182L141.553 9.97714C140.92 9.30406 140.063 8.91776 139.139 8.88942C138.216 8.86106 137.337 9.19406 136.664 9.82705C136.223 10.2412 135.898 10.7659 135.723 11.3445C135.547 11.923 135.527 12.5401 135.664 13.1291L135.769 13.581L135.305 13.5578C134.523 13.5185 133.744 13.3964 132.988 13.1947C132.24 12.9951 131.511 12.7164 130.82 12.3663C130.13 12.0162 129.474 11.5926 128.871 11.1074C128.402 10.73 127.963 10.3134 127.56 9.86459C127.3 10.5163 127.243 11.2324 127.404 11.9262C127.604 12.7866 128.118 13.5305 128.853 14.0209L129.867 14.698L128.648 14.6619C128.195 14.6485 127.745 14.5592 127.32 14.4002C127.413 15.0107 127.669 15.5909 128.063 16.0723C128.567 16.688 129.274 17.1138 130.053 17.2714L130.076 17.9522C129.667 18.0638 129.239 18.1115 128.815 18.0945C129.39 19.2137 130.54 19.9485 131.828 19.9726L132.809 19.991L132.037 20.5978C131.336 21.149 130.553 21.5762 129.71 21.8674C129.032 22.1012 128.332 22.2422 127.62 22.2882C128.994 22.9265 130.492 23.2581 132.022 23.2562Z" fill="white"/>
<path d="M101.001 14.852C101.001 13.6728 100.045 12.717 98.8662 12.717C98.2757 12.717 97.7422 12.9577 97.3558 13.3453C96.1619 12.5753 94.6365 12.0845 92.9613 12.008C92.9623 11.2967 93.2809 10.6336 93.8358 10.1884C94.3918 9.74252 95.1097 9.57551 95.8052 9.72997L95.9007 9.75118C95.8997 9.77512 95.8971 9.79858 95.8971 9.82275C95.8971 10.807 96.695 11.605 97.6793 11.605C98.6636 11.605 99.4615 10.807 99.4615 9.82275C99.4615 8.83842 98.6636 8.04053 97.6793 8.04053C97.0464 8.04053 96.492 8.37137 96.1758 8.86857L96.005 8.83063C95.0352 8.61516 94.0344 8.84812 93.2594 9.46984C92.4853 10.0908 92.0411 11.0158 92.0401 12.008C90.3652 12.0845 88.8402 12.575 87.6464 13.3447C87.2599 12.957 86.7256 12.7169 86.135 12.7169C84.9559 12.717 84 13.6728 84 14.852C84 15.6735 84.4649 16.3853 85.1452 16.7422C85.0936 17.0065 85.0664 17.2767 85.0664 17.5518C85.0664 20.6195 88.3948 23.1064 92.5006 23.1064C96.6064 23.1064 99.9348 20.6195 99.9348 17.5518C99.9348 17.2769 99.9076 17.0068 99.8561 16.7426C100.536 16.3856 101.001 15.6736 101.001 14.852ZM97.6793 8.96179C98.1541 8.96179 98.5403 9.34802 98.5403 9.82279C98.5403 10.2975 98.1541 10.6838 97.6793 10.6838C97.2045 10.6838 96.8183 10.2975 96.8183 9.82279C96.8183 9.34802 97.2046 8.96179 97.6793 8.96179ZM84.9212 14.852C84.9212 14.1827 85.4657 13.6382 86.135 13.6382C86.4216 13.6382 86.6847 13.7386 86.8923 13.9056C86.243 14.4626 85.7403 15.1175 85.4282 15.8365C85.1216 15.6163 84.9212 15.2575 84.9212 14.852ZM97.206 20.7415C95.9601 21.6725 94.289 22.1852 92.5006 22.1852C90.7123 22.1852 89.0412 21.6725 87.7953 20.7415C86.6296 19.8706 85.9876 18.7378 85.9876 17.5518C85.9876 16.3657 86.6296 15.2329 87.7953 14.362C89.0412 13.431 90.7123 12.9183 92.5006 12.9183C94.289 12.9183 95.9601 13.431 97.206 14.362C98.3717 15.2329 99.0136 16.3657 99.0136 17.5518C99.0136 18.7378 98.3717 19.8706 97.206 20.7415ZM99.5728 15.8359C99.2606 15.117 98.7579 14.4624 98.1087 13.9054C98.3163 13.7385 98.5796 13.6382 98.8663 13.6382C99.5355 13.6382 100.08 14.1827 100.08 14.852C100.08 15.2575 99.8794 15.6158 99.5728 15.8359Z" fill="white"/>
<ellipse cx="89.7846" cy="16.2548" rx="0.972102" ry="0.972102" fill="white"/>
<ellipse cx="95.2143" cy="16.2548" rx="0.972102" ry="0.972102" fill="white"/>
<path d="M94.8059 18.6169C94.1206 19.2413 93.2323 19.5851 92.3045 19.5851C91.2627 19.5851 90.2974 19.1652 89.5865 18.4029C89.4131 18.2167 89.1216 18.2066 88.9356 18.3801C88.7495 18.5536 88.7393 18.8451 88.9128 19.0311C89.787 19.9686 91.0232 20.5063 92.3045 20.5063C93.4624 20.5063 94.5711 20.0771 95.4264 19.2979C95.6144 19.1265 95.628 18.8352 95.4566 18.6472C95.2854 18.4593 94.9942 18.4455 94.8059 18.6169Z" fill="white"/>
<path d="M185.672 23.9595H173.688C172.972 23.9595 172.298 23.6862 171.79 23.1899C171.281 22.6914 171 22.0278 171 21.3215V9.59739C171 8.8911 171.281 8.22757 171.79 7.72903C172.298 7.23277 172.972 6.95947 173.688 6.95947H185.672C186.389 6.95947 187.063 7.23278 187.57 7.72905C188.079 8.22754 188.36 8.89106 188.36 9.59739V21.3215C188.36 22.0279 188.079 22.6914 187.57 23.1899C187.063 23.6862 186.389 23.9595 185.672 23.9595ZM173.688 7.72603C172.628 7.72603 171.767 8.56552 171.767 9.59739V21.3215C171.767 22.3534 172.628 23.1929 173.688 23.1929H185.672C186.732 23.1929 187.594 22.3534 187.594 21.3215V9.59739C187.594 8.56552 186.732 7.72603 185.672 7.72603H173.688Z" fill="white"/>
<path d="M174.391 13.3298H176.595V20.5709H174.391V13.3298ZM175.486 12.4779H175.474C174.816 12.4779 174.391 12.0042 174.391 11.4126C174.391 10.8082 174.829 10.3481 175.499 10.3481C176.17 10.3481 176.583 10.8082 176.595 11.4126C176.595 12.0038 176.17 12.4779 175.486 12.4779ZM184.973 20.5709H182.769V16.6952C182.769 15.7589 182.228 15.12 181.361 15.12C180.699 15.12 180.341 15.5511 180.167 15.9677C180.104 16.1167 180.123 16.5291 180.123 16.7373V20.5709H177.918V13.3298H180.123V14.444C180.441 13.9687 180.939 13.3298 182.212 13.3298C183.79 13.3298 184.973 14.2882 184.973 16.4281L184.973 20.5709Z" fill="white"/>
<rect x="214.5" y="10.4595" width="18" height="11" stroke="white"/>
<path d="M214.695 10.3457L223.166 17.667L232.062 10.3457" stroke="white"/>
</g>
<defs>
<clipPath id="clip0_126_3359">
<rect width="233" height="30" fill="white"/>
</clipPath>
</defs>
</svg>
