<svg width="251" height="90" viewBox="0 0 251 90" fill="none" xmlns="http://www.w3.org/2000/svg">
<g clip-path="url(#clip0_128_3379)">
<path d="M70.111 13.1084H75.2883V11.0366H70.111V7.02763H76.474V4.96016H68.0479V19.1849H70.1153L70.111 13.1084Z" fill="white"/>
<path d="M80.8346 4.76471H78.7715V6.77137H80.8346V4.76471Z" fill="white"/>
<path d="M80.8346 8.51741H78.7715V19.1848H80.8346V8.51741Z" fill="white"/>
<path d="M86.3981 4.66483H84.335V19.1849H86.3981V4.66483Z" fill="white"/>
<path d="M91.8235 18.7853C92.6749 19.2602 93.6373 19.5001 94.612 19.4802C95.6055 19.4888 96.5813 19.2163 97.4266 18.6941C98.2722 18.1691 98.9327 17.3931 99.3159 16.4746L97.2875 15.8318C97.0534 16.3507 96.6711 16.789 96.1886 17.0913C95.6819 17.3913 95.1007 17.5419 94.5121 17.5257C94.0878 17.5517 93.6634 17.478 93.2727 17.3106C92.882 17.1432 92.536 16.8866 92.2622 16.5614C91.7992 15.9407 91.5357 15.194 91.5065 14.4201H99.4636C99.5701 13.2997 99.4216 12.1697 99.0292 11.1148C98.689 10.2342 98.0814 9.48232 97.2919 8.96481C96.4624 8.44258 95.4961 8.17946 94.5164 8.20905C93.5576 8.18833 92.6114 8.43014 91.7801 8.90834C90.9918 9.38294 90.3558 10.0732 89.9471 10.8976C89.4889 11.8442 89.264 12.8867 89.2913 13.938C89.2696 14.9443 89.4996 15.9401 89.9602 16.8351C90.3823 17.6498 91.0289 18.3265 91.8235 18.7853V18.7853ZM92.2579 11.0236C92.5432 10.6898 92.9029 10.4275 93.3079 10.2578C93.713 10.088 94.1522 10.0156 94.5903 10.0463C94.9843 10.0173 95.3795 10.0829 95.743 10.2378C96.1064 10.3927 96.4275 10.6324 96.6794 10.9367C97.0627 11.4948 97.2878 12.1462 97.331 12.8218H91.5499C91.621 12.1699 91.8655 11.549 92.2579 11.0236V11.0236Z" fill="white"/>
<path d="M104.067 18.7505C104.905 19.2577 105.873 19.5111 106.852 19.4802C107.891 19.5153 108.914 19.2237 109.779 18.6463C110.606 18.062 111.217 17.2206 111.516 16.2531L109.419 15.7579C109.236 16.2737 108.909 16.7261 108.476 17.0609C107.999 17.3779 107.432 17.5304 106.86 17.4953C106.437 17.5232 106.013 17.4448 105.628 17.2673C105.243 17.0898 104.908 16.8188 104.654 16.4789C104.124 15.6933 103.859 14.7589 103.898 13.8121C103.893 13.165 104.003 12.5223 104.224 11.914C104.413 11.3947 104.75 10.9418 105.192 10.611C105.682 10.2761 106.267 10.1086 106.86 10.1332C107.433 10.1237 107.993 10.2989 108.459 10.6327C108.933 10.9801 109.283 11.4703 109.458 12.0313L111.516 11.4362C111.279 10.4699 110.696 9.62361 109.879 9.05601C108.998 8.46081 107.953 8.15698 106.891 8.18733C105.916 8.16037 104.954 8.41038 104.115 8.90834C103.346 9.38936 102.73 10.0793 102.339 10.8976C101.909 11.8098 101.692 12.808 101.705 13.8164C101.695 14.8157 101.905 15.8049 102.321 16.7135C102.695 17.5462 103.302 18.2535 104.067 18.7505V18.7505Z" fill="white"/>
<path d="M115.938 18.7592C116.785 19.2312 117.739 19.479 118.709 19.479C119.679 19.479 120.633 19.2312 121.48 18.7592C122.264 18.2836 122.896 17.5953 123.304 16.7743C123.728 15.8573 123.948 14.8592 123.948 13.849C123.948 12.8388 123.728 11.8407 123.304 10.9237C122.897 10.1039 122.266 9.41579 121.484 8.93876C120.64 8.47103 119.69 8.22565 118.724 8.22565C117.758 8.22565 116.809 8.47103 115.964 8.93876C115.179 9.41087 114.545 10.0963 114.135 10.915C113.686 11.829 113.463 12.8374 113.484 13.8555C113.464 14.868 113.682 15.8709 114.122 16.783C114.526 17.6017 115.156 18.2875 115.938 18.7592V18.7592ZM116.007 11.9314C116.201 11.4062 116.549 10.952 117.006 10.6284C117.512 10.2975 118.109 10.1334 118.713 10.1593C119.145 10.1292 119.578 10.2044 119.974 10.3784C120.371 10.5524 120.719 10.82 120.989 11.1583C121.536 11.9394 121.805 12.8815 121.754 13.8338C121.796 14.7797 121.531 15.7139 120.998 16.4963C120.734 16.797 120.413 17.0426 120.053 17.219C119.694 17.3954 119.303 17.499 118.904 17.524C118.504 17.5491 118.104 17.495 117.725 17.3648C117.347 17.2346 116.998 17.031 116.698 16.7656C116.611 16.6875 116.528 16.6048 116.45 16.518C115.902 15.7341 115.631 14.7893 115.682 13.8338C115.668 13.1823 115.777 12.534 116.003 11.9227L116.007 11.9314Z" fill="white"/>
<path d="M128.899 8.51741H126.836V19.1848H128.899V8.51741Z" fill="white"/>
<path d="M128.899 4.76471H126.836V6.77137H128.899V4.76471Z" fill="white"/>
<path d="M139.806 19.1849H141.899V13.2605C141.897 12.8767 141.868 12.4936 141.813 12.1138C141.747 11.659 141.635 11.2121 141.478 10.7804C141.31 10.3239 141.068 9.89837 140.761 9.52078C140.43 9.12134 140.013 8.80207 139.541 8.58694C138.955 8.34107 138.322 8.2269 137.686 8.2525C136.825 8.22767 135.974 8.44271 135.228 8.87361C134.818 9.12973 134.456 9.45614 134.159 9.83785V8.53482H132.313V19.1849H134.407V13.634C134.395 13.0891 134.467 12.5457 134.62 12.0226C134.736 11.6304 134.934 11.2676 135.202 10.9584C135.439 10.695 135.737 10.4937 136.071 10.3721C136.405 10.2471 136.76 10.1852 137.117 10.1897C137.602 10.1661 138.083 10.2871 138.499 10.5371C138.846 10.7625 139.128 11.0757 139.315 11.4449C139.513 11.8272 139.647 12.2396 139.71 12.6654C139.78 13.0875 139.815 13.5146 139.815 13.9424L139.806 19.1849Z" fill="white"/>
<path d="M70.111 35.0601H75.2883V33.01H70.111V28.9749H76.474V26.9292H68.0479V41.1365H70.1153L70.111 35.0601Z" fill="white"/>
<path d="M80.2178 40.7108C81.0651 41.1828 82.019 41.4306 82.9889 41.4306C83.9588 41.4306 84.9127 41.1828 85.76 40.7108C86.5437 40.2352 87.1763 39.5469 87.5843 38.7259C88.0096 37.8093 88.2299 36.811 88.2299 35.8006C88.2299 34.7901 88.0096 33.7919 87.5843 32.8753C87.1769 32.0567 86.5478 31.3689 85.7687 30.8904C84.9235 30.4215 83.9728 30.1754 83.0063 30.1754C82.0397 30.1754 81.0891 30.4215 80.2439 30.8904C79.4615 31.365 78.8279 32.0497 78.4153 32.8666C77.9682 33.7813 77.7449 34.7892 77.7638 35.8071C77.7463 36.8193 77.9649 37.8216 78.4023 38.7346C78.8082 39.5519 79.4378 40.2372 80.2178 40.7108V40.7108ZM80.2873 33.883C80.4801 33.3572 80.8286 32.9026 81.2863 32.5799C81.7925 32.2496 82.3893 32.0856 82.9932 32.1109C83.4256 32.0806 83.8588 32.1561 84.2554 32.3309C84.652 32.5058 84.9999 32.7746 85.2692 33.1142C85.8162 33.8939 86.0868 34.8342 86.038 35.7854C86.0763 36.7308 85.8115 37.6636 85.2822 38.4479C85.0183 38.7489 84.6976 38.9949 84.3384 39.1716C83.9792 39.3484 83.5886 39.4525 83.1891 39.4779C82.7896 39.5033 82.389 39.4496 82.0102 39.3198C81.6315 39.19 81.2822 38.9867 80.9822 38.7215V38.7215C80.893 38.6446 80.8088 38.5619 80.7303 38.474C80.1838 37.6891 79.9134 36.7449 79.9615 35.7897C79.9473 35.1378 80.0579 34.4891 80.2873 33.8786V33.883Z" fill="white"/>
<path d="M100.428 41.1365V30.4691H98.3429V36.0199C98.3527 36.5633 98.281 37.105 98.1301 37.627C98.0134 38.0201 97.815 38.3842 97.548 38.6955C97.3107 38.9589 97.0124 39.1602 96.6793 39.2819C96.3433 39.4072 95.9869 39.4691 95.6282 39.4643C95.1452 39.4851 94.6666 39.3643 94.2514 39.1168C93.903 38.8926 93.621 38.5791 93.4348 38.209C93.2372 37.8262 93.1022 37.4141 93.0352 36.9885C92.9692 36.5661 92.9358 36.1391 92.9353 35.7116V30.4691H90.8418V36.3935C90.8446 36.7772 90.8737 37.1603 90.9286 37.5401C90.9938 37.995 91.1059 38.4418 91.2631 38.8736C91.4293 39.3308 91.6716 39.7567 91.9798 40.1332C92.3109 40.5326 92.7281 40.8519 93.2002 41.067C93.7854 41.3186 94.4182 41.4401 95.0549 41.4232C95.9181 41.4491 96.7714 41.2324 97.5176 40.7977C97.928 40.5455 98.2887 40.2201 98.5817 39.8378V41.1408L100.428 41.1365Z" fill="white"/>
<path d="M109.119 30.1824C108.256 30.1551 107.403 30.3703 106.656 30.8035C106.247 31.0569 105.886 31.382 105.592 31.7634V30.4604H103.746V41.1365H105.84V35.5856C105.827 35.0407 105.899 34.4972 106.052 33.9742C106.167 33.58 106.365 33.2153 106.634 32.9057C106.873 32.6437 107.171 32.4427 107.503 32.3194C107.839 32.1982 108.193 32.1365 108.55 32.1369C109.033 32.1148 109.512 32.2357 109.927 32.4844C110.277 32.7082 110.56 33.0217 110.748 33.3922C110.944 33.7752 111.077 34.1873 111.143 34.6127C111.214 35.0434 111.249 35.4792 111.247 35.9157V41.1365H113.341V35.2077C113.338 34.824 113.309 34.4409 113.254 34.0611C113.188 33.6065 113.076 33.1597 112.919 32.7276C112.753 32.2704 112.511 31.8445 112.203 31.468C111.871 31.0696 111.454 30.7505 110.982 30.5342C110.395 30.2811 109.758 30.161 109.119 30.1824V30.1824Z" fill="white"/>
<path d="M123.352 40.6848C123.573 40.5238 123.779 40.342 123.965 40.1419V41.1365H125.802V26.9292H123.73V31.2162C123.339 30.8597 122.88 30.585 122.381 30.4082C121.882 30.2315 121.353 30.1562 120.825 30.1868C119.901 30.1619 118.992 30.4195 118.219 30.9251C117.485 31.4263 116.902 32.1187 116.533 32.9275C116.14 33.8294 115.947 34.806 115.969 35.7898C115.946 36.7751 116.138 37.7535 116.533 38.6564C116.892 39.4708 117.469 40.1699 118.201 40.6761C118.962 41.184 119.862 41.4435 120.777 41.4188C121.692 41.4558 122.594 41.1985 123.352 40.6848ZM118.47 37.7052C118.249 37.0928 118.14 36.4453 118.149 35.7941C118.14 35.1472 118.249 34.504 118.47 33.896C118.662 33.3602 119.003 32.8901 119.452 32.5409C119.945 32.1926 120.539 32.0156 121.142 32.0371C121.711 32.0178 122.271 32.1857 122.736 32.5148C123.167 32.8479 123.491 33.3013 123.665 33.8179C123.877 34.4472 123.978 35.1085 123.965 35.7724C123.978 36.4359 123.878 37.0969 123.67 37.7269C123.499 38.2562 123.172 38.7212 122.731 39.0604C122.247 39.402 121.664 39.5731 121.072 39.5468C120.485 39.5682 119.908 39.3907 119.435 39.043C118.992 38.6916 118.657 38.2217 118.47 37.6878V37.7052Z" fill="white"/>
<path d="M137.438 32.2065C137.125 31.5189 136.572 30.9691 135.883 30.6602C135.096 30.318 134.244 30.1506 133.386 30.1694C132.338 30.1166 131.301 30.4013 130.428 30.9817C129.694 31.5138 129.162 32.2796 128.921 33.1534L130.849 33.7484C130.917 33.4769 131.038 33.2218 131.206 32.998C131.374 32.7742 131.585 32.5863 131.826 32.4454C132.298 32.1845 132.829 32.0499 133.368 32.0545C134.237 32.0545 134.884 32.2586 135.249 32.6626C135.599 33.1026 135.785 33.6509 135.774 34.2132L134.558 34.3869C133.894 34.4781 133.255 34.578 132.665 34.6822C132.122 34.7734 131.586 34.8952 131.058 35.0471C130.56 35.1989 130.091 35.4339 129.672 35.742C129.3 36.0113 129.001 36.3698 128.803 36.7845C128.602 37.2319 128.504 37.7188 128.517 38.2091C128.509 38.7672 128.65 39.3172 128.925 39.8031C129.21 40.2985 129.63 40.7023 130.137 40.9672C130.751 41.2771 131.434 41.4265 132.122 41.4015C132.999 41.439 133.87 41.241 134.645 40.8282C135.174 40.5152 135.628 40.0896 135.974 39.5816V41.1322H137.803V34.565C137.804 34.1458 137.784 33.7268 137.742 33.3097C137.708 32.9266 137.605 32.5528 137.438 32.2065V32.2065ZM135.54 37.6314C135.452 38.007 135.28 38.3575 135.036 38.6565C134.758 38.9927 134.41 39.264 134.015 39.4513C133.544 39.6704 133.028 39.7761 132.508 39.7597C132.135 39.7754 131.764 39.7056 131.422 39.5556C131.16 39.4364 130.939 39.2412 130.788 38.9953C130.65 38.7642 130.578 38.4999 130.58 38.2308C130.572 37.977 130.638 37.7264 130.771 37.5098C130.907 37.3071 131.085 37.1354 131.292 37.006C131.53 36.8603 131.784 36.7409 132.048 36.6498C132.426 36.5371 132.81 36.4458 133.199 36.3762C133.633 36.3023 134.115 36.2242 134.65 36.146L135.748 35.9809C135.748 36.1547 135.748 36.3545 135.748 36.5803C135.73 36.9389 135.66 37.293 135.54 37.6314Z" fill="white"/>
<path d="M143.905 27.5069H141.829V30.4691H139.783V32.1413H141.829V36.9408C141.829 37.5185 141.829 38.0353 141.855 38.4957C141.877 38.9664 142.003 39.4262 142.224 39.8422C142.472 40.3241 142.876 40.7072 143.371 40.9281C143.919 41.1674 144.51 41.2944 145.108 41.3016C145.771 41.3228 146.434 41.2674 147.085 41.1365V39.3992C146.481 39.4946 145.869 39.5165 145.26 39.4643C145.029 39.4517 144.805 39.3816 144.607 39.2602C144.41 39.1388 144.246 38.9701 144.131 38.7694C143.997 38.5243 143.927 38.2495 143.927 37.9702C143.927 37.6531 143.927 37.2796 143.927 36.8539V32.1413H147.098V30.4691H143.927L143.905 27.5069Z" fill="white"/>
<path d="M151.733 26.7164H149.67V28.723H151.733V26.7164Z" fill="white"/>
<path d="M151.733 30.4691H149.67V41.1365H151.733V30.4691Z" fill="white"/>
<path d="M162.622 30.8947C161.777 30.4258 160.828 30.1797 159.862 30.1797C158.896 30.1797 157.946 30.4258 157.101 30.8947C156.319 31.3682 155.687 32.0534 155.277 32.871C154.826 33.7843 154.603 34.7931 154.626 35.8115C154.604 36.8236 154.821 37.8266 155.26 38.739C155.664 39.5606 156.294 40.2505 157.075 40.7282C157.922 41.2003 158.875 41.4481 159.844 41.4481C160.814 41.4481 161.767 41.2003 162.613 40.7282C163.398 40.2537 164.031 39.5651 164.437 38.7433C164.863 37.8267 165.083 36.8284 165.083 35.818C165.083 34.8076 164.863 33.8093 164.437 32.8927C164.032 32.069 163.403 31.3765 162.622 30.8947V30.8947ZM162.135 38.4566C161.871 38.7574 161.55 39.0029 161.191 39.1793C160.832 39.3557 160.441 39.4593 160.041 39.4844C159.642 39.5094 159.241 39.4553 158.863 39.3251C158.484 39.195 158.135 38.9913 157.835 38.7259V38.7259C157.747 38.6478 157.663 38.5652 157.584 38.4783C157.036 37.6937 156.766 36.7494 156.815 35.7941C156.801 35.1421 156.911 34.4935 157.141 33.883C157.334 33.3579 157.683 32.9036 158.139 32.58C158.647 32.262 159.24 32.1088 159.838 32.1413C160.271 32.1125 160.704 32.1887 161.101 32.3634C161.498 32.5381 161.847 32.8061 162.118 33.1446C162.662 33.9258 162.931 34.8653 162.883 35.8158C162.921 36.7613 162.657 37.6943 162.127 38.4783L162.135 38.4566Z" fill="white"/>
<path d="M170.752 32.9058C170.99 32.6432 171.288 32.4421 171.621 32.3194C171.957 32.1982 172.311 32.1365 172.668 32.137C173.151 32.1161 173.629 32.2369 174.045 32.4844C174.392 32.7108 174.675 33.0236 174.865 33.3922C175.061 33.7755 175.194 34.1875 175.261 34.6127C175.327 35.044 175.362 35.4795 175.365 35.9157V41.1365H177.458V35.2121C177.454 34.8284 177.425 34.4455 177.372 34.0654C177.307 33.6101 177.193 33.163 177.033 32.732C176.868 32.2749 176.628 31.8489 176.32 31.4724C175.988 31.074 175.571 30.7549 175.1 30.5386C174.515 30.2824 173.879 30.1607 173.241 30.1824C172.38 30.1555 171.528 30.3707 170.783 30.8035C170.371 31.0556 170.009 31.381 169.714 31.7634V30.4604H167.868V41.1365H169.962V35.5856C169.949 35.0408 170.021 34.4972 170.175 33.9742C170.287 33.5804 170.484 33.2158 170.752 32.9058V32.9058Z" fill="white"/>
<path d="M189.459 26.6469C189.128 26.669 188.803 26.7422 188.495 26.864C188.153 27.0024 187.849 27.2179 187.605 27.4938C187.391 27.7334 187.228 28.0142 187.127 28.3191C187.034 28.614 186.976 28.9186 186.953 29.2269C186.953 29.5352 186.927 29.8219 186.927 30.0955V30.4734H185.159V32.1413H186.927V41.1365H188.99V32.1413H191.687V30.4691H188.99V29.6959C188.98 29.5074 189.009 29.3188 189.075 29.1418C189.141 28.9647 189.242 28.803 189.372 28.6665C189.521 28.5375 189.694 28.4393 189.881 28.3774C190.068 28.3155 190.266 28.2913 190.463 28.306H191.709V26.6165H190.367C190.072 26.6165 189.781 26.6251 189.459 26.6469Z" fill="white"/>
<path d="M201.156 30.8948C200.311 30.427 199.362 30.1816 198.396 30.1816C197.43 30.1816 196.481 30.427 195.636 30.8948C194.851 31.3669 194.217 32.0523 193.807 32.871C193.358 33.785 193.135 34.7934 193.156 35.8115C193.138 36.8237 193.357 37.826 193.794 38.739C194.198 39.5596 194.826 40.2492 195.605 40.7283C196.453 41.2003 197.406 41.448 198.376 41.448C199.346 41.448 200.3 41.2003 201.148 40.7283C201.931 40.2526 202.564 39.5643 202.972 38.7433C203.397 37.8268 203.617 36.8285 203.617 35.818C203.617 34.8076 203.397 33.8093 202.972 32.8927C202.569 32.0677 201.939 31.3746 201.156 30.8948V30.8948ZM200.665 38.4567C200.401 38.7574 200.08 39.003 199.721 39.1793C199.361 39.3557 198.971 39.4594 198.571 39.4844C198.172 39.5094 197.771 39.4553 197.393 39.3251C197.014 39.195 196.665 38.9914 196.365 38.7259V38.7259C196.276 38.649 196.192 38.5663 196.114 38.4784C195.566 37.6938 195.296 36.7494 195.345 35.7941C195.331 35.1422 195.441 34.4935 195.67 33.883C195.864 33.3579 196.213 32.9037 196.669 32.58C197.18 32.2594 197.779 32.1061 198.381 32.1413C198.813 32.1082 199.246 32.1802 199.644 32.3511C200.042 32.5221 200.392 32.7869 200.665 33.1229C201.212 33.9027 201.483 34.8429 201.434 35.7941C201.469 36.7409 201.199 37.6739 200.665 38.4567V38.4567Z" fill="white"/>
<path d="M211.146 30.4039C210.799 30.4288 210.456 30.4959 210.125 30.6037C209.801 30.7077 209.496 30.8631 209.222 31.0641C208.935 31.2558 208.685 31.497 208.483 31.7764C208.392 31.9067 208.305 32.0413 208.227 32.1803V30.469H206.39V41.1365H208.474V35.7506C208.474 35.3461 208.518 34.9427 208.605 34.5475C208.692 34.1827 208.838 33.8348 209.039 33.5181C209.256 33.1839 209.546 32.9029 209.886 32.6961C210.227 32.4893 210.61 32.362 211.007 32.3237C211.395 32.2801 211.788 32.3066 212.166 32.4018V30.469C211.83 30.4054 211.487 30.3835 211.146 30.4039Z" fill="white"/>
<path d="M222.891 27.5069H220.819V30.4691H218.773V32.1413H220.819V36.9408C220.819 37.5185 220.819 38.0353 220.841 38.4957C220.862 38.967 220.99 39.4273 221.214 39.8422C221.46 40.3258 221.865 40.7095 222.361 40.9281C222.909 41.1684 223.5 41.2955 224.098 41.3016C224.761 41.323 225.425 41.2676 226.075 41.1365V39.3992C225.472 39.4946 224.859 39.5165 224.25 39.4643C224.019 39.451 223.795 39.3805 223.598 39.2592C223.401 39.1379 223.237 38.9696 223.121 38.7694C222.992 38.5229 222.923 38.2488 222.921 37.9702C222.921 37.6531 222.921 37.2796 222.921 36.8539V32.1413H226.092V30.4691H222.921L222.891 27.5069Z" fill="white"/>
<path d="M237.736 32.732C237.572 32.2739 237.329 31.8477 237.019 31.4724C236.689 31.0718 236.272 30.7523 235.799 30.5386C235.215 30.2829 234.581 30.1612 233.944 30.1824C233.089 30.1592 232.244 30.3743 231.503 30.8035C231.094 31.0569 230.733 31.3821 230.439 31.7634V26.9292H228.589V41.1365H230.682V35.5856C230.673 35.0409 230.745 34.4978 230.895 33.9742C231.013 33.5818 231.213 33.219 231.482 32.9101C231.718 32.6451 232.017 32.4422 232.35 32.3194C232.678 32.2021 233.023 32.1418 233.371 32.1413C233.854 32.1204 234.333 32.2412 234.748 32.4888C235.095 32.7151 235.378 33.0279 235.569 33.3965C235.764 33.7799 235.898 34.1918 235.964 34.617C236.03 35.0483 236.065 35.4838 236.068 35.9201V41.1365H238.162V35.2121C238.157 34.8284 238.128 34.4455 238.075 34.0654C238.01 33.6101 237.897 33.163 237.736 32.732V32.732Z" fill="white"/>
<path d="M249.907 36.3848H250.936C251.043 35.263 250.894 34.1316 250.502 33.0751C250.163 32.188 249.556 31.4288 248.764 30.9034C247.935 30.3818 246.968 30.1201 245.989 30.152C245.03 30.1288 244.083 30.3708 243.253 30.8513C242.467 31.3256 241.832 32.0142 241.424 32.8363C240.963 33.782 240.737 34.8249 240.764 35.8767C240.743 36.8843 240.973 37.8813 241.433 38.7781C241.859 39.5902 242.506 40.2649 243.3 40.7239C244.151 41.2008 245.114 41.4408 246.089 41.4189C247.083 41.4305 248.059 41.1578 248.903 40.6327C249.748 40.1089 250.409 39.3345 250.793 38.4176L248.773 37.7878C248.535 38.3053 248.151 38.7427 247.67 39.0474C247.164 39.3456 246.585 39.4961 245.998 39.4817C245.573 39.508 245.148 39.4346 244.756 39.2671C244.365 39.0997 244.018 38.8429 243.743 38.5175C243.282 37.8974 243.019 37.1526 242.988 36.3805L249.907 36.3848ZM243.743 32.9752C244.029 32.6414 244.388 32.3791 244.794 32.2094C245.199 32.0397 245.638 31.9673 246.076 31.998C246.468 31.9674 246.862 32.0302 247.225 32.1812C247.588 32.3322 247.91 32.5671 248.165 32.8667C248.548 33.4254 248.774 34.0762 248.821 34.7517H243.036C243.109 34.1017 243.353 33.4826 243.743 32.9579V32.9752Z" fill="white"/>
<path d="M73.2382 63.0795C73.5844 63.0656 73.9295 63.0323 74.272 62.9796C75.3061 62.876 76.2845 62.461 77.0778 61.7895C77.8592 61.1176 78.457 60.2583 78.8152 59.292C79.5927 57.1406 79.5927 54.7849 78.8152 52.6335C78.4546 51.6661 77.8573 50.8044 77.0778 50.1274C76.2825 49.4584 75.3054 49.0425 74.272 48.9329C73.9291 48.8875 73.584 48.8614 73.2382 48.8548H72.4999H68.0479V63.0795H72.5042H73.2382ZM70.1587 50.831H72.4999H73.2947C73.5715 50.8366 73.8475 50.8642 74.1199 50.9135C74.7846 51.0239 75.3948 51.3488 75.8573 51.8387C76.3265 52.3523 76.6699 52.9679 76.8606 53.6369C77.0815 54.3915 77.1912 55.1743 77.1864 55.9606C77.1901 56.7362 77.0834 57.5084 76.8693 58.2539C76.6838 58.9271 76.3431 59.5474 75.8746 60.0651C75.4079 60.5672 74.7877 60.9003 74.1112 61.012C73.8396 61.0557 73.5654 61.0818 73.2903 61.0902C72.982 61.0902 72.717 61.0902 72.4912 61.0902H70.1501L70.1587 50.831Z" fill="white"/>
<path d="M91.6018 60.3735L89.5777 59.7307C89.3392 60.2482 88.956 60.6857 88.4745 60.9903C87.9708 61.2937 87.3899 61.4446 86.8023 61.4247C86.3774 61.4503 85.9524 61.3765 85.5611 61.2091C85.1698 61.0417 84.8229 60.7854 84.5481 60.4604C84.0874 59.8404 83.8254 59.0953 83.7967 58.3235H91.7407C91.8453 57.2016 91.6969 56.0706 91.3064 55.0138C90.9619 54.1368 90.3551 53.3875 89.569 52.8681C88.7404 52.3439 87.7735 52.0806 86.7936 52.1124C85.8347 52.091 84.8883 52.3328 84.0572 52.8117C83.27 53.2857 82.6342 53.9742 82.2243 54.7966C81.767 55.7435 81.5422 56.7858 81.5685 57.837C81.5472 58.8433 81.777 59.839 82.2373 60.734C82.6635 61.5462 83.3111 62.2208 84.105 62.6799C84.9556 63.1568 85.9186 63.3968 86.8935 63.3748C87.8875 63.3865 88.864 63.1138 89.708 62.5887C90.5546 62.0655 91.2166 61.2911 91.6018 60.3735V60.3735ZM84.5481 54.9182C84.8336 54.5847 85.1933 54.3226 85.5983 54.1529C86.0033 53.9832 86.4424 53.9106 86.8805 53.9409C87.2744 53.9123 87.6696 53.9781 88.033 54.133C88.3964 54.2878 88.7175 54.5273 88.9696 54.8313C89.3548 55.3888 89.5815 56.0403 89.6255 56.7164H83.827C83.8975 56.0651 84.1404 55.4444 84.5307 54.9182H84.5481Z" fill="white"/>
<path d="M103.807 60.1564L101.714 59.6612C101.532 60.1774 101.205 60.6299 100.771 60.9643C100.297 61.2895 99.73 61.4512 99.1557 61.4247C98.7321 61.4505 98.3088 61.3708 97.9237 61.1926C97.5386 61.0145 97.2037 60.7435 96.9492 60.404C96.4193 59.6183 96.1545 58.6839 96.1934 57.7371C96.1861 57.0913 96.2965 56.4496 96.5192 55.8434C96.7063 55.3241 97.0415 54.8711 97.4834 54.5403C97.9747 54.2049 98.5613 54.0373 99.1557 54.0626C99.7266 54.0556 100.285 54.2305 100.75 54.5621C101.224 54.9104 101.575 55.4 101.753 55.9606L103.807 55.3656C103.571 54.3985 102.989 53.5516 102.17 52.9854C101.29 52.3897 100.244 52.0858 99.1817 52.1167C98.207 52.0898 97.2446 52.3398 96.4063 52.8377C95.6367 53.3199 95.0205 54.0115 94.6298 54.8313C94.1993 55.7434 93.9824 56.7416 93.9957 57.7501C93.9859 58.748 94.1965 59.7357 94.6124 60.6428C94.9904 61.4624 95.5928 62.1581 96.3498 62.6495C97.1886 63.1548 98.1551 63.4081 99.1339 63.3792C100.175 63.4118 101.201 63.1204 102.07 62.5453C102.897 61.9623 103.508 61.1225 103.807 60.1564V60.1564Z" fill="white"/>
<path d="M113.797 52.8811C112.968 52.3574 112.001 52.0942 111.021 52.1254C110.063 52.104 109.116 52.3458 108.285 52.8247C107.497 53.2975 106.861 53.9864 106.452 54.8096C105.993 55.7558 105.768 56.7986 105.796 57.85C105.774 58.8559 106.002 59.8517 106.461 60.7471C106.886 61.5602 107.534 62.2352 108.329 62.6929C109.181 63.1704 110.145 63.4104 111.121 63.3879C112.115 63.3996 113.092 63.1268 113.936 62.6017C114.779 62.0772 115.438 61.3029 115.821 60.3866L113.797 59.7437C113.558 60.2612 113.175 60.6987 112.694 61.0033C112.188 61.3016 111.609 61.4521 111.021 61.4377C110.597 61.4637 110.171 61.39 109.78 61.2226C109.389 61.0552 109.042 60.7987 108.767 60.4734C108.306 59.8539 108.044 59.1086 108.016 58.3365H115.96C116.067 57.2146 115.918 56.0831 115.526 55.0268C115.187 54.1491 114.582 53.3991 113.797 52.8811V52.8811ZM108.767 54.9269C109.053 54.5939 109.413 54.3321 109.818 54.1625C110.223 53.9928 110.662 53.92 111.1 53.9496C111.494 53.9216 111.888 53.9878 112.252 54.1426C112.615 54.2975 112.936 54.5365 113.189 54.84C113.575 55.3971 113.801 56.0488 113.845 56.7251H108.059C108.132 56.075 108.377 55.456 108.767 54.9312V54.9269Z" fill="white"/>
<path d="M127.874 54.6836C127.71 54.2255 127.467 53.7993 127.157 53.424C126.827 53.0234 126.41 52.7039 125.937 52.4902C125.353 52.2345 124.719 52.1128 124.082 52.134C123.219 52.1068 122.366 52.3219 121.619 52.7551C121.21 53.0085 120.849 53.3337 120.555 53.715V52.412H118.705V63.0794H120.799V57.5329C120.787 56.9895 120.858 56.4474 121.011 55.9258C121.128 55.5327 121.326 55.1686 121.593 54.8573C121.832 54.5953 122.13 54.3943 122.462 54.271C122.798 54.1456 123.155 54.0838 123.513 54.0886C123.996 54.0677 124.475 54.1885 124.89 54.436C125.238 54.6624 125.521 54.9752 125.711 55.3438C125.907 55.7269 126.041 56.1389 126.106 56.5643C126.172 56.9868 126.205 57.4137 126.206 57.8413V63.0881H128.304V57.1594C128.299 56.7757 128.27 56.3927 128.217 56.0127C128.151 55.5587 128.036 55.1131 127.874 54.6836V54.6836Z" fill="white"/>
<path d="M134.246 49.4541H132.17V52.4163H130.124V54.0799H132.17V58.888C132.17 59.4701 132.17 59.9869 132.196 60.4473C132.218 60.9179 132.344 61.3778 132.565 61.7938C132.813 62.2757 133.217 62.6587 133.712 62.8796C134.26 63.119 134.851 63.246 135.449 63.2532C136.112 63.2701 136.775 63.2148 137.425 63.0881V61.3508C136.822 61.4462 136.21 61.4681 135.601 61.4159C135.37 61.4014 135.147 61.3305 134.95 61.2093C134.753 61.0881 134.589 60.9204 134.472 60.721C134.338 60.4759 134.268 60.2011 134.268 59.9218C134.268 59.6033 134.268 59.2297 134.268 58.8012V54.0799H137.438V52.4163H134.268L134.246 49.4541Z" fill="white"/>
<path d="M144.675 52.3643C144.326 52.3876 143.981 52.4547 143.649 52.5641C143.328 52.6616 143.023 52.8081 142.746 52.9984C142.463 53.1896 142.216 53.4292 142.016 53.7064C141.923 53.8358 141.837 53.9706 141.76 54.1103V52.399H139.923V63.0665H142.008V57.6806C142.008 57.2775 142.051 56.8755 142.138 56.4818C142.221 56.1144 142.368 55.7645 142.572 55.4481C142.788 55.114 143.077 54.833 143.417 54.6262C143.757 54.4193 144.139 54.292 144.536 54.2537C144.925 54.21 145.319 54.2365 145.7 54.3319V52.3947C145.36 52.3445 145.016 52.3343 144.675 52.3643V52.3643Z" fill="white"/>
<path d="M156.363 54.1581C156.05 53.4705 155.497 52.9206 154.808 52.6118C154.021 52.2689 153.168 52.1029 152.31 52.1253C151.263 52.0712 150.226 52.3544 149.352 52.9332C148.618 53.4652 148.087 54.231 147.845 55.1049L149.774 55.6956C149.841 55.4242 149.962 55.169 150.13 54.9452C150.298 54.7214 150.509 54.5335 150.751 54.3926C151.223 54.1323 151.754 53.9977 152.293 54.0017C153.183 54.0017 153.809 54.2058 154.173 54.6098C154.524 55.0515 154.709 55.6012 154.699 56.1647L153.483 56.3341C152.818 56.4297 152.18 56.5252 151.589 56.6338C151.047 56.725 150.51 56.8468 149.982 56.9986C149.484 57.1505 149.016 57.3855 148.597 57.6936C148.231 57.9645 147.94 58.323 147.75 58.736C147.549 59.182 147.451 59.6674 147.463 60.1563C147.455 60.7145 147.596 61.2646 147.871 61.7503C148.157 62.2461 148.577 62.6511 149.083 62.9187C149.698 63.2267 150.38 63.376 151.068 63.3531C151.943 63.3828 152.811 63.1757 153.578 62.7537C154.108 62.4407 154.561 62.0151 154.908 61.5071V63.0577H156.736V56.5209C156.738 56.1017 156.717 55.6827 156.675 55.2656C156.639 54.8805 156.533 54.5051 156.363 54.1581V54.1581ZM154.465 59.583C154.376 59.9531 154.204 60.2979 153.961 60.5907C153.685 60.9277 153.338 61.1992 152.944 61.3855C152.471 61.6042 151.954 61.7098 151.433 61.6939C151.06 61.707 150.689 61.6373 150.347 61.4897C150.086 61.368 149.866 61.1734 149.713 60.9294C149.576 60.698 149.506 60.4337 149.509 60.165C149.499 59.911 149.566 59.66 149.7 59.444C149.834 59.2395 150.012 59.0674 150.221 58.9402C150.459 58.7945 150.713 58.6751 150.977 58.584C151.354 58.4672 151.738 58.3758 152.128 58.3104C152.562 58.2365 153.044 58.1583 153.578 58.0802L154.677 57.9151C154.677 58.0888 154.677 58.2886 154.677 58.5145C154.665 58.8783 154.599 59.2382 154.482 59.583H154.465Z" fill="white"/>
<path d="M162.1 48.5681H160.037V63.0882H162.1V48.5681Z" fill="white"/>
<path d="M167.664 48.6637H165.601V50.6703H167.664V48.6637Z" fill="white"/>
<path d="M167.664 52.4207H165.601V63.0882H167.664V52.4207Z" fill="white"/>
<path d="M170.609 54.2667H176.112L170.058 62.7624V63.0882H179.092V61.2422H173.346L179.383 52.7552V52.4207H170.601L170.609 54.2667Z" fill="white"/>
<path d="M189.033 52.8811C188.204 52.3574 187.238 52.0942 186.258 52.1254C185.299 52.104 184.353 52.3458 183.521 52.8247C182.733 53.2975 182.097 53.9864 181.689 54.8096C181.229 55.7558 181.004 56.7986 181.033 57.85C181.01 58.8559 181.238 59.8517 181.697 60.7471C182.122 61.5602 182.77 62.2352 183.565 62.6929C184.417 63.1704 185.381 63.4104 186.358 63.3879C187.352 63.3996 188.328 63.1268 189.172 62.6017C190.016 62.0772 190.674 61.3029 191.057 60.3866L189.033 59.7437C188.795 60.2612 188.412 60.6987 187.93 61.0033C187.424 61.3016 186.845 61.4521 186.258 61.4377C185.833 61.4637 185.408 61.39 185.016 61.2226C184.625 61.0552 184.278 60.7987 184.004 60.4734C183.542 59.8539 183.28 59.1086 183.252 58.3365H191.196C191.303 57.2146 191.154 56.0831 190.762 55.0268C190.422 54.1499 189.818 53.4002 189.033 52.8811ZM184.004 54.9269C184.29 54.5939 184.649 54.3321 185.054 54.1625C185.459 53.9928 185.898 53.92 186.336 53.9496C186.73 53.9216 187.125 53.9878 187.488 54.1426C187.851 54.2975 188.173 54.5365 188.425 54.84C188.81 55.3974 189.037 56.0489 189.081 56.7251H183.291C183.364 56.075 183.609 55.456 183.999 54.9312L184.004 54.9269Z" fill="white"/>
<path d="M201.212 53.1504C200.821 52.7957 200.363 52.5224 199.865 52.3464C199.367 52.1704 198.838 52.0953 198.311 52.1254C197.387 52.0964 196.477 52.3527 195.705 52.8594C194.967 53.3582 194.383 54.0532 194.02 54.8661C193.612 55.7704 193.41 56.754 193.429 57.7458C193.412 58.737 193.612 59.7199 194.015 60.6254C194.377 61.4383 194.953 62.1367 195.683 62.6451C196.446 63.1484 197.345 63.406 198.259 63.3835C199.172 63.4142 200.071 63.1525 200.826 62.6365C201.048 62.4752 201.253 62.2918 201.438 62.0892V63.0838H203.271V48.8635H201.195L201.212 53.1504ZM201.156 59.7003C200.984 60.2287 200.657 60.6932 200.218 61.0337C199.733 61.3723 199.15 61.5417 198.559 61.5158C197.971 61.5414 197.393 61.3635 196.921 61.012C196.478 60.6606 196.143 60.1907 195.957 59.6569C195.735 59.0444 195.626 58.397 195.635 57.7458C195.627 57.0988 195.735 56.4556 195.957 55.8477C196.147 55.3125 196.488 54.8435 196.938 54.4969C197.429 54.1447 198.024 53.9673 198.628 53.993C199.2 53.9666 199.765 54.1334 200.231 54.4665C200.662 54.7996 200.986 55.2529 201.16 55.7695C201.372 56.3989 201.473 57.0601 201.46 57.724C201.473 58.389 201.373 59.0514 201.165 59.6829L201.156 59.7003Z" fill="white"/>
<path d="M81.3603 81.4261L78.3677 70.6674H76.196L73.2034 81.4174L70.2108 70.6587H68.0391L72.1697 84.8834H74.2241L77.2645 74.242L80.3049 84.8834H82.3593L86.4942 70.6587H84.3225L81.3603 81.4261Z" fill="white"/>
<path d="M95.3112 74.7068C94.4826 74.1826 93.5158 73.9193 92.5358 73.9511C91.5769 73.9297 90.6305 74.1715 89.7994 74.6503C89.0122 75.1243 88.3764 75.8129 87.9665 76.6353C87.5092 77.5822 87.2844 78.6245 87.3107 79.6757C87.2894 80.682 87.5193 81.6777 87.9796 82.5727C88.4057 83.3848 89.0532 84.0595 89.8472 84.5186C90.6978 84.9955 91.6608 85.2355 92.6357 85.2135C93.6296 85.2252 94.6062 84.9525 95.4502 84.4274C96.2951 83.9036 96.9556 83.1292 97.3396 82.2122L95.3156 81.5694C95.077 82.0869 94.6939 82.5244 94.2124 82.829C93.7065 83.1273 93.1272 83.2778 92.5402 83.2633C92.1153 83.2894 91.6902 83.2157 91.2988 83.0483C90.9074 82.8809 90.5605 82.6243 90.2859 82.2991C89.8243 81.6796 89.5622 80.9342 89.5345 80.1621H97.4786C97.5853 79.0403 97.4368 77.9088 97.0443 76.8525C96.7049 75.9738 96.0988 75.2234 95.3112 74.7068ZM90.2815 76.7569C90.5669 76.4228 90.9264 76.1601 91.3314 75.9897C91.7364 75.8192 92.1756 75.7458 92.614 75.7753C93.0079 75.7473 93.4028 75.8135 93.766 75.9683C94.1293 76.1231 94.4505 76.3622 94.7032 76.6657C95.0883 77.2231 95.315 77.8746 95.359 78.5507H89.5779C89.6483 77.9007 89.8912 77.2814 90.2815 76.7569V76.7569Z" fill="white"/>
<path d="M107.812 74.6634C107.039 74.1572 106.13 73.8996 105.206 73.925C104.302 73.8955 103.412 74.1541 102.665 74.6634C102.539 74.7542 102.417 74.8513 102.3 74.9544V70.6674H100.229V84.8921H102.066V83.8975C102.252 84.0976 102.457 84.2794 102.678 84.4404C103.432 84.9564 104.332 85.2181 105.245 85.1875C106.16 85.2107 107.059 84.9513 107.821 84.4447C108.553 83.9385 109.13 83.2394 109.489 82.4251C109.893 81.5198 110.093 80.5367 110.075 79.5454C110.093 78.555 109.892 77.573 109.484 76.67C109.124 75.8588 108.545 75.1639 107.812 74.6634V74.6634ZM107.578 81.4608C107.387 81.9939 107.052 82.4632 106.609 82.816C106.137 83.1674 105.559 83.3454 104.972 83.3198C104.381 83.3457 103.797 83.1763 103.312 82.8377C102.872 82.4985 102.545 82.0335 102.374 81.5042C102.166 80.8742 102.066 80.2133 102.079 79.5497C102.067 78.8859 102.168 78.225 102.378 77.5952C102.549 77.0705 102.872 76.609 103.308 76.2704C103.773 75.941 104.333 75.7746 104.902 75.797C105.506 75.7713 106.101 75.9487 106.592 76.3008C107.042 76.6475 107.383 77.1164 107.573 77.6516C107.795 78.2596 107.904 78.9028 107.895 79.5497C107.903 80.2005 107.796 80.8476 107.578 81.4608Z" fill="white"/>
<path d="M46.0967 46.0967V21.9516H24.1451V0H0V24.1451H21.9517V43.9033H0V68.0483H21.9517V90H46.0967V65.8549H24.1451V46.0967H46.0967ZM2.19345 21.9516V2.19343H21.9517V21.9516H2.19345ZM24.1451 24.1451H43.8989V43.9033H24.1451V24.1451ZM43.8989 68.0483V87.8066H24.1451V68.0483H43.8989ZM21.9517 65.8766H2.19345V46.0967H21.9517V65.8766Z" fill="white"/>
<path d="M9.05176 17.0131H10.9194V13.0302H14.2682V11.1626H10.9194V8.99954H15.0891V7.13187H9.05176V17.0131Z" fill="white"/>
<path d="M31.0029 38.9648H32.8706V34.9559H36.2194V33.0882H32.8706V30.9512H37.0403V29.1009H31.0029V38.9648Z" fill="white"/>
<path d="M11.7013 60.9078C11.9359 60.9078 12.1705 60.9078 12.4007 60.86C13.142 60.7875 13.8457 60.4991 14.4247 60.0304C14.9846 59.567 15.418 58.9693 15.6843 58.293C16.262 56.8052 16.262 55.1551 15.6843 53.6673C15.418 52.991 14.9846 52.3933 14.4247 51.9299C13.8457 51.4612 13.142 51.1728 12.4007 51.1003C12.1705 51.0743 11.9359 51.0569 11.7013 51.0526C11.4668 51.0482 11.2974 51.0526 11.2236 51.0526H8.02246V60.9295H11.2192L11.7013 60.9078ZM9.91619 52.7943H11.7231C11.914 52.7992 12.1044 52.8196 12.2921 52.8551C12.6923 52.93 13.0561 53.1363 13.3258 53.4414C13.6118 53.7657 13.8211 54.1502 13.9382 54.5664C14.2053 55.4737 14.2053 56.4388 13.9382 57.3462C13.8217 57.7647 13.6157 58.153 13.3345 58.4841C13.0643 58.8007 12.6929 59.014 12.2834 59.0879C12.0955 59.1217 11.9052 59.1406 11.7144 59.1443H11.2106H9.90754L9.91619 52.7943Z" fill="white"/>
<path d="M32.1107 82.8681L34.0217 76.1966L35.9372 82.8681H37.7744L40.6672 72.9912H38.7083L36.858 79.7799L35.0033 72.9912H33.0401L31.1899 79.7669L29.3352 72.9738H27.3633L30.256 82.8551L32.1107 82.8681Z" fill="white"/>
</g>
<defs>
<clipPath id="clip0_128_3379">
<rect width="250.97" height="90" fill="white"/>
</clipPath>
</defs>
</svg>
