<svg width="141" height="24" viewBox="0 0 141 24" fill="none" xmlns="http://www.w3.org/2000/svg">
<g clip-path="url(#clip0_97_11050)">
<path d="M0.98 17.2563V7.17635H5.054C5.152 7.17635 5.27333 7.18101 5.418 7.19035C5.56267 7.19501 5.70033 7.20901 5.831 7.23235C6.391 7.32101 6.85767 7.51235 7.231 7.80635C7.609 8.10035 7.89133 8.47135 8.078 8.91935C8.26467 9.36735 8.358 9.86201 8.358 10.4033C8.358 11.206 8.15267 11.899 7.742 12.4823C7.33133 13.061 6.71533 13.4227 5.894 13.5673L5.299 13.6373H2.443V17.2563H0.98ZM6.874 17.2563L4.886 13.1543L6.363 12.7763L8.547 17.2563H6.874ZM2.443 12.2513H4.998C5.09133 12.2513 5.194 12.2467 5.306 12.2373C5.42267 12.228 5.53233 12.2117 5.635 12.1883C5.93367 12.1183 6.174 11.99 6.356 11.8033C6.538 11.612 6.66867 11.3927 6.748 11.1453C6.82733 10.898 6.867 10.6507 6.867 10.4033C6.867 10.156 6.82733 9.91101 6.748 9.66835C6.66867 9.42101 6.538 9.20401 6.356 9.01735C6.174 8.82601 5.93367 8.69535 5.635 8.62535C5.53233 8.59735 5.42267 8.57868 5.306 8.56935C5.194 8.56001 5.09133 8.55535 4.998 8.55535H2.443V12.2513ZM10.0855 17.2563V7.17635H16.5255V8.55535H11.5485V11.3833H15.6855V12.7623H11.5485V15.8773H16.5255V17.2563H10.0855ZM17.5066 17.2563L20.7826 7.17635H22.8896L26.1656 17.2563H24.6466L21.6296 8.05835H22.0076L19.0256 17.2563H17.5066ZM19.2076 14.9813V13.6093H24.4716V14.9813H19.2076ZM27.4214 17.2563V7.17635H30.5784C30.6717 7.17635 30.8444 7.17868 31.0964 7.18335C31.3531 7.18801 31.5981 7.20668 31.8314 7.23935C32.6201 7.33735 33.2827 7.61968 33.8194 8.08635C34.3607 8.55301 34.7691 9.14568 35.0444 9.86435C35.3197 10.5783 35.4574 11.3623 35.4574 12.2163C35.4574 13.075 35.3197 13.8637 35.0444 14.5823C34.7691 15.2963 34.3607 15.8867 33.8194 16.3533C33.2827 16.8153 32.6201 17.0953 31.8314 17.1933C31.5981 17.226 31.3531 17.2447 31.0964 17.2493C30.8444 17.254 30.6717 17.2563 30.5784 17.2563H27.4214ZM28.9194 15.8633H30.5784C30.7371 15.8633 30.9261 15.8587 31.1454 15.8493C31.3647 15.84 31.5584 15.8213 31.7264 15.7933C32.2397 15.6953 32.6551 15.4737 32.9724 15.1283C33.2944 14.7783 33.5301 14.349 33.6794 13.8403C33.8287 13.3317 33.9034 12.7903 33.9034 12.2163C33.9034 11.6237 33.8264 11.0753 33.6724 10.5713C33.5184 10.0627 33.2804 9.63801 32.9584 9.29735C32.6411 8.95201 32.2304 8.73268 31.7264 8.63935C31.5584 8.60668 31.3624 8.58801 31.1384 8.58335C30.9191 8.57401 30.7324 8.56935 30.5784 8.56935H28.9194V15.8633ZM39.8902 17.2563V7.17635H41.2132L44.8672 14.7573L48.5002 7.17635H49.8372V17.2493H48.4512V10.3543L45.1962 17.2563H44.5312L41.2692 10.3543V17.2563H39.8902ZM56.0054 17.4663C54.9974 17.4663 54.1387 17.247 53.4294 16.8083C52.72 16.365 52.1764 15.749 51.7984 14.9603C51.425 14.1717 51.2384 13.257 51.2384 12.2163C51.2384 11.1757 51.425 10.261 51.7984 9.47235C52.1764 8.68368 52.72 8.07001 53.4294 7.63135C54.1387 7.18801 54.9974 6.96635 56.0054 6.96635C57.0087 6.96635 57.865 7.18801 58.5744 7.63135C59.2884 8.07001 59.832 8.68368 60.2054 9.47235C60.5787 10.261 60.7654 11.1757 60.7654 12.2163C60.7654 13.257 60.5787 14.1717 60.2054 14.9603C59.832 15.749 59.2884 16.365 58.5744 16.8083C57.865 17.247 57.0087 17.4663 56.0054 17.4663ZM56.0054 16.0733C56.7194 16.0827 57.312 15.9263 57.7834 15.6043C58.2594 15.2777 58.6164 14.825 58.8544 14.2463C59.0924 13.663 59.2114 12.9863 59.2114 12.2163C59.2114 11.4463 59.0924 10.7743 58.8544 10.2003C58.6164 9.62168 58.2594 9.17135 57.7834 8.84935C57.312 8.52735 56.7194 8.36401 56.0054 8.35935C55.2914 8.35001 54.6964 8.50635 54.2204 8.82835C53.749 9.15035 53.3944 9.60301 53.1564 10.1863C52.9184 10.7697 52.797 11.4463 52.7924 12.2163C52.7877 12.9863 52.9044 13.6607 53.1424 14.2393C53.3804 14.8133 53.7374 15.2613 54.2134 15.5833C54.694 15.9053 55.2914 16.0687 56.0054 16.0733ZM62.1616 17.2563V7.17635H66.2356C66.3336 7.17635 66.455 7.18101 66.5996 7.19035C66.7443 7.19501 66.882 7.20901 67.0126 7.23235C67.5726 7.32101 68.0393 7.51235 68.4126 7.80635C68.7906 8.10035 69.073 8.47135 69.2596 8.91935C69.4463 9.36735 69.5396 9.86201 69.5396 10.4033C69.5396 11.206 69.3343 11.899 68.9236 12.4823C68.513 13.061 67.897 13.4227 67.0756 13.5673L66.4806 13.6373H63.6246V17.2563H62.1616ZM68.0556 17.2563L66.0676 13.1543L67.5446 12.7763L69.7286 17.2563H68.0556ZM63.6246 12.2513H66.1796C66.273 12.2513 66.3756 12.2467 66.4876 12.2373C66.6043 12.228 66.714 12.2117 66.8166 12.1883C67.1153 12.1183 67.3556 11.99 67.5376 11.8033C67.7196 11.612 67.8503 11.3927 67.9296 11.1453C68.009 10.898 68.0486 10.6507 68.0486 10.4033C68.0486 10.156 68.009 9.91101 67.9296 9.66835C67.8503 9.42101 67.7196 9.20401 67.5376 9.01735C67.3556 8.82601 67.1153 8.69535 66.8166 8.62535C66.714 8.59735 66.6043 8.57868 66.4876 8.56935C66.3756 8.56001 66.273 8.55535 66.1796 8.55535H63.6246V12.2513ZM71.2671 17.2563V7.17635H77.7071V8.55535H72.7301V11.3833H76.8671V12.7623H72.7301V15.8773H77.7071V17.2563H71.2671Z" fill="#BCF636"/>
<rect x="132.791" y="15.0474" width="2.4477" height="2.4477" transform="rotate(-90 132.791 15.0474)" fill="#BCF636"/>
<rect x="132.791" y="5.25635" width="2.4477" height="2.4477" transform="rotate(-90 132.791 5.25635)" fill="#BCF636"/>
<rect x="135.238" y="12.6001" width="2.4477" height="2.4477" transform="rotate(-90 135.238 12.6001)" fill="#BCF636"/>
<rect x="135.238" y="7.70459" width="2.4477" height="2.4477" transform="rotate(-90 135.238 7.70459)" fill="#BCF636"/>
<rect x="137.687" y="10.1519" width="2.4477" height="2.4477" transform="rotate(-90 137.687 10.1519)" fill="#BCF636"/>
</g>
<defs>
<clipPath id="clip0_97_11050">
<rect width="140.134" height="23" fill="white" transform="translate(0 0.256348)"/>
</clipPath>
</defs>
</svg>
