<svg width="48" height="39" viewBox="0 0 48 39" fill="none" xmlns="http://www.w3.org/2000/svg">
<g clip-path="url(#clip0_97_10252)">
<path d="M15.0717 38.2483V38.2409C9.97954 38.2473 5.02393 36.7974 0.739319 34.0477L1.28849 32.5194C1.9685 32.601 2.66098 32.6431 3.34669 32.6445C5.28279 32.6454 7.19319 32.3267 9.02391 31.6945C10.1917 31.2912 11.3064 30.7678 12.3558 30.131C9.08934 29.3126 6.40088 26.8621 5.33842 23.5583L4.90775 22.2191L6.28907 22.4852C6.3885 22.5043 6.48826 22.5216 6.5884 22.537C5.75261 21.9889 4.99863 21.3142 4.35904 20.5327C2.91696 18.7707 2.12249 16.5464 2.12197 14.2695V12.7366L3.36057 13.4268C3.6733 13.6011 3.99755 13.7544 4.33025 13.8858C3.43427 12.7523 2.79208 11.4263 2.45816 9.98652C1.88715 7.52444 2.27184 4.96493 3.54137 2.77946L4.14733 1.73631L4.90821 2.67248C6.00954 4.02752 7.25724 5.26926 8.61667 6.36321C9.96166 7.44554 11.4247 8.3903 12.9651 9.17125C14.5055 9.95217 16.1323 10.5739 17.8003 11.019C19.1496 11.3792 20.533 11.6256 21.9257 11.7545C21.7699 10.4109 21.8903 9.04275 22.2839 7.74269C22.7852 6.08698 23.7163 4.58542 24.9765 3.40034C25.9497 2.48513 27.0735 1.78772 28.3166 1.32749C29.517 0.883114 30.7769 0.677799 32.0616 0.71723C33.3462 0.756664 34.5913 1.03888 35.7621 1.55603C36.8305 2.028 37.7952 2.6781 38.6356 3.49179C40.4165 3.09338 42.1142 2.41953 43.6878 1.48577L45.5811 0.362305L44.9059 2.45775C44.5176 3.66251 43.9063 4.77109 43.1135 5.73115C43.7527 5.53302 44.3812 5.29737 44.9958 5.02506L47.6226 3.86132L46.0258 6.24975C44.835 8.03091 43.3701 9.5868 41.6674 10.8799C41.6744 11.1391 41.6744 11.3951 41.6744 11.6457C41.6744 14.739 41.0738 17.9783 39.9376 21.0133C38.7459 24.1965 37.0268 27.0752 34.8283 29.5693C32.4664 32.2488 29.6563 34.3544 26.4761 35.8277C23.0088 37.4339 19.1718 38.2483 15.0717 38.2483ZM15.0707 36.5748L15.0717 37.4104V36.5822C18.9281 36.5822 22.5295 35.8196 25.7757 34.3158C28.745 32.9403 31.3702 30.9727 33.5784 28.4676C35.6423 26.1262 37.2569 23.4216 38.3772 20.4291C39.4442 17.5789 40.0083 14.5416 40.0083 11.6457C40.0083 11.2579 40.0083 10.8917 39.9837 10.5315L39.9523 10.0706L40.3266 9.79986C41.261 9.124 42.1207 8.36407 42.8991 7.52693C42.0238 7.76122 41.1319 7.93239 40.2287 8.03897L39.7032 6.49686C40.7394 5.87643 41.6179 5.04256 42.2867 4.06028C41.0788 4.57477 39.8199 4.96234 38.523 5.21796L38.0708 5.30709L37.755 4.97133C36.2485 3.36943 34.2084 2.45008 32.0105 2.38261C29.8125 2.31511 27.7198 3.10763 26.1179 4.61411C25.0698 5.59971 24.2955 6.84851 23.8786 8.22549C23.4617 9.60239 23.4133 11.0711 23.7385 12.4727L23.9881 13.5484L22.8852 13.493C21.0247 13.3997 19.1693 13.1089 17.3706 12.6288C15.5909 12.1539 13.8552 11.4906 12.2117 10.6574C10.5682 9.82412 9.00716 8.8161 7.57209 7.66128C6.45597 6.76311 5.4104 5.77156 4.45232 4.70346C3.83224 6.25458 3.69825 7.95868 4.08125 9.61009C4.55614 11.6577 5.78038 13.4281 7.52847 14.5952L9.94207 16.2067L7.04123 16.1208C5.96283 16.0889 4.89132 15.8763 3.88133 15.4981C4.10231 16.9509 4.71075 18.3318 5.64842 19.4775C6.84758 20.9427 8.53017 21.9561 10.3862 22.3312L10.4404 23.9515C9.46635 24.217 8.44883 24.3305 7.43881 24.2902C8.80633 26.9538 11.5442 28.7025 14.6086 28.7599L16.9454 28.8037L15.1078 30.2478C13.4385 31.5597 11.5746 32.5763 9.5678 33.2693C7.95642 33.8258 6.28854 34.1614 4.59466 34.2709C7.86412 35.7899 11.4303 36.5791 15.0707 36.5748Z" fill="#060517"/>
</g>
<defs>
<clipPath id="clip0_97_10252">
<rect width="46.8833" height="37.886" fill="white" transform="translate(0.739319 0.362305)"/>
</clipPath>
</defs>
</svg>
