<svg width="49" height="37" viewBox="0 0 49 37" fill="none" xmlns="http://www.w3.org/2000/svg">
<g clip-path="url(#clip0_97_10251)">
<path d="M24.5618 36.9088C16.931 36.9088 10.3259 36.1053 7.06647 35.626C4.23582 35.221 1.97568 33.0674 1.44219 30.2666L1.43958 30.2523C1.01095 27.7876 0.5 23.7716 0.5 18.6356C0.5 13.4996 1.01095 9.48352 1.43958 7.01887L1.44219 7.00455C1.97548 4.2048 4.23433 2.05171 7.06352 1.64553C9.6135 1.25929 16.4161 0.362305 24.5618 0.362305C31.8116 0.362305 38.0783 1.06003 42.0588 1.64536C44.8887 2.05097 47.1479 4.20429 47.6813 7.00455L47.6839 7.01887C48.137 9.62383 48.7393 13.6622 48.7393 18.6356L48.739 18.6572C48.613 23.9511 48.0957 27.8847 47.6839 30.2523L47.6813 30.2666C47.148 33.0663 44.8892 35.2194 42.06 35.6256C39.5101 36.0118 32.7075 36.9088 24.5618 36.9088ZM3.22726 29.9337C3.61812 31.9694 5.26393 33.5343 7.32477 33.8287L7.32847 33.8292C10.538 34.3012 17.0447 35.093 24.5618 35.093C32.5875 35.093 39.2844 34.2096 41.7911 33.8298L41.7988 33.8287C43.8596 33.5343 45.5054 31.9694 45.8963 29.9337C46.2247 28.0435 46.7932 24.0677 46.9235 18.6247C46.9226 13.8014 46.3373 9.87441 45.8962 7.33736C45.5054 5.30174 43.8596 3.73687 41.7988 3.44245L41.7951 3.44192C37.8746 2.86538 31.7023 2.17812 24.5618 2.17812C16.5361 2.17812 9.83916 3.06152 7.33239 3.44134L7.32477 3.44245C5.26393 3.73687 3.61812 5.30179 3.22726 7.3374C2.81114 9.73226 2.31582 13.6343 2.31582 18.6356C2.31582 23.6368 2.81114 27.5389 3.22726 29.9337Z" fill="#060517"/>
<path d="M19.9316 26.7394V10.5317L33.8239 18.6356L19.9316 26.7394Z" fill="#060517"/>
</g>
<defs>
<clipPath id="clip0_97_10251">
<rect width="48.2393" height="36.5465" fill="white" transform="translate(0.5 0.362305)"/>
</clipPath>
</defs>
</svg>
