<svg width="141" height="23" viewBox="0 0 141 23" fill="none" xmlns="http://www.w3.org/2000/svg">
<g clip-path="url(#clip0_125_3269)">
<path d="M0.98 17V6.92H6.951V8.383H2.443V11.225H6.111V12.695H2.443V17H0.98ZM12.4194 17.21C11.4114 17.21 10.5528 16.9907 9.84342 16.552C9.13409 16.1087 8.59042 15.4927 8.21242 14.704C7.83909 13.9153 7.65242 13.0007 7.65242 11.96C7.65242 10.9193 7.83909 10.0047 8.21242 9.216C8.59042 8.42733 9.13409 7.81367 9.84342 7.375C10.5528 6.93167 11.4114 6.71 12.4194 6.71C13.4228 6.71 14.2791 6.93167 14.9884 7.375C15.7024 7.81367 16.2461 8.42733 16.6194 9.216C16.9928 10.0047 17.1794 10.9193 17.1794 11.96C17.1794 13.0007 16.9928 13.9153 16.6194 14.704C16.2461 15.4927 15.7024 16.1087 14.9884 16.552C14.2791 16.9907 13.4228 17.21 12.4194 17.21ZM12.4194 15.817C13.1334 15.8263 13.7261 15.67 14.1974 15.348C14.6734 15.0213 15.0304 14.5687 15.2684 13.99C15.5064 13.4067 15.6254 12.73 15.6254 11.96C15.6254 11.19 15.5064 10.518 15.2684 9.944C15.0304 9.36533 14.6734 8.915 14.1974 8.593C13.7261 8.271 13.1334 8.10767 12.4194 8.103C11.7054 8.09367 11.1104 8.25 10.6344 8.572C10.1631 8.894 9.80842 9.34667 9.57042 9.93C9.33242 10.5133 9.21109 11.19 9.20642 11.96C9.20176 12.73 9.31842 13.4043 9.55642 13.983C9.79442 14.557 10.1514 15.005 10.6274 15.327C11.1081 15.649 11.7054 15.8123 12.4194 15.817ZM18.7157 17V6.92H20.1787V15.621H24.7427V17H18.7157ZM26.0712 17V6.92H27.5342V15.621H32.0982V17H26.0712ZM37.2202 17.21C36.2122 17.21 35.3535 16.9907 34.6442 16.552C33.9349 16.1087 33.3912 15.4927 33.0132 14.704C32.6399 13.9153 32.4532 13.0007 32.4532 11.96C32.4532 10.9193 32.6399 10.0047 33.0132 9.216C33.3912 8.42733 33.9349 7.81367 34.6442 7.375C35.3535 6.93167 36.2122 6.71 37.2202 6.71C38.2235 6.71 39.0799 6.93167 39.7892 7.375C40.5032 7.81367 41.0469 8.42733 41.4202 9.216C41.7935 10.0047 41.9802 10.9193 41.9802 11.96C41.9802 13.0007 41.7935 13.9153 41.4202 14.704C41.0469 15.4927 40.5032 16.1087 39.7892 16.552C39.0799 16.9907 38.2235 17.21 37.2202 17.21ZM37.2202 15.817C37.9342 15.8263 38.5269 15.67 38.9982 15.348C39.4742 15.0213 39.8312 14.5687 40.0692 13.99C40.3072 13.4067 40.4262 12.73 40.4262 11.96C40.4262 11.19 40.3072 10.518 40.0692 9.944C39.8312 9.36533 39.4742 8.915 38.9982 8.593C38.5269 8.271 37.9342 8.10767 37.2202 8.103C36.5062 8.09367 35.9112 8.25 35.4352 8.572C34.9639 8.894 34.6092 9.34667 34.3712 9.93C34.1332 10.5133 34.0119 11.19 34.0072 11.96C34.0025 12.73 34.1192 13.4043 34.3572 13.983C34.5952 14.557 34.9522 15.005 35.4282 15.327C35.9089 15.649 36.5062 15.8123 37.2202 15.817ZM45.0877 17L42.1617 6.92H43.6947L45.8157 14.543L47.9367 6.927L49.4767 6.92L51.5977 14.543L53.7187 6.92H55.2587L52.3257 17H50.8697L48.7067 9.461L46.5437 17H45.0877ZM63.2539 17.21C62.4652 17.21 61.7675 17.049 61.1609 16.727C60.5589 16.4003 60.0875 15.9453 59.7469 15.362C59.4062 14.774 59.2359 14.0833 59.2359 13.29V6.927L60.7199 6.92V13.213C60.7199 13.6423 60.7922 14.0203 60.9369 14.347C61.0815 14.6737 61.2752 14.9467 61.5179 15.166C61.7605 15.3853 62.0312 15.551 62.3299 15.663C62.6332 15.775 62.9412 15.831 63.2539 15.831C63.5712 15.831 63.8792 15.775 64.1779 15.663C64.4812 15.5463 64.7542 15.3783 64.9969 15.159C65.2395 14.9397 65.4309 14.6667 65.5709 14.34C65.7155 14.0133 65.7879 13.6377 65.7879 13.213V6.92H67.2719V13.29C67.2719 14.0787 67.1015 14.767 66.7609 15.355C66.4202 15.943 65.9465 16.4003 65.3399 16.727C64.7379 17.049 64.0425 17.21 63.2539 17.21ZM72.4602 17.21C71.7368 17.21 71.0835 17.0863 70.5002 16.839C69.9215 16.587 69.4432 16.23 69.0652 15.768C68.6918 15.3013 68.4492 14.7483 68.3372 14.109L69.8632 13.878C70.0172 14.494 70.3392 14.9747 70.8292 15.32C71.3192 15.6607 71.8908 15.831 72.5442 15.831C72.9502 15.831 73.3235 15.768 73.6642 15.642C74.0048 15.5113 74.2778 15.327 74.4832 15.089C74.6932 14.8463 74.7982 14.557 74.7982 14.221C74.7982 14.039 74.7655 13.878 74.7002 13.738C74.6395 13.598 74.5532 13.4767 74.4412 13.374C74.3338 13.2667 74.2008 13.1757 74.0422 13.101C73.8882 13.0217 73.7178 12.954 73.5312 12.898L70.9482 12.135C70.6962 12.0603 70.4395 11.9647 70.1782 11.848C69.9168 11.7267 69.6765 11.5703 69.4572 11.379C69.2425 11.183 69.0675 10.9427 68.9322 10.658C68.7968 10.3687 68.7292 10.0187 68.7292 9.608C68.7292 8.98733 68.8878 8.46233 69.2052 8.033C69.5272 7.599 69.9612 7.27233 70.5072 7.053C71.0532 6.829 71.6645 6.717 72.3412 6.717C73.0225 6.72633 73.6315 6.84767 74.1682 7.081C74.7095 7.31433 75.1575 7.65033 75.5122 8.089C75.8715 8.523 76.1188 9.05033 76.2542 9.671L74.6862 9.937C74.6162 9.559 74.4668 9.23467 74.2382 8.964C74.0095 8.68867 73.7295 8.47867 73.3982 8.334C73.0668 8.18467 72.7075 8.10767 72.3202 8.103C71.9468 8.09367 71.6038 8.14967 71.2912 8.271C70.9832 8.39233 70.7358 8.56267 70.5492 8.782C70.3672 9.00133 70.2762 9.25333 70.2762 9.538C70.2762 9.818 70.3578 10.0443 70.5212 10.217C70.6845 10.3897 70.8852 10.5273 71.1232 10.63C71.3658 10.728 71.6062 10.8097 71.8442 10.875L73.7062 11.4C73.9395 11.4653 74.2032 11.554 74.4972 11.666C74.7958 11.7733 75.0828 11.925 75.3582 12.121C75.6382 12.317 75.8692 12.5783 76.0512 12.905C76.2332 13.227 76.3242 13.633 76.3242 14.123C76.3242 14.6317 76.2215 15.0797 76.0162 15.467C75.8108 15.8497 75.5285 16.1717 75.1692 16.433C74.8145 16.6897 74.4038 16.8833 73.9372 17.014C73.4705 17.1447 72.9782 17.21 72.4602 17.21Z" fill="#BCF636"/>
<rect x="132.791" y="14.791" width="2.4477" height="2.4477" transform="rotate(-90 132.791 14.791)" fill="#BCF636"/>
<rect x="132.791" y="5" width="2.4477" height="2.4477" transform="rotate(-90 132.791 5)" fill="#BCF636"/>
<rect x="135.238" y="12.3438" width="2.4477" height="2.4477" transform="rotate(-90 135.238 12.3438)" fill="#BCF636"/>
<rect x="135.238" y="7.44824" width="2.4477" height="2.4477" transform="rotate(-90 135.238 7.44824)" fill="#BCF636"/>
<rect x="137.688" y="9.89551" width="2.4477" height="2.4477" transform="rotate(-90 137.688 9.89551)" fill="#BCF636"/>
</g>
<defs>
<clipPath id="clip0_125_3269">
<rect width="140.134" height="23" fill="white"/>
</clipPath>
</defs>
</svg>
