<svg width="141" height="23" viewBox="0 0 141 23" fill="none" xmlns="http://www.w3.org/2000/svg">
<g clip-path="url(#clip0_125_3267)">
<path d="M3.346 17L0.07 6.92H1.589L4.382 15.523L7.21 6.92H8.729L5.453 17H3.346ZM9.92469 17V6.92H11.3877V17H9.92469ZM13.4898 17V6.92H19.9298V8.299H14.9528V11.127H19.0898V12.506H14.9528V15.621H19.9298V17H13.4898ZM23.7459 17L20.8199 6.92H22.3529L24.4739 14.543L26.5949 6.927L28.1349 6.92L30.2559 14.543L32.3769 6.92H33.9169L30.9839 17H29.5279L27.3649 9.461L25.2019 17H23.7459ZM42.1011 17.21C41.0931 17.21 40.2344 16.9907 39.5251 16.552C38.8157 16.1087 38.2721 15.4927 37.8941 14.704C37.5207 13.9153 37.3341 13.0007 37.3341 11.96C37.3341 10.9193 37.5207 10.0047 37.8941 9.216C38.2721 8.42733 38.8157 7.81367 39.5251 7.375C40.2344 6.93167 41.0931 6.71 42.1011 6.71C43.1044 6.71 43.9607 6.93167 44.6701 7.375C45.3841 7.81367 45.9277 8.42733 46.3011 9.216C46.6744 10.0047 46.8611 10.9193 46.8611 11.96C46.8611 13.0007 46.6744 13.9153 46.3011 14.704C45.9277 15.4927 45.3841 16.1087 44.6701 16.552C43.9607 16.9907 43.1044 17.21 42.1011 17.21ZM42.1011 15.817C42.8151 15.8263 43.4077 15.67 43.8791 15.348C44.3551 15.0213 44.7121 14.5687 44.9501 13.99C45.1881 13.4067 45.3071 12.73 45.3071 11.96C45.3071 11.19 45.1881 10.518 44.9501 9.944C44.7121 9.36533 44.3551 8.915 43.8791 8.593C43.4077 8.271 42.8151 8.10767 42.1011 8.103C41.3871 8.09367 40.7921 8.25 40.3161 8.572C39.8447 8.894 39.4901 9.34667 39.2521 9.93C39.0141 10.5133 38.8927 11.19 38.8881 11.96C38.8834 12.73 39.0001 13.4043 39.2381 13.983C39.4761 14.557 39.8331 15.005 40.3091 15.327C40.7897 15.649 41.3871 15.8123 42.1011 15.817ZM48.2573 17V6.92H52.3313C52.4293 6.92 52.5507 6.92467 52.6953 6.934C52.84 6.93867 52.9777 6.95267 53.1083 6.976C53.6683 7.06467 54.135 7.256 54.5083 7.55C54.8863 7.844 55.1687 8.215 55.3553 8.663C55.542 9.111 55.6353 9.60567 55.6353 10.147C55.6353 10.693 55.542 11.19 55.3553 11.638C55.1687 12.086 54.8863 12.457 54.5083 12.751C54.135 13.045 53.6683 13.2363 53.1083 13.325C52.9777 13.3437 52.8377 13.3577 52.6883 13.367C52.5437 13.3763 52.4247 13.381 52.3313 13.381H49.7203V17H48.2573ZM49.7203 11.995H52.2753C52.3687 11.995 52.4713 11.9903 52.5833 11.981C52.7 11.9717 52.8097 11.9553 52.9123 11.932C53.211 11.862 53.4513 11.7337 53.6333 11.547C53.8153 11.3557 53.946 11.1363 54.0253 10.889C54.1047 10.6417 54.1443 10.3943 54.1443 10.147C54.1443 9.89967 54.1047 9.65467 54.0253 9.412C53.946 9.16467 53.8153 8.94767 53.6333 8.761C53.4513 8.56967 53.211 8.439 52.9123 8.369C52.8097 8.341 52.7 8.32233 52.5833 8.313C52.4713 8.30367 52.3687 8.299 52.2753 8.299H49.7203V11.995ZM57.0347 17V6.92H63.4747V8.299H58.4977V11.127H62.6347V12.506H58.4977V15.621H63.4747V17H57.0347ZM65.1558 17V6.92H66.6398L71.6028 14.41V6.92H73.0868V17H71.6028L66.6398 9.503V17H65.1558ZM77.8433 17V6.92H81.9173C82.0153 6.92 82.1366 6.92467 82.2813 6.934C82.4259 6.93867 82.5636 6.95267 82.6943 6.976C83.2543 7.06467 83.7209 7.256 84.0943 7.55C84.4723 7.844 84.7546 8.215 84.9413 8.663C85.1279 9.111 85.2213 9.60567 85.2213 10.147C85.2213 10.9497 85.0159 11.6427 84.6053 12.226C84.1946 12.8047 83.5786 13.1663 82.7573 13.311L82.1623 13.381H79.3063V17H77.8433ZM83.7373 17L81.7493 12.898L83.2263 12.52L85.4103 17H83.7373ZM79.3063 11.995H81.8613C81.9546 11.995 82.0573 11.9903 82.1693 11.981C82.2859 11.9717 82.3956 11.9553 82.4983 11.932C82.7969 11.862 83.0373 11.7337 83.2193 11.547C83.4013 11.3557 83.5319 11.1363 83.6113 10.889C83.6906 10.6417 83.7303 10.3943 83.7303 10.147C83.7303 9.89967 83.6906 9.65467 83.6113 9.412C83.5319 9.16467 83.4013 8.94767 83.2193 8.761C83.0373 8.56967 82.7969 8.439 82.4983 8.369C82.3956 8.341 82.2859 8.32233 82.1693 8.313C82.0573 8.30367 81.9546 8.299 81.8613 8.299H79.3063V11.995ZM91.1558 17.21C90.1478 17.21 89.2891 16.9907 88.5798 16.552C87.8704 16.1087 87.3268 15.4927 86.9488 14.704C86.5754 13.9153 86.3888 13.0007 86.3888 11.96C86.3888 10.9193 86.5754 10.0047 86.9488 9.216C87.3268 8.42733 87.8704 7.81367 88.5798 7.375C89.2891 6.93167 90.1478 6.71 91.1558 6.71C92.1591 6.71 93.0154 6.93167 93.7248 7.375C94.4388 7.81367 94.9824 8.42733 95.3558 9.216C95.7291 10.0047 95.9158 10.9193 95.9158 11.96C95.9158 13.0007 95.7291 13.9153 95.3558 14.704C94.9824 15.4927 94.4388 16.1087 93.7248 16.552C93.0154 16.9907 92.1591 17.21 91.1558 17.21ZM91.1558 15.817C91.8698 15.8263 92.4624 15.67 92.9338 15.348C93.4098 15.0213 93.7668 14.5687 94.0048 13.99C94.2428 13.4067 94.3618 12.73 94.3618 11.96C94.3618 11.19 94.2428 10.518 94.0048 9.944C93.7668 9.36533 93.4098 8.915 92.9338 8.593C92.4624 8.271 91.8698 8.10767 91.1558 8.103C90.4418 8.09367 89.8468 8.25 89.3708 8.572C88.8994 8.894 88.5448 9.34667 88.3068 9.93C88.0688 10.5133 87.9474 11.19 87.9428 11.96C87.9381 12.73 88.0548 13.4043 88.2928 13.983C88.5308 14.557 88.8878 15.005 89.3638 15.327C89.8444 15.649 90.4418 15.8123 91.1558 15.817ZM97.452 17V6.92H98.915V15.621H103.479V17H97.452ZM104.668 17V6.92H111.108V8.299H106.131V11.127H110.268V12.506H106.131V15.621H111.108V17H104.668ZM116.251 17.21C115.528 17.21 114.875 17.0863 114.291 16.839C113.713 16.587 113.234 16.23 112.856 15.768C112.483 15.3013 112.24 14.7483 112.128 14.109L113.654 13.878C113.808 14.494 114.13 14.9747 114.62 15.32C115.11 15.6607 115.682 15.831 116.335 15.831C116.741 15.831 117.115 15.768 117.455 15.642C117.796 15.5113 118.069 15.327 118.274 15.089C118.484 14.8463 118.589 14.557 118.589 14.221C118.589 14.039 118.557 13.878 118.491 13.738C118.431 13.598 118.344 13.4767 118.232 13.374C118.125 13.2667 117.992 13.1757 117.833 13.101C117.679 13.0217 117.509 12.954 117.322 12.898L114.739 12.135C114.487 12.0603 114.231 11.9647 113.969 11.848C113.708 11.7267 113.468 11.5703 113.248 11.379C113.034 11.183 112.859 10.9427 112.723 10.658C112.588 10.3687 112.52 10.0187 112.52 9.608C112.52 8.98733 112.679 8.46233 112.996 8.033C113.318 7.599 113.752 7.27233 114.298 7.053C114.844 6.829 115.456 6.717 116.132 6.717C116.814 6.72633 117.423 6.84767 117.959 7.081C118.501 7.31433 118.949 7.65033 119.303 8.089C119.663 8.523 119.91 9.05033 120.045 9.671L118.477 9.937C118.407 9.559 118.258 9.23467 118.029 8.964C117.801 8.68867 117.521 8.47867 117.189 8.334C116.858 8.18467 116.499 8.10767 116.111 8.103C115.738 8.09367 115.395 8.14967 115.082 8.271C114.774 8.39233 114.527 8.56267 114.34 8.782C114.158 9.00133 114.067 9.25333 114.067 9.538C114.067 9.818 114.149 10.0443 114.312 10.217C114.476 10.3897 114.676 10.5273 114.914 10.63C115.157 10.728 115.397 10.8097 115.635 10.875L117.497 11.4C117.731 11.4653 117.994 11.554 118.288 11.666C118.587 11.7733 118.874 11.925 119.149 12.121C119.429 12.317 119.66 12.5783 119.842 12.905C120.024 13.227 120.115 13.633 120.115 14.123C120.115 14.6317 120.013 15.0797 119.807 15.467C119.602 15.8497 119.32 16.1717 118.96 16.433C118.606 16.6897 118.195 16.8833 117.728 17.014C117.262 17.1447 116.769 17.21 116.251 17.21Z" fill="#BCF636"/>
<rect x="132.791" y="14.791" width="2.4477" height="2.4477" transform="rotate(-90 132.791 14.791)" fill="#BCF636"/>
<rect x="132.791" y="5" width="2.4477" height="2.4477" transform="rotate(-90 132.791 5)" fill="#BCF636"/>
<rect x="135.238" y="12.3438" width="2.4477" height="2.4477" transform="rotate(-90 135.238 12.3438)" fill="#BCF636"/>
<rect x="135.238" y="7.44824" width="2.4477" height="2.4477" transform="rotate(-90 135.238 7.44824)" fill="#BCF636"/>
<rect x="137.688" y="9.89551" width="2.4477" height="2.4477" transform="rotate(-90 137.688 9.89551)" fill="#BCF636"/>
</g>
<defs>
<clipPath id="clip0_125_3267">
<rect width="140.134" height="23" fill="white"/>
</clipPath>
</defs>
</svg>
