<svg width="296" height="601" viewBox="0 0 296 601" fill="none" xmlns="http://www.w3.org/2000/svg">
<g clip-path="url(#clip0_121_4216)">
<path fill-rule="evenodd" clip-rule="evenodd" d="M182.111 592.74C182.111 597.087 185.635 600.611 189.982 600.611C193.946 600.611 197.226 597.682 197.774 593.87L266.21 592.444C266.892 596.097 270.097 598.862 273.947 598.862C278.295 598.862 281.819 595.338 281.819 590.99C281.819 586.643 278.295 583.119 273.947 583.119C272.696 583.119 271.512 583.411 270.461 583.931L243.671 546.685C245.085 545.262 245.959 543.301 245.959 541.136C245.959 538.454 244.618 536.085 242.569 534.664L257.929 502.101C258.826 502.457 259.804 502.652 260.828 502.652C265.175 502.652 268.7 499.128 268.7 494.781C268.7 491.285 266.421 488.321 263.267 487.294L271.464 456.263C271.706 456.285 271.951 456.297 272.198 456.297C276.546 456.297 280.07 452.772 280.07 448.425C280.07 444.077 276.546 440.553 272.198 440.553C272.028 440.553 271.859 440.559 271.692 440.569L263.043 403.503C266.312 402.546 268.7 399.525 268.7 395.947C268.7 391.997 265.79 388.726 261.998 388.161L266.705 339.07C270.758 338.75 273.947 335.359 273.947 331.223C273.947 327.509 271.374 324.395 267.913 323.567L272.994 243.72C276.968 243.321 280.07 239.967 280.07 235.888C280.07 232.541 277.98 229.681 275.034 228.543L288.149 165.04C292.401 164.93 295.813 161.449 295.813 157.171C295.813 152.92 292.443 149.456 288.229 149.305L268.892 88.4307C271.849 87.2976 273.947 84.4328 273.947 81.0779C273.947 76.8704 270.646 73.434 266.493 73.217V39.0845C270.646 38.8675 273.947 35.431 273.947 31.2236C273.947 26.8762 270.423 23.3519 266.076 23.3519C261.728 23.3519 258.204 26.8762 258.204 31.2236C258.204 31.5231 258.221 31.8186 258.253 32.1093L188.975 54.4806C187.625 52.0842 185.057 50.4656 182.111 50.4656C178.048 50.4656 174.705 53.5431 174.284 57.4939L121.556 60.9178C120.744 57.4341 117.62 54.8388 113.889 54.8388C111.631 54.8388 109.594 55.79 108.159 57.3137L41.7547 12.8011C42.5696 11.5613 43.0437 10.0776 43.0437 8.48309C43.0437 4.13568 39.5194 0.611389 35.172 0.611389C30.8246 0.611389 27.3003 4.13568 27.3003 8.48309C27.3003 12.1326 29.7838 15.202 33.1529 16.0935L34.5816 81.0997C30.5099 81.4016 27.3003 84.8008 27.3003 88.9496C27.3003 91.9443 28.9726 94.5484 31.4344 95.8791L12.8355 136.283C12.4194 136.215 11.9922 136.18 11.5568 136.18C7.20938 136.18 3.68509 139.704 3.68509 144.052C3.68509 147.805 6.31165 150.944 9.82687 151.733L14.1969 228.208C10.6833 228.998 8.05826 232.136 8.05826 235.888C8.05826 239.407 10.3671 242.387 13.5524 243.395L8.62439 277.891C8.43741 277.877 8.24863 277.871 8.05826 277.871C3.71085 277.871 0.186554 281.395 0.186554 285.742C0.186554 290.09 3.71085 293.614 8.05826 293.614C8.47604 293.614 8.88623 293.581 9.28641 293.519L15.7281 326.898C13.246 328.223 11.5568 330.838 11.5568 333.848C11.5568 337.25 13.7153 340.148 16.7375 341.247L8.19165 448.459C4.19183 448.833 1.06119 452.199 1.06119 456.297C1.06119 460.644 4.58548 464.168 8.93289 464.168C9.19525 464.168 9.45465 464.156 9.71042 464.13L19.1627 503.2C16.245 504.352 14.1807 507.197 14.1807 510.524C14.1807 514.871 17.705 518.396 22.0524 518.396C24.2051 518.396 26.156 517.532 27.5771 516.131L86.1772 566.773C85.447 567.968 85.0262 569.372 85.0262 570.874C85.0262 575.221 88.5505 578.746 92.8979 578.746C96.1957 578.746 99.0199 576.718 100.191 573.841L182.123 592.294C182.115 592.441 182.111 592.59 182.111 592.74ZM183.902 587.74C183.402 588.348 182.991 589.032 182.689 589.773L100.757 571.319C100.765 571.172 100.77 571.023 100.77 570.874C100.77 569.699 100.512 568.583 100.05 567.582L136.178 543.067C137.611 544.572 139.635 545.509 141.878 545.509C143.394 545.509 144.81 545.081 146.012 544.338L183.902 587.74ZM189.606 584.877C188.232 584.941 186.95 585.359 185.848 586.04L147.958 542.638C148.943 541.44 149.582 539.947 149.721 538.311L189.339 535.167C190.015 537.889 192.107 540.052 194.789 540.827L189.606 584.877ZM194.333 586.178C193.675 585.742 192.949 585.401 192.173 585.177L197.355 541.127C200.58 540.976 203.296 538.885 204.365 535.994L230.218 540.945C230.216 541.008 230.216 541.072 230.216 541.136C230.216 542.943 230.824 544.607 231.847 545.935L194.333 586.178ZM197.72 591.286C197.488 590.044 196.964 588.904 196.222 587.941L233.737 547.698C234.983 548.526 236.479 549.008 238.087 549.008C239.339 549.008 240.523 548.716 241.574 548.196L268.364 585.441C267.201 586.612 266.403 588.147 266.156 589.86L197.72 591.286ZM232.314 535.785C231.617 536.537 231.065 537.426 230.702 538.406L204.849 533.456C204.851 533.392 204.851 533.328 204.851 533.265C204.851 529.728 202.519 526.736 199.309 525.743L202.459 502.646C203.713 502.594 204.892 502.248 205.928 501.676L232.314 535.785ZM240.232 533.56C239.55 533.368 238.831 533.265 238.087 533.265C236.738 533.265 235.467 533.604 234.357 534.203L207.956 500.074C208.952 498.978 209.643 497.599 209.895 496.072H253.062C253.369 497.936 254.332 499.579 255.705 500.758L240.232 533.56ZM260.696 486.91C256.848 486.973 253.671 489.798 253.062 493.488H209.895C209.787 492.834 209.599 492.207 209.34 491.618L266.438 453.79C267.147 454.551 268.005 455.171 268.965 455.604L260.696 486.91ZM264.329 448.209C264.327 448.281 264.326 448.353 264.326 448.425C264.326 449.569 264.571 450.656 265.01 451.637L207.926 489.455C206.487 487.89 204.423 486.909 202.129 486.909C201.489 486.909 200.868 486.985 200.272 487.129L177.97 436.442C179.448 435.374 180.54 433.806 180.998 431.985L264.329 448.209ZM269.175 441.155C267.169 441.99 265.584 443.63 264.821 445.672L181.208 429.394C181.164 428.864 181.068 428.349 180.924 427.855L215.464 415.519C216.81 417.931 219.386 419.562 222.344 419.562C226.691 419.562 230.216 416.038 230.216 411.69C230.216 411.068 230.144 410.463 230.007 409.883L253.987 399.845C255.286 402.119 257.686 403.683 260.461 403.81L269.175 441.155ZM252.956 395.953C252.957 396.453 253.004 396.943 253.093 397.417L229.009 407.499C227.615 405.288 225.151 403.818 222.344 403.818C219.755 403.818 217.457 405.069 216.023 406.999L160.871 378.734L252.956 395.953ZM259.398 388.205C256.579 388.722 254.285 390.741 253.377 393.402L160.212 375.981C160.16 375.41 160.047 374.857 159.879 374.327L259.754 335.914C260.816 337.344 262.352 338.401 264.13 338.853L259.398 388.205ZM258.237 330.503C258.215 330.74 258.204 330.981 258.204 331.223C258.204 332.052 258.332 332.851 258.569 333.601L158.695 372.014C158.287 371.465 157.809 370.971 157.275 370.545L193.693 313.417C194.901 314.171 196.327 314.606 197.854 314.606C200.938 314.606 203.608 312.832 204.9 310.249L258.237 330.503ZM265.335 323.386C262.46 323.654 260.034 325.469 258.897 327.99L205.658 307.773C205.703 307.433 205.726 307.086 205.726 306.734C205.726 304.404 204.714 302.311 203.105 300.869L217.755 284.267C219.047 285.195 220.631 285.742 222.344 285.742C226.691 285.742 230.216 282.218 230.216 277.871C230.216 276.152 229.665 274.561 228.73 273.267L267.018 241.816C267.974 242.652 269.135 243.261 270.415 243.557L265.335 323.386ZM267.435 229.621C265.546 231.059 264.326 233.331 264.326 235.888C264.326 237.32 264.709 238.663 265.377 239.819L226.884 271.439C226.397 271.095 225.869 270.804 225.309 270.576L238.527 177.276C238.947 177.253 239.359 177.196 239.76 177.11L267.435 229.621ZM272.503 228.023C272.402 228.019 272.3 228.017 272.198 228.017C271.332 228.017 270.499 228.157 269.72 228.415L242.173 176.146C244.264 174.874 245.715 172.655 245.931 170.084L280.387 159.391C281.125 161.907 283.087 163.901 285.584 164.684L272.503 228.023ZM281.277 152.98C280.578 154.09 280.148 155.388 280.079 156.78L245.711 167.446C244.836 164.052 241.755 161.544 238.087 161.544C237.045 161.544 236.05 161.747 235.139 162.115L216.516 123.667C217.961 123.28 219.242 122.491 220.232 121.428L281.277 152.98ZM285.626 149.646C284.684 149.935 283.817 150.397 283.063 150.994L221.667 119.261C222.102 118.284 222.344 117.202 222.344 116.063C222.344 114.216 221.707 112.516 220.641 111.173L261.852 87.7215C263.072 88.4991 264.521 88.9496 266.076 88.9496C266.166 88.9496 266.255 88.9481 266.344 88.9451L285.626 149.646ZM263.909 73.5081C260.615 74.4492 258.204 77.4819 258.204 81.0779C258.204 82.8901 258.816 84.5594 259.846 85.8899L218.602 109.361C218.045 109.017 217.442 108.74 216.804 108.543L262.283 38.1231C262.793 38.4041 263.338 38.6301 263.909 38.7933V73.5081ZM258.961 34.5962C259.295 35.2988 259.729 35.9443 260.246 36.5136L213.943 108.209C212.326 108.316 210.843 108.912 209.639 109.85L186.21 65.0587C188.472 63.676 189.982 61.183 189.982 58.3373C189.982 57.8507 189.938 57.3743 189.854 56.9121L258.961 34.5962ZM179.794 65.8625C180.526 66.0878 181.304 66.209 182.111 66.209C182.691 66.209 183.256 66.1463 183.8 66.0273L207.793 111.896C207.163 112.904 206.754 114.065 206.636 115.312L158.856 131.714C158.135 130.669 157.168 129.807 156.038 129.212L179.794 65.8625ZM174.431 60.0738C174.856 61.9614 175.959 63.5923 177.471 64.6971L153.582 128.401C153.188 128.34 152.784 128.308 152.373 128.308C151.647 128.308 150.944 128.407 150.276 128.591L118.668 68.9663C120.353 67.6774 121.501 65.7234 121.722 63.4965L174.431 60.0738ZM111.88 70.3235C112.521 70.4923 113.195 70.5822 113.889 70.5822C113.994 70.5822 114.099 70.5801 114.203 70.576L135.097 171.177L95.124 119.36C97.4551 117.994 99.0204 115.462 99.0204 112.565C99.0204 109.934 97.7297 107.604 95.7469 106.175L111.88 70.3235ZM106.718 59.459C106.268 60.4501 106.017 61.5511 106.017 62.7105C106.017 65.4432 107.41 67.8506 109.524 69.262L93.4291 105.028C92.7073 104.81 91.9417 104.693 91.1486 104.693C89.5654 104.693 88.0913 105.16 86.8569 105.965L38.95 15.3907C39.3099 15.1934 39.6528 14.9688 39.9758 14.7196L106.718 59.459ZM35.743 16.3345C35.9918 16.3167 36.2375 16.2872 36.4795 16.2468L84.8952 107.783C84.2834 108.582 83.8212 109.502 83.5505 110.5L42.8263 90.7946C42.9684 90.2028 43.0437 89.585 43.0437 88.9496C43.0437 85.2931 40.5506 82.2189 37.1715 81.3341L35.743 16.3345ZM33.8929 96.7179C34.3092 96.7859 34.7365 96.8213 35.172 96.8213C37.9641 96.8213 40.4168 95.3675 41.8142 93.1757L83.3065 113.253C83.3931 114.252 83.6665 115.198 84.0916 116.056L18.2632 139.928C17.5385 138.752 16.5131 137.781 15.2942 137.122L33.8929 96.7179ZM18.7205 147.319C19.1752 146.324 19.4285 145.217 19.4285 144.052C19.4285 143.458 19.3628 142.879 19.2382 142.323L85.6816 118.228C86.5965 119.112 87.7249 119.775 88.9819 120.134V189.013L18.7205 147.319ZM12.4234 151.876C14.3257 151.668 16.0242 150.782 17.2722 149.465L87.7524 191.288L21.9236 230.785C20.6519 229.293 18.8327 228.282 16.7769 228.062L12.4234 151.876ZM23.4724 233.628C23.4085 233.415 23.3359 233.205 23.2549 233L87.0673 194.713L73.9221 220.405C73.2789 220.236 72.6033 220.145 71.9067 220.145C67.5592 220.145 64.0349 223.669 64.0349 228.017C64.0349 228.171 64.0394 228.324 64.0481 228.476L23.4724 233.628ZM21.4543 241.496C22.8363 240.134 23.7173 238.266 23.796 236.192L64.623 231.007C65.2742 232.592 66.4273 233.917 67.8844 234.785L49.6768 294.505C49.508 294.495 49.3377 294.489 49.1661 294.489C48.6506 294.489 48.1465 294.539 47.6586 294.633L21.4543 241.496ZM16.1108 243.758C17.2554 243.732 18.3398 243.462 19.3137 242.998L45.2266 295.544C44.5569 295.932 43.9496 296.416 43.4236 296.977L15.9161 286.213C15.9253 286.057 15.93 285.9 15.93 285.742C15.93 282.492 13.9594 279.701 11.1477 278.5L16.1108 243.758ZM11.7586 292.692C13.3594 291.838 14.6304 290.447 15.3312 288.759L41.9634 299.18C41.5333 300.153 41.2944 301.229 41.2944 302.361C41.2944 303.789 41.6748 305.128 42.3398 306.283L23.5965 327.169C22.3878 326.413 20.9592 325.976 19.4285 325.976C19.0107 325.976 18.6005 326.008 18.2003 326.071L11.7586 292.692ZM27.2625 333.071C27.1076 331.49 26.4846 330.045 25.534 328.879L44.001 308.301C45.3834 309.504 47.1897 310.232 49.1661 310.232C51.4084 310.232 53.4317 309.295 54.8654 307.791L77.1513 328.903C76.629 329.55 76.2068 330.28 75.9086 331.072L27.2625 333.071ZM24.9424 339.466C25.984 338.443 26.7426 337.133 27.0896 335.664L75.407 333.679C75.4058 333.735 75.4052 333.791 75.4052 333.848C75.4052 336.772 77.0002 339.324 79.3678 340.682L71.2837 381.102C69.638 381.231 68.1345 381.866 66.9287 382.852L24.9424 339.466ZM19.2923 341.718C19.3376 341.719 19.383 341.719 19.4285 341.719C20.6337 341.719 21.7756 341.449 22.7968 340.964L65.2171 384.799C64.4677 386.004 64.0349 387.426 64.0349 388.95C64.0349 391.147 64.9354 393.134 66.3874 394.562L12.8995 449.496C12.244 449.113 11.5281 448.822 10.7695 448.64L19.2923 341.718ZM16.7974 456.636C16.8022 456.524 16.8046 456.41 16.8046 456.297C16.8046 454.331 16.0839 452.533 14.8922 451.153L68.5324 396.064C69.555 396.549 70.6991 396.821 71.9067 396.821C73.5096 396.821 75.0007 396.342 76.2444 395.519L99.0303 416.552C98.4651 417.638 98.1457 418.873 98.1457 420.181C98.1457 421.796 98.6317 423.297 99.4653 424.546L60.9218 465.192C59.7757 464.54 58.4502 464.168 57.0379 464.168C54.3099 464.168 51.906 465.556 50.4936 467.664L16.7974 456.636ZM12.2063 463.458C14.0513 462.613 15.5133 461.076 16.2601 459.179L49.4243 470.033C49.2559 470.674 49.1661 471.346 49.1661 472.04C49.1661 473.556 49.5946 474.972 50.3371 476.173L24.1765 502.942C23.5008 502.753 22.7884 502.652 22.0524 502.652C21.9312 502.652 21.8107 502.655 21.6909 502.66L12.2063 463.458ZM29.9236 510.431C29.8934 507.831 28.6033 505.535 26.6354 504.123L52.0432 478.125C53.4021 479.241 55.1417 479.912 57.0379 479.912C57.6935 479.912 58.3305 479.832 58.9394 479.681L73.1564 516.515C72.5394 517.174 72.0345 517.939 71.672 518.78L29.9236 510.431ZM29.1008 514.033C29.2682 513.697 29.4123 513.348 29.531 512.987L71.0547 521.292C71.0397 521.491 71.032 521.692 71.032 521.894C71.032 525.87 73.9793 529.157 77.8081 529.69L89.2161 563.914C88.7348 564.17 88.2831 564.473 87.8676 564.819L29.1008 514.033ZM98.5976 565.445C97.1639 563.94 95.1404 563.002 92.8979 563.002C92.4794 563.002 92.0686 563.035 91.6678 563.098L80.503 529.603C83.0933 529.069 85.2185 527.262 86.1959 524.864L134.033 536.983C134.015 537.199 134.006 537.417 134.006 537.638C134.006 538.813 134.263 539.928 134.725 540.929L98.5976 565.445ZM147.46 532.088C146.034 530.654 144.06 529.766 141.878 529.766C138.654 529.766 135.883 531.704 134.666 534.478L86.7629 522.342C86.7712 522.194 86.7755 522.045 86.7755 521.894C86.7755 521.309 86.7117 520.74 86.5907 520.191L194.796 497.648C194.88 497.862 194.972 498.071 195.074 498.276L147.46 532.088ZM149.518 535.735C149.384 535.197 149.196 534.682 148.958 534.194L196.587 500.371C197.498 501.274 198.63 501.957 199.894 502.33L196.748 525.396C192.733 525.512 189.472 528.634 189.136 532.591L149.518 535.735ZM194.841 491.801C194.465 492.72 194.257 493.726 194.257 494.781C194.257 494.894 194.26 495.007 194.264 495.119L85.6021 517.757C85.0164 516.811 84.2356 515.998 83.3159 515.374L132.311 462.879C133.551 463.694 135.035 464.168 136.63 464.168C139.447 464.168 141.918 462.689 143.309 460.464L194.841 491.801ZM197.895 488.143C197.263 488.548 196.692 489.04 196.2 489.603L144.306 458.046C144.434 457.483 144.501 456.898 144.501 456.297C144.501 454.954 144.165 453.689 143.572 452.583L167.375 435.166C168.819 436.857 170.966 437.929 173.364 437.929C174.16 437.929 174.928 437.811 175.653 437.592L197.895 488.143ZM169.599 423.143C167.153 424.478 165.493 427.074 165.493 430.058C165.493 431.076 165.686 432.049 166.038 432.942L141.994 450.536C141.402 449.984 140.726 449.523 139.986 449.174L152.055 384.57C152.16 384.574 152.266 384.576 152.373 384.576C153.048 384.576 153.704 384.491 154.329 384.331L169.599 423.143ZM179.794 425.515C178.368 423.501 176.02 422.186 173.364 422.186C172.914 422.186 172.473 422.224 172.043 422.296L156.695 383.285C157.685 382.633 158.52 381.764 159.13 380.745L214.843 409.297C214.602 410.052 214.472 410.856 214.472 411.69C214.472 412.166 214.515 412.632 214.595 413.085L179.794 425.515ZM147.121 382.568C147.82 383.195 148.633 383.699 149.524 384.045L137.488 448.471C137.206 448.441 136.92 448.425 136.63 448.425C135.487 448.425 134.402 448.668 133.422 449.106L111.703 425.626C113.057 424.212 113.889 422.294 113.889 420.181C113.889 418.404 113.3 416.765 112.307 415.447L147.121 382.568ZM144.689 378.421C144.857 379.175 145.133 379.889 145.5 380.544L110.432 413.663C109.173 412.809 107.654 412.31 106.017 412.31C103.915 412.31 102.004 413.134 100.592 414.478L78.1423 393.755C79.1131 392.497 79.7117 390.937 79.7731 389.24L144.689 378.421ZM145.421 373.009C144.965 373.865 144.662 374.816 144.55 375.824L79.4447 386.675C78.6552 384.055 76.5374 382.011 73.8743 381.326L81.8224 341.585C82.2938 341.673 82.78 341.719 83.2769 341.719C85.9943 341.719 88.39 340.342 89.8046 338.248L145.421 373.009ZM155.012 369.286C154.187 368.993 153.299 368.833 152.373 368.833C150.297 368.833 148.409 369.637 147.002 370.95L90.8848 335.876C91.0569 335.229 91.1486 334.549 91.1486 333.848C91.1486 332.981 91.0087 332.147 90.7501 331.368L189.562 306.969L189.986 306.98C190.041 308.76 190.686 310.391 191.734 311.684L155.012 369.286ZM192.709 300.776C191.689 301.658 190.898 302.796 190.437 304.091L189.279 304.377L98.1426 302.136C98.104 300.759 97.7118 299.471 97.0535 298.358L153.524 242.611C154.718 243.34 156.12 243.76 157.621 243.76C158.809 243.76 159.936 243.497 160.946 243.025L192.709 300.776ZM200.893 299.47C199.958 299.079 198.932 298.862 197.854 298.862C196.816 298.862 195.825 299.063 194.917 299.428L163.086 241.554C163.324 241.324 163.547 241.08 163.755 240.822L215.397 274.165C214.807 275.27 214.472 276.531 214.472 277.871C214.472 279.571 215.011 281.145 215.928 282.432L200.893 299.47ZM222.779 270.011C222.635 270.003 222.49 269.999 222.344 269.999C220.271 269.999 218.385 270.8 216.979 272.111L165.025 238.566C165.328 237.73 165.493 236.829 165.493 235.888C165.493 234.671 165.216 233.518 164.723 232.489L234.007 176.149C234.608 176.514 235.263 176.801 235.956 176.996L222.779 270.011ZM231.049 172.946C231.317 173.479 231.644 173.977 232.021 174.433L163.234 230.37C161.806 228.917 159.819 228.017 157.621 228.017C157.38 228.017 157.143 228.027 156.908 228.049L140.659 185.152C140.773 185.157 140.888 185.159 141.003 185.159C144.896 185.159 148.129 182.333 148.762 178.621L231.049 172.946ZM232.926 163.473C231.265 164.916 230.216 167.043 230.216 169.416C230.216 169.752 230.237 170.084 230.278 170.409L148.775 176.03C148.494 174.284 147.64 172.731 146.412 171.569L207.538 119.792C208.761 122.061 211.064 123.661 213.759 123.903L232.926 163.473ZM144.172 170.08L204.901 118.639L159.958 134.067C160.145 134.74 160.245 135.448 160.245 136.18C160.245 140.527 156.721 144.052 152.373 144.052C151.782 144.052 151.206 143.986 150.652 143.863L141.405 169.426C142.386 169.476 143.319 169.704 144.172 170.08ZM138.516 169.817L148.256 142.89C146.003 141.505 144.501 139.018 144.501 136.18C144.501 133.481 145.859 131.1 147.929 129.682L117.001 71.3387L137.537 170.218C137.852 170.063 138.179 169.929 138.516 169.817ZM133.91 173.869L92.5891 120.305C92.2549 120.367 91.9135 120.407 91.566 120.426V189.573L133.148 177.805C133.137 177.634 133.131 177.462 133.131 177.288C133.131 176.063 133.411 174.903 133.91 173.869ZM134.376 181.538L78.9148 224.428C79.4669 225.504 79.7784 226.724 79.7784 228.017C79.7784 228.11 79.7768 228.202 79.7736 228.294L149.999 233.912C150.601 231.585 152.24 229.676 154.394 228.707L137.608 184.392C136.284 183.758 135.164 182.764 134.376 181.538ZM149.772 236.487L79.2549 230.845C78.3765 233.126 76.467 234.894 74.0977 235.579L89.3585 294.542C89.6588 294.507 89.9643 294.489 90.274 294.489C92.2248 294.489 94.0099 295.199 95.3852 296.374L151.563 240.916C150.55 239.696 149.898 238.165 149.772 236.487ZM86.8748 295.259L71.5058 235.878C71.0946 235.858 70.6917 235.806 70.2995 235.724L52.1988 295.094C54.2596 295.956 55.8761 297.668 56.6091 299.792L82.4554 301.441C82.7734 298.708 84.492 296.401 86.8748 295.259ZM82.5815 304.039L57.0377 302.408C57.0309 303.554 56.7795 304.641 56.333 305.621L79.0901 327.181C80.1572 326.509 81.3969 326.087 82.7275 325.995L87.1966 309.608C84.877 308.622 83.1278 306.555 82.5815 304.039ZM89.7102 310.213L85.3369 326.248C87.0078 326.7 88.4583 327.688 89.4923 329.017L179.759 306.728L97.7884 304.712C96.7884 307.911 93.8023 310.232 90.274 310.232C90.0844 310.232 89.8964 310.226 89.7102 310.213ZM77.3739 222.353L130.56 181.223L91.1676 192.372L76.2799 221.471C76.6707 221.732 77.0368 222.028 77.3739 222.353ZM101.235 426.435C102.561 427.45 104.219 428.053 106.017 428.053C107.316 428.053 108.542 427.739 109.622 427.181L131.243 450.556C129.823 451.889 128.898 453.743 128.773 455.814L64.058 468.475C63.7536 467.877 63.375 467.323 62.9342 466.825L101.235 426.435ZM61.3121 478.651C63.4771 477.249 64.9096 474.812 64.9096 472.04C64.9096 471.672 64.8844 471.31 64.8356 470.956L129.041 458.394C129.318 459.4 129.79 460.325 130.413 461.126L80.8229 514.258C80.2086 514.104 79.5657 514.023 78.9037 514.023C77.6052 514.023 76.3801 514.337 75.3004 514.894L61.3121 478.651Z" fill="white"/>
</g>
<defs>
<clipPath id="clip0_121_4216">
<rect width="295.627" height="600" fill="white" transform="translate(0.186584 0.611328)"/>
</clipPath>
</defs>
</svg>
