<svg width="42" height="41" viewBox="0 0 42 41" fill="none" xmlns="http://www.w3.org/2000/svg">
<g clip-path="url(#clip0_121_4230)">
<path d="M35.5415 40.8213H7.01975C5.31491 40.8213 3.71105 40.1709 2.50363 38.9898C1.29064 37.8033 0.62262 36.2241 0.62262 34.5432V6.6404C0.62262 4.95947 1.29064 3.3803 2.50363 2.19381C3.71105 1.01275 5.31491 0.362305 7.01975 0.362305H35.5415C37.2468 0.362305 38.8508 1.01276 40.0581 2.19385C41.2708 3.38023 41.9386 4.95937 41.9386 6.6404V34.5432C41.9386 36.2242 41.2708 37.8034 40.0581 38.9897C38.8508 40.1708 37.2468 40.8213 35.5415 40.8213ZM7.01975 2.18666C4.49831 2.18666 2.44697 4.1846 2.44697 6.6404V34.5432C2.44697 36.999 4.49831 38.9969 7.01975 38.9969H35.5415C38.0629 38.9969 40.1143 36.999 40.1143 34.5432V6.6404C40.1143 4.1846 38.0629 2.18666 35.5415 2.18666H7.01975Z" fill="#060517"/>
<path d="M8.68707 15.5233H13.9342V32.7567H8.68707V15.5233ZM11.2949 13.4959H11.2655C9.69978 13.4959 8.68707 12.3686 8.68707 10.9606C8.68707 9.52207 9.73126 8.42725 11.3254 8.42725C12.9215 8.42725 13.9049 9.52207 13.9342 10.9606C13.9342 12.3676 12.9215 13.4959 11.2949 13.4959ZM33.8735 32.7567H28.6263V23.5328C28.6263 21.3046 27.3408 19.7841 25.2766 19.7841C23.7013 19.7841 22.8492 20.8099 22.4357 21.8014C22.2846 22.1562 22.3297 23.1375 22.3297 23.6332V32.7567H17.0826V15.5233H22.3297V18.1753C23.0864 17.0439 24.2712 15.5233 27.302 15.5233C31.0568 15.5233 33.8725 17.8042 33.8725 22.8972L33.8735 32.7567Z" fill="#060517"/>
</g>
<defs>
<clipPath id="clip0_121_4230">
<rect width="41.316" height="40.459" fill="white" transform="translate(0.62262 0.362305)"/>
</clipPath>
</defs>
</svg>
