<svg width="347" height="125" viewBox="0 0 347 125" fill="none" xmlns="http://www.w3.org/2000/svg">
<g clip-path="url(#clip0_121_4236)">
<path d="M96.6927 18.6917H103.831V15.8312H96.6927V10.3002H105.466V7.45312H93.8456V27.0697H96.6927V18.6917Z" fill="#090015"/>
<rect x="108.642" y="12.3574" width="2.84727" height="14.7126" fill="#090015"/>
<rect x="108.642" y="7.18164" width="2.84727" height="2.76537" fill="#090015"/>
<rect x="116.31" y="7.04492" width="2.84727" height="20.0258" fill="#090015"/>
<path d="M126.634 26.5189C127.738 27.1594 129.02 27.4794 130.482 27.4794C131.908 27.4794 133.203 27.1186 134.365 26.3959C135.528 25.6744 136.395 24.6546 136.967 23.3378L134.174 22.4519C133.811 23.2065 133.304 23.7853 132.655 24.1893C132.006 24.5934 131.236 24.7961 130.346 24.7961C128.993 24.7961 127.958 24.3531 127.24 23.4666C126.647 22.7355 126.303 21.7495 126.2 20.5182H134.31H135.741H137.158C137.267 18.7565 137.06 17.2345 136.538 15.9547C136.016 14.6736 135.228 13.6857 134.174 12.991C133.121 12.2962 131.845 11.9482 130.346 11.9482C128.911 11.9482 127.653 12.2714 126.573 12.9158C125.492 13.5614 124.649 14.4741 124.046 15.6551C123.442 16.8355 123.14 18.2288 123.14 19.8375C123.14 21.3537 123.446 22.6865 124.059 23.835C124.672 24.9848 125.531 25.8783 126.634 26.5189ZM127.24 15.8183C127.958 14.919 129.029 14.469 130.455 14.469C131.744 14.469 132.706 14.8782 133.336 15.6959C133.812 16.3103 134.113 17.1784 134.241 18.2976H126.265C126.416 17.2766 126.738 16.4474 127.24 15.8183Z" fill="#090015"/>
<path d="M143.523 26.4711C144.576 27.1435 145.857 27.4794 147.365 27.4794C148.944 27.4794 150.288 27.0957 151.397 26.3283C152.505 25.5609 153.299 24.4596 153.781 23.0243L150.893 22.3436C150.592 23.1339 150.159 23.7394 149.592 24.1626C149.024 24.5845 148.282 24.7961 147.365 24.7961C146.02 24.7961 145.005 24.3283 144.32 23.3926C143.633 22.457 143.287 21.2314 143.277 19.7138C143.287 18.7336 143.436 17.8617 143.727 17.0981C144.018 16.3358 144.463 15.7342 145.062 15.2937C145.661 14.8533 146.429 14.6328 147.365 14.6328C148.191 14.6328 148.924 14.8622 149.565 15.3211C150.205 15.7794 150.665 16.4212 150.947 17.2485L153.781 16.4314C153.417 15.042 152.665 13.947 151.527 13.1484C150.386 12.3491 149.013 11.9482 147.405 11.9482C145.916 11.9482 144.64 12.2809 143.577 12.9432C142.515 13.6066 141.697 14.5219 141.125 15.6883C140.553 16.8559 140.262 18.1975 140.254 19.7138C140.262 21.2033 140.546 22.5335 141.104 23.7062C141.663 24.8777 142.469 25.7993 143.523 26.4711Z" fill="#090015"/>
<path d="M159.892 26.4851C160.972 27.148 162.248 27.4794 163.719 27.4794C165.182 27.4794 166.453 27.1505 167.534 26.4915C168.615 25.8337 169.452 24.9198 170.047 23.7534C170.642 22.587 170.94 21.2352 170.94 19.7011C170.94 18.1842 170.644 16.8444 170.054 15.6819C169.464 14.5193 168.628 13.6066 167.547 12.9432C166.467 12.2809 165.191 11.9482 163.719 11.9482C162.276 11.9482 161.013 12.2739 159.932 12.9234C158.851 13.5722 158.011 14.4811 157.412 15.6475C156.813 16.8151 156.513 18.1663 156.513 19.7011C156.513 21.2269 156.806 22.573 157.391 23.7394C157.977 24.907 158.81 25.8216 159.892 26.4851ZM159.987 17.065C160.287 16.3065 160.745 15.7112 161.363 15.2804C161.98 14.8482 162.766 14.6328 163.719 14.6328C165.109 14.6328 166.156 15.0936 166.859 16.0152C167.563 16.9375 167.915 18.1663 167.915 19.7011C167.915 21.1995 167.568 22.4232 166.873 23.3716C166.178 24.3213 165.127 24.7961 163.719 24.7961C162.348 24.7961 161.308 24.3321 160.6 23.4054C159.892 22.4799 159.537 21.2447 159.537 19.7011C159.537 18.7017 159.687 17.8228 159.987 17.065Z" fill="#090015"/>
<rect x="174.924" y="12.3574" width="2.84727" height="14.7126" fill="#090015"/>
<rect x="174.924" y="7.18164" width="2.84727" height="2.76537" fill="#090015"/>
<path d="M192.808 27.0708H195.696V18.8973C195.696 18.4423 195.655 17.9158 195.574 17.3167C195.492 16.7176 195.337 16.1044 195.111 15.4773C194.883 14.8508 194.554 14.272 194.123 13.7405C193.691 13.2096 193.131 12.78 192.441 12.453C191.75 12.1261 190.897 11.9629 189.88 11.9629C188.553 11.9629 187.422 12.2491 186.487 12.8208C185.915 13.1713 185.425 13.6066 185.016 14.1248V12.3581H182.468V27.0708H185.357V19.4149C185.357 18.5423 185.454 17.8024 185.65 17.1937C185.844 16.585 186.113 16.0955 186.453 15.7227C186.794 15.3504 187.191 15.0808 187.645 14.9126C188.099 14.7443 188.58 14.6602 189.089 14.6602C189.87 14.6602 190.503 14.8189 190.99 15.1369C191.475 15.455 191.852 15.8724 192.12 16.39C192.388 16.9082 192.57 17.469 192.666 18.0726C192.761 18.6768 192.808 19.2645 192.808 19.8375V27.0708Z" fill="#090015"/>
<path d="M96.6927 48.9648H103.831V46.103H96.6927V40.5727H105.466V37.7256H93.8456V57.3422H96.6927V48.9648Z" fill="#090015"/>
<path d="M110.631 56.7599C111.712 57.4221 112.988 57.7535 114.459 57.7535C115.921 57.7535 117.193 57.4246 118.273 56.7656C119.355 56.1085 120.192 55.1951 120.787 54.0288C121.382 52.8611 121.68 51.5099 121.68 49.9752C121.68 48.4583 121.384 47.1192 120.794 45.9573C120.203 44.7941 119.368 43.882 118.287 43.2179C117.207 42.5551 115.931 42.2236 114.459 42.2236C113.015 42.2236 111.752 42.5487 110.672 43.1982C109.591 43.8476 108.751 44.7559 108.152 45.9229C107.553 47.0892 107.252 48.4404 107.252 49.9752C107.252 51.501 107.546 52.8478 108.131 54.0148C108.717 55.1811 109.55 56.0964 110.631 56.7599ZM110.727 47.3391C111.026 46.5813 111.485 45.986 112.102 45.5551C112.72 45.1236 113.506 44.9069 114.459 44.9069C115.849 44.9069 116.896 45.3684 117.599 46.29C118.303 47.2116 118.655 48.4404 118.655 49.9752C118.655 51.4742 118.307 52.698 117.613 53.6464C116.918 54.5954 115.867 55.0702 114.459 55.0702C113.087 55.0702 112.048 54.6075 111.34 53.6808C110.631 52.7541 110.277 51.5201 110.277 49.9752C110.277 48.9758 110.427 48.0975 110.727 47.3391Z" fill="#090015"/>
<path d="M138.501 57.3436V42.6309H135.626V50.2868C135.626 51.1587 135.528 51.898 135.334 52.5074C135.138 53.116 134.871 53.6062 134.53 53.9784C134.189 54.3506 133.792 54.6208 133.338 54.7891C132.883 54.9574 132.402 55.0415 131.893 55.0415C131.113 55.0415 130.479 54.8822 129.994 54.5641C129.507 54.2474 129.13 53.8286 128.862 53.3104C128.595 52.7929 128.413 52.2333 128.318 51.6291C128.222 51.0242 128.175 50.4359 128.175 49.8649V42.6309H125.287V50.8043C125.287 51.2588 125.328 51.7852 125.409 52.3837C125.491 52.9841 125.646 53.5966 125.873 54.2231C126.099 54.8503 126.429 55.429 126.86 55.9606C127.292 56.4921 127.852 56.9204 128.543 57.2474C129.233 57.575 130.087 57.7388 131.103 57.7388C132.429 57.7388 133.56 57.452 134.496 56.8796C135.068 56.5297 135.558 56.0944 135.967 55.5769V57.3436H138.501Z" fill="#090015"/>
<path d="M150.488 42.2363C149.162 42.2363 148.031 42.5225 147.097 43.0948C146.524 43.4448 146.034 43.8801 145.625 44.3982V42.6321H143.077V57.3449H145.966V49.6883C145.966 48.8164 146.063 48.0764 146.259 47.4684C146.453 46.8604 146.722 46.3683 147.062 45.9961C147.403 45.6239 147.8 45.3536 148.255 45.1867C148.708 45.0184 149.19 44.9336 149.698 44.9336C150.48 44.9336 151.113 45.0923 151.599 45.411C152.085 45.7291 152.462 46.1459 152.73 46.6641C152.997 47.1816 153.178 47.7425 153.274 48.3467C153.37 48.9509 153.417 49.5385 153.417 50.1109V57.3449H156.305V49.1714C156.305 48.7163 156.264 48.1899 156.183 47.5908C156.101 46.991 155.946 46.3785 155.72 45.7514C155.492 45.1242 155.163 44.5455 154.732 44.0146C154.3 43.4836 153.739 43.0541 153.049 42.7277C152.359 42.4001 151.505 42.2363 150.488 42.2363Z" fill="#090015"/>
<path d="M170.109 56.722C170.416 56.5015 170.695 56.2542 170.954 55.9833V57.3428H173.488V37.7256H170.627V43.6364C170.468 43.4956 170.304 43.3592 170.129 43.2355C169.18 42.5593 168.011 42.2209 166.621 42.2209C165.241 42.2209 164.049 42.5593 163.046 43.2355C162.042 43.9118 161.268 44.834 160.723 46.0017C160.178 47.168 159.906 48.4925 159.906 49.9724C159.906 51.4428 160.176 52.7666 160.716 53.9432C161.256 55.1197 162.024 56.0477 163.019 56.7284C164.013 57.4104 165.196 57.7507 166.567 57.7507C167.975 57.7507 169.156 57.4078 170.109 56.722ZM163.373 52.6079C163.077 51.822 162.93 50.9438 162.93 49.9724C162.93 49.0094 163.077 48.1375 163.373 47.3561C163.668 46.5759 164.12 45.9539 164.728 45.4899C165.336 45.0278 166.113 44.7958 167.057 44.7958C167.948 44.7958 168.681 45.0138 169.257 45.4497C169.834 45.8857 170.261 46.4937 170.538 47.2751C170.815 48.0565 170.954 48.9552 170.954 49.9724C170.954 50.9896 170.817 51.8883 170.545 52.6697C170.273 53.4511 169.841 54.0643 169.251 54.5091C168.66 54.954 167.897 55.1758 166.962 55.1758C166.054 55.1758 165.303 54.9451 164.708 54.4811C164.113 54.0177 163.668 53.3938 163.373 52.6079Z" fill="#090015"/>
<path d="M189.544 45.0306C189.09 44.0586 188.375 43.3479 187.398 42.898C186.422 42.4493 185.276 42.2236 183.958 42.2236C182.261 42.2236 180.9 42.5965 179.879 43.3409C178.857 44.086 178.165 45.0892 177.801 46.3512L180.457 47.1683C180.712 46.3422 181.161 45.7508 181.807 45.3913C182.451 45.0331 183.16 44.8527 183.931 44.8527C185.158 44.8527 186.023 45.1325 186.527 45.6909C186.967 46.1778 187.207 46.8929 187.249 47.8324C186.691 47.9114 186.136 47.9898 185.573 48.0682C184.661 48.1957 183.791 48.3314 182.964 48.4768C182.138 48.6227 181.398 48.7897 180.744 48.9809C179.99 49.2257 179.354 49.5462 178.836 49.9408C178.319 50.3359 177.928 50.8152 177.665 51.3786C177.401 51.9421 177.27 52.5954 177.27 53.3392C177.27 54.1397 177.459 54.8726 177.835 55.5406C178.212 56.2073 178.768 56.7439 179.504 57.148C180.239 57.5521 181.152 57.7535 182.243 57.7535C183.613 57.7535 184.769 57.4794 185.709 56.93C186.413 56.5183 187.024 55.9453 187.542 55.2104V57.3456H190.062V48.2862C190.062 47.6679 190.034 47.0918 189.98 46.5558C189.925 46.0197 189.781 45.5111 189.544 45.0306ZM186.928 52.5093C186.82 52.9905 186.588 53.4539 186.234 53.8988C185.879 54.3436 185.412 54.7095 184.83 54.995C184.249 55.2818 183.554 55.4246 182.746 55.4246C182.138 55.4246 181.638 55.329 181.248 55.1391C180.857 54.9479 180.567 54.691 180.376 54.3691C180.185 54.0466 180.09 53.6935 180.09 53.3124C180.09 52.9223 180.178 52.5909 180.356 52.3181C180.533 52.0453 180.773 51.8146 181.078 51.6234C181.381 51.4322 181.729 51.269 182.12 51.1333C182.583 50.9873 183.112 50.8637 183.706 50.7591C184.301 50.6546 184.967 50.5475 185.702 50.4379C186.174 50.3691 186.683 50.2926 187.221 50.211C187.216 50.4519 187.207 50.7254 187.194 51.0383C187.172 51.5826 187.082 52.0727 186.928 52.5093Z" fill="#090015"/>
<path d="M198.464 38.5439H195.603V42.6307H192.783V44.9194H195.603V51.5531C195.603 52.3536 195.615 53.0674 195.637 53.699C195.66 54.3307 195.83 54.9502 196.148 55.5582C196.502 56.2396 197.029 56.7392 197.729 57.0573C198.428 57.3747 199.222 57.5474 200.113 57.5748C201.002 57.6016 201.911 57.5251 202.837 57.3435V54.9317C201.874 55.0687 201.036 55.0974 200.324 55.0203C199.611 54.9438 199.091 54.6226 198.763 54.0598C198.591 53.7609 198.498 53.3925 198.484 52.9565C198.471 52.5206 198.464 52.0069 198.464 51.4167V44.9194H202.837V42.6307H198.464V38.5439Z" fill="#090015"/>
<rect x="206.412" y="42.6309" width="2.84727" height="14.7126" fill="#090015"/>
<rect x="206.412" y="37.4541" width="2.84727" height="2.76537" fill="#090015"/>
<path d="M224.277 43.2179C223.197 42.5551 221.921 42.2236 220.449 42.2236C219.006 42.2236 217.743 42.5487 216.662 43.1982C215.581 43.8476 214.741 44.7559 214.143 45.9229C213.543 47.0892 213.243 48.4404 213.243 49.9752C213.243 51.501 213.536 52.8478 214.121 54.0148C214.707 55.1811 215.541 56.0964 216.622 56.7599C217.702 57.4221 218.978 57.7535 220.449 57.7535C221.912 57.7535 223.183 57.4246 224.263 56.7656C225.345 56.1085 226.182 55.1951 226.777 54.0288C227.372 52.8611 227.67 51.5099 227.67 49.9752C227.67 48.4583 227.374 47.1192 226.784 45.9573C226.194 44.7941 225.358 43.882 224.277 43.2179ZM223.603 53.6464C222.908 54.5954 221.857 55.0702 220.449 55.0702C219.079 55.0702 218.038 54.6075 217.33 53.6808C216.622 52.7541 216.267 51.5201 216.267 49.9752C216.267 48.9758 216.417 48.0975 216.717 47.3391C217.017 46.5813 217.475 45.986 218.093 45.5551C218.71 45.1236 219.496 44.9069 220.449 44.9069C221.839 44.9069 222.886 45.3684 223.589 46.29C224.293 47.2116 224.645 48.4404 224.645 49.9752C224.645 51.4742 224.298 52.698 223.603 53.6464Z" fill="#090015"/>
<path d="M235.485 45.9961C235.826 45.6239 236.223 45.3536 236.677 45.1867C237.13 45.0184 237.612 44.9336 238.121 44.9336C238.902 44.9336 239.535 45.0923 240.021 45.411C240.507 45.7291 240.884 46.1459 241.152 46.6641C241.42 47.1816 241.601 47.7425 241.696 48.3467C241.792 48.9509 241.84 49.5385 241.84 50.1109V57.3449H244.728V49.1714C244.728 48.7163 244.687 48.1899 244.605 47.5908C244.523 46.991 244.369 46.3785 244.142 45.7514C243.915 45.1242 243.586 44.5455 243.155 44.0146C242.723 43.4836 242.162 43.0541 241.472 42.7277C240.782 42.4001 239.928 42.2363 238.911 42.2363C237.585 42.2363 236.454 42.5225 235.519 43.0948C234.947 43.4448 234.456 43.8801 234.048 44.3982V42.6321H231.5V57.3449H234.388V49.6883C234.388 48.8164 234.486 48.0764 234.681 47.4684C234.876 46.8604 235.145 46.3683 235.485 45.9961Z" fill="#090015"/>
<path d="M261.287 37.3604C260.845 37.3872 260.403 37.4873 259.958 37.6593C259.513 37.8321 259.105 38.1227 258.732 38.5313C258.424 38.8767 258.203 39.2559 258.071 39.6689C257.94 40.0819 257.86 40.4994 257.833 40.922C257.806 41.3439 257.792 41.7416 257.792 42.1145V42.632H255.354V44.9208H257.792V57.3448H260.639V44.9208H264.359V42.632H260.639V41.5695C260.639 40.9615 260.805 40.4911 261.136 40.1584C261.469 39.827 261.97 39.6613 262.642 39.6613H264.359V37.3184H262.506C262.133 37.3184 261.727 37.3324 261.287 37.3604Z" fill="#090015"/>
<path d="M277.419 43.2179C276.339 42.5551 275.063 42.2236 273.591 42.2236C272.147 42.2236 270.885 42.5487 269.804 43.1982C268.723 43.8476 267.883 44.7559 267.284 45.9229C266.685 47.0892 266.384 48.4404 266.384 49.9752C266.384 51.501 266.678 52.8478 267.263 54.0148C267.849 55.1811 268.682 56.0964 269.763 56.7599C270.844 57.4221 272.12 57.7535 273.591 57.7535C275.053 57.7535 276.325 57.4246 277.405 56.7656C278.487 56.1085 279.324 55.1951 279.919 54.0288C280.514 52.8611 280.812 51.5099 280.812 49.9752C280.812 48.4583 280.516 47.1192 279.926 45.9573C279.335 44.7941 278.5 43.882 277.419 43.2179ZM276.745 53.6464C276.05 54.5954 274.999 55.0702 273.591 55.0702C272.22 55.0702 271.18 54.6075 270.472 53.6808C269.763 52.7541 269.409 51.5201 269.409 49.9752C269.409 48.9758 269.559 48.0975 269.859 47.3391C270.158 46.5813 270.617 45.986 271.234 45.5551C271.852 45.1236 272.638 44.9069 273.591 44.9069C274.981 44.9069 276.028 45.3684 276.731 46.29C277.435 47.2116 277.787 48.4404 277.787 49.9752C277.787 51.4742 277.439 52.698 276.745 53.6464Z" fill="#090015"/>
<path d="M291.196 42.5553C290.715 42.5872 290.245 42.6783 289.786 42.8281C289.327 42.9785 288.912 43.1901 288.54 43.4616C288.158 43.7166 287.822 44.0403 287.531 44.4355C287.401 44.6114 287.285 44.7969 287.178 44.9874V42.6311H284.643V57.3439H287.518V49.9193C287.518 49.3381 287.577 48.7867 287.695 48.2635C287.813 47.7415 288.006 47.2679 288.274 46.8402C288.542 46.4139 288.907 46.0506 289.371 45.7504C289.861 45.433 290.399 45.2462 290.985 45.1914C291.57 45.1379 292.104 45.1736 292.586 45.301V42.6311C292.141 42.5489 291.678 42.5234 291.196 42.5553Z" fill="#090015"/>
<path d="M307.392 38.5439H304.531V42.6307H301.712V44.9194H304.531V51.5531C304.531 52.3536 304.543 53.0674 304.566 53.699C304.588 54.3307 304.759 54.9502 305.076 55.5582C305.431 56.2396 305.957 56.7392 306.657 57.0573C307.356 57.3747 308.15 57.5474 309.041 57.5748C309.931 57.6016 310.839 57.5251 311.765 57.3435V54.9317C310.803 55.0687 309.965 55.0974 309.252 55.0203C308.539 54.9438 308.019 54.6226 307.692 54.0598C307.52 53.7609 307.427 53.3925 307.413 52.9565C307.399 52.5206 307.392 52.0069 307.392 51.4167V44.9194H311.765V42.6307H307.392V38.5439Z" fill="#090015"/>
<path d="M327.863 45.7493C327.636 45.1221 327.307 44.5434 326.876 44.0119C326.445 43.4809 325.884 43.052 325.193 42.725C324.503 42.3981 323.65 42.2336 322.633 42.2336C321.306 42.2336 320.175 42.5204 319.24 43.0928C318.668 43.4421 318.178 43.878 317.769 44.3955V37.7256H315.221V57.3428H318.109V49.6856C318.109 48.8137 318.207 48.0744 318.403 47.4657C318.597 46.8577 318.866 46.3663 319.206 45.994C319.547 45.6218 319.944 45.3516 320.398 45.1846C320.852 45.0163 321.333 44.9309 321.842 44.9309C322.623 44.9309 323.256 45.0903 323.743 45.4083C324.228 45.7263 324.606 46.1432 324.873 46.662C325.141 47.1795 325.323 47.7404 325.418 48.344C325.514 48.9482 325.561 49.5365 325.561 50.1088V57.3428H328.449V49.1687C328.449 48.7143 328.409 48.1872 328.326 47.5887C328.245 46.9883 328.09 46.3758 327.863 45.7493Z" fill="#090015"/>
<path d="M344.651 50.7929H346.068C346.177 49.0313 345.97 47.5092 345.448 46.2288C344.925 44.9483 344.138 43.9611 343.085 43.2657C342.03 42.5716 340.755 42.2236 339.256 42.2236C337.821 42.2236 336.563 42.5468 335.483 43.1911C334.401 43.8361 333.559 44.7488 332.956 45.9292C332.351 47.1103 332.05 48.5035 332.05 50.1116C332.05 51.6285 332.356 52.9606 332.97 54.1097C333.582 55.2589 334.44 56.1537 335.544 56.7936C336.648 57.4342 337.931 57.7535 339.393 57.7535C340.819 57.7535 342.113 57.3928 343.275 56.6713C344.438 55.9491 345.305 54.93 345.877 53.6126L343.085 52.7273C342.721 53.4807 342.214 54.0606 341.566 54.4635C340.916 54.8675 340.146 55.0702 339.256 55.0702C337.903 55.0702 336.868 54.6273 336.15 53.742C335.557 53.0103 335.213 52.0237 335.111 50.7929H343.22H344.651ZM336.15 46.0924C336.868 45.1937 337.939 44.7444 339.365 44.7444C340.655 44.7444 341.615 45.1523 342.247 45.97C342.722 46.5857 343.023 47.4525 343.15 48.5717H335.175C335.325 47.5507 335.648 46.7221 336.15 46.0924Z" fill="#090015"/>
<path d="M101.005 87.6029C101.499 87.5933 101.974 87.557 102.428 87.4933C103.963 87.3021 105.255 86.7552 106.304 85.8514C107.352 84.9477 108.144 83.7991 108.68 82.4052C109.216 81.0113 109.484 79.4778 109.484 77.8073C109.484 76.1445 109.216 74.6174 108.68 73.2234C108.144 71.8295 107.352 70.6778 106.304 69.7696C105.255 68.862 103.963 68.312 102.428 68.1214C101.974 68.0577 101.499 68.022 101.005 68.013C100.509 68.0035 100.17 67.999 99.9891 67.999H93.8453V87.6156H99.9891C100.17 87.6156 100.509 87.6112 101.005 87.6029ZM96.7606 70.7097H99.9891C100.289 70.7097 100.655 70.7167 101.086 70.7301C101.517 70.7441 101.896 70.783 102.223 70.8467C103.205 71.0277 104.006 71.4522 104.628 72.1195C105.25 72.7875 105.711 73.6141 106.011 74.5989C106.31 75.5849 106.461 76.6537 106.461 77.8073C106.461 78.9246 106.315 79.9775 106.025 80.968C105.733 81.9584 105.277 82.7915 104.655 83.4677C104.033 84.1446 103.222 84.578 102.223 84.7679C101.896 84.8234 101.52 84.8597 101.093 84.8775C100.666 84.896 100.298 84.9043 99.9891 84.9043H96.7606V70.7097Z" fill="#090015"/>
<path d="M126.332 83.8844L123.539 82.9998C123.176 83.7531 122.669 84.3318 122.02 84.7359C121.371 85.14 120.601 85.3427 119.711 85.3427C118.358 85.3427 117.322 84.8991 116.605 84.0144C116.012 83.2827 115.668 82.2968 115.565 81.0647H123.676H125.106H126.523C126.631 79.3031 126.425 77.7823 125.903 76.5013C125.38 75.2202 124.593 74.2323 123.539 73.5388C122.486 72.8435 121.21 72.4961 119.711 72.4961C118.276 72.4961 117.018 72.8186 115.937 73.4636C114.857 74.108 114.014 75.0213 113.411 76.2017C112.807 77.3821 112.505 78.7766 112.505 80.384C112.505 81.9003 112.811 83.233 113.424 84.3815C114.037 85.5307 114.896 86.4249 115.999 87.0661C117.102 87.706 118.385 88.0266 119.848 88.0266C121.273 88.0266 122.568 87.6652 123.73 86.9425C124.892 86.221 125.76 85.2018 126.332 83.8844ZM116.605 76.3649C117.322 75.4655 118.394 75.0162 119.82 75.0162C121.11 75.0162 122.071 75.4254 122.701 76.2425C123.177 76.8582 123.478 77.725 123.605 78.8448H115.63C115.781 77.8231 116.102 76.9946 116.605 76.3649Z" fill="#090015"/>
<path d="M143.146 83.5708L140.258 82.8901C139.958 83.6805 139.525 84.2859 138.957 84.7092C138.389 85.1311 137.646 85.3427 136.73 85.3427C135.385 85.3427 134.371 84.8749 133.685 83.9392C132.999 83.0042 132.651 81.7786 132.643 80.261C132.651 79.2801 132.801 78.4089 133.093 77.6453C133.383 76.8824 133.828 76.282 134.427 75.8409C135.027 75.4005 135.794 75.18 136.73 75.18C137.556 75.18 138.29 75.4088 138.93 75.8677C139.57 76.3266 140.031 76.9691 140.312 77.7951L143.146 76.978C142.783 75.5879 142.031 74.4942 140.892 73.6956C139.751 72.8957 138.378 72.4961 136.77 72.4961C135.281 72.4961 134.005 72.8275 132.943 73.4904C131.88 74.1532 131.063 75.0685 130.491 76.2361C129.918 77.4025 129.628 78.7448 129.618 80.261C129.628 81.7505 129.911 83.0813 130.469 84.2522C131.029 85.4243 131.835 86.3459 132.888 87.0177C133.942 87.6907 135.222 88.0266 136.73 88.0266C138.31 88.0266 139.654 87.6423 140.762 86.8755C141.87 86.1075 142.664 85.0062 143.146 83.5708Z" fill="#090015"/>
<path d="M156.912 73.5388C155.858 72.8435 154.583 72.4961 153.084 72.4961C151.649 72.4961 150.392 72.8186 149.311 73.4636C148.23 74.108 147.388 75.0213 146.784 76.2017C146.179 77.3821 145.878 78.7766 145.878 80.384C145.878 81.9003 146.184 83.233 146.798 84.3815C147.41 85.5307 148.269 86.4249 149.372 87.0661C150.475 87.706 151.758 88.0266 153.221 88.0266C154.647 88.0266 155.941 87.6652 157.103 86.9425C158.266 86.221 159.133 85.2018 159.705 83.8844L156.912 82.9998C156.549 83.7531 156.043 84.3318 155.394 84.7359C154.744 85.14 153.974 85.3427 153.084 85.3427C151.731 85.3427 150.696 84.8991 149.978 84.0144C149.385 83.2827 149.041 82.2968 148.939 81.0647H157.048H158.478H159.896C160.005 79.3031 159.798 77.7823 159.276 76.5013C158.753 75.2202 157.966 74.2323 156.912 73.5388ZM149.978 76.3649C150.696 75.4655 151.767 75.0162 153.194 75.0162C154.483 75.0162 155.443 75.4254 156.075 76.2425C156.549 76.8582 156.851 77.725 156.978 78.8448H149.003C149.153 77.8231 149.476 76.9946 149.978 76.3649Z" fill="#090015"/>
<path d="M176.354 76.0258C176.127 75.3986 175.798 74.8199 175.367 74.2883C174.936 73.7568 174.375 73.3272 173.685 73.0009C172.995 72.6733 172.141 72.5107 171.124 72.5107C169.797 72.5107 168.667 72.7969 167.731 73.3686C167.159 73.7185 166.669 74.1532 166.261 74.672V72.9053H163.713V87.618H166.601V79.9621C166.601 79.0902 166.698 78.3502 166.894 77.7415C167.089 77.1335 167.357 76.6421 167.698 76.2692C168.039 75.8983 168.435 75.6281 168.889 75.4598C169.343 75.2928 169.824 75.208 170.333 75.208C171.114 75.208 171.748 75.3667 172.234 75.6848C172.719 76.0028 173.096 76.4203 173.365 76.9378C173.632 77.4554 173.814 78.0169 173.909 78.6205C174.005 79.2247 174.053 79.813 174.053 80.384V87.618H176.941V79.4446C176.941 78.9908 176.9 78.4637 176.818 77.8639C176.736 77.2648 176.582 76.6523 176.354 76.0258Z" fill="#090015"/>
<path d="M185.14 68.8164H182.279V72.9031H179.46V75.1913H182.279V81.8262C182.279 82.6254 182.291 83.3405 182.314 83.9721C182.336 84.6025 182.507 85.222 182.824 85.8313C183.179 86.5127 183.705 87.0117 184.405 87.3298C185.104 87.6465 185.898 87.8199 186.789 87.8466C187.679 87.8747 188.587 87.7976 189.513 87.6159V85.2048C188.551 85.3406 187.713 85.3699 187 85.2921C186.287 85.2156 185.767 84.8957 185.44 84.3323C185.268 84.0327 185.175 83.6649 185.161 83.229C185.147 82.7937 185.14 82.28 185.14 81.6898V75.1913H189.513V72.9031H185.14V68.8164Z" fill="#090015"/>
<path d="M199.522 72.8292C199.04 72.8617 198.57 72.9528 198.112 73.1019C197.653 73.2524 197.238 73.4627 196.866 73.7355C196.484 73.9898 196.148 74.3142 195.857 74.7094C195.728 74.8859 195.611 75.0701 195.504 75.262V72.9044H192.969V87.6171H195.844V80.1926C195.844 79.6119 195.903 79.06 196.021 78.538C196.139 78.016 196.332 77.5411 196.6 77.1135C196.867 76.6871 197.233 76.3244 197.696 76.0249C198.187 75.7062 198.725 75.5201 199.311 75.4653C199.897 75.4105 200.429 75.4474 200.911 75.5749V72.9044C200.466 72.8228 200.004 72.7986 199.522 72.8292Z" fill="#090015"/>
<path d="M215.636 75.3024C215.181 74.3304 214.466 73.6198 213.49 73.1704C212.514 72.7211 211.367 72.4961 210.05 72.4961C208.352 72.4961 206.993 72.8683 205.97 73.6127C204.948 74.3578 204.256 75.3617 203.893 76.6236L206.55 77.4414C206.803 76.6147 207.253 76.0226 207.898 75.6638C208.542 75.3049 209.252 75.1246 210.024 75.1246C211.249 75.1246 212.114 75.4044 212.618 75.9627C213.058 76.4509 213.299 77.1654 213.341 78.1055C212.783 78.1839 212.228 78.2623 211.665 78.3407C210.752 78.4675 209.882 78.6033 209.056 78.7492C208.229 78.8945 207.49 79.0622 206.836 79.2527C206.082 79.4981 205.446 79.8181 204.928 80.2139C204.411 80.6084 204.02 81.087 203.757 81.6505C203.493 82.2133 203.361 82.8678 203.361 83.6129C203.361 84.4115 203.55 85.1451 203.927 85.8124C204.304 86.4804 204.86 87.0151 205.596 87.4198C206.332 87.8239 207.244 88.0266 208.334 88.0266C209.705 88.0266 210.861 87.7513 211.801 87.2019C212.504 86.7908 213.115 86.2171 213.634 85.4829V87.6174H216.153V78.5586C216.153 77.941 216.126 77.3642 216.072 76.8289C216.018 76.2922 215.872 75.7842 215.636 75.3024ZM213.02 82.7818C212.911 83.2636 212.679 83.7257 212.326 84.1712C211.971 84.6155 211.504 84.9813 210.923 85.2675C210.341 85.553 209.646 85.6971 208.838 85.6971C208.229 85.6971 207.73 85.6015 207.339 85.4102C206.949 85.2197 206.658 84.9641 206.467 84.641C206.277 84.3178 206.182 83.9673 206.182 83.5849C206.182 83.1948 206.27 82.8634 206.447 82.5906C206.624 82.3191 206.865 82.0864 207.169 81.8959C207.474 81.7046 207.821 81.5421 208.211 81.4051C208.674 81.2604 209.203 81.1348 209.799 81.0303C210.394 80.9264 211.059 80.82 211.794 80.7104C212.265 80.6403 212.775 80.5644 213.314 80.4835C213.308 80.7244 213.299 80.9972 213.286 81.3095C213.263 81.8551 213.175 82.3458 213.02 82.7818Z" fill="#090015"/>
<rect x="220.715" y="67.5908" width="2.84727" height="20.0259" fill="#090015"/>
<rect x="228.383" y="67.7275" width="2.84727" height="2.76537" fill="#090015"/>
<rect x="228.383" y="72.9043" width="2.84727" height="14.7127" fill="#090015"/>
<path d="M235.291 75.4512H242.878L234.527 87.1671V87.6171H246.993V85.0689H239.064L247.401 73.367V72.9043H235.291V75.4512Z" fill="#090015"/>
<path d="M260.696 73.5388C259.642 72.8435 258.366 72.4961 256.867 72.4961C255.432 72.4961 254.175 72.8186 253.094 73.4636C252.013 74.108 251.171 75.0213 250.568 76.2017C249.963 77.3821 249.661 78.7766 249.661 80.384C249.661 81.9003 249.968 83.233 250.581 84.3815C251.194 85.5307 252.052 86.4249 253.155 87.0661C254.259 87.706 255.542 88.0266 257.004 88.0266C258.43 88.0266 259.724 87.6652 260.887 86.9425C262.049 86.221 262.916 85.2018 263.488 83.8844L260.696 82.9998C260.333 83.7531 259.826 84.3318 259.177 84.7359C258.527 85.14 257.758 85.3427 256.867 85.3427C255.514 85.3427 254.479 84.8991 253.762 84.0144C253.169 83.2827 252.824 82.2968 252.722 81.0647H260.832H262.262H263.679C263.788 79.3031 263.582 77.7823 263.059 76.5013C262.536 75.2202 261.749 74.2323 260.696 73.5388ZM253.762 76.3649C254.479 75.4655 255.551 75.0162 256.977 75.0162C258.266 75.0162 259.227 75.4254 259.858 76.2425C260.333 76.8582 260.634 77.725 260.762 78.8448H252.786C252.937 77.8231 253.259 76.9946 253.762 76.3649Z" fill="#090015"/>
<path d="M277.496 73.9105C277.337 73.7697 277.173 73.6333 276.999 73.509C276.049 72.8327 274.88 72.4943 273.491 72.4943C272.11 72.4943 270.919 72.8327 269.915 73.509C268.911 74.1865 268.137 75.1081 267.592 76.2745C267.048 77.4421 266.775 78.7666 266.775 80.2452C266.775 81.7169 267.045 83.0407 267.585 84.216C268.126 85.3932 268.893 86.3218 269.887 87.0031C270.882 87.6845 272.065 88.0248 273.437 88.0248C274.844 88.0248 276.025 87.6819 276.978 86.9961C277.284 86.7756 277.564 86.527 277.823 86.2574V87.6156H280.357V67.999H277.496V73.9105ZM277.415 82.9425C277.142 83.7239 276.71 84.3377 276.12 84.7819C275.529 85.2275 274.767 85.4486 273.831 85.4486C272.923 85.4486 272.171 85.2179 271.577 84.7545C270.982 84.2918 270.537 83.6672 270.242 82.8813C269.946 82.0961 269.799 81.2178 269.799 80.2452C269.799 79.2828 269.946 78.4115 270.242 77.6295C270.537 76.8494 270.988 76.2273 271.597 75.764C272.205 75.3006 272.982 75.0686 273.927 75.0686C274.817 75.0686 275.55 75.2879 276.127 75.7225C276.703 76.1585 277.13 76.7665 277.408 77.5479C277.685 78.3293 277.823 79.2286 277.823 80.2452C277.823 81.2631 277.687 82.1624 277.415 82.9425Z" fill="#090015"/>
<path d="M112.209 112.904L108.082 98.0684L105.084 98.0817L100.957 112.904L96.8291 98.0684H93.8456L99.5401 117.685H102.373L106.583 103.014L110.793 117.685H113.626L119.334 98.0684H116.337L112.209 112.904Z" fill="#090015"/>
<path d="M131.449 103.606C130.395 102.911 129.119 102.563 127.62 102.563C126.185 102.563 124.928 102.886 123.847 103.531C122.766 104.175 121.923 105.089 121.32 106.269C120.716 107.45 120.414 108.844 120.414 110.451C120.414 111.968 120.72 113.3 121.334 114.45C121.947 115.599 122.805 116.492 123.908 117.133C125.012 117.773 126.295 118.093 127.757 118.093C129.183 118.093 130.477 117.733 131.639 117.01C132.802 116.289 133.669 115.27 134.242 113.952L131.449 113.067C131.085 113.82 130.578 114.4 129.93 114.804C129.281 115.207 128.51 115.41 127.62 115.41C126.268 115.41 125.232 114.967 124.515 114.082C123.921 113.35 123.577 112.365 123.475 111.132H131.585H133.015H134.432C134.541 109.37 134.335 107.849 133.812 106.569C133.29 105.288 132.502 104.3 131.449 103.606ZM124.515 106.433C125.232 105.533 126.303 105.084 127.729 105.084C129.019 105.084 129.98 105.493 130.611 106.31C131.086 106.926 131.387 107.792 131.515 108.912H123.539C123.69 107.891 124.013 107.062 124.515 106.433Z" fill="#090015"/>
<path d="M148.686 103.579C147.682 102.902 146.49 102.564 145.11 102.564C143.72 102.564 142.551 102.902 141.602 103.579C141.428 103.703 141.263 103.839 141.104 103.98V98.0684H138.244V117.685H140.778V116.327C141.036 116.597 141.316 116.845 141.623 117.065C142.576 117.751 143.756 118.094 145.165 118.094C146.535 118.094 147.719 117.754 148.713 117.072C149.707 116.391 150.475 115.463 151.015 114.286C151.555 113.11 151.826 111.787 151.826 110.315C151.826 108.835 151.554 107.511 151.008 106.344C150.464 105.177 149.69 104.256 148.686 103.579ZM148.359 112.951C148.063 113.737 147.618 114.361 147.024 114.825C146.429 115.287 145.677 115.519 144.769 115.519C143.834 115.519 143.071 115.297 142.48 114.851C141.89 114.407 141.459 113.793 141.187 113.012C140.914 112.232 140.778 111.333 140.778 110.315C140.778 109.298 140.916 108.399 141.193 107.617C141.47 106.836 141.897 106.228 142.474 105.792C143.05 105.357 143.784 105.139 144.674 105.139C145.618 105.139 146.395 105.37 147.003 105.834C147.611 106.297 148.063 106.919 148.359 107.699C148.654 108.481 148.801 109.352 148.801 110.315C148.801 111.287 148.654 112.165 148.359 112.951Z" fill="#090015"/>
<path d="M33.3004 0.611328H0V33.9114H30.2726V61.1565H0V94.4572H30.2726V124.73H63.5733V91.4304H33.3004V64.1846H63.5733V30.8839H33.3004V0.611328ZM3.02681 30.8839V3.63814H30.2726V30.8839H3.02681ZM60.5455 94.4572V121.703H33.3004V94.4572H60.5455ZM30.2726 91.4304H3.02681V64.1846H30.2726V91.4304ZM60.5455 33.9114V61.1565H33.3004V33.9114H60.5455Z" fill="#090015"/>
<path d="M12.4868 24.0741H15.0598V18.5488H19.6765V15.9758H15.0598V13.0235H20.8117V10.4512H12.4868V24.0741Z" fill="#090015"/>
<path d="M45.3327 48.8219H49.9498V46.2483H45.3327V43.2966H51.0849V40.7236H42.76V54.3465H45.3327V48.8219Z" fill="#090015"/>
<path d="M16.1386 84.6101C16.4722 84.6037 16.7941 84.582 17.1029 84.5438C18.2007 84.4112 19.1306 84.0301 19.8939 83.3991C20.6574 82.7681 21.2377 81.9676 21.6348 80.9969C22.0322 80.0255 22.2304 78.9631 22.2304 77.8082C22.2304 76.6539 22.0322 75.5914 21.6348 74.6201C21.2377 73.6488 20.6574 72.8483 19.8939 72.2173C19.1306 71.5869 18.2007 71.2051 17.1029 71.0726C16.7941 71.0343 16.4722 71.0127 16.1386 71.0063C15.8036 70.9999 15.5831 70.9961 15.476 70.9961H11.0674V84.6196H15.476C15.5831 84.6196 15.8036 84.6164 16.1386 84.6101ZM13.6787 73.4181H15.476C15.6468 73.4181 15.8766 73.4219 16.1666 73.4283C16.4566 73.4346 16.7182 73.4627 16.9515 73.513C17.5258 73.6271 18.0019 73.8948 18.3805 74.318C18.7584 74.7406 19.0408 75.2575 19.2269 75.8693C19.413 76.4799 19.506 77.1275 19.506 77.8082C19.506 78.4583 19.4162 79.0886 19.2371 79.7005C19.057 80.313 18.7791 80.8356 18.4037 81.2703C18.029 81.7063 17.5452 81.9835 16.9515 82.1027C16.7182 82.148 16.4566 82.1741 16.1666 82.1836C15.8766 82.1932 15.6468 82.1977 15.476 82.1977H13.6787V73.4181Z" fill="#090015"/>
<path d="M44.283 114.893L46.9223 105.698L49.5616 114.893H52.097L56.0894 101.271H53.3838L50.8293 110.636L48.2748 101.271L45.5692 101.29L43.0153 110.636L40.4611 101.271H37.7555L41.7476 114.893H44.283Z" fill="#090015"/>
</g>
<defs>
<clipPath id="clip0_121_4236">
<rect width="346.096" height="124.119" fill="white" transform="translate(0 0.611328)"/>
</clipPath>
</defs>
</svg>
