<svg width="211" height="23" viewBox="0 0 211 23" fill="none" xmlns="http://www.w3.org/2000/svg">
<g clip-path="url(#clip0_128_3381)">
<path d="M1.12 17V6.92H2.583V15.621H7.147V17H1.12ZM8.33547 17V6.92H14.7755V8.299H9.79847V11.127H13.9355V12.506H9.79847V15.621H14.7755V17H8.33547ZM15.7566 17L19.0326 6.92H21.1396L24.4156 17H22.8966L19.8796 7.802H20.2576L17.2756 17H15.7566ZM17.4576 14.725V13.353H22.7216V14.725H17.4576ZM25.6714 17V6.92H29.7454C29.8434 6.92 29.9647 6.92467 30.1094 6.934C30.2541 6.93867 30.3917 6.95267 30.5224 6.976C31.0824 7.06467 31.5491 7.256 31.9224 7.55C32.3004 7.844 32.5827 8.215 32.7694 8.663C32.9561 9.111 33.0494 9.60567 33.0494 10.147C33.0494 10.9497 32.8441 11.6427 32.4334 12.226C32.0227 12.8047 31.4067 13.1663 30.5854 13.311L29.9904 13.381H27.1344V17H25.6714ZM31.5654 17L29.5774 12.898L31.0544 12.52L33.2384 17H31.5654ZM27.1344 11.995H29.6894C29.7827 11.995 29.8854 11.9903 29.9974 11.981C30.1141 11.9717 30.2237 11.9553 30.3264 11.932C30.6251 11.862 30.8654 11.7337 31.0474 11.547C31.2294 11.3557 31.3601 11.1363 31.4394 10.889C31.5187 10.6417 31.5584 10.3943 31.5584 10.147C31.5584 9.89967 31.5187 9.65467 31.4394 9.412C31.3601 9.16467 31.2294 8.94767 31.0474 8.761C30.8654 8.56967 30.6251 8.439 30.3264 8.369C30.2237 8.341 30.1141 8.32233 29.9974 8.313C29.8854 8.30367 29.7827 8.299 29.6894 8.299H27.1344V11.995ZM34.7769 17V6.92H36.2609L41.2239 14.41V6.92H42.7079V17H41.2239L36.2609 9.503V17H34.7769ZM46.7644 17L50.0404 6.92H52.1474L55.4234 17H53.9044L50.8874 7.802H51.2654L48.2834 17H46.7644ZM48.4654 14.725V13.353H53.7294V14.725H48.4654ZM56.6792 17V6.92H60.6412C61.2806 6.92 61.8172 7.05067 62.2512 7.312C62.6852 7.57333 63.0119 7.91167 63.2312 8.327C63.4506 8.73767 63.5602 9.17167 63.5602 9.629C63.5602 10.1843 63.4226 10.6603 63.1472 11.057C62.8766 11.4537 62.5102 11.7243 62.0482 11.869L62.0342 11.526C62.6782 11.6847 63.1729 11.995 63.5182 12.457C63.8636 12.9143 64.0362 13.4487 64.0362 14.06C64.0362 14.6527 63.9172 15.1683 63.6792 15.607C63.4459 16.0457 63.1029 16.3887 62.6502 16.636C62.2022 16.8787 61.6586 17 61.0192 17H56.6792ZM58.1632 15.607H60.7952C61.1266 15.607 61.4229 15.544 61.6842 15.418C61.9502 15.292 62.1579 15.1123 62.3072 14.879C62.4612 14.641 62.5382 14.3587 62.5382 14.032C62.5382 13.7287 62.4706 13.4557 62.3352 13.213C62.2046 12.9657 62.0132 12.772 61.7612 12.632C61.5139 12.4873 61.2222 12.415 60.8862 12.415H58.1632V15.607ZM58.1632 11.036H60.6202C60.8909 11.036 61.1336 10.9823 61.3482 10.875C61.5676 10.763 61.7402 10.6043 61.8662 10.399C61.9969 10.189 62.0622 9.937 62.0622 9.643C62.0622 9.251 61.9316 8.929 61.6702 8.677C61.4089 8.425 61.0589 8.299 60.6202 8.299H58.1632V11.036ZM69.6362 17.21C68.6282 17.21 67.7696 16.9907 67.0602 16.552C66.3509 16.1087 65.8072 15.4927 65.4292 14.704C65.0559 13.9153 64.8692 13.0007 64.8692 11.96C64.8692 10.9193 65.0559 10.0047 65.4292 9.216C65.8072 8.42733 66.3509 7.81367 67.0602 7.375C67.7696 6.93167 68.6282 6.71 69.6362 6.71C70.6396 6.71 71.4959 6.93167 72.2052 7.375C72.9192 7.81367 73.4629 8.42733 73.8362 9.216C74.2096 10.0047 74.3962 10.9193 74.3962 11.96C74.3962 13.0007 74.2096 13.9153 73.8362 14.704C73.4629 15.4927 72.9192 16.1087 72.2052 16.552C71.4959 16.9907 70.6396 17.21 69.6362 17.21ZM69.6362 15.817C70.3502 15.8263 70.9429 15.67 71.4142 15.348C71.8902 15.0213 72.2472 14.5687 72.4852 13.99C72.7232 13.4067 72.8422 12.73 72.8422 11.96C72.8422 11.19 72.7232 10.518 72.4852 9.944C72.2472 9.36533 71.8902 8.915 71.4142 8.593C70.9429 8.271 70.3502 8.10767 69.6362 8.103C68.9222 8.09367 68.3272 8.25 67.8512 8.572C67.3799 8.894 67.0252 9.34667 66.7872 9.93C66.5492 10.5133 66.4279 11.19 66.4232 11.96C66.4186 12.73 66.5352 13.4043 66.7732 13.983C67.0112 14.557 67.3682 15.005 67.8442 15.327C68.3249 15.649 68.9222 15.8123 69.6362 15.817ZM79.8105 17.21C79.0218 17.21 78.3242 17.049 77.7175 16.727C77.1155 16.4003 76.6442 15.9453 76.3035 15.362C75.9628 14.774 75.7925 14.0833 75.7925 13.29V6.927L77.2765 6.92V13.213C77.2765 13.6423 77.3488 14.0203 77.4935 14.347C77.6382 14.6737 77.8318 14.9467 78.0745 15.166C78.3172 15.3853 78.5878 15.551 78.8865 15.663C79.1898 15.775 79.4978 15.831 79.8105 15.831C80.1278 15.831 80.4358 15.775 80.7345 15.663C81.0378 15.5463 81.3108 15.3783 81.5535 15.159C81.7962 14.9397 81.9875 14.6667 82.1275 14.34C82.2722 14.0133 82.3445 13.6377 82.3445 13.213V6.92H83.8285V13.29C83.8285 14.0787 83.6582 14.767 83.3175 15.355C82.9768 15.943 82.5032 16.4003 81.8965 16.727C81.2945 17.049 80.5992 17.21 79.8105 17.21ZM88.2996 17V8.299H84.9466V6.92H93.1156V8.299H89.7626V17H88.2996ZM95.9148 17L99.1908 6.92H101.298L104.574 17H103.055L100.038 7.802H100.416L97.4338 17H95.9148ZM97.6158 14.725V13.353H102.88V14.725H97.6158ZM106.98 17L104.054 6.92H105.587L107.708 14.543L109.829 6.927L111.369 6.92L113.49 14.543L115.611 6.92H117.151L114.218 17H112.762L110.599 9.461L108.436 17H106.98ZM116.641 17L119.917 6.92H122.024L125.3 17H123.781L120.764 7.802H121.142L118.16 17H116.641ZM118.342 14.725V13.353H123.606V14.725H118.342ZM126.556 17V6.92H130.63C130.728 6.92 130.85 6.92467 130.994 6.934C131.139 6.93867 131.277 6.95267 131.407 6.976C131.967 7.06467 132.434 7.256 132.807 7.55C133.185 7.844 133.468 8.215 133.654 8.663C133.841 9.111 133.934 9.60567 133.934 10.147C133.934 10.9497 133.729 11.6427 133.318 12.226C132.908 12.8047 132.292 13.1663 131.47 13.311L130.875 13.381H128.019V17H126.556ZM132.45 17L130.462 12.898L131.939 12.52L134.123 17H132.45ZM128.019 11.995H130.574C130.668 11.995 130.77 11.9903 130.882 11.981C130.999 11.9717 131.109 11.9553 131.211 11.932C131.51 11.862 131.75 11.7337 131.932 11.547C132.114 11.3557 132.245 11.1363 132.324 10.889C132.404 10.6417 132.443 10.3943 132.443 10.147C132.443 9.89967 132.404 9.65467 132.324 9.412C132.245 9.16467 132.114 8.94767 131.932 8.761C131.75 8.56967 131.51 8.439 131.211 8.369C131.109 8.341 130.999 8.32233 130.882 8.313C130.77 8.30367 130.668 8.299 130.574 8.299H128.019V11.995ZM135.662 17V6.92H138.819C138.912 6.92 139.085 6.92233 139.337 6.927C139.593 6.93167 139.838 6.95033 140.072 6.983C140.86 7.081 141.523 7.36333 142.06 7.83C142.601 8.29667 143.009 8.88933 143.285 9.608C143.56 10.322 143.698 11.106 143.698 11.96C143.698 12.8187 143.56 13.6073 143.285 14.326C143.009 15.04 142.601 15.6303 142.06 16.097C141.523 16.559 140.86 16.839 140.072 16.937C139.838 16.9697 139.593 16.9883 139.337 16.993C139.085 16.9977 138.912 17 138.819 17H135.662ZM137.16 15.607H138.819C138.977 15.607 139.166 15.6023 139.386 15.593C139.605 15.5837 139.799 15.565 139.967 15.537C140.48 15.439 140.895 15.2173 141.213 14.872C141.535 14.522 141.77 14.0927 141.92 13.584C142.069 13.0753 142.144 12.534 142.144 11.96C142.144 11.3673 142.067 10.819 141.913 10.315C141.759 9.80633 141.521 9.38167 141.199 9.041C140.881 8.69567 140.471 8.47633 139.967 8.383C139.799 8.35033 139.603 8.33167 139.379 8.327C139.159 8.31767 138.973 8.313 138.819 8.313H137.16V15.607ZM148.982 17.21C148.258 17.21 147.605 17.0863 147.022 16.839C146.443 16.587 145.965 16.23 145.587 15.768C145.213 15.3013 144.971 14.7483 144.859 14.109L146.385 13.878C146.539 14.494 146.861 14.9747 147.351 15.32C147.841 15.6607 148.412 15.831 149.066 15.831C149.472 15.831 149.845 15.768 150.186 15.642C150.526 15.5113 150.799 15.327 151.005 15.089C151.215 14.8463 151.32 14.557 151.32 14.221C151.32 14.039 151.287 13.878 151.222 13.738C151.161 13.598 151.075 13.4767 150.963 13.374C150.855 13.2667 150.722 13.1757 150.564 13.101C150.41 13.0217 150.239 12.954 150.053 12.898L147.47 12.135C147.218 12.0603 146.961 11.9647 146.7 11.848C146.438 11.7267 146.198 11.5703 145.979 11.379C145.764 11.183 145.589 10.9427 145.454 10.658C145.318 10.3687 145.251 10.0187 145.251 9.608C145.251 8.98733 145.409 8.46233 145.727 8.033C146.049 7.599 146.483 7.27233 147.029 7.053C147.575 6.829 148.186 6.717 148.863 6.717C149.544 6.72633 150.153 6.84767 150.69 7.081C151.231 7.31433 151.679 7.65033 152.034 8.089C152.393 8.523 152.64 9.05033 152.776 9.671L151.208 9.937C151.138 9.559 150.988 9.23467 150.76 8.964C150.531 8.68867 150.251 8.47867 149.92 8.334C149.588 8.18467 149.229 8.10767 148.842 8.103C148.468 8.09367 148.125 8.14967 147.813 8.271C147.505 8.39233 147.257 8.56267 147.071 8.782C146.889 9.00133 146.798 9.25333 146.798 9.538C146.798 9.818 146.879 10.0443 147.043 10.217C147.206 10.3897 147.407 10.5273 147.645 10.63C147.887 10.728 148.128 10.8097 148.366 10.875L150.228 11.4C150.461 11.4653 150.725 11.554 151.019 11.666C151.317 11.7733 151.604 11.925 151.88 12.121C152.16 12.317 152.391 12.5783 152.573 12.905C152.755 13.227 152.846 13.633 152.846 14.123C152.846 14.6317 152.743 15.0797 152.538 15.467C152.332 15.8497 152.05 16.1717 151.691 16.433C151.336 16.6897 150.925 16.8833 150.459 17.014C149.992 17.1447 149.5 17.21 148.982 17.21Z" fill="#BCF636"/>
<rect x="181.941" y="14.791" width="2.4477" height="3.35367" transform="rotate(-90 181.941 14.791)" fill="#BCF636"/>
<rect x="181.941" y="5" width="2.4477" height="3.35367" transform="rotate(-90 181.941 5)" fill="#BCF636"/>
<rect x="185.295" y="12.3438" width="2.4477" height="3.35367" transform="rotate(-90 185.295 12.3438)" fill="#BCF636"/>
<rect x="185.295" y="7.44824" width="2.4477" height="3.35367" transform="rotate(-90 185.295 7.44824)" fill="#BCF636"/>
<rect x="188.65" y="9.89551" width="2.4477" height="3.35367" transform="rotate(-90 188.65 9.89551)" fill="#BCF636"/>
</g>
<defs>
<clipPath id="clip0_128_3381">
<rect width="211" height="23" fill="white"/>
</clipPath>
</defs>
</svg>
