<svg width="251" height="90" viewBox="0 0 251 90" fill="none" xmlns="http://www.w3.org/2000/svg">
<g clip-path="url(#clip0_120_4208)">
<path d="M70.1115 13.1084H75.2888V11.0366H70.1115V7.02763H76.4745V4.96016H68.0483V19.1849H70.1158L70.1115 13.1084Z" fill="#030504"/>
<path d="M80.8354 4.76472H78.7723V6.77138H80.8354V4.76472Z" fill="#030504"/>
<path d="M80.8354 8.51741H78.7723V19.1848H80.8354V8.51741Z" fill="#030504"/>
<path d="M86.3993 4.66483H84.3362V19.1849H86.3993V4.66483Z" fill="#030504"/>
<path d="M91.8243 18.7853C92.6757 19.2602 93.6381 19.5001 94.6128 19.4802C95.6063 19.4888 96.5821 19.2163 97.4273 18.6941C98.2729 18.1691 98.9335 17.3931 99.3167 16.4746L97.2883 15.8318C97.0542 16.3507 96.6719 16.789 96.1894 17.0913C95.6827 17.3913 95.1015 17.5419 94.5129 17.5257C94.0886 17.5517 93.6642 17.478 93.2735 17.3106C92.8828 17.1432 92.5368 16.8866 92.263 16.5614C91.8 15.9407 91.5364 15.194 91.5073 14.4201H99.4644C99.5709 13.2997 99.4224 12.1697 99.03 11.1148C98.6898 10.2342 98.0822 9.48232 97.2927 8.96481C96.4632 8.44258 95.4969 8.17946 94.5172 8.20905C93.5584 8.18833 92.6122 8.43014 91.7809 8.90834C90.9926 9.38294 90.3566 10.0732 89.9479 10.8976C89.4897 11.8442 89.2648 12.8867 89.2921 13.938C89.2704 14.9443 89.5003 15.9401 89.961 16.8351C90.3831 17.6498 91.0297 18.3265 91.8243 18.7853V18.7853ZM92.2587 11.0236C92.544 10.6898 92.9037 10.4275 93.3087 10.2578C93.7138 10.088 94.153 10.0156 94.5911 10.0463C94.9851 10.0173 95.3803 10.0829 95.7438 10.2378C96.1072 10.3927 96.4283 10.6324 96.6802 10.9367C97.0635 11.4948 97.2886 12.1462 97.3317 12.8218H91.5507C91.6218 12.1699 91.8663 11.549 92.2587 11.0236V11.0236Z" fill="#030504"/>
<path d="M104.068 18.7505C104.906 19.2577 105.874 19.5111 106.853 19.4802C107.892 19.5154 108.915 19.2237 109.78 18.6463C110.607 18.062 111.218 17.2206 111.517 16.2531L109.42 15.7579C109.237 16.2738 108.91 16.7261 108.477 17.0609C108 17.3779 107.433 17.5304 106.861 17.4953C106.438 17.5232 106.014 17.4448 105.629 17.2673C105.244 17.0898 104.909 16.8188 104.655 16.4789C104.125 15.6933 103.86 14.7589 103.899 13.8121C103.894 13.165 104.004 12.5223 104.225 11.914C104.414 11.3947 104.751 10.9418 105.193 10.611C105.683 10.2762 106.268 10.1086 106.861 10.1332C107.434 10.1238 107.994 10.2989 108.46 10.6327C108.934 10.9801 109.284 11.4703 109.459 12.0313L111.517 11.4362C111.28 10.4699 110.697 9.62363 109.88 9.05603C108.999 8.46083 107.954 8.15699 106.892 8.18734C105.917 8.16038 104.955 8.41039 104.116 8.90835C103.347 9.38938 102.731 10.0794 102.34 10.8976C101.91 11.8098 101.693 12.808 101.706 13.8164C101.696 14.8157 101.906 15.8049 102.322 16.7135C102.696 17.5463 103.303 18.2535 104.068 18.7505V18.7505Z" fill="#030504"/>
<path d="M115.939 18.7592C116.786 19.2313 117.74 19.479 118.71 19.479C119.68 19.479 120.634 19.2313 121.481 18.7592C122.265 18.2836 122.897 17.5953 123.305 16.7743C123.729 15.8573 123.949 14.8592 123.949 13.849C123.949 12.8388 123.729 11.8407 123.305 10.9237C122.898 10.1039 122.267 9.4158 121.486 8.93878C120.641 8.47105 119.691 8.22566 118.725 8.22566C117.76 8.22566 116.81 8.47105 115.965 8.93878C115.181 9.41089 114.546 10.0963 114.136 10.915C113.687 11.8291 113.464 12.8374 113.485 13.8555C113.465 14.868 113.683 15.8709 114.123 16.783C114.527 17.6017 115.157 18.2875 115.939 18.7592V18.7592ZM116.008 11.9314C116.202 11.4062 116.551 10.952 117.007 10.6284C117.513 10.2975 118.11 10.1334 118.714 10.1593C119.146 10.1292 119.579 10.2044 119.975 10.3784C120.372 10.5524 120.72 10.82 120.99 11.1583C121.537 11.9394 121.807 12.8815 121.755 13.8338C121.797 14.7797 121.532 15.7139 120.999 16.4963C120.735 16.7971 120.414 17.0426 120.055 17.219C119.695 17.3954 119.305 17.499 118.905 17.5241C118.506 17.5491 118.105 17.495 117.726 17.3648C117.348 17.2347 116.999 17.031 116.699 16.7656C116.612 16.6875 116.53 16.6049 116.452 16.518C115.903 15.7342 115.632 14.7893 115.683 13.8338C115.669 13.1823 115.778 12.534 116.004 11.9227L116.008 11.9314Z" fill="#030504"/>
<path d="M128.9 8.51741H126.837V19.1848H128.9V8.51741Z" fill="#030504"/>
<path d="M128.9 4.76472H126.837V6.77138H128.9V4.76472Z" fill="#030504"/>
<path d="M139.806 19.1849H141.9V13.2605C141.897 12.8767 141.868 12.4936 141.813 12.1138C141.748 11.659 141.636 11.2121 141.478 10.7804C141.31 10.324 141.068 9.89838 140.762 9.52079C140.431 9.12135 140.013 8.80209 139.541 8.58696C138.955 8.34109 138.322 8.22692 137.687 8.25251C136.825 8.22768 135.974 8.44272 135.228 8.87362C134.818 9.12974 134.456 9.45615 134.16 9.83786V8.53484H132.314V19.1849H134.407V13.634C134.396 13.0892 134.467 12.5457 134.62 12.0226C134.736 11.6304 134.934 11.2676 135.202 10.9585C135.44 10.695 135.738 10.4937 136.071 10.3721C136.406 10.2471 136.76 10.1852 137.118 10.1897C137.602 10.1662 138.083 10.2871 138.499 10.5372C138.846 10.7625 139.128 11.0757 139.315 11.4449C139.513 11.8272 139.647 12.2396 139.711 12.6654C139.78 13.0875 139.815 13.5146 139.815 13.9424L139.806 19.1849Z" fill="#030504"/>
<path d="M70.1115 35.0601H75.2888V33.01H70.1115V28.9749H76.4745V26.9292H68.0483V41.1365H70.1158L70.1115 35.0601Z" fill="#030504"/>
<path d="M80.2187 40.7108C81.066 41.1828 82.0199 41.4306 82.9898 41.4306C83.9598 41.4306 84.9136 41.1828 85.7609 40.7108C86.5446 40.2352 87.1772 39.5469 87.5852 38.7259C88.0105 37.8093 88.2309 36.811 88.2309 35.8006C88.2309 34.7901 88.0105 33.7919 87.5852 32.8753C87.1778 32.0567 86.5487 31.3689 85.7696 30.8904C84.9244 30.4215 83.9738 30.1754 83.0072 30.1754C82.0407 30.1754 81.09 30.4215 80.2448 30.8904C79.4624 31.365 78.8289 32.0497 78.4162 32.8666C77.9691 33.7813 77.7458 34.7892 77.7647 35.8071C77.7472 36.8193 77.9658 37.8216 78.4032 38.7346C78.8092 39.5519 79.4387 40.2372 80.2187 40.7108V40.7108ZM80.2882 33.883C80.481 33.3572 80.8295 32.9026 81.2872 32.5799C81.7935 32.2496 82.3902 32.0856 82.9942 32.1109C83.4265 32.0806 83.8597 32.1561 84.2563 32.3309C84.6529 32.5058 85.0008 32.7746 85.2701 33.1142C85.8172 33.8939 86.0878 34.8342 86.0389 35.7854C86.0772 36.7308 85.8124 37.6636 85.2832 38.4479C85.0193 38.7489 84.6985 38.9949 84.3393 39.1716C83.9801 39.3484 83.5896 39.4525 83.19 39.4779C82.7905 39.5033 82.3899 39.4496 82.0112 39.3198C81.6325 39.19 81.2831 38.9867 80.9832 38.7215V38.7215C80.8939 38.6446 80.8098 38.5619 80.7313 38.474C80.1848 37.6891 79.9143 36.7449 79.9625 35.7897C79.9483 35.1378 80.0589 34.4891 80.2882 33.8786V33.883Z" fill="#030504"/>
<path d="M100.429 41.1365V30.4691H98.3438V36.0199C98.3536 36.5633 98.2819 37.105 98.131 37.627C98.0143 38.0201 97.8159 38.3842 97.5489 38.6955C97.3116 38.9589 97.0133 39.1602 96.6802 39.2819C96.3442 39.4072 95.9878 39.4691 95.6292 39.4643C95.1462 39.4851 94.6676 39.3643 94.2523 39.1168C93.9039 38.8926 93.6219 38.5791 93.4357 38.209C93.2381 37.8262 93.1031 37.4141 93.0361 36.9885C92.9701 36.5661 92.9367 36.1391 92.9362 35.7116V30.4691H90.8427V36.3935C90.8456 36.7772 90.8746 37.1603 90.9296 37.5401C90.9948 37.995 91.1069 38.4418 91.264 38.8736C91.4302 39.3308 91.6725 39.7567 91.9807 40.1332C92.3118 40.5326 92.729 40.8519 93.2012 41.067C93.7863 41.3186 94.4191 41.4401 95.0558 41.4232C95.9191 41.4491 96.7723 41.2324 97.5185 40.7977C97.929 40.5455 98.2896 40.2201 98.5827 39.8378V41.1408L100.429 41.1365Z" fill="#030504"/>
<path d="M109.12 30.1824C108.257 30.1551 107.404 30.3703 106.657 30.8035C106.248 31.0569 105.887 31.382 105.593 31.7634V30.4604H103.747V41.1365H105.841V35.5856C105.828 35.0407 105.9 34.4972 106.053 33.9742C106.167 33.58 106.366 33.2153 106.635 32.9057C106.874 32.6437 107.172 32.4427 107.504 32.3194C107.84 32.1982 108.194 32.1365 108.551 32.1369C109.034 32.1148 109.513 32.2357 109.928 32.4844C110.278 32.7082 110.561 33.0217 110.749 33.3922C110.945 33.7752 111.078 34.1873 111.144 34.6127C111.215 35.0434 111.249 35.4792 111.248 35.9157V41.1365H113.342V35.2077C113.339 34.824 113.31 34.4409 113.255 34.0611C113.188 33.6065 113.076 33.1597 112.92 32.7276C112.754 32.2704 112.512 31.8445 112.204 31.468C111.872 31.0696 111.455 30.7505 110.983 30.5342C110.396 30.2811 109.759 30.161 109.12 30.1824V30.1824Z" fill="#030504"/>
<path d="M123.353 40.6848C123.574 40.5238 123.779 40.342 123.966 40.1419V41.1365H125.803V26.9292H123.731V31.2162C123.34 30.8597 122.881 30.585 122.382 30.4082C121.883 30.2315 121.354 30.1562 120.825 30.1868C119.902 30.1619 118.993 30.4195 118.219 30.9251C117.485 31.4263 116.903 32.1187 116.534 32.9275C116.141 33.8294 115.948 34.806 115.969 35.7898C115.946 36.7751 116.139 37.7535 116.534 38.6564C116.893 39.4708 117.47 40.1699 118.202 40.6761C118.963 41.184 119.863 41.4435 120.778 41.4188C121.692 41.4558 122.595 41.1985 123.353 40.6848ZM118.471 37.7052C118.25 37.0928 118.141 36.4453 118.15 35.7941C118.141 35.1472 118.25 34.504 118.471 33.896C118.663 33.3602 119.003 32.8901 119.453 32.5409C119.946 32.1926 120.539 32.0156 121.142 32.0371C121.712 32.0178 122.272 32.1857 122.736 32.5148C123.168 32.8479 123.491 33.3013 123.666 33.8179C123.878 34.4472 123.979 35.1085 123.966 35.7724C123.979 36.4359 123.879 37.0969 123.67 37.7269C123.5 38.2562 123.173 38.7212 122.732 39.0604C122.248 39.402 121.665 39.5731 121.073 39.5468C120.486 39.5682 119.909 39.3907 119.435 39.043C118.992 38.6916 118.658 38.2217 118.471 37.6878V37.7052Z" fill="#030504"/>
<path d="M137.439 32.2065C137.126 31.5189 136.573 30.9691 135.884 30.6602C135.097 30.318 134.245 30.1506 133.386 30.1694C132.339 30.1166 131.302 30.4013 130.429 30.9817C129.695 31.5138 129.163 32.2796 128.921 33.1534L130.85 33.7484C130.917 33.4769 131.039 33.2218 131.207 32.998C131.374 32.7742 131.585 32.5863 131.827 32.4454C132.299 32.1845 132.83 32.0499 133.369 32.0545C134.238 32.0545 134.885 32.2586 135.25 32.6626C135.6 33.1026 135.786 33.6509 135.775 34.2132L134.559 34.3869C133.895 34.4781 133.256 34.578 132.665 34.6822C132.123 34.7734 131.587 34.8952 131.058 35.0471C130.561 35.1989 130.092 35.4339 129.673 35.742C129.301 36.0113 129.002 36.3698 128.804 36.7845C128.603 37.2319 128.505 37.7188 128.517 38.2091C128.51 38.7672 128.651 39.3172 128.926 39.8031C129.211 40.2985 129.631 40.7023 130.138 40.9672C130.752 41.2771 131.435 41.4265 132.122 41.4015C133 41.439 133.871 41.241 134.646 40.8282C135.175 40.5152 135.629 40.0896 135.975 39.5816V41.1322H137.804V34.565C137.805 34.1458 137.785 33.7268 137.743 33.3097C137.709 32.9266 137.606 32.5528 137.439 32.2065V32.2065ZM135.541 37.6314C135.453 38.007 135.281 38.3575 135.037 38.6565C134.759 38.9927 134.41 39.264 134.016 39.4513C133.545 39.6704 133.029 39.7761 132.509 39.7597C132.136 39.7754 131.765 39.7056 131.423 39.5556C131.16 39.4364 130.94 39.2412 130.789 38.9953C130.651 38.7642 130.579 38.4999 130.581 38.2308C130.573 37.977 130.639 37.7264 130.772 37.5098C130.908 37.3071 131.086 37.1354 131.293 37.006C131.531 36.8603 131.785 36.7409 132.049 36.6498C132.427 36.5371 132.811 36.4458 133.2 36.3762C133.634 36.3023 134.116 36.2242 134.65 36.146L135.749 35.9809C135.749 36.1547 135.749 36.3545 135.749 36.5803C135.731 36.9389 135.661 37.293 135.541 37.6314Z" fill="#030504"/>
<path d="M143.906 27.5069H141.83V30.4691H139.784V32.1413H141.83V36.9408C141.83 37.5185 141.83 38.0353 141.856 38.4957C141.878 38.9664 142.004 39.4262 142.225 39.8422C142.473 40.3241 142.877 40.7072 143.372 40.9281C143.92 41.1674 144.511 41.2944 145.109 41.3016C145.772 41.3228 146.435 41.2674 147.086 41.1365V39.3992C146.482 39.4946 145.87 39.5165 145.261 39.4643C145.03 39.4517 144.806 39.3816 144.608 39.2602C144.411 39.1388 144.247 38.9701 144.132 38.7694C143.998 38.5243 143.928 38.2495 143.928 37.9702C143.928 37.6531 143.928 37.2796 143.928 36.8539V32.1413H147.099V30.4691H143.928L143.906 27.5069Z" fill="#030504"/>
<path d="M151.733 26.7164H149.67V28.723H151.733V26.7164Z" fill="#030504"/>
<path d="M151.733 30.4691H149.67V41.1365H151.733V30.4691Z" fill="#030504"/>
<path d="M162.622 30.8947C161.778 30.4258 160.828 30.1797 159.862 30.1797C158.896 30.1797 157.946 30.4258 157.102 30.8947C156.319 31.3682 155.687 32.0534 155.277 32.871C154.826 33.7843 154.603 34.7931 154.626 35.8115C154.604 36.8236 154.821 37.8266 155.26 38.739C155.665 39.5606 156.294 40.2505 157.076 40.7282C157.922 41.2003 158.875 41.4481 159.845 41.4481C160.814 41.4481 161.767 41.2003 162.613 40.7282C163.398 40.2537 164.031 39.5651 164.438 38.7433C164.863 37.8267 165.083 36.8284 165.083 35.818C165.083 34.8076 164.863 33.8093 164.438 32.8927C164.033 32.069 163.403 31.3765 162.622 30.8947V30.8947ZM162.136 38.4566C161.871 38.7574 161.55 39.0029 161.191 39.1793C160.832 39.3557 160.441 39.4593 160.042 39.4844C159.642 39.5094 159.242 39.4553 158.863 39.3251C158.484 39.195 158.135 38.9913 157.836 38.7259V38.7259C157.747 38.6478 157.663 38.5652 157.584 38.4783C157.037 37.6937 156.766 36.7494 156.815 35.7941C156.801 35.1421 156.911 34.4935 157.141 33.883C157.335 33.3579 157.683 32.9036 158.14 32.58C158.647 32.262 159.24 32.1088 159.838 32.1413C160.271 32.1125 160.704 32.1887 161.101 32.3634C161.498 32.5381 161.847 32.8061 162.118 33.1446C162.662 33.9258 162.931 34.8653 162.883 35.8158C162.922 36.7613 162.657 37.6943 162.127 38.4783L162.136 38.4566Z" fill="#030504"/>
<path d="M170.753 32.9058C170.991 32.6432 171.289 32.4421 171.622 32.3194C171.957 32.1982 172.311 32.1365 172.668 32.137C173.151 32.1161 173.63 32.2369 174.045 32.4844C174.393 32.7108 174.676 33.0236 174.866 33.3922C175.062 33.7755 175.195 34.1875 175.261 34.6127C175.327 35.044 175.362 35.4795 175.366 35.9157V41.1365H177.459V35.2121C177.454 34.8284 177.425 34.4455 177.372 34.0654C177.308 33.6101 177.194 33.163 177.033 32.732C176.869 32.2749 176.628 31.8489 176.321 31.4724C175.989 31.074 175.572 30.7549 175.101 30.5386C174.515 30.2824 173.88 30.1607 173.242 30.1824C172.38 30.1555 171.529 30.3707 170.783 30.8035C170.372 31.0556 170.009 31.381 169.715 31.7634V30.4604H167.869V41.1365H169.962V35.5856C169.95 35.0408 170.022 34.4972 170.175 33.9742C170.288 33.5804 170.485 33.2158 170.753 32.9058V32.9058Z" fill="#030504"/>
<path d="M189.46 26.6469C189.129 26.669 188.804 26.7422 188.496 26.864C188.154 27.0024 187.85 27.2179 187.605 27.4938C187.391 27.7334 187.229 28.0142 187.128 28.3191C187.035 28.614 186.977 28.9186 186.954 29.2269C186.954 29.5352 186.928 29.8219 186.928 30.0955V30.4734H185.16V32.1413H186.928V41.1365H188.991V32.1413H191.688V30.4691H188.991V29.6959C188.981 29.5074 189.01 29.3188 189.076 29.1418C189.142 28.9647 189.243 28.803 189.373 28.6665C189.522 28.5375 189.695 28.4393 189.882 28.3774C190.069 28.3155 190.267 28.2913 190.463 28.306H191.71V26.6165H190.368C190.073 26.6165 189.782 26.6251 189.46 26.6469Z" fill="#030504"/>
<path d="M201.157 30.8948C200.312 30.427 199.362 30.1816 198.397 30.1816C197.431 30.1816 196.481 30.427 195.636 30.8948C194.852 31.3669 194.218 32.0523 193.808 32.871C193.359 33.785 193.135 34.7934 193.156 35.8115C193.139 36.8237 193.357 37.826 193.795 38.739C194.199 39.5596 194.827 40.2492 195.606 40.7283C196.453 41.2003 197.407 41.448 198.377 41.448C199.347 41.448 200.301 41.2003 201.148 40.7283C201.932 40.2526 202.564 39.5643 202.972 38.7433C203.398 37.8268 203.618 36.8285 203.618 35.818C203.618 34.8076 203.398 33.8093 202.972 32.8927C202.569 32.0677 201.94 31.3746 201.157 30.8948V30.8948ZM200.666 38.4567C200.402 38.7574 200.081 39.003 199.721 39.1793C199.362 39.3557 198.971 39.4594 198.572 39.4844C198.172 39.5094 197.772 39.4553 197.393 39.3251C197.015 39.195 196.666 38.9914 196.366 38.7259V38.7259C196.277 38.649 196.193 38.5663 196.114 38.4784C195.567 37.6938 195.297 36.7494 195.345 35.7941C195.331 35.1422 195.442 34.4935 195.671 33.883C195.865 33.3579 196.213 32.9037 196.67 32.58C197.181 32.2594 197.779 32.1061 198.381 32.1413C198.813 32.1082 199.247 32.1802 199.644 32.3511C200.042 32.5221 200.393 32.7869 200.666 33.1229C201.213 33.9027 201.484 34.8429 201.435 35.7941C201.469 36.7409 201.2 37.6739 200.666 38.4567V38.4567Z" fill="#030504"/>
<path d="M211.147 30.4039C210.8 30.4289 210.457 30.496 210.126 30.6037C209.802 30.7077 209.497 30.8632 209.223 31.0641C208.936 31.2558 208.686 31.497 208.484 31.7764C208.393 31.9067 208.306 32.0414 208.228 32.1804V30.4691H206.391V41.1365H208.476V35.7507C208.475 35.3461 208.519 34.9427 208.606 34.5475C208.693 34.1827 208.839 33.8349 209.04 33.5181C209.257 33.1839 209.547 32.9029 209.888 32.6961C210.228 32.4893 210.611 32.362 211.008 32.3237C211.396 32.2801 211.789 32.3066 212.167 32.4019V30.4691C211.831 30.4054 211.488 30.3836 211.147 30.4039Z" fill="#030504"/>
<path d="M222.891 27.5069H220.82V30.4691H218.774V32.1413H220.82V36.9408C220.82 37.5185 220.82 38.0353 220.841 38.4957C220.863 38.967 220.99 39.4273 221.215 39.8422C221.46 40.3258 221.865 40.7095 222.361 40.9281C222.909 41.1684 223.5 41.2955 224.099 41.3016C224.762 41.323 225.425 41.2676 226.075 41.1365V39.3992C225.472 39.4946 224.859 39.5165 224.251 39.4643C224.02 39.451 223.796 39.3805 223.599 39.2592C223.402 39.1379 223.238 38.9696 223.122 38.7694C222.992 38.5229 222.923 38.2488 222.922 37.9702C222.922 37.6531 222.922 37.2796 222.922 36.8539V32.1413H226.092V30.4691H222.922L222.891 27.5069Z" fill="#030504"/>
<path d="M237.737 32.732C237.573 32.2739 237.33 31.8477 237.02 31.4724C236.69 31.0718 236.273 30.7523 235.8 30.5386C235.216 30.2829 234.582 30.1612 233.945 30.1824C233.09 30.1592 232.245 30.3743 231.504 30.8035C231.095 31.0569 230.734 31.3821 230.44 31.7634V26.9292H228.59V41.1365H230.683V35.5856C230.674 35.0409 230.746 34.4978 230.896 33.9742C231.014 33.5818 231.214 33.219 231.483 32.9101C231.719 32.6451 232.018 32.4422 232.351 32.3194C232.679 32.2021 233.024 32.1418 233.372 32.1413C233.855 32.1204 234.333 32.2412 234.749 32.4888C235.096 32.7151 235.379 33.0279 235.57 33.3965C235.765 33.7799 235.899 34.1918 235.965 34.617C236.031 35.0483 236.066 35.4838 236.069 35.9201V41.1365H238.163V35.2121C238.158 34.8284 238.129 34.4455 238.076 34.0654C238.011 33.6101 237.898 33.163 237.737 32.732V32.732Z" fill="#030504"/>
<path d="M249.907 36.3848H250.937C251.043 35.263 250.895 34.1316 250.502 33.0751C250.164 32.188 249.556 31.4288 248.765 30.9034C247.936 30.3818 246.969 30.1201 245.99 30.152C245.031 30.1288 244.084 30.3708 243.253 30.8513C242.467 31.3256 241.833 32.0142 241.425 32.8363C240.964 33.782 240.737 34.8249 240.765 35.8767C240.744 36.8843 240.973 37.8813 241.433 38.7781C241.86 39.5902 242.507 40.2649 243.301 40.7239C244.152 41.2008 245.115 41.4408 246.09 41.4189C247.083 41.4305 248.06 41.1578 248.904 40.6327C249.749 40.1089 250.409 39.3345 250.793 38.4176L248.774 37.7878C248.535 38.3053 248.152 38.7427 247.671 39.0474C247.165 39.3456 246.585 39.4961 245.998 39.4817C245.573 39.508 245.148 39.4346 244.757 39.2671C244.365 39.0997 244.019 38.8429 243.744 38.5175C243.283 37.8974 243.019 37.1526 242.988 36.3805L249.907 36.3848ZM243.744 32.9752C244.029 32.6414 244.389 32.3791 244.794 32.2094C245.199 32.0397 245.638 31.9673 246.077 31.998C246.469 31.9674 246.862 32.0302 247.226 32.1812C247.589 32.3322 247.911 32.5671 248.166 32.8667C248.548 33.4254 248.775 34.0762 248.822 34.7517H243.036C243.109 34.1017 243.354 33.4826 243.744 32.9579V32.9752Z" fill="#030504"/>
<path d="M73.2387 63.0795C73.5849 63.0656 73.93 63.0323 74.2724 62.9796C75.3066 62.876 76.285 62.461 77.0783 61.7895C77.8596 61.1176 78.4575 60.2583 78.8156 59.292C79.5932 57.1406 79.5932 54.7849 78.8156 52.6335C78.4551 51.6661 77.8577 50.8044 77.0783 50.1274C76.283 49.4584 75.3059 49.0425 74.2724 48.9329C73.9296 48.8875 73.5845 48.8614 73.2387 48.8548H72.5003H68.0483V63.0795H72.5047H73.2387ZM70.1592 50.831H72.5003H73.2952C73.572 50.8366 73.848 50.8642 74.1204 50.9135C74.785 51.0239 75.3953 51.3488 75.8578 51.8387C76.327 52.3523 76.6704 52.9679 76.8611 53.6369C77.0819 54.3915 77.1917 55.1743 77.1868 55.9606C77.1906 56.7362 77.0839 57.5084 76.8698 58.2539C76.6843 58.9271 76.3436 59.5474 75.8751 60.0651C75.4083 60.5672 74.7881 60.9003 74.1117 61.012C73.84 61.0557 73.5658 61.0818 73.2908 61.0902C72.9824 61.0902 72.7175 61.0902 72.4916 61.0902H70.1505L70.1592 50.831Z" fill="#030504"/>
<path d="M91.6029 60.3735L89.5788 59.7307C89.3403 60.2482 88.9571 60.6857 88.4756 60.9903C87.9719 61.2937 87.391 61.4446 86.8034 61.4247C86.3785 61.4503 85.9535 61.3765 85.5622 61.2091C85.1709 61.0417 84.824 60.7854 84.5492 60.4604C84.0885 59.8404 83.8265 59.0953 83.7977 58.3235H91.7418C91.8464 57.2016 91.698 56.0706 91.3075 55.0138C90.963 54.1368 90.3562 53.3875 89.5701 52.8681C88.7415 52.3439 87.7746 52.0806 86.7947 52.1124C85.8358 52.091 84.8894 52.3328 84.0583 52.8117C83.2711 53.2857 82.6353 53.9742 82.2254 54.7966C81.7681 55.7435 81.5433 56.7858 81.5696 57.837C81.5483 58.8433 81.7781 59.839 82.2384 60.734C82.6646 61.5462 83.3122 62.2208 84.1061 62.6799C84.9567 63.1568 85.9197 63.3968 86.8946 63.3748C87.8886 63.3865 88.8651 63.1138 89.7091 62.5887C90.5557 62.0655 91.2177 61.2911 91.6029 60.3735V60.3735ZM84.5492 54.9182C84.8347 54.5847 85.1944 54.3226 85.5994 54.1529C86.0044 53.9832 86.4435 53.9106 86.8816 53.9409C87.2755 53.9123 87.6707 53.9781 88.0341 54.133C88.3975 54.2878 88.7186 54.5273 88.9707 54.8313C89.3559 55.3888 89.5826 56.0403 89.6266 56.7164H83.8281C83.8986 56.0651 84.1415 55.4444 84.5318 54.9182H84.5492Z" fill="#030504"/>
<path d="M103.808 60.1564L101.714 59.6612C101.532 60.1774 101.205 60.6299 100.772 60.9643C100.298 61.2895 99.7304 61.4512 99.156 61.4247C98.7325 61.4505 98.3092 61.3708 97.9241 61.1926C97.539 61.0145 97.2041 60.7435 96.9496 60.404C96.4197 59.6183 96.1549 58.6839 96.1938 57.7371C96.1865 57.0913 96.2968 56.4496 96.5196 55.8434C96.7067 55.3241 97.0419 54.8711 97.4838 54.5403C97.9751 54.2049 98.5617 54.0373 99.156 54.0626C99.7269 54.0556 100.285 54.2305 100.75 54.5621C101.224 54.9104 101.575 55.4 101.753 55.9606L103.808 55.3656C103.572 54.3985 102.989 53.5516 102.17 52.9854C101.29 52.3897 100.245 52.0858 99.1821 52.1167C98.2074 52.0898 97.245 52.3398 96.4066 52.8377C95.637 53.3199 95.0208 54.0115 94.6302 54.8313C94.1996 55.7434 93.9828 56.7416 93.9961 57.7501C93.9863 58.748 94.1968 59.7357 94.6128 60.6428C94.9908 61.4624 95.5931 62.1581 96.3502 62.6495C97.189 63.1548 98.1555 63.4081 99.1343 63.3792C100.176 63.4118 101.202 63.1204 102.07 62.5453C102.897 61.9623 103.508 61.1225 103.808 60.1564V60.1564Z" fill="#030504"/>
<path d="M113.798 52.8812C112.969 52.3575 112.002 52.0942 111.022 52.1254C110.063 52.104 109.117 52.3459 108.286 52.8247C107.498 53.2976 106.862 53.9864 106.453 54.8096C105.994 55.7559 105.769 56.7986 105.797 57.85C105.774 58.856 106.003 59.8517 106.462 60.7471C106.886 61.5602 107.534 62.2352 108.329 62.6929C109.181 63.1704 110.146 63.4104 111.122 63.3879C112.116 63.3996 113.093 63.1268 113.937 62.6017C114.78 62.0772 115.439 61.3029 115.822 60.3866L113.798 59.7438C113.559 60.2613 113.176 60.6987 112.694 61.0034C112.189 61.3016 111.609 61.4521 111.022 61.4377C110.597 61.4637 110.172 61.3901 109.781 61.2227C109.39 61.0552 109.043 60.7987 108.768 60.4735C108.306 59.8539 108.044 59.1086 108.017 58.3365H115.961C116.067 57.2146 115.919 56.0832 115.526 55.0268C115.187 54.1492 114.583 53.3991 113.798 52.8812V52.8812ZM108.768 54.9269C109.054 54.5939 109.414 54.3322 109.819 54.1625C110.224 53.9929 110.663 53.92 111.1 53.9496C111.494 53.9217 111.889 53.9878 112.253 54.1427C112.616 54.2975 112.937 54.5365 113.19 54.84C113.575 55.3972 113.802 56.0488 113.846 56.7251H108.06C108.133 56.075 108.378 55.456 108.768 54.9313V54.9269Z" fill="#030504"/>
<path d="M127.875 54.6836C127.711 54.2255 127.468 53.7993 127.158 53.424C126.828 53.0234 126.411 52.7039 125.938 52.4902C125.354 52.2345 124.72 52.1128 124.083 52.134C123.22 52.1068 122.367 52.3219 121.62 52.7551C121.211 53.0085 120.85 53.3337 120.556 53.715V52.412H118.706V63.0794H120.799V57.5329C120.787 56.9895 120.859 56.4474 121.012 55.9258C121.129 55.5327 121.327 55.1686 121.594 54.8573C121.833 54.5953 122.131 54.3943 122.463 54.271C122.799 54.1456 123.155 54.0838 123.514 54.0886C123.997 54.0677 124.476 54.1885 124.891 54.436C125.239 54.6624 125.521 54.9752 125.712 55.3438C125.908 55.7269 126.041 56.1389 126.107 56.5643C126.173 56.9868 126.206 57.4137 126.207 57.8413V63.0881H128.305V57.1594C128.3 56.7757 128.271 56.3927 128.218 56.0127C128.151 55.5587 128.036 55.1131 127.875 54.6836V54.6836Z" fill="#030504"/>
<path d="M134.247 49.4541H132.17V52.4163H130.125V54.0799H132.17V58.888C132.17 59.4701 132.17 59.9869 132.197 60.4473C132.218 60.9179 132.345 61.3778 132.566 61.7938C132.813 62.2757 133.218 62.6587 133.712 62.8796C134.261 63.119 134.851 63.246 135.45 63.2532C136.113 63.2701 136.775 63.2148 137.426 63.0881V61.3508C136.823 61.4462 136.21 61.4681 135.602 61.4159C135.371 61.4014 135.147 61.3305 134.95 61.2093C134.754 61.0881 134.589 60.9204 134.472 60.721C134.339 60.4759 134.268 60.2011 134.268 59.9218C134.268 59.6033 134.268 59.2297 134.268 58.8012V54.0799H137.439V52.4163H134.268L134.247 49.4541Z" fill="#030504"/>
<path d="M144.675 52.3643C144.326 52.3876 143.982 52.4547 143.65 52.5641C143.328 52.6616 143.024 52.8081 142.747 52.9984C142.464 53.1896 142.216 53.4292 142.017 53.7064C141.923 53.8358 141.838 53.9706 141.761 54.1103V52.399H139.923V63.0665H142.008V57.6806C142.008 57.2775 142.052 56.8755 142.138 56.4818C142.221 56.1144 142.368 55.7645 142.573 55.4481C142.789 55.114 143.078 54.833 143.418 54.6262C143.758 54.4193 144.14 54.292 144.536 54.2537C144.926 54.21 145.32 54.2365 145.7 54.3319V52.3947C145.361 52.3445 145.017 52.3343 144.675 52.3643V52.3643Z" fill="#030504"/>
<path d="M156.363 54.1581C156.05 53.4705 155.498 52.9206 154.808 52.6118C154.021 52.2689 153.169 52.1029 152.311 52.1253C151.264 52.0712 150.227 52.3544 149.353 52.9332C148.619 53.4652 148.087 54.231 147.846 55.1049L149.774 55.6956C149.842 55.4242 149.963 55.169 150.131 54.9452C150.299 54.7214 150.51 54.5335 150.751 54.3926C151.223 54.1323 151.754 53.9977 152.293 54.0017C153.184 54.0017 153.809 54.2058 154.174 54.6098C154.524 55.0515 154.71 55.6012 154.7 56.1647L153.483 56.3341C152.819 56.4297 152.18 56.5252 151.59 56.6338C151.048 56.725 150.511 56.8468 149.983 56.9986C149.485 57.1505 149.016 57.3855 148.597 57.6936C148.232 57.9645 147.941 58.323 147.75 58.736C147.549 59.182 147.451 59.6674 147.463 60.1563C147.456 60.7145 147.597 61.2646 147.872 61.7503C148.158 62.2461 148.578 62.6511 149.084 62.9187C149.699 63.2267 150.381 63.376 151.068 63.3531C151.944 63.3828 152.811 63.1757 153.579 62.7537C154.108 62.4407 154.562 62.0151 154.908 61.5071V63.0577H156.737V56.5209C156.738 56.1017 156.718 55.6827 156.676 55.2656C156.64 54.8805 156.534 54.5051 156.363 54.1581V54.1581ZM154.465 59.583C154.377 59.9531 154.204 60.2979 153.961 60.5907C153.686 60.9277 153.338 61.1992 152.945 61.3855C152.472 61.6042 151.954 61.7098 151.433 61.6939C151.061 61.707 150.69 61.6373 150.347 61.4897C150.087 61.368 149.866 61.1734 149.713 60.9294C149.577 60.698 149.506 60.4337 149.509 60.165C149.5 59.911 149.566 59.66 149.7 59.444C149.835 59.2395 150.013 59.0674 150.221 58.9402C150.46 58.7945 150.713 58.6751 150.977 58.584C151.354 58.4672 151.739 58.3758 152.128 58.3104C152.563 58.2365 153.045 58.1583 153.579 58.0802L154.678 57.9151C154.678 58.0888 154.678 58.2886 154.678 58.5145C154.665 58.8783 154.599 59.2382 154.482 59.583H154.465Z" fill="#030504"/>
<path d="M162.101 48.5681H160.038V63.0882H162.101V48.5681Z" fill="#030504"/>
<path d="M167.665 48.6637H165.602V50.6703H167.665V48.6637Z" fill="#030504"/>
<path d="M167.665 52.4207H165.602V63.0882H167.665V52.4207Z" fill="#030504"/>
<path d="M170.61 54.2667H176.113L170.058 62.7624V63.0882H179.092V61.2422H173.346L179.383 52.7552V52.4207H170.601L170.61 54.2667Z" fill="#030504"/>
<path d="M189.034 52.8812C188.206 52.3575 187.239 52.0942 186.259 52.1254C185.3 52.104 184.354 52.3459 183.523 52.8247C182.734 53.2976 182.098 53.9864 181.69 54.8096C181.23 55.7559 181.005 56.7986 181.034 57.85C181.011 58.856 181.239 59.8517 181.698 60.7471C182.123 61.5602 182.771 62.2352 183.566 62.6929C184.418 63.1704 185.382 63.4104 186.359 63.3879C187.353 63.3996 188.329 63.1268 189.173 62.6017C190.017 62.0772 190.676 61.3029 191.058 60.3866L189.034 59.7438C188.796 60.2613 188.413 60.6987 187.931 61.0034C187.425 61.3016 186.846 61.4521 186.259 61.4377C185.834 61.4637 185.409 61.3901 185.018 61.2227C184.626 61.0552 184.279 60.7987 184.005 60.4735C183.543 59.8539 183.281 59.1086 183.253 58.3365H191.197C191.304 57.2146 191.156 56.0832 190.763 55.0268C190.423 54.1499 189.819 53.4002 189.034 52.8812ZM184.005 54.9269C184.291 54.5939 184.65 54.3322 185.055 54.1625C185.46 53.9929 185.899 53.92 186.337 53.9496C186.731 53.9217 187.126 53.9878 187.489 54.1427C187.852 54.2975 188.174 54.5365 188.426 54.84C188.811 55.3975 189.038 56.049 189.082 56.7251H183.292C183.365 56.075 183.61 55.456 184 54.9313L184.005 54.9269Z" fill="#030504"/>
<path d="M201.213 53.1504C200.822 52.7957 200.364 52.5224 199.866 52.3464C199.368 52.1704 198.839 52.0953 198.312 52.1254C197.388 52.0964 196.479 52.3527 195.706 52.8594C194.968 53.3582 194.384 54.0532 194.021 54.8661C193.613 55.7704 193.411 56.754 193.43 57.7458C193.413 58.737 193.613 59.7199 194.016 60.6254C194.378 61.4383 194.954 62.1367 195.684 62.6451C196.447 63.1484 197.346 63.406 198.26 63.3835C199.173 63.4142 200.073 63.1525 200.827 62.6365C201.049 62.4752 201.254 62.2918 201.439 62.0892V63.0838H203.272V48.8635H201.196L201.213 53.1504ZM201.157 59.7003C200.985 60.2287 200.658 60.6932 200.219 61.0337C199.734 61.3723 199.151 61.5417 198.56 61.5158C197.972 61.5414 197.394 61.3635 196.922 61.012C196.479 60.6606 196.145 60.1907 195.958 59.6569C195.736 59.0444 195.627 58.397 195.636 57.7458C195.628 57.0988 195.736 56.4556 195.958 55.8477C196.149 55.3125 196.489 54.8435 196.939 54.4969C197.43 54.1447 198.025 53.9673 198.629 53.993C199.201 53.9666 199.766 54.1334 200.232 54.4665C200.663 54.7996 200.987 55.2529 201.161 55.7695C201.373 56.3989 201.474 57.0601 201.461 57.724C201.474 58.389 201.374 59.0514 201.166 59.6829L201.157 59.7003Z" fill="#030504"/>
<path d="M81.361 81.4261L78.3684 70.6674H76.1967L73.2041 81.4174L70.2115 70.6587H68.0397L72.1703 84.8834H74.2248L77.2652 74.242L80.3056 84.8834H82.36L86.4949 70.6587H84.3232L81.361 81.4261Z" fill="#030504"/>
<path d="M95.312 74.7068C94.4835 74.1826 93.5166 73.9193 92.5366 73.9511C91.5778 73.9297 90.6313 74.1715 89.8003 74.6503C89.0131 75.1243 88.3773 75.8129 87.9674 76.6353C87.51 77.5822 87.2852 78.6245 87.3115 79.6757C87.2902 80.682 87.5201 81.6777 87.9804 82.5727C88.4065 83.3848 89.0541 84.0595 89.848 84.5186C90.6986 84.9955 91.6616 85.2355 92.6365 85.2135C93.6305 85.2252 94.607 84.9525 95.4511 84.4274C96.296 83.9036 96.9564 83.1292 97.3404 82.2122L95.3164 81.5694C95.0779 82.0869 94.6948 82.5244 94.2132 82.829C93.7074 83.1273 93.128 83.2778 92.541 83.2633C92.1161 83.2894 91.691 83.2157 91.2996 83.0483C90.9082 82.8809 90.5614 82.6243 90.2867 82.2991C89.8251 81.6796 89.563 80.9342 89.5353 80.1621H97.4795C97.5862 79.0403 97.4377 77.9088 97.0451 76.8525C96.7058 75.9738 96.0997 75.2234 95.312 74.7068ZM90.2824 76.7569C90.5678 76.4228 90.9273 76.1601 91.3322 75.9897C91.7372 75.8192 92.1764 75.7458 92.6148 75.7753C93.0087 75.7473 93.4036 75.8135 93.7669 75.9683C94.1301 76.1231 94.4514 76.3622 94.704 76.6657C95.0892 77.2231 95.3158 77.8746 95.3599 78.5507H89.5788C89.6491 77.9007 89.8921 77.2814 90.2824 76.7569V76.7569Z" fill="#030504"/>
<path d="M107.813 74.6634C107.039 74.1572 106.13 73.8996 105.206 73.925C104.303 73.8955 103.413 74.1541 102.666 74.6634C102.539 74.7542 102.417 74.8513 102.301 74.9544V70.6674H100.229V84.8921H102.066V83.8975C102.252 84.0976 102.458 84.2794 102.679 84.4404C103.433 84.9564 104.332 85.2181 105.246 85.1875C106.16 85.2107 107.059 84.9513 107.821 84.4447C108.553 83.9385 109.13 83.2394 109.489 82.4251C109.893 81.5198 110.094 80.5367 110.075 79.5454C110.094 78.555 109.892 77.573 109.485 76.67C109.125 75.8588 108.545 75.1639 107.813 74.6634V74.6634ZM107.578 81.4608C107.388 81.9939 107.052 82.4632 106.609 82.816C106.138 83.1674 105.56 83.3454 104.972 83.3198C104.381 83.3457 103.798 83.1763 103.313 82.8377C102.872 82.4985 102.545 82.0335 102.375 81.5042C102.166 80.8742 102.066 80.2133 102.079 79.5497C102.068 78.8859 102.169 78.225 102.379 77.5952C102.549 77.0705 102.873 76.609 103.308 76.2704C103.773 75.941 104.333 75.7746 104.902 75.797C105.506 75.7713 106.101 75.9487 106.592 76.3008C107.042 76.6475 107.383 77.1164 107.574 77.6516C107.795 78.2596 107.904 78.9028 107.895 79.5497C107.903 80.2005 107.796 80.8476 107.578 81.4608Z" fill="#030504"/>
<path d="M46.0967 46.0967V21.9516H24.1451V0H0V24.1451H21.9517V43.9033H0V68.0483H21.9517V90H46.0967V65.8549H24.1451V46.0967H46.0967ZM2.19345 21.9516V2.19343H21.9517V21.9516H2.19345ZM24.1451 24.1451H43.8989V43.9033H24.1451V24.1451ZM43.8989 68.0483V87.8066H24.1451V68.0483H43.8989ZM21.9517 65.8766H2.19345V46.0967H21.9517V65.8766Z" fill="#030504"/>
<path d="M9.05164 17.0131H10.9193V13.0302H14.2681V11.1626H10.9193V8.99954H15.089V7.13187H9.05164V17.0131Z" fill="#030504"/>
<path d="M31.0033 38.9648H32.871V34.9559H36.2197V33.0882H32.871V30.9512H37.0407V29.1009H31.0033V38.9648Z" fill="#030504"/>
<path d="M11.7011 60.9078C11.9356 60.9078 12.1702 60.9078 12.4004 60.86C13.1418 60.7875 13.8455 60.4991 14.4244 60.0304C14.9844 59.567 15.4177 58.9693 15.684 58.293C16.2618 56.8052 16.2618 55.1551 15.684 53.6673C15.4177 52.991 14.9844 52.3933 14.4244 51.9299C13.8455 51.4612 13.1418 51.1728 12.4004 51.1003C12.1702 51.0743 11.9356 51.0569 11.7011 51.0526C11.4665 51.0482 11.2972 51.0526 11.2233 51.0526H8.02222V60.9295H11.219L11.7011 60.9078ZM9.91595 52.7943H11.7228C11.9138 52.7992 12.1041 52.8196 12.2918 52.8551C12.6921 52.93 13.0559 53.1363 13.3256 53.4414C13.6116 53.7657 13.8209 54.1502 13.938 54.5664C14.2051 55.4737 14.2051 56.4388 13.938 57.3462C13.8215 57.7647 13.6155 58.153 13.3342 58.4841C13.064 58.8007 12.6927 59.014 12.2831 59.0879C12.0953 59.1217 11.905 59.1406 11.7141 59.1443H11.2103H9.90731L9.91595 52.7943Z" fill="#030504"/>
<path d="M32.1109 82.8681L34.022 76.1966L35.9374 82.8681H37.7747L40.6674 72.9912H38.7085L36.8582 79.7799L35.0036 72.9912H33.0404L31.1901 79.7669L29.3355 72.9738H27.3635L30.2563 82.8551L32.1109 82.8681Z" fill="#030504"/>
</g>
<defs>
<clipPath id="clip0_120_4208">
<rect width="250.97" height="90" fill="white"/>
</clipPath>
</defs>
</svg>
