<svg width="162" height="23" viewBox="0 0 162 23" fill="none" xmlns="http://www.w3.org/2000/svg">
<g clip-path="url(#clip0_128_3383)">
<path d="M0.98 17V6.92H7.42V8.299H2.443V11.127H6.58V12.506H2.443V15.621H7.42V17H0.98ZM8.26109 17L11.6981 11.897L8.35209 6.92H10.1441L12.6011 10.658L15.0441 6.92H16.8431L13.4971 11.897L16.9271 17H15.1351L12.6011 13.143L10.0601 17H8.26109ZM18.0425 17V6.92H22.1165C22.2145 6.92 22.3358 6.92467 22.4805 6.934C22.6252 6.93867 22.7628 6.95267 22.8935 6.976C23.4535 7.06467 23.9202 7.256 24.2935 7.55C24.6715 7.844 24.9538 8.215 25.1405 8.663C25.3272 9.111 25.4205 9.60567 25.4205 10.147C25.4205 10.693 25.3272 11.19 25.1405 11.638C24.9538 12.086 24.6715 12.457 24.2935 12.751C23.9202 13.045 23.4535 13.2363 22.8935 13.325C22.7628 13.3437 22.6228 13.3577 22.4735 13.367C22.3288 13.3763 22.2098 13.381 22.1165 13.381H19.5055V17H18.0425ZM19.5055 11.995H22.0605C22.1538 11.995 22.2565 11.9903 22.3685 11.981C22.4852 11.9717 22.5948 11.9553 22.6975 11.932C22.9962 11.862 23.2365 11.7337 23.4185 11.547C23.6005 11.3557 23.7312 11.1363 23.8105 10.889C23.8898 10.6417 23.9295 10.3943 23.9295 10.147C23.9295 9.89967 23.8898 9.65467 23.8105 9.412C23.7312 9.16467 23.6005 8.94767 23.4185 8.761C23.2365 8.56967 22.9962 8.439 22.6975 8.369C22.5948 8.341 22.4852 8.32233 22.3685 8.313C22.2565 8.30367 22.1538 8.299 22.0605 8.299H19.5055V11.995ZM26.9598 17V6.92H28.4228V15.621H32.9868V17H26.9598ZM38.1089 17.21C37.1009 17.21 36.2422 16.9907 35.5329 16.552C34.8235 16.1087 34.2799 15.4927 33.9019 14.704C33.5285 13.9153 33.3419 13.0007 33.3419 11.96C33.3419 10.9193 33.5285 10.0047 33.9019 9.216C34.2799 8.42733 34.8235 7.81367 35.5329 7.375C36.2422 6.93167 37.1009 6.71 38.1089 6.71C39.1122 6.71 39.9685 6.93167 40.6779 7.375C41.3919 7.81367 41.9355 8.42733 42.3089 9.216C42.6822 10.0047 42.8689 10.9193 42.8689 11.96C42.8689 13.0007 42.6822 13.9153 42.3089 14.704C41.9355 15.4927 41.3919 16.1087 40.6779 16.552C39.9685 16.9907 39.1122 17.21 38.1089 17.21ZM38.1089 15.817C38.8229 15.8263 39.4155 15.67 39.8869 15.348C40.3629 15.0213 40.7199 14.5687 40.9579 13.99C41.1959 13.4067 41.3149 12.73 41.3149 11.96C41.3149 11.19 41.1959 10.518 40.9579 9.944C40.7199 9.36533 40.3629 8.915 39.8869 8.593C39.4155 8.271 38.8229 8.10767 38.1089 8.103C37.3949 8.09367 36.7999 8.25 36.3239 8.572C35.8525 8.894 35.4979 9.34667 35.2599 9.93C35.0219 10.5133 34.9005 11.19 34.8959 11.96C34.8912 12.73 35.0079 13.4043 35.2459 13.983C35.4839 14.557 35.8409 15.005 36.3169 15.327C36.7975 15.649 37.3949 15.8123 38.1089 15.817ZM44.2652 17V6.92H48.3392C48.4372 6.92 48.5585 6.92467 48.7032 6.934C48.8478 6.93867 48.9855 6.95267 49.1162 6.976C49.6762 7.06467 50.1428 7.256 50.5162 7.55C50.8942 7.844 51.1765 8.215 51.3632 8.663C51.5498 9.111 51.6432 9.60567 51.6432 10.147C51.6432 10.9497 51.4378 11.6427 51.0272 12.226C50.6165 12.8047 50.0005 13.1663 49.1792 13.311L48.5842 13.381H45.7282V17H44.2652ZM50.1592 17L48.1712 12.898L49.6482 12.52L51.8322 17H50.1592ZM45.7282 11.995H48.2832C48.3765 11.995 48.4792 11.9903 48.5912 11.981C48.7078 11.9717 48.8175 11.9553 48.9202 11.932C49.2188 11.862 49.4592 11.7337 49.6412 11.547C49.8232 11.3557 49.9538 11.1363 50.0332 10.889C50.1125 10.6417 50.1522 10.3943 50.1522 10.147C50.1522 9.89967 50.1125 9.65467 50.0332 9.412C49.9538 9.16467 49.8232 8.94767 49.6412 8.761C49.4592 8.56967 49.2188 8.439 48.9202 8.369C48.8175 8.341 48.7078 8.32233 48.5912 8.313C48.4792 8.30367 48.3765 8.299 48.2832 8.299H45.7282V11.995ZM53.3706 17V6.92H59.8106V8.299H54.8336V11.127H58.9706V12.506H54.8336V15.621H59.8106V17H53.3706ZM66.8075 17V8.299H63.4545V6.92H71.6235V8.299H68.2705V17H66.8075ZM72.7437 17V6.92H74.2067V11.267H79.2467V6.92H80.7167V17H79.2467V12.646H74.2067V17H72.7437ZM82.6831 17V6.92H89.1231V8.299H84.1461V11.127H88.2831V12.506H84.1461V15.621H89.1231V17H82.6831ZM93.607 17V6.92H96.764C96.8573 6.92 97.03 6.92233 97.282 6.927C97.5386 6.93167 97.7836 6.95033 98.017 6.983C98.8056 7.081 99.4683 7.36333 100.005 7.83C100.546 8.29667 100.955 8.88933 101.23 9.608C101.505 10.322 101.643 11.106 101.643 11.96C101.643 12.8187 101.505 13.6073 101.23 14.326C100.955 15.04 100.546 15.6303 100.005 16.097C99.4683 16.559 98.8056 16.839 98.017 16.937C97.7836 16.9697 97.5386 16.9883 97.282 16.993C97.03 16.9977 96.8573 17 96.764 17H93.607ZM95.105 15.607H96.764C96.9226 15.607 97.1116 15.6023 97.331 15.593C97.5503 15.5837 97.744 15.565 97.912 15.537C98.4253 15.439 98.8406 15.2173 99.158 14.872C99.48 14.522 99.7156 14.0927 99.865 13.584C100.014 13.0753 100.089 12.534 100.089 11.96C100.089 11.3673 100.012 10.819 99.858 10.315C99.704 9.80633 99.466 9.38167 99.144 9.041C98.8266 8.69567 98.416 8.47633 97.912 8.383C97.744 8.35033 97.548 8.33167 97.324 8.327C97.1046 8.31767 96.918 8.313 96.764 8.313H95.105V15.607ZM104.984 17L102.058 6.92H103.591L105.712 14.543L107.833 6.927L109.373 6.92L111.494 14.543L113.615 6.92H115.155L112.222 17H110.766L108.603 9.461L106.44 17H104.984ZM116.33 17V6.92H122.77V8.299H117.793V11.127H121.93V12.506H117.793V15.621H122.77V17H116.33ZM124.451 17V6.92H128.413C129.052 6.92 129.589 7.05067 130.023 7.312C130.457 7.57333 130.783 7.91167 131.003 8.327C131.222 8.73767 131.332 9.17167 131.332 9.629C131.332 10.1843 131.194 10.6603 130.919 11.057C130.648 11.4537 130.282 11.7243 129.82 11.869L129.806 11.526C130.45 11.6847 130.944 11.995 131.29 12.457C131.635 12.9143 131.808 13.4487 131.808 14.06C131.808 14.6527 131.689 15.1683 131.451 15.607C131.217 16.0457 130.874 16.3887 130.422 16.636C129.974 16.8787 129.43 17 128.791 17H124.451ZM125.935 15.607H128.567C128.898 15.607 129.194 15.544 129.456 15.418C129.722 15.292 129.929 15.1123 130.079 14.879C130.233 14.641 130.31 14.3587 130.31 14.032C130.31 13.7287 130.242 13.4557 130.107 13.213C129.976 12.9657 129.785 12.772 129.533 12.632C129.285 12.4873 128.994 12.415 128.658 12.415H125.935V15.607ZM125.935 11.036H128.392C128.662 11.036 128.905 10.9823 129.12 10.875C129.339 10.763 129.512 10.6043 129.638 10.399C129.768 10.189 129.834 9.937 129.834 9.643C129.834 9.251 129.703 8.929 129.442 8.677C129.18 8.425 128.83 8.299 128.392 8.299H125.935V11.036Z" fill="#BCF636"/>
<rect x="153.51" y="14.791" width="2.4477" height="2.82963" transform="rotate(-90 153.51 14.791)" fill="#BCF636"/>
<rect x="153.51" y="5" width="2.4477" height="2.82963" transform="rotate(-90 153.51 5)" fill="#BCF636"/>
<rect x="156.34" y="12.3438" width="2.4477" height="2.82963" transform="rotate(-90 156.34 12.3438)" fill="#BCF636"/>
<rect x="156.34" y="7.44824" width="2.4477" height="2.82963" transform="rotate(-90 156.34 7.44824)" fill="#BCF636"/>
<rect x="159.17" y="9.89551" width="2.4477" height="2.82963" transform="rotate(-90 159.17 9.89551)" fill="#BCF636"/>
</g>
<defs>
<clipPath id="clip0_128_3383">
<rect width="162" height="23" fill="white"/>
</clipPath>
</defs>
</svg>
