<svg width="296" height="601" viewBox="0 0 296 601" fill="none" xmlns="http://www.w3.org/2000/svg">
<g clip-path="url(#clip0_121_4215)">
<path fill-rule="evenodd" clip-rule="evenodd" d="M27.3003 8.48305C27.3003 12.8305 30.8246 16.3548 35.172 16.3548C35.9948 16.3548 36.788 16.2286 37.5334 15.9944L138.975 281.487L95.8983 199.309C97.7951 197.872 99.0204 195.595 99.0204 193.031C99.0204 188.684 95.4962 185.159 91.1487 185.159C89.9678 185.159 88.8476 185.419 87.8423 185.885L39.629 95.4388C41.6915 94.0195 43.0438 91.6424 43.0438 88.9495C43.0438 84.6021 39.5195 81.0778 35.172 81.0778C30.8246 81.0778 27.3003 84.6021 27.3003 88.9495C27.3003 93.2969 30.8246 96.8212 35.172 96.8212C35.9039 96.8212 36.6124 96.7214 37.2848 96.5345L85.6965 187.353C84.2052 188.786 83.277 190.8 83.277 193.031C83.277 197.379 86.8013 200.903 91.1487 200.903C91.7236 200.903 92.2841 200.841 92.8239 200.724L141.397 291.846L17.9616 148.629C18.8851 147.339 19.4286 145.759 19.4286 144.052C19.4286 139.704 15.9043 136.18 11.5569 136.18C7.20946 136.18 3.68517 139.704 3.68517 144.052C3.68517 148.399 7.20946 151.923 11.5569 151.923C13.2617 151.923 14.8398 151.381 16.1286 150.46L129.745 282.284L78.0375 232.954C79.1265 231.604 79.7785 229.887 79.7785 228.017C79.7785 223.669 76.2542 220.145 71.9067 220.145C67.5593 220.145 64.035 223.669 64.035 228.017C64.035 232.364 67.5593 235.888 71.9067 235.888C73.4487 235.888 74.8871 235.445 76.1014 234.679L140.941 296.537L23.4611 238.186C23.6826 237.459 23.8018 236.688 23.8018 235.888C23.8018 231.541 20.2775 228.017 15.9301 228.017C11.5826 228.017 8.05833 231.541 8.05833 235.888C8.05833 240.236 11.5826 243.76 15.9301 243.76C18.5551 243.76 20.88 242.475 22.3102 240.5L140.861 299.383L15.9193 285.327C15.7032 281.172 12.2664 277.871 8.05833 277.871C3.71092 277.871 0.18663 281.395 0.18663 285.742C0.18663 290.09 3.71092 293.614 8.05833 293.614C11.6594 293.614 14.6958 291.196 15.6321 287.895L85.9195 295.802C84.0637 297.037 82.7619 299.038 82.4662 301.354L57.0186 301.804C56.7329 297.716 53.3265 294.489 49.1662 294.489C44.8188 294.489 41.2945 298.013 41.2945 302.361C41.2945 306.708 44.8188 310.232 49.1662 310.232C52.8109 310.232 55.8771 307.755 56.7731 304.393L82.5601 303.936C83.29 307.529 86.4663 310.232 90.2741 310.232C93.945 310.232 97.0291 307.72 97.9 304.32L136.118 303.144L26.6452 330.699C25.4305 327.919 22.6564 325.976 19.4286 325.976C15.0812 325.976 11.5569 329.5 11.5569 333.848C11.5569 338.195 15.0812 341.719 19.4286 341.719C23.776 341.719 27.3003 338.195 27.3003 333.848C27.3003 333.631 27.2916 333.417 27.2745 333.205L136.205 305.787L89.195 328.657C87.7523 327.013 85.6358 325.976 83.277 325.976C78.9296 325.976 75.4053 329.5 75.4053 333.848C75.4053 338.195 78.9296 341.719 83.277 341.719C87.6244 341.719 91.1487 338.195 91.1487 333.848C91.1487 332.792 90.9409 331.785 90.5639 330.865L142.617 305.541L74.3669 381.47C73.5929 381.216 72.7659 381.078 71.9067 381.078C67.5593 381.078 64.035 384.602 64.035 388.95C64.035 390.105 64.2838 391.202 64.7308 392.19L13.1071 449.621C11.8971 448.863 10.4662 448.425 8.93297 448.425C4.58556 448.425 1.06126 451.949 1.06126 456.297C1.06126 460.644 4.58556 464.168 8.93297 464.168C13.2804 464.168 16.8047 460.644 16.8047 456.297C16.8047 454.415 16.1445 452.687 15.0431 451.333L66.223 394.396C67.6557 395.891 69.6725 396.821 71.9067 396.821C76.2542 396.821 79.7785 393.297 79.7785 388.95C79.7785 387.241 79.2343 385.66 78.31 384.37L139.12 313.775L25.358 503.378C24.3529 502.912 23.2331 502.652 22.0525 502.652C17.7051 502.652 14.1808 506.177 14.1808 510.524C14.1808 514.871 17.7051 518.396 22.0525 518.396C26.3999 518.396 29.9242 514.871 29.9242 510.524C29.9242 508.288 28.9923 506.27 27.4958 504.838L123.829 344.281L59.9259 464.715C59.0318 464.362 58.0575 464.168 57.0379 464.168C52.6905 464.168 49.1662 467.693 49.1662 472.04C49.1662 476.387 52.6905 479.912 57.0379 479.912C61.3854 479.912 64.9097 476.387 64.9097 472.04C64.9097 469.641 63.8363 467.492 62.1437 466.049L141.002 317.43L107.468 412.443C106.998 412.355 106.513 412.31 106.018 412.31C101.67 412.31 98.1458 415.834 98.1458 420.181C98.1458 424.529 101.67 428.053 106.018 428.053C106.346 428.053 106.669 428.033 106.987 427.994L79.9939 514.097C79.6376 514.048 79.2737 514.022 78.9038 514.022C74.5564 514.022 71.0321 517.547 71.0321 521.894C71.0321 526.242 74.5564 529.766 78.9038 529.766C83.2513 529.766 86.7755 526.242 86.7755 521.894C86.7755 518.826 85.0206 516.168 82.4599 514.87L110.018 426.962C112.335 425.592 113.889 423.068 113.889 420.181C113.889 419.009 113.633 417.897 113.173 416.897L141.843 325.444L93.8558 563.06C93.5419 563.022 93.2222 563.002 92.898 563.002C88.5506 563.002 85.0263 566.526 85.0263 570.874C85.0263 575.221 88.5506 578.745 92.898 578.745C97.2454 578.745 100.77 575.221 100.77 570.874C100.77 567.762 98.9642 565.072 96.3437 563.794L145.396 320.909L136.799 448.427C136.743 448.425 136.686 448.425 136.63 448.425C132.282 448.425 128.758 451.949 128.758 456.297C128.758 460.644 132.282 464.168 136.63 464.168C139.004 464.168 141.132 463.117 142.575 461.456L140.809 529.838C136.967 530.359 134.006 533.653 134.006 537.638C134.006 541.985 137.53 545.509 141.878 545.509C146.225 545.509 149.749 541.985 149.749 537.638C149.749 533.808 147.015 530.618 143.392 529.911L147.196 382.635C148.58 383.844 150.391 384.576 152.373 384.576C154.713 384.576 156.814 383.556 158.256 381.935L187.479 585.275C184.359 586.321 182.111 589.268 182.111 592.74C182.111 597.087 185.635 600.611 189.983 600.611C194.33 600.611 197.854 597.087 197.854 592.74C197.854 588.408 194.356 584.894 190.031 584.868L168.693 436.394C170 437.359 171.616 437.929 173.364 437.929C174.088 437.929 174.788 437.832 175.453 437.649L194.11 525.932C191.181 527.079 189.108 529.93 189.108 533.264C189.108 537.612 192.632 541.136 196.98 541.136C201.327 541.136 204.851 537.612 204.851 533.264C204.851 528.917 201.327 525.393 196.98 525.393C196.865 525.393 196.751 525.395 196.638 525.4L177.857 436.522C179.899 435.1 181.236 432.735 181.236 430.057C181.236 426.22 178.491 423.024 174.857 422.327L157.449 339.95L198.874 487.611C196.151 488.85 194.257 491.594 194.257 494.781C194.257 499.128 197.782 502.652 202.129 502.652C206.477 502.652 210.001 499.128 210.001 494.781C210.001 490.433 206.477 486.909 202.129 486.909C201.873 486.909 201.621 486.921 201.371 486.945L157.35 330.031L234.145 534.321C231.796 535.683 230.216 538.225 230.216 541.136C230.216 545.484 233.74 549.008 238.087 549.008C242.435 549.008 245.959 545.484 245.959 541.136C245.959 536.789 242.435 533.264 238.087 533.264C237.566 533.264 237.057 533.315 236.564 533.412L167.51 349.715L269.379 584.579C267.379 586.007 266.076 588.346 266.076 590.99C266.076 595.338 269.6 598.862 273.948 598.862C278.295 598.862 281.819 595.338 281.819 590.99C281.819 586.643 278.295 583.119 273.948 583.119C273.168 583.119 272.414 583.232 271.703 583.443L154.751 313.804L216.93 405.976C215.417 407.41 214.472 409.44 214.472 411.69C214.472 416.038 217.997 419.562 222.344 419.562C226.691 419.562 230.216 416.038 230.216 411.69C230.216 407.343 226.691 403.818 222.344 403.818C221.176 403.818 220.068 404.073 219.072 404.529L162.343 320.437L266.264 443.253C265.057 444.636 264.327 446.445 264.327 448.425C264.327 452.772 267.851 456.297 272.198 456.297C276.546 456.297 280.07 452.772 280.07 448.425C280.07 444.077 276.546 440.553 272.198 440.553C270.763 440.553 269.417 440.937 268.258 441.609L151.647 303.796L258.268 332.228C258.761 336.101 262.069 339.095 266.076 339.095C270.423 339.095 273.948 335.571 273.948 331.223C273.948 326.876 270.423 323.352 266.076 323.352C262.291 323.352 259.13 326.022 258.375 329.582L200.502 314.149C203.547 313.062 205.726 310.152 205.726 306.734C205.726 302.386 202.202 298.862 197.854 298.862C194.008 298.862 190.806 301.621 190.119 305.268L154.069 300.917L215.35 281.486C216.66 284.015 219.3 285.742 222.344 285.742C226.691 285.742 230.216 282.218 230.216 277.871C230.216 273.523 226.691 269.999 222.344 269.999C217.997 269.999 214.472 273.523 214.472 277.871C214.472 278.263 214.501 278.65 214.557 279.027L161.57 295.828L266.18 240.962C267.624 242.673 269.784 243.76 272.198 243.76C276.546 243.76 280.07 240.236 280.07 235.888C280.07 231.541 276.546 228.017 272.198 228.017C267.851 228.017 264.327 231.541 264.327 235.888C264.327 236.893 264.515 237.854 264.858 238.738L154.685 296.521L284.523 164.264C285.557 164.763 286.717 165.043 287.942 165.043C292.289 165.043 295.813 161.519 295.813 157.171C295.813 152.824 292.289 149.299 287.942 149.299C283.594 149.299 280.07 152.824 280.07 157.171C280.07 159.351 280.956 161.324 282.388 162.75L157.619 289.844L235.684 176.914C236.442 177.157 237.249 177.288 238.087 177.288C242.435 177.288 245.959 173.763 245.959 169.416C245.959 165.069 242.435 161.544 238.087 161.544C233.74 161.544 230.216 165.069 230.216 169.416C230.216 171.994 231.455 174.282 233.37 175.718L160.116 281.686L263.938 88.6556C264.617 88.8471 265.335 88.9495 266.076 88.9495C270.423 88.9495 273.948 85.4252 273.948 81.0778C273.948 76.7304 270.423 73.2061 266.076 73.2061C261.728 73.2061 258.204 76.7304 258.204 81.0778C258.204 83.7612 259.547 86.131 261.597 87.552L162.083 272.574L264.49 38.9354C265.002 39.0402 265.532 39.0953 266.076 39.0953C270.423 39.0953 273.948 35.571 273.948 31.2236C273.948 26.8761 270.423 23.3519 266.076 23.3519C261.728 23.3519 258.204 26.8761 258.204 31.2236C258.204 34.1108 259.758 36.6349 262.076 38.0048L162.845 264.399L213.871 123.912C214.069 123.927 214.27 123.935 214.472 123.935C218.82 123.935 222.344 120.411 222.344 116.063C222.344 111.716 218.82 108.191 214.472 108.191C210.125 108.191 206.601 111.716 206.601 116.063C206.601 119.3 208.555 122.081 211.347 123.29L150.92 289.66L181.468 66.1831C181.68 66.2002 181.894 66.209 182.111 66.209C186.458 66.209 189.983 62.6847 189.983 58.3373C189.983 53.9898 186.458 50.4656 182.111 50.4656C177.763 50.4656 174.239 53.9898 174.239 58.3373C174.239 61.5591 176.175 64.3289 178.946 65.5471L149.916 277.931L153.459 143.977C157.293 143.448 160.245 140.159 160.245 136.18C160.245 131.832 156.721 128.308 152.373 128.308C148.026 128.308 144.501 131.832 144.501 136.18C144.501 140.015 147.245 143.21 150.876 143.909L147.538 270.095L142.775 184.959C146.269 184.155 148.875 181.026 148.875 177.288C148.875 172.94 145.35 169.416 141.003 169.416C136.656 169.416 133.131 172.94 133.131 177.288C133.131 181.363 136.228 184.714 140.196 185.119L145.043 271.758L116.15 70.2526C119.396 69.281 121.761 66.2719 121.761 62.7104C121.761 58.363 118.237 54.8387 113.889 54.8387C109.542 54.8387 106.018 58.363 106.018 62.7104C106.018 66.9564 109.379 70.4173 113.586 70.5764L144.207 284.137L95.3446 119.226C97.5533 117.832 99.0204 115.37 99.0204 112.565C99.0204 108.217 95.4962 104.693 91.1487 104.693C86.8013 104.693 83.277 108.217 83.277 112.565C83.277 116.912 86.8013 120.436 91.1487 120.436C91.7674 120.436 92.3694 120.365 92.9469 120.23L137.221 269.657L39.8492 14.8152C41.7872 13.3813 43.0438 11.0789 43.0438 8.48305C43.0438 4.13562 39.5195 0.611328 35.172 0.611328C30.8246 0.611328 27.3003 4.13562 27.3003 8.48305ZM190.063 307.864L166.076 304.969L191.869 311.847C190.924 310.742 190.28 309.372 190.063 307.864ZM170.593 422.687L156.341 350.44L159.701 373.824C160.052 374.716 160.245 375.688 160.245 376.705C160.245 376.938 160.235 377.17 160.215 377.398L167.098 425.293C167.987 424.125 169.196 423.213 170.593 422.687ZM156.545 370.028L151.06 331.864L153.212 368.877C154.427 369.006 155.559 369.411 156.545 370.028ZM150.632 369.026L148.497 332.292L147.509 370.515C148.412 369.805 149.474 369.288 150.632 369.026ZM144.822 374.474L145.1 363.707L139.356 448.91C140.74 449.421 141.941 450.31 142.834 451.451L144.717 378.542C144.576 377.953 144.501 377.337 144.501 376.705C144.501 375.93 144.613 375.181 144.822 374.474ZM111.273 414.321L124.997 370.543L109.896 413.33C110.391 413.611 110.852 413.943 111.273 414.321ZM98.0418 301.078L128.088 300.546L95.9758 296.933C97.0412 298.052 97.7807 299.485 98.0418 301.078Z" fill="white"/>
</g>
<defs>
<clipPath id="clip0_121_4215">
<rect width="295.627" height="600" fill="white" transform="translate(0.1866 0.611328)"/>
</clipPath>
</defs>
</svg>
