<svg xmlns="http://www.w3.org/2000/svg" width="48.239" height="36.546" viewBox="0 0 48.239 36.546" class="svg-youtube" data-v-90bb914e="" data-v-93152294="" data-v-b99f8496=""><path d="M26.562,44.047a124.366,124.366,0,0,1-17.5-1.283A6.684,6.684,0,0,1,3.442,37.4l0-.014A68.572,68.572,0,0,1,2.5,25.773a68.572,68.572,0,0,1,.94-11.617l0-.014A6.684,6.684,0,0,1,9.064,8.783,122.05,122.05,0,0,1,26.562,7.5a122.484,122.484,0,0,1,17.5,1.283,6.684,6.684,0,0,1,5.623,5.359l0,.014a66.768,66.768,0,0,1,1.055,11.617v.022a79.464,79.464,0,0,1-1.055,11.6l0,.014a6.684,6.684,0,0,1-5.621,5.359A122.047,122.047,0,0,1,26.562,44.047ZM5.227,37.071a4.868,4.868,0,0,0,4.1,3.895h0a122.487,122.487,0,0,0,17.233,1.264,120.135,120.135,0,0,0,17.229-1.263H43.8a4.868,4.868,0,0,0,4.1-3.895,78.488,78.488,0,0,0,1.027-11.309A65,65,0,0,0,47.9,14.475a4.868,4.868,0,0,0-4.1-3.895h0A120.631,120.631,0,0,0,26.562,9.316,120.136,120.136,0,0,0,9.332,10.579H9.325a4.868,4.868,0,0,0-4.1,3.895,66.742,66.742,0,0,0-.911,11.3A66.742,66.742,0,0,0,5.227,37.071Z" transform="translate(-2.5 -7.5)" fill="#060517" data-v-90bb914e=""></path> <path d="M20,33.208V17l13.892,8.1Z" transform="translate(-0.569 -6.831)" fill="#060517" data-v-90bb914e=""></path></svg>