<svg width="32" height="32" viewBox="0 0 32 32" fill="none" xmlns="http://www.w3.org/2000/svg">
<path d="M8.55413 6.55805C11.5681 8.82072 14.8099 13.4085 16.0001 15.8705C17.1904 13.4087 20.4321 8.82068 23.4461 6.55805C25.6208 4.9254 29.1444 3.66215 29.1444 7.68188C29.1444 8.48468 28.6841 14.4258 28.4141 15.3903C27.4758 18.7436 24.0564 19.5989 21.0148 19.0813C26.3315 19.9861 27.684 22.9834 24.7631 25.9806C19.2157 31.673 16.79 24.5524 16.1681 22.7278C16.0541 22.3934 16.0008 22.2369 16 22.3699C15.9993 22.2369 15.9459 22.3934 15.832 22.7278C15.2104 24.5524 12.7847 31.6732 7.23701 25.9806C4.31608 22.9834 5.66854 19.9859 10.9853 19.0813C7.94358 19.5989 4.52417 18.7436 3.58594 15.3903C3.31598 14.4257 2.85571 8.48459 2.85571 7.68188C2.85571 3.66215 6.37952 4.9254 8.55413 6.55805Z" stroke="currentColor" stroke-width="2" stroke-linejoin="round"/>
</svg>
