<svg xmlns="http://www.w3.org/2000/svg" fill="none" viewBox="0 0 211 30"><g filter="url(#a)"><mask id="b" width="211" height="27" x="-.228" y=".25" fill="#000" maskUnits="userSpaceOnUse"><path fill="#fff" d="M-.228.25h211v27h-211z"/><path d="M3.511 11.546V26H.772V1.25h1.287l15.18 14.322V1.25h2.772V26h-1.32L3.511 11.546Zm33 3.465H31V26h-5.478V1.25H39.25v2.739H31v8.25h5.511v2.772ZM58.49 1.25v2.739h-5.512V26H47.5V3.989h-5.51V1.25h16.5ZM66.74 26h-5.48v-5.511h5.478V26Zm5.51-17.193v-1.98c0-.792.144-1.518.43-2.178a5.967 5.967 0 0 1 1.22-1.782 5.894 5.894 0 0 1 1.816-1.188 5.905 5.905 0 0 1 2.244-.429h2.343c.77 0 1.496.154 2.178.462A5.5 5.5 0 0 1 84.263 2.9a4.923 4.923 0 0 1 1.22 1.749c.308.66.462 1.364.462 2.112H83.24c0-.88-.297-1.562-.891-2.046-.573-.506-1.386-.759-2.443-.759h-2.178V7.85c0 .33.199.726.595 1.188.418.462.924.979 1.518 1.551.616.55 1.276 1.144 1.98 1.782a23.538 23.538 0 0 1 1.947 1.98c.615.66 1.121 1.342 1.517 2.046.419.682.627 1.353.627 2.013v2.013c0 .748-.143 1.463-.428 2.145a5.458 5.458 0 0 1-2.937 3.003c-.682.286-1.441.429-2.278.429h-2.31a5.9 5.9 0 0 1-2.243-.429A6.42 6.42 0 0 1 73.9 24.35a6.101 6.101 0 0 1-1.22-1.749 5.574 5.574 0 0 1-.43-2.178h2.772c0 .836.264 1.518.792 2.046.55.528 1.266.792 2.146.792h2.508v-4.026c0-.396-.21-.847-.627-1.353a12.661 12.661 0 0 0-1.518-1.65 42.498 42.498 0 0 0-1.98-1.782 41.331 41.331 0 0 1-1.98-1.914 15.813 15.813 0 0 1-1.519-1.881c-.395-.638-.593-1.254-.593-1.848Zm32.903-7.557v2.739h-5.51V26h-5.479V3.989h-5.51V1.25h16.499ZM113.535 26a5.491 5.491 0 0 1-2.145-.429 6.582 6.582 0 0 1-1.782-1.221 6.582 6.582 0 0 1-1.221-1.782 5.154 5.154 0 0 1-.462-2.145V6.827c0-.704.143-1.386.429-2.046a5.967 5.967 0 0 1 1.221-1.782 5.68 5.68 0 0 1 1.782-1.254 4.936 4.936 0 0 1 2.178-.495h5.247c.77 0 1.496.165 2.178.495a5.68 5.68 0 0 1 1.782 1.254 5.5 5.5 0 0 1 1.188 1.782c.308.66.462 1.342.462 2.046v13.596c0 .748-.154 1.463-.462 2.145a6.233 6.233 0 0 1-1.254 1.782c-.506.506-1.1.913-1.782 1.221a5.254 5.254 0 0 1-2.112.429h-5.247Zm21.879-13.794h5.511v-8.25h-5.511v8.25ZM129.936 26V1.25h10.989c.836 0 1.584.132 2.244.396a4.981 4.981 0 0 1 1.749 1.122 4.62 4.62 0 0 1 1.089 1.749c.264.682.396 1.43.396 2.244v2.376c0 .946-.154 1.716-.462 2.31-.308.572-.649 1.023-1.023 1.353-.352.308-.682.517-.99.627l-.462.165.462.231c.308.132.638.385.99.759.374.352.715.836 1.023 1.452.308.594.462 1.364.462 2.31V26h-5.478V15.011h-5.511V26h-5.478Zm27.72-24.75h5.082c.66 0 1.331.154 2.013.462a6.091 6.091 0 0 1 1.815 1.254c.55.506 1.001 1.1 1.353 1.782.352.66.528 1.353.528 2.079V26h-1.188c-.528.022-1.089.033-1.683.033h-1.617c-.506 0-.847-.011-1.023-.033V15.011h-5.412V26h-5.478V6.827c0-.726.165-1.43.495-2.112a6.704 6.704 0 0 1 1.32-1.782 7.11 7.11 0 0 1 1.815-1.221c.682-.308 1.342-.462 1.98-.462Zm-.132 10.956h5.412v-8.25h-5.412v8.25Zm24.651 2.772v-2.805h8.25v8.217c0 .748-.143 1.463-.429 2.145a5.087 5.087 0 0 1-1.155 1.782 5.551 5.551 0 0 1-1.749 1.221c-.682.308-1.441.462-2.277.462h-5.28a5.659 5.659 0 0 1-2.211-.429 6.101 6.101 0 0 1-1.749-1.221 5.574 5.574 0 0 1-1.617-3.96V6.86c0-.704.143-1.386.429-2.046a5.894 5.894 0 0 1 1.188-1.815 5.68 5.68 0 0 1 1.782-1.254 4.936 4.936 0 0 1 2.178-.495h5.247c.726 0 1.43.165 2.112.495a6.091 6.091 0 0 1 1.815 1.254 5.68 5.68 0 0 1 1.254 1.782c.308.66.462 1.342.462 2.046h-2.706c0-.902-.198-1.595-.594-2.079-.396-.506-.935-.759-1.617-.759h-6.072v19.239h5.511v-8.25h-2.772Zm24.782.033h-5.511v8.217h8.25V26h-13.728V1.25h13.728v2.739h-8.25v8.217h5.511v2.805Z"/></mask><path fill="#fff" d="M3.511 11.546V26H.772V1.25h1.287l15.18 14.322V1.25h2.772V26h-1.32L3.511 11.546Zm33 3.465H31V26h-5.478V1.25H39.25v2.739H31v8.25h5.511v2.772ZM58.49 1.25v2.739h-5.512V26H47.5V3.989h-5.51V1.25h16.5ZM66.74 26h-5.48v-5.511h5.478V26Zm5.51-17.193v-1.98c0-.792.144-1.518.43-2.178a5.967 5.967 0 0 1 1.22-1.782 5.894 5.894 0 0 1 1.816-1.188 5.905 5.905 0 0 1 2.244-.429h2.343c.77 0 1.496.154 2.178.462A5.5 5.5 0 0 1 84.263 2.9a4.923 4.923 0 0 1 1.22 1.749c.308.66.462 1.364.462 2.112H83.24c0-.88-.297-1.562-.891-2.046-.573-.506-1.386-.759-2.443-.759h-2.178V7.85c0 .33.199.726.595 1.188.418.462.924.979 1.518 1.551.616.55 1.276 1.144 1.98 1.782a23.538 23.538 0 0 1 1.947 1.98c.615.66 1.121 1.342 1.517 2.046.419.682.627 1.353.627 2.013v2.013c0 .748-.143 1.463-.428 2.145a5.458 5.458 0 0 1-2.937 3.003c-.682.286-1.441.429-2.278.429h-2.31a5.9 5.9 0 0 1-2.243-.429A6.42 6.42 0 0 1 73.9 24.35a6.101 6.101 0 0 1-1.22-1.749 5.574 5.574 0 0 1-.43-2.178h2.772c0 .836.264 1.518.792 2.046.55.528 1.266.792 2.146.792h2.508v-4.026c0-.396-.21-.847-.627-1.353a12.661 12.661 0 0 0-1.518-1.65 42.498 42.498 0 0 0-1.98-1.782 41.331 41.331 0 0 1-1.98-1.914 15.813 15.813 0 0 1-1.519-1.881c-.395-.638-.593-1.254-.593-1.848Zm32.903-7.557v2.739h-5.51V26h-5.479V3.989h-5.51V1.25h16.499ZM113.535 26a5.491 5.491 0 0 1-2.145-.429 6.582 6.582 0 0 1-1.782-1.221 6.582 6.582 0 0 1-1.221-1.782 5.154 5.154 0 0 1-.462-2.145V6.827c0-.704.143-1.386.429-2.046a5.967 5.967 0 0 1 1.221-1.782 5.68 5.68 0 0 1 1.782-1.254 4.936 4.936 0 0 1 2.178-.495h5.247c.77 0 1.496.165 2.178.495a5.68 5.68 0 0 1 1.782 1.254 5.5 5.5 0 0 1 1.188 1.782c.308.66.462 1.342.462 2.046v13.596c0 .748-.154 1.463-.462 2.145a6.233 6.233 0 0 1-1.254 1.782c-.506.506-1.1.913-1.782 1.221a5.254 5.254 0 0 1-2.112.429h-5.247Zm21.879-13.794h5.511v-8.25h-5.511v8.25ZM129.936 26V1.25h10.989c.836 0 1.584.132 2.244.396a4.981 4.981 0 0 1 1.749 1.122 4.62 4.62 0 0 1 1.089 1.749c.264.682.396 1.43.396 2.244v2.376c0 .946-.154 1.716-.462 2.31-.308.572-.649 1.023-1.023 1.353-.352.308-.682.517-.99.627l-.462.165.462.231c.308.132.638.385.99.759.374.352.715.836 1.023 1.452.308.594.462 1.364.462 2.31V26h-5.478V15.011h-5.511V26h-5.478Zm27.72-24.75h5.082c.66 0 1.331.154 2.013.462a6.091 6.091 0 0 1 1.815 1.254c.55.506 1.001 1.1 1.353 1.782.352.66.528 1.353.528 2.079V26h-1.188c-.528.022-1.089.033-1.683.033h-1.617c-.506 0-.847-.011-1.023-.033V15.011h-5.412V26h-5.478V6.827c0-.726.165-1.43.495-2.112a6.704 6.704 0 0 1 1.32-1.782 7.11 7.11 0 0 1 1.815-1.221c.682-.308 1.342-.462 1.98-.462Zm-.132 10.956h5.412v-8.25h-5.412v8.25Zm24.651 2.772v-2.805h8.25v8.217c0 .748-.143 1.463-.429 2.145a5.087 5.087 0 0 1-1.155 1.782 5.551 5.551 0 0 1-1.749 1.221c-.682.308-1.441.462-2.277.462h-5.28a5.659 5.659 0 0 1-2.211-.429 6.101 6.101 0 0 1-1.749-1.221 5.574 5.574 0 0 1-1.617-3.96V6.86c0-.704.143-1.386.429-2.046a5.894 5.894 0 0 1 1.188-1.815 5.68 5.68 0 0 1 1.782-1.254 4.936 4.936 0 0 1 2.178-.495h5.247c.726 0 1.43.165 2.112.495a6.091 6.091 0 0 1 1.815 1.254 5.68 5.68 0 0 1 1.254 1.782c.308.66.462 1.342.462 2.046h-2.706c0-.902-.198-1.595-.594-2.079-.396-.506-.935-.759-1.617-.759h-6.072v19.239h5.511v-8.25h-2.772Zm24.782.033h-5.511v8.217h8.25V26h-13.728V1.25h13.728v2.739h-8.25v8.217h5.511v2.805Z"/><path stroke="#000" stroke-width="1.5" d="M3.511 11.546V26H.772V1.25h1.287l15.18 14.322V1.25h2.772V26h-1.32L3.511 11.546Zm33 3.465H31V26h-5.478V1.25H39.25v2.739H31v8.25h5.511v2.772ZM58.49 1.25v2.739h-5.512V26H47.5V3.989h-5.51V1.25h16.5ZM66.74 26h-5.48v-5.511h5.478V26Zm5.51-17.193v-1.98c0-.792.144-1.518.43-2.178a5.967 5.967 0 0 1 1.22-1.782 5.894 5.894 0 0 1 1.816-1.188 5.905 5.905 0 0 1 2.244-.429h2.343c.77 0 1.496.154 2.178.462A5.5 5.5 0 0 1 84.263 2.9a4.923 4.923 0 0 1 1.22 1.749c.308.66.462 1.364.462 2.112H83.24c0-.88-.297-1.562-.891-2.046-.573-.506-1.386-.759-2.443-.759h-2.178V7.85c0 .33.199.726.595 1.188.418.462.924.979 1.518 1.551.616.55 1.276 1.144 1.98 1.782a23.538 23.538 0 0 1 1.947 1.98c.615.66 1.121 1.342 1.517 2.046.419.682.627 1.353.627 2.013v2.013c0 .748-.143 1.463-.428 2.145a5.458 5.458 0 0 1-2.937 3.003c-.682.286-1.441.429-2.278.429h-2.31a5.9 5.9 0 0 1-2.243-.429A6.42 6.42 0 0 1 73.9 24.35a6.101 6.101 0 0 1-1.22-1.749 5.574 5.574 0 0 1-.43-2.178h2.772c0 .836.264 1.518.792 2.046.55.528 1.266.792 2.146.792h2.508v-4.026c0-.396-.21-.847-.627-1.353a12.661 12.661 0 0 0-1.518-1.65 42.498 42.498 0 0 0-1.98-1.782 41.331 41.331 0 0 1-1.98-1.914 15.813 15.813 0 0 1-1.519-1.881c-.395-.638-.593-1.254-.593-1.848Zm32.903-7.557v2.739h-5.51V26h-5.479V3.989h-5.51V1.25h16.499ZM113.535 26a5.491 5.491 0 0 1-2.145-.429 6.582 6.582 0 0 1-1.782-1.221 6.582 6.582 0 0 1-1.221-1.782 5.154 5.154 0 0 1-.462-2.145V6.827c0-.704.143-1.386.429-2.046a5.967 5.967 0 0 1 1.221-1.782 5.68 5.68 0 0 1 1.782-1.254 4.936 4.936 0 0 1 2.178-.495h5.247c.77 0 1.496.165 2.178.495a5.68 5.68 0 0 1 1.782 1.254 5.5 5.5 0 0 1 1.188 1.782c.308.66.462 1.342.462 2.046v13.596c0 .748-.154 1.463-.462 2.145a6.233 6.233 0 0 1-1.254 1.782c-.506.506-1.1.913-1.782 1.221a5.254 5.254 0 0 1-2.112.429h-5.247Zm21.879-13.794h5.511v-8.25h-5.511v8.25ZM129.936 26V1.25h10.989c.836 0 1.584.132 2.244.396a4.981 4.981 0 0 1 1.749 1.122 4.62 4.62 0 0 1 1.089 1.749c.264.682.396 1.43.396 2.244v2.376c0 .946-.154 1.716-.462 2.31-.308.572-.649 1.023-1.023 1.353-.352.308-.682.517-.99.627l-.462.165.462.231c.308.132.638.385.99.759.374.352.715.836 1.023 1.452.308.594.462 1.364.462 2.31V26h-5.478V15.011h-5.511V26h-5.478Zm27.72-24.75h5.082c.66 0 1.331.154 2.013.462a6.091 6.091 0 0 1 1.815 1.254c.55.506 1.001 1.1 1.353 1.782.352.66.528 1.353.528 2.079V26h-1.188c-.528.022-1.089.033-1.683.033h-1.617c-.506 0-.847-.011-1.023-.033V15.011h-5.412V26h-5.478V6.827c0-.726.165-1.43.495-2.112a6.704 6.704 0 0 1 1.32-1.782 7.11 7.11 0 0 1 1.815-1.221c.682-.308 1.342-.462 1.98-.462Zm-.132 10.956h5.412v-8.25h-5.412v8.25Zm24.651 2.772v-2.805h8.25v8.217c0 .748-.143 1.463-.429 2.145a5.087 5.087 0 0 1-1.155 1.782 5.551 5.551 0 0 1-1.749 1.221c-.682.308-1.441.462-2.277.462h-5.28a5.659 5.659 0 0 1-2.211-.429 6.101 6.101 0 0 1-1.749-1.221 5.574 5.574 0 0 1-1.617-3.96V6.86c0-.704.143-1.386.429-2.046a5.894 5.894 0 0 1 1.188-1.815 5.68 5.68 0 0 1 1.782-1.254 4.936 4.936 0 0 1 2.178-.495h5.247c.726 0 1.43.165 2.112.495a6.091 6.091 0 0 1 1.815 1.254 5.68 5.68 0 0 1 1.254 1.782c.308.66.462 1.342.462 2.046h-2.706c0-.902-.198-1.595-.594-2.079-.396-.506-.935-.759-1.617-.759h-6.072v19.239h5.511v-8.25h-2.772Zm24.782.033h-5.511v8.217h8.25V26h-13.728V1.25h13.728v2.739h-8.25v8.217h5.511v2.805Z" mask="url(#b)"/></g><path fill="#000" d="M114.987 7.344c0 .828-.28 1.5-.625 1.5s-.625-.672-.625-1.5c0-.829.28-1.5.625-1.5s.625.671.625 1.5Zm3.526 0c0 .828-.28 1.5-.625 1.5s-.625-.672-.625-1.5c0-.829.28-1.5.625-1.5s.625.671.625 1.5Z"/><path fill="#000" fill-rule="evenodd" stroke="#000" stroke-linejoin="round" stroke-width=".5" d="M110.522 9.906c0 3.231 2.51 5.848 5.603 5.848s5.603-2.617 5.603-5.848h.147c0 3.313-2.573 6-5.75 6s-5.75-2.687-5.75-6h.147Z" clip-rule="evenodd"/><defs><filter id="a" width="210.424" height="29.283" x=".022" y=".5" color-interpolation-filters="sRGB" filterUnits="userSpaceOnUse"><feFlood flood-opacity="0" result="BackgroundImageFix"/><feColorMatrix in="SourceAlpha" result="hardAlpha" values="0 0 0 0 0 0 0 0 0 0 0 0 0 0 0 0 0 0 127 0"/><feOffset dy="3"/><feComposite in2="hardAlpha" operator="out"/><feColorMatrix values="0 0 0 0 0 0 0 0 0 0 0 0 0 0 0 0 0 0 0.25 0"/><feBlend in2="BackgroundImageFix" result="effect1_dropShadow_1905_1512"/><feBlend in="SourceGraphic" in2="effect1_dropShadow_1905_1512" result="shape"/></filter></defs></svg>