<svg width="159" height="28" fill="none" xmlns="http://www.w3.org/2000/svg"><g clip-path="url(#a)" fill="#171691"><path d="M13.6 27.18A13.59 13.59 0 1 1 27.2 13.6a13.61 13.61 0 0 1-13.6 13.58ZM13.6 2a11.59 11.59 0 1 0 11.6 11.6A11.62 11.62 0 0 0 13.6 2Z"/><path d="M12.82 9.9v2.53h1.6V9.9l2.09 1.21.77-1.21-2.16-1.32 2.16-1.32-.77-1.21-2.09 1.21V4.73h-1.6v2.53l-2-1.21L10 7.26l2.2 1.32L10 9.9l.78 1.21 2.04-1.21ZM18 17.79v2.52h1.56v-2.52L21.63 19l.78-1.2-2.16-1.33 2.16-1.28-.78-1.19-2.08 1.2v-2.58H18v2.56L15.9 14l-.77 1.2 2.16 1.32-2.16 1.33.77 1.15 2.1-1.21Zm-9.87 0v2.52h1.56v-2.52L11.82 19l.77-1.2-2.16-1.33 2.12-1.28-.73-1.24-2.13 1.23v-2.56H8.13v2.56L6.05 14l-.78 1.2 2.16 1.3-2.16 1.33.78 1.17 2.08-1.21Z"/></g><path d="M36.196 20 34.54 7.4h2.358l1.224 10.944h.324L40.03 7.4h4.104l1.584 10.944h.324L47.266 7.4h2.358L47.968 20h-4.104l-1.62-11.196h-.324L40.3 20h-4.104Zm19.198.252c-.888 0-1.674-.186-2.358-.558a4.147 4.147 0 0 1-1.584-1.602c-.372-.696-.558-1.512-.558-2.448v-.216c0-.936.186-1.746.558-2.43a3.876 3.876 0 0 1 1.566-1.602c.672-.384 1.452-.576 2.34-.576.876 0 1.638.198 2.286.594a3.945 3.945 0 0 1 1.512 1.62c.36.684.54 1.482.54 2.394v.774h-6.498c.024.612.252 1.11.684 1.494.432.384.96.576 1.584.576.636 0 1.104-.138 1.404-.414.3-.276.528-.582.684-.918l1.854.972a5.79 5.79 0 0 1-.738 1.026c-.312.36-.732.672-1.26.936-.528.252-1.2.378-2.016.378Zm-2.178-5.742h4.176c-.048-.516-.258-.93-.63-1.242-.36-.312-.834-.468-1.422-.468-.612 0-1.098.156-1.458.468-.36.312-.582.726-.666 1.242Zm13.863 5.742c-.804 0-1.422-.138-1.854-.414-.432-.276-.75-.582-.954-.918h-.324V20h-2.232V7.4h2.268v4.698h.324c.132-.216.306-.42.522-.612.228-.192.522-.348.882-.468.372-.132.828-.198 1.368-.198.72 0 1.386.18 1.998.54.612.348 1.104.864 1.476 1.548.372.684.558 1.512.558 2.484v.288c0 .972-.186 1.8-.558 2.484-.372.684-.864 1.206-1.476 1.566a3.973 3.973 0 0 1-1.998.522Zm-.684-1.98c.696 0 1.278-.222 1.746-.666.468-.456.702-1.116.702-1.98v-.18c0-.864-.234-1.518-.702-1.962-.456-.456-1.038-.684-1.746-.684-.696 0-1.278.228-1.746.684-.468.444-.702 1.098-.702 1.962v.18c0 .864.234 1.524.702 1.98.468.444 1.05.666 1.746.666Zm11.01 1.98c-.947 0-1.787-.168-2.52-.504-.731-.336-1.307-.816-1.727-1.44-.408-.636-.612-1.386-.612-2.25v-.324h2.304v.252c0 .672.234 1.212.702 1.62.468.396 1.086.594 1.854.594.78 0 1.38-.186 1.8-.558.432-.372.648-.84.648-1.404v-.18c0-.384-.096-.696-.288-.936a1.619 1.619 0 0 0-.774-.522c-.324-.12-.69-.18-1.098-.18h-2.52V11.9l4.068-2.16v-.288H72.87V7.4h8.928v3.06L78 12.476v.288h.666c.564 0 1.11.114 1.638.342.54.228.984.582 1.332 1.062.348.468.522 1.08.522 1.836v.216c0 .816-.198 1.53-.594 2.142-.396.6-.954 1.068-1.674 1.404-.708.324-1.536.486-2.484.486Zm8.18 0c-.492 0-.906-.156-1.242-.468-.324-.324-.486-.738-.486-1.242s.162-.912.486-1.224a1.72 1.72 0 0 1 1.242-.486c.48 0 .882.162 1.206.486.324.312.486.72.486 1.224s-.162.918-.486 1.242c-.324.312-.726.468-1.206.468Zm8.223 0c-.972 0-1.83-.174-2.574-.522-.744-.348-1.326-.846-1.746-1.494-.42-.648-.63-1.428-.63-2.34v-.504h2.34v.504c0 .756.234 1.326.702 1.71.468.372 1.104.558 1.908.558.816 0 1.422-.162 1.818-.486.408-.324.612-.738.612-1.242 0-.348-.102-.63-.306-.846-.192-.216-.48-.39-.864-.522a9.64 9.64 0 0 0-1.368-.396l-.414-.09c-.864-.192-1.608-.432-2.232-.72-.612-.3-1.086-.69-1.422-1.17-.324-.48-.486-1.104-.486-1.872s.18-1.422.54-1.962c.372-.552.888-.972 1.548-1.26.672-.3 1.458-.45 2.358-.45.9 0 1.698.156 2.394.468.708.3 1.26.756 1.656 1.368.408.6.612 1.356.612 2.268v.54h-2.34v-.54c0-.48-.096-.864-.288-1.152a1.52 1.52 0 0 0-.792-.648c-.348-.144-.762-.216-1.242-.216-.72 0-1.254.138-1.602.414-.336.264-.504.63-.504 1.098 0 .312.078.576.234.792.168.216.414.396.738.54.324.144.738.27 1.242.378l.414.09c.9.192 1.68.438 2.34.738.672.3 1.194.696 1.566 1.188.372.492.558 1.122.558 1.89 0 .768-.198 1.446-.594 2.034-.384.576-.936 1.032-1.656 1.368-.708.324-1.548.486-2.52.486ZM103.842 20c-.588 0-1.068-.18-1.44-.54-.36-.372-.54-.864-.54-1.476v-5.04H99.63v-1.872h2.232V8.3h2.268v2.772h2.448v1.872h-2.448v4.644c0 .36.168.54.504.54h1.728V20h-2.52Zm8.721.252c-.888 0-1.686-.18-2.394-.54a4.05 4.05 0 0 1-1.674-1.566c-.408-.684-.612-1.506-.612-2.466v-.288c0-.96.204-1.782.612-2.466a4.05 4.05 0 0 1 1.674-1.566c.708-.36 1.506-.54 2.394-.54.888 0 1.686.18 2.394.54a4.05 4.05 0 0 1 1.674 1.566c.408.684.612 1.506.612 2.466v.288c0 .96-.204 1.782-.612 2.466a4.05 4.05 0 0 1-1.674 1.566c-.708.36-1.506.54-2.394.54Zm0-2.016c.696 0 1.272-.222 1.728-.666.456-.456.684-1.104.684-1.944v-.18c0-.84-.228-1.482-.684-1.926-.444-.456-1.02-.684-1.728-.684-.696 0-1.272.228-1.728.684-.456.444-.684 1.086-.684 1.926v.18c0 .84.228 1.488.684 1.944.456.444 1.032.666 1.728.666ZM119.336 20v-8.928h2.232v1.008h.324c.132-.36.348-.624.648-.792a2.243 2.243 0 0 1 1.08-.252h1.08v2.016h-1.116c-.576 0-1.05.156-1.422.468-.372.3-.558.768-.558 1.404V20h-2.268Zm9.698.252c-.636 0-1.206-.108-1.71-.324a2.933 2.933 0 0 1-1.206-.972c-.288-.432-.432-.954-.432-1.566 0-.612.144-1.122.432-1.53.3-.42.708-.732 1.224-.936.528-.216 1.128-.324 1.8-.324h2.448v-.504c0-.42-.132-.762-.396-1.026-.264-.276-.684-.414-1.26-.414-.564 0-.984.132-1.26.396a1.787 1.787 0 0 0-.54.99l-2.088-.702c.144-.456.372-.87.684-1.242.324-.384.75-.69 1.278-.918.54-.24 1.194-.36 1.962-.36 1.176 0 2.106.294 2.79.882.684.588 1.026 1.44 1.026 2.556v3.33c0 .36.168.54.504.54h.72V20h-1.512c-.444 0-.81-.108-1.098-.324a1.026 1.026 0 0 1-.432-.864v-.018h-.342c-.048.144-.156.336-.324.576-.168.228-.432.432-.792.612-.36.18-.852.27-1.476.27Zm.396-1.836c.636 0 1.152-.174 1.548-.522.408-.36.612-.834.612-1.422v-.18h-2.286c-.42 0-.75.09-.99.27-.24.18-.36.432-.36.756s.126.588.378.792c.252.204.618.306 1.098.306Zm6.63-2.844v-.288c0-.936.186-1.734.558-2.394.372-.672.864-1.182 1.476-1.53a4 4 0 0 1 2.034-.54c.816 0 1.434.144 1.854.432.42.288.726.588.918.9h.324v-1.08h2.232v10.512c0 .612-.18 1.098-.54 1.458-.36.372-.84.558-1.44.558H137.5v-1.98h5.184c.336 0 .504-.18.504-.54v-2.322h-.324a3.09 3.09 0 0 1-.504.594c-.216.192-.504.354-.864.486s-.816.198-1.368.198c-.732 0-1.41-.174-2.034-.522a4.024 4.024 0 0 1-1.476-1.53c-.372-.672-.558-1.476-.558-2.412Zm4.716 2.484c.696 0 1.278-.222 1.746-.666.468-.444.702-1.068.702-1.872v-.18c0-.816-.234-1.44-.702-1.872-.456-.444-1.038-.666-1.746-.666-.696 0-1.278.222-1.746.666-.468.432-.702 1.056-.702 1.872v.18c0 .804.234 1.428.702 1.872.468.444 1.05.666 1.746.666Zm11.263 2.196c-.888 0-1.674-.186-2.358-.558a4.147 4.147 0 0 1-1.584-1.602c-.372-.696-.558-1.512-.558-2.448v-.216c0-.936.186-1.746.558-2.43a3.876 3.876 0 0 1 1.566-1.602c.672-.384 1.452-.576 2.34-.576.876 0 1.638.198 2.286.594a3.945 3.945 0 0 1 1.512 1.62c.36.684.54 1.482.54 2.394v.774h-6.498c.024.612.252 1.11.684 1.494.432.384.96.576 1.584.576.636 0 1.104-.138 1.404-.414.3-.276.528-.582.684-.918l1.854.972a5.79 5.79 0 0 1-.738 1.026c-.312.36-.732.672-1.26.936-.528.252-1.2.378-2.016.378Zm-2.178-5.742h4.176c-.048-.516-.258-.93-.63-1.242-.36-.312-.834-.468-1.422-.468-.612 0-1.098.156-1.458.468-.36.312-.582.726-.666 1.242Z" fill="#171691"/><defs><clipPath id="a"><path fill="#fff" d="M0 0h27.2v27.18H0z"/></clipPath></defs></svg>